%TF.GenerationSoftware,Altium Limited,Altium Designer,21.5.1 (32)*%
G04 Layer_Color=16711935*
%FSLAX45Y45*%
%MOMM*%
%TF.SameCoordinates,1C786601-62C9-430B-884C-CD9D5B78F05E*%
%TF.FilePolarity,Positive*%
%TF.FileFunction,Other,Mechanical_1*%
%TF.Part,Single*%
G01*
G75*
%TA.AperFunction,NonConductor*%
%ADD100C,0.25400*%
%ADD152C,0.06000*%
D100*
X2539997Y10655299D02*
X2539998Y3517900D01*
X3489222Y2568675D01*
X3517899Y2539999D01*
X3530601D01*
X11188699D01*
X12128503Y3479803D01*
X12128502Y10704344D02*
X12128503Y3479803D01*
X11275846Y11557001D02*
X12128502Y10704344D01*
X3441699Y11557001D02*
X11275846D01*
X2539997Y10655299D02*
X3441699Y11557001D01*
D152*
X7527091Y9708689D02*
X7540420D01*
X7533755D01*
Y9748676D01*
X7527091Y9742011D01*
X7560413Y9708689D02*
Y9715353D01*
X7567078D01*
Y9708689D01*
X7560413D01*
X7620394Y9748676D02*
X7593736D01*
Y9728682D01*
X7607065Y9735347D01*
X7613730D01*
X7620394Y9728682D01*
Y9715353D01*
X7613730Y9708689D01*
X7600400D01*
X7593736Y9715353D01*
X7633723Y9748676D02*
Y9722018D01*
X7647052Y9708689D01*
X7660381Y9722018D01*
Y9748676D01*
X7740355Y9742011D02*
X7733690Y9748676D01*
X7720361D01*
X7713697Y9742011D01*
Y9735347D01*
X7720361Y9728682D01*
X7733690D01*
X7740355Y9722018D01*
Y9715353D01*
X7733690Y9708689D01*
X7720361D01*
X7713697Y9715353D01*
X7753684Y9735347D02*
Y9715353D01*
X7760348Y9708689D01*
X7780342D01*
Y9735347D01*
X7793671Y9695360D02*
Y9735347D01*
X7813664D01*
X7820329Y9728682D01*
Y9715353D01*
X7813664Y9708689D01*
X7793671D01*
X7833658Y9695360D02*
Y9735347D01*
X7853651D01*
X7860316Y9728682D01*
Y9715353D01*
X7853651Y9708689D01*
X7833658D01*
X7873645D02*
X7886974D01*
X7880309D01*
Y9748676D01*
X7873645D01*
X7906967Y9735347D02*
Y9715353D01*
X7913632Y9708689D01*
X7933625D01*
Y9702024D01*
X7926961Y9695360D01*
X7920296D01*
X7933625Y9708689D02*
Y9735347D01*
%TF.MD5,1433bdc23dffd67d5b8063a7ad19b128*%
M02*
