%TF.GenerationSoftware,Altium Limited,Altium Designer,21.5.1 (32)*%
G04 Layer_Color=8388736*
%FSLAX45Y45*%
%MOMM*%
%TF.SameCoordinates,1C786601-62C9-430B-884C-CD9D5B78F05E*%
%TF.FilePolarity,Negative*%
%TF.FileFunction,Soldermask,Top*%
%TF.Part,Single*%
G01*
G75*
%TA.AperFunction,SMDPad,CuDef*%
%ADD13R,3.43000X1.78000*%
%ADD17R,0.50000X0.45000*%
%ADD24R,0.76000X0.72000*%
%ADD26R,0.70000X0.65000*%
%ADD27R,1.78000X3.43000*%
%ADD29R,1.00606X1.30822*%
%ADD30R,1.35000X0.95000*%
%ADD37R,0.50000X0.50000*%
%ADD80R,0.92320X0.96320*%
%ADD82R,0.96320X0.92320*%
%TA.AperFunction,ComponentPad*%
%ADD85R,1.75320X1.75320*%
%ADD86C,1.75320*%
%ADD87C,1.70320*%
%ADD88R,1.70320X1.70320*%
%ADD89C,1.80320*%
%ADD90R,1.80320X1.80320*%
%ADD91R,1.75320X1.75320*%
%ADD92C,5.20320*%
%TA.AperFunction,NonConductor*%
%ADD100C,0.25400*%
%TA.AperFunction,SMDPad,CuDef*%
%ADD104C,0.33000*%
%TA.AperFunction,NonConductor*%
%ADD126R,0.72160X1.01602*%
%ADD127R,1.04953X0.90282*%
%ADD128R,1.10408X1.76426*%
%ADD129R,1.50000X1.50000*%
%ADD130R,1.09227X1.12068*%
%TA.AperFunction,BGAPad,CuDef*%
%ADD131C,0.70320*%
%TA.AperFunction,SMDPad,CuDef*%
%ADD132R,1.15320X1.65320*%
%ADD133R,4.60320X3.70320*%
%ADD134R,0.65320X1.15320*%
%ADD135O,1.80320X0.65320*%
%ADD136O,0.80320X2.20320*%
%ADD137R,1.30320X1.95320*%
%ADD138R,1.30320X1.10320*%
%ADD139R,1.15320X1.75320*%
%ADD140R,1.15320X1.00320*%
%ADD141R,1.80320X3.00320*%
G04:AMPARAMS|DCode=142|XSize=0.8032mm|YSize=1.2032mm|CornerRadius=0.1526mm|HoleSize=0mm|Usage=FLASHONLY|Rotation=90.000|XOffset=0mm|YOffset=0mm|HoleType=Round|Shape=RoundedRectangle|*
%AMROUNDEDRECTD142*
21,1,0.80320,0.89800,0,0,90.0*
21,1,0.49800,1.20320,0,0,90.0*
1,1,0.30520,0.44900,0.24900*
1,1,0.30520,0.44900,-0.24900*
1,1,0.30520,-0.44900,-0.24900*
1,1,0.30520,-0.44900,0.24900*
%
%ADD142ROUNDEDRECTD142*%
%ADD143R,1.95320X1.20320*%
%ADD144R,1.65320X1.15320*%
%ADD145R,1.90320X1.55320*%
%ADD146R,0.68320X0.60320*%
%TA.AperFunction,BGAPad,CuDef*%
%ADD147C,0.53320*%
%ADD148C,0.49320*%
%TA.AperFunction,SMDPad,CuDef*%
%ADD149R,1.20320X1.05320*%
%ADD150R,0.90320X1.20320*%
D13*
X2975492Y8915489D02*
D03*
X10334747Y3102031D02*
D03*
X8811603Y9833049D02*
D03*
X7112290Y9352386D02*
D03*
X9249999Y7487498D02*
D03*
X8802011Y6505486D02*
D03*
D17*
X3175193Y6108700D02*
D03*
X3100192D02*
D03*
X7465898Y5941268D02*
D03*
X7390897D02*
D03*
X7788692D02*
D03*
X7863693D02*
D03*
X8711281Y5345897D02*
D03*
X8636279D02*
D03*
X7390897Y6059907D02*
D03*
X7465898D02*
D03*
X3944386Y6108700D02*
D03*
X3869385D02*
D03*
D24*
X8638281Y5208351D02*
D03*
X8734283D02*
D03*
D26*
X8393359Y5345897D02*
D03*
X8488355D02*
D03*
D27*
X6400787Y4520676D02*
D03*
D29*
X7894015Y10165650D02*
D03*
X7748799D02*
D03*
D30*
X8023984Y9652313D02*
D03*
Y9802315D02*
D03*
D37*
X6927555Y6590599D02*
D03*
Y6490599D02*
D03*
D80*
X5756250Y4070345D02*
D03*
Y4166342D02*
D03*
X7093443Y6586774D02*
D03*
Y6490772D02*
D03*
D82*
X4008907Y8596996D02*
D03*
X4008897Y8747420D02*
D03*
X4008902Y8446572D02*
D03*
X4008897Y8296143D02*
D03*
X10761208Y7313900D02*
D03*
Y7137400D02*
D03*
X10665206Y7313900D02*
D03*
Y7137400D02*
D03*
X4104899Y8747420D02*
D03*
X4104909Y8596996D02*
D03*
X4104899Y8296143D02*
D03*
X4104904Y8446572D02*
D03*
D85*
X11633200Y3835400D02*
D03*
X11125200D02*
D03*
D86*
X11633200Y4089400D02*
D03*
Y4343400D02*
D03*
Y4597400D02*
D03*
Y4851400D02*
D03*
Y5105400D02*
D03*
Y5359400D02*
D03*
Y5613400D02*
D03*
Y5867400D02*
D03*
Y6121400D02*
D03*
Y6375400D02*
D03*
Y6629400D02*
D03*
Y6883400D02*
D03*
Y7137400D02*
D03*
Y7391400D02*
D03*
Y7645400D02*
D03*
Y7899400D02*
D03*
Y8153400D02*
D03*
Y8407400D02*
D03*
Y8661400D02*
D03*
Y8915400D02*
D03*
Y9169400D02*
D03*
Y9423400D02*
D03*
Y9677400D02*
D03*
Y9931400D02*
D03*
Y10185400D02*
D03*
X11887200Y3835400D02*
D03*
Y4089400D02*
D03*
Y4343400D02*
D03*
Y4597400D02*
D03*
Y4851400D02*
D03*
Y5105400D02*
D03*
Y5359400D02*
D03*
Y5613400D02*
D03*
Y5867400D02*
D03*
Y6121400D02*
D03*
Y6375400D02*
D03*
Y6629400D02*
D03*
Y6883400D02*
D03*
Y7137400D02*
D03*
Y7391400D02*
D03*
Y7645400D02*
D03*
Y7899400D02*
D03*
Y8153400D02*
D03*
Y8407400D02*
D03*
Y8661400D02*
D03*
Y8915400D02*
D03*
Y9169400D02*
D03*
Y9423400D02*
D03*
Y9677400D02*
D03*
Y9931400D02*
D03*
Y10185400D02*
D03*
X11379200D02*
D03*
Y9931400D02*
D03*
Y9677400D02*
D03*
Y9423400D02*
D03*
Y9169400D02*
D03*
Y8915400D02*
D03*
Y8661400D02*
D03*
Y8407400D02*
D03*
Y8153400D02*
D03*
Y7899400D02*
D03*
Y7645400D02*
D03*
Y7391400D02*
D03*
Y6883400D02*
D03*
Y6629400D02*
D03*
Y6375400D02*
D03*
Y6121400D02*
D03*
Y5867400D02*
D03*
Y5613400D02*
D03*
Y5359400D02*
D03*
Y5105400D02*
D03*
Y4851400D02*
D03*
Y4597400D02*
D03*
Y4343400D02*
D03*
Y4089400D02*
D03*
Y3835400D02*
D03*
X11125200Y10185400D02*
D03*
Y9931400D02*
D03*
Y9677400D02*
D03*
Y9423400D02*
D03*
Y9169400D02*
D03*
Y8915400D02*
D03*
Y8661400D02*
D03*
Y8407400D02*
D03*
Y8153400D02*
D03*
Y7899400D02*
D03*
Y7645400D02*
D03*
Y7391400D02*
D03*
Y6883400D02*
D03*
Y6629400D02*
D03*
Y6375400D02*
D03*
Y6121400D02*
D03*
Y5867400D02*
D03*
Y5613400D02*
D03*
Y5359400D02*
D03*
Y5105400D02*
D03*
Y4851400D02*
D03*
Y4597400D02*
D03*
Y4343400D02*
D03*
Y4089400D02*
D03*
X11379200Y7137400D02*
D03*
X11125200D02*
D03*
X7350902Y5666110D02*
D03*
X7604902D02*
D03*
X7858902D02*
D03*
X8112902D02*
D03*
D87*
X9459628Y4007665D02*
D03*
Y3245665D02*
D03*
Y3499665D02*
D03*
Y3753665D02*
D03*
X10274300Y4013200D02*
D03*
X10020300D02*
D03*
X10274300Y4267200D02*
D03*
X10020300D02*
D03*
X10274300Y4521200D02*
D03*
X10020300D02*
D03*
X10274300Y4775200D02*
D03*
X10020300D02*
D03*
X10274300Y5029200D02*
D03*
X10020300D02*
D03*
X10274300Y5283200D02*
D03*
X10020300D02*
D03*
X10274300Y5537200D02*
D03*
X10020300D02*
D03*
X10274300Y5791200D02*
D03*
X10020300D02*
D03*
X10274300Y6045200D02*
D03*
X10020300D02*
D03*
X10274300Y6299200D02*
D03*
X10020300D02*
D03*
X10274300Y6553200D02*
D03*
X10020300D02*
D03*
X10274300Y6807200D02*
D03*
X10020300D02*
D03*
X10274300Y7061200D02*
D03*
X10020300D02*
D03*
X10274300Y7315200D02*
D03*
X10020300D02*
D03*
X10274300Y7569200D02*
D03*
X10020300D02*
D03*
X10274300Y7823200D02*
D03*
X10020300D02*
D03*
X10274300Y8077200D02*
D03*
X10020300D02*
D03*
X10274300Y8331200D02*
D03*
X10020300D02*
D03*
X10274300Y8585200D02*
D03*
X10020300D02*
D03*
X10274300Y8839200D02*
D03*
X3644900Y8394700D02*
D03*
X3390900Y8140700D02*
D03*
X3644900D02*
D03*
X3390900Y7886700D02*
D03*
X3644900D02*
D03*
X3390900Y7632700D02*
D03*
X3644900D02*
D03*
X3390900Y7378700D02*
D03*
X3644900D02*
D03*
X3390900Y7124700D02*
D03*
X3644900D02*
D03*
X3390900Y6870700D02*
D03*
X3644900D02*
D03*
X3390900Y6616700D02*
D03*
X3644900D02*
D03*
X3390900Y6362700D02*
D03*
X3644900D02*
D03*
X3390900Y6108700D02*
D03*
X3644900D02*
D03*
D88*
X9459628Y4261665D02*
D03*
X10020300Y8839200D02*
D03*
X3390900Y8394700D02*
D03*
D89*
X8810371Y3395889D02*
D03*
X8556371D02*
D03*
X7794371D02*
D03*
X7286371D02*
D03*
X6778371D02*
D03*
X7032371D02*
D03*
X7540371D02*
D03*
X8048371D02*
D03*
X8302371D02*
D03*
D90*
X6524371D02*
D03*
D91*
X8366902Y5666110D02*
D03*
D92*
X3365500Y10807700D02*
D03*
X11468100Y10909300D02*
D03*
X11252200Y3327400D02*
D03*
X3352800Y3416300D02*
D03*
D100*
X3711452Y6108700D02*
G03*
X3711452Y6108700I-66552J0D01*
G01*
X3457452D02*
G03*
X3457452Y6108700I-66552J0D01*
G01*
X3711452Y6362700D02*
G03*
X3711452Y6362700I-66552J0D01*
G01*
X3457452D02*
G03*
X3457452Y6362700I-66552J0D01*
G01*
X3711452Y6616700D02*
G03*
X3711452Y6616700I-66552J0D01*
G01*
Y6870700D02*
G03*
X3711452Y6870700I-66552J0D01*
G01*
Y7124700D02*
G03*
X3711452Y7124700I-66552J0D01*
G01*
X3457452D02*
G03*
X3457452Y7124700I-66552J0D01*
G01*
X3711452Y7378700D02*
G03*
X3711452Y7378700I-66552J0D01*
G01*
X3457452D02*
G03*
X3457452Y7378700I-66552J0D01*
G01*
X3711452Y7632700D02*
G03*
X3711452Y7632700I-66552J0D01*
G01*
X3457452D02*
G03*
X3457452Y7632700I-66552J0D01*
G01*
X3711452Y7886700D02*
G03*
X3711452Y7886700I-66552J0D01*
G01*
X3457452D02*
G03*
X3457452Y7886700I-66552J0D01*
G01*
X3711452Y8140700D02*
G03*
X3711452Y8140700I-66552J0D01*
G01*
X3457452D02*
G03*
X3457452Y8140700I-66552J0D01*
G01*
X3711452Y8394700D02*
G03*
X3711452Y8394700I-66552J0D01*
G01*
X9526180Y3245665D02*
G03*
X9526180Y3245665I-66552J0D01*
G01*
Y3499665D02*
G03*
X9526180Y3499665I-66552J0D01*
G01*
Y3753665D02*
G03*
X9526180Y3753665I-66552J0D01*
G01*
Y4007665D02*
G03*
X9526180Y4007665I-66552J0D01*
G01*
X10340852Y4013200D02*
G03*
X10340852Y4013200I-66552J0D01*
G01*
X10086852D02*
G03*
X10086852Y4013200I-66552J0D01*
G01*
X10340852Y4267200D02*
G03*
X10340852Y4267200I-66552J0D01*
G01*
X10086852D02*
G03*
X10086852Y4267200I-66552J0D01*
G01*
X10340852Y4521200D02*
G03*
X10340852Y4521200I-66552J0D01*
G01*
X10086852D02*
G03*
X10086852Y4521200I-66552J0D01*
G01*
X10340852Y4775200D02*
G03*
X10340852Y4775200I-66552J0D01*
G01*
X10086852D02*
G03*
X10086852Y4775200I-66552J0D01*
G01*
X10340852Y5029200D02*
G03*
X10340852Y5029200I-66552J0D01*
G01*
X10086852D02*
G03*
X10086852Y5029200I-66552J0D01*
G01*
X10340852Y5283200D02*
G03*
X10340852Y5283200I-66552J0D01*
G01*
X10086852D02*
G03*
X10086852Y5283200I-66552J0D01*
G01*
X10340852Y5537200D02*
G03*
X10340852Y5537200I-66552J0D01*
G01*
X10086852D02*
G03*
X10086852Y5537200I-66552J0D01*
G01*
X10340852Y5791200D02*
G03*
X10340852Y5791200I-66552J0D01*
G01*
X10086852D02*
G03*
X10086852Y5791200I-66552J0D01*
G01*
X10340852Y6045200D02*
G03*
X10340852Y6045200I-66552J0D01*
G01*
X10086852D02*
G03*
X10086852Y6045200I-66552J0D01*
G01*
X10340852Y6299200D02*
G03*
X10340852Y6299200I-66552J0D01*
G01*
X10086852D02*
G03*
X10086852Y6299200I-66552J0D01*
G01*
X10340852Y6553200D02*
G03*
X10340852Y6553200I-66552J0D01*
G01*
X10086852D02*
G03*
X10086852Y6553200I-66552J0D01*
G01*
X10340852Y6807200D02*
G03*
X10340852Y6807200I-66552J0D01*
G01*
X10086852D02*
G03*
X10086852Y6807200I-66552J0D01*
G01*
X10340852Y7061200D02*
G03*
X10340852Y7061200I-66552J0D01*
G01*
X10086852D02*
G03*
X10086852Y7061200I-66552J0D01*
G01*
X10340852Y7315200D02*
G03*
X10340852Y7315200I-66552J0D01*
G01*
X10086852D02*
G03*
X10086852Y7315200I-66552J0D01*
G01*
X10340852Y7569200D02*
G03*
X10340852Y7569200I-66552J0D01*
G01*
X10086852D02*
G03*
X10086852Y7569200I-66552J0D01*
G01*
X10340852Y7823200D02*
G03*
X10340852Y7823200I-66552J0D01*
G01*
X10086852D02*
G03*
X10086852Y7823200I-66552J0D01*
G01*
X10340852Y8077200D02*
G03*
X10340852Y8077200I-66552J0D01*
G01*
X10086852D02*
G03*
X10086852Y8077200I-66552J0D01*
G01*
X10340852Y8331200D02*
G03*
X10340852Y8331200I-66552J0D01*
G01*
X10086852D02*
G03*
X10086852Y8331200I-66552J0D01*
G01*
X10341166Y8839200D02*
G03*
X10341166Y8839200I-66552J0D01*
G01*
X10340613Y8585200D02*
G03*
X10340613Y8585200I-66552J0D01*
G01*
X10086852D02*
G03*
X10086852Y8585200I-66552J0D01*
G01*
D104*
X8809469Y8394958D02*
D03*
Y8434958D02*
D03*
X8849469Y8394958D02*
D03*
Y8434958D02*
D03*
D126*
X3947141Y5239549D02*
D03*
X3945145Y5060014D02*
D03*
X3701660Y5227724D02*
D03*
X3699665Y5048190D02*
D03*
X3430028D02*
D03*
X3432023Y5227724D02*
D03*
D127*
X3431790Y4865627D02*
D03*
X3701427Y4874435D02*
D03*
X3946557Y4874236D02*
D03*
Y4724901D02*
D03*
X3701427Y4723699D02*
D03*
X3431790Y4716892D02*
D03*
D128*
X4563493Y4248293D02*
D03*
X4844109D02*
D03*
Y4250736D02*
D03*
X4563493D02*
D03*
X4843524Y3987867D02*
D03*
X4562908D02*
D03*
X4852302Y3727441D02*
D03*
X4571686D02*
D03*
X4097094D02*
D03*
X4377711D02*
D03*
X4088316Y3987867D02*
D03*
X4368932D02*
D03*
X4088901Y4250736D02*
D03*
X4369517D02*
D03*
Y4248293D02*
D03*
X4088901D02*
D03*
D129*
X3390900Y8394700D02*
D03*
X9459628Y4261665D02*
D03*
X10020300Y8839200D02*
D03*
D130*
X3644540Y6109799D02*
D03*
X3390540D02*
D03*
X3644540Y6363799D02*
D03*
X3390540D02*
D03*
X3644540Y6617799D02*
D03*
Y6871799D02*
D03*
Y7125799D02*
D03*
X3390540D02*
D03*
X3644540Y7379799D02*
D03*
X3390540D02*
D03*
X3644540Y7633799D02*
D03*
X3390540D02*
D03*
X3644540Y7887799D02*
D03*
X3390540D02*
D03*
X3644540Y8141799D02*
D03*
X3390540D02*
D03*
X3644540Y8395799D02*
D03*
X9459268Y3246764D02*
D03*
Y3500764D02*
D03*
Y3754764D02*
D03*
Y4008764D02*
D03*
X10273940Y4014299D02*
D03*
X10019940D02*
D03*
X10273940Y4268299D02*
D03*
X10019940D02*
D03*
X10273940Y4522299D02*
D03*
X10019940D02*
D03*
X10273940Y4776299D02*
D03*
X10019940D02*
D03*
X10273940Y5030299D02*
D03*
X10019940D02*
D03*
X10273940Y5284299D02*
D03*
X10019940D02*
D03*
X10273940Y5538299D02*
D03*
X10019940D02*
D03*
X10273940Y5792299D02*
D03*
X10019940D02*
D03*
X10273940Y6046299D02*
D03*
X10019940D02*
D03*
X10273940Y6300299D02*
D03*
X10019940D02*
D03*
X10273940Y6554299D02*
D03*
X10019940D02*
D03*
X10273940Y6808299D02*
D03*
X10019940D02*
D03*
X10273940Y7062299D02*
D03*
X10019940D02*
D03*
X10273940Y7316299D02*
D03*
X10019940D02*
D03*
X10273940Y7570299D02*
D03*
X10019940D02*
D03*
X10273940Y7824299D02*
D03*
X10019940D02*
D03*
X10273940Y8078299D02*
D03*
X10019940D02*
D03*
X10273940Y8332299D02*
D03*
X10019940D02*
D03*
X10274254Y8840299D02*
D03*
X10273701Y8586299D02*
D03*
X10019940D02*
D03*
D131*
X6556995Y6440602D02*
D03*
X5856996Y8340598D02*
D03*
X6356995Y7740599D02*
D03*
Y7840599D02*
D03*
X5656997Y7740599D02*
D03*
X5556997D02*
D03*
X5456997D02*
D03*
X6356995Y7240600D02*
D03*
X5756996Y7440600D02*
D03*
X6356995Y7140600D02*
D03*
X5856996Y6640601D02*
D03*
X5756996Y7640599D02*
D03*
Y7540600D02*
D03*
Y7340600D02*
D03*
X5656997Y7240600D02*
D03*
X5556997D02*
D03*
X5456997D02*
D03*
X5156998Y8340598D02*
D03*
X5356997Y7740599D02*
D03*
X5256997Y7640599D02*
D03*
Y7540600D02*
D03*
X4656999Y7840599D02*
D03*
Y7740599D02*
D03*
X5256997Y7440600D02*
D03*
X5356997Y7240600D02*
D03*
X5256997Y7340600D02*
D03*
X5156998Y6640601D02*
D03*
X4656999Y7240600D02*
D03*
Y7140600D02*
D03*
X6556995Y8340598D02*
D03*
X6456995Y8440598D02*
D03*
X6356995Y8540603D02*
D03*
X5956996Y8040599D02*
D03*
X6056996D02*
D03*
X5856996Y7840599D02*
D03*
X6056996D02*
D03*
X5856996Y7740599D02*
D03*
Y7640599D02*
D03*
X4656999Y8540603D02*
D03*
X4556999Y8440598D02*
D03*
X4956998Y8040599D02*
D03*
X4456999Y8340598D02*
D03*
X5656997Y7840599D02*
D03*
X5756996D02*
D03*
X5256997D02*
D03*
X5356997D02*
D03*
X5156998D02*
D03*
Y7740599D02*
D03*
Y7640599D02*
D03*
X6056996Y6940601D02*
D03*
X5856996Y7340600D02*
D03*
Y7240600D02*
D03*
Y7140600D02*
D03*
X5756996D02*
D03*
X6556995Y6640601D02*
D03*
X6456995Y6540602D02*
D03*
X6356995Y6440602D02*
D03*
X5256997Y7140600D02*
D03*
X5356997D02*
D03*
X5156998Y7240600D02*
D03*
Y7140600D02*
D03*
X5656997D02*
D03*
X5156998Y7340600D02*
D03*
X4956998Y6940601D02*
D03*
X4556999Y6540602D02*
D03*
X4656999Y6440602D02*
D03*
X4456999Y6640601D02*
D03*
Y6440602D02*
D03*
Y6540602D02*
D03*
Y6740601D02*
D03*
Y6840601D02*
D03*
Y6940601D02*
D03*
Y7040601D02*
D03*
Y7140600D02*
D03*
Y7240600D02*
D03*
Y7340600D02*
D03*
Y7440600D02*
D03*
Y7540600D02*
D03*
Y7640599D02*
D03*
Y7740599D02*
D03*
Y7840599D02*
D03*
Y7940599D02*
D03*
Y8040599D02*
D03*
Y8140598D02*
D03*
Y8240598D02*
D03*
Y8440598D02*
D03*
Y8540603D02*
D03*
X4556999Y6440602D02*
D03*
Y6640601D02*
D03*
Y6740601D02*
D03*
Y6840601D02*
D03*
Y6940601D02*
D03*
Y7040601D02*
D03*
Y7140600D02*
D03*
Y7240600D02*
D03*
Y7340600D02*
D03*
Y7440600D02*
D03*
Y7540600D02*
D03*
Y7640599D02*
D03*
Y7740599D02*
D03*
Y7840599D02*
D03*
Y7940599D02*
D03*
Y8040599D02*
D03*
Y8140598D02*
D03*
Y8240598D02*
D03*
Y8340598D02*
D03*
Y8540603D02*
D03*
X4656999Y6540602D02*
D03*
Y6640601D02*
D03*
Y6740601D02*
D03*
Y6840601D02*
D03*
Y6940601D02*
D03*
Y7040601D02*
D03*
Y7340600D02*
D03*
Y7440600D02*
D03*
Y7540600D02*
D03*
Y7640599D02*
D03*
Y7940599D02*
D03*
Y8040599D02*
D03*
Y8140598D02*
D03*
Y8240598D02*
D03*
Y8340598D02*
D03*
Y8440598D02*
D03*
X4756998Y6440602D02*
D03*
Y6540602D02*
D03*
Y6640601D02*
D03*
Y6740601D02*
D03*
Y6840601D02*
D03*
Y6940601D02*
D03*
Y7040601D02*
D03*
Y7140600D02*
D03*
Y7240600D02*
D03*
Y7340600D02*
D03*
Y7440600D02*
D03*
Y7540600D02*
D03*
Y7640599D02*
D03*
Y7740599D02*
D03*
Y7840599D02*
D03*
Y7940599D02*
D03*
Y8040599D02*
D03*
Y8140598D02*
D03*
Y8240598D02*
D03*
Y8340598D02*
D03*
Y8440598D02*
D03*
Y8540603D02*
D03*
X4856998Y6440602D02*
D03*
Y6540602D02*
D03*
Y6640601D02*
D03*
Y6740601D02*
D03*
Y6840601D02*
D03*
Y6940601D02*
D03*
Y7040601D02*
D03*
Y7140600D02*
D03*
Y7240600D02*
D03*
Y7340600D02*
D03*
Y7440600D02*
D03*
Y7540600D02*
D03*
Y7640599D02*
D03*
Y7740599D02*
D03*
Y7840599D02*
D03*
Y7940599D02*
D03*
Y8040599D02*
D03*
Y8140598D02*
D03*
Y8240598D02*
D03*
Y8340598D02*
D03*
Y8440598D02*
D03*
Y8540603D02*
D03*
X4956998Y6440602D02*
D03*
Y6540602D02*
D03*
Y6640601D02*
D03*
Y6740601D02*
D03*
Y6840601D02*
D03*
Y7040601D02*
D03*
Y7140600D02*
D03*
Y7240600D02*
D03*
Y7340600D02*
D03*
Y7440600D02*
D03*
Y7540600D02*
D03*
Y7640599D02*
D03*
Y7740599D02*
D03*
Y7840599D02*
D03*
Y7940599D02*
D03*
Y8140598D02*
D03*
Y8240598D02*
D03*
Y8340598D02*
D03*
Y8440598D02*
D03*
Y8540603D02*
D03*
X5056998Y6440602D02*
D03*
Y6540602D02*
D03*
Y6640601D02*
D03*
Y6740601D02*
D03*
Y6840601D02*
D03*
Y6940601D02*
D03*
Y7040601D02*
D03*
Y7140600D02*
D03*
Y7240600D02*
D03*
Y7340600D02*
D03*
Y7440600D02*
D03*
Y7540600D02*
D03*
Y7640599D02*
D03*
Y7740599D02*
D03*
Y7840599D02*
D03*
Y7940599D02*
D03*
Y8040599D02*
D03*
Y8140598D02*
D03*
Y8240598D02*
D03*
Y8340598D02*
D03*
Y8440598D02*
D03*
Y8540603D02*
D03*
X5156998Y6440602D02*
D03*
Y6540602D02*
D03*
Y6740601D02*
D03*
Y6840601D02*
D03*
Y6940601D02*
D03*
Y7040601D02*
D03*
Y7440600D02*
D03*
Y7540600D02*
D03*
Y7940599D02*
D03*
Y8040599D02*
D03*
Y8140598D02*
D03*
Y8240598D02*
D03*
Y8440598D02*
D03*
Y8540603D02*
D03*
X5256997Y6440602D02*
D03*
Y6540602D02*
D03*
Y6640601D02*
D03*
Y6740601D02*
D03*
Y6840601D02*
D03*
Y6940601D02*
D03*
Y7040601D02*
D03*
Y7240600D02*
D03*
Y7740599D02*
D03*
Y7940599D02*
D03*
Y8040599D02*
D03*
Y8140598D02*
D03*
Y8240598D02*
D03*
Y8340598D02*
D03*
Y8440598D02*
D03*
Y8540603D02*
D03*
X5356997Y6440602D02*
D03*
Y6540602D02*
D03*
Y6640601D02*
D03*
Y6740601D02*
D03*
Y6840601D02*
D03*
Y6940601D02*
D03*
Y7040601D02*
D03*
Y7340600D02*
D03*
Y7440600D02*
D03*
Y7540600D02*
D03*
Y7640599D02*
D03*
Y7940599D02*
D03*
Y8040599D02*
D03*
Y8140598D02*
D03*
Y8240598D02*
D03*
Y8340598D02*
D03*
Y8440598D02*
D03*
Y8540603D02*
D03*
X5456997Y6440602D02*
D03*
Y6540602D02*
D03*
Y6640601D02*
D03*
Y6740601D02*
D03*
Y6840601D02*
D03*
Y6940601D02*
D03*
Y7040601D02*
D03*
Y7140600D02*
D03*
Y7340600D02*
D03*
Y7440600D02*
D03*
Y7540600D02*
D03*
Y7640599D02*
D03*
Y7840599D02*
D03*
Y7940599D02*
D03*
Y8040599D02*
D03*
Y8140598D02*
D03*
Y8240598D02*
D03*
Y8340598D02*
D03*
Y8440598D02*
D03*
Y8540603D02*
D03*
X5556997Y6440602D02*
D03*
Y6540602D02*
D03*
Y6640601D02*
D03*
Y6740601D02*
D03*
Y6840601D02*
D03*
Y6940601D02*
D03*
Y7040601D02*
D03*
Y7140600D02*
D03*
Y7340600D02*
D03*
Y7440600D02*
D03*
Y7540600D02*
D03*
Y7640599D02*
D03*
Y7840599D02*
D03*
Y7940599D02*
D03*
Y8040599D02*
D03*
Y8140598D02*
D03*
Y8240598D02*
D03*
Y8340598D02*
D03*
Y8440598D02*
D03*
Y8540603D02*
D03*
X5656997Y6440602D02*
D03*
Y6540602D02*
D03*
Y6640601D02*
D03*
Y6740601D02*
D03*
Y6840601D02*
D03*
Y6940601D02*
D03*
Y7040601D02*
D03*
Y7340600D02*
D03*
Y7440600D02*
D03*
Y7540600D02*
D03*
Y7640599D02*
D03*
Y7940599D02*
D03*
Y8040599D02*
D03*
Y8140598D02*
D03*
Y8240598D02*
D03*
Y8340598D02*
D03*
Y8440598D02*
D03*
Y8540603D02*
D03*
X5756996Y6440602D02*
D03*
Y6540602D02*
D03*
Y6640601D02*
D03*
Y6740601D02*
D03*
Y6840601D02*
D03*
Y6940601D02*
D03*
Y7040601D02*
D03*
Y7240600D02*
D03*
Y7740599D02*
D03*
Y7940599D02*
D03*
Y8040599D02*
D03*
Y8140598D02*
D03*
Y8240598D02*
D03*
Y8340598D02*
D03*
Y8440598D02*
D03*
Y8540603D02*
D03*
X5856996Y6440602D02*
D03*
Y6540602D02*
D03*
Y6740601D02*
D03*
Y6840601D02*
D03*
Y6940601D02*
D03*
Y7040601D02*
D03*
Y7440600D02*
D03*
Y7540600D02*
D03*
Y7940599D02*
D03*
Y8040599D02*
D03*
Y8140598D02*
D03*
Y8240598D02*
D03*
Y8440598D02*
D03*
Y8540603D02*
D03*
X5956996Y6440602D02*
D03*
Y6540602D02*
D03*
Y6640601D02*
D03*
Y6740601D02*
D03*
Y6840601D02*
D03*
Y6940601D02*
D03*
Y7040601D02*
D03*
Y7140600D02*
D03*
Y7240600D02*
D03*
Y7340600D02*
D03*
Y7440600D02*
D03*
Y7540600D02*
D03*
Y7640599D02*
D03*
Y7740599D02*
D03*
Y7840599D02*
D03*
Y7940599D02*
D03*
Y8140598D02*
D03*
Y8240598D02*
D03*
Y8340598D02*
D03*
Y8440598D02*
D03*
Y8540603D02*
D03*
X6056996Y6440602D02*
D03*
Y6540602D02*
D03*
Y6640601D02*
D03*
Y6740601D02*
D03*
Y6840601D02*
D03*
Y7040601D02*
D03*
Y7140600D02*
D03*
Y7240600D02*
D03*
Y7340600D02*
D03*
Y7440600D02*
D03*
Y7540600D02*
D03*
Y7640599D02*
D03*
Y7740599D02*
D03*
Y7940599D02*
D03*
Y8140598D02*
D03*
Y8240598D02*
D03*
Y8340598D02*
D03*
Y8440598D02*
D03*
Y8540603D02*
D03*
X6156996Y6440602D02*
D03*
Y6540602D02*
D03*
Y6640601D02*
D03*
Y6740601D02*
D03*
Y6840601D02*
D03*
Y6940601D02*
D03*
Y7040601D02*
D03*
Y7140600D02*
D03*
Y7240600D02*
D03*
Y7340600D02*
D03*
Y7440600D02*
D03*
Y7540600D02*
D03*
Y7640599D02*
D03*
Y7740599D02*
D03*
Y7840599D02*
D03*
Y7940599D02*
D03*
Y8040599D02*
D03*
Y8140598D02*
D03*
Y8240598D02*
D03*
Y8340598D02*
D03*
Y8440598D02*
D03*
Y8540603D02*
D03*
X6256995Y6440602D02*
D03*
Y6540602D02*
D03*
Y6640601D02*
D03*
Y6740601D02*
D03*
Y6840601D02*
D03*
Y6940601D02*
D03*
Y7040601D02*
D03*
Y7140600D02*
D03*
Y7240600D02*
D03*
Y7340600D02*
D03*
Y7440600D02*
D03*
Y7540600D02*
D03*
Y7640599D02*
D03*
Y7740599D02*
D03*
Y7840599D02*
D03*
Y7940599D02*
D03*
Y8040599D02*
D03*
Y8140598D02*
D03*
Y8240598D02*
D03*
Y8340598D02*
D03*
Y8440598D02*
D03*
Y8540603D02*
D03*
X6356995Y6540602D02*
D03*
Y6640601D02*
D03*
Y6740601D02*
D03*
Y6840601D02*
D03*
Y6940601D02*
D03*
Y7040601D02*
D03*
Y7340600D02*
D03*
Y7440600D02*
D03*
Y7540600D02*
D03*
Y7640599D02*
D03*
Y7940599D02*
D03*
Y8040599D02*
D03*
Y8140598D02*
D03*
Y8240598D02*
D03*
Y8340598D02*
D03*
Y8440598D02*
D03*
X6456995Y6440602D02*
D03*
Y6640601D02*
D03*
Y6740601D02*
D03*
Y6840601D02*
D03*
Y6940601D02*
D03*
Y7040601D02*
D03*
Y7140600D02*
D03*
Y7240600D02*
D03*
Y7340600D02*
D03*
Y7440600D02*
D03*
Y7540600D02*
D03*
Y7640599D02*
D03*
Y7740599D02*
D03*
Y7840599D02*
D03*
Y7940599D02*
D03*
Y8040599D02*
D03*
Y8140598D02*
D03*
Y8240598D02*
D03*
Y8340598D02*
D03*
Y8540603D02*
D03*
X6556995Y6540602D02*
D03*
Y6740601D02*
D03*
Y6840601D02*
D03*
Y6940601D02*
D03*
Y7040601D02*
D03*
Y7140600D02*
D03*
Y7240600D02*
D03*
Y7340600D02*
D03*
Y7440600D02*
D03*
Y7540600D02*
D03*
Y7640599D02*
D03*
Y7740599D02*
D03*
Y7840599D02*
D03*
Y7940599D02*
D03*
Y8040599D02*
D03*
Y8140598D02*
D03*
Y8240598D02*
D03*
Y8440598D02*
D03*
Y8540603D02*
D03*
D132*
X8577605Y8102033D02*
D03*
X8777606D02*
D03*
X8621064Y8709245D02*
D03*
X8821064D02*
D03*
D133*
X5565750Y4779061D02*
D03*
D134*
X5629250Y4389064D02*
D03*
X5502250D02*
D03*
X5375250D02*
D03*
Y5169063D02*
D03*
X5502250D02*
D03*
X5629250D02*
D03*
X5756250D02*
D03*
Y4389064D02*
D03*
D135*
X5656067Y3127980D02*
D03*
Y3192978D02*
D03*
Y3257982D02*
D03*
Y3322980D02*
D03*
X5226066Y3127980D02*
D03*
Y3192978D02*
D03*
Y3322980D02*
D03*
Y3257982D02*
D03*
D136*
X8388111Y5138349D02*
D03*
X8261111D02*
D03*
X8134111D02*
D03*
X8007111D02*
D03*
X7880111D02*
D03*
X7753111D02*
D03*
X7626111D02*
D03*
X7499111D02*
D03*
X7372111D02*
D03*
X7245111D02*
D03*
X7118111D02*
D03*
X6991111D02*
D03*
X6864111D02*
D03*
X6737111D02*
D03*
X8388111Y4238346D02*
D03*
X8261111D02*
D03*
X8134111D02*
D03*
X8007111D02*
D03*
X7880111D02*
D03*
X7753111D02*
D03*
X7626111D02*
D03*
X7499111D02*
D03*
X7245111D02*
D03*
X7118111D02*
D03*
X6991111D02*
D03*
X6864111D02*
D03*
X6737111D02*
D03*
X7372111D02*
D03*
D137*
X4089095Y4248739D02*
D03*
X4369095D02*
D03*
X4096878Y3727887D02*
D03*
X4376877D02*
D03*
X4849139D02*
D03*
X4569140D02*
D03*
X4841357Y3988313D02*
D03*
X4561357D02*
D03*
X4841357Y4248739D02*
D03*
X4561357D02*
D03*
X4369095Y3988313D02*
D03*
X4089095D02*
D03*
D138*
X5347802Y5899302D02*
D03*
Y5759298D02*
D03*
X5167798D02*
D03*
Y5899302D02*
D03*
D139*
X5835000Y5817499D02*
D03*
X5599999D02*
D03*
D140*
X6014870Y3351028D02*
D03*
Y3221031D02*
D03*
X7909031Y9263381D02*
D03*
Y9133383D02*
D03*
X7728091Y9133388D02*
D03*
Y9263386D02*
D03*
X6014873Y3060598D02*
D03*
Y2930601D02*
D03*
D141*
X8820261Y9289867D02*
D03*
X8525265D02*
D03*
D142*
X7728091Y9639088D02*
D03*
X7453091Y9829090D02*
D03*
Y9734089D02*
D03*
Y9639088D02*
D03*
X7728091Y9829090D02*
D03*
D143*
X9414995Y6223891D02*
D03*
Y5923887D02*
D03*
D144*
X9407500Y7012498D02*
D03*
Y7212498D02*
D03*
D145*
X9112498Y5961080D02*
D03*
Y6221084D02*
D03*
X9127500Y7203100D02*
D03*
Y6943095D02*
D03*
D146*
X6518732Y9968062D02*
D03*
X6754724D02*
D03*
X6886722D02*
D03*
X6650731D02*
D03*
D147*
X7692598Y7620000D02*
D03*
X7317598Y7544999D02*
D03*
X7692598Y7320001D02*
D03*
X7617602D02*
D03*
X7542601D02*
D03*
X7467600D02*
D03*
X7392599D02*
D03*
X7317598D02*
D03*
X7692598Y7395002D02*
D03*
X7617602D02*
D03*
X7542601D02*
D03*
X7467600D02*
D03*
X7392599D02*
D03*
X7317598D02*
D03*
X7692598Y7469998D02*
D03*
X7617602D02*
D03*
X7542601D02*
D03*
X7467600D02*
D03*
X7392599D02*
D03*
X7317598D02*
D03*
X7692598Y7544999D02*
D03*
X7617602D02*
D03*
X7542601D02*
D03*
X7467600D02*
D03*
X7392599D02*
D03*
X7617602Y7620000D02*
D03*
X7542601D02*
D03*
X7467600D02*
D03*
X7392599D02*
D03*
X7317598D02*
D03*
X7692598Y7695001D02*
D03*
X7617602D02*
D03*
X7542601D02*
D03*
X7467600D02*
D03*
X7392599D02*
D03*
X7317598D02*
D03*
X7692598Y7770002D02*
D03*
X7617602D02*
D03*
X7542601D02*
D03*
X7467600D02*
D03*
X7392599D02*
D03*
X7317598D02*
D03*
X7692598Y7844998D02*
D03*
X7617602D02*
D03*
X7542601D02*
D03*
X7467600D02*
D03*
X7392599D02*
D03*
X7317598D02*
D03*
D148*
X5609798Y9372600D02*
D03*
X5234798Y9297599D02*
D03*
X5609798Y9072601D02*
D03*
X5534802D02*
D03*
X5459801D02*
D03*
X5384800D02*
D03*
X5309799D02*
D03*
X5234798D02*
D03*
X5609798Y9147602D02*
D03*
X5534802D02*
D03*
X5459801D02*
D03*
X5384800D02*
D03*
X5309799D02*
D03*
X5234798D02*
D03*
X5609798Y9222598D02*
D03*
X5534802D02*
D03*
X5459801D02*
D03*
X5384800D02*
D03*
X5309799D02*
D03*
X5234798D02*
D03*
X5609798Y9297599D02*
D03*
X5534802D02*
D03*
X5459801D02*
D03*
X5384800D02*
D03*
X5309799D02*
D03*
X5534802Y9372600D02*
D03*
X5459801D02*
D03*
X5384800D02*
D03*
X5309799D02*
D03*
X5234798D02*
D03*
X5609798Y9447601D02*
D03*
X5534802D02*
D03*
X5459801D02*
D03*
X5384800D02*
D03*
X5309799D02*
D03*
X5234798D02*
D03*
X5609798Y9522602D02*
D03*
X5534802D02*
D03*
X5459801D02*
D03*
X5384800D02*
D03*
X5309799D02*
D03*
X5234798D02*
D03*
X5609798Y9597598D02*
D03*
X5534802D02*
D03*
X5459801D02*
D03*
X5384800D02*
D03*
X5309799D02*
D03*
X5234798D02*
D03*
D149*
X3700916Y4725412D02*
D03*
Y4875415D02*
D03*
X3946046Y4724808D02*
D03*
Y4874810D02*
D03*
X3431280Y4716683D02*
D03*
Y4866685D02*
D03*
D150*
X3431279Y5048364D02*
D03*
Y5228369D02*
D03*
X3946045Y5061186D02*
D03*
Y5241191D02*
D03*
X3700914Y5048334D02*
D03*
Y5228339D02*
D03*
%TF.MD5,b351a52899fbe2cf4d7d13d3bbec55b2*%
M02*
