G04*
G04 #@! TF.GenerationSoftware,Altium Limited,Altium Designer,21.5.1 (32)*
G04*
G04 Layer_Color=16711935*
%FSLAX44Y44*%
%MOMM*%
G71*
G04*
G04 #@! TF.SameCoordinates,CE61D733-3D9C-4286-B01C-F70B086857D8*
G04*
G04*
G04 #@! TF.FilePolarity,Positive*
G04*
G01*
G75*
%ADD16C,0.2540*%
%ADD98C,0.0600*%
D16*
X254000Y1065530D02*
X254000Y351790D01*
X348922Y256868D01*
X351790Y254000D01*
X353060D01*
X1118870D01*
X1212850Y347980D01*
X1212850Y1070434D02*
X1212850Y347980D01*
X1127585Y1155700D02*
X1212850Y1070434D01*
X344170Y1155700D02*
X1127585D01*
X254000Y1065530D02*
X344170Y1155700D01*
D98*
X752709Y970869D02*
X754042D01*
X753375D01*
Y974868D01*
X752709Y974201D01*
X756041Y970869D02*
Y971535D01*
X756708D01*
Y970869D01*
X756041D01*
X762039Y974868D02*
X759374D01*
Y972868D01*
X760706Y973535D01*
X761373D01*
X762039Y972868D01*
Y971535D01*
X761373Y970869D01*
X760040D01*
X759374Y971535D01*
X763372Y974868D02*
Y972202D01*
X764705Y970869D01*
X766038Y972202D01*
Y974868D01*
X774035Y974201D02*
X773369Y974868D01*
X772036D01*
X771370Y974201D01*
Y973535D01*
X772036Y972868D01*
X773369D01*
X774035Y972202D01*
Y971535D01*
X773369Y970869D01*
X772036D01*
X771370Y971535D01*
X775368Y973535D02*
Y971535D01*
X776035Y970869D01*
X778034D01*
Y973535D01*
X779367Y969536D02*
Y973535D01*
X781366D01*
X782033Y972868D01*
Y971535D01*
X781366Y970869D01*
X779367D01*
X783366Y969536D02*
Y973535D01*
X785365D01*
X786032Y972868D01*
Y971535D01*
X785365Y970869D01*
X783366D01*
X787365D02*
X788697D01*
X788031D01*
Y974868D01*
X787365D01*
X790697Y973535D02*
Y971535D01*
X791363Y970869D01*
X793363D01*
Y970202D01*
X792696Y969536D01*
X792030D01*
X793363Y970869D02*
Y973535D01*
M02*
