%TF.GenerationSoftware,Altium Limited,Altium Designer,21.5.1 (32)*%
G04 Layer_Color=32896*
%FSLAX45Y45*%
%MOMM*%
%TF.SameCoordinates,DA76D118-4440-4CF8-9B87-3A81F077C57B*%
%TF.FilePolarity,Positive*%
%TF.FileFunction,Legend,Bot*%
%TF.Part,Single*%
G01*
G75*
%TA.AperFunction,NonConductor*%
%ADD73C,0.20000*%
%ADD74C,0.15000*%
D73*
X6087063Y6894666D02*
X6214307D01*
X6087063Y6759671D02*
X6214307D01*
X4983775Y7939926D02*
X5111024D01*
X4983775Y8074927D02*
X5111024D01*
X4983775Y8120353D02*
X5111024D01*
X4983775Y8255354D02*
X5111024D01*
X5196375Y7776997D02*
Y7807000D01*
X5131376Y7776997D02*
Y7807000D01*
X4983775Y7504928D02*
X5111024D01*
X4983775Y7639924D02*
X5111024D01*
X4930948Y7459502D02*
X5058197D01*
X4930948Y7324501D02*
X5058197D01*
X4930948Y7124502D02*
X5058197D01*
X4930948Y7259498D02*
X5058197D01*
X4933700Y7724501D02*
X5060949D01*
X4933700Y7859502D02*
X5060949D01*
X4983775Y8435780D02*
X5111024D01*
X4983775Y8300779D02*
X5111024D01*
X4740524Y7178391D02*
Y7305639D01*
X4875525Y7178391D02*
Y7305639D01*
X4557848Y7224502D02*
X4685097D01*
X4557848Y7359498D02*
X4685097D01*
X4557848Y7024502D02*
X4685097D01*
X4557848Y7159498D02*
X4685097D01*
X4365178Y7124502D02*
X4492427D01*
X4365178Y7259498D02*
X4492427D01*
X5683778Y8440345D02*
X5811022D01*
X5683778Y8575346D02*
X5811022D01*
X5829849Y8257673D02*
Y8384917D01*
X5964850Y8257673D02*
Y8384917D01*
X5012121Y6770768D02*
Y6898017D01*
X4877120Y6770768D02*
Y6898017D01*
X5693897Y6532445D02*
Y6659694D01*
X5828898Y6532445D02*
Y6659694D01*
X5874326Y6540519D02*
Y6667768D01*
X6009327Y6540519D02*
Y6667768D01*
X6335814Y8743126D02*
X6463063D01*
X6335814Y8608125D02*
X6463063D01*
X5683778Y7688717D02*
X5811022D01*
X5683778Y7553716D02*
X5811022D01*
X5374049Y7203196D02*
Y7233198D01*
X5309051Y7203196D02*
Y7233198D01*
X4375430Y7459502D02*
X4405428D01*
X4375430Y7524501D02*
X4405428D01*
X5782401Y7814145D02*
X5812399D01*
X5782401Y7749147D02*
X5812399D01*
X4329902Y6478377D02*
Y6605626D01*
X4464898Y6478377D02*
Y6605626D01*
Y8378378D02*
Y8505622D01*
X4329902Y8378378D02*
Y8505622D01*
X4429902Y8478378D02*
Y8605622D01*
X4564898Y8478378D02*
Y8605622D01*
X4537502Y6378875D02*
Y6506124D01*
X4672498Y6378875D02*
Y6506124D01*
X4658621Y6844081D02*
X4785870D01*
X4658621Y6979077D02*
X4785870D01*
X4583775Y8061051D02*
X4711024D01*
X4583775Y8196052D02*
X4711024D01*
X4355682Y7724501D02*
X4482931D01*
X4355682Y7859502D02*
X4482931D01*
X4529953Y8478429D02*
Y8605672D01*
X4664949Y8478429D02*
Y8605672D01*
X4953245Y6659448D02*
X5080494D01*
X4953245Y6524447D02*
X5080494D01*
X4548351Y7859502D02*
X4675600D01*
X4548351Y7724501D02*
X4675600D01*
X5145919Y6524703D02*
X5273168D01*
X5145919Y6659704D02*
X5273168D01*
X4741026Y7624501D02*
X4868274D01*
X4741026Y7759502D02*
X4868274D01*
X4548351Y7524501D02*
X4675600D01*
X4548351Y7659502D02*
X4675600D01*
X4878277Y7878379D02*
Y8005623D01*
X4743276Y7878379D02*
Y8005623D01*
X5364851Y8263727D02*
Y8390971D01*
X5229850Y8263727D02*
Y8390971D01*
X5264902Y8491208D02*
Y8618452D01*
X5129901Y8491208D02*
Y8618452D01*
X5329753Y8071048D02*
Y8198297D01*
X5464754Y8071048D02*
Y8198297D01*
X5434474Y6978376D02*
Y7105625D01*
X5569475Y6978376D02*
Y7105625D01*
X5764901Y7371044D02*
Y7498293D01*
X5629900Y7371044D02*
Y7498293D01*
X5447228Y7659502D02*
X5574472D01*
X5447228Y7524501D02*
X5574472D01*
X5256799Y7678374D02*
Y7805623D01*
X5391800Y7678374D02*
Y7805623D01*
X5764901Y8077247D02*
Y8204491D01*
X5629900Y8077247D02*
Y8204491D01*
X5883778Y7355533D02*
X6011022D01*
X5883778Y7490529D02*
X6011022D01*
X5883778Y7553716D02*
X6011022D01*
X5883778Y7688717D02*
X6011022D01*
X5883778Y8067244D02*
X6011022D01*
X5883778Y8202245D02*
X6011022D01*
X6083778Y7824450D02*
X6211021D01*
X6083778Y7959451D02*
X6211021D01*
X6283777Y7259564D02*
X6411026D01*
X6283777Y7124563D02*
X6411026D01*
X6283777Y7959501D02*
X6411026D01*
X6283777Y7824500D02*
X6411026D01*
X6283777Y7859502D02*
X6411026D01*
X6283777Y7724501D02*
X6411026D01*
X6383777Y6324498D02*
X6511026D01*
X6383777Y6459499D02*
X6511026D01*
X6483777Y8459500D02*
X6611026D01*
X6483777Y8324499D02*
X6611026D01*
X6483777Y8424499D02*
X6611026D01*
X6483777Y8559500D02*
X6611026D01*
X5183774Y6935278D02*
X5311023D01*
X5183774Y7070274D02*
X5311023D01*
X5183774Y7366124D02*
X5311023D01*
X5183774Y7501120D02*
X5311023D01*
X6076452Y7024502D02*
X6203696D01*
X6076452Y7159498D02*
X6203696D01*
X6076452Y7224502D02*
X6203696D01*
X6076452Y7359498D02*
X6203696D01*
X6283777Y7159498D02*
X6411026D01*
X6283777Y7024502D02*
X6411026D01*
X6383777Y6559499D02*
X6511026D01*
X6383777Y6424498D02*
X6511026D01*
X5729900Y7172861D02*
Y7300110D01*
X5864901Y7172861D02*
Y7300110D01*
X5248626Y7178375D02*
Y7305624D01*
X5113625Y7178375D02*
Y7305624D01*
X5549473Y7178375D02*
Y7305624D01*
X5684474Y7178375D02*
Y7305624D01*
X5529900Y7884568D02*
Y8011817D01*
X5664901Y7884568D02*
Y8011817D01*
X5864901Y7884573D02*
Y8011817D01*
X5729900Y7884573D02*
Y8011817D01*
X5484475Y7878379D02*
Y8005623D01*
X5349474Y7878379D02*
Y8005623D01*
X6529898Y6478377D02*
Y6605626D01*
X6664899Y6478377D02*
Y6605626D01*
D74*
X5783727Y2785910D02*
Y2845910D01*
X5673724Y2785910D02*
Y2845910D01*
%TF.MD5,eabf841990f2f84f73dc58420d40b6bd*%
M02*
