G04*
G04 #@! TF.GenerationSoftware,Altium Limited,Altium Designer,21.0.8 (223)*
G04*
G04 Layer_Color=16711935*
%FSLAX25Y25*%
%MOIN*%
G70*
G04*
G04 #@! TF.SameCoordinates,1E681D1C-CCFD-48AA-A558-CB9795AED949*
G04*
G04*
G04 #@! TF.FilePolarity,Positive*
G04*
G01*
G75*
%ADD14C,0.00787*%
G36*
X377731Y265597D02*
X377756D01*
X377789Y265593D01*
X377827Y265589D01*
X377870Y265583D01*
X377915Y265575D01*
X377964Y265566D01*
X378015Y265552D01*
X378068Y265536D01*
X378121Y265519D01*
X378174Y265495D01*
X378226Y265470D01*
X378279Y265440D01*
X378328Y265407D01*
X378332Y265405D01*
X378340Y265397D01*
X378352Y265387D01*
X378370Y265371D01*
X378391Y265352D01*
X378415Y265328D01*
X378442Y265299D01*
X378469Y265268D01*
X378499Y265230D01*
X378528Y265191D01*
X378560Y265146D01*
X378589Y265097D01*
X378616Y265046D01*
X378642Y264989D01*
X378665Y264929D01*
X378687Y264866D01*
X378360Y264789D01*
Y264793D01*
X378356Y264801D01*
X378350Y264815D01*
X378344Y264834D01*
X378334Y264856D01*
X378323Y264883D01*
X378311Y264911D01*
X378295Y264942D01*
X378260Y265007D01*
X378215Y265074D01*
X378191Y265105D01*
X378164Y265136D01*
X378134Y265164D01*
X378105Y265189D01*
X378103Y265191D01*
X378097Y265195D01*
X378087Y265201D01*
X378076Y265209D01*
X378058Y265219D01*
X378038Y265229D01*
X378017Y265240D01*
X377991Y265252D01*
X377962Y265264D01*
X377930Y265276D01*
X377895Y265285D01*
X377858Y265295D01*
X377819Y265303D01*
X377778Y265309D01*
X377734Y265313D01*
X377688Y265315D01*
X377660D01*
X377639Y265313D01*
X377615Y265311D01*
X377586Y265307D01*
X377554Y265303D01*
X377519Y265297D01*
X377482Y265289D01*
X377443Y265281D01*
X377401Y265270D01*
X377360Y265256D01*
X377321Y265240D01*
X377280Y265221D01*
X377241Y265201D01*
X377203Y265176D01*
X377201Y265174D01*
X377196Y265170D01*
X377186Y265162D01*
X377172Y265150D01*
X377156Y265136D01*
X377139Y265119D01*
X377117Y265099D01*
X377098Y265078D01*
X377074Y265052D01*
X377052Y265023D01*
X377029Y264993D01*
X377007Y264960D01*
X376986Y264923D01*
X376964Y264885D01*
X376947Y264844D01*
X376931Y264801D01*
Y264799D01*
X376927Y264791D01*
X376923Y264778D01*
X376919Y264760D01*
X376913Y264740D01*
X376905Y264715D01*
X376900Y264686D01*
X376892Y264654D01*
X376884Y264619D01*
X376878Y264582D01*
X376870Y264541D01*
X376864Y264499D01*
X376856Y264411D01*
X376852Y264319D01*
Y264315D01*
Y264305D01*
Y264288D01*
X376854Y264266D01*
Y264237D01*
X376858Y264205D01*
X376860Y264168D01*
X376864Y264129D01*
X376868Y264086D01*
X376876Y264041D01*
X376892Y263947D01*
X376915Y263851D01*
X376929Y263804D01*
X376945Y263758D01*
X376947Y263756D01*
X376949Y263749D01*
X376955Y263735D01*
X376962Y263719D01*
X376972Y263700D01*
X376984Y263676D01*
X376999Y263651D01*
X377017Y263625D01*
X377035Y263596D01*
X377056Y263566D01*
X377080Y263537D01*
X377107Y263508D01*
X377135Y263478D01*
X377166Y263451D01*
X377200Y263425D01*
X377235Y263402D01*
X377237Y263400D01*
X377244Y263396D01*
X377254Y263390D01*
X377270Y263384D01*
X377288Y263374D01*
X377309Y263365D01*
X377335Y263355D01*
X377362Y263343D01*
X377394Y263331D01*
X377427Y263321D01*
X377462Y263312D01*
X377499Y263302D01*
X377537Y263296D01*
X377578Y263290D01*
X377619Y263286D01*
X377662Y263284D01*
X377674D01*
X377690Y263286D01*
X377709D01*
X377733Y263290D01*
X377760Y263292D01*
X377791Y263298D01*
X377825Y263304D01*
X377862Y263314D01*
X377899Y263323D01*
X377938Y263337D01*
X377979Y263353D01*
X378019Y263370D01*
X378058Y263392D01*
X378097Y263417D01*
X378134Y263445D01*
X378136Y263447D01*
X378142Y263453D01*
X378152Y263462D01*
X378166Y263474D01*
X378181Y263492D01*
X378199Y263513D01*
X378219Y263537D01*
X378240Y263564D01*
X378262Y263598D01*
X378283Y263633D01*
X378305Y263672D01*
X378327Y263715D01*
X378348Y263760D01*
X378366Y263811D01*
X378383Y263866D01*
X378397Y263923D01*
X378730Y263839D01*
Y263837D01*
X378728Y263835D01*
Y263829D01*
X378724Y263821D01*
X378718Y263800D01*
X378709Y263772D01*
X378697Y263737D01*
X378683Y263698D01*
X378664Y263655D01*
X378644Y263608D01*
X378619Y263557D01*
X378591Y263506D01*
X378560Y263455D01*
X378526Y263402D01*
X378487Y263351D01*
X378446Y263302D01*
X378401Y263257D01*
X378352Y263214D01*
X378348Y263212D01*
X378340Y263204D01*
X378325Y263194D01*
X378303Y263180D01*
X378277Y263165D01*
X378246Y263147D01*
X378209Y263127D01*
X378168Y263108D01*
X378123Y263086D01*
X378072Y263069D01*
X378017Y263049D01*
X377958Y263033D01*
X377895Y263019D01*
X377831Y263010D01*
X377762Y263002D01*
X377690Y263000D01*
X377662D01*
X377650Y263002D01*
X377623D01*
X377588Y263006D01*
X377548Y263008D01*
X377503Y263014D01*
X377454Y263021D01*
X377403Y263029D01*
X377350Y263041D01*
X377295Y263053D01*
X377241Y263069D01*
X377184Y263088D01*
X377131Y263110D01*
X377078Y263135D01*
X377029Y263165D01*
X377027Y263167D01*
X377017Y263172D01*
X377005Y263182D01*
X376988Y263196D01*
X376966Y263212D01*
X376941Y263233D01*
X376913Y263259D01*
X376886Y263286D01*
X376854Y263317D01*
X376823Y263355D01*
X376790Y263394D01*
X376759Y263435D01*
X376727Y263482D01*
X376696Y263533D01*
X376666Y263586D01*
X376641Y263643D01*
X376639Y263647D01*
X376635Y263657D01*
X376629Y263674D01*
X376621Y263698D01*
X376609Y263727D01*
X376600Y263760D01*
X376588Y263802D01*
X376576Y263845D01*
X376562Y263894D01*
X376551Y263945D01*
X376541Y264001D01*
X376531Y264060D01*
X376521Y264121D01*
X376515Y264184D01*
X376512Y264250D01*
X376509Y264317D01*
Y264319D01*
Y264321D01*
Y264327D01*
Y264335D01*
X376512Y264354D01*
Y264384D01*
X376514Y264417D01*
X376517Y264456D01*
X376521Y264501D01*
X376529Y264550D01*
X376537Y264601D01*
X376547Y264656D01*
X376558Y264713D01*
X376572Y264772D01*
X376590Y264829D01*
X376609Y264887D01*
X376633Y264946D01*
X376659Y265001D01*
X376660Y265005D01*
X376666Y265015D01*
X376674Y265029D01*
X376686Y265050D01*
X376702Y265074D01*
X376721Y265103D01*
X376743Y265132D01*
X376768Y265168D01*
X376796Y265203D01*
X376827Y265238D01*
X376862Y265276D01*
X376902Y265313D01*
X376943Y265348D01*
X376986Y265383D01*
X377033Y265417D01*
X377084Y265446D01*
X377088Y265448D01*
X377096Y265452D01*
X377111Y265460D01*
X377133Y265470D01*
X377158Y265481D01*
X377190Y265495D01*
X377225Y265509D01*
X377264Y265523D01*
X377307Y265536D01*
X377354Y265550D01*
X377405Y265564D01*
X377458Y265575D01*
X377515Y265585D01*
X377572Y265593D01*
X377633Y265597D01*
X377693Y265599D01*
X377711D01*
X377731Y265597D01*
D02*
G37*
G36*
X379873D02*
X379898Y265595D01*
X379930Y265593D01*
X379965Y265589D01*
X380006Y265581D01*
X380049Y265573D01*
X380094Y265564D01*
X380143Y265550D01*
X380192Y265534D01*
X380241Y265515D01*
X380290Y265491D01*
X380337Y265464D01*
X380382Y265432D01*
X380426Y265397D01*
X380428Y265395D01*
X380435Y265387D01*
X380445Y265377D01*
X380461Y265362D01*
X380477Y265342D01*
X380494Y265319D01*
X380516Y265291D01*
X380535Y265262D01*
X380555Y265229D01*
X380576Y265191D01*
X380594Y265150D01*
X380612Y265107D01*
X380626Y265062D01*
X380635Y265015D01*
X380643Y264964D01*
X380645Y264911D01*
Y264909D01*
Y264903D01*
Y264895D01*
X380643Y264883D01*
Y264868D01*
X380641Y264852D01*
X380639Y264832D01*
X380635Y264811D01*
X380626Y264764D01*
X380612Y264713D01*
X380592Y264660D01*
X380567Y264607D01*
Y264605D01*
X380563Y264601D01*
X380559Y264593D01*
X380551Y264582D01*
X380541Y264568D01*
X380532Y264552D01*
X380518Y264535D01*
X380500Y264513D01*
X380481Y264490D01*
X380459Y264464D01*
X380435Y264437D01*
X380408Y264407D01*
X380377Y264374D01*
X380343Y264341D01*
X380306Y264307D01*
X380265Y264270D01*
X380263Y264268D01*
X380259Y264264D01*
X380251Y264258D01*
X380241Y264248D01*
X380228Y264237D01*
X380214Y264225D01*
X380185Y264196D01*
X380151Y264162D01*
X380118Y264131D01*
X380088Y264100D01*
X380077Y264086D01*
X380067Y264072D01*
X380065Y264070D01*
X380059Y264060D01*
X380051Y264049D01*
X380042Y264031D01*
X380030Y264009D01*
X380020Y263984D01*
X380008Y263956D01*
X379998Y263927D01*
Y263923D01*
X379996Y263919D01*
X379994Y263911D01*
X379993Y263901D01*
X379991Y263892D01*
X379989Y263878D01*
X379987Y263862D01*
X379985Y263845D01*
X379983Y263825D01*
X379981Y263804D01*
X379979Y263780D01*
Y263753D01*
X379977Y263725D01*
X379975Y263694D01*
Y263661D01*
X379679D01*
Y263662D01*
Y263670D01*
Y263682D01*
Y263696D01*
X379677Y263725D01*
Y263739D01*
Y263753D01*
Y263755D01*
Y263760D01*
Y263770D01*
Y263782D01*
X379679Y263798D01*
Y263817D01*
X379681Y263837D01*
X379683Y263860D01*
X379689Y263909D01*
X379698Y263960D01*
X379710Y264015D01*
X379728Y264066D01*
Y264068D01*
X379730Y264070D01*
X379732Y264076D01*
X379736Y264084D01*
X379744Y264103D01*
X379757Y264129D01*
X379775Y264158D01*
X379795Y264192D01*
X379820Y264229D01*
X379849Y264266D01*
X379853Y264270D01*
X379861Y264280D01*
X379877Y264298D01*
X379900Y264321D01*
X379914Y264335D01*
X379930Y264352D01*
X379947Y264370D01*
X379969Y264388D01*
X379991Y264409D01*
X380016Y264433D01*
X380042Y264456D01*
X380071Y264482D01*
X380073Y264484D01*
X380079Y264488D01*
X380086Y264495D01*
X380096Y264505D01*
X380110Y264517D01*
X380124Y264531D01*
X380157Y264562D01*
X380192Y264599D01*
X380226Y264636D01*
X380257Y264674D01*
X380269Y264691D01*
X380279Y264707D01*
Y264709D01*
X380281Y264711D01*
X380287Y264723D01*
X380294Y264738D01*
X380304Y264762D01*
X380312Y264789D01*
X380320Y264821D01*
X380326Y264854D01*
X380328Y264891D01*
Y264893D01*
Y264899D01*
Y264909D01*
X380326Y264923D01*
X380324Y264938D01*
X380320Y264956D01*
X380316Y264976D01*
X380310Y264999D01*
X380302Y265023D01*
X380292Y265048D01*
X380282Y265074D01*
X380269Y265101D01*
X380251Y265128D01*
X380234Y265156D01*
X380212Y265183D01*
X380187Y265209D01*
X380185Y265211D01*
X380181Y265215D01*
X380173Y265221D01*
X380161Y265230D01*
X380147Y265240D01*
X380132Y265252D01*
X380112Y265266D01*
X380090Y265278D01*
X380067Y265291D01*
X380040Y265303D01*
X380012Y265315D01*
X379981Y265324D01*
X379949Y265334D01*
X379914Y265340D01*
X379879Y265344D01*
X379841Y265346D01*
X379822D01*
X379808Y265344D01*
X379792Y265342D01*
X379773Y265340D01*
X379751Y265336D01*
X379728Y265330D01*
X379675Y265315D01*
X379647Y265305D01*
X379620Y265293D01*
X379593Y265279D01*
X379565Y265262D01*
X379538Y265242D01*
X379512Y265221D01*
X379510Y265219D01*
X379506Y265215D01*
X379501Y265207D01*
X379491Y265197D01*
X379481Y265183D01*
X379469Y265168D01*
X379455Y265148D01*
X379442Y265126D01*
X379428Y265101D01*
X379412Y265072D01*
X379399Y265040D01*
X379385Y265005D01*
X379371Y264968D01*
X379361Y264927D01*
X379350Y264882D01*
X379342Y264834D01*
X379024Y264874D01*
Y264876D01*
Y264878D01*
X379026Y264889D01*
X379030Y264907D01*
X379034Y264931D01*
X379040Y264960D01*
X379048Y264995D01*
X379060Y265033D01*
X379071Y265072D01*
X379087Y265115D01*
X379105Y265160D01*
X379124Y265203D01*
X379148Y265248D01*
X379175Y265291D01*
X379205Y265334D01*
X379240Y265373D01*
X379277Y265411D01*
X379279Y265413D01*
X379287Y265419D01*
X379299Y265428D01*
X379316Y265440D01*
X379338Y265454D01*
X379363Y265470D01*
X379393Y265487D01*
X379426Y265505D01*
X379465Y265523D01*
X379506Y265540D01*
X379553Y265556D01*
X379602Y265569D01*
X379657Y265581D01*
X379714Y265591D01*
X379773Y265597D01*
X379838Y265599D01*
X379853D01*
X379873Y265597D01*
D02*
G37*
G36*
X379975Y263043D02*
X379624D01*
Y263394D01*
X379975D01*
Y263043D01*
D02*
G37*
G36*
X162183Y287103D02*
X162204Y287101D01*
X162228Y287100D01*
X162255Y287098D01*
X162287Y287092D01*
X162320Y287088D01*
X162353Y287080D01*
X162428Y287062D01*
X162467Y287051D01*
X162504Y287037D01*
X162543Y287019D01*
X162583Y287001D01*
X162584Y287000D01*
X162592Y286998D01*
X162602Y286992D01*
X162616Y286982D01*
X162634Y286972D01*
X162651Y286960D01*
X162673Y286945D01*
X162696Y286929D01*
X162722Y286909D01*
X162747Y286888D01*
X162773Y286866D01*
X162798Y286841D01*
X162847Y286784D01*
X162871Y286754D01*
X162892Y286721D01*
X162894Y286719D01*
X162896Y286713D01*
X162902Y286703D01*
X162910Y286690D01*
X162918Y286672D01*
X162926Y286653D01*
X162935Y286629D01*
X162945Y286604D01*
X162957Y286574D01*
X162967Y286545D01*
X162975Y286509D01*
X162982Y286474D01*
X162996Y286398D01*
X162998Y286357D01*
X163000Y286315D01*
Y286298D01*
X162998Y286278D01*
X162996Y286251D01*
X162992Y286219D01*
X162984Y286180D01*
X162977Y286139D01*
X162965Y286092D01*
X162949Y286043D01*
X162931Y285992D01*
X162908Y285939D01*
X162881Y285888D01*
X162849Y285835D01*
X162810Y285782D01*
X162767Y285733D01*
X162718Y285686D01*
X162714Y285684D01*
X162704Y285677D01*
X162686Y285665D01*
X162663Y285649D01*
X162631Y285630D01*
X162594Y285610D01*
X162547Y285588D01*
X162494Y285565D01*
X162434Y285541D01*
X162400Y285531D01*
X162365Y285520D01*
X162328Y285510D01*
X162289Y285500D01*
X162247Y285490D01*
X162204Y285480D01*
X162157Y285473D01*
X162110Y285465D01*
X162061Y285459D01*
X162010Y285453D01*
X161955Y285449D01*
X161900Y285445D01*
X161844Y285443D01*
X161783D01*
X161781D01*
X161775D01*
X161765D01*
X161751D01*
X161734Y285445D01*
X161714D01*
X161691D01*
X161663Y285447D01*
X161634Y285449D01*
X161604Y285451D01*
X161569Y285455D01*
X161534Y285457D01*
X161460Y285467D01*
X161377Y285477D01*
X161291Y285490D01*
X161203Y285508D01*
X161115Y285531D01*
X161028Y285557D01*
X160944Y285588D01*
X160864Y285624D01*
X160789Y285665D01*
X160754Y285688D01*
X160722Y285712D01*
X160719Y285714D01*
X160711Y285723D01*
X160695Y285735D01*
X160677Y285755D01*
X160656Y285778D01*
X160630Y285808D01*
X160605Y285841D01*
X160577Y285878D01*
X160552Y285922D01*
X160524Y285970D01*
X160501Y286021D01*
X160479Y286078D01*
X160462Y286139D01*
X160446Y286204D01*
X160438Y286272D01*
X160434Y286345D01*
Y286359D01*
X160436Y286374D01*
Y286394D01*
X160440Y286419D01*
X160442Y286449D01*
X160448Y286482D01*
X160456Y286517D01*
X160464Y286555D01*
X160476Y286594D01*
X160489Y286635D01*
X160505Y286676D01*
X160524Y286715D01*
X160546Y286756D01*
X160572Y286794D01*
X160601Y286831D01*
X160603Y286833D01*
X160609Y286839D01*
X160619Y286849D01*
X160632Y286862D01*
X160648Y286876D01*
X160670Y286894D01*
X160693Y286911D01*
X160721Y286931D01*
X160752Y286950D01*
X160785Y286970D01*
X160824Y286990D01*
X160866Y287007D01*
X160909Y287025D01*
X160956Y287039D01*
X161007Y287051D01*
X161060Y287060D01*
X161083Y286754D01*
X161081D01*
X161075Y286753D01*
X161065Y286751D01*
X161054Y286747D01*
X161038Y286743D01*
X161022Y286737D01*
X160983Y286723D01*
X160940Y286707D01*
X160897Y286686D01*
X160856Y286664D01*
X160836Y286651D01*
X160820Y286637D01*
X160819Y286635D01*
X160815Y286631D01*
X160809Y286625D01*
X160799Y286615D01*
X160789Y286602D01*
X160777Y286588D01*
X160766Y286570D01*
X160754Y286551D01*
X160742Y286529D01*
X160728Y286506D01*
X160719Y286480D01*
X160709Y286453D01*
X160699Y286425D01*
X160693Y286394D01*
X160689Y286361D01*
X160687Y286327D01*
Y286314D01*
X160689Y286302D01*
Y286290D01*
X160691Y286274D01*
X160697Y286239D01*
X160707Y286198D01*
X160722Y286155D01*
X160744Y286110D01*
X160756Y286088D01*
X160772Y286067D01*
X160774Y286065D01*
X160775Y286061D01*
X160783Y286053D01*
X160791Y286043D01*
X160803Y286029D01*
X160817Y286016D01*
X160832Y286000D01*
X160850Y285982D01*
X160872Y285965D01*
X160895Y285945D01*
X160921Y285925D01*
X160948Y285908D01*
X160977Y285888D01*
X161011Y285869D01*
X161046Y285851D01*
X161083Y285835D01*
X161085D01*
X161093Y285831D01*
X161105Y285827D01*
X161120Y285822D01*
X161142Y285816D01*
X161167Y285808D01*
X161197Y285800D01*
X161232Y285792D01*
X161271Y285784D01*
X161314Y285776D01*
X161362Y285771D01*
X161414Y285763D01*
X161469Y285757D01*
X161530Y285753D01*
X161595Y285751D01*
X161663Y285749D01*
X161661Y285751D01*
X161655Y285755D01*
X161648Y285761D01*
X161636Y285769D01*
X161622Y285780D01*
X161604Y285792D01*
X161587Y285808D01*
X161567Y285825D01*
X161526Y285865D01*
X161485Y285912D01*
X161446Y285965D01*
X161426Y285992D01*
X161410Y286021D01*
X161408Y286023D01*
X161407Y286029D01*
X161403Y286037D01*
X161397Y286049D01*
X161391Y286065D01*
X161385Y286082D01*
X161377Y286102D01*
X161369Y286123D01*
X161362Y286149D01*
X161354Y286174D01*
X161342Y286233D01*
X161332Y286294D01*
X161328Y286361D01*
Y286374D01*
X161330Y286390D01*
X161332Y286411D01*
X161336Y286439D01*
X161340Y286470D01*
X161348Y286506D01*
X161356Y286543D01*
X161369Y286584D01*
X161383Y286625D01*
X161403Y286668D01*
X161424Y286713D01*
X161450Y286758D01*
X161481Y286804D01*
X161516Y286847D01*
X161556Y286888D01*
X161557Y286890D01*
X161565Y286898D01*
X161579Y286907D01*
X161597Y286921D01*
X161618Y286939D01*
X161646Y286956D01*
X161679Y286976D01*
X161714Y286998D01*
X161755Y287017D01*
X161799Y287037D01*
X161848Y287054D01*
X161899Y287072D01*
X161955Y287086D01*
X162014Y287096D01*
X162077Y287103D01*
X162144Y287105D01*
X162145D01*
X162153D01*
X162167D01*
X162183Y287103D01*
D02*
G37*
G36*
X162957Y284359D02*
X160993D01*
X160995Y284357D01*
X160997Y284353D01*
X161003Y284348D01*
X161011Y284340D01*
X161020Y284328D01*
X161032Y284314D01*
X161044Y284299D01*
X161060Y284281D01*
X161075Y284261D01*
X161091Y284238D01*
X161109Y284214D01*
X161126Y284189D01*
X161165Y284130D01*
X161205Y284065D01*
X161207Y284063D01*
X161209Y284057D01*
X161214Y284048D01*
X161222Y284036D01*
X161230Y284018D01*
X161240Y284001D01*
X161252Y283979D01*
X161264Y283958D01*
X161289Y283907D01*
X161316Y283854D01*
X161342Y283797D01*
X161363Y283742D01*
X161065D01*
X161064Y283746D01*
X161060Y283754D01*
X161054Y283768D01*
X161044Y283785D01*
X161032Y283809D01*
X161019Y283834D01*
X161001Y283863D01*
X160983Y283895D01*
X160964Y283930D01*
X160940Y283965D01*
X160891Y284042D01*
X160834Y284118D01*
X160772Y284193D01*
X160770Y284195D01*
X160764Y284201D01*
X160754Y284210D01*
X160742Y284224D01*
X160726Y284240D01*
X160709Y284259D01*
X160687Y284279D01*
X160664Y284301D01*
X160613Y284346D01*
X160556Y284391D01*
X160495Y284432D01*
X160466Y284452D01*
X160434Y284467D01*
Y284667D01*
X162957D01*
Y284359D01*
D02*
G37*
G36*
X162165Y283219D02*
X162171D01*
X162179Y283215D01*
X162200Y283209D01*
X162228Y283199D01*
X162263Y283187D01*
X162302Y283174D01*
X162345Y283154D01*
X162392Y283134D01*
X162443Y283109D01*
X162494Y283082D01*
X162545Y283050D01*
X162598Y283017D01*
X162649Y282978D01*
X162698Y282936D01*
X162743Y282891D01*
X162786Y282842D01*
X162788Y282838D01*
X162796Y282831D01*
X162806Y282815D01*
X162820Y282793D01*
X162835Y282768D01*
X162853Y282736D01*
X162873Y282699D01*
X162892Y282658D01*
X162914Y282613D01*
X162931Y282562D01*
X162951Y282507D01*
X162967Y282448D01*
X162980Y282386D01*
X162990Y282321D01*
X162998Y282252D01*
X163000Y282180D01*
Y282152D01*
X162998Y282141D01*
Y282113D01*
X162994Y282078D01*
X162992Y282039D01*
X162986Y281994D01*
X162978Y281945D01*
X162971Y281894D01*
X162959Y281841D01*
X162947Y281786D01*
X162931Y281731D01*
X162912Y281674D01*
X162890Y281621D01*
X162865Y281568D01*
X162835Y281519D01*
X162833Y281517D01*
X162828Y281508D01*
X162818Y281496D01*
X162804Y281478D01*
X162788Y281457D01*
X162767Y281431D01*
X162741Y281404D01*
X162714Y281376D01*
X162682Y281345D01*
X162645Y281313D01*
X162606Y281280D01*
X162565Y281249D01*
X162518Y281218D01*
X162467Y281186D01*
X162414Y281157D01*
X162357Y281131D01*
X162353Y281129D01*
X162343Y281125D01*
X162326Y281119D01*
X162302Y281112D01*
X162273Y281100D01*
X162240Y281090D01*
X162198Y281078D01*
X162155Y281067D01*
X162106Y281053D01*
X162055Y281041D01*
X161998Y281031D01*
X161940Y281021D01*
X161879Y281012D01*
X161816Y281006D01*
X161749Y281002D01*
X161683Y281000D01*
X161681D01*
X161679D01*
X161673D01*
X161665D01*
X161646Y281002D01*
X161616D01*
X161583Y281004D01*
X161544Y281008D01*
X161499Y281012D01*
X161450Y281019D01*
X161399Y281027D01*
X161344Y281037D01*
X161287Y281049D01*
X161228Y281063D01*
X161171Y281080D01*
X161113Y281100D01*
X161054Y281123D01*
X160999Y281149D01*
X160995Y281151D01*
X160985Y281157D01*
X160971Y281165D01*
X160950Y281176D01*
X160926Y281192D01*
X160897Y281212D01*
X160868Y281233D01*
X160832Y281259D01*
X160797Y281286D01*
X160762Y281317D01*
X160724Y281353D01*
X160687Y281392D01*
X160652Y281433D01*
X160617Y281476D01*
X160583Y281523D01*
X160554Y281574D01*
X160552Y281578D01*
X160548Y281586D01*
X160540Y281602D01*
X160530Y281623D01*
X160519Y281649D01*
X160505Y281680D01*
X160491Y281715D01*
X160477Y281755D01*
X160464Y281798D01*
X160450Y281845D01*
X160436Y281896D01*
X160425Y281949D01*
X160415Y282005D01*
X160407Y282062D01*
X160403Y282123D01*
X160401Y282184D01*
Y282201D01*
X160403Y282221D01*
Y282246D01*
X160407Y282280D01*
X160411Y282317D01*
X160417Y282360D01*
X160425Y282405D01*
X160434Y282454D01*
X160448Y282505D01*
X160464Y282558D01*
X160481Y282611D01*
X160505Y282664D01*
X160530Y282717D01*
X160560Y282770D01*
X160593Y282819D01*
X160595Y282823D01*
X160603Y282831D01*
X160613Y282842D01*
X160628Y282860D01*
X160648Y282882D01*
X160672Y282905D01*
X160701Y282932D01*
X160732Y282960D01*
X160770Y282989D01*
X160809Y283019D01*
X160854Y283050D01*
X160903Y283080D01*
X160954Y283107D01*
X161011Y283132D01*
X161071Y283156D01*
X161134Y283177D01*
X161211Y282850D01*
X161207D01*
X161199Y282846D01*
X161185Y282840D01*
X161165Y282835D01*
X161144Y282825D01*
X161117Y282813D01*
X161089Y282801D01*
X161058Y282786D01*
X160993Y282750D01*
X160926Y282705D01*
X160895Y282682D01*
X160864Y282654D01*
X160836Y282625D01*
X160811Y282595D01*
X160809Y282593D01*
X160805Y282588D01*
X160799Y282578D01*
X160791Y282566D01*
X160781Y282548D01*
X160772Y282529D01*
X160760Y282507D01*
X160748Y282482D01*
X160736Y282452D01*
X160724Y282421D01*
X160715Y282386D01*
X160705Y282348D01*
X160697Y282309D01*
X160691Y282268D01*
X160687Y282225D01*
X160685Y282178D01*
Y282151D01*
X160687Y282129D01*
X160689Y282105D01*
X160693Y282076D01*
X160697Y282045D01*
X160703Y282009D01*
X160711Y281972D01*
X160719Y281933D01*
X160730Y281892D01*
X160744Y281851D01*
X160760Y281811D01*
X160779Y281770D01*
X160799Y281731D01*
X160824Y281694D01*
X160826Y281692D01*
X160830Y281686D01*
X160838Y281676D01*
X160850Y281662D01*
X160864Y281647D01*
X160881Y281629D01*
X160901Y281608D01*
X160922Y281588D01*
X160948Y281564D01*
X160977Y281543D01*
X161007Y281519D01*
X161040Y281498D01*
X161077Y281476D01*
X161115Y281455D01*
X161156Y281437D01*
X161199Y281421D01*
X161201D01*
X161209Y281417D01*
X161222Y281414D01*
X161240Y281410D01*
X161259Y281404D01*
X161285Y281396D01*
X161314Y281390D01*
X161346Y281382D01*
X161381Y281374D01*
X161418Y281368D01*
X161460Y281361D01*
X161501Y281355D01*
X161589Y281347D01*
X161681Y281343D01*
X161685D01*
X161695D01*
X161712D01*
X161734Y281345D01*
X161763D01*
X161795Y281349D01*
X161832Y281351D01*
X161871Y281355D01*
X161914Y281359D01*
X161959Y281366D01*
X162053Y281382D01*
X162149Y281406D01*
X162196Y281419D01*
X162241Y281435D01*
X162243Y281437D01*
X162251Y281439D01*
X162265Y281445D01*
X162281Y281453D01*
X162300Y281463D01*
X162324Y281474D01*
X162349Y281490D01*
X162375Y281508D01*
X162404Y281525D01*
X162434Y281547D01*
X162463Y281570D01*
X162492Y281598D01*
X162522Y281625D01*
X162549Y281657D01*
X162575Y281690D01*
X162598Y281725D01*
X162600Y281727D01*
X162604Y281735D01*
X162610Y281745D01*
X162616Y281760D01*
X162626Y281778D01*
X162636Y281800D01*
X162645Y281825D01*
X162657Y281853D01*
X162669Y281884D01*
X162679Y281917D01*
X162688Y281953D01*
X162698Y281990D01*
X162704Y282027D01*
X162710Y282068D01*
X162714Y282109D01*
X162716Y282152D01*
Y282164D01*
X162714Y282180D01*
Y282200D01*
X162710Y282223D01*
X162708Y282250D01*
X162702Y282282D01*
X162696Y282315D01*
X162686Y282352D01*
X162677Y282390D01*
X162663Y282429D01*
X162647Y282470D01*
X162630Y282509D01*
X162608Y282548D01*
X162583Y282588D01*
X162555Y282625D01*
X162553Y282627D01*
X162547Y282633D01*
X162538Y282642D01*
X162526Y282656D01*
X162508Y282672D01*
X162487Y282689D01*
X162463Y282709D01*
X162435Y282731D01*
X162402Y282752D01*
X162367Y282774D01*
X162328Y282795D01*
X162285Y282817D01*
X162240Y282838D01*
X162189Y282856D01*
X162134Y282874D01*
X162077Y282887D01*
X162161Y283221D01*
X162163D01*
X162165Y283219D01*
D02*
G37*
G36*
X311862Y297317D02*
X312803Y296000D01*
X312395D01*
X311760Y296896D01*
X311758Y296900D01*
X311750Y296909D01*
X311741Y296923D01*
X311727Y296945D01*
X311711Y296966D01*
X311694Y296994D01*
X311656Y297050D01*
Y297048D01*
X311652Y297045D01*
X311649Y297039D01*
X311643Y297029D01*
X311629Y297007D01*
X311611Y296980D01*
X311592Y296951D01*
X311572Y296919D01*
X311553Y296892D01*
X311537Y296870D01*
X310900Y296000D01*
X310500D01*
X311472Y297303D01*
X310616Y298513D01*
X311012D01*
X311470Y297868D01*
X311472Y297866D01*
X311476Y297860D01*
X311484Y297848D01*
X311494Y297834D01*
X311505Y297819D01*
X311519Y297799D01*
X311533Y297778D01*
X311548Y297754D01*
X311582Y297705D01*
X311615Y297654D01*
X311647Y297605D01*
X311660Y297584D01*
X311672Y297562D01*
X311674Y297564D01*
X311676Y297568D01*
X311680Y297576D01*
X311688Y297586D01*
X311696Y297597D01*
X311703Y297611D01*
X311715Y297629D01*
X311727Y297646D01*
X311756Y297688D01*
X311790Y297737D01*
X311829Y297787D01*
X311870Y297842D01*
X312372Y298513D01*
X312734D01*
X311862Y297317D01*
D02*
G37*
G36*
X313842Y298520D02*
X313865Y298519D01*
X313897Y298517D01*
X313932Y298513D01*
X313971Y298505D01*
X314014Y298497D01*
X314057Y298487D01*
X314104Y298474D01*
X314151Y298458D01*
X314200Y298438D01*
X314247Y298415D01*
X314293Y298387D01*
X314338Y298356D01*
X314379Y298321D01*
X314381Y298319D01*
X314389Y298311D01*
X314398Y298301D01*
X314412Y298285D01*
X314428Y298266D01*
X314445Y298242D01*
X314465Y298215D01*
X314485Y298183D01*
X314504Y298150D01*
X314524Y298111D01*
X314542Y298072D01*
X314557Y298027D01*
X314571Y297980D01*
X314581Y297931D01*
X314588Y297880D01*
X314591Y297825D01*
Y297823D01*
Y297819D01*
Y297809D01*
Y297799D01*
X314588Y297785D01*
X314586Y297770D01*
X314585Y297750D01*
X314583Y297731D01*
X314575Y297686D01*
X314565Y297635D01*
X314549Y297582D01*
X314528Y297527D01*
Y297525D01*
X314526Y297521D01*
X314522Y297513D01*
X314516Y297501D01*
X314510Y297488D01*
X314500Y297472D01*
X314491Y297454D01*
X314479Y297435D01*
X314451Y297388D01*
X314416Y297337D01*
X314373Y297280D01*
X314324Y297221D01*
X314322Y297219D01*
X314318Y297213D01*
X314308Y297205D01*
X314297Y297192D01*
X314281Y297176D01*
X314261Y297154D01*
X314238Y297133D01*
X314210Y297105D01*
X314179Y297076D01*
X314146Y297043D01*
X314106Y297005D01*
X314063Y296966D01*
X314016Y296923D01*
X313963Y296878D01*
X313908Y296829D01*
X313848Y296778D01*
X313844Y296776D01*
X313836Y296768D01*
X313822Y296757D01*
X313803Y296741D01*
X313781Y296721D01*
X313755Y296700D01*
X313728Y296676D01*
X313699Y296651D01*
X313638Y296598D01*
X313579Y296545D01*
X313554Y296521D01*
X313528Y296498D01*
X313509Y296478D01*
X313491Y296461D01*
X313487Y296457D01*
X313477Y296447D01*
X313463Y296431D01*
X313446Y296410D01*
X313424Y296384D01*
X313403Y296357D01*
X313381Y296327D01*
X313362Y296296D01*
X314594D01*
Y296000D01*
X312932D01*
Y296002D01*
Y296006D01*
Y296012D01*
Y296020D01*
Y296041D01*
X312936Y296069D01*
X312940Y296100D01*
X312946Y296137D01*
X312956Y296174D01*
X312968Y296214D01*
Y296216D01*
X312971Y296221D01*
X312973Y296231D01*
X312979Y296243D01*
X312987Y296259D01*
X312995Y296276D01*
X313005Y296296D01*
X313017Y296319D01*
X313044Y296368D01*
X313079Y296425D01*
X313121Y296486D01*
X313170Y296547D01*
X313171Y296549D01*
X313175Y296555D01*
X313185Y296564D01*
X313195Y296576D01*
X313211Y296592D01*
X313228Y296609D01*
X313250Y296631D01*
X313273Y296657D01*
X313301Y296682D01*
X313330Y296711D01*
X313364Y296743D01*
X313401Y296776D01*
X313440Y296811D01*
X313481Y296849D01*
X313526Y296888D01*
X313575Y296927D01*
X313577Y296929D01*
X313579Y296931D01*
X313585Y296935D01*
X313593Y296943D01*
X313614Y296958D01*
X313642Y296982D01*
X313675Y297011D01*
X313712Y297043D01*
X313754Y297080D01*
X313799Y297119D01*
X313844Y297160D01*
X313891Y297203D01*
X313936Y297249D01*
X313981Y297294D01*
X314024Y297337D01*
X314063Y297380D01*
X314099Y297421D01*
X314128Y297458D01*
X314130Y297460D01*
X314134Y297468D01*
X314142Y297478D01*
X314151Y297492D01*
X314161Y297509D01*
X314173Y297531D01*
X314187Y297554D01*
X314200Y297580D01*
X314214Y297607D01*
X314228Y297637D01*
X314249Y297699D01*
X314259Y297731D01*
X314267Y297764D01*
X314271Y297797D01*
X314273Y297831D01*
Y297832D01*
Y297838D01*
Y297848D01*
X314271Y297862D01*
X314269Y297878D01*
X314265Y297895D01*
X314261Y297917D01*
X314257Y297938D01*
X314242Y297987D01*
X314230Y298013D01*
X314218Y298038D01*
X314202Y298066D01*
X314185Y298091D01*
X314165Y298117D01*
X314142Y298140D01*
X314140Y298142D01*
X314136Y298146D01*
X314128Y298152D01*
X314118Y298160D01*
X314104Y298170D01*
X314089Y298181D01*
X314071Y298191D01*
X314050Y298205D01*
X314026Y298217D01*
X314001Y298226D01*
X313971Y298238D01*
X313942Y298248D01*
X313908Y298256D01*
X313875Y298262D01*
X313838Y298266D01*
X313799Y298268D01*
X313777D01*
X313761Y298266D01*
X313744Y298264D01*
X313722Y298260D01*
X313697Y298256D01*
X313671Y298250D01*
X313644Y298244D01*
X313614Y298234D01*
X313585Y298224D01*
X313556Y298211D01*
X313524Y298195D01*
X313497Y298178D01*
X313467Y298156D01*
X313442Y298132D01*
X313440Y298130D01*
X313436Y298127D01*
X313430Y298119D01*
X313420Y298109D01*
X313411Y298095D01*
X313401Y298078D01*
X313387Y298058D01*
X313375Y298036D01*
X313364Y298011D01*
X313352Y297984D01*
X313340Y297952D01*
X313330Y297921D01*
X313320Y297884D01*
X313315Y297846D01*
X313311Y297805D01*
X313309Y297762D01*
X312991Y297795D01*
Y297797D01*
Y297799D01*
X312993Y297811D01*
X312995Y297829D01*
X312999Y297854D01*
X313005Y297884D01*
X313013Y297917D01*
X313022Y297956D01*
X313034Y297995D01*
X313048Y298038D01*
X313064Y298083D01*
X313083Y298129D01*
X313107Y298174D01*
X313132Y298217D01*
X313164Y298260D01*
X313197Y298299D01*
X313234Y298336D01*
X313236Y298338D01*
X313244Y298344D01*
X313256Y298354D01*
X313273Y298366D01*
X313295Y298379D01*
X313320Y298395D01*
X313352Y298413D01*
X313385Y298430D01*
X313424Y298446D01*
X313467Y298464D01*
X313514Y298479D01*
X313565Y298493D01*
X313620Y298505D01*
X313679Y298515D01*
X313742Y298520D01*
X313807Y298522D01*
X313822D01*
X313842Y298520D01*
D02*
G37*
G36*
X332221Y250597D02*
X332246D01*
X332280Y250593D01*
X332317Y250589D01*
X332360Y250583D01*
X332405Y250575D01*
X332454Y250566D01*
X332505Y250552D01*
X332558Y250536D01*
X332611Y250519D01*
X332664Y250495D01*
X332717Y250469D01*
X332770Y250440D01*
X332819Y250407D01*
X332823Y250405D01*
X332831Y250397D01*
X332842Y250387D01*
X332860Y250372D01*
X332882Y250352D01*
X332905Y250328D01*
X332932Y250299D01*
X332960Y250268D01*
X332989Y250230D01*
X333019Y250191D01*
X333050Y250146D01*
X333080Y250097D01*
X333107Y250046D01*
X333132Y249989D01*
X333156Y249929D01*
X333177Y249866D01*
X332850Y249789D01*
Y249793D01*
X332846Y249801D01*
X332840Y249815D01*
X332835Y249834D01*
X332825Y249856D01*
X332813Y249884D01*
X332801Y249911D01*
X332786Y249942D01*
X332750Y250007D01*
X332705Y250074D01*
X332682Y250105D01*
X332654Y250136D01*
X332625Y250164D01*
X332595Y250189D01*
X332593Y250191D01*
X332588Y250195D01*
X332578Y250201D01*
X332566Y250209D01*
X332548Y250219D01*
X332529Y250229D01*
X332507Y250240D01*
X332482Y250252D01*
X332452Y250264D01*
X332421Y250275D01*
X332386Y250285D01*
X332348Y250295D01*
X332309Y250303D01*
X332268Y250309D01*
X332225Y250313D01*
X332178Y250315D01*
X332151D01*
X332129Y250313D01*
X332105Y250311D01*
X332076Y250307D01*
X332045Y250303D01*
X332009Y250297D01*
X331972Y250289D01*
X331933Y250281D01*
X331892Y250270D01*
X331851Y250256D01*
X331811Y250240D01*
X331770Y250221D01*
X331731Y250201D01*
X331694Y250176D01*
X331692Y250174D01*
X331686Y250170D01*
X331676Y250162D01*
X331662Y250150D01*
X331647Y250136D01*
X331629Y250119D01*
X331608Y250099D01*
X331588Y250078D01*
X331564Y250052D01*
X331543Y250023D01*
X331519Y249993D01*
X331498Y249960D01*
X331476Y249923D01*
X331455Y249886D01*
X331437Y249844D01*
X331421Y249801D01*
Y249799D01*
X331417Y249791D01*
X331414Y249778D01*
X331410Y249760D01*
X331404Y249740D01*
X331396Y249715D01*
X331390Y249686D01*
X331382Y249654D01*
X331374Y249619D01*
X331368Y249582D01*
X331361Y249540D01*
X331355Y249499D01*
X331347Y249411D01*
X331343Y249319D01*
Y249315D01*
Y249305D01*
Y249288D01*
X331345Y249266D01*
Y249237D01*
X331349Y249205D01*
X331351Y249168D01*
X331355Y249129D01*
X331359Y249086D01*
X331366Y249041D01*
X331382Y248947D01*
X331406Y248851D01*
X331419Y248803D01*
X331435Y248759D01*
X331437Y248757D01*
X331439Y248749D01*
X331445Y248735D01*
X331453Y248719D01*
X331463Y248700D01*
X331474Y248676D01*
X331490Y248651D01*
X331508Y248625D01*
X331525Y248596D01*
X331547Y248566D01*
X331570Y248537D01*
X331598Y248508D01*
X331625Y248478D01*
X331657Y248451D01*
X331690Y248425D01*
X331725Y248402D01*
X331727Y248400D01*
X331735Y248396D01*
X331745Y248390D01*
X331760Y248384D01*
X331778Y248374D01*
X331800Y248364D01*
X331825Y248355D01*
X331853Y248343D01*
X331884Y248331D01*
X331917Y248321D01*
X331953Y248312D01*
X331990Y248302D01*
X332027Y248296D01*
X332068Y248290D01*
X332109Y248286D01*
X332152Y248284D01*
X332164D01*
X332180Y248286D01*
X332200D01*
X332223Y248290D01*
X332250Y248292D01*
X332282Y248298D01*
X332315Y248304D01*
X332352Y248313D01*
X332390Y248323D01*
X332429Y248337D01*
X332470Y248353D01*
X332509Y248370D01*
X332548Y248392D01*
X332588Y248417D01*
X332625Y248445D01*
X332627Y248447D01*
X332633Y248453D01*
X332642Y248463D01*
X332656Y248474D01*
X332672Y248492D01*
X332689Y248514D01*
X332709Y248537D01*
X332731Y248564D01*
X332752Y248598D01*
X332774Y248633D01*
X332795Y248672D01*
X332817Y248715D01*
X332838Y248760D01*
X332856Y248811D01*
X332874Y248866D01*
X332887Y248923D01*
X333221Y248839D01*
Y248837D01*
X333219Y248835D01*
Y248829D01*
X333215Y248821D01*
X333209Y248800D01*
X333199Y248772D01*
X333187Y248737D01*
X333174Y248698D01*
X333154Y248655D01*
X333134Y248607D01*
X333109Y248557D01*
X333082Y248506D01*
X333050Y248455D01*
X333017Y248402D01*
X332978Y248351D01*
X332936Y248302D01*
X332891Y248257D01*
X332842Y248214D01*
X332838Y248212D01*
X332831Y248204D01*
X332815Y248194D01*
X332793Y248180D01*
X332768Y248165D01*
X332736Y248147D01*
X332699Y248127D01*
X332658Y248108D01*
X332613Y248086D01*
X332562Y248069D01*
X332507Y248049D01*
X332448Y248033D01*
X332386Y248020D01*
X332321Y248010D01*
X332252Y248002D01*
X332180Y248000D01*
X332152D01*
X332141Y248002D01*
X332113D01*
X332078Y248006D01*
X332039Y248008D01*
X331994Y248014D01*
X331945Y248022D01*
X331894Y248029D01*
X331841Y248041D01*
X331786Y248053D01*
X331731Y248069D01*
X331674Y248088D01*
X331621Y248110D01*
X331568Y248135D01*
X331519Y248165D01*
X331517Y248167D01*
X331508Y248172D01*
X331496Y248182D01*
X331478Y248196D01*
X331457Y248212D01*
X331431Y248233D01*
X331404Y248259D01*
X331376Y248286D01*
X331345Y248318D01*
X331313Y248355D01*
X331280Y248394D01*
X331249Y248435D01*
X331218Y248482D01*
X331186Y248533D01*
X331157Y248586D01*
X331131Y248643D01*
X331129Y248647D01*
X331125Y248657D01*
X331119Y248674D01*
X331112Y248698D01*
X331100Y248727D01*
X331090Y248760D01*
X331078Y248802D01*
X331067Y248845D01*
X331053Y248894D01*
X331041Y248945D01*
X331031Y249002D01*
X331021Y249060D01*
X331012Y249121D01*
X331006Y249184D01*
X331002Y249250D01*
X331000Y249317D01*
Y249319D01*
Y249321D01*
Y249327D01*
Y249335D01*
X331002Y249354D01*
Y249384D01*
X331004Y249417D01*
X331008Y249456D01*
X331012Y249501D01*
X331019Y249550D01*
X331027Y249601D01*
X331037Y249656D01*
X331049Y249713D01*
X331063Y249772D01*
X331080Y249829D01*
X331100Y249887D01*
X331123Y249946D01*
X331149Y250001D01*
X331151Y250005D01*
X331157Y250015D01*
X331165Y250028D01*
X331176Y250050D01*
X331192Y250074D01*
X331212Y250103D01*
X331233Y250132D01*
X331259Y250168D01*
X331286Y250203D01*
X331317Y250238D01*
X331353Y250275D01*
X331392Y250313D01*
X331433Y250348D01*
X331476Y250383D01*
X331523Y250417D01*
X331574Y250446D01*
X331578Y250448D01*
X331586Y250452D01*
X331602Y250460D01*
X331623Y250469D01*
X331649Y250481D01*
X331680Y250495D01*
X331715Y250509D01*
X331755Y250522D01*
X331798Y250536D01*
X331845Y250550D01*
X331896Y250564D01*
X331949Y250575D01*
X332005Y250585D01*
X332062Y250593D01*
X332123Y250597D01*
X332184Y250599D01*
X332201D01*
X332221Y250597D01*
D02*
G37*
G36*
X334328Y250564D02*
X334346D01*
X334367Y250562D01*
X334391Y250558D01*
X334418Y250554D01*
X334446Y250550D01*
X334475Y250544D01*
X334540Y250528D01*
X334604Y250505D01*
X334638Y250491D01*
X334671Y250475D01*
X334673D01*
X334679Y250471D01*
X334689Y250466D01*
X334700Y250460D01*
X334714Y250450D01*
X334732Y250440D01*
X334769Y250413D01*
X334812Y250377D01*
X334857Y250336D01*
X334900Y250289D01*
X334938Y250234D01*
X334940Y250232D01*
X334942Y250229D01*
X334945Y250219D01*
X334951Y250209D01*
X334959Y250193D01*
X334967Y250178D01*
X334975Y250158D01*
X334985Y250138D01*
X334993Y250115D01*
X335000Y250089D01*
X335016Y250034D01*
X335026Y249974D01*
X335030Y249942D01*
Y249911D01*
Y249909D01*
Y249903D01*
Y249895D01*
X335028Y249884D01*
Y249870D01*
X335026Y249852D01*
X335022Y249834D01*
X335018Y249813D01*
X335008Y249768D01*
X334993Y249717D01*
X334971Y249666D01*
X334957Y249640D01*
X334942Y249615D01*
Y249613D01*
X334938Y249609D01*
X334932Y249601D01*
X334926Y249593D01*
X334916Y249582D01*
X334904Y249568D01*
X334891Y249554D01*
X334877Y249538D01*
X334859Y249523D01*
X334840Y249505D01*
X334818Y249488D01*
X334794Y249470D01*
X334771Y249452D01*
X334744Y249435D01*
X334683Y249403D01*
X334685D01*
X334693Y249401D01*
X334704Y249397D01*
X334720Y249394D01*
X334738Y249386D01*
X334759Y249378D01*
X334785Y249370D01*
X334810Y249358D01*
X334838Y249344D01*
X334865Y249329D01*
X334894Y249311D01*
X334924Y249292D01*
X334951Y249270D01*
X334979Y249247D01*
X335006Y249219D01*
X335030Y249190D01*
X335032Y249188D01*
X335036Y249182D01*
X335041Y249174D01*
X335049Y249160D01*
X335059Y249145D01*
X335069Y249125D01*
X335081Y249103D01*
X335092Y249078D01*
X335102Y249050D01*
X335114Y249019D01*
X335124Y248986D01*
X335134Y248951D01*
X335141Y248913D01*
X335147Y248872D01*
X335151Y248829D01*
X335153Y248784D01*
Y248780D01*
Y248770D01*
X335151Y248753D01*
X335149Y248729D01*
X335145Y248702D01*
X335141Y248668D01*
X335134Y248631D01*
X335124Y248592D01*
X335110Y248549D01*
X335094Y248504D01*
X335075Y248459D01*
X335051Y248411D01*
X335024Y248364D01*
X334993Y248318D01*
X334955Y248272D01*
X334912Y248227D01*
X334910Y248225D01*
X334900Y248218D01*
X334889Y248206D01*
X334869Y248192D01*
X334845Y248174D01*
X334818Y248155D01*
X334785Y248135D01*
X334748Y248114D01*
X334704Y248092D01*
X334659Y248073D01*
X334608Y248053D01*
X334555Y248035D01*
X334497Y248022D01*
X334436Y248010D01*
X334371Y248002D01*
X334304Y248000D01*
X334291D01*
X334273Y248002D01*
X334250Y248004D01*
X334220Y248006D01*
X334189Y248010D01*
X334152Y248016D01*
X334112Y248025D01*
X334069Y248035D01*
X334024Y248047D01*
X333979Y248065D01*
X333932Y248082D01*
X333887Y248106D01*
X333840Y248131D01*
X333797Y248161D01*
X333754Y248196D01*
X333752Y248198D01*
X333744Y248206D01*
X333734Y248216D01*
X333718Y248231D01*
X333703Y248251D01*
X333683Y248274D01*
X333664Y248304D01*
X333642Y248335D01*
X333621Y248368D01*
X333597Y248408D01*
X333577Y248451D01*
X333558Y248496D01*
X333540Y248545D01*
X333526Y248596D01*
X333515Y248651D01*
X333507Y248708D01*
X333815Y248749D01*
Y248747D01*
X333817Y248737D01*
X333820Y248723D01*
X333824Y248706D01*
X333830Y248684D01*
X333838Y248660D01*
X333846Y248633D01*
X333858Y248604D01*
X333881Y248541D01*
X333912Y248478D01*
X333930Y248449D01*
X333950Y248419D01*
X333971Y248394D01*
X333995Y248370D01*
X333997Y248368D01*
X334001Y248364D01*
X334009Y248361D01*
X334018Y248353D01*
X334030Y248343D01*
X334046Y248333D01*
X334062Y248323D01*
X334081Y248313D01*
X334103Y248302D01*
X334126Y248292D01*
X334181Y248272D01*
X334208Y248265D01*
X334240Y248261D01*
X334273Y248257D01*
X334307Y248255D01*
X334316D01*
X334328Y248257D01*
X334344D01*
X334361Y248259D01*
X334383Y248263D01*
X334408Y248267D01*
X334436Y248274D01*
X334463Y248282D01*
X334493Y248292D01*
X334524Y248304D01*
X334555Y248318D01*
X334585Y248335D01*
X334616Y248355D01*
X334646Y248378D01*
X334675Y248404D01*
X334677Y248406D01*
X334681Y248411D01*
X334689Y248419D01*
X334699Y248431D01*
X334710Y248445D01*
X334722Y248463D01*
X334736Y248484D01*
X334751Y248508D01*
X334765Y248533D01*
X334779Y248563D01*
X334791Y248592D01*
X334802Y248625D01*
X334812Y248660D01*
X334820Y248698D01*
X334824Y248737D01*
X334826Y248778D01*
Y248780D01*
Y248788D01*
Y248798D01*
X334824Y248813D01*
X334822Y248831D01*
X334818Y248853D01*
X334814Y248876D01*
X334808Y248902D01*
X334800Y248929D01*
X334792Y248956D01*
X334781Y248986D01*
X334767Y249015D01*
X334751Y249045D01*
X334732Y249072D01*
X334712Y249099D01*
X334687Y249127D01*
X334685Y249129D01*
X334681Y249133D01*
X334673Y249141D01*
X334661Y249149D01*
X334647Y249158D01*
X334632Y249170D01*
X334612Y249184D01*
X334591Y249198D01*
X334565Y249209D01*
X334540Y249223D01*
X334510Y249235D01*
X334479Y249244D01*
X334446Y249252D01*
X334408Y249260D01*
X334371Y249264D01*
X334332Y249266D01*
X334316D01*
X334297Y249264D01*
X334271Y249262D01*
X334240Y249258D01*
X334203Y249252D01*
X334161Y249244D01*
X334114Y249233D01*
X334148Y249503D01*
X334154D01*
X334165Y249501D01*
X334183Y249499D01*
X334218D01*
X334232Y249501D01*
X334250Y249503D01*
X334269Y249505D01*
X334291Y249507D01*
X334316Y249513D01*
X334371Y249525D01*
X334432Y249542D01*
X334461Y249554D01*
X334493Y249568D01*
X334524Y249584D01*
X334553Y249601D01*
X334555Y249603D01*
X334561Y249607D01*
X334569Y249613D01*
X334579Y249621D01*
X334591Y249633D01*
X334604Y249646D01*
X334618Y249662D01*
X334634Y249680D01*
X334647Y249701D01*
X334661Y249725D01*
X334675Y249750D01*
X334687Y249780D01*
X334699Y249811D01*
X334706Y249844D01*
X334710Y249880D01*
X334712Y249919D01*
Y249921D01*
Y249927D01*
Y249935D01*
X334710Y249948D01*
X334708Y249962D01*
X334706Y249980D01*
X334702Y249997D01*
X334699Y250019D01*
X334685Y250062D01*
X334675Y250085D01*
X334663Y250109D01*
X334649Y250134D01*
X334636Y250156D01*
X334616Y250180D01*
X334596Y250201D01*
X334595Y250203D01*
X334591Y250205D01*
X334585Y250211D01*
X334575Y250219D01*
X334565Y250226D01*
X334549Y250236D01*
X334534Y250246D01*
X334516Y250258D01*
X334495Y250268D01*
X334473Y250277D01*
X334448Y250287D01*
X334422Y250295D01*
X334395Y250303D01*
X334363Y250309D01*
X334332Y250311D01*
X334299Y250313D01*
X334281D01*
X334269Y250311D01*
X334254Y250309D01*
X334236Y250307D01*
X334216Y250303D01*
X334195Y250299D01*
X334148Y250285D01*
X334122Y250275D01*
X334097Y250266D01*
X334071Y250252D01*
X334046Y250236D01*
X334022Y250219D01*
X333999Y250199D01*
X333997Y250197D01*
X333993Y250193D01*
X333987Y250187D01*
X333979Y250178D01*
X333969Y250166D01*
X333960Y250152D01*
X333948Y250134D01*
X333934Y250115D01*
X333922Y250091D01*
X333909Y250066D01*
X333897Y250038D01*
X333883Y250009D01*
X333873Y249976D01*
X333861Y249938D01*
X333854Y249901D01*
X333846Y249860D01*
X333538Y249915D01*
Y249919D01*
X333540Y249929D01*
X333544Y249944D01*
X333550Y249966D01*
X333558Y249991D01*
X333566Y250023D01*
X333577Y250056D01*
X333591Y250091D01*
X333607Y250129D01*
X333624Y250168D01*
X333646Y250209D01*
X333669Y250248D01*
X333695Y250287D01*
X333724Y250326D01*
X333758Y250362D01*
X333793Y250395D01*
X333795Y250397D01*
X333803Y250403D01*
X333815Y250411D01*
X333830Y250423D01*
X333850Y250434D01*
X333873Y250450D01*
X333901Y250464D01*
X333932Y250481D01*
X333965Y250497D01*
X334005Y250513D01*
X334046Y250526D01*
X334089Y250538D01*
X334136Y250550D01*
X334185Y250558D01*
X334238Y250564D01*
X334293Y250566D01*
X334312D01*
X334328Y250564D01*
D02*
G37*
G36*
X312957Y380521D02*
X310993D01*
X310995Y380519D01*
X310997Y380515D01*
X311003Y380509D01*
X311011Y380501D01*
X311020Y380489D01*
X311032Y380476D01*
X311044Y380460D01*
X311060Y380442D01*
X311075Y380423D01*
X311091Y380399D01*
X311109Y380376D01*
X311126Y380350D01*
X311165Y380291D01*
X311205Y380227D01*
X311207Y380225D01*
X311209Y380219D01*
X311214Y380209D01*
X311222Y380197D01*
X311230Y380180D01*
X311240Y380162D01*
X311252Y380140D01*
X311263Y380119D01*
X311289Y380068D01*
X311316Y380015D01*
X311342Y379958D01*
X311363Y379903D01*
X311066D01*
X311064Y379907D01*
X311060Y379915D01*
X311054Y379929D01*
X311044Y379946D01*
X311032Y379970D01*
X311018Y379995D01*
X311001Y380025D01*
X310983Y380056D01*
X310964Y380091D01*
X310940Y380127D01*
X310891Y380203D01*
X310834Y380280D01*
X310771Y380354D01*
X310770Y380356D01*
X310764Y380362D01*
X310754Y380372D01*
X310742Y380385D01*
X310726Y380401D01*
X310709Y380421D01*
X310687Y380440D01*
X310664Y380462D01*
X310613Y380507D01*
X310556Y380552D01*
X310495Y380593D01*
X310466Y380613D01*
X310434Y380628D01*
Y380828D01*
X312957D01*
Y380521D01*
D02*
G37*
G36*
Y378906D02*
X311773D01*
Y377602D01*
X312957D01*
Y377269D01*
X310444D01*
Y377602D01*
X311477D01*
Y378906D01*
X310444D01*
Y379239D01*
X312957D01*
Y378906D01*
D02*
G37*
G36*
X312283Y376801D02*
X312300Y376799D01*
X312322Y376797D01*
X312345Y376793D01*
X312371Y376789D01*
X312400Y376783D01*
X312430Y376775D01*
X312461Y376765D01*
X312492Y376753D01*
X312526Y376740D01*
X312561Y376726D01*
X312594Y376707D01*
X312628Y376687D01*
X312630Y376685D01*
X312635Y376681D01*
X312645Y376675D01*
X312657Y376665D01*
X312671Y376654D01*
X312688Y376640D01*
X312708Y376622D01*
X312728Y376603D01*
X312749Y376579D01*
X312773Y376555D01*
X312794Y376528D01*
X312818Y376499D01*
X312839Y376465D01*
X312863Y376432D01*
X312882Y376395D01*
X312902Y376356D01*
X312904Y376354D01*
X312906Y376346D01*
X312912Y376334D01*
X312918Y376318D01*
X312926Y376299D01*
X312933Y376273D01*
X312941Y376246D01*
X312951Y376215D01*
X312961Y376181D01*
X312969Y376144D01*
X312977Y376105D01*
X312984Y376062D01*
X312990Y376019D01*
X312996Y375972D01*
X312998Y375922D01*
X313000Y375873D01*
Y375840D01*
X312998Y375817D01*
X312996Y375787D01*
X312994Y375754D01*
X312992Y375715D01*
X312988Y375674D01*
X312982Y375630D01*
X312977Y375583D01*
X312959Y375487D01*
X312947Y375440D01*
X312933Y375391D01*
X312920Y375346D01*
X312902Y375301D01*
X312900Y375299D01*
X312898Y375291D01*
X312892Y375280D01*
X312882Y375264D01*
X312873Y375244D01*
X312859Y375221D01*
X312845Y375197D01*
X312828Y375170D01*
X312808Y375142D01*
X312784Y375113D01*
X312761Y375082D01*
X312734Y375052D01*
X312704Y375023D01*
X312673Y374993D01*
X312637Y374966D01*
X312602Y374940D01*
X312600Y374939D01*
X312592Y374935D01*
X312582Y374929D01*
X312567Y374921D01*
X312547Y374909D01*
X312526Y374899D01*
X312500Y374888D01*
X312471Y374874D01*
X312438Y374862D01*
X312404Y374848D01*
X312367Y374839D01*
X312326Y374827D01*
X312285Y374819D01*
X312242Y374811D01*
X312196Y374805D01*
X312149Y374803D01*
X312122Y375117D01*
X312124D01*
X312130Y375119D01*
X312140D01*
X312153Y375121D01*
X312169Y375125D01*
X312189Y375129D01*
X312210Y375133D01*
X312232Y375138D01*
X312281Y375152D01*
X312334Y375170D01*
X312385Y375191D01*
X312434Y375219D01*
X312436Y375221D01*
X312439Y375223D01*
X312445Y375227D01*
X312453Y375235D01*
X312465Y375242D01*
X312477Y375254D01*
X312489Y375266D01*
X312504Y375282D01*
X312520Y375297D01*
X312536Y375317D01*
X312551Y375338D01*
X312567Y375360D01*
X312584Y375385D01*
X312600Y375413D01*
X312616Y375440D01*
X312630Y375472D01*
Y375474D01*
X312633Y375480D01*
X312635Y375489D01*
X312641Y375501D01*
X312647Y375519D01*
X312653Y375538D01*
X312659Y375560D01*
X312667Y375585D01*
X312675Y375613D01*
X312681Y375642D01*
X312686Y375674D01*
X312692Y375707D01*
X312700Y375779D01*
X312704Y375858D01*
Y375889D01*
X312702Y375907D01*
X312700Y375926D01*
Y375948D01*
X312696Y375972D01*
X312690Y376022D01*
X312681Y376079D01*
X312667Y376136D01*
X312647Y376193D01*
Y376195D01*
X312645Y376199D01*
X312641Y376207D01*
X312637Y376217D01*
X312632Y376230D01*
X312624Y376244D01*
X312606Y376275D01*
X312584Y376311D01*
X312557Y376348D01*
X312528Y376381D01*
X312492Y376411D01*
X312490D01*
X312489Y376414D01*
X312483Y376416D01*
X312475Y376422D01*
X312455Y376434D01*
X312428Y376448D01*
X312396Y376460D01*
X312359Y376471D01*
X312320Y376479D01*
X312277Y376483D01*
X312275D01*
X312271D01*
X312265D01*
X312257Y376481D01*
X312236Y376479D01*
X312206Y376475D01*
X312175Y376465D01*
X312140Y376454D01*
X312104Y376436D01*
X312071Y376413D01*
X312069D01*
X312067Y376409D01*
X312055Y376399D01*
X312040Y376383D01*
X312020Y376358D01*
X311997Y376326D01*
X311983Y376309D01*
X311971Y376287D01*
X311957Y376266D01*
X311946Y376240D01*
X311934Y376215D01*
X311922Y376185D01*
Y376183D01*
X311920Y376179D01*
X311918Y376173D01*
X311914Y376164D01*
X311910Y376152D01*
X311904Y376136D01*
X311898Y376115D01*
X311893Y376091D01*
X311885Y376064D01*
X311875Y376032D01*
X311865Y375995D01*
X311853Y375954D01*
X311842Y375909D01*
X311830Y375858D01*
X311816Y375801D01*
X311801Y375738D01*
X311799Y375734D01*
X311797Y375723D01*
X311793Y375705D01*
X311787Y375681D01*
X311779Y375654D01*
X311769Y375621D01*
X311759Y375585D01*
X311750Y375548D01*
X311724Y375468D01*
X311699Y375387D01*
X311685Y375348D01*
X311669Y375313D01*
X311655Y375282D01*
X311642Y375252D01*
X311640Y375250D01*
X311638Y375244D01*
X311632Y375235D01*
X311624Y375223D01*
X311616Y375207D01*
X311604Y375191D01*
X311577Y375150D01*
X311544Y375107D01*
X311505Y375062D01*
X311457Y375021D01*
X311434Y375001D01*
X311408Y374984D01*
X311407D01*
X311403Y374980D01*
X311395Y374976D01*
X311383Y374970D01*
X311371Y374964D01*
X311356Y374956D01*
X311336Y374948D01*
X311316Y374940D01*
X311295Y374933D01*
X311269Y374925D01*
X311216Y374911D01*
X311158Y374901D01*
X311126Y374899D01*
X311095Y374897D01*
X311093D01*
X311087D01*
X311075D01*
X311062Y374899D01*
X311046Y374901D01*
X311026Y374903D01*
X311003Y374907D01*
X310979Y374911D01*
X310924Y374923D01*
X310866Y374942D01*
X310834Y374956D01*
X310803Y374970D01*
X310771Y374986D01*
X310740Y375005D01*
X310738Y375007D01*
X310732Y375011D01*
X310724Y375017D01*
X310713Y375025D01*
X310699Y375037D01*
X310683Y375050D01*
X310666Y375066D01*
X310646Y375086D01*
X310627Y375107D01*
X310605Y375131D01*
X310583Y375156D01*
X310564Y375184D01*
X310542Y375215D01*
X310523Y375248D01*
X310505Y375284D01*
X310487Y375321D01*
X310485Y375323D01*
X310483Y375330D01*
X310479Y375342D01*
X310474Y375358D01*
X310468Y375378D01*
X310460Y375399D01*
X310452Y375427D01*
X310444Y375456D01*
X310436Y375489D01*
X310429Y375525D01*
X310421Y375562D01*
X310415Y375603D01*
X310409Y375644D01*
X310405Y375689D01*
X310401Y375734D01*
Y375809D01*
X310403Y375828D01*
Y375854D01*
X310405Y375881D01*
X310409Y375913D01*
X310413Y375948D01*
X310417Y375985D01*
X310423Y376024D01*
X310438Y376109D01*
X310462Y376193D01*
X310476Y376234D01*
X310491Y376275D01*
X310493Y376277D01*
X310495Y376285D01*
X310501Y376295D01*
X310509Y376311D01*
X310517Y376328D01*
X310528Y376350D01*
X310542Y376371D01*
X310558Y376397D01*
X310576Y376422D01*
X310595Y376450D01*
X310619Y376477D01*
X310642Y376503D01*
X310668Y376530D01*
X310695Y376555D01*
X310726Y376581D01*
X310758Y376603D01*
X310760Y376605D01*
X310766Y376608D01*
X310775Y376614D01*
X310789Y376620D01*
X310805Y376630D01*
X310824Y376640D01*
X310848Y376650D01*
X310872Y376661D01*
X310901Y376673D01*
X310930Y376685D01*
X310964Y376695D01*
X310997Y376705D01*
X311071Y376720D01*
X311111Y376724D01*
X311152Y376728D01*
X311175Y376409D01*
X311173D01*
X311165Y376407D01*
X311152Y376405D01*
X311136Y376403D01*
X311117Y376397D01*
X311093Y376393D01*
X311069Y376385D01*
X311042Y376377D01*
X311013Y376365D01*
X310983Y376354D01*
X310954Y376340D01*
X310924Y376322D01*
X310895Y376305D01*
X310868Y376283D01*
X310840Y376260D01*
X310817Y376232D01*
X310815Y376230D01*
X310811Y376226D01*
X310805Y376217D01*
X310797Y376205D01*
X310787Y376189D01*
X310777Y376169D01*
X310766Y376148D01*
X310754Y376122D01*
X310744Y376093D01*
X310732Y376062D01*
X310722Y376024D01*
X310713Y375985D01*
X310705Y375944D01*
X310699Y375897D01*
X310695Y375848D01*
X310693Y375795D01*
Y375766D01*
X310695Y375746D01*
X310697Y375721D01*
X310699Y375693D01*
X310703Y375660D01*
X310707Y375626D01*
X310721Y375554D01*
X310728Y375519D01*
X310740Y375482D01*
X310754Y375446D01*
X310768Y375413D01*
X310785Y375381D01*
X310805Y375354D01*
X310807Y375352D01*
X310811Y375348D01*
X310817Y375342D01*
X310824Y375332D01*
X310836Y375323D01*
X310848Y375311D01*
X310864Y375299D01*
X310879Y375286D01*
X310918Y375260D01*
X310964Y375238D01*
X310989Y375229D01*
X311015Y375223D01*
X311042Y375219D01*
X311071Y375217D01*
X311073D01*
X311077D01*
X311085D01*
X311093Y375219D01*
X311105Y375221D01*
X311118Y375223D01*
X311150Y375229D01*
X311185Y375240D01*
X311222Y375258D01*
X311242Y375268D01*
X311260Y375282D01*
X311277Y375295D01*
X311295Y375313D01*
Y375315D01*
X311299Y375319D01*
X311303Y375325D01*
X311311Y375335D01*
X311318Y375348D01*
X311328Y375366D01*
X311338Y375387D01*
X311350Y375413D01*
X311363Y375444D01*
X311377Y375480D01*
X311393Y375521D01*
X311408Y375568D01*
X311424Y375619D01*
X311442Y375679D01*
X311457Y375744D01*
X311475Y375817D01*
Y375819D01*
X311477Y375821D01*
Y375826D01*
X311479Y375834D01*
X311485Y375856D01*
X311491Y375883D01*
X311499Y375915D01*
X311508Y375954D01*
X311518Y375995D01*
X311530Y376038D01*
X311556Y376130D01*
X311567Y376177D01*
X311581Y376222D01*
X311595Y376266D01*
X311608Y376307D01*
X311622Y376342D01*
X311636Y376373D01*
X311638Y376375D01*
X311640Y376383D01*
X311646Y376395D01*
X311653Y376409D01*
X311663Y376428D01*
X311675Y376448D01*
X311689Y376471D01*
X311704Y376497D01*
X311742Y376550D01*
X311785Y376603D01*
X311836Y376654D01*
X311861Y376675D01*
X311891Y376697D01*
X311893Y376699D01*
X311898Y376701D01*
X311906Y376707D01*
X311918Y376712D01*
X311932Y376722D01*
X311949Y376730D01*
X311971Y376740D01*
X311993Y376750D01*
X312018Y376759D01*
X312046Y376769D01*
X312075Y376779D01*
X312106Y376787D01*
X312175Y376799D01*
X312212Y376801D01*
X312249Y376802D01*
X312251D01*
X312259D01*
X312269D01*
X312283Y376801D01*
D02*
G37*
G36*
X312957Y374272D02*
X312196Y373980D01*
Y372928D01*
X312957Y372653D01*
Y372302D01*
X310444Y373265D01*
Y373623D01*
X312957Y374650D01*
Y374272D01*
D02*
G37*
G36*
Y370611D02*
X310444D01*
Y370944D01*
X312661D01*
Y372181D01*
X312957D01*
Y370611D01*
D02*
G37*
G36*
X310740Y368833D02*
X311520D01*
Y370009D01*
X311816D01*
Y368833D01*
X312957D01*
Y368500D01*
X310444D01*
Y370193D01*
X310740D01*
Y368833D01*
D02*
G37*
%LPC*%
G36*
X162161Y286788D02*
X162157D01*
X162149D01*
X162136D01*
X162118Y286786D01*
X162097Y286784D01*
X162071Y286780D01*
X162044Y286776D01*
X162012Y286770D01*
X161981Y286762D01*
X161948Y286754D01*
X161914Y286743D01*
X161879Y286729D01*
X161846Y286713D01*
X161812Y286694D01*
X161781Y286674D01*
X161751Y286649D01*
X161749Y286647D01*
X161746Y286643D01*
X161738Y286635D01*
X161728Y286623D01*
X161716Y286610D01*
X161705Y286594D01*
X161691Y286574D01*
X161675Y286553D01*
X161661Y286529D01*
X161648Y286502D01*
X161636Y286472D01*
X161624Y286443D01*
X161614Y286409D01*
X161607Y286374D01*
X161602Y286337D01*
X161601Y286298D01*
Y286278D01*
X161602Y286263D01*
X161604Y286245D01*
X161608Y286223D01*
X161612Y286200D01*
X161620Y286174D01*
X161628Y286147D01*
X161638Y286120D01*
X161650Y286090D01*
X161663Y286061D01*
X161681Y286029D01*
X161703Y286000D01*
X161724Y285970D01*
X161751Y285943D01*
X161753Y285941D01*
X161759Y285937D01*
X161767Y285929D01*
X161779Y285919D01*
X161795Y285910D01*
X161812Y285898D01*
X161834Y285884D01*
X161857Y285871D01*
X161885Y285857D01*
X161914Y285843D01*
X161946Y285831D01*
X161981Y285822D01*
X162018Y285812D01*
X162059Y285804D01*
X162100Y285800D01*
X162145Y285798D01*
X162147D01*
X162153D01*
X162161D01*
X162173Y285800D01*
X162187D01*
X162204Y285802D01*
X162222Y285804D01*
X162243Y285806D01*
X162291Y285814D01*
X162341Y285825D01*
X162396Y285843D01*
X162451Y285865D01*
X162453D01*
X162457Y285869D01*
X162465Y285873D01*
X162475Y285876D01*
X162487Y285884D01*
X162500Y285892D01*
X162533Y285914D01*
X162569Y285941D01*
X162606Y285972D01*
X162641Y286010D01*
X162673Y286053D01*
Y286055D01*
X162677Y286059D01*
X162679Y286065D01*
X162685Y286074D01*
X162690Y286086D01*
X162696Y286098D01*
X162710Y286131D01*
X162724Y286169D01*
X162735Y286212D01*
X162743Y286261D01*
X162747Y286310D01*
Y286317D01*
X162745Y286329D01*
Y286343D01*
X162743Y286359D01*
X162739Y286378D01*
X162733Y286402D01*
X162728Y286425D01*
X162720Y286451D01*
X162708Y286478D01*
X162696Y286506D01*
X162680Y286535D01*
X162663Y286562D01*
X162641Y286592D01*
X162618Y286619D01*
X162590Y286647D01*
X162588Y286649D01*
X162583Y286653D01*
X162575Y286660D01*
X162561Y286668D01*
X162545Y286680D01*
X162526Y286692D01*
X162504Y286703D01*
X162479Y286717D01*
X162449Y286731D01*
X162416Y286743D01*
X162381Y286754D01*
X162343Y286766D01*
X162302Y286774D01*
X162257Y286782D01*
X162210Y286786D01*
X162161Y286788D01*
D02*
G37*
G36*
X311926Y373876D02*
X311230Y373614D01*
X311226Y373612D01*
X311216Y373608D01*
X311199Y373602D01*
X311177Y373594D01*
X311150Y373584D01*
X311118Y373572D01*
X311085Y373561D01*
X311046Y373547D01*
X311007Y373533D01*
X310964Y373517D01*
X310877Y373488D01*
X310791Y373461D01*
X310748Y373447D01*
X310709Y373435D01*
X310711D01*
X310721Y373433D01*
X310732Y373429D01*
X310750Y373425D01*
X310771Y373422D01*
X310799Y373416D01*
X310828Y373408D01*
X310860Y373400D01*
X310895Y373390D01*
X310932Y373380D01*
X310973Y373371D01*
X311015Y373357D01*
X311101Y373331D01*
X311189Y373300D01*
X311926Y373024D01*
Y373876D01*
D02*
G37*
%LPD*%
D14*
X373611Y261524D02*
Y264476D01*
Y261524D02*
X379408D01*
Y264476D01*
X373611D02*
X379408D01*
X161524Y278101D02*
X164476D01*
Y283899D01*
X161524D02*
X164476D01*
X161524Y278101D02*
Y283899D01*
X304693Y291177D02*
Y300823D01*
Y291177D02*
X316307D01*
Y300823D01*
X304693D02*
X316307D01*
X327555Y246130D02*
Y249870D01*
Y246130D02*
X334445D01*
Y249870D01*
X327555D02*
X334445D01*
X300795Y351350D02*
X325205D01*
Y385650D01*
X300795D02*
X325205D01*
X300795Y351350D02*
Y385650D01*
M02*
