G04*
G04 #@! TF.GenerationSoftware,Altium Limited,Altium Designer,21.5.1 (32)*
G04*
G04 Layer_Color=65535*
%FSLAX44Y44*%
%MOMM*%
G71*
G04*
G04 #@! TF.SameCoordinates,CE61D733-3D9C-4286-B01C-F70B086857D8*
G04*
G04*
G04 #@! TF.FilePolarity,Positive*
G04*
G01*
G75*
%ADD10C,0.2500*%
%ADD11C,0.4000*%
%ADD12C,0.6000*%
%ADD13C,0.2000*%
%ADD14C,0.1000*%
%ADD15C,0.5080*%
%ADD16C,0.2540*%
%ADD17C,0.2032*%
%ADD18C,0.1524*%
%ADD19C,0.1270*%
%ADD20C,0.3810*%
G36*
X435700Y644060D02*
X445700Y634060D01*
X435700D01*
Y644060D01*
D02*
G37*
D10*
X584125Y521656D02*
G03*
X584125Y521656I-1250J0D01*
G01*
X523857Y340048D02*
G03*
X523857Y340048I-1250J0D01*
G01*
X848561Y513835D02*
G03*
X848561Y513835I-1250J0D01*
G01*
X837940Y585111D02*
G03*
X837940Y585111I-1250J0D01*
G01*
X746559Y991409D02*
G03*
X746559Y991409I-1250J0D01*
G01*
X438450Y627560D02*
G03*
X438450Y627560I-1250J0D01*
G01*
D11*
X544607Y330048D02*
G03*
X544607Y330048I-2000J0D01*
G01*
D12*
X839761Y489835D02*
G03*
X839761Y489835I-3000J0D01*
G01*
D13*
X507010Y575930D02*
G03*
X507010Y575930I-1000J0D01*
G01*
X513230Y973510D02*
G03*
X513230Y973510I-1000J0D01*
G01*
X721510Y798250D02*
G03*
X721510Y798250I-1000J0D01*
G01*
X275904Y900947D02*
Y904947D01*
X279904D01*
X315210Y904941D02*
X319210D01*
Y900941D02*
Y904941D01*
X275902Y878151D02*
X279902D01*
X275902D02*
Y882151D01*
X319193Y878157D02*
Y882157D01*
X315193Y878157D02*
X319193D01*
X1011829Y319601D02*
Y323601D01*
X1015829D01*
X1051135Y323596D02*
X1055135D01*
Y319596D02*
Y323596D01*
X1011827Y296805D02*
X1015827D01*
X1011827D02*
Y300805D01*
X1055118Y296811D02*
Y300811D01*
X1051118Y296811D02*
X1055118D01*
X933263Y438867D02*
X958663D01*
Y311866D02*
Y438867D01*
X933263Y311866D02*
Y438867D01*
Y311866D02*
X958663D01*
X989330Y388620D02*
Y896620D01*
X1040130Y388620D02*
Y896620D01*
X989330D02*
X1040130D01*
X989330Y388620D02*
X1040130D01*
X1151270Y1033790D02*
X1200770D01*
Y368290D02*
Y1033790D01*
X1151270Y368290D02*
X1200770D01*
X1151270D02*
Y1033790D01*
X1100470Y368290D02*
Y1033790D01*
Y368290D02*
X1149970D01*
Y1033790D01*
X1100470D02*
X1149970D01*
X534607Y307048D02*
X553607D01*
X534607Y338048D02*
X553607D01*
Y307048D02*
Y338048D01*
X534607Y307048D02*
Y338048D01*
X326390Y598170D02*
X377190D01*
X326390Y833120D02*
Y852170D01*
X377190D01*
Y833120D02*
Y852170D01*
Y598170D02*
Y833120D01*
X326390Y598170D02*
Y833120D01*
X638237Y326139D02*
X895237D01*
X638237D02*
Y353039D01*
X895237D01*
Y326139D02*
Y353039D01*
X665761Y499835D02*
X846761D01*
X665761Y437835D02*
X846761D01*
Y499835D01*
X665761Y437835D02*
Y499835D01*
X422910Y417874D02*
Y431874D01*
X423688Y365789D02*
Y379789D01*
X470914Y365789D02*
Y379789D01*
X470136Y391832D02*
Y405831D01*
Y417874D02*
Y431874D01*
X568750Y575000D02*
X574750D01*
X568750Y588500D02*
X574750D01*
X849390Y554611D02*
Y578611D01*
X722390D02*
X849390D01*
X722390Y554611D02*
Y578611D01*
Y554611D02*
X849390D01*
X864277Y941987D02*
X870276D01*
X864277Y915987D02*
X870276D01*
X653471Y469711D02*
Y473711D01*
X649471D02*
X653471D01*
X649477Y430420D02*
X653477D01*
Y434420D01*
X626686Y473728D02*
X630686D01*
X626686Y469728D02*
Y473728D01*
X626681Y430422D02*
Y434422D01*
Y430422D02*
X630681D01*
X898804Y969912D02*
X902804D01*
Y973913D01*
X859513Y969907D02*
Y973907D01*
Y969907D02*
X863513D01*
X902821Y992697D02*
Y996697D01*
X898821D02*
X902821D01*
X859515Y996703D02*
X863515D01*
X859515Y992703D02*
Y996703D01*
X754059Y988909D02*
X764059D01*
X754059Y957909D02*
X764059D01*
X754059D02*
Y988909D01*
X764059Y957909D02*
Y988909D01*
X934499Y607389D02*
X948500D01*
X935500Y711250D02*
X946000D01*
X899250Y585858D02*
Y622108D01*
Y585858D02*
X923250D01*
Y622108D01*
X924750Y694309D02*
Y730560D01*
X900750D02*
X924750D01*
X900750Y694309D02*
Y730560D01*
X728872Y921846D02*
X732872D01*
Y925846D01*
X689582Y921841D02*
Y925841D01*
Y921841D02*
X693582D01*
X732890Y944631D02*
Y948631D01*
X728890D02*
X732890D01*
X689584Y948637D02*
X693584D01*
X689584Y944637D02*
Y948637D01*
X903355Y758148D02*
Y762148D01*
X907355D01*
X942661Y762142D02*
X946661D01*
Y758142D02*
Y762142D01*
X903353Y735352D02*
X907353D01*
X903353D02*
Y739352D01*
X946643Y735357D02*
Y739357D01*
X942643Y735357D02*
X946643D01*
X769850Y1027565D02*
X794432D01*
X769850Y1005565D02*
X794432D01*
X422910Y391832D02*
Y405831D01*
X791649Y961731D02*
Y983732D01*
X813225Y961678D02*
Y983678D01*
X858556Y659947D02*
Y663947D01*
X862556D01*
X897862Y663941D02*
X901862D01*
Y659941D02*
Y663941D01*
X858554Y637151D02*
X862554D01*
X858554D02*
Y641151D01*
X901844Y637156D02*
Y641156D01*
X897844Y637156D02*
X901844D01*
X339128Y501337D02*
Y521837D01*
X347128Y505837D02*
Y521837D01*
X390605Y502619D02*
Y523119D01*
X398605Y507119D02*
Y523119D01*
X366091Y501334D02*
Y521834D01*
X374091Y505834D02*
Y521834D01*
X512230Y959760D02*
X525980Y973510D01*
X512230Y893510D02*
Y959760D01*
Y893510D02*
X572230D01*
Y973510D01*
X525980D02*
X572230D01*
X720510Y784500D02*
X734260Y798250D01*
X720510Y718250D02*
Y784500D01*
Y718250D02*
X780510D01*
Y798250D01*
X734260D02*
X780510D01*
X681332Y1000805D02*
X682812D01*
X681332Y992806D02*
X682812D01*
X657733Y1000805D02*
X659213D01*
X657733Y992806D02*
X659213D01*
X435700Y644060D02*
X445700Y634060D01*
X435700D02*
X665699D01*
X435700Y864060D02*
X665699D01*
X435700Y634060D02*
Y864060D01*
X665699Y634060D02*
Y864060D01*
X685949Y648863D02*
Y659364D01*
X699505Y648810D02*
Y659310D01*
D14*
X675573Y1002806D02*
G03*
X675573Y1002806I-500J0D01*
G01*
X651973D02*
G03*
X651973Y1002806I-500J0D01*
G01*
X369839Y340092D02*
Y332594D01*
X373587D01*
X374837Y333844D01*
Y338842D01*
X373587Y340092D01*
X369839D01*
X381085Y332594D02*
X378586D01*
X377336Y333844D01*
Y336343D01*
X378586Y337592D01*
X381085D01*
X382335Y336343D01*
Y335093D01*
X377336D01*
X384834Y332594D02*
X388583D01*
X389832Y333844D01*
X388583Y335093D01*
X386083D01*
X384834Y336343D01*
X386083Y337592D01*
X389832D01*
X392332Y332594D02*
X394831D01*
X393581D01*
Y337592D01*
X392332D01*
X401079Y330095D02*
X402328D01*
X403578Y331344D01*
Y337592D01*
X399829D01*
X398579Y336343D01*
Y333844D01*
X399829Y332594D01*
X403578D01*
X406077D02*
Y337592D01*
X409826D01*
X411076Y336343D01*
Y332594D01*
X417323D02*
X414824D01*
X413575Y333844D01*
Y336343D01*
X414824Y337592D01*
X417323D01*
X418573Y336343D01*
Y335093D01*
X413575D01*
X426071Y340092D02*
Y332594D01*
X422322D01*
X421072Y333844D01*
Y336343D01*
X422322Y337592D01*
X426071D01*
X436068Y340092D02*
Y332594D01*
X439816D01*
X441066Y333844D01*
Y335093D01*
Y336343D01*
X439816Y337592D01*
X436068D01*
X443565D02*
Y333844D01*
X444815Y332594D01*
X448563D01*
Y331344D01*
X447314Y330095D01*
X446064D01*
X448563Y332594D02*
Y337592D01*
X369839Y318698D02*
Y326195D01*
X372338Y323696D01*
X374837Y326195D01*
Y318698D01*
X377336D02*
X379836D01*
X378586D01*
Y323696D01*
X377336D01*
X388583D02*
X384834D01*
X383584Y322447D01*
Y319947D01*
X384834Y318698D01*
X388583D01*
X391082Y326195D02*
Y318698D01*
Y322447D01*
X392332Y323696D01*
X394831D01*
X396080Y322447D01*
Y318698D01*
X399829Y323696D02*
X402328D01*
X403578Y322447D01*
Y318698D01*
X399829D01*
X398579Y319947D01*
X399829Y321197D01*
X403578D01*
X409826Y318698D02*
X407327D01*
X406077Y319947D01*
Y322447D01*
X407327Y323696D01*
X409826D01*
X411076Y322447D01*
Y321197D01*
X406077D01*
X413575Y318698D02*
X416074D01*
X414824D01*
Y326195D01*
X413575D01*
X427320D02*
Y318698D01*
X432319D01*
X434818D02*
X437317D01*
X436068D01*
Y323696D01*
X434818D01*
X441066Y318698D02*
Y323696D01*
X444815D01*
X446064Y322447D01*
Y318698D01*
X453562Y326195D02*
Y318698D01*
X449813D01*
X448563Y319947D01*
Y322447D01*
X449813Y323696D01*
X453562D01*
X459810Y318698D02*
X457311D01*
X456061Y319947D01*
Y322447D01*
X457311Y323696D01*
X459810D01*
X461059Y322447D01*
Y321197D01*
X456061D01*
X463559Y323696D02*
Y318698D01*
Y321197D01*
X464808Y322447D01*
X466058Y323696D01*
X467308D01*
X369839Y307301D02*
Y314798D01*
X373587D01*
X374837Y313549D01*
Y311049D01*
X373587Y309800D01*
X369839D01*
X378586Y312299D02*
X381085D01*
X382335Y311049D01*
Y307301D01*
X378586D01*
X377336Y308550D01*
X378586Y309800D01*
X382335D01*
X384834Y307301D02*
X387333D01*
X386083D01*
Y314798D01*
X384834D01*
X403578D02*
X398579D01*
Y311049D01*
X401079D01*
X398579D01*
Y307301D01*
X407327D02*
X409826D01*
X411076Y308550D01*
Y311049D01*
X409826Y312299D01*
X407327D01*
X406077Y311049D01*
Y308550D01*
X407327Y307301D01*
X413575Y312299D02*
Y307301D01*
Y309800D01*
X414824Y311049D01*
X416074Y312299D01*
X417323D01*
X421072D02*
Y307301D01*
Y309800D01*
X422322Y311049D01*
X423572Y312299D01*
X424821D01*
X436068Y307301D02*
Y312299D01*
X438567Y314798D01*
X441066Y312299D01*
Y307301D01*
Y311049D01*
X436068D01*
X443565Y312299D02*
Y308550D01*
X444815Y307301D01*
X448563D01*
Y312299D01*
X451063Y307301D02*
X454812D01*
X456061Y308550D01*
X454812Y309800D01*
X452312D01*
X451063Y311049D01*
X452312Y312299D01*
X456061D01*
X459810Y313549D02*
Y312299D01*
X458560D01*
X461059D01*
X459810D01*
Y308550D01*
X461059Y307301D01*
X464808D02*
Y312299D01*
X468557D01*
X469807Y311049D01*
Y307301D01*
X476055D02*
X473555D01*
X472306Y308550D01*
Y311049D01*
X473555Y312299D01*
X476055D01*
X477304Y311049D01*
Y309800D01*
X472306D01*
X479804Y307301D02*
X483552D01*
X484802Y308550D01*
X483552Y309800D01*
X481053D01*
X479804Y311049D01*
X481053Y312299D01*
X484802D01*
X374837Y303401D02*
X369839D01*
Y295903D01*
X374837D01*
X369839Y299652D02*
X372338D01*
X377336Y295903D02*
X379836D01*
X378586D01*
Y303401D01*
X377336D01*
X383584Y295903D02*
X386083D01*
X384834D01*
Y300902D01*
X383584D01*
X391082Y295903D02*
X393581D01*
X394831Y297153D01*
Y299652D01*
X393581Y300902D01*
X391082D01*
X389832Y299652D01*
Y297153D01*
X391082Y295903D01*
X404827Y303401D02*
Y295903D01*
X407327Y298403D01*
X409826Y295903D01*
Y303401D01*
X413575Y300902D02*
X416074D01*
X417323Y299652D01*
Y295903D01*
X413575D01*
X412325Y297153D01*
X413575Y298403D01*
X417323D01*
X419823Y295903D02*
Y300902D01*
X423572D01*
X424821Y299652D01*
Y295903D01*
X427320D02*
Y300902D01*
X431069D01*
X432319Y299652D01*
Y295903D01*
X438567D02*
X436068D01*
X434818Y297153D01*
Y299652D01*
X436068Y300902D01*
X438567D01*
X439816Y299652D01*
Y298403D01*
X434818D01*
X442315Y300902D02*
Y295903D01*
Y298403D01*
X443565Y299652D01*
X444815Y300902D01*
X446064D01*
X272165Y916099D02*
X277164D01*
X274664D01*
Y908602D01*
X283412D02*
Y916099D01*
X279663Y912351D01*
X284661D01*
X297157Y908602D02*
X294658Y911101D01*
Y913600D01*
X297157Y916099D01*
X305904Y914850D02*
X304655Y916099D01*
X302155D01*
X300906Y914850D01*
Y909852D01*
X302155Y908602D01*
X304655D01*
X305904Y909852D01*
Y912351D01*
X303405D01*
X308403Y908602D02*
Y916099D01*
X313402Y908602D01*
Y916099D01*
X315901D02*
Y908602D01*
X319650D01*
X320900Y909852D01*
Y914850D01*
X319650Y916099D01*
X315901D01*
X323399Y908602D02*
X325898Y911101D01*
Y913600D01*
X323399Y916099D01*
X1005053Y336173D02*
X1010051D01*
X1007552D01*
Y328676D01*
X1017549Y336173D02*
X1012550D01*
Y332425D01*
X1015049Y333674D01*
X1016299D01*
X1017549Y332425D01*
Y329925D01*
X1016299Y328676D01*
X1013800D01*
X1012550Y329925D01*
X1030045Y328676D02*
X1027545Y331175D01*
Y333674D01*
X1030045Y336173D01*
X1038792Y334924D02*
X1037542Y336173D01*
X1035043D01*
X1033793Y334924D01*
Y329925D01*
X1035043Y328676D01*
X1037542D01*
X1038792Y329925D01*
Y332425D01*
X1036293D01*
X1041291Y328676D02*
Y336173D01*
X1046289Y328676D01*
Y336173D01*
X1048789D02*
Y328676D01*
X1052537D01*
X1053787Y329925D01*
Y334924D01*
X1052537Y336173D01*
X1048789D01*
X1056286Y328676D02*
X1058785Y331175D01*
Y333674D01*
X1056286Y336173D01*
X411618Y443622D02*
X410452Y444788D01*
X408119D01*
X406953Y443622D01*
Y442455D01*
X408119Y441289D01*
X410452D01*
X411618Y440123D01*
Y438957D01*
X410452Y437790D01*
X408119D01*
X406953Y438957D01*
X413951Y437790D02*
Y444788D01*
X417449D01*
X418616Y443622D01*
Y441289D01*
X417449Y440123D01*
X413951D01*
X420948Y444788D02*
X423281D01*
X422115D01*
Y437790D01*
X420948D01*
X423281D01*
X433778D02*
Y444788D01*
X437276D01*
X438443Y443622D01*
Y441289D01*
X437276Y440123D01*
X433778D01*
X440775Y442455D02*
Y438957D01*
X441942Y437790D01*
X445440D01*
Y442455D01*
X447773Y437790D02*
X450106D01*
X448939D01*
Y444788D01*
X447773D01*
X453605Y437790D02*
X455937D01*
X454771D01*
Y444788D01*
X453605D01*
X459436Y441289D02*
X464101D01*
X466434Y444788D02*
Y438957D01*
X467600Y437790D01*
X469933D01*
X471099Y438957D01*
Y444788D01*
X473432Y435458D02*
Y442455D01*
X476930D01*
X478097Y441289D01*
Y438957D01*
X476930Y437790D01*
X473432D01*
X480429D02*
X483928D01*
X485094Y438957D01*
X483928Y440123D01*
X481595D01*
X480429Y441289D01*
X481595Y442455D01*
X485094D01*
X334502Y538083D02*
X329503D01*
Y534751D01*
X334502Y529753D02*
Y533085D01*
X329503D01*
Y529753D01*
X332002Y533085D02*
Y531419D01*
X334502Y528087D02*
X329503D01*
Y525587D01*
X330336Y524754D01*
X333669D01*
X334502Y525587D01*
Y528087D01*
X328670Y523088D02*
Y519756D01*
X334502Y514757D02*
Y518090D01*
X332002D01*
Y516424D01*
Y518090D01*
X329503D01*
Y513091D02*
X334502D01*
Y510592D01*
X333669Y509759D01*
X332002D01*
X331169Y510592D01*
Y513091D01*
X333669Y504761D02*
X334502Y505594D01*
Y507260D01*
X333669Y508093D01*
X330336D01*
X329503Y507260D01*
Y505594D01*
X330336Y504761D01*
X332002D01*
Y506427D01*
X329503Y503095D02*
X332836D01*
X334502Y501429D01*
X332836Y499762D01*
X329503D01*
X332002D01*
Y503095D01*
X328670Y498096D02*
Y494764D01*
X333669Y493098D02*
X334502Y492265D01*
Y490599D01*
X333669Y489766D01*
X332836D01*
X332002Y490599D01*
Y491432D01*
Y490599D01*
X331169Y489766D01*
X330336D01*
X329503Y490599D01*
Y492265D01*
X330336Y493098D01*
X362397Y538390D02*
X357398D01*
Y535057D01*
X362397Y530059D02*
Y533391D01*
X357398D01*
Y530059D01*
X359898Y533391D02*
Y531725D01*
X362397Y528393D02*
X357398D01*
Y525894D01*
X358232Y525061D01*
X361564D01*
X362397Y525894D01*
Y528393D01*
X356566Y523395D02*
Y520062D01*
X362397Y515064D02*
Y518396D01*
X359898D01*
Y516730D01*
Y518396D01*
X357398D01*
Y513398D02*
X362397D01*
Y510899D01*
X361564Y510066D01*
X359898D01*
X359065Y510899D01*
Y513398D01*
X361564Y505067D02*
X362397Y505900D01*
Y507566D01*
X361564Y508400D01*
X358232D01*
X357398Y507566D01*
Y505900D01*
X358232Y505067D01*
X359898D01*
Y506734D01*
X357398Y503401D02*
X360731D01*
X362397Y501735D01*
X360731Y500069D01*
X357398D01*
X359898D01*
Y503401D01*
X356566Y498403D02*
Y495071D01*
X357398Y490072D02*
Y493405D01*
X360731Y490072D01*
X361564D01*
X362397Y490905D01*
Y492571D01*
X361564Y493405D01*
X386920Y538476D02*
X381922D01*
Y535144D01*
X386920Y530146D02*
Y533478D01*
X381922D01*
Y530146D01*
X384421Y533478D02*
Y531812D01*
X386920Y528480D02*
X381922D01*
Y525980D01*
X382755Y525147D01*
X386087D01*
X386920Y525980D01*
Y528480D01*
X381089Y523481D02*
Y520149D01*
X386920Y515151D02*
Y518483D01*
X384421D01*
Y516817D01*
Y518483D01*
X381922D01*
Y513484D02*
X386920D01*
Y510985D01*
X386087Y510152D01*
X384421D01*
X383588Y510985D01*
Y513484D01*
X386087Y505154D02*
X386920Y505987D01*
Y507653D01*
X386087Y508486D01*
X382755D01*
X381922Y507653D01*
Y505987D01*
X382755Y505154D01*
X384421D01*
Y506820D01*
X381922Y503488D02*
X385254D01*
X386920Y501822D01*
X385254Y500155D01*
X381922D01*
X384421D01*
Y503488D01*
X381089Y498489D02*
Y495157D01*
X381922Y493491D02*
Y491825D01*
Y492658D01*
X386920D01*
X386087Y493491D01*
X896548Y724079D02*
X889550D01*
Y719414D01*
X896548Y712416D02*
Y717081D01*
X889550D01*
Y712416D01*
X893049Y717081D02*
Y714749D01*
X896548Y710083D02*
X889550D01*
Y706585D01*
X890717Y705418D01*
X895382D01*
X896548Y706585D01*
Y710083D01*
X889550Y698420D02*
Y703086D01*
X894216Y698420D01*
X895382D01*
X896548Y699587D01*
Y701919D01*
X895382Y703086D01*
X896265Y622551D02*
Y627216D01*
X892766D01*
X893933Y624883D01*
Y623717D01*
X892766Y622551D01*
X890434D01*
X889268Y623717D01*
Y626049D01*
X890434Y627216D01*
X896265Y620218D02*
X891600D01*
X889268Y617886D01*
X891600Y615553D01*
X896265D01*
Y606223D02*
X889268D01*
Y601557D01*
X896265Y594560D02*
Y599225D01*
X889268D01*
Y594560D01*
X892766Y599225D02*
Y596892D01*
X896265Y592227D02*
X889268D01*
Y588728D01*
X890434Y587562D01*
X895099D01*
X896265Y588728D01*
Y592227D01*
X855020Y1008288D02*
X860018D01*
X857519D01*
Y1000790D01*
X867516Y1008288D02*
X865016Y1007038D01*
X862517Y1004539D01*
Y1002039D01*
X863767Y1000790D01*
X866266D01*
X867516Y1002039D01*
Y1003289D01*
X866266Y1004539D01*
X862517D01*
X880012Y1000790D02*
X877512Y1003289D01*
Y1005788D01*
X880012Y1008288D01*
X888759Y1007038D02*
X887509Y1008288D01*
X885010D01*
X883760Y1007038D01*
Y1002039D01*
X885010Y1000790D01*
X887509D01*
X888759Y1002039D01*
Y1004539D01*
X886260D01*
X891258Y1000790D02*
Y1008288D01*
X896256Y1000790D01*
Y1008288D01*
X898756D02*
Y1000790D01*
X902504D01*
X903754Y1002039D01*
Y1007038D01*
X902504Y1008288D01*
X898756D01*
X906253Y1000790D02*
X908752Y1003289D01*
Y1005788D01*
X906253Y1008288D01*
X681236Y959251D02*
X686234D01*
X683735D01*
Y951753D01*
X688733Y958001D02*
X689983Y959251D01*
X692482D01*
X693732Y958001D01*
Y956751D01*
X692482Y955502D01*
X691233D01*
X692482D01*
X693732Y954252D01*
Y953003D01*
X692482Y951753D01*
X689983D01*
X688733Y953003D01*
X706228Y951753D02*
X703729Y954252D01*
Y956751D01*
X706228Y959251D01*
X709977Y951753D02*
X712476D01*
X711226D01*
Y959251D01*
X709977Y958001D01*
X716225Y951753D02*
Y953003D01*
X717474D01*
Y951753D01*
X716225D01*
X727471Y959251D02*
X722473D01*
Y955502D01*
X724972Y956751D01*
X726221D01*
X727471Y955502D01*
Y953003D01*
X726221Y951753D01*
X723722D01*
X722473Y953003D01*
X729970Y959251D02*
Y954252D01*
X732469Y951753D01*
X734969Y954252D01*
Y959251D01*
X737468Y951753D02*
X739967Y954252D01*
Y956751D01*
X737468Y959251D01*
X857261Y674405D02*
X862259D01*
X859760D01*
Y666907D01*
X869757D02*
X864758D01*
X869757Y671906D01*
Y673155D01*
X868507Y674405D01*
X866008D01*
X864758Y673155D01*
X882253Y666907D02*
X879754Y669407D01*
Y671906D01*
X882253Y674405D01*
X891000D02*
X886002D01*
Y670656D01*
X888501Y671906D01*
X889750D01*
X891000Y670656D01*
Y668157D01*
X889750Y666907D01*
X887251D01*
X886002Y668157D01*
X893499Y674405D02*
Y669407D01*
X895998Y666907D01*
X898498Y669407D01*
Y674405D01*
X900997Y666907D02*
X903496Y669407D01*
Y671906D01*
X900997Y674405D01*
X895384Y773172D02*
X900383D01*
X897884D01*
Y765674D01*
X902882D02*
X905381D01*
X904132D01*
Y773172D01*
X902882Y771922D01*
X919127Y765674D02*
X916628Y768174D01*
Y770673D01*
X919127Y773172D01*
X922876Y771922D02*
X924125Y773172D01*
X926624D01*
X927874Y771922D01*
Y770673D01*
X926624Y769423D01*
X925375D01*
X926624D01*
X927874Y768174D01*
Y766924D01*
X926624Y765674D01*
X924125D01*
X922876Y766924D01*
X930373Y765674D02*
Y766924D01*
X931623D01*
Y765674D01*
X930373D01*
X936621Y771922D02*
X937871Y773172D01*
X940370D01*
X941620Y771922D01*
Y770673D01*
X940370Y769423D01*
X939120D01*
X940370D01*
X941620Y768174D01*
Y766924D01*
X940370Y765674D01*
X937871D01*
X936621Y766924D01*
X944119Y773172D02*
Y768174D01*
X946618Y765674D01*
X949117Y768174D01*
Y773172D01*
X951616Y765674D02*
X954116Y768174D01*
Y770673D01*
X951616Y773172D01*
X746059Y995062D02*
X748392D01*
X747225D01*
Y1002059D01*
X746059Y1000893D01*
X751890Y995062D02*
Y996228D01*
X753057D01*
Y995062D01*
X751890D01*
X762387Y1002059D02*
X757722D01*
Y998560D01*
X760054Y999727D01*
X761221D01*
X762387Y998560D01*
Y996228D01*
X761221Y995062D01*
X758888D01*
X757722Y996228D01*
X764720Y1002059D02*
Y997394D01*
X767052Y995062D01*
X769385Y997394D01*
Y1002059D01*
X783380Y1000893D02*
X782214Y1002059D01*
X779882D01*
X778715Y1000893D01*
Y999727D01*
X779882Y998560D01*
X782214D01*
X783380Y997394D01*
Y996228D01*
X782214Y995062D01*
X779882D01*
X778715Y996228D01*
X785713Y999727D02*
Y996228D01*
X786879Y995062D01*
X790378D01*
Y999727D01*
X792711Y992729D02*
Y999727D01*
X796210D01*
X797376Y998560D01*
Y996228D01*
X796210Y995062D01*
X792711D01*
X799708Y992729D02*
Y999727D01*
X803207D01*
X804374Y998560D01*
Y996228D01*
X803207Y995062D01*
X799708D01*
X806706D02*
X809039D01*
X807872D01*
Y1002059D01*
X806706D01*
X812538Y999727D02*
Y996228D01*
X813704Y995062D01*
X817203D01*
Y993895D01*
X816037Y992729D01*
X814870D01*
X817203Y995062D02*
Y999727D01*
D15*
X377416Y1026919D02*
G03*
X390806Y1006619I36480J9497D01*
G01*
X402616Y1075690D02*
G03*
X382028Y1061922I9497J-36480D01*
G01*
X449606Y1049020D02*
G03*
X435838Y1069608I-36480J-9497D01*
G01*
X422273Y1002380D02*
G03*
X443090Y1016454I-9497J36480D01*
G01*
X387135Y1038225D02*
G03*
X387135Y1038225I-9919J0D01*
G01*
X422695Y1075690D02*
G03*
X422695Y1075690I-9919J0D01*
G01*
Y1000760D02*
G03*
X422695Y1000760I-9919J0D01*
G01*
X458255Y1038860D02*
G03*
X458255Y1038860I-9919J0D01*
G01*
X480928Y1079918D02*
X477543Y1083303D01*
X470772D01*
X467386Y1079918D01*
Y1066376D01*
X470772Y1062990D01*
X477543D01*
X480928Y1066376D01*
X487699Y1083303D02*
Y1062990D01*
Y1073147D01*
X501242D01*
Y1083303D01*
Y1062990D01*
X521555Y1083303D02*
X508013D01*
Y1062990D01*
X521555D01*
X508013Y1073147D02*
X514784D01*
X541869Y1079918D02*
X538483Y1083303D01*
X531712D01*
X528326Y1079918D01*
Y1076532D01*
X531712Y1073147D01*
X538483D01*
X541869Y1069761D01*
Y1066376D01*
X538483Y1062990D01*
X531712D01*
X528326Y1066376D01*
X562182Y1079918D02*
X558796Y1083303D01*
X552025D01*
X548640Y1079918D01*
Y1076532D01*
X552025Y1073147D01*
X558796D01*
X562182Y1069761D01*
Y1066376D01*
X558796Y1062990D01*
X552025D01*
X548640Y1066376D01*
X599423Y1083303D02*
X592652D01*
X589267Y1079918D01*
Y1066376D01*
X592652Y1062990D01*
X599423D01*
X602809Y1066376D01*
Y1079918D01*
X599423Y1083303D01*
X609580D02*
Y1062990D01*
X619737D01*
X623122Y1066376D01*
Y1069761D01*
X619737Y1073147D01*
X609580D01*
X619737D01*
X623122Y1076532D01*
Y1079918D01*
X619737Y1083303D01*
X609580D01*
X643436Y1079918D02*
X640050Y1083303D01*
X633279D01*
X629893Y1079918D01*
Y1066376D01*
X633279Y1062990D01*
X640050D01*
X643436Y1066376D01*
X598502Y897839D02*
X581574D01*
Y885143D01*
X590038D01*
X581574D01*
Y872447D01*
X606965D02*
Y897839D01*
X619661D01*
X623893Y893607D01*
Y885143D01*
X619661Y880911D01*
X606965D01*
X649285Y893607D02*
X645053Y897839D01*
X636589D01*
X632357Y893607D01*
Y876679D01*
X636589Y872447D01*
X645053D01*
X649285Y876679D01*
Y885143D01*
X640821D01*
X657749Y872447D02*
Y889375D01*
X666213Y897839D01*
X674677Y889375D01*
Y872447D01*
Y885143D01*
X657749D01*
D16*
X522803Y504488D02*
Y514645D01*
X515186D01*
Y509566D01*
Y514645D01*
X507568D01*
X522803Y499410D02*
X507568D01*
Y489253D01*
Y484175D02*
X517725D01*
X522803Y479096D01*
X517725Y474018D01*
X507568D01*
X515186D01*
Y484175D01*
X520264Y458783D02*
X522803Y461322D01*
Y466400D01*
X520264Y468940D01*
X517725D01*
X515186Y466400D01*
Y461322D01*
X512647Y458783D01*
X510108D01*
X507568Y461322D01*
Y466400D01*
X510108Y468940D01*
X522803Y453705D02*
X507568D01*
X515186D01*
Y443548D01*
X522803D01*
X507568D01*
X1074775Y1031250D02*
X1090010D01*
Y1023633D01*
X1087471Y1021093D01*
X1082393D01*
X1079853Y1023633D01*
Y1031250D01*
X1087471Y1005858D02*
X1090010Y1008398D01*
Y1013476D01*
X1087471Y1016015D01*
X1077314D01*
X1074775Y1013476D01*
Y1008398D01*
X1077314Y1005858D01*
X1074775Y1000780D02*
Y995702D01*
Y998241D01*
X1090010D01*
X1087471Y1000780D01*
Y988084D02*
X1090010Y985545D01*
Y980467D01*
X1087471Y977927D01*
X1077314D01*
X1074775Y980467D01*
Y985545D01*
X1077314Y988084D01*
X1087471D01*
X1074775Y965231D02*
X1090010D01*
X1082393Y972849D01*
Y962692D01*
X911787Y439946D02*
X927022D01*
Y432328D01*
X924483Y429789D01*
X919404D01*
X916865Y432328D01*
Y439946D01*
X927022Y424711D02*
Y419632D01*
Y422172D01*
X911787D01*
Y424711D01*
Y419632D01*
X924483Y401858D02*
X927022Y404397D01*
Y409476D01*
X924483Y412015D01*
X914326D01*
X911787Y409476D01*
Y404397D01*
X914326Y401858D01*
X919404Y396780D02*
Y386623D01*
X927022Y381545D02*
X911787D01*
X916865D01*
X927022Y371388D01*
X919404Y379006D01*
X911787Y371388D01*
Y366310D02*
Y361231D01*
Y363770D01*
X921944D01*
Y366310D01*
X924483Y351075D02*
X921944D01*
Y353614D01*
Y348535D01*
Y351075D01*
X914326D01*
X911787Y348535D01*
X981237Y884559D02*
X983776Y887098D01*
Y892176D01*
X981237Y894715D01*
X971080D01*
X968541Y892176D01*
Y887098D01*
X971080Y884559D01*
X976159D01*
Y889637D01*
X968541Y879480D02*
X983776D01*
Y871863D01*
X981237Y869324D01*
X976159D01*
X973620Y871863D01*
Y879480D01*
X983776Y864245D02*
Y859167D01*
Y861706D01*
X968541D01*
Y864245D01*
Y859167D01*
X983776Y843932D02*
Y849010D01*
X981237Y851549D01*
X971080D01*
X968541Y849010D01*
Y843932D01*
X971080Y841393D01*
X981237D01*
X983776Y843932D01*
X1161539Y1059175D02*
X1156460D01*
X1158999D01*
Y1046479D01*
X1156460Y1043940D01*
X1153921D01*
X1151382Y1046479D01*
X1166617Y1043940D02*
X1171695D01*
X1169156D01*
Y1059175D01*
X1166617Y1056636D01*
X1110739Y1059175D02*
X1105660D01*
X1108199D01*
Y1046479D01*
X1105660Y1043940D01*
X1103121D01*
X1100582Y1046479D01*
X1125974Y1043940D02*
X1115817D01*
X1125974Y1054097D01*
Y1056636D01*
X1123435Y1059175D01*
X1118356D01*
X1115817Y1056636D01*
X514604Y365501D02*
Y352805D01*
X517143Y350266D01*
X522221D01*
X524761Y352805D01*
Y365501D01*
X539996Y350266D02*
X529839D01*
X539996Y360423D01*
Y362962D01*
X537457Y365501D01*
X532378D01*
X529839Y362962D01*
X469926Y1051558D02*
Y1046480D01*
Y1049019D01*
X471196Y1050289D01*
X472465Y1051558D01*
X473735D01*
X481352Y1046480D02*
X478813D01*
X477543Y1047750D01*
Y1050289D01*
X478813Y1051558D01*
X481352D01*
X482622Y1050289D01*
Y1049019D01*
X477543D01*
X485161Y1051558D02*
X487700Y1046480D01*
X490239Y1051558D01*
X492779Y1046480D02*
Y1047750D01*
X494048D01*
Y1046480D01*
X492779D01*
X506744Y1052828D02*
X508014Y1054098D01*
X510553D01*
X511822Y1052828D01*
Y1047750D01*
X510553Y1046480D01*
X508014D01*
X506744Y1047750D01*
Y1052828D01*
X622266Y462325D02*
Y452169D01*
Y457247D01*
X607031D01*
X622266Y447090D02*
Y436934D01*
X619727D01*
X609571Y447090D01*
X607031D01*
X317623Y839502D02*
X320162Y842042D01*
Y847120D01*
X317623Y849659D01*
X307466D01*
X304927Y847120D01*
Y842042D01*
X307466Y839502D01*
X320162Y826806D02*
Y831885D01*
X317623Y834424D01*
X307466D01*
X304927Y831885D01*
Y826806D01*
X307466Y824267D01*
X317623D01*
X320162Y826806D01*
X304927Y819189D02*
X320162D01*
X315084Y814111D01*
X320162Y809032D01*
X304927D01*
X312544Y803954D02*
Y793797D01*
X320162Y788719D02*
X304927D01*
X312544D01*
Y778562D01*
X320162D01*
X304927D01*
Y765866D02*
Y770945D01*
X307466Y773484D01*
X312544D01*
X315084Y770945D01*
Y765866D01*
X312544Y763327D01*
X310005D01*
Y773484D01*
X315084Y755710D02*
Y750631D01*
X312544Y748092D01*
X304927D01*
Y755710D01*
X307466Y758249D01*
X310005Y755710D01*
Y748092D01*
X320162Y732857D02*
X304927D01*
Y740474D01*
X307466Y743014D01*
X312544D01*
X315084Y740474D01*
Y732857D01*
X304927Y720161D02*
Y725239D01*
X307466Y727778D01*
X312544D01*
X315084Y725239D01*
Y720161D01*
X312544Y717622D01*
X310005D01*
Y727778D01*
X315084Y712543D02*
X304927D01*
X310005D01*
X312544Y710004D01*
X315084Y707465D01*
Y704926D01*
X732552Y820720D02*
X722395D01*
Y813102D01*
X727474D01*
X722395D01*
Y805485D01*
X737630D02*
Y820720D01*
X745248D01*
X747787Y818181D01*
Y813102D01*
X745248Y810563D01*
X737630D01*
X742709D02*
X747787Y805485D01*
X752865D02*
Y815642D01*
X757944Y820720D01*
X763022Y815642D01*
Y805485D01*
Y813102D01*
X752865D01*
X768101Y805485D02*
Y820720D01*
X773179Y815642D01*
X778257Y820720D01*
Y805485D01*
X526477Y993680D02*
X523938Y996219D01*
X518859D01*
X516320Y993680D01*
Y991141D01*
X518859Y988602D01*
X523938D01*
X526477Y986062D01*
Y983523D01*
X523938Y980984D01*
X518859D01*
X516320Y983523D01*
X531555Y980984D02*
Y996219D01*
X539173D01*
X541712Y993680D01*
Y988602D01*
X539173Y986062D01*
X531555D01*
X536634D02*
X541712Y980984D01*
X546790D02*
Y991141D01*
X551869Y996219D01*
X556947Y991141D01*
Y980984D01*
Y988602D01*
X546790D01*
X562025Y980984D02*
Y996219D01*
X567104Y991141D01*
X572182Y996219D01*
Y980984D01*
X633785Y343363D02*
Y348441D01*
Y345902D01*
X621090D01*
X618550Y348441D01*
Y350980D01*
X621090Y353520D01*
X631246Y338284D02*
X633785Y335745D01*
Y330667D01*
X631246Y328128D01*
X628707D01*
X626168Y330667D01*
Y333206D01*
Y330667D01*
X623629Y328128D01*
X621090D01*
X618550Y330667D01*
Y335745D01*
X621090Y338284D01*
D17*
X996950Y909320D02*
Y905088D01*
Y907204D01*
X1009646D01*
X1007530Y909320D01*
X1022350Y900856D02*
Y909320D01*
X1030814Y900856D01*
X1032930D01*
X1035046Y902972D01*
Y907204D01*
X1032930Y909320D01*
X1022350Y374652D02*
X1035046D01*
X1028698Y381000D01*
Y372536D01*
X1032930Y368304D02*
X1035046Y366188D01*
Y361956D01*
X1032930Y359840D01*
X1024466D01*
X1022350Y361956D01*
Y366188D01*
X1024466Y368304D01*
X1032930D01*
X1007530Y381000D02*
X1009646Y378884D01*
Y374652D01*
X1007530Y372536D01*
X1005414D01*
X1003298Y374652D01*
Y376768D01*
Y374652D01*
X1001182Y372536D01*
X999066D01*
X996950Y374652D01*
Y378884D01*
X999066Y381000D01*
Y368304D02*
X996950Y366188D01*
Y361956D01*
X999066Y359840D01*
X1007530D01*
X1009646Y361956D01*
Y366188D01*
X1007530Y368304D01*
X1005414D01*
X1003298Y366188D01*
Y359840D01*
X359410Y587166D02*
Y595630D01*
X367874Y587166D01*
X369990D01*
X372106Y589282D01*
Y593514D01*
X369990Y595630D01*
Y582934D02*
X372106Y580818D01*
Y576586D01*
X369990Y574470D01*
X361526D01*
X359410Y576586D01*
Y580818D01*
X361526Y582934D01*
X369990D01*
X334010Y595630D02*
Y591398D01*
Y593514D01*
X346706D01*
X344590Y595630D01*
X336126Y585050D02*
X334010Y582934D01*
Y578702D01*
X336126Y576586D01*
X344590D01*
X346706Y578702D01*
Y582934D01*
X344590Y585050D01*
X342474D01*
X340358Y582934D01*
Y576586D01*
X334010Y864870D02*
Y860638D01*
Y862754D01*
X346706D01*
X344590Y864870D01*
X359410Y856406D02*
Y864870D01*
X367874Y856406D01*
X369990D01*
X372106Y858522D01*
Y862754D01*
X369990Y864870D01*
D18*
X874737Y356589D02*
X878122D01*
X876430D01*
Y366746D01*
X874737Y365053D01*
X883201D02*
X884894Y366746D01*
X888279D01*
X889972Y365053D01*
Y358282D01*
X888279Y356589D01*
X884894D01*
X883201Y358282D01*
Y365053D01*
X651237Y356589D02*
X654622D01*
X652930D01*
Y366746D01*
X651237Y365053D01*
D19*
X502404Y604931D02*
X497325D01*
Y601123D01*
X499865D01*
X497325D01*
Y597314D01*
X504943D02*
Y604931D01*
X508752D01*
X510021Y603662D01*
Y601123D01*
X508752Y599853D01*
X504943D01*
X517639Y603662D02*
X516369Y604931D01*
X513830D01*
X512560Y603662D01*
Y598583D01*
X513830Y597314D01*
X516369D01*
X517639Y598583D01*
Y601123D01*
X515100D01*
X520178Y597314D02*
Y602392D01*
X522717Y604931D01*
X525256Y602392D01*
Y597314D01*
Y601123D01*
X520178D01*
X527795D02*
X532874D01*
X540491Y603662D02*
X539222Y604931D01*
X536683D01*
X535413Y603662D01*
Y598583D01*
X536683Y597314D01*
X539222D01*
X540491Y598583D01*
X543031Y604931D02*
Y597314D01*
X548109D01*
X550648Y604931D02*
Y597314D01*
Y599853D01*
X555726Y604931D01*
X551918Y601123D01*
X555726Y597314D01*
X723750Y587153D02*
X727136Y582075D01*
Y587153D02*
X723750Y582075D01*
X728829D02*
X730521D01*
X729675D01*
Y587153D01*
X728829Y586307D01*
X739832Y582075D02*
X738139Y583768D01*
Y585461D01*
X739832Y587153D01*
X745757D02*
X744064D01*
X744910D01*
Y582921D01*
X744064Y582075D01*
X743217D01*
X742371Y582921D01*
X747449Y587153D02*
X750835D01*
X749142D01*
Y582075D01*
X752528D02*
Y585461D01*
X754221Y587153D01*
X755913Y585461D01*
Y582075D01*
Y584614D01*
X752528D01*
X760992Y586307D02*
X760145Y587153D01*
X758452D01*
X757606Y586307D01*
Y582921D01*
X758452Y582075D01*
X760145D01*
X760992Y582921D01*
Y584614D01*
X759299D01*
X762684Y582075D02*
X764377Y583768D01*
Y585461D01*
X762684Y587153D01*
D20*
X852784Y492323D02*
X870558D01*
Y483435D01*
X867596Y480473D01*
X861671D01*
X858709Y483435D01*
Y492323D01*
X870558Y474548D02*
Y468624D01*
Y471586D01*
X852784D01*
Y474548D01*
Y468624D01*
X867596Y447887D02*
X870558Y450849D01*
Y456774D01*
X867596Y459736D01*
X855747D01*
X852784Y456774D01*
Y450849D01*
X855747Y447887D01*
M02*
