%TF.GenerationSoftware,Altium Limited,Altium Designer,21.5.1 (32)*%
G04 Layer_Color=8421504*
%FSLAX45Y45*%
%MOMM*%
%TF.SameCoordinates,620DA487-9358-4998-A31C-56A073A1AE4C*%
%TF.FilePolarity,Positive*%
%TF.FileFunction,Paste,Top*%
%TF.Part,Single*%
G01*
G75*
%TA.AperFunction,SMDPad,CuDef*%
%ADD12R,3.43000X1.78000*%
%ADD26R,1.78000X3.43000*%
%ADD28R,1.00606X1.30822*%
%ADD29R,1.35000X0.95000*%
%ADD37R,0.50000X0.50000*%
%TA.AperFunction,SMDPad,SMDef*%
%ADD70R,0.82000X0.86000*%
%ADD72R,0.86000X0.82000*%
%ADD87C,0.33000*%
%ADD88R,1.05000X1.55000*%
%ADD89R,4.50000X3.60000*%
%ADD90R,0.55000X1.05000*%
%ADD91O,1.70000X0.55000*%
%ADD92R,0.60000X0.55000*%
%ADD93O,0.70000X2.10000*%
%ADD94R,1.20000X1.85000*%
%ADD95R,1.20000X1.00000*%
%ADD96R,1.05000X1.65000*%
%ADD97R,1.05000X0.90000*%
%ADD98R,1.70000X2.90000*%
%ADD99R,0.80000X0.75000*%
G04:AMPARAMS|DCode=100|XSize=0.7mm|YSize=1.1mm|CornerRadius=0.101mm|HoleSize=0mm|Usage=FLASHONLY|Rotation=90.000|XOffset=0mm|YOffset=0mm|HoleType=Round|Shape=RoundedRectangle|*
%AMROUNDEDRECTD100*
21,1,0.70000,0.89800,0,0,90.0*
21,1,0.49800,1.10000,0,0,90.0*
1,1,0.20200,0.44900,0.24900*
1,1,0.20200,0.44900,-0.24900*
1,1,0.20200,-0.44900,-0.24900*
1,1,0.20200,-0.44900,0.24900*
%
%ADD100ROUNDEDRECTD100*%
%TA.AperFunction,BGAPad,SMDef*%
%ADD101C,0.60000*%
%TA.AperFunction,SMDPad,SMDef*%
%ADD102R,1.85000X1.10000*%
%ADD103R,1.55000X1.05000*%
%ADD104R,1.80000X1.45000*%
%ADD105R,0.58000X0.50000*%
%TA.AperFunction,BGAPad,SMDef*%
%ADD106C,0.43000*%
%ADD107C,0.39000*%
%TA.AperFunction,SMDPad,SMDef*%
%ADD108R,1.10000X0.95000*%
%ADD109R,0.80000X1.10000*%
D12*
X2975492Y8915489D02*
D03*
X10334747Y3102031D02*
D03*
X8811603Y9833049D02*
D03*
X7112290Y9352386D02*
D03*
X9249999Y7487498D02*
D03*
X8802011Y6505486D02*
D03*
D26*
X6400787Y4520676D02*
D03*
D28*
X7894015Y10165650D02*
D03*
X7748799D02*
D03*
D29*
X8023984Y9652313D02*
D03*
Y9802315D02*
D03*
D37*
X6927555Y6590599D02*
D03*
Y6490599D02*
D03*
D70*
X5756250Y4070345D02*
D03*
Y4166342D02*
D03*
X7093443Y6586774D02*
D03*
Y6490772D02*
D03*
D72*
X8638281Y5208351D02*
D03*
X8734283D02*
D03*
X4008907Y8596996D02*
D03*
X4008897Y8747420D02*
D03*
X4008902Y8446572D02*
D03*
X4008897Y8296143D02*
D03*
X10761208Y7313900D02*
D03*
Y7137400D02*
D03*
X10665206Y7313900D02*
D03*
Y7137400D02*
D03*
X4104899Y8747420D02*
D03*
X4104909Y8596996D02*
D03*
X4104899Y8296143D02*
D03*
X4104904Y8446572D02*
D03*
D87*
X8809469Y8394958D02*
D03*
Y8434958D02*
D03*
X8849469Y8394958D02*
D03*
Y8434958D02*
D03*
D88*
X8577605Y8102033D02*
D03*
X8777606D02*
D03*
X8621064Y8709245D02*
D03*
X8821064D02*
D03*
D89*
X5565750Y4779061D02*
D03*
D90*
X5629250Y4389064D02*
D03*
X5502250D02*
D03*
X5375250D02*
D03*
Y5169063D02*
D03*
X5502250D02*
D03*
X5629250D02*
D03*
X5756250D02*
D03*
Y4389064D02*
D03*
D91*
X5656067Y3127980D02*
D03*
Y3192978D02*
D03*
Y3257982D02*
D03*
Y3322980D02*
D03*
X5226066Y3127980D02*
D03*
Y3192978D02*
D03*
Y3322980D02*
D03*
Y3257982D02*
D03*
D92*
X3175193Y6108700D02*
D03*
X3100192D02*
D03*
X7465898Y5941268D02*
D03*
X7390897D02*
D03*
X7788692D02*
D03*
X7863693D02*
D03*
X8711281Y5345897D02*
D03*
X8636279D02*
D03*
X7390897Y6059907D02*
D03*
X7465898D02*
D03*
X3944386Y6108700D02*
D03*
X3869385D02*
D03*
D93*
X8388111Y5138349D02*
D03*
X8261111D02*
D03*
X8134111D02*
D03*
X8007111D02*
D03*
X7880111D02*
D03*
X7753111D02*
D03*
X7626111D02*
D03*
X7499111D02*
D03*
X7372111D02*
D03*
X7245111D02*
D03*
X7118111D02*
D03*
X6991111D02*
D03*
X6864111D02*
D03*
X6737111D02*
D03*
X8388111Y4238346D02*
D03*
X8261111D02*
D03*
X8134111D02*
D03*
X8007111D02*
D03*
X7880111D02*
D03*
X7753111D02*
D03*
X7626111D02*
D03*
X7499111D02*
D03*
X7245111D02*
D03*
X7118111D02*
D03*
X6991111D02*
D03*
X6864111D02*
D03*
X6737111D02*
D03*
X7372111D02*
D03*
D94*
X4089095Y4248739D02*
D03*
X4369095D02*
D03*
X4096878Y3727887D02*
D03*
X4376877D02*
D03*
X4849139D02*
D03*
X4569140D02*
D03*
X4841357Y3988313D02*
D03*
X4561357D02*
D03*
X4841357Y4248739D02*
D03*
X4561357D02*
D03*
X4369095Y3988313D02*
D03*
X4089095D02*
D03*
D95*
X5347802Y5899302D02*
D03*
Y5759298D02*
D03*
X5167798D02*
D03*
Y5899302D02*
D03*
D96*
X5835000Y5817499D02*
D03*
X5599999D02*
D03*
D97*
X6014870Y3351028D02*
D03*
Y3221031D02*
D03*
X7909031Y9263381D02*
D03*
Y9133383D02*
D03*
X7728091Y9133388D02*
D03*
Y9263386D02*
D03*
X6014873Y3060598D02*
D03*
Y2930601D02*
D03*
D98*
X8820261Y9289867D02*
D03*
X8525265D02*
D03*
D99*
X8393359Y5345897D02*
D03*
X8488355D02*
D03*
D100*
X7728091Y9639088D02*
D03*
X7453091Y9829090D02*
D03*
Y9734089D02*
D03*
Y9639088D02*
D03*
X7728091Y9829090D02*
D03*
D101*
X5856996Y8340598D02*
D03*
X6356995Y7740599D02*
D03*
Y7840599D02*
D03*
X5656997Y7740599D02*
D03*
X5556997D02*
D03*
X5456997D02*
D03*
X6356995Y7240600D02*
D03*
X5756996Y7440600D02*
D03*
X6356995Y7140600D02*
D03*
X5856996Y6640601D02*
D03*
X5756996Y7640599D02*
D03*
Y7540600D02*
D03*
Y7340600D02*
D03*
X5656997Y7240600D02*
D03*
X5556997D02*
D03*
X5456997D02*
D03*
X5156998Y8340598D02*
D03*
X5356997Y7740599D02*
D03*
X5256997Y7640599D02*
D03*
Y7540600D02*
D03*
X4656999Y7840599D02*
D03*
Y7740599D02*
D03*
X5256997Y7440600D02*
D03*
X5356997Y7240600D02*
D03*
X5256997Y7340600D02*
D03*
X5156998Y6640601D02*
D03*
X4656999Y7240600D02*
D03*
Y7140600D02*
D03*
X6556995Y8340598D02*
D03*
X6456995Y8440598D02*
D03*
X6356995Y8540603D02*
D03*
X5956996Y8040599D02*
D03*
X6056996D02*
D03*
X5856996Y7840599D02*
D03*
X6056996D02*
D03*
X5856996Y7740599D02*
D03*
Y7640599D02*
D03*
X4656999Y8540603D02*
D03*
X4556999Y8440598D02*
D03*
X4956998Y8040599D02*
D03*
X4456999Y8340598D02*
D03*
X5656997Y7840599D02*
D03*
X5756996D02*
D03*
X5256997D02*
D03*
X5356997D02*
D03*
X5156998D02*
D03*
Y7740599D02*
D03*
Y7640599D02*
D03*
X6056996Y6940601D02*
D03*
X5856996Y7340600D02*
D03*
Y7240600D02*
D03*
Y7140600D02*
D03*
X5756996D02*
D03*
X6556995Y6640601D02*
D03*
X6456995Y6540602D02*
D03*
X6356995Y6440602D02*
D03*
X5256997Y7140600D02*
D03*
X5356997D02*
D03*
X5156998Y7240600D02*
D03*
Y7140600D02*
D03*
X5656997D02*
D03*
X5156998Y7340600D02*
D03*
X4956998Y6940601D02*
D03*
X4556999Y6540602D02*
D03*
X4656999Y6440602D02*
D03*
X4456999Y6640601D02*
D03*
Y6440602D02*
D03*
Y6540602D02*
D03*
Y6740601D02*
D03*
Y6840601D02*
D03*
Y6940601D02*
D03*
Y7040601D02*
D03*
Y7140600D02*
D03*
Y7240600D02*
D03*
Y7340600D02*
D03*
Y7440600D02*
D03*
Y7540600D02*
D03*
Y7640599D02*
D03*
Y7740599D02*
D03*
Y7840599D02*
D03*
Y7940599D02*
D03*
Y8040599D02*
D03*
Y8140598D02*
D03*
Y8240598D02*
D03*
Y8440598D02*
D03*
Y8540603D02*
D03*
X4556999Y6440602D02*
D03*
Y6640601D02*
D03*
Y6740601D02*
D03*
Y6840601D02*
D03*
Y6940601D02*
D03*
Y7040601D02*
D03*
Y7140600D02*
D03*
Y7240600D02*
D03*
Y7340600D02*
D03*
Y7440600D02*
D03*
Y7540600D02*
D03*
Y7640599D02*
D03*
Y7740599D02*
D03*
Y7840599D02*
D03*
Y7940599D02*
D03*
Y8040599D02*
D03*
Y8140598D02*
D03*
Y8240598D02*
D03*
Y8340598D02*
D03*
Y8540603D02*
D03*
X4656999Y6540602D02*
D03*
Y6640601D02*
D03*
Y6740601D02*
D03*
Y6840601D02*
D03*
Y6940601D02*
D03*
Y7040601D02*
D03*
Y7340600D02*
D03*
Y7440600D02*
D03*
Y7540600D02*
D03*
Y7640599D02*
D03*
Y7940599D02*
D03*
Y8040599D02*
D03*
Y8140598D02*
D03*
Y8240598D02*
D03*
Y8340598D02*
D03*
Y8440598D02*
D03*
X4756998Y6440602D02*
D03*
Y6540602D02*
D03*
Y6640601D02*
D03*
Y6740601D02*
D03*
Y6840601D02*
D03*
Y6940601D02*
D03*
Y7040601D02*
D03*
Y7140600D02*
D03*
Y7240600D02*
D03*
Y7340600D02*
D03*
Y7440600D02*
D03*
Y7540600D02*
D03*
Y7640599D02*
D03*
Y7740599D02*
D03*
Y7840599D02*
D03*
Y7940599D02*
D03*
Y8040599D02*
D03*
Y8140598D02*
D03*
Y8240598D02*
D03*
Y8340598D02*
D03*
Y8440598D02*
D03*
Y8540603D02*
D03*
X4856998Y6440602D02*
D03*
Y6540602D02*
D03*
Y6640601D02*
D03*
Y6740601D02*
D03*
Y6840601D02*
D03*
Y6940601D02*
D03*
Y7040601D02*
D03*
Y7140600D02*
D03*
Y7240600D02*
D03*
Y7340600D02*
D03*
Y7440600D02*
D03*
Y7540600D02*
D03*
Y7640599D02*
D03*
Y7740599D02*
D03*
Y7840599D02*
D03*
Y7940599D02*
D03*
Y8040599D02*
D03*
Y8140598D02*
D03*
Y8240598D02*
D03*
Y8340598D02*
D03*
Y8440598D02*
D03*
Y8540603D02*
D03*
X4956998Y6440602D02*
D03*
Y6540602D02*
D03*
Y6640601D02*
D03*
Y6740601D02*
D03*
Y6840601D02*
D03*
Y7040601D02*
D03*
Y7140600D02*
D03*
Y7240600D02*
D03*
Y7340600D02*
D03*
Y7440600D02*
D03*
Y7540600D02*
D03*
Y7640599D02*
D03*
Y7740599D02*
D03*
Y7840599D02*
D03*
Y7940599D02*
D03*
Y8140598D02*
D03*
Y8240598D02*
D03*
Y8340598D02*
D03*
Y8440598D02*
D03*
Y8540603D02*
D03*
X5056998Y6440602D02*
D03*
Y6540602D02*
D03*
Y6640601D02*
D03*
Y6740601D02*
D03*
Y6840601D02*
D03*
Y6940601D02*
D03*
Y7040601D02*
D03*
Y7140600D02*
D03*
Y7240600D02*
D03*
Y7340600D02*
D03*
Y7440600D02*
D03*
Y7540600D02*
D03*
Y7640599D02*
D03*
Y7740599D02*
D03*
Y7840599D02*
D03*
Y7940599D02*
D03*
Y8040599D02*
D03*
Y8140598D02*
D03*
Y8240598D02*
D03*
Y8340598D02*
D03*
Y8440598D02*
D03*
Y8540603D02*
D03*
X5156998Y6440602D02*
D03*
Y6540602D02*
D03*
Y6740601D02*
D03*
Y6840601D02*
D03*
Y6940601D02*
D03*
Y7040601D02*
D03*
Y7440600D02*
D03*
Y7540600D02*
D03*
Y7940599D02*
D03*
Y8040599D02*
D03*
Y8140598D02*
D03*
Y8240598D02*
D03*
Y8440598D02*
D03*
Y8540603D02*
D03*
X5256997Y6440602D02*
D03*
Y6540602D02*
D03*
Y6640601D02*
D03*
Y6740601D02*
D03*
Y6840601D02*
D03*
Y6940601D02*
D03*
Y7040601D02*
D03*
Y7240600D02*
D03*
Y7740599D02*
D03*
Y7940599D02*
D03*
Y8040599D02*
D03*
Y8140598D02*
D03*
Y8240598D02*
D03*
Y8340598D02*
D03*
Y8440598D02*
D03*
Y8540603D02*
D03*
X5356997Y6440602D02*
D03*
Y6540602D02*
D03*
Y6640601D02*
D03*
Y6740601D02*
D03*
Y6840601D02*
D03*
Y6940601D02*
D03*
Y7040601D02*
D03*
Y7340600D02*
D03*
Y7440600D02*
D03*
Y7540600D02*
D03*
Y7640599D02*
D03*
Y7940599D02*
D03*
Y8040599D02*
D03*
Y8140598D02*
D03*
Y8240598D02*
D03*
Y8340598D02*
D03*
Y8440598D02*
D03*
Y8540603D02*
D03*
X5456997Y6440602D02*
D03*
Y6540602D02*
D03*
Y6640601D02*
D03*
Y6740601D02*
D03*
Y6840601D02*
D03*
Y6940601D02*
D03*
Y7040601D02*
D03*
Y7140600D02*
D03*
Y7340600D02*
D03*
Y7440600D02*
D03*
Y7540600D02*
D03*
Y7640599D02*
D03*
Y7840599D02*
D03*
Y7940599D02*
D03*
Y8040599D02*
D03*
Y8140598D02*
D03*
Y8240598D02*
D03*
Y8340598D02*
D03*
Y8440598D02*
D03*
Y8540603D02*
D03*
X5556997Y6440602D02*
D03*
Y6540602D02*
D03*
Y6640601D02*
D03*
Y6740601D02*
D03*
Y6840601D02*
D03*
Y6940601D02*
D03*
Y7040601D02*
D03*
Y7140600D02*
D03*
Y7340600D02*
D03*
Y7440600D02*
D03*
Y7540600D02*
D03*
Y7640599D02*
D03*
Y7840599D02*
D03*
Y7940599D02*
D03*
Y8040599D02*
D03*
Y8140598D02*
D03*
Y8240598D02*
D03*
Y8340598D02*
D03*
Y8440598D02*
D03*
Y8540603D02*
D03*
X5656997Y6440602D02*
D03*
Y6540602D02*
D03*
Y6640601D02*
D03*
Y6740601D02*
D03*
Y6840601D02*
D03*
Y6940601D02*
D03*
Y7040601D02*
D03*
Y7340600D02*
D03*
Y7440600D02*
D03*
Y7540600D02*
D03*
Y7640599D02*
D03*
Y7940599D02*
D03*
Y8040599D02*
D03*
Y8140598D02*
D03*
Y8240598D02*
D03*
Y8340598D02*
D03*
Y8440598D02*
D03*
Y8540603D02*
D03*
X5756996Y6440602D02*
D03*
Y6540602D02*
D03*
Y6640601D02*
D03*
Y6740601D02*
D03*
Y6840601D02*
D03*
Y6940601D02*
D03*
Y7040601D02*
D03*
Y7240600D02*
D03*
Y7740599D02*
D03*
Y7940599D02*
D03*
Y8040599D02*
D03*
Y8140598D02*
D03*
Y8240598D02*
D03*
Y8340598D02*
D03*
Y8440598D02*
D03*
Y8540603D02*
D03*
X5856996Y6440602D02*
D03*
Y6540602D02*
D03*
Y6740601D02*
D03*
Y6840601D02*
D03*
Y6940601D02*
D03*
Y7040601D02*
D03*
Y7440600D02*
D03*
Y7540600D02*
D03*
Y7940599D02*
D03*
Y8040599D02*
D03*
Y8140598D02*
D03*
Y8240598D02*
D03*
Y8440598D02*
D03*
Y8540603D02*
D03*
X5956996Y6440602D02*
D03*
Y6540602D02*
D03*
Y6640601D02*
D03*
Y6740601D02*
D03*
Y6840601D02*
D03*
Y6940601D02*
D03*
Y7040601D02*
D03*
Y7140600D02*
D03*
Y7240600D02*
D03*
Y7340600D02*
D03*
Y7440600D02*
D03*
Y7540600D02*
D03*
Y7640599D02*
D03*
Y7740599D02*
D03*
Y7840599D02*
D03*
Y7940599D02*
D03*
Y8140598D02*
D03*
Y8240598D02*
D03*
Y8340598D02*
D03*
Y8440598D02*
D03*
Y8540603D02*
D03*
X6056996Y6440602D02*
D03*
Y6540602D02*
D03*
Y6640601D02*
D03*
Y6740601D02*
D03*
Y6840601D02*
D03*
Y7040601D02*
D03*
Y7140600D02*
D03*
Y7240600D02*
D03*
Y7340600D02*
D03*
Y7440600D02*
D03*
Y7540600D02*
D03*
Y7640599D02*
D03*
Y7740599D02*
D03*
Y7940599D02*
D03*
Y8140598D02*
D03*
Y8240598D02*
D03*
Y8340598D02*
D03*
Y8440598D02*
D03*
Y8540603D02*
D03*
X6156996Y6440602D02*
D03*
Y6540602D02*
D03*
Y6640601D02*
D03*
Y6740601D02*
D03*
Y6840601D02*
D03*
Y6940601D02*
D03*
Y7040601D02*
D03*
Y7140600D02*
D03*
Y7240600D02*
D03*
Y7340600D02*
D03*
Y7440600D02*
D03*
Y7540600D02*
D03*
Y7640599D02*
D03*
Y7740599D02*
D03*
Y7840599D02*
D03*
Y7940599D02*
D03*
Y8040599D02*
D03*
Y8140598D02*
D03*
Y8240598D02*
D03*
Y8340598D02*
D03*
Y8440598D02*
D03*
Y8540603D02*
D03*
X6256995Y6440602D02*
D03*
Y6540602D02*
D03*
Y6640601D02*
D03*
Y6740601D02*
D03*
Y6840601D02*
D03*
Y6940601D02*
D03*
Y7040601D02*
D03*
Y7140600D02*
D03*
Y7240600D02*
D03*
Y7340600D02*
D03*
Y7440600D02*
D03*
Y7540600D02*
D03*
Y7640599D02*
D03*
Y7740599D02*
D03*
Y7840599D02*
D03*
Y7940599D02*
D03*
Y8040599D02*
D03*
Y8140598D02*
D03*
Y8240598D02*
D03*
Y8340598D02*
D03*
Y8440598D02*
D03*
Y8540603D02*
D03*
X6356995Y6540602D02*
D03*
Y6640601D02*
D03*
Y6740601D02*
D03*
Y6840601D02*
D03*
Y6940601D02*
D03*
Y7040601D02*
D03*
Y7340600D02*
D03*
Y7440600D02*
D03*
Y7540600D02*
D03*
Y7640599D02*
D03*
Y7940599D02*
D03*
Y8040599D02*
D03*
Y8140598D02*
D03*
Y8240598D02*
D03*
Y8340598D02*
D03*
Y8440598D02*
D03*
X6456995Y6440602D02*
D03*
Y6640601D02*
D03*
Y6740601D02*
D03*
Y6840601D02*
D03*
Y6940601D02*
D03*
Y7040601D02*
D03*
Y7140600D02*
D03*
Y7240600D02*
D03*
Y7340600D02*
D03*
Y7440600D02*
D03*
Y7540600D02*
D03*
Y7640599D02*
D03*
Y7740599D02*
D03*
Y7840599D02*
D03*
Y7940599D02*
D03*
Y8040599D02*
D03*
Y8140598D02*
D03*
Y8240598D02*
D03*
Y8340598D02*
D03*
Y8540603D02*
D03*
X6556995Y6440602D02*
D03*
Y6540602D02*
D03*
Y6740601D02*
D03*
Y6840601D02*
D03*
Y6940601D02*
D03*
Y7040601D02*
D03*
Y7140600D02*
D03*
Y7240600D02*
D03*
Y7340600D02*
D03*
Y7440600D02*
D03*
Y7540600D02*
D03*
Y7640599D02*
D03*
Y7740599D02*
D03*
Y7840599D02*
D03*
Y7940599D02*
D03*
Y8040599D02*
D03*
Y8140598D02*
D03*
Y8240598D02*
D03*
Y8440598D02*
D03*
Y8540603D02*
D03*
D102*
X9414995Y6223891D02*
D03*
Y5923887D02*
D03*
D103*
X9407500Y7012498D02*
D03*
Y7212498D02*
D03*
D104*
X9112498Y5961080D02*
D03*
Y6221084D02*
D03*
X9127500Y7203100D02*
D03*
Y6943095D02*
D03*
D105*
X6518732Y9968062D02*
D03*
X6754724D02*
D03*
X6886722D02*
D03*
X6650731D02*
D03*
D106*
X7692598Y7620000D02*
D03*
X7317598Y7544999D02*
D03*
X7692598Y7320001D02*
D03*
X7617602D02*
D03*
X7542601D02*
D03*
X7467600D02*
D03*
X7392599D02*
D03*
X7317598D02*
D03*
X7692598Y7395002D02*
D03*
X7617602D02*
D03*
X7542601D02*
D03*
X7467600D02*
D03*
X7392599D02*
D03*
X7317598D02*
D03*
X7692598Y7469998D02*
D03*
X7617602D02*
D03*
X7542601D02*
D03*
X7467600D02*
D03*
X7392599D02*
D03*
X7317598D02*
D03*
X7692598Y7544999D02*
D03*
X7617602D02*
D03*
X7542601D02*
D03*
X7467600D02*
D03*
X7392599D02*
D03*
X7617602Y7620000D02*
D03*
X7542601D02*
D03*
X7467600D02*
D03*
X7392599D02*
D03*
X7317598D02*
D03*
X7692598Y7695001D02*
D03*
X7617602D02*
D03*
X7542601D02*
D03*
X7467600D02*
D03*
X7392599D02*
D03*
X7317598D02*
D03*
X7692598Y7770002D02*
D03*
X7617602D02*
D03*
X7542601D02*
D03*
X7467600D02*
D03*
X7392599D02*
D03*
X7317598D02*
D03*
X7692598Y7844998D02*
D03*
X7617602D02*
D03*
X7542601D02*
D03*
X7467600D02*
D03*
X7392599D02*
D03*
X7317598D02*
D03*
D107*
X5609798Y9372600D02*
D03*
X5234798Y9297599D02*
D03*
X5609798Y9072601D02*
D03*
X5534802D02*
D03*
X5459801D02*
D03*
X5384800D02*
D03*
X5309799D02*
D03*
X5234798D02*
D03*
X5609798Y9147602D02*
D03*
X5534802D02*
D03*
X5459801D02*
D03*
X5384800D02*
D03*
X5309799D02*
D03*
X5234798D02*
D03*
X5609798Y9222598D02*
D03*
X5534802D02*
D03*
X5459801D02*
D03*
X5384800D02*
D03*
X5309799D02*
D03*
X5234798D02*
D03*
X5609798Y9297599D02*
D03*
X5534802D02*
D03*
X5459801D02*
D03*
X5384800D02*
D03*
X5309799D02*
D03*
X5534802Y9372600D02*
D03*
X5459801D02*
D03*
X5384800D02*
D03*
X5309799D02*
D03*
X5234798D02*
D03*
X5609798Y9447601D02*
D03*
X5534802D02*
D03*
X5459801D02*
D03*
X5384800D02*
D03*
X5309799D02*
D03*
X5234798D02*
D03*
X5609798Y9522602D02*
D03*
X5534802D02*
D03*
X5459801D02*
D03*
X5384800D02*
D03*
X5309799D02*
D03*
X5234798D02*
D03*
X5609798Y9597598D02*
D03*
X5534802D02*
D03*
X5459801D02*
D03*
X5384800D02*
D03*
X5309799D02*
D03*
X5234798D02*
D03*
D108*
X3700916Y4725412D02*
D03*
Y4875415D02*
D03*
X3946046Y4724808D02*
D03*
Y4874810D02*
D03*
X3431280Y4716683D02*
D03*
Y4866685D02*
D03*
D109*
X3431279Y5048364D02*
D03*
Y5228369D02*
D03*
X3946045Y5061186D02*
D03*
Y5241191D02*
D03*
X3700914Y5048334D02*
D03*
Y5228339D02*
D03*
%TF.MD5,3241022052caf8d10eeb02b7aa37d964*%
M02*
