%TF.GenerationSoftware,Altium Limited,Altium Designer,21.6.1 (37)*%
G04 Layer_Color=32768*
%FSLAX45Y45*%
%MOMM*%
%TF.SameCoordinates,16E63DA4-43ED-4674-A1E0-7AC0996D3122*%
%TF.FilePolarity,Positive*%
%TF.FileFunction,Other,Bottom_Assembly*%
%TF.Part,Single*%
G01*
G75*
%TA.AperFunction,NonConductor*%
%ADD75C,0.20000*%
%ADD91C,0.10000*%
D75*
X6078538Y6799326D02*
X6225787Y6799326D01*
X6225787Y6874327D01*
X6078538Y6874327D02*
X6225787Y6874327D01*
X6078538Y6799326D02*
X6078538Y6874327D01*
X4973777Y8059142D02*
X5121026Y8059142D01*
X4973777Y7984141D02*
X4973777Y8059142D01*
X4973777Y7984141D02*
X5121026Y7984141D01*
X5121026Y8059142D01*
X4973777Y8239568D02*
X5121026Y8239568D01*
X4973777Y8164567D02*
X4973777Y8239568D01*
X4973777Y8164567D02*
X5121026Y8164567D01*
X5121026Y8239568D01*
X4973777Y7609926D02*
X5121026Y7609926D01*
X4973777Y7534925D02*
X4973777Y7609926D01*
X4973777Y7534925D02*
X5121026Y7534925D01*
X5121026Y7609926D01*
X4920951Y7354499D02*
X5068200Y7354499D01*
X5068200Y7429500D01*
X4920951Y7429500D02*
X5068200Y7429500D01*
X4920951Y7354499D02*
X4920951Y7429500D01*
X4920951Y7229500D02*
X5068200Y7229500D01*
X4920951Y7154499D02*
X4920951Y7229500D01*
X4920951Y7154499D02*
X5068200Y7154499D01*
X5068200Y7229500D01*
X4923285Y7829499D02*
X5070534Y7829499D01*
X4923285Y7754498D02*
X4923285Y7829499D01*
X4923285Y7754498D02*
X5070534Y7754498D01*
X5070534Y7829499D01*
X4973777Y8344993D02*
X5121026Y8344993D01*
X5121026Y8419995D01*
X4973777Y8419995D02*
X5121026Y8419995D01*
X4973777Y8344993D02*
X4973777Y8419995D01*
X4845523Y7168388D02*
X4845523Y7315637D01*
X4770522Y7315637D02*
X4845523Y7315637D01*
X4770522Y7168388D02*
X4770522Y7315637D01*
X4770522Y7168388D02*
X4845523Y7168388D01*
X4547850Y7329500D02*
X4695099Y7329500D01*
X4547850Y7254499D02*
X4547850Y7329500D01*
X4547850Y7254499D02*
X4695099Y7254499D01*
X4695099Y7329500D01*
X4547850Y7129501D02*
X4695099Y7129501D01*
X4547850Y7054499D02*
X4547850Y7129501D01*
X4547850Y7054499D02*
X4695099Y7054499D01*
X4695099Y7129501D01*
X4355181Y7229500D02*
X4502425Y7229500D01*
X4355181Y7154499D02*
X4355181Y7229500D01*
X4355181Y7154499D02*
X4502425Y7154499D01*
X4502425Y7229500D01*
X5673776Y8545344D02*
X5821025Y8545344D01*
X5673776Y8470348D02*
X5673776Y8545344D01*
X5673776Y8470348D02*
X5821025Y8470348D01*
X5821025Y8545344D01*
X5934847Y8247671D02*
X5934847Y8394920D01*
X5859851Y8394920D02*
X5934847Y8394920D01*
X5859851Y8247671D02*
X5859851Y8394920D01*
X5859851Y8247671D02*
X5934847Y8247671D01*
X4915747Y6759485D02*
X4915747Y6906733D01*
X4915747Y6759485D02*
X4990748Y6759485D01*
X4990748Y6906733D01*
X4915747Y6906733D02*
X4990748Y6906733D01*
X5808022Y6522448D02*
X5808022Y6669692D01*
X5733026Y6669692D02*
X5808022Y6669692D01*
X5733026Y6522448D02*
X5733026Y6669692D01*
X5733026Y6522448D02*
X5808022Y6522448D01*
X5988448Y6530517D02*
X5988448Y6677765D01*
X5913452Y6677765D02*
X5988448Y6677765D01*
X5913452Y6530517D02*
X5913452Y6677765D01*
X5913452Y6530517D02*
X5988448Y6530517D01*
X6325816Y8638122D02*
X6473065Y8638122D01*
X6473065Y8713123D01*
X6325816Y8713123D02*
X6473065Y8713123D01*
X6325816Y8638122D02*
X6325816Y8713123D01*
X5821025Y7583714D02*
X5821025Y7658715D01*
X5673776Y7583714D02*
X5821025Y7583714D01*
X5673776Y7583714D02*
X5673776Y7658715D01*
X5821025Y7658715D01*
X4359900Y6615623D02*
X4434901Y6615623D01*
X4434901Y6468374D02*
X4434901Y6615623D01*
X4359900Y6468374D02*
X4434901Y6468374D01*
X4359900Y6468374D02*
X4359900Y6615623D01*
X4359900Y8368375D02*
X4434901Y8368375D01*
X4359900Y8368375D02*
X4359900Y8515624D01*
X4434901Y8515624D01*
X4434901Y8368375D02*
X4434901Y8515624D01*
X4459900Y8615624D02*
X4534901Y8615624D01*
X4534901Y8468375D02*
X4534901Y8615624D01*
X4459900Y8468375D02*
X4534901Y8468375D01*
X4459900Y8468375D02*
X4459900Y8615624D01*
X4567499Y6516126D02*
X4642500Y6516126D01*
X4642500Y6368877D02*
X4642500Y6516126D01*
X4567499Y6368877D02*
X4642500Y6368877D01*
X4567499Y6368877D02*
X4567499Y6516126D01*
X4648624Y6874078D02*
X4648624Y6949079D01*
X4795868Y6949079D01*
X4795868Y6874078D02*
X4795868Y6949079D01*
X4648624Y6874078D02*
X4795868Y6874078D01*
X4573778Y8091048D02*
X4573778Y8166049D01*
X4721022Y8166049D01*
X4721022Y8091048D02*
X4721022Y8166049D01*
X4573778Y8091048D02*
X4721022Y8091048D01*
X4345268Y7754498D02*
X4345268Y7829499D01*
X4492511Y7829499D01*
X4492511Y7754498D02*
X4492511Y7829499D01*
X4345268Y7754498D02*
X4492511Y7754498D01*
X4559950Y8615675D02*
X4634951Y8615675D01*
X4634951Y8468426D02*
X4634951Y8615675D01*
X4559950Y8468426D02*
X4634951Y8468426D01*
X4559950Y8468426D02*
X4559950Y8615675D01*
X5090497Y6554450D02*
X5090497Y6629451D01*
X4943248Y6554450D02*
X5090497Y6554450D01*
X4943248Y6554450D02*
X4943248Y6629451D01*
X5090497Y6629451D01*
X4685186Y7754498D02*
X4685186Y7829499D01*
X4537937Y7754498D02*
X4685186Y7754498D01*
X4537937Y7754498D02*
X4537937Y7829499D01*
X4685186Y7829499D01*
X5135922Y6554705D02*
X5135922Y6629707D01*
X5283171Y6629707D01*
X5283171Y6554705D02*
X5283171Y6629707D01*
X5135922Y6554705D02*
X5283171Y6554705D01*
X4730611Y7654498D02*
X4730611Y7729499D01*
X4877860Y7729499D01*
X4877860Y7654498D02*
X4877860Y7729499D01*
X4730611Y7654498D02*
X4877860Y7654498D01*
X4537937Y7554498D02*
X4537937Y7629500D01*
X4685186Y7629500D01*
X4685186Y7554498D02*
X4685186Y7629500D01*
X4537937Y7554498D02*
X4685186Y7554498D01*
X4772856Y7868376D02*
X4847857Y7868376D01*
X4772856Y7868376D02*
X4772856Y8015625D01*
X4847857Y8015625D01*
X4847857Y7868376D02*
X4847857Y8015625D01*
X5259847Y8253725D02*
X5334848Y8253725D01*
X5259847Y8253725D02*
X5259847Y8400974D01*
X5334848Y8400974D01*
X5334848Y8253725D02*
X5334848Y8400974D01*
X5159898Y8495422D02*
X5234899Y8495422D01*
X5159898Y8495422D02*
X5159898Y8642671D01*
X5234899Y8642671D01*
X5234899Y8495422D02*
X5234899Y8642671D01*
X5359751Y8208300D02*
X5434752Y8208300D01*
X5434752Y8061051D02*
X5434752Y8208300D01*
X5359751Y8061051D02*
X5434752Y8061051D01*
X5359751Y8061051D02*
X5359751Y8208300D01*
X5464476Y7115622D02*
X5539473Y7115622D01*
X5539473Y6968378D02*
X5539473Y7115622D01*
X5464476Y6968378D02*
X5539473Y6968378D01*
X5464476Y6968378D02*
X5464476Y7115622D01*
X5659902Y7361047D02*
X5734898Y7361047D01*
X5659902Y7361047D02*
X5659902Y7508291D01*
X5734898Y7508291D01*
X5734898Y7361047D02*
X5734898Y7508291D01*
X5555199Y7460795D02*
X5555199Y7535796D01*
X5407951Y7460795D02*
X5555199Y7460795D01*
X5407951Y7460795D02*
X5407951Y7535796D01*
X5555199Y7535796D01*
X5286802Y7815626D02*
X5361798Y7815626D01*
X5361798Y7668377D02*
X5361798Y7815626D01*
X5286802Y7668377D02*
X5361798Y7668377D01*
X5286802Y7668377D02*
X5286802Y7815626D01*
X5659902Y8067244D02*
X5734898Y8067244D01*
X5659902Y8067244D02*
X5659902Y8214493D01*
X5734898Y8214493D01*
X5734898Y8067244D02*
X5734898Y8214493D01*
X5873775Y7385530D02*
X5873775Y7460531D01*
X6021024Y7460531D01*
X6021024Y7385530D02*
X6021024Y7460531D01*
X5873775Y7385530D02*
X6021024Y7385530D01*
X5873775Y7583714D02*
X5873775Y7658715D01*
X6021024Y7658715D01*
X6021024Y7583714D02*
X6021024Y7658715D01*
X5873775Y7583714D02*
X6021024Y7583714D01*
X5873775Y8097242D02*
X5873775Y8172243D01*
X6021024Y8172243D01*
X6021024Y8097242D02*
X6021024Y8172243D01*
X5873775Y8097242D02*
X6021024Y8097242D01*
X6073775Y7854447D02*
X6073775Y7929448D01*
X6221024Y7929448D01*
X6221024Y7854447D02*
X6221024Y7929448D01*
X6073775Y7854447D02*
X6221024Y7854447D01*
X6421023Y7210419D02*
X6421023Y7285420D01*
X6273775Y7210419D02*
X6421023Y7210419D01*
X6273775Y7210419D02*
X6273775Y7285420D01*
X6421023Y7285420D01*
X6421023Y7854498D02*
X6421023Y7929499D01*
X6273775Y7854498D02*
X6421023Y7854498D01*
X6273775Y7854498D02*
X6273775Y7929499D01*
X6421023Y7929499D01*
X6421023Y7754498D02*
X6421023Y7829499D01*
X6273775Y7754498D02*
X6421023Y7754498D01*
X6273775Y7754498D02*
X6273775Y7829499D01*
X6421023Y7829499D01*
X6373774Y6354501D02*
X6373774Y6429502D01*
X6521023Y6429502D01*
X6521023Y6354501D02*
X6521023Y6429502D01*
X6373774Y6354501D02*
X6521023Y6354501D01*
X6621023Y8354502D02*
X6621023Y8429498D01*
X6473774Y8354502D02*
X6621023Y8354502D01*
X6473774Y8354502D02*
X6473774Y8429498D01*
X6621023Y8429498D01*
X6473774Y8454502D02*
X6473774Y8529503D01*
X6621023Y8529503D01*
X6621023Y8454502D02*
X6621023Y8529503D01*
X6473774Y8454502D02*
X6621023Y8454502D01*
X5173777Y6965276D02*
X5173777Y7040277D01*
X5321026Y7040277D01*
X5321026Y6965276D02*
X5321026Y7040277D01*
X5173777Y6965276D02*
X5321026Y6965276D01*
X5173777Y7396122D02*
X5173777Y7471123D01*
X5321026Y7471123D01*
X5321026Y7396122D02*
X5321026Y7471123D01*
X5173777Y7396122D02*
X5321026Y7396122D01*
X6066450Y7054499D02*
X6066450Y7129501D01*
X6213699Y7129501D01*
X6213699Y7054499D02*
X6213699Y7129501D01*
X6066450Y7054499D02*
X6213699Y7054499D01*
X6066450Y7254499D02*
X6066450Y7329500D01*
X6213699Y7329500D01*
X6213699Y7254499D02*
X6213699Y7329500D01*
X6066450Y7254499D02*
X6213699Y7254499D01*
X6421023Y7029993D02*
X6421023Y7104994D01*
X6273775Y7029993D02*
X6421023Y7029993D01*
X6273775Y7029993D02*
X6273775Y7104994D01*
X6421023Y7104994D01*
X6521023Y6454501D02*
X6521023Y6529502D01*
X6373774Y6454501D02*
X6521023Y6454501D01*
X6373774Y6454501D02*
X6373774Y6529502D01*
X6521023Y6529502D01*
X5759902Y7310107D02*
X5834898Y7310107D01*
X5834898Y7162864D02*
X5834898Y7310107D01*
X5759902Y7162864D02*
X5834898Y7162864D01*
X5759902Y7162864D02*
X5759902Y7310107D01*
X5143628Y7168378D02*
X5218624Y7168378D01*
X5143628Y7168378D02*
X5143628Y7315622D01*
X5218624Y7315622D01*
X5218624Y7168378D02*
X5218624Y7315622D01*
X5579476Y7315622D02*
X5654472Y7315622D01*
X5654472Y7168378D02*
X5654472Y7315622D01*
X5579476Y7168378D02*
X5654472Y7168378D01*
X5579476Y7168378D02*
X5579476Y7315622D01*
X5559903Y8021819D02*
X5634899Y8021819D01*
X5634899Y7874570D02*
X5634899Y8021819D01*
X5559903Y7874570D02*
X5634899Y7874570D01*
X5559903Y7874570D02*
X5559903Y8021819D01*
X5759902Y7874570D02*
X5834898Y7874570D01*
X5759902Y7874570D02*
X5759902Y8021819D01*
X5834898Y8021819D01*
X5834898Y7874570D02*
X5834898Y8021819D01*
X5379476Y7868376D02*
X5454472Y7868376D01*
X5379476Y7868376D02*
X5379476Y8015625D01*
X5454472Y8015625D01*
X5454472Y7868376D02*
X5454472Y8015625D01*
X6559901Y6615623D02*
X6634902Y6615623D01*
X6634902Y6468374D02*
X6634902Y6615623D01*
X6559901Y6468374D02*
X6634902Y6468374D01*
X6559901Y6468374D02*
X6559901Y6615623D01*
D91*
X5656229Y2705910D02*
X5656229Y2925910D01*
X5801227Y2705910D02*
X5801227Y2925910D01*
X5656229Y2925910D02*
X5801227Y2925910D01*
X5656229Y2705910D02*
X5801227Y2705910D01*
%TF.MD5,7c53dc9999b3a0305a16a25e601f7418*%
M02*
