G04*
G04 #@! TF.GenerationSoftware,Altium Limited,Altium Designer,21.5.1 (32)*
G04*
G04 Layer_Color=32896*
%FSLAX44Y44*%
%MOMM*%
G71*
G04*
G04 #@! TF.SameCoordinates,CE61D733-3D9C-4286-B01C-F70B086857D8*
G04*
G04*
G04 #@! TF.FilePolarity,Positive*
G04*
G01*
G75*
%ADD14C,0.1000*%
D14*
X610069Y682717D02*
X620069D01*
X615069Y677717D02*
Y687717D01*
X499740Y800742D02*
X509740D01*
X504740Y795743D02*
Y805743D01*
X499740Y818785D02*
X509740D01*
X504740Y813785D02*
Y823785D01*
X499740Y757243D02*
X509740D01*
X504740Y752243D02*
Y762243D01*
X494457Y739200D02*
X504457D01*
X499458Y734200D02*
Y744200D01*
X494457Y719200D02*
X504457D01*
X499458Y714200D02*
Y724200D01*
X494732Y779200D02*
X504732D01*
X499733Y774200D02*
Y784200D01*
X499740Y836828D02*
X509740D01*
X504740Y831828D02*
Y841828D01*
X480802Y719202D02*
Y729202D01*
X475802Y724201D02*
X485802D01*
X457147Y729200D02*
X467147D01*
X462147Y724200D02*
Y734200D01*
X457147Y709200D02*
X467147D01*
X462147Y704200D02*
Y714200D01*
X437880Y719200D02*
X447880D01*
X442881Y714200D02*
Y724200D01*
X569740Y850784D02*
X579740D01*
X574740Y845785D02*
Y855785D01*
X589735Y827129D02*
Y837129D01*
X584735Y832130D02*
X594735D01*
X494462Y678439D02*
Y688439D01*
X489462Y683439D02*
X499462D01*
X576140Y654607D02*
Y664607D01*
X571140Y659607D02*
X581140D01*
X594183Y655414D02*
Y665414D01*
X589183Y660414D02*
X599183D01*
X634944Y867562D02*
X644944D01*
X639944Y862562D02*
Y872562D01*
X574740Y757122D02*
Y767122D01*
X569740Y762121D02*
X579740D01*
X434740Y654200D02*
X444740D01*
X439740Y649200D02*
Y659200D01*
X434740Y844200D02*
X444740D01*
X439740Y839200D02*
Y849200D01*
X444740Y854200D02*
X454740D01*
X449740Y849200D02*
Y859200D01*
X455500Y644250D02*
X465500D01*
X460500Y639250D02*
Y649250D01*
X472225Y686158D02*
Y696158D01*
X467225Y691158D02*
X477225D01*
X464740Y807855D02*
Y817855D01*
X459740Y812855D02*
X469740D01*
X441931Y774200D02*
Y784200D01*
X436931Y779200D02*
X446931D01*
X454745Y854205D02*
X464745D01*
X459745Y849205D02*
Y859205D01*
X501687Y654195D02*
Y664195D01*
X496687Y659195D02*
X506687D01*
X461198Y774200D02*
Y784200D01*
X456198Y779200D02*
X466198D01*
X520955Y654220D02*
Y664220D01*
X515954Y659221D02*
X525954D01*
X480465Y764200D02*
Y774200D01*
X475465Y769200D02*
X485465D01*
X461198Y754200D02*
Y764200D01*
X456198Y759200D02*
X466198D01*
X476078Y794200D02*
X486078D01*
X481077Y789200D02*
Y799200D01*
X524735Y832735D02*
X534735D01*
X529735Y827735D02*
Y837735D01*
X514740Y855483D02*
X524740D01*
X519740Y850483D02*
Y860483D01*
X534725Y813467D02*
X544725D01*
X539725Y808467D02*
Y818467D01*
X545197Y704200D02*
X555197D01*
X550197Y699200D02*
Y709200D01*
X564740Y743467D02*
X574740D01*
X569740Y738467D02*
Y748467D01*
X551085Y754200D02*
Y764200D01*
X546085Y759200D02*
X556085D01*
X527430Y774200D02*
X537430D01*
X532430Y769200D02*
Y779200D01*
X564740Y814087D02*
X574740D01*
X569740Y809087D02*
Y819087D01*
X594740Y737303D02*
Y747303D01*
X589740Y742303D02*
X599740D01*
X594740Y757122D02*
Y767122D01*
X589740Y762121D02*
X599740D01*
X594740Y808475D02*
Y818475D01*
X589740Y813474D02*
X599740D01*
X614740Y784195D02*
Y794195D01*
X609740Y789195D02*
X619740D01*
X634740Y714206D02*
Y724206D01*
X629740Y719207D02*
X639740D01*
X634740Y784200D02*
Y794200D01*
X629740Y789200D02*
X639740D01*
X634740Y774200D02*
Y784200D01*
X629740Y779200D02*
X639740D01*
X644740Y634200D02*
Y644200D01*
X639740Y639200D02*
X649740D01*
X654740Y834200D02*
Y844200D01*
X649740Y839200D02*
X659740D01*
X654740Y844200D02*
Y854200D01*
X649740Y849200D02*
X659740D01*
X524740Y695278D02*
Y705278D01*
X519740Y700278D02*
X529740D01*
X524740Y738363D02*
Y748363D01*
X519740Y743362D02*
X529740D01*
X614007Y704200D02*
Y714200D01*
X609008Y709200D02*
X619008D01*
X614007Y724200D02*
Y734200D01*
X609008Y729200D02*
X619008D01*
X634740Y704200D02*
Y714200D01*
X629740Y709200D02*
X639740D01*
X644740Y644200D02*
Y654200D01*
X639740Y649200D02*
X649740D01*
X574740Y723648D02*
X584740D01*
X579740Y718649D02*
Y728649D01*
X513113Y724200D02*
X523112D01*
X518112Y719200D02*
Y729200D01*
X556697Y724200D02*
X566697D01*
X561697Y719200D02*
Y729200D01*
X554740Y794819D02*
X564740D01*
X559740Y789819D02*
Y799819D01*
X574740Y794819D02*
X584740D01*
X579740Y789819D02*
Y799819D01*
X536697Y794200D02*
X546697D01*
X541697Y789200D02*
Y799200D01*
X654740Y654200D02*
X664740D01*
X659740Y649200D02*
Y659200D01*
M02*
