G04*
G04 #@! TF.GenerationSoftware,Altium Limited,Altium Designer,21.5.1 (32)*
G04*
G04 Layer_Color=16711935*
%FSLAX44Y44*%
%MOMM*%
G71*
G04*
G04 #@! TF.SameCoordinates,CE61D733-3D9C-4286-B01C-F70B086857D8*
G04*
G04*
G04 #@! TF.FilePolarity,Positive*
G04*
G01*
G75*
%ADD13C,0.2000*%
%ADD14C,0.1000*%
%ADD19C,0.1270*%
D13*
X507010Y575930D02*
G03*
X507010Y575930I-1000J0D01*
G01*
D14*
X542607Y329048D02*
G03*
X542607Y329048I-5000J0D01*
G01*
X842761Y497835D02*
G03*
X842761Y497835I-5000J0D01*
G01*
X566575Y517906D02*
X586575Y497906D01*
X526575Y517906D02*
X586575D01*
X526575Y437906D02*
Y517906D01*
Y437906D02*
X586575D01*
Y517906D01*
X1151270Y1033790D02*
X1200770D01*
X1151270Y368290D02*
X1200770D01*
X1151270D02*
Y1033790D01*
X1200770Y368290D02*
Y1033790D01*
X1149970Y368290D02*
Y1033790D01*
X1100470Y368290D02*
Y1033790D01*
Y368290D02*
X1149970D01*
X1100470Y1033790D02*
X1149970D01*
X511887Y770700D02*
X520888D01*
X511887Y787700D02*
X520888D01*
Y770700D02*
Y787700D01*
X511887Y770700D02*
Y787700D01*
X528607Y307048D02*
X559607D01*
X528607Y338048D02*
X559607D01*
Y307048D02*
Y338048D01*
X528607Y307048D02*
Y338048D01*
X763060Y749130D02*
X768560D01*
X763060Y759630D02*
X768560D01*
Y749130D02*
Y759630D01*
X763060Y749130D02*
Y759630D01*
X536254Y672985D02*
Y686985D01*
X514254Y672985D02*
Y686985D01*
X536254D01*
X514254Y672985D02*
X536254D01*
X552121Y659614D02*
X557621D01*
X552121Y670114D02*
X557621D01*
Y659614D02*
Y670114D01*
X552121Y659614D02*
Y670114D01*
X319019Y608120D02*
Y613620D01*
X308519Y608120D02*
Y613620D01*
Y608120D02*
X319019D01*
X308519Y613620D02*
X319019D01*
X893737Y326889D02*
Y352289D01*
X639737Y326889D02*
Y352289D01*
Y326889D02*
X893737D01*
X639737Y352289D02*
X893737D01*
X665761Y506835D02*
X846761D01*
X665761Y430835D02*
X846761D01*
Y506835D01*
X665761Y430835D02*
Y506835D01*
X407409Y416874D02*
Y432874D01*
Y416874D02*
X438410D01*
Y432874D01*
X407409D02*
X438410D01*
X408188Y364789D02*
Y380789D01*
Y364789D02*
X439188D01*
Y380789D01*
X408188D02*
X439188D01*
X486414Y364789D02*
Y380789D01*
X455414D02*
X486414D01*
X455414Y364789D02*
Y380789D01*
Y364789D02*
X486414D01*
X485635Y390831D02*
Y406831D01*
X454636D02*
X485635D01*
X454636Y390831D02*
Y406831D01*
Y390831D02*
X485635D01*
Y416874D02*
Y432874D01*
X454636D02*
X485635D01*
X454636Y416874D02*
Y432874D01*
Y416874D02*
X485635D01*
X582750Y574500D02*
Y589000D01*
X560750Y574500D02*
Y589000D01*
Y574500D02*
X582750D01*
X560750Y589000D02*
X582750D01*
X572875Y406584D02*
X578375D01*
X572875Y417084D02*
X578375D01*
X572875Y406584D02*
Y417084D01*
X578375Y406584D02*
Y417084D01*
X606237Y320353D02*
Y336853D01*
X596737Y320353D02*
Y336853D01*
X606237D01*
X596737Y320353D02*
X606237D01*
X722390Y578611D02*
X849390D01*
Y554611D02*
Y578611D01*
X722390Y554611D02*
Y578611D01*
Y554611D02*
X849390D01*
X748090Y591377D02*
Y596877D01*
X737590Y591377D02*
Y596877D01*
Y591377D02*
X748090D01*
X737590Y596877D02*
X748090D01*
X777369Y591377D02*
Y596877D01*
X787869Y591377D02*
Y596877D01*
X777369D02*
X787869D01*
X777369Y591377D02*
X787869D01*
X863378Y523585D02*
X873878D01*
X863378Y518085D02*
X873878D01*
X863378D02*
Y523585D01*
X873878Y518085D02*
Y523585D01*
X862128Y531840D02*
X872628D01*
X862128Y537340D02*
X872628D01*
Y531840D02*
Y537340D01*
X862128Y531840D02*
Y537340D01*
X850276Y915487D02*
Y942487D01*
X884277Y915487D02*
Y942487D01*
X850276D02*
X884277D01*
X850276Y915487D02*
X884277D01*
X838836Y537340D02*
X849336D01*
X838836Y531840D02*
X849336D01*
X838836D02*
Y537340D01*
X849336Y531840D02*
Y537340D01*
X786153Y928088D02*
X795653D01*
X786153Y911588D02*
X795653D01*
Y928088D01*
X786153Y911588D02*
Y928088D01*
X777559Y911589D02*
Y928089D01*
X768059Y911589D02*
Y928089D01*
X777559D01*
X768059Y911589D02*
X777559D01*
X750309Y958159D02*
Y988659D01*
X767809Y958159D02*
Y988659D01*
X750309D02*
X767809D01*
X750309Y958159D02*
X767809D01*
X933500Y591889D02*
X949500D01*
Y622889D01*
X933500D02*
X949500D01*
X933500Y591889D02*
Y622889D01*
X934500Y721250D02*
X947000D01*
X934500Y701250D02*
Y721250D01*
Y701250D02*
X947000D01*
Y721250D01*
X903750Y594108D02*
Y624108D01*
X918750D01*
Y594108D02*
Y624108D01*
X903750Y594108D02*
X918750D01*
X903750Y599108D02*
X908750Y594108D01*
X920250Y692309D02*
Y722310D01*
X905250Y692309D02*
X920250D01*
X905250D02*
Y722310D01*
X920250D01*
X915250D02*
X920250Y717310D01*
X737590Y603241D02*
X748090D01*
X737590Y608741D02*
X748090D01*
Y603241D02*
Y608741D01*
X737590Y603241D02*
Y608741D01*
X407409Y406831D02*
X438410D01*
Y390831D02*
Y406831D01*
X407409Y390831D02*
X438410D01*
X407409D02*
Y406831D01*
X606237Y291310D02*
Y307810D01*
X596738Y291310D02*
Y307810D01*
X606237D01*
X596738Y291310D02*
X606237D01*
X365842Y487921D02*
X374342D01*
X365842Y472161D02*
Y487921D01*
Y472161D02*
X374342D01*
Y487921D01*
X390355Y487861D02*
X398854D01*
X390355Y472101D02*
Y487861D01*
Y472101D02*
X398854D01*
Y487861D01*
X339128Y505837D02*
Y521837D01*
X347128D01*
Y505837D02*
Y521837D01*
X339128Y505837D02*
X347128D01*
X339128Y509337D02*
X342628Y505837D01*
X390605Y507119D02*
Y523119D01*
X398605D01*
Y507119D02*
Y523119D01*
X390605Y507119D02*
X398605D01*
X390605Y510619D02*
X394105Y507119D01*
X366091Y505834D02*
Y521834D01*
X374091D01*
Y505834D02*
Y521834D01*
X366091Y505834D02*
X374091D01*
X366091Y509334D02*
X369592Y505834D01*
X338878Y487048D02*
X347378D01*
X338878Y471288D02*
Y487048D01*
Y471288D02*
X347378D01*
Y487048D01*
X512230Y953260D02*
X532480Y973510D01*
X512230Y893510D02*
Y973510D01*
Y893510D02*
X572230D01*
Y973510D01*
X512230D02*
X572230D01*
X720510Y778000D02*
X740760Y798250D01*
X720510Y718250D02*
Y798250D01*
Y718250D02*
X780510D01*
Y798250D01*
X720510D02*
X780510D01*
X676072Y992806D02*
Y1000806D01*
Y992806D02*
X688072D01*
Y1000806D01*
X676072D02*
X688072D01*
X652473Y992806D02*
Y1000806D01*
Y992806D02*
X664473D01*
Y1000806D01*
X652473D02*
X664473D01*
X385438Y608120D02*
X395939D01*
X385438Y613620D02*
X395939D01*
Y608120D02*
Y613620D01*
X385438Y608120D02*
Y613620D01*
X538655Y713320D02*
Y730320D01*
X529655Y713320D02*
Y730320D01*
Y713320D02*
X538655D01*
X529655Y730320D02*
X538655D01*
X580240Y685451D02*
Y691451D01*
X569240Y685451D02*
Y691451D01*
X580240D01*
X569240Y685451D02*
X580240D01*
X430543Y744700D02*
X447543D01*
X430543Y753700D02*
X447543D01*
X430543Y744700D02*
Y753700D01*
X447543Y744700D02*
Y753700D01*
X569490Y703744D02*
X579990D01*
X569490Y709244D02*
X579990D01*
X569490Y703744D02*
Y709244D01*
X579990Y703744D02*
Y709244D01*
X571240Y782664D02*
X588240D01*
X571240Y773664D02*
X588240D01*
Y782664D01*
X571240Y773664D02*
Y782664D01*
X435700Y634060D02*
X665699D01*
X435700Y864060D02*
X665699D01*
X435700Y634060D02*
Y864060D01*
X665699Y634060D02*
Y864060D01*
X712094Y648627D02*
Y659128D01*
X706594Y648627D02*
Y659128D01*
X712094D01*
X706594Y648627D02*
X712094D01*
X1066070Y728640D02*
X1076571D01*
X1066070Y734140D02*
X1076571D01*
Y728640D02*
Y734140D01*
X1066070Y728640D02*
Y734140D01*
Y710990D02*
X1076571D01*
X1066070Y716490D02*
X1076571D01*
Y710990D02*
Y716490D01*
X1066070Y710990D02*
Y716490D01*
X400440Y877492D02*
X410939D01*
X400440Y871992D02*
X410939D01*
X400440D02*
Y877492D01*
X410939Y871992D02*
Y877492D01*
X400441Y862449D02*
X410941D01*
X400441Y856950D02*
X410941D01*
X400441D02*
Y862449D01*
X410941Y856950D02*
Y862449D01*
X400440Y832364D02*
X410940D01*
X400440Y826864D02*
X410940D01*
X400440D02*
Y832364D01*
X410940Y826864D02*
Y832364D01*
X400440Y847407D02*
X410940D01*
X400440Y841907D02*
X410940D01*
X400440D02*
Y847407D01*
X410940Y841907D02*
Y847407D01*
D19*
X513280Y572930D02*
Y592930D01*
Y572930D02*
X538280D01*
Y592930D01*
X513280D02*
X538280D01*
M02*
