%TF.GenerationSoftware,Altium Limited,Altium Designer,21.6.1 (37)*%
G04 Layer_Color=32896*
%FSLAX45Y45*%
%MOMM*%
%TF.SameCoordinates,16E63DA4-43ED-4674-A1E0-7AC0996D3122*%
%TF.FilePolarity,Positive*%
%TF.FileFunction,Other,Top_3D_Body*%
%TF.Part,Single*%
G01*
G75*
%TA.AperFunction,NonConductor*%
%ADD75C,0.20000*%
D75*
X2839602Y8972639D02*
X3111382Y8972639D01*
X3111382Y8858339D02*
X3111382Y8972639D01*
X2839602Y8858339D02*
X3111382Y8858339D01*
X2839602Y8858339D02*
X2839602Y8972639D01*
X10198857Y3159181D02*
X10470637Y3159181D01*
X10470637Y3044881D02*
X10470637Y3159181D01*
X10198857Y3044881D02*
X10470637Y3044881D01*
X10198857Y3044881D02*
X10198857Y3159181D01*
X6343637Y4384786D02*
X6457937Y4384786D01*
X6457937Y4656566D01*
X6343637Y4656566D02*
X6457937Y4656566D01*
X6343637Y4384786D02*
X6343637Y4656566D01*
X8675713Y9775899D02*
X8675713Y9890199D01*
X8675713Y9775899D02*
X8947493Y9775899D01*
X8947493Y9890199D01*
X8675713Y9890199D02*
X8947493Y9890199D01*
X6976400Y9295236D02*
X6976400Y9409536D01*
X6976400Y9295236D02*
X7248180Y9295236D01*
X7248180Y9409536D01*
X6976400Y9409536D02*
X7248180Y9409536D01*
X9114109Y7544648D02*
X9385889Y7544648D01*
X9385889Y7430348D02*
X9385889Y7544648D01*
X9114109Y7430348D02*
X9385889Y7430348D01*
X9114109Y7430348D02*
X9114109Y7544648D01*
X7721407Y10103151D02*
X7721407Y10228149D01*
X7721407Y10103151D02*
X7921407Y10103151D01*
X7921407Y10228149D01*
X7721407Y10228149D02*
X7921407Y10228149D01*
X7951483Y9617312D02*
X7951483Y9837316D01*
X8096486Y9837316D01*
X8096486Y9617312D02*
X8096486Y9837316D01*
X7951483Y9617312D02*
X8096486Y9617312D01*
X8666121Y6562636D02*
X8937901Y6562636D01*
X8937901Y6448336D02*
X8937901Y6562636D01*
X8666121Y6448336D02*
X8937901Y6448336D01*
X8666121Y6448336D02*
X8666121Y6562636D01*
X6900057Y6593103D02*
X6955053Y6593103D01*
X6900057Y6488100D02*
X6900057Y6593103D01*
X6900057Y6488100D02*
X6955053Y6488100D01*
X6955053Y6593103D01*
%TF.MD5,93d874f6da4c8acbfd890a959810d34a*%
M02*
