G04*
G04 #@! TF.GenerationSoftware,Altium Limited,Altium Designer,21.5.1 (32)*
G04*
G04 Layer_Color=32768*
%FSLAX44Y44*%
%MOMM*%
G71*
G04*
G04 #@! TF.SameCoordinates,CE61D733-3D9C-4286-B01C-F70B086857D8*
G04*
G04*
G04 #@! TF.FilePolarity,Positive*
G04*
G01*
G75*
%ADD14C,0.1000*%
%ADD99C,0.0500*%
D14*
X516387Y774700D02*
Y783700D01*
X511887Y779200D02*
X520888D01*
X544107Y317548D02*
Y327548D01*
X539106Y322548D02*
X549107D01*
X765810Y751630D02*
Y757130D01*
X763060Y754380D02*
X768560D01*
X545255Y670486D02*
Y689485D01*
X505255Y670486D02*
Y689485D01*
X545255D01*
X505255Y670486D02*
X545255D01*
X520254Y679985D02*
X530254D01*
X525255Y674985D02*
Y684985D01*
X554870Y662114D02*
Y667614D01*
X552121Y664863D02*
X557621D01*
X311019Y610870D02*
X316519D01*
X313769Y608120D02*
Y613620D01*
X756261Y463834D02*
Y473834D01*
X751261Y468835D02*
X761261D01*
X566750Y581750D02*
X576750D01*
X571750Y576750D02*
Y586750D01*
X575625Y409084D02*
Y414584D01*
X572875Y411835D02*
X578375D01*
X596737Y328603D02*
X606237D01*
X601487Y323853D02*
Y333353D01*
X780890Y566611D02*
X790890D01*
X785890Y561611D02*
Y571611D01*
X740090Y594127D02*
X745590D01*
X742840Y591377D02*
Y596877D01*
X779869Y594127D02*
X785369D01*
X782619Y591377D02*
Y596877D01*
X868628Y518085D02*
Y523585D01*
X865878Y520835D02*
X871378D01*
X867378Y531840D02*
Y537340D01*
X864628Y534590D02*
X870128D01*
X862277Y928987D02*
X872277D01*
X867276Y923987D02*
Y933987D01*
X844086Y531840D02*
Y537340D01*
X841336Y534590D02*
X846835D01*
X790903Y915088D02*
Y924588D01*
X786153Y919838D02*
X795653D01*
X768059Y919839D02*
X777559D01*
X772809Y915089D02*
Y924588D01*
X754059Y973409D02*
X764059D01*
X759059Y968409D02*
Y978409D01*
X742840Y603241D02*
Y608741D01*
X740090Y605991D02*
X745590D01*
X596738Y299560D02*
X606237D01*
X601487Y294810D02*
Y304310D01*
X682072Y994306D02*
Y999306D01*
X679572Y996806D02*
X684572D01*
X658473Y994306D02*
Y999306D01*
X655973Y996806D02*
X660973D01*
X390689Y608120D02*
Y613620D01*
X387939Y610870D02*
X393438D01*
X529655Y721820D02*
X538655D01*
X534155Y717320D02*
Y726320D01*
X439043Y744700D02*
Y753700D01*
X434543Y749200D02*
X443543D01*
X574740Y703744D02*
Y709244D01*
X571990Y706494D02*
X577490D01*
X579740Y773664D02*
Y782664D01*
X575240Y778164D02*
X584240D01*
X550700Y744060D02*
Y754060D01*
X545700Y749060D02*
X555700D01*
X706594Y653877D02*
X712094D01*
X709344Y651127D02*
Y656627D01*
X1071321Y728640D02*
Y734140D01*
X1068571Y731390D02*
X1074071D01*
X1071321Y710990D02*
Y716490D01*
X1068571Y713740D02*
X1074071D01*
X405690Y871992D02*
Y877492D01*
X402939Y874742D02*
X408440D01*
X405691Y856950D02*
Y862449D01*
X402941Y859700D02*
X408441D01*
X405690Y826864D02*
Y832364D01*
X402940Y829614D02*
X408440D01*
X405690Y841907D02*
Y847407D01*
X402940Y844657D02*
X408440D01*
D99*
X524075Y524156D02*
X589075D01*
X524075Y431656D02*
Y524156D01*
Y431656D02*
X589075D01*
Y524156D01*
X1149020Y1036040D02*
X1203020D01*
Y366040D02*
Y1036040D01*
X1149020Y366040D02*
X1203020D01*
X1149020D02*
Y1036040D01*
X1098220Y366040D02*
Y1036040D01*
Y366040D02*
X1152220D01*
Y1036040D01*
X1098220D02*
X1152220D01*
X510888Y768200D02*
X521887D01*
X510888Y790200D02*
X521887D01*
Y768200D02*
Y790200D01*
X510888Y768200D02*
Y790200D01*
X512357Y304048D02*
X575857D01*
X512357Y341048D02*
X575857D01*
Y304048D02*
Y341048D01*
X512357Y304048D02*
Y341048D01*
X761810Y746880D02*
X769810D01*
X761810Y761880D02*
X769810D01*
Y746880D02*
Y761880D01*
X761810Y746880D02*
Y761880D01*
X548871Y653864D02*
X560871D01*
X548871Y675864D02*
X560871D01*
Y653864D02*
Y675864D01*
X548871Y653864D02*
Y675864D01*
X321269Y606870D02*
Y614870D01*
X306269Y606870D02*
Y614870D01*
Y606870D02*
X321269D01*
X306269Y614870D02*
X321269D01*
X761737Y339589D02*
X771737D01*
X766737Y334589D02*
Y344589D01*
X636237Y324139D02*
Y355039D01*
Y324139D02*
X897237D01*
Y355039D01*
X636237D02*
X897237D01*
X664761Y524835D02*
X847761D01*
X664761Y412835D02*
X847761D01*
Y524835D01*
X664761Y412835D02*
Y524835D01*
X400910Y413374D02*
Y436374D01*
Y413374D02*
X444909D01*
Y436374D01*
X400910D02*
X444909D01*
X401688Y361289D02*
Y384289D01*
Y361289D02*
X445688D01*
Y384289D01*
X401688D02*
X445688D01*
X508780Y568930D02*
Y596930D01*
Y568930D02*
X542780D01*
Y596930D01*
X508780D02*
X542780D01*
X492914Y361289D02*
Y384289D01*
X448914D02*
X492914D01*
X448914Y361289D02*
Y384289D01*
Y361289D02*
X492914D01*
X492136Y387331D02*
Y410331D01*
X448136D02*
X492136D01*
X448136Y387331D02*
Y410331D01*
Y387331D02*
X492136D01*
Y413374D02*
Y436374D01*
X448136D02*
X492136D01*
X448136Y413374D02*
Y436374D01*
Y413374D02*
X492136D01*
X593250Y568750D02*
Y594750D01*
X550250Y568750D02*
Y594750D01*
Y568750D02*
X593250D01*
X550250Y594750D02*
X593250D01*
X569625Y400834D02*
X581625D01*
X569625Y422834D02*
X581625D01*
X569625Y400834D02*
Y422834D01*
X581625Y400834D02*
Y422834D01*
X608987Y315603D02*
Y341603D01*
X593987Y315603D02*
Y341603D01*
X608987D01*
X593987Y315603D02*
X608987D01*
X850390Y553611D02*
Y579611D01*
X721390D02*
X850390D01*
X721390Y553611D02*
Y579611D01*
Y553611D02*
X850390D01*
X750340Y590127D02*
Y598127D01*
X735340Y590127D02*
Y598127D01*
Y590127D02*
X750340D01*
X735340Y598127D02*
X750340D01*
X775119Y590127D02*
Y598127D01*
X790119Y590127D02*
Y598127D01*
X775119D02*
X790119D01*
X775119Y590127D02*
X790119D01*
X857628Y526835D02*
X879628D01*
X857628Y514835D02*
X879628D01*
X857628D02*
Y526835D01*
X879628Y514835D02*
Y526835D01*
X859878Y530590D02*
X874878D01*
X859878Y538590D02*
X874878D01*
Y530590D02*
Y538590D01*
X859878Y530590D02*
Y538590D01*
X839276Y909986D02*
Y947987D01*
X895276Y909986D02*
Y947987D01*
X839276D02*
X895276D01*
X839276Y909986D02*
X895276D01*
X833586Y540090D02*
X854585D01*
X833586Y529090D02*
X854585D01*
X833586D02*
Y540090D01*
X854585Y529090D02*
Y540090D01*
X783403Y932838D02*
X798403D01*
X783403Y906838D02*
X798403D01*
Y932838D01*
X783403Y906838D02*
Y932838D01*
X780309Y906839D02*
Y932839D01*
X765309Y906839D02*
Y932839D01*
X780309D01*
X765309Y906839D02*
X780309D01*
X738059Y955409D02*
Y991409D01*
X780059Y955409D02*
Y991409D01*
X738059D02*
X780059D01*
X738059Y955409D02*
X780059D01*
X929999Y584889D02*
X953000D01*
Y629889D01*
X929999D02*
X953000D01*
X929999Y584889D02*
Y629889D01*
X930750Y728500D02*
X950750D01*
X930750Y694000D02*
Y728500D01*
Y694000D02*
X950750D01*
Y728500D01*
X898250Y584858D02*
Y633358D01*
X924250D01*
Y584858D02*
Y633358D01*
X898250Y584858D02*
X924250D01*
X925750Y683060D02*
Y731560D01*
X899750Y683060D02*
X925750D01*
X899750D02*
Y731560D01*
X925750D01*
X735340Y601991D02*
X750340D01*
X735340Y609991D02*
X750340D01*
Y601991D02*
Y609991D01*
X735340Y601991D02*
Y609991D01*
X400910Y410331D02*
X444909D01*
Y387331D02*
Y410331D01*
X400910Y387331D02*
X444909D01*
X400910D02*
Y410331D01*
X608988Y286560D02*
Y312560D01*
X593987Y286560D02*
Y312560D01*
X608988D01*
X593987Y286560D02*
X608988D01*
X362592Y494291D02*
X377592D01*
X362592Y465791D02*
Y494291D01*
Y465791D02*
X377592D01*
Y494291D01*
X387104Y494231D02*
X402105D01*
X387104Y465731D02*
Y494231D01*
Y465731D02*
X402105D01*
Y494231D01*
X336128Y497337D02*
Y530336D01*
X350128D01*
Y497337D02*
Y530336D01*
X336128Y497337D02*
X350128D01*
X387604Y498619D02*
Y531619D01*
X401605D01*
Y498619D02*
Y531619D01*
X387604Y498619D02*
X401605D01*
X363091Y497334D02*
Y530334D01*
X377092D01*
Y497334D02*
Y530334D01*
X363091Y497334D02*
X377092D01*
X335628Y493418D02*
X350628D01*
X335628Y464919D02*
Y493418D01*
Y464919D02*
X350628D01*
Y493418D01*
X501730Y883010D02*
Y984010D01*
Y883010D02*
X582730D01*
Y984010D01*
X501730D02*
X582730D01*
X710010Y707750D02*
Y808750D01*
Y707750D02*
X791010D01*
Y808750D01*
X710010D02*
X791010D01*
X672072Y991806D02*
X692072D01*
Y1001806D01*
X672072D02*
X692072D01*
X672072Y991806D02*
Y1001806D01*
X648473Y991806D02*
X668473D01*
Y1001806D01*
X648473D02*
X668473D01*
X648473Y991806D02*
Y1001806D01*
X383189Y606870D02*
X398189D01*
X383189Y614870D02*
X398189D01*
Y606870D02*
Y614870D01*
X383189Y606870D02*
Y614870D01*
X539655Y710820D02*
Y732820D01*
X528655Y710820D02*
Y732820D01*
Y710820D02*
X539655D01*
X528655Y732820D02*
X539655D01*
X588740Y679451D02*
Y697451D01*
X560740Y679451D02*
Y697451D01*
X588740D01*
X560740Y679451D02*
X588740D01*
X571740Y688452D02*
X577740D01*
X574740Y685451D02*
Y691451D01*
X428043Y743700D02*
X450043D01*
X428043Y754700D02*
X450043D01*
X428043Y743700D02*
Y754700D01*
X450043Y743700D02*
Y754700D01*
X563740Y700494D02*
X585740D01*
X563740Y712494D02*
X585740D01*
X563740Y700494D02*
Y712494D01*
X585740Y700494D02*
Y712494D01*
X568740Y783664D02*
X590740D01*
X568740Y772664D02*
X590740D01*
Y783664D01*
X568740Y772664D02*
Y783664D01*
X425700Y624060D02*
X675700D01*
X425700Y874060D02*
X675700D01*
X425700Y624060D02*
Y874060D01*
X675700Y624060D02*
Y874060D01*
X715344Y642878D02*
Y664877D01*
X703344Y642878D02*
Y664877D01*
X715344D01*
X703344Y642878D02*
X715344D01*
X1060321Y725390D02*
X1082321D01*
X1060321Y737390D02*
X1082321D01*
Y725390D02*
Y737390D01*
X1060321Y725390D02*
Y737390D01*
Y707740D02*
X1082321D01*
X1060321Y719740D02*
X1082321D01*
Y707740D02*
Y719740D01*
X1060321Y707740D02*
Y719740D01*
X394690Y880742D02*
X416689D01*
X394690Y868742D02*
X416689D01*
X394690D02*
Y880742D01*
X416689Y868742D02*
Y880742D01*
X394691Y865700D02*
X416691D01*
X394691Y853700D02*
X416691D01*
X394691D02*
Y865700D01*
X416691Y853700D02*
Y865700D01*
X394690Y835614D02*
X416689D01*
X394690Y823614D02*
X416689D01*
X394690D02*
Y835614D01*
X416689Y823614D02*
Y835614D01*
X394690Y850657D02*
X416690D01*
X394690Y838657D02*
X416690D01*
X394690D02*
Y850657D01*
X416690Y838657D02*
Y850657D01*
M02*
