%TF.GenerationSoftware,Altium Limited,Altium Designer,21.5.1 (32)*%
G04 Layer_Color=16711935*
%FSLAX45Y45*%
%MOMM*%
%TF.SameCoordinates,620DA487-9358-4998-A31C-56A073A1AE4C*%
%TF.FilePolarity,Positive*%
%TF.FileFunction,Other,Mechanical_13*%
%TF.Part,Single*%
G01*
G75*
%TA.AperFunction,NonConductor*%
%ADD75C,0.20000*%
%ADD77C,0.10000*%
%ADD85C,0.12700*%
D75*
X5070100Y5759300D02*
G03*
X5070100Y5759300I-10000J0D01*
G01*
X8781469Y8376958D02*
Y8452958D01*
X8877469D01*
Y8376958D02*
Y8452958D01*
X8781469Y8376958D02*
X8877469D01*
D77*
X5426065Y3290480D02*
G03*
X5426065Y3290480I-50000J0D01*
G01*
X8427613Y4978347D02*
G03*
X8427613Y4978347I-50000J0D01*
G01*
X8576005Y8165533D02*
X8779205D01*
Y8038533D02*
Y8165533D01*
X8576005Y8038533D02*
X8779205D01*
X8576005D02*
Y8165533D01*
X8619464Y8772745D02*
X8822664D01*
Y8645745D02*
Y8772745D01*
X8619464Y8645745D02*
X8822664D01*
X8619464D02*
Y8772745D01*
X5665749Y5179060D02*
X5865749Y4979060D01*
X5265750Y5179060D02*
X5865749D01*
X5265750Y4379062D02*
Y5179060D01*
Y4379062D02*
X5865749D01*
Y5179060D01*
X11512702Y10337902D02*
X12007698D01*
X11512702Y3682898D02*
X12007698D01*
X11512702D02*
Y10337902D01*
X12007698Y3682898D02*
Y10337902D01*
X11499698Y3682898D02*
Y10337902D01*
X11004702Y3682898D02*
Y10337902D01*
Y3682898D02*
X11499698D01*
X11004702Y10337902D02*
X11499698D01*
X5118874Y7707000D02*
X5208877D01*
X5118874Y7877002D02*
X5208877D01*
Y7707000D02*
Y7877002D01*
X5118874Y7707000D02*
Y7877002D01*
X5286066Y3070479D02*
X5596068D01*
X5286066Y3380481D02*
X5596068D01*
Y3070479D02*
Y3380481D01*
X5286066Y3070479D02*
Y3380481D01*
X7630602Y7491298D02*
X7685598D01*
X7630602Y7596302D02*
X7685598D01*
Y7491298D02*
Y7596302D01*
X7630602Y7491298D02*
Y7596302D01*
X5362543Y6729854D02*
Y6869854D01*
X5142543Y6729854D02*
Y6869854D01*
X5362543D01*
X5142543Y6729854D02*
X5362543D01*
X5521207Y6596138D02*
X5576208D01*
X5521207Y6701136D02*
X5576208D01*
Y6596138D02*
Y6701136D01*
X5521207Y6596138D02*
Y6701136D01*
X3190194Y6081202D02*
Y6136198D01*
X3085191Y6081202D02*
Y6136198D01*
Y6081202D02*
X3190194D01*
X3085191Y6136198D02*
X3190194D01*
X8937371Y3268889D02*
Y3522889D01*
X6397371Y3268889D02*
Y3522889D01*
Y3268889D02*
X8937371D01*
X6397371Y3522889D02*
X8937371D01*
X6657609Y5068346D02*
X8467613D01*
X6657609Y4308348D02*
X8467613D01*
Y5068346D01*
X6657609Y4308348D02*
Y5068346D01*
X4074094Y4168739D02*
Y4328739D01*
Y4168739D02*
X4384096D01*
Y4328739D01*
X4074094D02*
X4384096D01*
X4081877Y3647887D02*
Y3807887D01*
Y3647887D02*
X4391878D01*
Y3807887D01*
X4081877D02*
X4391878D01*
X4864141Y3647887D02*
Y3807887D01*
X4554139D02*
X4864141D01*
X4554139Y3647887D02*
Y3807887D01*
Y3647887D02*
X4864141D01*
X4856353Y3908313D02*
Y4068313D01*
X4546356D02*
X4856353D01*
X4546356Y3908313D02*
Y4068313D01*
Y3908313D02*
X4856353D01*
Y4168739D02*
Y4328739D01*
X4546356D02*
X4856353D01*
X4546356Y4168739D02*
Y4328739D01*
Y4168739D02*
X4856353D01*
X5827497Y5744997D02*
Y5890001D01*
X5607497Y5744997D02*
Y5890001D01*
Y5744997D02*
X5827497D01*
X5607497Y5890001D02*
X5827497D01*
X5728752Y4065844D02*
X5783753D01*
X5728752Y4170843D02*
X5783753D01*
X5728752Y4065844D02*
Y4170843D01*
X5783753Y4065844D02*
Y4170843D01*
X6062368Y3203530D02*
Y3368529D01*
X5967372Y3203530D02*
Y3368529D01*
X6062368D01*
X5967372Y3203530D02*
X6062368D01*
X7223902Y5786110D02*
X8493902D01*
Y5546110D02*
Y5786110D01*
X7223902Y5546110D02*
Y5786110D01*
Y5546110D02*
X8493902D01*
X7480899Y5913770D02*
Y5968766D01*
X7375896Y5913770D02*
Y5968766D01*
Y5913770D02*
X7480899D01*
X7375896Y5968766D02*
X7480899D01*
X7773690Y5913770D02*
Y5968766D01*
X7878694Y5913770D02*
Y5968766D01*
X7773690D02*
X7878694D01*
X7773690Y5913770D02*
X7878694D01*
X8633780Y5235849D02*
X8738784D01*
X8633780Y5180853D02*
X8738784D01*
X8633780D02*
Y5235849D01*
X8738784Y5180853D02*
Y5235849D01*
X8621278Y5318399D02*
X8726282D01*
X8621278Y5373395D02*
X8726282D01*
Y5318399D02*
Y5373395D01*
X8621278Y5318399D02*
Y5373395D01*
X8502761Y9154866D02*
Y9424868D01*
X8842765Y9154866D02*
Y9424868D01*
X8502761D02*
X8842765D01*
X8502761Y9154866D02*
X8842765D01*
X8388355Y5373395D02*
X8493359D01*
X8388355Y5318399D02*
X8493359D01*
X8388355D02*
Y5373395D01*
X8493359Y5318399D02*
Y5373395D01*
X7861533Y9280881D02*
X7956529D01*
X7861533Y9115883D02*
X7956529D01*
Y9280881D01*
X7861533Y9115883D02*
Y9280881D01*
X7775589Y9115888D02*
Y9280886D01*
X7680593Y9115888D02*
Y9280886D01*
X7775589D01*
X7680593Y9115888D02*
X7775589D01*
X7503093Y9581587D02*
Y9886590D01*
X7678089Y9581587D02*
Y9886590D01*
X7503093D02*
X7678089D01*
X7503093Y9581587D02*
X7678089D01*
X9334996Y5918888D02*
X9494995D01*
Y6228890D01*
X9334996D02*
X9494995D01*
X9334996Y5918888D02*
Y6228890D01*
X9345000Y7212498D02*
X9469999D01*
X9345000Y7012498D02*
Y7212498D01*
Y7012498D02*
X9469999D01*
Y7212498D01*
X9037497Y5941080D02*
Y6241084D01*
X9187499D01*
Y5941080D02*
Y6241084D01*
X9037497Y5941080D02*
X9187499D01*
X9037497Y5991082D02*
X9087499Y5941080D01*
X9202501Y6923095D02*
Y7223100D01*
X9052499Y6923095D02*
X9202501D01*
X9052499D02*
Y7223100D01*
X9202501D01*
X9152499D02*
X9202501Y7173097D01*
X7375896Y6032409D02*
X7480899D01*
X7375896Y6087405D02*
X7480899D01*
Y6032409D02*
Y6087405D01*
X7375896Y6032409D02*
Y6087405D01*
X4074094Y4068313D02*
X4384096D01*
Y3908313D02*
Y4068313D01*
X4074094Y3908313D02*
X4384096D01*
X4074094D02*
Y4068313D01*
X6062371Y2913100D02*
Y3078099D01*
X5967375Y2913100D02*
Y3078099D01*
X6062371D01*
X5967375Y2913100D02*
X6062371D01*
X3658417Y4879215D02*
X3743416D01*
X3658417Y4721613D02*
Y4879215D01*
Y4721613D02*
X3743416D01*
Y4879215D01*
X3903547Y4878610D02*
X3988545D01*
X3903547Y4721008D02*
Y4878610D01*
Y4721008D02*
X3988545D01*
Y4878610D01*
X3391279Y5058366D02*
Y5218366D01*
X3471279D01*
Y5058366D02*
Y5218366D01*
X3391279Y5058366D02*
X3471279D01*
X3391279Y5093368D02*
X3426280Y5058366D01*
X3906045Y5071189D02*
Y5231189D01*
X3986045D01*
Y5071189D02*
Y5231189D01*
X3906045Y5071189D02*
X3986045D01*
X3906045Y5106190D02*
X3941046Y5071189D01*
X3660914Y5058336D02*
Y5218336D01*
X3740914D01*
Y5058336D02*
Y5218336D01*
X3660914Y5058336D02*
X3740914D01*
X3660914Y5093338D02*
X3695916Y5058336D01*
X3388781Y4870485D02*
X3473779D01*
X3388781Y4712883D02*
Y4870485D01*
Y4712883D02*
X3473779D01*
Y4870485D01*
X5122301Y9532600D02*
X5324800Y9735099D01*
X5122301Y8935100D02*
Y9735099D01*
Y8935100D02*
X5722300D01*
Y9735099D01*
X5122301D02*
X5722300D01*
X7205101Y7780000D02*
X7407600Y7982499D01*
X7205101Y7182500D02*
Y7982499D01*
Y7182500D02*
X7805100D01*
Y7982499D01*
X7205101D02*
X7805100D01*
X6760723Y9928062D02*
Y10008062D01*
Y9928062D02*
X6880723D01*
Y10008062D01*
X6760723D02*
X6880723D01*
X6524732Y9928062D02*
Y10008062D01*
Y9928062D02*
X6644731D01*
Y10008062D01*
X6524732D02*
X6644731D01*
X3854384Y6081202D02*
X3959388D01*
X3854384Y6136198D02*
X3959388D01*
Y6081202D02*
Y6136198D01*
X3854384Y6081202D02*
Y6136198D01*
X5386551Y7133198D02*
Y7303195D01*
X5296549Y7133198D02*
Y7303195D01*
Y7133198D02*
X5386551D01*
X5296549Y7303195D02*
X5386551D01*
X5802401Y6854513D02*
Y6914513D01*
X5692399Y6854513D02*
Y6914513D01*
X5802401D01*
X5692399Y6854513D02*
X5802401D01*
X4305428Y7447001D02*
X4475430D01*
X4305428Y7536998D02*
X4475430D01*
X4305428Y7447001D02*
Y7536998D01*
X4475430Y7447001D02*
Y7536998D01*
X5694898Y7037440D02*
X5799902D01*
X5694898Y7092436D02*
X5799902D01*
X5694898Y7037440D02*
Y7092436D01*
X5799902Y7037440D02*
Y7092436D01*
X5712399Y7826642D02*
X5882401D01*
X5712399Y7736645D02*
X5882401D01*
Y7826642D01*
X5712399Y7736645D02*
Y7826642D01*
X4356999Y6340602D02*
X6656995D01*
X4356999Y8640602D02*
X6656995D01*
X4356999Y6340602D02*
Y8640602D01*
X6656995Y6340602D02*
Y8640602D01*
X7120941Y6486271D02*
Y6591275D01*
X7065945Y6486271D02*
Y6591275D01*
X7120941D01*
X7065945Y6486271D02*
X7120941D01*
X10660705Y7286401D02*
X10765709D01*
X10660705Y7341398D02*
X10765709D01*
Y7286401D02*
Y7341398D01*
X10660705Y7286401D02*
Y7341398D01*
Y7109902D02*
X10765709D01*
X10660705Y7164898D02*
X10765709D01*
Y7109902D02*
Y7164898D01*
X10660705Y7109902D02*
Y7164898D01*
X4004396Y8774918D02*
X4109395D01*
X4004396Y8719922D02*
X4109395D01*
X4004396D02*
Y8774918D01*
X4109395Y8719922D02*
Y8774918D01*
X4004407Y8624494D02*
X4109410D01*
X4004407Y8569498D02*
X4109410D01*
X4004407D02*
Y8624494D01*
X4109410Y8569498D02*
Y8624494D01*
X4004396Y8323641D02*
X4109400D01*
X4004396Y8268645D02*
X4109400D01*
X4004396D02*
Y8323641D01*
X4109400Y8268645D02*
Y8323641D01*
X4004401Y8474070D02*
X4109400D01*
X4004401Y8419074D02*
X4109400D01*
X4004401D02*
Y8474070D01*
X4109400Y8419074D02*
Y8474070D01*
D85*
X5132802Y5729300D02*
Y5929300D01*
Y5729300D02*
X5382798D01*
Y5929300D01*
X5132802D02*
X5382798D01*
%TF.MD5,91b97b2e59bdbd7aa5fb2767ce7f226b*%
M02*
