%TF.GenerationSoftware,Altium Limited,Altium Designer,21.6.1 (37)*%
G04 Layer_Physical_Order=5*
G04 Layer_Color=8421376*
%FSLAX45Y45*%
%MOMM*%
%TF.SameCoordinates,16E63DA4-43ED-4674-A1E0-7AC0996D3122*%
%TF.FilePolarity,Negative*%
%TF.FileFunction,Copper,L5,Inr,Plane*%
%TF.Part,Single*%
G01*
G75*
%TA.AperFunction,ComponentPad*%
%ADD46C,1.50000*%
%TA.AperFunction,ViaPad*%
%ADD50C,0.50000*%
%TA.AperFunction,NonConductor*%
%ADD51C,1.01600*%
%TA.AperFunction,ComponentPad*%
%ADD52C,1.42000*%
G04:AMPARAMS|DCode=53|XSize=2.12mm|YSize=2.12mm|CornerRadius=0mm|HoleSize=0mm|Usage=FLASHONLY|Rotation=0.000|XOffset=0mm|YOffset=0mm|HoleType=Round|Shape=Relief|Width=0.5mm|Gap=0.2mm|Entries=4|*
%AMTHD53*
7,0,0,2.12000,1.72000,0.50000,45*
%
%ADD53THD53*%
G04:AMPARAMS|DCode=54|XSize=2mm|YSize=2mm|CornerRadius=0mm|HoleSize=0mm|Usage=FLASHONLY|Rotation=0.000|XOffset=0mm|YOffset=0mm|HoleType=Round|Shape=Relief|Width=0.5mm|Gap=0.2mm|Entries=4|*
%AMTHD54*
7,0,0,2.00000,1.60000,0.50000,45*
%
%ADD54THD54*%
%ADD55C,1.30000*%
%TA.AperFunction,ViaPad*%
G04:AMPARAMS|DCode=57|XSize=1.2mm|YSize=1.2mm|CornerRadius=0mm|HoleSize=0mm|Usage=FLASHONLY|Rotation=0.000|XOffset=0mm|YOffset=0mm|HoleType=Round|Shape=Relief|Width=0.5mm|Gap=0.2mm|Entries=4|*
%AMTHD57*
7,0,0,1.20000,0.80000,0.50000,45*
%
%ADD57THD57*%
%TA.AperFunction,ComponentPad*%
G04:AMPARAMS|DCode=58|XSize=3.6mm|YSize=3.6mm|CornerRadius=0mm|HoleSize=0mm|Usage=FLASHONLY|Rotation=0.000|XOffset=0mm|YOffset=0mm|HoleType=Round|Shape=Relief|Width=0.5mm|Gap=0.2mm|Entries=4|*
%AMTHD58*
7,0,0,3.60000,3.20000,0.50000,45*
%
%ADD58THD58*%
D46*
X8302371Y3395889D02*
D03*
X8048371Y3395889D02*
D03*
X7540371Y3395889D02*
D03*
X7032371Y3395889D02*
D03*
X6524371Y3395889D02*
D03*
X6778371Y3395889D02*
D03*
X7286371Y3395889D02*
D03*
X7794371Y3395889D02*
D03*
X8556371Y3395889D02*
D03*
X8810371Y3395889D02*
D03*
D50*
X5821073Y3342801D02*
D03*
X4904140Y3342806D02*
D03*
X11879648Y3608646D02*
D03*
X11942001Y3610894D02*
D03*
X11052466Y2622906D02*
D03*
X7365908Y7637842D02*
D03*
X7359348Y7730002D02*
D03*
X7198339Y7629076D02*
D03*
X7434864Y7589691D02*
D03*
X7430377Y7660001D02*
D03*
X7055573Y7619362D02*
D03*
X7115489Y7616199D02*
D03*
X7198205Y7833515D02*
D03*
X7144571Y7749828D02*
D03*
X6974506Y7936039D02*
D03*
X7145161Y8051744D02*
D03*
X7095663Y7980599D02*
D03*
X6974506Y8015599D02*
D03*
X7026833Y7827563D02*
D03*
X7043942Y7741871D02*
D03*
X7272600Y8063273D02*
D03*
X4803963Y8087568D02*
D03*
X5842101Y6372233D02*
D03*
X5897346Y6890721D02*
D03*
X5901715Y6988924D02*
D03*
X5897534Y7089890D02*
D03*
X5901715Y6780603D02*
D03*
X6206995Y6773767D02*
D03*
X7739313Y6875938D02*
D03*
X7369827Y7370896D02*
D03*
X7367392Y7456854D02*
D03*
X7430358Y7430573D02*
D03*
X7434864Y7515573D02*
D03*
X7590917Y7527171D02*
D03*
X7587605Y7442171D02*
D03*
X7788646Y7771182D02*
D03*
X7788646Y7686182D02*
D03*
X7724727Y7654752D02*
D03*
X7788646Y7469998D02*
D03*
X7657297Y7432500D02*
D03*
X7745969Y7342588D02*
D03*
X7587293Y7650309D02*
D03*
X7578660Y7356770D02*
D03*
X7516090Y7452649D02*
D03*
X6985417Y7383042D02*
D03*
X7493660Y7364420D02*
D03*
X7354628Y7809207D02*
D03*
X7439628Y7801757D02*
D03*
X6672511Y8372044D02*
D03*
X6254137Y8718338D02*
D03*
X6309364Y6785662D02*
D03*
X5803509Y6793631D02*
D03*
X6016808Y6893098D02*
D03*
X5704495Y6890598D02*
D03*
X5004162Y7293172D02*
D03*
X5103817Y7494137D02*
D03*
X5004162Y7483802D02*
D03*
X4917039Y8286334D02*
D03*
X4807039Y8298761D02*
D03*
X4913880Y8392617D02*
D03*
X4890164Y8090599D02*
D03*
X5109799Y8099420D02*
D03*
X5116998Y8191785D02*
D03*
X5323831Y8290598D02*
D03*
X5489455Y8069615D02*
D03*
X5707029Y8089431D02*
D03*
X5698722Y7982752D02*
D03*
X5710564Y7897752D02*
D03*
X6117593Y7593099D02*
D03*
X6010534Y7787066D02*
D03*
X6102118Y7991787D02*
D03*
X6206998Y8098060D02*
D03*
X6635520Y7655994D02*
D03*
X6757550Y7391633D02*
D03*
X6837550Y6980601D02*
D03*
X7550101Y6074793D02*
D03*
X6375207Y5469190D02*
D03*
X5498648Y5271646D02*
D03*
X12058372Y8599637D02*
D03*
X6510677Y6590599D02*
D03*
X6406993Y7186618D02*
D03*
X6211995Y6995886D02*
D03*
X6409495Y7093098D02*
D03*
X5718696Y6990598D02*
D03*
X5512190Y7186822D02*
D03*
X4317775Y7483230D02*
D03*
X4259440Y7552174D02*
D03*
X4148402Y7174395D02*
D03*
X3939052Y8747420D02*
D03*
X3939052Y8596996D02*
D03*
X3939052Y8296143D02*
D03*
X3939052Y8447733D02*
D03*
X8025439Y6979237D02*
D03*
X7980439Y7103337D02*
D03*
X8075460Y7293915D02*
D03*
X7525351Y7677501D02*
D03*
X7512292Y7589691D02*
D03*
X7646750Y7718456D02*
D03*
X7510454Y7804764D02*
D03*
X6747954Y8133637D02*
D03*
X6419826Y8493502D02*
D03*
X6306998Y8290601D02*
D03*
X6399770Y7705001D02*
D03*
X6204158Y7586138D02*
D03*
X6106998Y7690602D02*
D03*
X6110534Y7790599D02*
D03*
X6504495Y7899114D02*
D03*
X6414569Y7898172D02*
D03*
X6308888Y7978454D02*
D03*
X6190234Y7983071D02*
D03*
X6013211Y8193298D02*
D03*
X6003430Y8293098D02*
D03*
X6104133Y7892238D02*
D03*
X5900739Y7996861D02*
D03*
X5906998Y7890293D02*
D03*
X5894499Y8193366D02*
D03*
X5804696Y8087175D02*
D03*
X5807982Y8187568D02*
D03*
X5800956Y8296643D02*
D03*
X5500164Y8391636D02*
D03*
X5310339Y8490600D02*
D03*
X5364266Y8976589D02*
D03*
X5428488Y9412938D02*
D03*
X5346839Y9414764D02*
D03*
X5106207Y8707195D02*
D03*
X5194990Y8386267D02*
D03*
X5219974Y8280570D02*
D03*
X5110819Y8299018D02*
D03*
X5203062Y8182175D02*
D03*
X5513232Y8194858D02*
D03*
X5310530Y8186206D02*
D03*
X5499396Y7989618D02*
D03*
X5404462Y7882001D02*
D03*
X5311064Y8086475D02*
D03*
X5205753Y7990772D02*
D03*
X5216899Y7880465D02*
D03*
X5106591Y7895454D02*
D03*
X4909804Y7983085D02*
D03*
X4999495Y8287103D02*
D03*
X4913262Y8185251D02*
D03*
X4813571Y8194632D02*
D03*
X4703571Y8190601D02*
D03*
X4714187Y7991434D02*
D03*
X4615295Y7856753D02*
D03*
X4907434Y7691236D02*
D03*
X5088845Y7694789D02*
D03*
X5206973Y7673729D02*
D03*
X5206995Y7590602D02*
D03*
X5200962Y7494137D02*
D03*
X5120699Y7399879D02*
D03*
X5106995Y7190598D02*
D03*
X5510957Y6491322D02*
D03*
X5300342Y6898316D02*
D03*
X5511285Y6796714D02*
D03*
X5596893Y6880497D02*
D03*
X5608079Y6794716D02*
D03*
X5705558Y6692865D02*
D03*
X5711398Y6795591D02*
D03*
X5799601Y6694264D02*
D03*
X6014894Y6597853D02*
D03*
X6110239Y6778203D02*
D03*
X6098540Y6893506D02*
D03*
X6482668Y6994831D02*
D03*
X6302194Y7184638D02*
D03*
X6201926Y7191424D02*
D03*
X6110133Y7189972D02*
D03*
X6013681Y6782120D02*
D03*
X6002778Y7186618D02*
D03*
X6016808Y6690599D02*
D03*
X5902268Y7187334D02*
D03*
X5911270Y7383769D02*
D03*
X5998980Y7500597D02*
D03*
X6846574Y7390501D02*
D03*
X6889074Y7500662D02*
D03*
X7095297Y7273885D02*
D03*
X6877596Y7618368D02*
D03*
X6720050Y7617967D02*
D03*
X6679794Y7538027D02*
D03*
X7237989Y7566502D02*
D03*
X7363921Y7567503D02*
D03*
X7515936Y7527227D02*
D03*
X7270980Y7225425D02*
D03*
X7526101Y7209896D02*
D03*
X7409099Y7209896D02*
D03*
X6838812Y7168131D02*
D03*
X6718282Y7122923D02*
D03*
X6971787Y6753647D02*
D03*
X7185393Y6572574D02*
D03*
X6005578Y6272243D02*
D03*
X5920060Y6256329D02*
D03*
X6062048Y6335982D02*
D03*
X5103924Y6494827D02*
D03*
X5020637Y6704241D02*
D03*
X4336967Y6592455D02*
D03*
X4352799Y6776717D02*
D03*
X4613580Y6687445D02*
D03*
X4707690Y6789470D02*
D03*
X4894623Y6787712D02*
D03*
X4890164Y6890601D02*
D03*
X4909984Y7096427D02*
D03*
X4802240Y7091590D02*
D03*
X4722160Y7089450D02*
D03*
X4906905Y7290364D02*
D03*
X4895952Y7390631D02*
D03*
X4806199Y7491778D02*
D03*
X4804440Y7388872D02*
D03*
X4705932Y7399426D02*
D03*
X4611382Y7391070D02*
D03*
X4319951Y7333501D02*
D03*
X4390344Y7381458D02*
D03*
X3912880Y7106857D02*
D03*
X4299741Y7098630D02*
D03*
X4184092Y7090690D02*
D03*
X4085679Y7047164D02*
D03*
X12058502Y5535900D02*
D03*
X8964292Y5923887D02*
D03*
X8265457Y6040615D02*
D03*
X8431284Y6044300D02*
D03*
X8343962Y6045122D02*
D03*
X8194439Y6054967D02*
D03*
X8125501Y6054967D02*
D03*
X5274675Y6290353D02*
D03*
X5510429Y6354353D02*
D03*
X5353069Y5982443D02*
D03*
X5263959Y5982443D02*
D03*
X7372111Y5238349D02*
D03*
X7245111Y5238349D02*
D03*
X6918882Y5267257D02*
D03*
X6435029Y4954437D02*
D03*
X4101418Y5441055D02*
D03*
X9523535Y7491919D02*
D03*
X9620732Y6587939D02*
D03*
X7491155Y4042859D02*
D03*
X7380068Y4042859D02*
D03*
X3789608Y8004200D02*
D03*
X4247701Y9896547D02*
D03*
X4193691Y9942459D02*
D03*
X4133691Y9942459D02*
D03*
X4316191Y9843612D02*
D03*
X5591274Y8614767D02*
D03*
X5364266Y8706376D02*
D03*
X5270339Y8824322D02*
D03*
X5574009Y9106797D02*
D03*
X5570667Y8964559D02*
D03*
X5504031Y9023853D02*
D03*
X5230299Y9015842D02*
D03*
X6139318Y8625727D02*
D03*
X5811798Y8385796D02*
D03*
X6149039Y8877934D02*
D03*
X5711801Y8285799D02*
D03*
X5701695Y8395901D02*
D03*
X5601697Y8295903D02*
D03*
X5981996Y8911763D02*
D03*
X5685391Y9186850D02*
D03*
X5697171Y9370581D02*
D03*
X5137798Y9299478D02*
D03*
X5383571Y8606334D02*
D03*
X5766825Y9552759D02*
D03*
X5853139Y9510259D02*
D03*
X5103817Y8490977D02*
D03*
X5020860Y8696905D02*
D03*
X4927481Y8696905D02*
D03*
X4799039Y8730170D02*
D03*
X4747040Y8692460D02*
D03*
X4863483Y8690170D02*
D03*
X4689265Y8730170D02*
D03*
X4729721Y8607444D02*
D03*
X4531365Y8730170D02*
D03*
X4599045Y8690170D02*
D03*
X4397959Y8631343D02*
D03*
X4459341Y8690170D02*
D03*
X4393979Y8736253D02*
D03*
X4898286Y7797064D02*
D03*
X4715833Y7785299D02*
D03*
X4702317Y7695729D02*
D03*
X4611389Y7698558D02*
D03*
X4369623Y7690314D02*
D03*
X4298614Y7716128D02*
D03*
X4270628Y7769200D02*
D03*
X4299100Y8011157D02*
D03*
X4286080Y7859253D02*
D03*
X4286080Y7922366D02*
D03*
X4901142Y7581236D02*
D03*
X4899924Y7490602D02*
D03*
X4329232Y7233378D02*
D03*
X4699421Y7198170D02*
D03*
X5221995Y6201309D02*
D03*
X5136577Y6201179D02*
D03*
X5069375Y6218244D02*
D03*
X5020311Y6161968D02*
D03*
X4916899Y6174993D02*
D03*
X4968389Y6205792D02*
D03*
X4862539Y6200390D02*
D03*
X4682711Y6203975D02*
D03*
X4742546Y6199526D02*
D03*
X4802540Y6200429D02*
D03*
X4707567Y6490604D02*
D03*
X4609386Y6586384D02*
D03*
X5506107Y5809543D02*
D03*
X5868839Y5982443D02*
D03*
X5808839Y5982443D02*
D03*
X5621597Y6490599D02*
D03*
X5492942Y6692206D02*
D03*
X5407942Y6590599D02*
D03*
X5400957Y6495170D02*
D03*
X5516563Y6226202D02*
D03*
X5431563Y6197709D02*
D03*
X5360193Y6334527D02*
D03*
X5290957Y6490599D02*
D03*
X5206995Y6890598D02*
D03*
X5411894Y7197891D02*
D03*
X5304752Y7203725D02*
D03*
X5906999Y7306638D02*
D03*
X6106993Y7306940D02*
D03*
X5806459Y7306638D02*
D03*
X6296791Y7306638D02*
D03*
X6006998Y7306638D02*
D03*
X5106995Y7790602D02*
D03*
X4100436Y7644549D02*
D03*
X5103817Y7089890D02*
D03*
X5708898Y6599029D02*
D03*
X6106998Y6990598D02*
D03*
X4804498Y6988101D02*
D03*
X5306997Y7790597D02*
D03*
X5904496Y7593099D02*
D03*
X6206998Y7500597D02*
D03*
X6106998Y7500597D02*
D03*
X5601999Y8094136D02*
D03*
X5506999Y7890601D02*
D03*
X4607001Y8390595D02*
D03*
X4505925Y7087062D02*
D03*
X5103817Y6692206D02*
D03*
X9828809Y5029200D02*
D03*
X6852228Y7971039D02*
D03*
X6106998Y7381633D02*
D03*
X3996046Y3727887D02*
D03*
X3996046Y3988313D02*
D03*
X4466300Y3727887D02*
D03*
X3996046Y4248739D02*
D03*
X4466300Y3988313D02*
D03*
X5706999Y6490599D02*
D03*
X6106998Y6690599D02*
D03*
X4144607Y5360183D02*
D03*
X4483383Y5343023D02*
D03*
X5203459Y8094136D02*
D03*
X5306995Y7996528D02*
D03*
X5606994Y8190601D02*
D03*
X5428488Y9339900D02*
D03*
X5276221Y9331176D02*
D03*
X5570667Y9261288D02*
D03*
X5348488Y9339900D02*
D03*
X5348488Y9259900D02*
D03*
X5111880Y7285713D02*
D03*
X12058372Y8716201D02*
D03*
X6106998Y7098145D02*
D03*
X4806996Y7790597D02*
D03*
X5410530Y8294136D02*
D03*
X5005422Y8089904D02*
D03*
X6356995Y8600404D02*
D03*
X5306995Y7091454D02*
D03*
X5221995Y6690039D02*
D03*
X4606996Y7195598D02*
D03*
X5603458Y7087062D02*
D03*
X5506999Y7090598D02*
D03*
X5206995Y7090600D02*
D03*
X5411158Y7089890D02*
D03*
X5613869Y5244056D02*
D03*
X9713922Y7730424D02*
D03*
X9655152Y6754167D02*
D03*
X5781856Y5546936D02*
D03*
X6892076Y6757649D02*
D03*
X6654622Y5243819D02*
D03*
X8467611Y8102033D02*
D03*
X8512565Y8707367D02*
D03*
X8717419Y8394218D02*
D03*
X5911792Y5939456D02*
D03*
X5697007Y5216117D02*
D03*
X4969298Y5888627D02*
D03*
X5028300Y5829625D02*
D03*
X5017735Y9261612D02*
D03*
X7728091Y9063343D02*
D03*
X7908077Y9063343D02*
D03*
X3100192Y6055667D02*
D03*
X10763310Y8300419D02*
D03*
X6861071Y6590599D02*
D03*
X5806999Y7690602D02*
D03*
X4507001Y6490604D02*
D03*
X4903451Y7890596D02*
D03*
X4319991Y8390600D02*
D03*
X6865618Y8728229D02*
D03*
X9042500Y7487498D02*
D03*
X9273610Y6920368D02*
D03*
X5728725Y2994491D02*
D03*
X6121312Y3215478D02*
D03*
X5629250Y4299472D02*
D03*
X5502250Y4299472D02*
D03*
X4965679Y3727887D02*
D03*
X4006124Y6108700D02*
D03*
X6434887Y9968062D02*
D03*
X8952684Y9289867D02*
D03*
X7112290Y9475531D02*
D03*
X7012515Y9224703D02*
D03*
X6657077Y6586774D02*
D03*
X8133986Y7372262D02*
D03*
X5404746Y6892847D02*
D03*
X5906994Y8090601D02*
D03*
X9687021Y7218803D02*
D03*
X8798449Y5340650D02*
D03*
X6310229Y5590518D02*
D03*
X5406995Y6990598D02*
D03*
X5708446Y7189150D02*
D03*
X5103817Y6890598D02*
D03*
X7879372Y7015601D02*
D03*
X7806188Y6925598D02*
D03*
X6911541Y8214573D02*
D03*
X6823667Y8249573D02*
D03*
X4151432Y6715601D02*
D03*
X4081144Y6788300D02*
D03*
X4122551Y6991720D02*
D03*
X6006998Y7690602D02*
D03*
X8023984Y9462669D02*
D03*
X7869425Y9462669D02*
D03*
X7728091Y9462669D02*
D03*
X5406995Y7790602D02*
D03*
X5806999Y7490597D02*
D03*
X5506999Y7688123D02*
D03*
X5704489Y7390597D02*
D03*
X5206995Y7390602D02*
D03*
X10901734Y6247726D02*
D03*
X10960171Y5690900D02*
D03*
X11809700Y3608646D02*
D03*
X5006995Y7690602D02*
D03*
X11964700Y5475992D02*
D03*
X4319991Y8155594D02*
D03*
X6871030Y8813247D02*
D03*
X6823667Y8430600D02*
D03*
X11514716Y10280400D02*
D03*
X11836137Y10381394D02*
D03*
X11555700Y10328334D02*
D03*
X11607321Y10381394D02*
D03*
X6823667Y8334544D02*
D03*
X4906996Y6990598D02*
D03*
X6524371Y3589850D02*
D03*
X6778371Y3589850D02*
D03*
X6106998Y8090601D02*
D03*
X5906999Y7790597D02*
D03*
X4806996Y6790599D02*
D03*
X5103817Y6990598D02*
D03*
X5306995Y7890596D02*
D03*
X6057124Y8817729D02*
D03*
X5349052Y9186850D02*
D03*
X5422631Y9186850D02*
D03*
X5571236Y9186850D02*
D03*
X5506999Y6890603D02*
D03*
X5506994Y7790602D02*
D03*
X5406995Y8390600D02*
D03*
X5406995Y8490600D02*
D03*
X5606999Y6990598D02*
D03*
X5422631Y9260429D02*
D03*
X5606999Y7790597D02*
D03*
X5806999Y6990603D02*
D03*
X5806994Y7790597D02*
D03*
X5806999Y7390597D02*
D03*
X5906999Y7490597D02*
D03*
X5906999Y7690602D02*
D03*
X6106998Y8190601D02*
D03*
X6206998Y7690602D02*
D03*
X6306995Y7690602D02*
D03*
X6306998Y8190601D02*
D03*
X5756250Y4275492D02*
D03*
X5206995Y6990598D02*
D03*
X4466300Y4248739D02*
D03*
D51*
X3489222Y2568675D02*
X3517899Y2539999D01*
X11188699Y2539999D01*
X12128501Y3479801D01*
X12128501Y10704345D01*
X11275846Y11557001D02*
X12128501Y10704345D01*
X3441699Y11557001D02*
X11275846Y11557001D01*
X2539999Y10655301D02*
X3441699Y11557001D01*
X2539999Y3517899D02*
X2539999Y10655301D01*
X2539999Y3517899D02*
X3489222Y2568675D01*
D52*
X11633200Y3835400D02*
D03*
X11633200Y4089400D02*
D03*
X11633200Y4343400D02*
D03*
X11633200Y4597400D02*
D03*
X11633200Y4851400D02*
D03*
X11633200Y5105400D02*
D03*
X11633200Y5359400D02*
D03*
X11633200Y5613400D02*
D03*
X11633200Y5867400D02*
D03*
X11633200Y6121400D02*
D03*
X11633200Y6375400D02*
D03*
X11633200Y6629400D02*
D03*
X11633200Y6883400D02*
D03*
X11633200Y7137400D02*
D03*
X11633200Y7391400D02*
D03*
X11633200Y7645400D02*
D03*
X11633200Y7899400D02*
D03*
X11633200Y8153400D02*
D03*
X11633200Y8407400D02*
D03*
X11633200Y8661400D02*
D03*
X11633200Y8915400D02*
D03*
X11633200Y9169400D02*
D03*
X11633200Y9423400D02*
D03*
X11633200Y9677400D02*
D03*
X11633200Y9931400D02*
D03*
X11633200Y10185400D02*
D03*
X11887200Y3835400D02*
D03*
X11887200Y4089400D02*
D03*
X11887200Y4343400D02*
D03*
X11887200Y4597400D02*
D03*
X11887200Y4851400D02*
D03*
X11887200Y5105400D02*
D03*
X11887200Y5359400D02*
D03*
X11887200Y5613400D02*
D03*
X11887200Y5867400D02*
D03*
X11887200Y6121400D02*
D03*
X11887200Y6375400D02*
D03*
X11887200Y6629400D02*
D03*
X11887200Y6883400D02*
D03*
X11887200Y7137400D02*
D03*
X11887200Y7391400D02*
D03*
X11887200Y7645400D02*
D03*
X11887200Y7899400D02*
D03*
X11887200Y8153400D02*
D03*
X11887200Y8407400D02*
D03*
X11887200Y8661400D02*
D03*
X11887200Y8915400D02*
D03*
X11887200Y9169400D02*
D03*
X11887200Y9423400D02*
D03*
X11887200Y9677400D02*
D03*
X11887200Y9931400D02*
D03*
X11887200Y10185400D02*
D03*
X11379200Y10185400D02*
D03*
X11379200Y9931400D02*
D03*
X11379200Y9677400D02*
D03*
X11379200Y9423400D02*
D03*
X11379200Y9169400D02*
D03*
X11379200Y8915400D02*
D03*
X11379200Y8661400D02*
D03*
X11379200Y8407400D02*
D03*
X11379200Y8153400D02*
D03*
X11379200Y7899400D02*
D03*
X11379200Y6883400D02*
D03*
X11379200Y6629400D02*
D03*
X11379200Y6375400D02*
D03*
X11379200Y6121400D02*
D03*
X11379200Y5867400D02*
D03*
X11379200Y5613400D02*
D03*
X11379200Y5359400D02*
D03*
X11379200Y5105400D02*
D03*
X11379200Y4851400D02*
D03*
X11379200Y4597400D02*
D03*
X11379200Y4343400D02*
D03*
X11379200Y4089400D02*
D03*
X11379200Y3835400D02*
D03*
X11125200Y10185400D02*
D03*
X11125200Y9931400D02*
D03*
X11125200Y9677400D02*
D03*
X11125200Y9423400D02*
D03*
X11125200Y9169400D02*
D03*
X11125200Y8915400D02*
D03*
X11125200Y8661400D02*
D03*
X11125200Y8407400D02*
D03*
X11125200Y8153400D02*
D03*
X11125200Y7899400D02*
D03*
X11125200Y6883400D02*
D03*
X11125200Y6629400D02*
D03*
X11125200Y6375400D02*
D03*
X11125200Y6121400D02*
D03*
X11125200Y5867400D02*
D03*
X11125200Y5613400D02*
D03*
X11125200Y5359400D02*
D03*
X11125200Y5105400D02*
D03*
X11125200Y4851400D02*
D03*
X11125200Y4597400D02*
D03*
X11125200Y4343400D02*
D03*
X11125200Y4089400D02*
D03*
X11125200Y3835400D02*
D03*
X11379200Y7137400D02*
D03*
X11125200Y7137400D02*
D03*
X7350902Y5666110D02*
D03*
X7604902Y5666110D02*
D03*
X7858902Y5666110D02*
D03*
X8112902Y5666110D02*
D03*
X8366902Y5666110D02*
D03*
D53*
X11379200Y7645400D02*
D03*
X11379200Y7391400D02*
D03*
X11125200Y7645400D02*
D03*
X11125200Y7391400D02*
D03*
D54*
X9459628Y3753665D02*
D03*
D55*
X9459628Y4007665D02*
D03*
X9459628Y3245665D02*
D03*
X9459628Y3499665D02*
D03*
X9459628Y4261665D02*
D03*
X10274300Y4013200D02*
D03*
X10020300Y4013200D02*
D03*
X10274300Y4267200D02*
D03*
X10020300Y4267200D02*
D03*
X10274300Y4521200D02*
D03*
X10020300Y4521200D02*
D03*
X10274300Y4775200D02*
D03*
X10020300Y4775200D02*
D03*
X10274300Y5029200D02*
D03*
X10020300Y5029200D02*
D03*
X10274300Y5283200D02*
D03*
X10020300Y5283200D02*
D03*
X10274300Y5537200D02*
D03*
X10020300Y5537200D02*
D03*
X10274300Y5791200D02*
D03*
X10020300Y5791200D02*
D03*
X10274300Y6045200D02*
D03*
X10020300Y6045200D02*
D03*
X10274300Y6299200D02*
D03*
X10020300Y6299200D02*
D03*
X10274300Y6553200D02*
D03*
X10020300Y6553200D02*
D03*
X10274300Y6807200D02*
D03*
X10020300Y6807200D02*
D03*
X10274300Y7061200D02*
D03*
X10020300Y7061200D02*
D03*
X10274300Y7315200D02*
D03*
X10020300Y7315200D02*
D03*
X10274300Y7569200D02*
D03*
X10020300Y7569200D02*
D03*
X10274300Y7823200D02*
D03*
X10020300Y7823200D02*
D03*
X10274300Y8077200D02*
D03*
X10020300Y8077200D02*
D03*
X10274300Y8331200D02*
D03*
X10020300Y8331200D02*
D03*
X10274300Y8585200D02*
D03*
X10020300Y8585200D02*
D03*
X10274300Y8839200D02*
D03*
X10020300Y8839200D02*
D03*
X3390900Y8394700D02*
D03*
X3644900Y8394700D02*
D03*
X3390900Y8140700D02*
D03*
X3644900Y8140700D02*
D03*
X3390900Y7886700D02*
D03*
X3644900Y7886700D02*
D03*
X3390900Y7632700D02*
D03*
X3644900Y7632700D02*
D03*
X3390900Y7378700D02*
D03*
X3644900Y7378700D02*
D03*
X3390900Y7124700D02*
D03*
X3644900Y7124700D02*
D03*
X3390900Y6870700D02*
D03*
X3644900Y6870700D02*
D03*
X3390900Y6616700D02*
D03*
X3644900Y6616700D02*
D03*
X3390900Y6362700D02*
D03*
X3644900Y6362700D02*
D03*
X3390900Y6108700D02*
D03*
X3644900Y6108700D02*
D03*
D57*
X4849139Y3147801D02*
D03*
X6718064Y6498824D02*
D03*
X7294396Y7649024D02*
D03*
X5901021Y6688098D02*
D03*
X5798965Y6890603D02*
D03*
X6203505Y6888095D02*
D03*
X6308492Y6896534D02*
D03*
X7767739Y7546257D02*
D03*
X4902328Y6690795D02*
D03*
X5017487Y7395446D02*
D03*
X5403071Y7999227D02*
D03*
X4799304Y8395746D02*
D03*
X5006998Y8207432D02*
D03*
X6303588Y7097798D02*
D03*
X4086939Y7541950D02*
D03*
X7650523Y7803457D02*
D03*
X6406998Y8383502D02*
D03*
X6206998Y8387065D02*
D03*
X6402667Y7996861D02*
D03*
X5606994Y7890293D02*
D03*
X5712045Y8193865D02*
D03*
X4998204Y8496191D02*
D03*
X4693788Y8287996D02*
D03*
X6173533Y6598277D02*
D03*
X6310111Y6695595D02*
D03*
X6016808Y7096048D02*
D03*
X6016808Y6990598D02*
D03*
X6018971Y7390501D02*
D03*
X7088139Y6417232D02*
D03*
X6627307Y6419930D02*
D03*
X4957042Y6361577D02*
D03*
X4832301Y6595283D02*
D03*
X4830280Y6894324D02*
D03*
X4394575Y7268374D02*
D03*
X4001194Y7174909D02*
D03*
X7717232Y5901956D02*
D03*
X7527402Y5901956D02*
D03*
X5373531Y5275704D02*
D03*
X7499111Y5238349D02*
D03*
X5887194Y4775200D02*
D03*
X7245111Y4059918D02*
D03*
X5872598Y2665406D02*
D03*
X4104909Y8674252D02*
D03*
X5895639Y9274459D02*
D03*
X5212800Y8691726D02*
D03*
X4368025Y8577980D02*
D03*
X4705963Y8094136D02*
D03*
X4616352Y7991434D02*
D03*
X5014271Y7083322D02*
D03*
X4707567Y6690599D02*
D03*
X5459688Y5762111D02*
D03*
X5914604Y5816956D02*
D03*
X5492942Y6588733D02*
D03*
X5290163Y6590601D02*
D03*
X5306995Y6990598D02*
D03*
X5406995Y7290598D02*
D03*
X6206998Y7306638D02*
D03*
X5706999Y7306638D02*
D03*
X5506994Y7306638D02*
D03*
X5706604Y7593099D02*
D03*
X5606994Y7490597D02*
D03*
X8733764Y8474236D02*
D03*
X4506996Y7790602D02*
D03*
X4505925Y6794765D02*
D03*
X6003965Y7893634D02*
D03*
X3431279Y4642876D02*
D03*
X3700916Y4642876D02*
D03*
X5182384Y9368561D02*
D03*
X5314497Y8391636D02*
D03*
X5003203Y7586810D02*
D03*
X5410530Y8094136D02*
D03*
X6674326Y8490600D02*
D03*
X6456090Y8600404D02*
D03*
X10635549Y4066233D02*
D03*
X8829078Y5229562D02*
D03*
X5206995Y7790602D02*
D03*
X5704897Y8590605D02*
D03*
X6121312Y2903742D02*
D03*
X5833565Y4070345D02*
D03*
X10977657Y11075040D02*
D03*
X9414995Y6309594D02*
D03*
X8577605Y7975878D02*
D03*
X3087893Y8161754D02*
D03*
X3501290Y9646463D02*
D03*
X6434887Y10301274D02*
D03*
X8378467Y10584491D02*
D03*
X10426200Y9895779D02*
D03*
X10631942Y5992167D02*
D03*
X8282324Y3723949D02*
D03*
X5713001Y3667888D02*
D03*
X4506357Y4767308D02*
D03*
X6927555Y6440602D02*
D03*
X4507001Y6394663D02*
D03*
X4336869Y6516859D02*
D03*
X4506701Y8390600D02*
D03*
X4319991Y8482572D02*
D03*
X9407500Y6920368D02*
D03*
X10115630Y3102031D02*
D03*
X10553920Y3102031D02*
D03*
X3946046Y4642876D02*
D03*
X2759332Y8915489D02*
D03*
X3200453Y8915489D02*
D03*
X4104842Y8365598D02*
D03*
X6960152Y9968062D02*
D03*
X8023984Y9893781D02*
D03*
X8564624Y9833049D02*
D03*
X9050100Y9833049D02*
D03*
X8376217Y9289867D02*
D03*
X7353713Y9734089D02*
D03*
X6206998Y8186970D02*
D03*
X6406998Y8186970D02*
D03*
X4507001Y6590604D02*
D03*
X5006995Y6990598D02*
D03*
X5006995Y7890601D02*
D03*
X5206995Y7290598D02*
D03*
X5306995Y7390597D02*
D03*
X5306995Y7490602D02*
D03*
X5306995Y7590602D02*
D03*
X5506994Y6990603D02*
D03*
X5406995Y7390597D02*
D03*
X5495439Y7590602D02*
D03*
X5406995Y7690602D02*
D03*
X5606999Y7390597D02*
D03*
X5606999Y7690602D02*
D03*
X5706999Y7790597D02*
D03*
X6006998Y7990601D02*
D03*
X4907283Y7190598D02*
D03*
D58*
X3365500Y10807700D02*
D03*
X11468100Y10909300D02*
D03*
X11252200Y3327400D02*
D03*
X3352800Y3416300D02*
D03*
%TF.MD5,a55adfbff33b3c3b0e93227d7188ebeb*%
M02*
