%TF.GenerationSoftware,Altium Limited,Altium Designer,21.5.1 (32)*%
G04 Layer_Color=32768*
%FSLAX45Y45*%
%MOMM*%
%TF.SameCoordinates,620DA487-9358-4998-A31C-56A073A1AE4C*%
%TF.FilePolarity,Positive*%
%TF.FileFunction,Other,Top_Courtyard*%
%TF.Part,Single*%
G01*
G75*
%TA.AperFunction,NonConductor*%
%ADD75C,0.20000*%
D75*
X2793994Y9014488D02*
X3156990D01*
Y8816490D02*
Y9014488D01*
X2793994Y8816490D02*
X3156990D01*
X2793994D02*
Y9014488D01*
X10153249Y3201030D02*
X10516245D01*
Y3003032D02*
Y3201030D01*
X10153249Y3003032D02*
X10516245D01*
X10153249D02*
Y3201030D01*
X6301788Y4339178D02*
X6499786D01*
Y4702174D01*
X6301788D02*
X6499786D01*
X6301788Y4339178D02*
Y4702174D01*
X8630105Y9734050D02*
Y9932048D01*
Y9734050D02*
X8993102D01*
Y9932048D01*
X8630105D02*
X8993102D01*
X6930792Y9253387D02*
Y9451385D01*
Y9253387D02*
X7293788D01*
Y9451385D01*
X6930792D02*
X7293788D01*
X9068501Y7586497D02*
X9431498D01*
Y7388499D02*
Y7586497D01*
X9068501Y7388499D02*
X9431498D01*
X9068501D02*
Y7586497D01*
X7688494Y10085650D02*
Y10245650D01*
Y10085650D02*
X7954320D01*
Y10245650D01*
X7688494D02*
X7954320D01*
X7938986Y9587314D02*
Y9867314D01*
X8108983D01*
Y9587314D02*
Y9867314D01*
X7938986Y9587314D02*
X8108983D01*
X8620513Y6604485D02*
X8983509D01*
Y6406487D02*
Y6604485D01*
X8620513Y6406487D02*
X8983509D01*
X8620513D02*
Y6604485D01*
X6880057Y6628100D02*
X6975053D01*
X6880057Y6453104D02*
Y6628100D01*
Y6453104D02*
X6975053D01*
Y6628100D01*
%TF.MD5,5c807d150e7526580bfb8f0dbda6023c*%
M02*
