%TF.GenerationSoftware,Altium Limited,Altium Designer,21.5.1 (32)*%
G04 Layer_Color=32768*
%FSLAX45Y45*%
%MOMM*%
%TF.SameCoordinates,1C786601-62C9-430B-884C-CD9D5B78F05E*%
%TF.FilePolarity,Positive*%
%TF.FileFunction,Other,Top_Designator*%
%TF.Part,Single*%
G01*
G75*
G36*
X3239040Y11132883D02*
X3239357D01*
X3239738Y11132852D01*
X3240151Y11132820D01*
X3240595Y11132756D01*
X3241072Y11132693D01*
X3241580Y11132630D01*
X3242659Y11132407D01*
X3243739Y11132121D01*
X3244818Y11131741D01*
X3244850D01*
X3244945Y11131677D01*
X3245072Y11131613D01*
X3245263Y11131518D01*
X3245517Y11131391D01*
X3245771Y11131264D01*
X3246374Y11130883D01*
X3247073Y11130375D01*
X3247771Y11129804D01*
X3248470Y11129105D01*
X3249073Y11128311D01*
X3249104Y11128280D01*
X3249136Y11128216D01*
X3249200Y11128089D01*
X3249295Y11127931D01*
X3249422Y11127708D01*
X3249549Y11127454D01*
X3249676Y11127168D01*
X3249835Y11126819D01*
X3249994Y11126470D01*
X3250120Y11126089D01*
X3250375Y11125200D01*
X3250597Y11124247D01*
X3250660Y11123739D01*
X3250692Y11123200D01*
X3246565Y11122882D01*
Y11122914D01*
X3246533Y11123009D01*
Y11123168D01*
X3246469Y11123390D01*
X3246437Y11123644D01*
X3246342Y11123930D01*
X3246247Y11124247D01*
X3246152Y11124597D01*
X3245866Y11125359D01*
X3245453Y11126121D01*
X3245199Y11126502D01*
X3244945Y11126851D01*
X3244628Y11127200D01*
X3244279Y11127518D01*
X3244247Y11127549D01*
X3244183Y11127581D01*
X3244088Y11127676D01*
X3243929Y11127772D01*
X3243739Y11127899D01*
X3243485Y11128026D01*
X3243199Y11128153D01*
X3242850Y11128311D01*
X3242469Y11128470D01*
X3242056Y11128597D01*
X3241611Y11128724D01*
X3241103Y11128851D01*
X3240532Y11128946D01*
X3239961Y11129042D01*
X3239294Y11129073D01*
X3238627Y11129105D01*
X3238246D01*
X3237992Y11129073D01*
X3237674D01*
X3237293Y11129042D01*
X3236881Y11128978D01*
X3236468Y11128915D01*
X3235515Y11128756D01*
X3234595Y11128502D01*
X3234118Y11128311D01*
X3233706Y11128121D01*
X3233293Y11127899D01*
X3232944Y11127645D01*
X3232912D01*
X3232880Y11127581D01*
X3232658Y11127391D01*
X3232372Y11127073D01*
X3232055Y11126692D01*
X3231737Y11126184D01*
X3231451Y11125581D01*
X3231229Y11124946D01*
X3231197Y11124597D01*
X3231166Y11124216D01*
Y11124184D01*
Y11124152D01*
Y11124057D01*
X3231197Y11123930D01*
X3231229Y11123581D01*
X3231325Y11123200D01*
X3231483Y11122723D01*
X3231674Y11122247D01*
X3231991Y11121771D01*
X3232404Y11121326D01*
X3232436D01*
X3232467Y11121263D01*
X3232563Y11121200D01*
X3232690Y11121136D01*
X3232849Y11121041D01*
X3233071Y11120914D01*
X3233356Y11120755D01*
X3233674Y11120596D01*
X3234087Y11120437D01*
X3234531Y11120247D01*
X3235071Y11120056D01*
X3235674Y11119866D01*
X3236341Y11119644D01*
X3237103Y11119421D01*
X3237960Y11119199D01*
X3238881Y11118977D01*
X3238945D01*
X3239103Y11118913D01*
X3239389Y11118850D01*
X3239738Y11118786D01*
X3240151Y11118691D01*
X3240659Y11118564D01*
X3241199Y11118437D01*
X3241770Y11118278D01*
X3242977Y11117961D01*
X3244151Y11117612D01*
X3244723Y11117421D01*
X3245231Y11117262D01*
X3245707Y11117072D01*
X3246120Y11116913D01*
X3246152D01*
X3246247Y11116850D01*
X3246406Y11116786D01*
X3246596Y11116691D01*
X3246818Y11116564D01*
X3247073Y11116405D01*
X3247707Y11116024D01*
X3248374Y11115548D01*
X3249073Y11114976D01*
X3249740Y11114341D01*
X3250025Y11113992D01*
X3250311Y11113611D01*
X3250343Y11113580D01*
X3250375Y11113516D01*
X3250438Y11113421D01*
X3250533Y11113262D01*
X3250628Y11113071D01*
X3250755Y11112849D01*
X3250883Y11112563D01*
X3251009Y11112278D01*
X3251232Y11111611D01*
X3251454Y11110817D01*
X3251613Y11109928D01*
X3251676Y11109452D01*
Y11108976D01*
Y11108944D01*
Y11108849D01*
Y11108722D01*
X3251645Y11108531D01*
Y11108309D01*
X3251613Y11108023D01*
X3251549Y11107738D01*
X3251486Y11107388D01*
X3251327Y11106626D01*
X3251041Y11105801D01*
X3250692Y11104943D01*
X3250438Y11104531D01*
X3250184Y11104086D01*
X3250152Y11104054D01*
X3250120Y11103991D01*
X3250025Y11103864D01*
X3249898Y11103705D01*
X3249740Y11103515D01*
X3249581Y11103293D01*
X3249358Y11103038D01*
X3249104Y11102784D01*
X3248787Y11102499D01*
X3248470Y11102213D01*
X3248120Y11101927D01*
X3247739Y11101610D01*
X3246882Y11101038D01*
X3245898Y11100530D01*
X3245866D01*
X3245771Y11100467D01*
X3245612Y11100403D01*
X3245421Y11100340D01*
X3245136Y11100244D01*
X3244850Y11100118D01*
X3244469Y11100022D01*
X3244088Y11099895D01*
X3243643Y11099768D01*
X3243167Y11099673D01*
X3242627Y11099546D01*
X3242088Y11099451D01*
X3240913Y11099324D01*
X3239643Y11099260D01*
X3239230D01*
X3238913Y11099292D01*
X3238532D01*
X3238087Y11099324D01*
X3237611Y11099356D01*
X3237071Y11099419D01*
X3236500Y11099483D01*
X3235896Y11099578D01*
X3234658Y11099800D01*
X3233420Y11100118D01*
X3232817Y11100308D01*
X3232245Y11100530D01*
X3232213Y11100562D01*
X3232118Y11100594D01*
X3231959Y11100657D01*
X3231769Y11100784D01*
X3231515Y11100911D01*
X3231197Y11101070D01*
X3230880Y11101261D01*
X3230531Y11101514D01*
X3229800Y11102054D01*
X3229007Y11102721D01*
X3228245Y11103515D01*
X3227546Y11104404D01*
X3227515Y11104436D01*
X3227483Y11104531D01*
X3227387Y11104658D01*
X3227292Y11104848D01*
X3227165Y11105102D01*
X3227006Y11105388D01*
X3226848Y11105737D01*
X3226689Y11106118D01*
X3226530Y11106531D01*
X3226371Y11106976D01*
X3226244Y11107452D01*
X3226086Y11107991D01*
X3225895Y11109103D01*
X3225832Y11109674D01*
X3225800Y11110277D01*
X3229864Y11110627D01*
Y11110595D01*
Y11110531D01*
X3229896Y11110404D01*
X3229928Y11110214D01*
X3229959Y11109992D01*
X3230023Y11109770D01*
X3230150Y11109198D01*
X3230308Y11108563D01*
X3230562Y11107896D01*
X3230848Y11107229D01*
X3231197Y11106594D01*
Y11106563D01*
X3231261Y11106531D01*
X3231388Y11106341D01*
X3231642Y11106055D01*
X3231991Y11105706D01*
X3232436Y11105293D01*
X3233007Y11104880D01*
X3233674Y11104436D01*
X3234436Y11104054D01*
X3234468D01*
X3234531Y11104023D01*
X3234658Y11103959D01*
X3234817Y11103896D01*
X3235039Y11103832D01*
X3235293Y11103769D01*
X3235579Y11103673D01*
X3235896Y11103578D01*
X3236246Y11103483D01*
X3236627Y11103419D01*
X3237484Y11103261D01*
X3238436Y11103134D01*
X3239453Y11103102D01*
X3239865D01*
X3240087Y11103134D01*
X3240341D01*
X3240913Y11103197D01*
X3241580Y11103293D01*
X3242310Y11103419D01*
X3243040Y11103578D01*
X3243771Y11103832D01*
X3243802D01*
X3243866Y11103864D01*
X3243961Y11103896D01*
X3244088Y11103959D01*
X3244437Y11104118D01*
X3244850Y11104372D01*
X3245294Y11104658D01*
X3245771Y11104975D01*
X3246215Y11105388D01*
X3246596Y11105832D01*
X3246628Y11105896D01*
X3246755Y11106055D01*
X3246882Y11106309D01*
X3247073Y11106658D01*
X3247231Y11107071D01*
X3247390Y11107547D01*
X3247485Y11108055D01*
X3247517Y11108626D01*
Y11108658D01*
Y11108690D01*
Y11108881D01*
X3247485Y11109166D01*
X3247422Y11109547D01*
X3247295Y11109960D01*
X3247136Y11110404D01*
X3246914Y11110849D01*
X3246628Y11111293D01*
X3246596Y11111357D01*
X3246469Y11111484D01*
X3246247Y11111706D01*
X3245930Y11111960D01*
X3245517Y11112278D01*
X3245009Y11112595D01*
X3244405Y11112913D01*
X3243675Y11113198D01*
X3243612Y11113230D01*
X3243516Y11113262D01*
X3243389Y11113294D01*
X3243231Y11113357D01*
X3243040Y11113421D01*
X3242786Y11113516D01*
X3242469Y11113611D01*
X3242120Y11113706D01*
X3241707Y11113833D01*
X3241230Y11113961D01*
X3240691Y11114087D01*
X3240087Y11114246D01*
X3239421Y11114405D01*
X3238690Y11114596D01*
X3237897Y11114786D01*
X3237833D01*
X3237706Y11114849D01*
X3237484Y11114881D01*
X3237166Y11114976D01*
X3236817Y11115072D01*
X3236373Y11115167D01*
X3235928Y11115294D01*
X3235420Y11115453D01*
X3234404Y11115770D01*
X3233356Y11116088D01*
X3232849Y11116278D01*
X3232404Y11116469D01*
X3231991Y11116627D01*
X3231610Y11116818D01*
X3231578D01*
X3231515Y11116881D01*
X3231388Y11116945D01*
X3231229Y11117040D01*
X3231039Y11117167D01*
X3230816Y11117294D01*
X3230308Y11117675D01*
X3229737Y11118120D01*
X3229165Y11118628D01*
X3228626Y11119231D01*
X3228149Y11119866D01*
Y11119898D01*
X3228086Y11119961D01*
X3228054Y11120056D01*
X3227959Y11120183D01*
X3227895Y11120342D01*
X3227800Y11120564D01*
X3227578Y11121041D01*
X3227356Y11121644D01*
X3227197Y11122343D01*
X3227070Y11123104D01*
X3227006Y11123930D01*
Y11123962D01*
Y11124025D01*
Y11124184D01*
X3227038Y11124343D01*
Y11124565D01*
X3227070Y11124819D01*
X3227134Y11125105D01*
X3227197Y11125422D01*
X3227356Y11126121D01*
X3227610Y11126914D01*
X3227959Y11127708D01*
X3228149Y11128121D01*
X3228403Y11128534D01*
X3228435Y11128566D01*
X3228467Y11128629D01*
X3228562Y11128756D01*
X3228657Y11128883D01*
X3228816Y11129073D01*
X3228975Y11129264D01*
X3229451Y11129740D01*
X3230023Y11130280D01*
X3230721Y11130820D01*
X3231515Y11131359D01*
X3232467Y11131804D01*
X3232499D01*
X3232595Y11131867D01*
X3232753Y11131899D01*
X3232944Y11131994D01*
X3233198Y11132058D01*
X3233483Y11132153D01*
X3233833Y11132248D01*
X3234214Y11132376D01*
X3234658Y11132471D01*
X3235103Y11132566D01*
X3235611Y11132661D01*
X3236119Y11132756D01*
X3237230Y11132883D01*
X3238436Y11132915D01*
X3238786D01*
X3239040Y11132883D01*
D02*
G37*
G36*
X3300540Y11111230D02*
X3304921D01*
Y11107579D01*
X3300540D01*
Y11099800D01*
X3296539D01*
Y11107579D01*
X3282410D01*
Y11111230D01*
X3297269Y11132344D01*
X3300540D01*
Y11111230D01*
D02*
G37*
G36*
X3280918Y11128502D02*
X3270155D01*
Y11099800D01*
X3265837D01*
Y11128502D01*
X3255105D01*
Y11132344D01*
X3280918D01*
Y11128502D01*
D02*
G37*
G36*
X11341640Y11234483D02*
X11341957D01*
X11342338Y11234452D01*
X11342751Y11234420D01*
X11343196Y11234356D01*
X11343672Y11234293D01*
X11344180Y11234229D01*
X11345259Y11234007D01*
X11346339Y11233721D01*
X11347418Y11233340D01*
X11347450D01*
X11347545Y11233277D01*
X11347672Y11233213D01*
X11347863Y11233118D01*
X11348117Y11232991D01*
X11348371Y11232864D01*
X11348974Y11232483D01*
X11349672Y11231975D01*
X11350371Y11231404D01*
X11351069Y11230705D01*
X11351673Y11229911D01*
X11351704Y11229880D01*
X11351736Y11229816D01*
X11351800Y11229689D01*
X11351895Y11229530D01*
X11352022Y11229308D01*
X11352149Y11229054D01*
X11352276Y11228768D01*
X11352435Y11228419D01*
X11352593Y11228070D01*
X11352721Y11227689D01*
X11352974Y11226800D01*
X11353197Y11225848D01*
X11353260Y11225339D01*
X11353292Y11224800D01*
X11349164Y11224482D01*
Y11224514D01*
X11349133Y11224609D01*
Y11224768D01*
X11349069Y11224990D01*
X11349038Y11225244D01*
X11348942Y11225530D01*
X11348847Y11225848D01*
X11348752Y11226197D01*
X11348466Y11226959D01*
X11348053Y11227721D01*
X11347799Y11228102D01*
X11347545Y11228451D01*
X11347228Y11228800D01*
X11346878Y11229118D01*
X11346847Y11229149D01*
X11346783Y11229181D01*
X11346688Y11229276D01*
X11346529Y11229372D01*
X11346339Y11229499D01*
X11346085Y11229626D01*
X11345799Y11229753D01*
X11345450Y11229911D01*
X11345069Y11230070D01*
X11344656Y11230197D01*
X11344211Y11230324D01*
X11343703Y11230451D01*
X11343132Y11230546D01*
X11342561Y11230642D01*
X11341894Y11230673D01*
X11341227Y11230705D01*
X11340846D01*
X11340592Y11230673D01*
X11340274D01*
X11339893Y11230642D01*
X11339481Y11230578D01*
X11339068Y11230515D01*
X11338116Y11230356D01*
X11337195Y11230102D01*
X11336718Y11229911D01*
X11336306Y11229721D01*
X11335893Y11229499D01*
X11335544Y11229245D01*
X11335512D01*
X11335480Y11229181D01*
X11335258Y11228991D01*
X11334972Y11228673D01*
X11334655Y11228292D01*
X11334337Y11227784D01*
X11334051Y11227181D01*
X11333829Y11226546D01*
X11333798Y11226197D01*
X11333766Y11225816D01*
Y11225784D01*
Y11225752D01*
Y11225657D01*
X11333798Y11225530D01*
X11333829Y11225181D01*
X11333924Y11224800D01*
X11334083Y11224323D01*
X11334274Y11223847D01*
X11334591Y11223371D01*
X11335004Y11222926D01*
X11335036D01*
X11335067Y11222863D01*
X11335163Y11222799D01*
X11335290Y11222736D01*
X11335448Y11222641D01*
X11335671Y11222514D01*
X11335956Y11222355D01*
X11336274Y11222196D01*
X11336687Y11222038D01*
X11337131Y11221847D01*
X11337671Y11221656D01*
X11338274Y11221466D01*
X11338941Y11221244D01*
X11339703Y11221021D01*
X11340560Y11220799D01*
X11341481Y11220577D01*
X11341544D01*
X11341703Y11220513D01*
X11341989Y11220450D01*
X11342338Y11220386D01*
X11342751Y11220291D01*
X11343259Y11220164D01*
X11343799Y11220037D01*
X11344370Y11219878D01*
X11345577Y11219561D01*
X11346751Y11219212D01*
X11347323Y11219021D01*
X11347831Y11218863D01*
X11348307Y11218672D01*
X11348720Y11218513D01*
X11348752D01*
X11348847Y11218450D01*
X11349006Y11218386D01*
X11349196Y11218291D01*
X11349418Y11218164D01*
X11349672Y11218005D01*
X11350307Y11217624D01*
X11350974Y11217148D01*
X11351673Y11216576D01*
X11352339Y11215941D01*
X11352625Y11215592D01*
X11352911Y11215211D01*
X11352943Y11215179D01*
X11352974Y11215116D01*
X11353038Y11215021D01*
X11353133Y11214862D01*
X11353228Y11214671D01*
X11353356Y11214449D01*
X11353482Y11214163D01*
X11353609Y11213878D01*
X11353832Y11213211D01*
X11354054Y11212417D01*
X11354213Y11211528D01*
X11354276Y11211052D01*
Y11210576D01*
Y11210544D01*
Y11210449D01*
Y11210322D01*
X11354245Y11210131D01*
Y11209909D01*
X11354213Y11209623D01*
X11354149Y11209337D01*
X11354086Y11208988D01*
X11353927Y11208226D01*
X11353641Y11207401D01*
X11353292Y11206543D01*
X11353038Y11206131D01*
X11352784Y11205686D01*
X11352752Y11205654D01*
X11352721Y11205591D01*
X11352625Y11205464D01*
X11352498Y11205305D01*
X11352339Y11205115D01*
X11352181Y11204892D01*
X11351958Y11204638D01*
X11351704Y11204384D01*
X11351387Y11204099D01*
X11351069Y11203813D01*
X11350720Y11203527D01*
X11350339Y11203210D01*
X11349482Y11202638D01*
X11348498Y11202130D01*
X11348466D01*
X11348371Y11202067D01*
X11348212Y11202003D01*
X11348021Y11201940D01*
X11347736Y11201844D01*
X11347450Y11201717D01*
X11347069Y11201622D01*
X11346688Y11201495D01*
X11346243Y11201368D01*
X11345767Y11201273D01*
X11345228Y11201146D01*
X11344688Y11201051D01*
X11343513Y11200924D01*
X11342243Y11200860D01*
X11341830D01*
X11341513Y11200892D01*
X11341132D01*
X11340687Y11200924D01*
X11340211Y11200956D01*
X11339671Y11201019D01*
X11339100Y11201082D01*
X11338496Y11201178D01*
X11337258Y11201400D01*
X11336020Y11201717D01*
X11335417Y11201908D01*
X11334845Y11202130D01*
X11334813Y11202162D01*
X11334718Y11202194D01*
X11334559Y11202257D01*
X11334369Y11202384D01*
X11334115Y11202511D01*
X11333798Y11202670D01*
X11333480Y11202860D01*
X11333131Y11203114D01*
X11332400Y11203654D01*
X11331607Y11204321D01*
X11330845Y11205115D01*
X11330146Y11206004D01*
X11330114Y11206036D01*
X11330083Y11206131D01*
X11329988Y11206258D01*
X11329892Y11206448D01*
X11329765Y11206702D01*
X11329606Y11206988D01*
X11329448Y11207337D01*
X11329289Y11207718D01*
X11329130Y11208131D01*
X11328971Y11208576D01*
X11328844Y11209052D01*
X11328686Y11209591D01*
X11328495Y11210703D01*
X11328432Y11211274D01*
X11328400Y11211877D01*
X11332464Y11212227D01*
Y11212195D01*
Y11212131D01*
X11332496Y11212004D01*
X11332528Y11211814D01*
X11332559Y11211592D01*
X11332623Y11211369D01*
X11332750Y11210798D01*
X11332908Y11210163D01*
X11333163Y11209496D01*
X11333448Y11208830D01*
X11333798Y11208194D01*
Y11208163D01*
X11333861Y11208131D01*
X11333988Y11207941D01*
X11334242Y11207655D01*
X11334591Y11207306D01*
X11335036Y11206893D01*
X11335607Y11206480D01*
X11336274Y11206036D01*
X11337036Y11205654D01*
X11337068D01*
X11337131Y11205623D01*
X11337258Y11205559D01*
X11337417Y11205496D01*
X11337639Y11205432D01*
X11337893Y11205369D01*
X11338179Y11205273D01*
X11338496Y11205178D01*
X11338846Y11205083D01*
X11339227Y11205020D01*
X11340084Y11204861D01*
X11341036Y11204734D01*
X11342052Y11204702D01*
X11342465D01*
X11342687Y11204734D01*
X11342941D01*
X11343513Y11204797D01*
X11344180Y11204892D01*
X11344910Y11205020D01*
X11345640Y11205178D01*
X11346371Y11205432D01*
X11346402D01*
X11346466Y11205464D01*
X11346561Y11205496D01*
X11346688Y11205559D01*
X11347037Y11205718D01*
X11347450Y11205972D01*
X11347894Y11206258D01*
X11348371Y11206575D01*
X11348815Y11206988D01*
X11349196Y11207433D01*
X11349228Y11207496D01*
X11349355Y11207655D01*
X11349482Y11207909D01*
X11349672Y11208258D01*
X11349831Y11208671D01*
X11349990Y11209147D01*
X11350085Y11209655D01*
X11350117Y11210226D01*
Y11210258D01*
Y11210290D01*
Y11210480D01*
X11350085Y11210766D01*
X11350022Y11211147D01*
X11349895Y11211560D01*
X11349736Y11212004D01*
X11349514Y11212449D01*
X11349228Y11212893D01*
X11349196Y11212957D01*
X11349069Y11213084D01*
X11348847Y11213306D01*
X11348529Y11213560D01*
X11348117Y11213878D01*
X11347609Y11214195D01*
X11347006Y11214513D01*
X11346275Y11214798D01*
X11346212Y11214830D01*
X11346116Y11214862D01*
X11345989Y11214894D01*
X11345831Y11214957D01*
X11345640Y11215021D01*
X11345386Y11215116D01*
X11345069Y11215211D01*
X11344719Y11215306D01*
X11344307Y11215433D01*
X11343830Y11215561D01*
X11343291Y11215687D01*
X11342687Y11215846D01*
X11342021Y11216005D01*
X11341291Y11216196D01*
X11340497Y11216386D01*
X11340433D01*
X11340306Y11216450D01*
X11340084Y11216481D01*
X11339766Y11216576D01*
X11339417Y11216672D01*
X11338973Y11216767D01*
X11338528Y11216894D01*
X11338020Y11217053D01*
X11337004Y11217370D01*
X11335956Y11217688D01*
X11335448Y11217878D01*
X11335004Y11218069D01*
X11334591Y11218228D01*
X11334210Y11218418D01*
X11334178D01*
X11334115Y11218481D01*
X11333988Y11218545D01*
X11333829Y11218640D01*
X11333639Y11218767D01*
X11333416Y11218894D01*
X11332908Y11219275D01*
X11332337Y11219720D01*
X11331766Y11220228D01*
X11331226Y11220831D01*
X11330749Y11221466D01*
Y11221498D01*
X11330686Y11221561D01*
X11330654Y11221656D01*
X11330559Y11221783D01*
X11330496Y11221942D01*
X11330400Y11222164D01*
X11330178Y11222641D01*
X11329956Y11223244D01*
X11329797Y11223942D01*
X11329670Y11224704D01*
X11329606Y11225530D01*
Y11225562D01*
Y11225625D01*
Y11225784D01*
X11329638Y11225943D01*
Y11226165D01*
X11329670Y11226419D01*
X11329733Y11226705D01*
X11329797Y11227022D01*
X11329956Y11227721D01*
X11330210Y11228514D01*
X11330559Y11229308D01*
X11330749Y11229721D01*
X11331003Y11230134D01*
X11331035Y11230166D01*
X11331067Y11230229D01*
X11331162Y11230356D01*
X11331257Y11230483D01*
X11331416Y11230673D01*
X11331575Y11230864D01*
X11332051Y11231340D01*
X11332623Y11231880D01*
X11333321Y11232420D01*
X11334115Y11232959D01*
X11335067Y11233404D01*
X11335099D01*
X11335195Y11233468D01*
X11335353Y11233499D01*
X11335544Y11233594D01*
X11335798Y11233658D01*
X11336083Y11233753D01*
X11336433Y11233848D01*
X11336814Y11233976D01*
X11337258Y11234071D01*
X11337703Y11234166D01*
X11338211Y11234261D01*
X11338719Y11234356D01*
X11339830Y11234483D01*
X11341036Y11234515D01*
X11341386D01*
X11341640Y11234483D01*
D02*
G37*
G36*
X11396980Y11234039D02*
X11397234D01*
X11397488Y11234007D01*
X11397805Y11233976D01*
X11398155Y11233944D01*
X11398917Y11233785D01*
X11399711Y11233594D01*
X11400568Y11233309D01*
X11401425Y11232928D01*
X11401457D01*
X11401520Y11232864D01*
X11401647Y11232801D01*
X11401806Y11232706D01*
X11401996Y11232610D01*
X11402187Y11232451D01*
X11402695Y11232102D01*
X11403266Y11231658D01*
X11403838Y11231118D01*
X11404378Y11230483D01*
X11404854Y11229784D01*
Y11229753D01*
X11404918Y11229689D01*
X11404981Y11229594D01*
X11405044Y11229435D01*
X11405140Y11229276D01*
X11405235Y11229054D01*
X11405457Y11228514D01*
X11405679Y11227911D01*
X11405870Y11227181D01*
X11405997Y11226419D01*
X11406061Y11225593D01*
Y11225562D01*
Y11225498D01*
Y11225403D01*
X11406029Y11225244D01*
Y11225054D01*
X11405997Y11224831D01*
X11405933Y11224323D01*
X11405775Y11223720D01*
X11405584Y11223085D01*
X11405298Y11222418D01*
X11404918Y11221752D01*
Y11221720D01*
X11404854Y11221688D01*
X11404791Y11221593D01*
X11404695Y11221466D01*
X11404441Y11221148D01*
X11404060Y11220767D01*
X11403584Y11220323D01*
X11403012Y11219878D01*
X11402346Y11219434D01*
X11401552Y11219021D01*
X11401584D01*
X11401679Y11218989D01*
X11401838Y11218958D01*
X11402028Y11218894D01*
X11402282Y11218799D01*
X11402536Y11218704D01*
X11403203Y11218418D01*
X11403901Y11218069D01*
X11404663Y11217561D01*
X11405394Y11216989D01*
X11405711Y11216640D01*
X11406029Y11216259D01*
X11406061Y11216227D01*
X11406092Y11216164D01*
X11406188Y11216037D01*
X11406283Y11215878D01*
X11406410Y11215687D01*
X11406537Y11215433D01*
X11406696Y11215148D01*
X11406854Y11214830D01*
X11406981Y11214449D01*
X11407140Y11214068D01*
X11407267Y11213624D01*
X11407394Y11213179D01*
X11407585Y11212163D01*
X11407616Y11211592D01*
X11407648Y11211020D01*
Y11210988D01*
Y11210830D01*
X11407616Y11210608D01*
Y11210322D01*
X11407553Y11209941D01*
X11407489Y11209528D01*
X11407394Y11209052D01*
X11407267Y11208512D01*
X11407108Y11207972D01*
X11406886Y11207401D01*
X11406632Y11206798D01*
X11406346Y11206194D01*
X11405965Y11205591D01*
X11405553Y11204956D01*
X11405076Y11204384D01*
X11404536Y11203813D01*
X11404505Y11203781D01*
X11404409Y11203686D01*
X11404219Y11203527D01*
X11403965Y11203368D01*
X11403679Y11203114D01*
X11403298Y11202892D01*
X11402886Y11202606D01*
X11402378Y11202353D01*
X11401838Y11202067D01*
X11401234Y11201781D01*
X11400599Y11201559D01*
X11399901Y11201336D01*
X11399171Y11201146D01*
X11398377Y11200987D01*
X11397551Y11200892D01*
X11396662Y11200860D01*
X11396472D01*
X11396250Y11200892D01*
X11395964D01*
X11395583Y11200924D01*
X11395170Y11200987D01*
X11394694Y11201082D01*
X11394154Y11201178D01*
X11393614Y11201305D01*
X11393043Y11201495D01*
X11392440Y11201686D01*
X11391868Y11201940D01*
X11391265Y11202226D01*
X11390662Y11202575D01*
X11390090Y11202956D01*
X11389550Y11203400D01*
X11389519Y11203432D01*
X11389423Y11203527D01*
X11389296Y11203654D01*
X11389106Y11203876D01*
X11388884Y11204131D01*
X11388630Y11204416D01*
X11388376Y11204766D01*
X11388090Y11205178D01*
X11387804Y11205623D01*
X11387518Y11206131D01*
X11387264Y11206670D01*
X11387011Y11207274D01*
X11386788Y11207909D01*
X11386598Y11208576D01*
X11386439Y11209274D01*
X11386344Y11210036D01*
X11390344Y11210576D01*
Y11210544D01*
X11390376Y11210417D01*
X11390408Y11210258D01*
X11390471Y11210004D01*
X11390535Y11209750D01*
X11390630Y11209401D01*
X11390757Y11209052D01*
X11390884Y11208671D01*
X11391201Y11207877D01*
X11391614Y11207051D01*
X11392091Y11206289D01*
X11392376Y11205972D01*
X11392662Y11205654D01*
X11392694D01*
X11392726Y11205591D01*
X11392821Y11205527D01*
X11392948Y11205432D01*
X11393106Y11205305D01*
X11393297Y11205178D01*
X11393773Y11204924D01*
X11394376Y11204638D01*
X11395075Y11204384D01*
X11395837Y11204226D01*
X11396250Y11204194D01*
X11396694Y11204162D01*
X11396980D01*
X11397170Y11204194D01*
X11397424Y11204226D01*
X11397678Y11204257D01*
X11397996Y11204321D01*
X11398345Y11204416D01*
X11399107Y11204638D01*
X11399488Y11204797D01*
X11399901Y11204988D01*
X11400314Y11205210D01*
X11400695Y11205464D01*
X11401076Y11205750D01*
X11401457Y11206099D01*
X11401488Y11206131D01*
X11401552Y11206194D01*
X11401647Y11206289D01*
X11401774Y11206448D01*
X11401901Y11206639D01*
X11402060Y11206861D01*
X11402251Y11207115D01*
X11402441Y11207433D01*
X11402600Y11207750D01*
X11402790Y11208131D01*
X11403108Y11208956D01*
X11403203Y11209401D01*
X11403298Y11209877D01*
X11403362Y11210385D01*
X11403393Y11210925D01*
Y11210957D01*
Y11211052D01*
Y11211179D01*
X11403362Y11211401D01*
X11403330Y11211623D01*
X11403298Y11211909D01*
X11403235Y11212195D01*
X11403171Y11212544D01*
X11402949Y11213243D01*
X11402822Y11213624D01*
X11402631Y11214005D01*
X11402409Y11214386D01*
X11402187Y11214767D01*
X11401901Y11215116D01*
X11401584Y11215465D01*
X11401552Y11215497D01*
X11401488Y11215529D01*
X11401393Y11215624D01*
X11401266Y11215751D01*
X11401076Y11215878D01*
X11400853Y11216037D01*
X11400631Y11216196D01*
X11400346Y11216354D01*
X11400028Y11216513D01*
X11399679Y11216672D01*
X11398885Y11216957D01*
X11397996Y11217180D01*
X11397520Y11217211D01*
X11397012Y11217243D01*
X11396821D01*
X11396567Y11217211D01*
X11396250Y11217180D01*
X11395837Y11217148D01*
X11395361Y11217084D01*
X11394821Y11216957D01*
X11394218Y11216831D01*
X11394662Y11220323D01*
X11394726D01*
X11394884Y11220291D01*
X11395107Y11220260D01*
X11395551D01*
X11395742Y11220291D01*
X11395964D01*
X11396218Y11220323D01*
X11396504Y11220386D01*
X11396821Y11220418D01*
X11397551Y11220577D01*
X11398313Y11220831D01*
X11399107Y11221148D01*
X11399901Y11221593D01*
X11399933Y11221625D01*
X11399996Y11221656D01*
X11400091Y11221720D01*
X11400218Y11221847D01*
X11400377Y11221974D01*
X11400568Y11222164D01*
X11400726Y11222355D01*
X11400949Y11222609D01*
X11401139Y11222863D01*
X11401298Y11223181D01*
X11401488Y11223530D01*
X11401647Y11223879D01*
X11401774Y11224292D01*
X11401869Y11224736D01*
X11401933Y11225181D01*
X11401965Y11225689D01*
Y11225720D01*
Y11225784D01*
Y11225911D01*
X11401933Y11226070D01*
Y11226260D01*
X11401901Y11226483D01*
X11401774Y11226991D01*
X11401615Y11227562D01*
X11401330Y11228165D01*
X11400981Y11228768D01*
X11400726Y11229054D01*
X11400472Y11229340D01*
X11400441Y11229372D01*
X11400409Y11229403D01*
X11400314Y11229467D01*
X11400218Y11229562D01*
X11399869Y11229816D01*
X11399425Y11230070D01*
X11398885Y11230324D01*
X11398218Y11230578D01*
X11397456Y11230737D01*
X11397075Y11230801D01*
X11396408D01*
X11396250Y11230769D01*
X11396027D01*
X11395805Y11230737D01*
X11395266Y11230610D01*
X11394631Y11230451D01*
X11393995Y11230166D01*
X11393329Y11229816D01*
X11393011Y11229562D01*
X11392726Y11229308D01*
X11392694Y11229276D01*
X11392662Y11229245D01*
X11392567Y11229149D01*
X11392471Y11229023D01*
X11392345Y11228896D01*
X11392217Y11228705D01*
X11392059Y11228483D01*
X11391900Y11228229D01*
X11391741Y11227911D01*
X11391551Y11227594D01*
X11391392Y11227244D01*
X11391233Y11226832D01*
X11391106Y11226419D01*
X11390948Y11225943D01*
X11390852Y11225466D01*
X11390757Y11224927D01*
X11386756Y11225625D01*
Y11225657D01*
X11386788Y11225816D01*
X11386852Y11226006D01*
X11386915Y11226292D01*
X11387011Y11226609D01*
X11387138Y11227022D01*
X11387264Y11227435D01*
X11387455Y11227911D01*
X11387646Y11228387D01*
X11387899Y11228896D01*
X11388153Y11229435D01*
X11388471Y11229943D01*
X11388788Y11230451D01*
X11389169Y11230959D01*
X11389614Y11231404D01*
X11390058Y11231848D01*
X11390090Y11231880D01*
X11390185Y11231943D01*
X11390313Y11232039D01*
X11390535Y11232197D01*
X11390789Y11232356D01*
X11391074Y11232547D01*
X11391456Y11232769D01*
X11391836Y11232959D01*
X11392281Y11233182D01*
X11392789Y11233372D01*
X11393329Y11233563D01*
X11393900Y11233721D01*
X11394503Y11233880D01*
X11395138Y11233976D01*
X11395837Y11234039D01*
X11396536Y11234071D01*
X11396789D01*
X11396980Y11234039D01*
D02*
G37*
G36*
X11383518Y11230102D02*
X11372755D01*
Y11201400D01*
X11368437D01*
Y11230102D01*
X11357705D01*
Y11233944D01*
X11383518D01*
Y11230102D01*
D02*
G37*
G36*
X11125740Y3652584D02*
X11126057D01*
X11126438Y3652552D01*
X11126851Y3652520D01*
X11127296Y3652456D01*
X11127772Y3652393D01*
X11128280Y3652330D01*
X11129359Y3652107D01*
X11130439Y3651821D01*
X11131518Y3651440D01*
X11131550D01*
X11131645Y3651377D01*
X11131772Y3651313D01*
X11131963Y3651218D01*
X11132217Y3651091D01*
X11132471Y3650964D01*
X11133074Y3650583D01*
X11133773Y3650075D01*
X11134471Y3649504D01*
X11135169Y3648805D01*
X11135773Y3648011D01*
X11135804Y3647980D01*
X11135836Y3647916D01*
X11135900Y3647789D01*
X11135995Y3647630D01*
X11136122Y3647408D01*
X11136249Y3647154D01*
X11136376Y3646869D01*
X11136535Y3646519D01*
X11136693Y3646170D01*
X11136821Y3645789D01*
X11137074Y3644900D01*
X11137297Y3643948D01*
X11137360Y3643440D01*
X11137392Y3642900D01*
X11133264Y3642582D01*
Y3642614D01*
X11133233Y3642709D01*
Y3642868D01*
X11133169Y3643090D01*
X11133137Y3643344D01*
X11133042Y3643630D01*
X11132947Y3643948D01*
X11132852Y3644297D01*
X11132566Y3645059D01*
X11132153Y3645821D01*
X11131899Y3646202D01*
X11131645Y3646551D01*
X11131328Y3646900D01*
X11130978Y3647218D01*
X11130947Y3647250D01*
X11130883Y3647281D01*
X11130788Y3647376D01*
X11130629Y3647472D01*
X11130439Y3647599D01*
X11130185Y3647726D01*
X11129899Y3647853D01*
X11129550Y3648011D01*
X11129169Y3648170D01*
X11128756Y3648297D01*
X11128311Y3648424D01*
X11127803Y3648551D01*
X11127232Y3648646D01*
X11126660Y3648742D01*
X11125994Y3648774D01*
X11125327Y3648805D01*
X11124946D01*
X11124692Y3648774D01*
X11124374D01*
X11123993Y3648742D01*
X11123581Y3648678D01*
X11123168Y3648615D01*
X11122216Y3648456D01*
X11121295Y3648202D01*
X11120818Y3648011D01*
X11120406Y3647821D01*
X11119993Y3647599D01*
X11119644Y3647345D01*
X11119612D01*
X11119580Y3647281D01*
X11119358Y3647091D01*
X11119072Y3646773D01*
X11118755Y3646392D01*
X11118437Y3645884D01*
X11118151Y3645281D01*
X11117929Y3644646D01*
X11117897Y3644297D01*
X11117866Y3643916D01*
Y3643884D01*
Y3643852D01*
Y3643757D01*
X11117897Y3643630D01*
X11117929Y3643281D01*
X11118024Y3642900D01*
X11118183Y3642423D01*
X11118374Y3641947D01*
X11118691Y3641471D01*
X11119104Y3641026D01*
X11119136D01*
X11119168Y3640963D01*
X11119263Y3640900D01*
X11119390Y3640836D01*
X11119548Y3640741D01*
X11119771Y3640614D01*
X11120056Y3640455D01*
X11120374Y3640296D01*
X11120787Y3640138D01*
X11121231Y3639947D01*
X11121771Y3639756D01*
X11122374Y3639566D01*
X11123041Y3639344D01*
X11123803Y3639121D01*
X11124660Y3638899D01*
X11125581Y3638677D01*
X11125644D01*
X11125803Y3638613D01*
X11126089Y3638550D01*
X11126438Y3638486D01*
X11126851Y3638391D01*
X11127359Y3638264D01*
X11127899Y3638137D01*
X11128470Y3637978D01*
X11129677Y3637661D01*
X11130851Y3637312D01*
X11131423Y3637121D01*
X11131931Y3636962D01*
X11132407Y3636772D01*
X11132820Y3636613D01*
X11132852D01*
X11132947Y3636550D01*
X11133106Y3636486D01*
X11133296Y3636391D01*
X11133518Y3636264D01*
X11133773Y3636105D01*
X11134408Y3635724D01*
X11135074Y3635248D01*
X11135773Y3634676D01*
X11136440Y3634041D01*
X11136725Y3633692D01*
X11137011Y3633311D01*
X11137043Y3633280D01*
X11137074Y3633216D01*
X11137138Y3633121D01*
X11137233Y3632962D01*
X11137328Y3632771D01*
X11137456Y3632549D01*
X11137583Y3632263D01*
X11137709Y3631978D01*
X11137932Y3631311D01*
X11138154Y3630517D01*
X11138313Y3629628D01*
X11138376Y3629152D01*
Y3628676D01*
Y3628644D01*
Y3628549D01*
Y3628422D01*
X11138344Y3628231D01*
Y3628009D01*
X11138313Y3627723D01*
X11138249Y3627437D01*
X11138186Y3627088D01*
X11138027Y3626326D01*
X11137741Y3625501D01*
X11137392Y3624643D01*
X11137138Y3624231D01*
X11136884Y3623786D01*
X11136852Y3623755D01*
X11136821Y3623691D01*
X11136725Y3623564D01*
X11136598Y3623405D01*
X11136440Y3623215D01*
X11136281Y3622993D01*
X11136058Y3622738D01*
X11135804Y3622485D01*
X11135487Y3622199D01*
X11135169Y3621913D01*
X11134820Y3621627D01*
X11134439Y3621310D01*
X11133582Y3620738D01*
X11132598Y3620230D01*
X11132566D01*
X11132471Y3620167D01*
X11132312Y3620103D01*
X11132121Y3620040D01*
X11131836Y3619945D01*
X11131550Y3619817D01*
X11131169Y3619722D01*
X11130788Y3619595D01*
X11130343Y3619468D01*
X11129867Y3619373D01*
X11129327Y3619246D01*
X11128788Y3619151D01*
X11127613Y3619024D01*
X11126343Y3618960D01*
X11125930D01*
X11125613Y3618992D01*
X11125232D01*
X11124787Y3619024D01*
X11124311Y3619055D01*
X11123771Y3619119D01*
X11123200Y3619183D01*
X11122596Y3619278D01*
X11121358Y3619500D01*
X11120120Y3619817D01*
X11119517Y3620008D01*
X11118945Y3620230D01*
X11118913Y3620262D01*
X11118818Y3620294D01*
X11118659Y3620357D01*
X11118469Y3620484D01*
X11118215Y3620611D01*
X11117897Y3620770D01*
X11117580Y3620960D01*
X11117231Y3621214D01*
X11116501Y3621754D01*
X11115707Y3622421D01*
X11114945Y3623215D01*
X11114246Y3624104D01*
X11114214Y3624135D01*
X11114183Y3624231D01*
X11114087Y3624358D01*
X11113992Y3624548D01*
X11113865Y3624802D01*
X11113706Y3625088D01*
X11113548Y3625437D01*
X11113389Y3625818D01*
X11113230Y3626231D01*
X11113071Y3626675D01*
X11112944Y3627152D01*
X11112786Y3627691D01*
X11112595Y3628803D01*
X11112532Y3629374D01*
X11112500Y3629977D01*
X11116564Y3630327D01*
Y3630295D01*
Y3630231D01*
X11116596Y3630105D01*
X11116627Y3629914D01*
X11116659Y3629692D01*
X11116723Y3629470D01*
X11116850Y3628898D01*
X11117008Y3628263D01*
X11117262Y3627596D01*
X11117548Y3626929D01*
X11117897Y3626295D01*
Y3626263D01*
X11117961Y3626231D01*
X11118088Y3626040D01*
X11118342Y3625755D01*
X11118691Y3625406D01*
X11119136Y3624993D01*
X11119707Y3624580D01*
X11120374Y3624135D01*
X11121136Y3623755D01*
X11121168D01*
X11121231Y3623723D01*
X11121358Y3623659D01*
X11121517Y3623596D01*
X11121739Y3623532D01*
X11121993Y3623469D01*
X11122279Y3623373D01*
X11122596Y3623278D01*
X11122946Y3623183D01*
X11123327Y3623119D01*
X11124184Y3622961D01*
X11125136Y3622834D01*
X11126153Y3622802D01*
X11126565D01*
X11126788Y3622834D01*
X11127041D01*
X11127613Y3622897D01*
X11128280Y3622993D01*
X11129010Y3623119D01*
X11129740Y3623278D01*
X11130470Y3623532D01*
X11130502D01*
X11130566Y3623564D01*
X11130661Y3623596D01*
X11130788Y3623659D01*
X11131137Y3623818D01*
X11131550Y3624072D01*
X11131994Y3624358D01*
X11132471Y3624675D01*
X11132915Y3625088D01*
X11133296Y3625532D01*
X11133328Y3625596D01*
X11133455Y3625755D01*
X11133582Y3626009D01*
X11133773Y3626358D01*
X11133931Y3626771D01*
X11134090Y3627247D01*
X11134185Y3627755D01*
X11134217Y3628326D01*
Y3628358D01*
Y3628390D01*
Y3628580D01*
X11134185Y3628866D01*
X11134122Y3629247D01*
X11133995Y3629660D01*
X11133836Y3630105D01*
X11133614Y3630549D01*
X11133328Y3630993D01*
X11133296Y3631057D01*
X11133169Y3631184D01*
X11132947Y3631406D01*
X11132630Y3631660D01*
X11132217Y3631978D01*
X11131709Y3632295D01*
X11131106Y3632613D01*
X11130375Y3632898D01*
X11130312Y3632930D01*
X11130216Y3632962D01*
X11130089Y3632994D01*
X11129931Y3633057D01*
X11129740Y3633121D01*
X11129486Y3633216D01*
X11129169Y3633311D01*
X11128820Y3633406D01*
X11128407Y3633534D01*
X11127931Y3633660D01*
X11127391Y3633787D01*
X11126788Y3633946D01*
X11126121Y3634105D01*
X11125391Y3634295D01*
X11124597Y3634486D01*
X11124533D01*
X11124406Y3634549D01*
X11124184Y3634581D01*
X11123866Y3634676D01*
X11123517Y3634772D01*
X11123073Y3634867D01*
X11122628Y3634994D01*
X11122120Y3635153D01*
X11121104Y3635470D01*
X11120056Y3635788D01*
X11119548Y3635978D01*
X11119104Y3636169D01*
X11118691Y3636328D01*
X11118310Y3636518D01*
X11118278D01*
X11118215Y3636581D01*
X11118088Y3636645D01*
X11117929Y3636740D01*
X11117739Y3636867D01*
X11117516Y3636994D01*
X11117008Y3637375D01*
X11116437Y3637820D01*
X11115866Y3638328D01*
X11115326Y3638931D01*
X11114849Y3639566D01*
Y3639598D01*
X11114786Y3639661D01*
X11114754Y3639756D01*
X11114659Y3639883D01*
X11114596Y3640042D01*
X11114500Y3640264D01*
X11114278Y3640741D01*
X11114056Y3641344D01*
X11113897Y3642043D01*
X11113770Y3642805D01*
X11113706Y3643630D01*
Y3643662D01*
Y3643725D01*
Y3643884D01*
X11113738Y3644043D01*
Y3644265D01*
X11113770Y3644519D01*
X11113833Y3644805D01*
X11113897Y3645122D01*
X11114056Y3645821D01*
X11114310Y3646615D01*
X11114659Y3647408D01*
X11114849Y3647821D01*
X11115103Y3648234D01*
X11115135Y3648266D01*
X11115167Y3648329D01*
X11115262Y3648456D01*
X11115358Y3648583D01*
X11115516Y3648774D01*
X11115675Y3648964D01*
X11116151Y3649440D01*
X11116723Y3649980D01*
X11117421Y3650520D01*
X11118215Y3651060D01*
X11119168Y3651504D01*
X11119199D01*
X11119294Y3651568D01*
X11119453Y3651599D01*
X11119644Y3651694D01*
X11119898Y3651758D01*
X11120183Y3651853D01*
X11120533Y3651948D01*
X11120914Y3652076D01*
X11121358Y3652171D01*
X11121803Y3652266D01*
X11122311Y3652361D01*
X11122819Y3652456D01*
X11123930Y3652584D01*
X11125136Y3652615D01*
X11125486D01*
X11125740Y3652584D01*
D02*
G37*
G36*
X11181651Y3652139D02*
X11182001D01*
X11182382Y3652107D01*
X11182826Y3652044D01*
X11183334Y3651948D01*
X11183906Y3651853D01*
X11184477Y3651694D01*
X11185081Y3651536D01*
X11185716Y3651313D01*
X11186319Y3651060D01*
X11186954Y3650774D01*
X11187525Y3650425D01*
X11188097Y3650012D01*
X11188636Y3649567D01*
X11188668Y3649535D01*
X11188763Y3649440D01*
X11188891Y3649313D01*
X11189049Y3649091D01*
X11189271Y3648837D01*
X11189494Y3648551D01*
X11189748Y3648202D01*
X11190002Y3647789D01*
X11190256Y3647345D01*
X11190510Y3646837D01*
X11190732Y3646329D01*
X11190954Y3645757D01*
X11191113Y3645154D01*
X11191240Y3644487D01*
X11191335Y3643820D01*
X11191367Y3643122D01*
Y3643090D01*
Y3643027D01*
Y3642931D01*
Y3642805D01*
X11191335Y3642614D01*
Y3642423D01*
X11191272Y3641915D01*
X11191176Y3641344D01*
X11191018Y3640677D01*
X11190827Y3639979D01*
X11190541Y3639280D01*
Y3639249D01*
X11190510Y3639185D01*
X11190446Y3639090D01*
X11190383Y3638963D01*
X11190287Y3638772D01*
X11190192Y3638582D01*
X11189906Y3638074D01*
X11189557Y3637502D01*
X11189081Y3636804D01*
X11188541Y3636073D01*
X11187874Y3635311D01*
X11187843Y3635280D01*
X11187779Y3635216D01*
X11187684Y3635089D01*
X11187525Y3634931D01*
X11187303Y3634708D01*
X11187081Y3634454D01*
X11186763Y3634168D01*
X11186414Y3633819D01*
X11186033Y3633438D01*
X11185557Y3632994D01*
X11185081Y3632518D01*
X11184509Y3632010D01*
X11183906Y3631470D01*
X11183239Y3630866D01*
X11182509Y3630263D01*
X11181747Y3629596D01*
X11181715Y3629565D01*
X11181588Y3629470D01*
X11181397Y3629311D01*
X11181175Y3629120D01*
X11180889Y3628866D01*
X11180572Y3628580D01*
X11179810Y3627945D01*
X11179048Y3627279D01*
X11178286Y3626612D01*
X11177937Y3626295D01*
X11177619Y3625977D01*
X11177333Y3625723D01*
X11177111Y3625501D01*
X11177079Y3625469D01*
X11176953Y3625310D01*
X11176762Y3625088D01*
X11176508Y3624834D01*
X11176254Y3624485D01*
X11175968Y3624135D01*
X11175683Y3623755D01*
X11175428Y3623342D01*
X11191399D01*
Y3619500D01*
X11169904D01*
Y3619532D01*
Y3619563D01*
Y3619754D01*
Y3620008D01*
X11169936Y3620389D01*
X11169999Y3620802D01*
X11170063Y3621278D01*
X11170190Y3621754D01*
X11170348Y3622262D01*
Y3622294D01*
X11170380Y3622357D01*
X11170444Y3622485D01*
X11170507Y3622643D01*
X11170602Y3622834D01*
X11170698Y3623056D01*
X11170983Y3623627D01*
X11171364Y3624294D01*
X11171809Y3625024D01*
X11172349Y3625786D01*
X11172984Y3626580D01*
X11173016Y3626612D01*
X11173079Y3626675D01*
X11173174Y3626803D01*
X11173333Y3626961D01*
X11173523Y3627152D01*
X11173746Y3627406D01*
X11174000Y3627691D01*
X11174317Y3628009D01*
X11174666Y3628326D01*
X11175047Y3628708D01*
X11175492Y3629120D01*
X11175936Y3629565D01*
X11176444Y3630009D01*
X11176984Y3630485D01*
X11177587Y3630993D01*
X11178191Y3631501D01*
X11178254Y3631565D01*
X11178413Y3631692D01*
X11178699Y3631914D01*
X11179048Y3632232D01*
X11179493Y3632581D01*
X11179969Y3633026D01*
X11180508Y3633502D01*
X11181080Y3634010D01*
X11182286Y3635121D01*
X11183461Y3636264D01*
X11184001Y3636836D01*
X11184509Y3637407D01*
X11184985Y3637915D01*
X11185366Y3638423D01*
X11185398Y3638455D01*
X11185461Y3638550D01*
X11185557Y3638677D01*
X11185652Y3638867D01*
X11185811Y3639090D01*
X11185970Y3639344D01*
X11186128Y3639661D01*
X11186319Y3639979D01*
X11186668Y3640709D01*
X11186986Y3641503D01*
X11187081Y3641947D01*
X11187176Y3642360D01*
X11187239Y3642805D01*
X11187271Y3643217D01*
Y3643249D01*
Y3643312D01*
Y3643440D01*
X11187239Y3643630D01*
X11187208Y3643820D01*
X11187176Y3644043D01*
X11187049Y3644614D01*
X11186858Y3645249D01*
X11186541Y3645916D01*
X11186351Y3646233D01*
X11186128Y3646583D01*
X11185874Y3646900D01*
X11185557Y3647218D01*
X11185525Y3647250D01*
X11185493Y3647281D01*
X11185366Y3647376D01*
X11185239Y3647472D01*
X11185081Y3647599D01*
X11184858Y3647726D01*
X11184636Y3647884D01*
X11184350Y3648043D01*
X11184064Y3648202D01*
X11183715Y3648361D01*
X11182953Y3648615D01*
X11182096Y3648805D01*
X11181620Y3648837D01*
X11181112Y3648869D01*
X11180826D01*
X11180636Y3648837D01*
X11180381Y3648805D01*
X11180096Y3648774D01*
X11179778Y3648710D01*
X11179461Y3648646D01*
X11178699Y3648456D01*
X11177937Y3648138D01*
X11177556Y3647948D01*
X11177175Y3647694D01*
X11176826Y3647440D01*
X11176476Y3647122D01*
X11176444Y3647091D01*
X11176413Y3647059D01*
X11176318Y3646932D01*
X11176222Y3646805D01*
X11176095Y3646646D01*
X11175936Y3646424D01*
X11175778Y3646170D01*
X11175619Y3645884D01*
X11175460Y3645567D01*
X11175301Y3645217D01*
X11175174Y3644805D01*
X11175016Y3644392D01*
X11174921Y3643948D01*
X11174825Y3643440D01*
X11174793Y3642931D01*
X11174762Y3642360D01*
X11170666Y3642773D01*
Y3642836D01*
X11170698Y3642963D01*
X11170730Y3643217D01*
X11170761Y3643535D01*
X11170856Y3643916D01*
X11170952Y3644360D01*
X11171079Y3644836D01*
X11171206Y3645376D01*
X11171396Y3645916D01*
X11171618Y3646487D01*
X11171873Y3647059D01*
X11172158Y3647662D01*
X11172508Y3648234D01*
X11172888Y3648774D01*
X11173333Y3649281D01*
X11173809Y3649758D01*
X11173841Y3649789D01*
X11173936Y3649853D01*
X11174095Y3649980D01*
X11174317Y3650139D01*
X11174603Y3650329D01*
X11174921Y3650520D01*
X11175333Y3650742D01*
X11175778Y3650964D01*
X11176286Y3651186D01*
X11176826Y3651409D01*
X11177429Y3651599D01*
X11178096Y3651790D01*
X11178794Y3651948D01*
X11179556Y3652076D01*
X11180350Y3652139D01*
X11181207Y3652171D01*
X11181429D01*
X11181651Y3652139D01*
D02*
G37*
G36*
X11167618Y3648202D02*
X11156855D01*
Y3619500D01*
X11152537D01*
Y3648202D01*
X11141805D01*
Y3652044D01*
X11167618D01*
Y3648202D01*
D02*
G37*
G36*
X3226340Y3741483D02*
X3226657D01*
X3227038Y3741452D01*
X3227451Y3741420D01*
X3227895Y3741356D01*
X3228372Y3741293D01*
X3228880Y3741230D01*
X3229959Y3741007D01*
X3231039Y3740721D01*
X3232118Y3740340D01*
X3232150D01*
X3232245Y3740277D01*
X3232372Y3740213D01*
X3232563Y3740118D01*
X3232817Y3739991D01*
X3233071Y3739864D01*
X3233674Y3739483D01*
X3234372Y3738975D01*
X3235071Y3738404D01*
X3235769Y3737705D01*
X3236373Y3736911D01*
X3236405Y3736880D01*
X3236436Y3736816D01*
X3236500Y3736689D01*
X3236595Y3736530D01*
X3236722Y3736308D01*
X3236849Y3736054D01*
X3236976Y3735768D01*
X3237135Y3735419D01*
X3237293Y3735070D01*
X3237420Y3734689D01*
X3237674Y3733800D01*
X3237897Y3732847D01*
X3237960Y3732339D01*
X3237992Y3731800D01*
X3233864Y3731482D01*
Y3731514D01*
X3233833Y3731609D01*
Y3731768D01*
X3233769Y3731990D01*
X3233738Y3732244D01*
X3233642Y3732530D01*
X3233547Y3732847D01*
X3233452Y3733197D01*
X3233166Y3733959D01*
X3232753Y3734721D01*
X3232499Y3735102D01*
X3232245Y3735451D01*
X3231928Y3735800D01*
X3231578Y3736118D01*
X3231547Y3736149D01*
X3231483Y3736181D01*
X3231388Y3736276D01*
X3231229Y3736372D01*
X3231039Y3736499D01*
X3230785Y3736626D01*
X3230499Y3736753D01*
X3230150Y3736911D01*
X3229769Y3737070D01*
X3229356Y3737197D01*
X3228911Y3737324D01*
X3228403Y3737451D01*
X3227832Y3737546D01*
X3227260Y3737642D01*
X3226594Y3737673D01*
X3225927Y3737705D01*
X3225546D01*
X3225292Y3737673D01*
X3224975D01*
X3224593Y3737642D01*
X3224181Y3737578D01*
X3223768Y3737515D01*
X3222816Y3737356D01*
X3221895Y3737102D01*
X3221419Y3736911D01*
X3221006Y3736721D01*
X3220593Y3736499D01*
X3220244Y3736245D01*
X3220212D01*
X3220180Y3736181D01*
X3219958Y3735991D01*
X3219672Y3735673D01*
X3219355Y3735292D01*
X3219037Y3734784D01*
X3218751Y3734181D01*
X3218529Y3733546D01*
X3218498Y3733197D01*
X3218466Y3732816D01*
Y3732784D01*
Y3732752D01*
Y3732657D01*
X3218498Y3732530D01*
X3218529Y3732181D01*
X3218624Y3731800D01*
X3218783Y3731323D01*
X3218974Y3730847D01*
X3219291Y3730371D01*
X3219704Y3729926D01*
X3219736D01*
X3219767Y3729863D01*
X3219863Y3729800D01*
X3219990Y3729736D01*
X3220148Y3729641D01*
X3220371Y3729514D01*
X3220656Y3729355D01*
X3220974Y3729196D01*
X3221387Y3729037D01*
X3221831Y3728847D01*
X3222371Y3728656D01*
X3222974Y3728466D01*
X3223641Y3728244D01*
X3224403Y3728021D01*
X3225260Y3727799D01*
X3226181Y3727577D01*
X3226244D01*
X3226403Y3727513D01*
X3226689Y3727450D01*
X3227038Y3727386D01*
X3227451Y3727291D01*
X3227959Y3727164D01*
X3228499Y3727037D01*
X3229070Y3726879D01*
X3230277Y3726561D01*
X3231451Y3726212D01*
X3232023Y3726021D01*
X3232531Y3725863D01*
X3233007Y3725672D01*
X3233420Y3725513D01*
X3233452D01*
X3233547Y3725450D01*
X3233706Y3725386D01*
X3233896Y3725291D01*
X3234118Y3725164D01*
X3234372Y3725005D01*
X3235007Y3724624D01*
X3235674Y3724148D01*
X3236373Y3723576D01*
X3237040Y3722941D01*
X3237325Y3722592D01*
X3237611Y3722211D01*
X3237643Y3722180D01*
X3237674Y3722116D01*
X3237738Y3722021D01*
X3237833Y3721862D01*
X3237928Y3721671D01*
X3238056Y3721449D01*
X3238182Y3721164D01*
X3238310Y3720878D01*
X3238532Y3720211D01*
X3238754Y3719417D01*
X3238913Y3718528D01*
X3238976Y3718052D01*
Y3717576D01*
Y3717544D01*
Y3717449D01*
Y3717322D01*
X3238945Y3717131D01*
Y3716909D01*
X3238913Y3716623D01*
X3238849Y3716338D01*
X3238786Y3715988D01*
X3238627Y3715226D01*
X3238341Y3714401D01*
X3237992Y3713544D01*
X3237738Y3713131D01*
X3237484Y3712686D01*
X3237452Y3712655D01*
X3237420Y3712591D01*
X3237325Y3712464D01*
X3237198Y3712305D01*
X3237040Y3712115D01*
X3236881Y3711892D01*
X3236659Y3711639D01*
X3236405Y3711384D01*
X3236087Y3711099D01*
X3235769Y3710813D01*
X3235420Y3710527D01*
X3235039Y3710210D01*
X3234182Y3709638D01*
X3233198Y3709130D01*
X3233166D01*
X3233071Y3709067D01*
X3232912Y3709003D01*
X3232721Y3708940D01*
X3232436Y3708845D01*
X3232150Y3708718D01*
X3231769Y3708622D01*
X3231388Y3708495D01*
X3230944Y3708368D01*
X3230467Y3708273D01*
X3229928Y3708146D01*
X3229388Y3708051D01*
X3228213Y3707924D01*
X3226943Y3707860D01*
X3226530D01*
X3226213Y3707892D01*
X3225832D01*
X3225387Y3707924D01*
X3224911Y3707955D01*
X3224371Y3708019D01*
X3223800Y3708082D01*
X3223196Y3708178D01*
X3221958Y3708400D01*
X3220720Y3708718D01*
X3220117Y3708908D01*
X3219545Y3709130D01*
X3219514Y3709162D01*
X3219418Y3709194D01*
X3219260Y3709257D01*
X3219069Y3709384D01*
X3218815Y3709511D01*
X3218498Y3709670D01*
X3218180Y3709860D01*
X3217831Y3710115D01*
X3217101Y3710654D01*
X3216307Y3711321D01*
X3215545Y3712115D01*
X3214846Y3713004D01*
X3214814Y3713036D01*
X3214783Y3713131D01*
X3214688Y3713258D01*
X3214592Y3713448D01*
X3214465Y3713702D01*
X3214306Y3713988D01*
X3214148Y3714337D01*
X3213989Y3714718D01*
X3213830Y3715131D01*
X3213671Y3715575D01*
X3213545Y3716052D01*
X3213386Y3716591D01*
X3213195Y3717703D01*
X3213132Y3718274D01*
X3213100Y3718877D01*
X3217164Y3719227D01*
Y3719195D01*
Y3719131D01*
X3217196Y3719004D01*
X3217227Y3718814D01*
X3217259Y3718592D01*
X3217323Y3718370D01*
X3217450Y3717798D01*
X3217609Y3717163D01*
X3217862Y3716496D01*
X3218148Y3715830D01*
X3218498Y3715194D01*
Y3715163D01*
X3218561Y3715131D01*
X3218688Y3714941D01*
X3218942Y3714655D01*
X3219291Y3714305D01*
X3219736Y3713893D01*
X3220307Y3713480D01*
X3220974Y3713036D01*
X3221736Y3712655D01*
X3221768D01*
X3221831Y3712623D01*
X3221958Y3712559D01*
X3222117Y3712496D01*
X3222339Y3712432D01*
X3222593Y3712369D01*
X3222879Y3712273D01*
X3223196Y3712178D01*
X3223546Y3712083D01*
X3223927Y3712020D01*
X3224784Y3711861D01*
X3225736Y3711734D01*
X3226752Y3711702D01*
X3227165D01*
X3227387Y3711734D01*
X3227641D01*
X3228213Y3711797D01*
X3228880Y3711892D01*
X3229610Y3712020D01*
X3230340Y3712178D01*
X3231070Y3712432D01*
X3231102D01*
X3231166Y3712464D01*
X3231261Y3712496D01*
X3231388Y3712559D01*
X3231737Y3712718D01*
X3232150Y3712972D01*
X3232595Y3713258D01*
X3233071Y3713575D01*
X3233515Y3713988D01*
X3233896Y3714433D01*
X3233928Y3714496D01*
X3234055Y3714655D01*
X3234182Y3714909D01*
X3234372Y3715258D01*
X3234531Y3715671D01*
X3234690Y3716147D01*
X3234785Y3716655D01*
X3234817Y3717226D01*
Y3717258D01*
Y3717290D01*
Y3717480D01*
X3234785Y3717766D01*
X3234722Y3718147D01*
X3234595Y3718560D01*
X3234436Y3719004D01*
X3234214Y3719449D01*
X3233928Y3719893D01*
X3233896Y3719957D01*
X3233769Y3720084D01*
X3233547Y3720306D01*
X3233230Y3720560D01*
X3232817Y3720878D01*
X3232309Y3721195D01*
X3231705Y3721513D01*
X3230975Y3721798D01*
X3230912Y3721830D01*
X3230816Y3721862D01*
X3230690Y3721894D01*
X3230531Y3721957D01*
X3230340Y3722021D01*
X3230086Y3722116D01*
X3229769Y3722211D01*
X3229420Y3722306D01*
X3229007Y3722433D01*
X3228531Y3722561D01*
X3227991Y3722687D01*
X3227387Y3722846D01*
X3226721Y3723005D01*
X3225990Y3723195D01*
X3225197Y3723386D01*
X3225133D01*
X3225006Y3723450D01*
X3224784Y3723481D01*
X3224466Y3723576D01*
X3224117Y3723672D01*
X3223673Y3723767D01*
X3223228Y3723894D01*
X3222720Y3724053D01*
X3221704Y3724370D01*
X3220656Y3724688D01*
X3220148Y3724878D01*
X3219704Y3725069D01*
X3219291Y3725227D01*
X3218910Y3725418D01*
X3218878D01*
X3218815Y3725481D01*
X3218688Y3725545D01*
X3218529Y3725640D01*
X3218339Y3725767D01*
X3218117Y3725894D01*
X3217609Y3726275D01*
X3217037Y3726720D01*
X3216465Y3727228D01*
X3215926Y3727831D01*
X3215450Y3728466D01*
Y3728498D01*
X3215386Y3728561D01*
X3215354Y3728656D01*
X3215259Y3728784D01*
X3215196Y3728942D01*
X3215100Y3729165D01*
X3214878Y3729641D01*
X3214656Y3730244D01*
X3214497Y3730942D01*
X3214370Y3731705D01*
X3214306Y3732530D01*
Y3732562D01*
Y3732625D01*
Y3732784D01*
X3214338Y3732943D01*
Y3733165D01*
X3214370Y3733419D01*
X3214433Y3733705D01*
X3214497Y3734022D01*
X3214656Y3734721D01*
X3214910Y3735515D01*
X3215259Y3736308D01*
X3215450Y3736721D01*
X3215704Y3737134D01*
X3215735Y3737165D01*
X3215767Y3737229D01*
X3215862Y3737356D01*
X3215957Y3737483D01*
X3216116Y3737673D01*
X3216275Y3737864D01*
X3216751Y3738340D01*
X3217323Y3738880D01*
X3218021Y3739420D01*
X3218815Y3739959D01*
X3219767Y3740404D01*
X3219799D01*
X3219895Y3740467D01*
X3220053Y3740499D01*
X3220244Y3740595D01*
X3220498Y3740658D01*
X3220783Y3740753D01*
X3221133Y3740848D01*
X3221514Y3740975D01*
X3221958Y3741071D01*
X3222403Y3741166D01*
X3222911Y3741261D01*
X3223419Y3741356D01*
X3224530Y3741483D01*
X3225736Y3741515D01*
X3226086D01*
X3226340Y3741483D01*
D02*
G37*
G36*
X3286061Y3708400D02*
X3282061D01*
Y3733832D01*
X3282029D01*
X3281997Y3733768D01*
X3281902Y3733705D01*
X3281807Y3733610D01*
X3281489Y3733324D01*
X3281045Y3732975D01*
X3280505Y3732562D01*
X3279838Y3732086D01*
X3279076Y3731578D01*
X3278251Y3731070D01*
X3278219D01*
X3278156Y3731006D01*
X3278029Y3730942D01*
X3277870Y3730847D01*
X3277648Y3730720D01*
X3277425Y3730593D01*
X3276854Y3730307D01*
X3276219Y3729990D01*
X3275520Y3729641D01*
X3274790Y3729323D01*
X3274092Y3729037D01*
Y3732879D01*
X3274123Y3732911D01*
X3274251Y3732943D01*
X3274409Y3733038D01*
X3274663Y3733165D01*
X3274949Y3733324D01*
X3275266Y3733514D01*
X3275648Y3733705D01*
X3276060Y3733959D01*
X3276981Y3734499D01*
X3277965Y3735165D01*
X3278950Y3735896D01*
X3279934Y3736689D01*
X3279966Y3736721D01*
X3280029Y3736785D01*
X3280188Y3736911D01*
X3280346Y3737070D01*
X3280537Y3737293D01*
X3280791Y3737515D01*
X3281045Y3737801D01*
X3281331Y3738086D01*
X3281902Y3738753D01*
X3282474Y3739483D01*
X3283013Y3740277D01*
X3283268Y3740658D01*
X3283458Y3741071D01*
X3286061D01*
Y3708400D01*
D02*
G37*
G36*
X3268218Y3737102D02*
X3257455D01*
Y3708400D01*
X3253137D01*
Y3737102D01*
X3242405D01*
Y3740944D01*
X3268218D01*
Y3737102D01*
D02*
G37*
%LPC*%
G36*
X3296539Y11125930D02*
X3286315Y11111230D01*
X3296539D01*
Y11125930D01*
D02*
G37*
%LPD*%
%TF.MD5,58c964f5159f1fb67963da15784b376f*%
M02*
