%TF.GenerationSoftware,Altium Limited,Altium Designer,21.5.1 (32)*%
G04 Layer_Color=16711935*
%FSLAX45Y45*%
%MOMM*%
%TF.SameCoordinates,620DA487-9358-4998-A31C-56A073A1AE4C*%
%TF.FilePolarity,Positive*%
%TF.FileFunction,Other,Top_Assembly*%
%TF.Part,Single*%
G01*
G75*
%TA.AperFunction,NonConductor*%
%ADD75C,0.20000*%
G36*
X3170505Y8980577D02*
X3171068D01*
X3171817Y8980514D01*
X3172630Y8980452D01*
X3173504Y8980327D01*
X3174442Y8980202D01*
X3175441Y8980077D01*
X3177503Y8979640D01*
X3179690Y8979077D01*
X3181815Y8978327D01*
X3181877D01*
X3182065Y8978203D01*
X3182377Y8978078D01*
X3182752Y8977890D01*
X3183189Y8977703D01*
X3183752Y8977390D01*
X3185002Y8976703D01*
X3186439Y8975828D01*
X3187876Y8974766D01*
X3189313Y8973516D01*
X3190625Y8972079D01*
X3190688Y8972017D01*
X3190750Y8971892D01*
X3190937Y8971642D01*
X3191187Y8971329D01*
X3191437Y8970954D01*
X3191750Y8970454D01*
X3192062Y8969892D01*
X3192437Y8969267D01*
X3192874Y8968580D01*
X3193249Y8967768D01*
X3193624Y8966893D01*
X3194062Y8965956D01*
X3194437Y8964956D01*
X3194811Y8963894D01*
X3195186Y8962769D01*
X3195499Y8961582D01*
X3187876Y8959520D01*
Y8959582D01*
X3187813Y8959707D01*
X3187751Y8960020D01*
X3187626Y8960332D01*
X3187501Y8960707D01*
X3187313Y8961207D01*
X3186876Y8962332D01*
X3186376Y8963519D01*
X3185751Y8964831D01*
X3185064Y8966081D01*
X3184252Y8967205D01*
Y8967268D01*
X3184127Y8967330D01*
X3183877Y8967643D01*
X3183377Y8968205D01*
X3182690Y8968830D01*
X3181815Y8969517D01*
X3180753Y8970267D01*
X3179565Y8971017D01*
X3178128Y8971704D01*
X3178066D01*
X3177941Y8971767D01*
X3177753Y8971892D01*
X3177441Y8971954D01*
X3177066Y8972079D01*
X3176629Y8972267D01*
X3176129Y8972392D01*
X3175566Y8972579D01*
X3174254Y8972829D01*
X3172755Y8973141D01*
X3171068Y8973329D01*
X3169318Y8973391D01*
X3168318D01*
X3167818Y8973329D01*
X3167256D01*
X3166631Y8973266D01*
X3165881Y8973141D01*
X3164319Y8972954D01*
X3162632Y8972641D01*
X3160883Y8972204D01*
X3159258Y8971579D01*
X3159196D01*
X3159071Y8971517D01*
X3158883Y8971392D01*
X3158571Y8971267D01*
X3158196Y8971079D01*
X3157821Y8970892D01*
X3156821Y8970330D01*
X3155759Y8969642D01*
X3154634Y8968892D01*
X3153510Y8967955D01*
X3152447Y8966893D01*
X3152322Y8966768D01*
X3152010Y8966393D01*
X3151573Y8965831D01*
X3151010Y8965018D01*
X3150323Y8964081D01*
X3149698Y8963019D01*
X3149011Y8961832D01*
X3148448Y8960582D01*
Y8960520D01*
X3148323Y8960332D01*
X3148198Y8960020D01*
X3148073Y8959520D01*
X3147886Y8959020D01*
X3147699Y8958333D01*
X3147449Y8957583D01*
X3147261Y8956771D01*
X3147011Y8955833D01*
X3146761Y8954833D01*
X3146574Y8953771D01*
X3146386Y8952647D01*
X3146136Y8950272D01*
X3146011Y8947710D01*
Y8947585D01*
Y8947335D01*
Y8946898D01*
X3146074Y8946273D01*
Y8945523D01*
X3146199Y8944711D01*
X3146261Y8943774D01*
X3146386Y8942712D01*
X3146511Y8941587D01*
X3146761Y8940462D01*
X3147261Y8938025D01*
X3148011Y8935651D01*
X3148448Y8934464D01*
X3148948Y8933339D01*
X3149011Y8933277D01*
X3149073Y8933089D01*
X3149261Y8932777D01*
X3149511Y8932402D01*
X3149823Y8931902D01*
X3150198Y8931402D01*
X3150635Y8930777D01*
X3151135Y8930090D01*
X3151698Y8929403D01*
X3152322Y8928715D01*
X3153010Y8928028D01*
X3153822Y8927278D01*
X3154634Y8926591D01*
X3155509Y8925966D01*
X3156509Y8925341D01*
X3157509Y8924779D01*
X3157571D01*
X3157758Y8924654D01*
X3158071Y8924529D01*
X3158508Y8924341D01*
X3159008Y8924154D01*
X3159633Y8923904D01*
X3160320Y8923654D01*
X3161133Y8923404D01*
X3161945Y8923154D01*
X3162882Y8922904D01*
X3164944Y8922467D01*
X3167131Y8922154D01*
X3168256Y8922092D01*
X3169443Y8922029D01*
X3170005D01*
X3170380Y8922092D01*
X3170880D01*
X3171442Y8922154D01*
X3172130Y8922217D01*
X3172880Y8922279D01*
X3174504Y8922529D01*
X3176316Y8922904D01*
X3178253Y8923404D01*
X3180190Y8924091D01*
X3180253D01*
X3180440Y8924216D01*
X3180690Y8924279D01*
X3181065Y8924466D01*
X3181502Y8924654D01*
X3182002Y8924904D01*
X3183189Y8925466D01*
X3184439Y8926153D01*
X3185751Y8926903D01*
X3187063Y8927778D01*
X3188188Y8928653D01*
Y8940587D01*
X3169381D01*
Y8948148D01*
X3196499D01*
Y8924341D01*
X3196436Y8924279D01*
X3196249Y8924154D01*
X3195874Y8923841D01*
X3195436Y8923529D01*
X3194874Y8923092D01*
X3194187Y8922654D01*
X3193374Y8922154D01*
X3192562Y8921592D01*
X3191625Y8920967D01*
X3190625Y8920342D01*
X3188438Y8919155D01*
X3186064Y8917968D01*
X3183564Y8916906D01*
X3183502D01*
X3183252Y8916781D01*
X3182940Y8916656D01*
X3182440Y8916531D01*
X3181815Y8916343D01*
X3181127Y8916093D01*
X3180315Y8915906D01*
X3179378Y8915656D01*
X3178378Y8915406D01*
X3177316Y8915219D01*
X3176191Y8914969D01*
X3175004Y8914781D01*
X3172567Y8914531D01*
X3169943Y8914406D01*
X3169006D01*
X3168381Y8914469D01*
X3167506Y8914531D01*
X3166569Y8914594D01*
X3165444Y8914719D01*
X3164257Y8914906D01*
X3162945Y8915094D01*
X3161632Y8915406D01*
X3160195Y8915719D01*
X3158696Y8916093D01*
X3157196Y8916531D01*
X3155697Y8917093D01*
X3154259Y8917718D01*
X3152760Y8918405D01*
X3152697Y8918468D01*
X3152447Y8918593D01*
X3152010Y8918843D01*
X3151510Y8919155D01*
X3150885Y8919593D01*
X3150135Y8920092D01*
X3149323Y8920717D01*
X3148448Y8921405D01*
X3147511Y8922154D01*
X3146574Y8923029D01*
X3145574Y8924029D01*
X3144637Y8925029D01*
X3143700Y8926153D01*
X3142762Y8927403D01*
X3141950Y8928715D01*
X3141138Y8930090D01*
X3141075Y8930152D01*
X3140950Y8930465D01*
X3140763Y8930840D01*
X3140513Y8931464D01*
X3140263Y8932152D01*
X3139888Y8933027D01*
X3139576Y8934026D01*
X3139201Y8935089D01*
X3138826Y8936338D01*
X3138513Y8937650D01*
X3138139Y8939088D01*
X3137889Y8940587D01*
X3137639Y8942149D01*
X3137451Y8943774D01*
X3137326Y8945461D01*
X3137264Y8947210D01*
Y8947335D01*
Y8947648D01*
Y8948148D01*
X3137326Y8948773D01*
X3137389Y8949647D01*
X3137451Y8950585D01*
X3137576Y8951709D01*
X3137764Y8952896D01*
X3137951Y8954209D01*
X3138201Y8955583D01*
X3138513Y8957020D01*
X3138888Y8958520D01*
X3139326Y8960020D01*
X3139888Y8961582D01*
X3140450Y8963081D01*
X3141138Y8964643D01*
X3141200Y8964768D01*
X3141325Y8965018D01*
X3141575Y8965393D01*
X3141888Y8965956D01*
X3142262Y8966643D01*
X3142762Y8967393D01*
X3143325Y8968268D01*
X3144012Y8969205D01*
X3144762Y8970142D01*
X3145637Y8971142D01*
X3146511Y8972142D01*
X3147574Y8973141D01*
X3148636Y8974141D01*
X3149823Y8975078D01*
X3151073Y8975891D01*
X3152385Y8976703D01*
X3152447Y8976765D01*
X3152697Y8976890D01*
X3153135Y8977078D01*
X3153697Y8977328D01*
X3154384Y8977640D01*
X3155197Y8977953D01*
X3156196Y8978327D01*
X3157259Y8978702D01*
X3158446Y8979015D01*
X3159758Y8979390D01*
X3161133Y8979702D01*
X3162632Y8980015D01*
X3164194Y8980264D01*
X3165819Y8980452D01*
X3167568Y8980577D01*
X3169318Y8980639D01*
X3170005D01*
X3170505Y8980577D01*
D02*
G37*
G36*
X3259420Y8915469D02*
X3250672D01*
X3217056Y8965706D01*
Y8915469D01*
X3208933D01*
Y8979515D01*
X3217618D01*
X3251297Y8929215D01*
Y8979515D01*
X3259420D01*
Y8915469D01*
D02*
G37*
G36*
X3298223Y8979452D02*
X3299035D01*
X3299847Y8979390D01*
X3301722Y8979265D01*
X3303596Y8979140D01*
X3305408Y8978890D01*
X3306283Y8978765D01*
X3307033Y8978577D01*
X3307095D01*
X3307283Y8978515D01*
X3307595Y8978452D01*
X3307970Y8978327D01*
X3308470Y8978203D01*
X3308970Y8978015D01*
X3309595Y8977765D01*
X3310282Y8977515D01*
X3311782Y8976890D01*
X3313344Y8976078D01*
X3314968Y8975141D01*
X3316468Y8973954D01*
X3316530Y8973891D01*
X3316718Y8973766D01*
X3316968Y8973516D01*
X3317280Y8973204D01*
X3317718Y8972766D01*
X3318217Y8972267D01*
X3318717Y8971642D01*
X3319342Y8971017D01*
X3319904Y8970267D01*
X3320529Y8969392D01*
X3321154Y8968517D01*
X3321779Y8967580D01*
X3322404Y8966518D01*
X3322966Y8965393D01*
X3324028Y8963019D01*
Y8962956D01*
X3324153Y8962706D01*
X3324278Y8962332D01*
X3324403Y8961832D01*
X3324653Y8961207D01*
X3324841Y8960457D01*
X3325091Y8959582D01*
X3325341Y8958645D01*
X3325528Y8957583D01*
X3325778Y8956396D01*
X3326028Y8955146D01*
X3326215Y8953834D01*
X3326340Y8952397D01*
X3326465Y8950959D01*
X3326590Y8947835D01*
Y8947773D01*
Y8947523D01*
Y8947148D01*
Y8946586D01*
X3326528Y8945961D01*
Y8945211D01*
X3326465Y8944399D01*
X3326403Y8943461D01*
X3326278Y8942462D01*
X3326153Y8941462D01*
X3325840Y8939275D01*
X3325403Y8937026D01*
X3324841Y8934839D01*
Y8934776D01*
X3324778Y8934589D01*
X3324653Y8934276D01*
X3324528Y8933901D01*
X3324341Y8933401D01*
X3324153Y8932839D01*
X3323903Y8932214D01*
X3323653Y8931589D01*
X3323029Y8930090D01*
X3322279Y8928528D01*
X3321404Y8926966D01*
X3320467Y8925529D01*
Y8925466D01*
X3320342Y8925341D01*
X3320217Y8925154D01*
X3320029Y8924904D01*
X3319467Y8924279D01*
X3318780Y8923404D01*
X3317905Y8922467D01*
X3316905Y8921530D01*
X3315843Y8920592D01*
X3314656Y8919717D01*
X3314593D01*
X3314531Y8919655D01*
X3314343Y8919530D01*
X3314093Y8919343D01*
X3313781Y8919218D01*
X3313406Y8918968D01*
X3312531Y8918530D01*
X3311407Y8918030D01*
X3310094Y8917468D01*
X3308595Y8916968D01*
X3306970Y8916531D01*
X3306908D01*
X3306783Y8916468D01*
X3306533Y8916406D01*
X3306158Y8916343D01*
X3305783Y8916281D01*
X3305283Y8916218D01*
X3304658Y8916093D01*
X3304034Y8916031D01*
X3303284Y8915906D01*
X3302534Y8915781D01*
X3300784Y8915656D01*
X3298847Y8915531D01*
X3296723Y8915469D01*
X3273604D01*
Y8979515D01*
X3297535D01*
X3298223Y8979452D01*
D02*
G37*
G36*
X3064907Y8937963D02*
X3073530D01*
Y8930777D01*
X3064907D01*
Y8915469D01*
X3057034D01*
Y8930777D01*
X3029229D01*
Y8937963D01*
X3058471Y8979515D01*
X3064907D01*
Y8937963D01*
D02*
G37*
G36*
X3026292Y8971954D02*
X3005110D01*
Y8915469D01*
X2996612D01*
Y8971954D01*
X2975493D01*
Y8979515D01*
X3026292D01*
Y8971954D01*
D02*
G37*
G36*
X3342524Y8980514D02*
X3342774Y8980140D01*
X3343211Y8979577D01*
X3343711Y8978765D01*
X3344398Y8977765D01*
X3345210Y8976578D01*
X3346085Y8975266D01*
X3346960Y8973766D01*
X3347960Y8972142D01*
X3348960Y8970454D01*
X3349959Y8968580D01*
X3350959Y8966705D01*
X3351959Y8964706D01*
X3352896Y8962706D01*
X3353708Y8960645D01*
X3354521Y8958583D01*
X3354583Y8958458D01*
X3354646Y8958145D01*
X3354833Y8957645D01*
X3355020Y8956958D01*
X3355333Y8956083D01*
X3355583Y8955021D01*
X3355895Y8953834D01*
X3356208Y8952522D01*
X3356520Y8951084D01*
X3356833Y8949522D01*
X3357145Y8947898D01*
X3357395Y8946148D01*
X3357582Y8944336D01*
X3357770Y8942524D01*
X3357832Y8940587D01*
X3357895Y8938650D01*
Y8938588D01*
Y8938525D01*
Y8938338D01*
Y8938150D01*
Y8937463D01*
X3357832Y8936651D01*
X3357770Y8935588D01*
X3357645Y8934339D01*
X3357520Y8932902D01*
X3357332Y8931402D01*
X3357082Y8929715D01*
X3356770Y8927903D01*
X3356395Y8926028D01*
X3355958Y8924029D01*
X3355458Y8922029D01*
X3354833Y8919967D01*
X3354146Y8917905D01*
X3353333Y8915843D01*
X3353271Y8915719D01*
X3353146Y8915344D01*
X3352896Y8914781D01*
X3352521Y8914031D01*
X3352084Y8913032D01*
X3351584Y8911969D01*
X3350959Y8910720D01*
X3350272Y8909345D01*
X3349522Y8907908D01*
X3348710Y8906346D01*
X3347772Y8904784D01*
X3346835Y8903159D01*
X3344711Y8899848D01*
X3343586Y8898223D01*
X3342399Y8896661D01*
X3336775D01*
X3336838Y8896723D01*
X3336900Y8896911D01*
X3337088Y8897223D01*
X3337337Y8897598D01*
X3337650Y8898098D01*
X3337962Y8898723D01*
X3338400Y8899473D01*
X3338837Y8900285D01*
X3339274Y8901160D01*
X3339837Y8902159D01*
X3340337Y8903222D01*
X3340899Y8904409D01*
X3341461Y8905659D01*
X3342086Y8906971D01*
X3342711Y8908345D01*
X3343336Y8909783D01*
X3344523Y8912844D01*
X3345710Y8916093D01*
X3346835Y8919593D01*
X3347772Y8923217D01*
X3348647Y8926966D01*
X3349272Y8930777D01*
X3349522Y8932777D01*
X3349709Y8934714D01*
X3349772Y8936651D01*
X3349834Y8938650D01*
Y8938775D01*
Y8939025D01*
Y8939462D01*
Y8940087D01*
X3349772Y8940775D01*
X3349709Y8941649D01*
X3349647Y8942649D01*
X3349584Y8943774D01*
X3349522Y8944961D01*
X3349334Y8946211D01*
X3349209Y8947585D01*
X3349022Y8948960D01*
X3348522Y8951897D01*
X3347897Y8954896D01*
Y8954958D01*
X3347835Y8955208D01*
X3347772Y8955521D01*
X3347647Y8956021D01*
X3347460Y8956583D01*
X3347272Y8957270D01*
X3347085Y8958083D01*
X3346835Y8958957D01*
X3346585Y8959895D01*
X3346273Y8960832D01*
X3345523Y8963019D01*
X3344711Y8965268D01*
X3343773Y8967518D01*
Y8967580D01*
X3343711Y8967705D01*
X3343586Y8967955D01*
X3343398Y8968268D01*
X3343211Y8968705D01*
X3342961Y8969267D01*
X3342649Y8969892D01*
X3342274Y8970642D01*
X3341836Y8971517D01*
X3341336Y8972454D01*
X3340774Y8973516D01*
X3340087Y8974703D01*
X3339399Y8976016D01*
X3338587Y8977453D01*
X3337712Y8978952D01*
X3336775Y8980639D01*
X3342399D01*
X3342524Y8980514D01*
D02*
G37*
G36*
X3129203D02*
X3129016Y8980264D01*
X3128766Y8979765D01*
X3128391Y8979140D01*
X3127954Y8978390D01*
X3127516Y8977578D01*
X3126954Y8976578D01*
X3126392Y8975578D01*
X3125204Y8973454D01*
X3124080Y8971329D01*
X3123517Y8970267D01*
X3123080Y8969330D01*
X3122642Y8968455D01*
X3122268Y8967643D01*
Y8967580D01*
X3122143Y8967393D01*
X3122018Y8967018D01*
X3121830Y8966580D01*
X3121580Y8966018D01*
X3121330Y8965393D01*
X3121080Y8964643D01*
X3120768Y8963769D01*
X3120393Y8962894D01*
X3120081Y8961894D01*
X3119393Y8959770D01*
X3118706Y8957458D01*
X3118081Y8955021D01*
Y8954958D01*
X3118019Y8954646D01*
X3117894Y8954209D01*
X3117769Y8953646D01*
X3117644Y8952896D01*
X3117519Y8952022D01*
X3117331Y8951022D01*
X3117144Y8949960D01*
X3116956Y8948710D01*
X3116831Y8947460D01*
X3116644Y8946086D01*
X3116519Y8944711D01*
X3116269Y8941712D01*
X3116207Y8938650D01*
Y8938588D01*
Y8938400D01*
Y8938088D01*
Y8937713D01*
X3116269Y8937213D01*
Y8936588D01*
X3116332Y8935838D01*
X3116394Y8935026D01*
X3116519Y8934151D01*
X3116582Y8933152D01*
X3116769Y8932027D01*
X3116894Y8930902D01*
X3117081Y8929652D01*
X3117331Y8928340D01*
X3117581Y8926966D01*
X3117831Y8925529D01*
X3118519Y8922404D01*
X3119393Y8919155D01*
X3120456Y8915656D01*
X3121705Y8912032D01*
X3123205Y8908283D01*
X3124080Y8906408D01*
X3124954Y8904471D01*
X3125954Y8902534D01*
X3126954Y8900597D01*
X3128079Y8898598D01*
X3129266Y8896661D01*
X3123642D01*
X3123580Y8896786D01*
X3123330Y8897036D01*
X3123017Y8897473D01*
X3122580Y8898098D01*
X3121955Y8898910D01*
X3121330Y8899848D01*
X3120580Y8900910D01*
X3119831Y8902159D01*
X3118956Y8903472D01*
X3118081Y8904971D01*
X3117144Y8906533D01*
X3116207Y8908220D01*
X3115269Y8910032D01*
X3114332Y8911907D01*
X3113457Y8913844D01*
X3112583Y8915843D01*
Y8915906D01*
X3112520Y8915968D01*
X3112395Y8916343D01*
X3112145Y8916968D01*
X3111895Y8917718D01*
X3111583Y8918780D01*
X3111208Y8919967D01*
X3110771Y8921280D01*
X3110396Y8922842D01*
X3109958Y8924466D01*
X3109521Y8926216D01*
X3109146Y8928153D01*
X3108834Y8930090D01*
X3108584Y8932152D01*
X3108334Y8934276D01*
X3108209Y8936463D01*
X3108146Y8938650D01*
Y8938775D01*
Y8939150D01*
Y8939650D01*
X3108209Y8940462D01*
X3108271Y8941337D01*
X3108334Y8942462D01*
X3108396Y8943711D01*
X3108584Y8945086D01*
X3108709Y8946523D01*
X3108958Y8948085D01*
X3109208Y8949772D01*
X3109521Y8951459D01*
X3109896Y8953209D01*
X3110396Y8955021D01*
X3110895Y8956771D01*
X3111458Y8958583D01*
Y8958645D01*
X3111520Y8958708D01*
X3111645Y8959082D01*
X3111895Y8959707D01*
X3112208Y8960457D01*
X3112645Y8961457D01*
X3113145Y8962644D01*
X3113770Y8964019D01*
X3114457Y8965518D01*
X3115269Y8967080D01*
X3116144Y8968830D01*
X3117144Y8970642D01*
X3118269Y8972579D01*
X3119456Y8974516D01*
X3120768Y8976515D01*
X3122143Y8978577D01*
X3123642Y8980639D01*
X3129266D01*
X3129203Y8980514D01*
D02*
G37*
G36*
X10529760Y3167125D02*
X10530322D01*
X10531072Y3167063D01*
X10531884Y3167000D01*
X10532759Y3166875D01*
X10533696Y3166750D01*
X10534696Y3166625D01*
X10536758Y3166188D01*
X10538945Y3165625D01*
X10541069Y3164876D01*
X10541132D01*
X10541319Y3164751D01*
X10541632Y3164626D01*
X10542007Y3164438D01*
X10542444Y3164251D01*
X10543006Y3163938D01*
X10544256Y3163251D01*
X10545693Y3162376D01*
X10547130Y3161314D01*
X10548567Y3160064D01*
X10549880Y3158627D01*
X10549942Y3158565D01*
X10550005Y3158440D01*
X10550192Y3158190D01*
X10550442Y3157877D01*
X10550692Y3157502D01*
X10551004Y3157003D01*
X10551317Y3156440D01*
X10551692Y3155815D01*
X10552129Y3155128D01*
X10552504Y3154316D01*
X10552879Y3153441D01*
X10553316Y3152504D01*
X10553691Y3151504D01*
X10554066Y3150442D01*
X10554441Y3149317D01*
X10554753Y3148130D01*
X10547130Y3146068D01*
Y3146130D01*
X10547068Y3146255D01*
X10547005Y3146568D01*
X10546880Y3146880D01*
X10546755Y3147255D01*
X10546568Y3147755D01*
X10546131Y3148880D01*
X10545631Y3150067D01*
X10545006Y3151379D01*
X10544319Y3152629D01*
X10543506Y3153753D01*
Y3153816D01*
X10543381Y3153878D01*
X10543131Y3154191D01*
X10542631Y3154753D01*
X10541944Y3155378D01*
X10541069Y3156065D01*
X10540007Y3156815D01*
X10538820Y3157565D01*
X10537383Y3158252D01*
X10537320D01*
X10537195Y3158315D01*
X10537008Y3158440D01*
X10536695Y3158502D01*
X10536321Y3158627D01*
X10535883Y3158815D01*
X10535383Y3158940D01*
X10534821Y3159127D01*
X10533509Y3159377D01*
X10532009Y3159689D01*
X10530322Y3159877D01*
X10528573Y3159939D01*
X10527573D01*
X10527073Y3159877D01*
X10526511D01*
X10525886Y3159814D01*
X10525136Y3159689D01*
X10523574Y3159502D01*
X10521887Y3159190D01*
X10520137Y3158752D01*
X10518513Y3158127D01*
X10518450D01*
X10518325Y3158065D01*
X10518138Y3157940D01*
X10517825Y3157815D01*
X10517450Y3157627D01*
X10517075Y3157440D01*
X10516076Y3156878D01*
X10515014Y3156190D01*
X10513889Y3155440D01*
X10512764Y3154503D01*
X10511702Y3153441D01*
X10511577Y3153316D01*
X10511264Y3152941D01*
X10510827Y3152379D01*
X10510265Y3151566D01*
X10509577Y3150629D01*
X10508953Y3149567D01*
X10508265Y3148380D01*
X10507703Y3147130D01*
Y3147068D01*
X10507578Y3146880D01*
X10507453Y3146568D01*
X10507328Y3146068D01*
X10507141Y3145568D01*
X10506953Y3144881D01*
X10506703Y3144131D01*
X10506516Y3143319D01*
X10506266Y3142381D01*
X10506016Y3141382D01*
X10505828Y3140319D01*
X10505641Y3139195D01*
X10505391Y3136820D01*
X10505266Y3134258D01*
Y3134133D01*
Y3133883D01*
Y3133446D01*
X10505328Y3132821D01*
Y3132071D01*
X10505453Y3131259D01*
X10505516Y3130322D01*
X10505641Y3129260D01*
X10505766Y3128135D01*
X10506016Y3127010D01*
X10506516Y3124573D01*
X10507265Y3122199D01*
X10507703Y3121012D01*
X10508203Y3119887D01*
X10508265Y3119825D01*
X10508328Y3119637D01*
X10508515Y3119325D01*
X10508765Y3118950D01*
X10509078Y3118450D01*
X10509452Y3117950D01*
X10509890Y3117325D01*
X10510390Y3116638D01*
X10510952Y3115951D01*
X10511577Y3115263D01*
X10512264Y3114576D01*
X10513077Y3113826D01*
X10513889Y3113139D01*
X10514764Y3112514D01*
X10515763Y3111889D01*
X10516763Y3111327D01*
X10516826D01*
X10517013Y3111202D01*
X10517325Y3111077D01*
X10517763Y3110889D01*
X10518263Y3110702D01*
X10518888Y3110452D01*
X10519575Y3110202D01*
X10520387Y3109952D01*
X10521199Y3109702D01*
X10522137Y3109452D01*
X10524199Y3109015D01*
X10526386Y3108702D01*
X10527510Y3108640D01*
X10528698Y3108577D01*
X10529260D01*
X10529635Y3108640D01*
X10530135D01*
X10530697Y3108702D01*
X10531384Y3108765D01*
X10532134Y3108827D01*
X10533759Y3109077D01*
X10535571Y3109452D01*
X10537508Y3109952D01*
X10539445Y3110639D01*
X10539507D01*
X10539695Y3110764D01*
X10539945Y3110827D01*
X10540320Y3111014D01*
X10540757Y3111202D01*
X10541257Y3111452D01*
X10542444Y3112014D01*
X10543694Y3112701D01*
X10545006Y3113451D01*
X10546318Y3114326D01*
X10547443Y3115201D01*
Y3127135D01*
X10528635D01*
Y3134696D01*
X10555753D01*
Y3110889D01*
X10555691Y3110827D01*
X10555503Y3110702D01*
X10555128Y3110390D01*
X10554691Y3110077D01*
X10554128Y3109640D01*
X10553441Y3109202D01*
X10552629Y3108702D01*
X10551817Y3108140D01*
X10550879Y3107515D01*
X10549880Y3106890D01*
X10547693Y3105703D01*
X10545318Y3104516D01*
X10542819Y3103454D01*
X10542756D01*
X10542506Y3103329D01*
X10542194Y3103204D01*
X10541694Y3103079D01*
X10541069Y3102891D01*
X10540382Y3102641D01*
X10539570Y3102454D01*
X10538632Y3102204D01*
X10537633Y3101954D01*
X10536570Y3101767D01*
X10535446Y3101517D01*
X10534259Y3101329D01*
X10531822Y3101079D01*
X10529197Y3100954D01*
X10528260D01*
X10527635Y3101017D01*
X10526761Y3101079D01*
X10525823Y3101142D01*
X10524699Y3101267D01*
X10523511Y3101454D01*
X10522199Y3101642D01*
X10520887Y3101954D01*
X10519450Y3102267D01*
X10517950Y3102641D01*
X10516451Y3103079D01*
X10514951Y3103641D01*
X10513514Y3104266D01*
X10512014Y3104953D01*
X10511952Y3105016D01*
X10511702Y3105141D01*
X10511264Y3105391D01*
X10510765Y3105703D01*
X10510140Y3106141D01*
X10509390Y3106640D01*
X10508578Y3107265D01*
X10507703Y3107953D01*
X10506766Y3108702D01*
X10505828Y3109577D01*
X10504829Y3110577D01*
X10503891Y3111577D01*
X10502954Y3112701D01*
X10502017Y3113951D01*
X10501205Y3115263D01*
X10500392Y3116638D01*
X10500330Y3116700D01*
X10500205Y3117013D01*
X10500017Y3117388D01*
X10499767Y3118013D01*
X10499517Y3118700D01*
X10499143Y3119575D01*
X10498830Y3120574D01*
X10498455Y3121637D01*
X10498080Y3122886D01*
X10497768Y3124198D01*
X10497393Y3125636D01*
X10497143Y3127135D01*
X10496893Y3128697D01*
X10496706Y3130322D01*
X10496581Y3132009D01*
X10496518Y3133759D01*
Y3133883D01*
Y3134196D01*
Y3134696D01*
X10496581Y3135321D01*
X10496643Y3136195D01*
X10496706Y3137133D01*
X10496831Y3138257D01*
X10497018Y3139445D01*
X10497206Y3140757D01*
X10497456Y3142131D01*
X10497768Y3143569D01*
X10498143Y3145068D01*
X10498580Y3146568D01*
X10499143Y3148130D01*
X10499705Y3149629D01*
X10500392Y3151192D01*
X10500455Y3151317D01*
X10500580Y3151566D01*
X10500830Y3151941D01*
X10501142Y3152504D01*
X10501517Y3153191D01*
X10502017Y3153941D01*
X10502579Y3154816D01*
X10503267Y3155753D01*
X10504016Y3156690D01*
X10504891Y3157690D01*
X10505766Y3158690D01*
X10506828Y3159689D01*
X10507890Y3160689D01*
X10509078Y3161626D01*
X10510327Y3162439D01*
X10511639Y3163251D01*
X10511702Y3163313D01*
X10511952Y3163438D01*
X10512389Y3163626D01*
X10512952Y3163876D01*
X10513639Y3164188D01*
X10514451Y3164501D01*
X10515451Y3164876D01*
X10516513Y3165250D01*
X10517700Y3165563D01*
X10519012Y3165938D01*
X10520387Y3166250D01*
X10521887Y3166563D01*
X10523449Y3166813D01*
X10525073Y3167000D01*
X10526823Y3167125D01*
X10528573Y3167187D01*
X10529260D01*
X10529760Y3167125D01*
D02*
G37*
G36*
X10618674Y3102017D02*
X10609927D01*
X10576310Y3152254D01*
Y3102017D01*
X10568187D01*
Y3166063D01*
X10576873D01*
X10610552Y3115763D01*
Y3166063D01*
X10618674D01*
Y3102017D01*
D02*
G37*
G36*
X10430535Y3157752D02*
X10404854D01*
X10401418Y3140444D01*
X10401480Y3140507D01*
X10401668Y3140632D01*
X10401980Y3140819D01*
X10402417Y3141069D01*
X10402917Y3141382D01*
X10403605Y3141756D01*
X10404292Y3142069D01*
X10405104Y3142506D01*
X10405979Y3142881D01*
X10406916Y3143194D01*
X10408978Y3143881D01*
X10410040Y3144131D01*
X10411165Y3144318D01*
X10412352Y3144443D01*
X10413539Y3144506D01*
X10413914D01*
X10414352Y3144443D01*
X10414977D01*
X10415664Y3144318D01*
X10416539Y3144193D01*
X10417476Y3144006D01*
X10418476Y3143756D01*
X10419538Y3143444D01*
X10420725Y3143069D01*
X10421912Y3142631D01*
X10423100Y3142069D01*
X10424287Y3141382D01*
X10425474Y3140632D01*
X10426599Y3139695D01*
X10427723Y3138695D01*
X10427786Y3138632D01*
X10427973Y3138445D01*
X10428286Y3138070D01*
X10428661Y3137633D01*
X10429098Y3137070D01*
X10429535Y3136383D01*
X10430098Y3135571D01*
X10430660Y3134633D01*
X10431160Y3133634D01*
X10431722Y3132509D01*
X10432160Y3131259D01*
X10432660Y3129947D01*
X10432972Y3128510D01*
X10433284Y3127010D01*
X10433472Y3125386D01*
X10433534Y3123699D01*
Y3123574D01*
Y3123324D01*
X10433472Y3122886D01*
Y3122261D01*
X10433409Y3121512D01*
X10433284Y3120637D01*
X10433097Y3119637D01*
X10432910Y3118575D01*
X10432597Y3117450D01*
X10432285Y3116201D01*
X10431847Y3114951D01*
X10431347Y3113701D01*
X10430785Y3112451D01*
X10430098Y3111139D01*
X10429285Y3109890D01*
X10428411Y3108702D01*
X10428348Y3108640D01*
X10428098Y3108390D01*
X10427786Y3108015D01*
X10427286Y3107515D01*
X10426661Y3106890D01*
X10425911Y3106266D01*
X10425037Y3105578D01*
X10424037Y3104828D01*
X10422850Y3104079D01*
X10421600Y3103391D01*
X10420225Y3102766D01*
X10418726Y3102142D01*
X10417101Y3101642D01*
X10415414Y3101267D01*
X10413539Y3101017D01*
X10411602Y3100954D01*
X10411228D01*
X10410790Y3101017D01*
X10410165D01*
X10409416Y3101079D01*
X10408541Y3101204D01*
X10407604Y3101392D01*
X10406541Y3101579D01*
X10405417Y3101829D01*
X10404292Y3102142D01*
X10403105Y3102517D01*
X10401855Y3103016D01*
X10400668Y3103579D01*
X10399481Y3104204D01*
X10398356Y3104953D01*
X10397294Y3105828D01*
X10397231Y3105891D01*
X10397044Y3106078D01*
X10396794Y3106328D01*
X10396419Y3106703D01*
X10395981Y3107203D01*
X10395544Y3107828D01*
X10394982Y3108515D01*
X10394482Y3109265D01*
X10393920Y3110140D01*
X10393357Y3111139D01*
X10392857Y3112202D01*
X10392357Y3113389D01*
X10391920Y3114638D01*
X10391545Y3115951D01*
X10391233Y3117325D01*
X10391045Y3118825D01*
X10399293Y3119512D01*
Y3119450D01*
X10399356Y3119262D01*
X10399418Y3118950D01*
X10399481Y3118512D01*
X10399606Y3118013D01*
X10399731Y3117450D01*
X10400168Y3116076D01*
X10400730Y3114638D01*
X10401418Y3113139D01*
X10402355Y3111639D01*
X10402917Y3111014D01*
X10403480Y3110390D01*
X10403542Y3110327D01*
X10403667Y3110265D01*
X10403854Y3110140D01*
X10404104Y3109952D01*
X10404417Y3109702D01*
X10404792Y3109452D01*
X10405791Y3108890D01*
X10406979Y3108328D01*
X10408353Y3107890D01*
X10409915Y3107515D01*
X10410728Y3107453D01*
X10411602Y3107390D01*
X10412165D01*
X10412540Y3107453D01*
X10413040Y3107515D01*
X10413602Y3107640D01*
X10414227Y3107765D01*
X10414914Y3107953D01*
X10416476Y3108453D01*
X10417226Y3108765D01*
X10418038Y3109202D01*
X10418851Y3109702D01*
X10419663Y3110265D01*
X10420475Y3110889D01*
X10421225Y3111639D01*
X10421288Y3111702D01*
X10421412Y3111827D01*
X10421600Y3112077D01*
X10421850Y3112451D01*
X10422162Y3112826D01*
X10422475Y3113389D01*
X10422850Y3114014D01*
X10423225Y3114701D01*
X10423537Y3115451D01*
X10423912Y3116325D01*
X10424224Y3117263D01*
X10424537Y3118262D01*
X10424787Y3119325D01*
X10424974Y3120512D01*
X10425099Y3121699D01*
X10425162Y3123011D01*
Y3123074D01*
Y3123324D01*
Y3123636D01*
X10425099Y3124136D01*
X10425037Y3124698D01*
X10424974Y3125323D01*
X10424849Y3126073D01*
X10424662Y3126885D01*
X10424224Y3128572D01*
X10423912Y3129447D01*
X10423537Y3130322D01*
X10423100Y3131197D01*
X10422600Y3132071D01*
X10422037Y3132884D01*
X10421350Y3133634D01*
X10421288Y3133696D01*
X10421163Y3133821D01*
X10420975Y3134008D01*
X10420663Y3134258D01*
X10420288Y3134571D01*
X10419850Y3134883D01*
X10419288Y3135258D01*
X10418726Y3135633D01*
X10418038Y3135945D01*
X10417289Y3136320D01*
X10416476Y3136633D01*
X10415601Y3136945D01*
X10414602Y3137195D01*
X10413602Y3137383D01*
X10412540Y3137508D01*
X10411415Y3137570D01*
X10410790D01*
X10410415Y3137508D01*
X10410040D01*
X10409103Y3137383D01*
X10408041Y3137133D01*
X10406916Y3136820D01*
X10405729Y3136383D01*
X10404542Y3135820D01*
X10404479D01*
X10404417Y3135758D01*
X10404042Y3135508D01*
X10403480Y3135133D01*
X10402855Y3134633D01*
X10402042Y3133946D01*
X10401293Y3133196D01*
X10400480Y3132321D01*
X10399793Y3131384D01*
X10392420Y3132321D01*
X10398606Y3165250D01*
X10430535D01*
Y3157752D01*
D02*
G37*
G36*
X10657477Y3166000D02*
X10658289D01*
X10659102Y3165938D01*
X10660976Y3165813D01*
X10662851Y3165688D01*
X10664663Y3165438D01*
X10665537Y3165313D01*
X10666287Y3165125D01*
X10666350D01*
X10666537Y3165063D01*
X10666850Y3165001D01*
X10667225Y3164876D01*
X10667724Y3164751D01*
X10668224Y3164563D01*
X10668849Y3164313D01*
X10669536Y3164063D01*
X10671036Y3163438D01*
X10672598Y3162626D01*
X10674223Y3161689D01*
X10675722Y3160502D01*
X10675785Y3160439D01*
X10675972Y3160314D01*
X10676222Y3160064D01*
X10676535Y3159752D01*
X10676972Y3159314D01*
X10677472Y3158815D01*
X10677972Y3158190D01*
X10678597Y3157565D01*
X10679159Y3156815D01*
X10679784Y3155940D01*
X10680409Y3155066D01*
X10681034Y3154128D01*
X10681658Y3153066D01*
X10682221Y3151941D01*
X10683283Y3149567D01*
Y3149504D01*
X10683408Y3149255D01*
X10683533Y3148880D01*
X10683658Y3148380D01*
X10683908Y3147755D01*
X10684095Y3147005D01*
X10684345Y3146130D01*
X10684595Y3145193D01*
X10684783Y3144131D01*
X10685032Y3142944D01*
X10685282Y3141694D01*
X10685470Y3140382D01*
X10685595Y3138945D01*
X10685720Y3137508D01*
X10685845Y3134383D01*
Y3134321D01*
Y3134071D01*
Y3133696D01*
Y3133134D01*
X10685782Y3132509D01*
Y3131759D01*
X10685720Y3130947D01*
X10685657Y3130009D01*
X10685532Y3129010D01*
X10685407Y3128010D01*
X10685095Y3125823D01*
X10684658Y3123574D01*
X10684095Y3121387D01*
Y3121324D01*
X10684033Y3121137D01*
X10683908Y3120824D01*
X10683783Y3120449D01*
X10683595Y3119950D01*
X10683408Y3119387D01*
X10683158Y3118762D01*
X10682908Y3118138D01*
X10682283Y3116638D01*
X10681533Y3115076D01*
X10680659Y3113514D01*
X10679721Y3112077D01*
Y3112014D01*
X10679596Y3111889D01*
X10679471Y3111702D01*
X10679284Y3111452D01*
X10678722Y3110827D01*
X10678034Y3109952D01*
X10677159Y3109015D01*
X10676160Y3108078D01*
X10675098Y3107140D01*
X10673910Y3106266D01*
X10673848D01*
X10673785Y3106203D01*
X10673598Y3106078D01*
X10673348Y3105891D01*
X10673036Y3105766D01*
X10672661Y3105516D01*
X10671786Y3105078D01*
X10670661Y3104578D01*
X10669349Y3104016D01*
X10667849Y3103516D01*
X10666225Y3103079D01*
X10666162D01*
X10666037Y3103016D01*
X10665787Y3102954D01*
X10665413Y3102891D01*
X10665038Y3102829D01*
X10664538Y3102766D01*
X10663913Y3102641D01*
X10663288Y3102579D01*
X10662538Y3102454D01*
X10661788Y3102329D01*
X10660039Y3102204D01*
X10658102Y3102079D01*
X10655977Y3102017D01*
X10632858D01*
Y3166063D01*
X10656790D01*
X10657477Y3166000D01*
D02*
G37*
G36*
X10385547Y3158502D02*
X10364365D01*
Y3102017D01*
X10355867D01*
Y3158502D01*
X10334747D01*
Y3166063D01*
X10385547D01*
Y3158502D01*
D02*
G37*
G36*
X10701778Y3167063D02*
X10702028Y3166688D01*
X10702466Y3166125D01*
X10702965Y3165313D01*
X10703653Y3164313D01*
X10704465Y3163126D01*
X10705340Y3161814D01*
X10706215Y3160314D01*
X10707214Y3158690D01*
X10708214Y3157003D01*
X10709214Y3155128D01*
X10710214Y3153254D01*
X10711213Y3151254D01*
X10712151Y3149255D01*
X10712963Y3147193D01*
X10713775Y3145131D01*
X10713838Y3145006D01*
X10713900Y3144693D01*
X10714088Y3144193D01*
X10714275Y3143506D01*
X10714587Y3142631D01*
X10714837Y3141569D01*
X10715150Y3140382D01*
X10715462Y3139070D01*
X10715775Y3137633D01*
X10716087Y3136070D01*
X10716399Y3134446D01*
X10716649Y3132696D01*
X10716837Y3130884D01*
X10717024Y3129072D01*
X10717087Y3127135D01*
X10717149Y3125198D01*
Y3125136D01*
Y3125073D01*
Y3124886D01*
Y3124698D01*
Y3124011D01*
X10717087Y3123199D01*
X10717024Y3122137D01*
X10716899Y3120887D01*
X10716774Y3119450D01*
X10716587Y3117950D01*
X10716337Y3116263D01*
X10716025Y3114451D01*
X10715650Y3112576D01*
X10715212Y3110577D01*
X10714712Y3108577D01*
X10714088Y3106516D01*
X10713400Y3104454D01*
X10712588Y3102392D01*
X10712525Y3102267D01*
X10712400Y3101892D01*
X10712151Y3101329D01*
X10711776Y3100580D01*
X10711338Y3099580D01*
X10710838Y3098518D01*
X10710214Y3097268D01*
X10709526Y3095893D01*
X10708776Y3094456D01*
X10707964Y3092894D01*
X10707027Y3091332D01*
X10706090Y3089707D01*
X10703965Y3086396D01*
X10702840Y3084771D01*
X10701653Y3083209D01*
X10696030D01*
X10696092Y3083271D01*
X10696155Y3083459D01*
X10696342Y3083771D01*
X10696592Y3084146D01*
X10696904Y3084646D01*
X10697217Y3085271D01*
X10697654Y3086021D01*
X10698092Y3086833D01*
X10698529Y3087708D01*
X10699091Y3088708D01*
X10699591Y3089770D01*
X10700154Y3090957D01*
X10700716Y3092207D01*
X10701341Y3093519D01*
X10701966Y3094893D01*
X10702590Y3096331D01*
X10703778Y3099392D01*
X10704965Y3102641D01*
X10706090Y3106141D01*
X10707027Y3109765D01*
X10707902Y3113514D01*
X10708526Y3117325D01*
X10708776Y3119325D01*
X10708964Y3121262D01*
X10709026Y3123199D01*
X10709089Y3125198D01*
Y3125323D01*
Y3125573D01*
Y3126011D01*
Y3126635D01*
X10709026Y3127323D01*
X10708964Y3128197D01*
X10708901Y3129197D01*
X10708839Y3130322D01*
X10708776Y3131509D01*
X10708589Y3132759D01*
X10708464Y3134133D01*
X10708277Y3135508D01*
X10707777Y3138445D01*
X10707152Y3141444D01*
Y3141507D01*
X10707089Y3141756D01*
X10707027Y3142069D01*
X10706902Y3142569D01*
X10706714Y3143131D01*
X10706527Y3143818D01*
X10706340Y3144631D01*
X10706090Y3145506D01*
X10705840Y3146443D01*
X10705527Y3147380D01*
X10704777Y3149567D01*
X10703965Y3151816D01*
X10703028Y3154066D01*
Y3154128D01*
X10702965Y3154253D01*
X10702840Y3154503D01*
X10702653Y3154816D01*
X10702466Y3155253D01*
X10702216Y3155815D01*
X10701903Y3156440D01*
X10701528Y3157190D01*
X10701091Y3158065D01*
X10700591Y3159002D01*
X10700029Y3160064D01*
X10699341Y3161251D01*
X10698654Y3162564D01*
X10697842Y3164001D01*
X10696967Y3165500D01*
X10696030Y3167187D01*
X10701653D01*
X10701778Y3167063D01*
D02*
G37*
G36*
X10488458D02*
X10488270Y3166813D01*
X10488020Y3166313D01*
X10487646Y3165688D01*
X10487208Y3164938D01*
X10486771Y3164126D01*
X10486208Y3163126D01*
X10485646Y3162126D01*
X10484459Y3160002D01*
X10483334Y3157877D01*
X10482772Y3156815D01*
X10482334Y3155878D01*
X10481897Y3155003D01*
X10481522Y3154191D01*
Y3154128D01*
X10481397Y3153941D01*
X10481272Y3153566D01*
X10481085Y3153129D01*
X10480835Y3152566D01*
X10480585Y3151941D01*
X10480335Y3151192D01*
X10480022Y3150317D01*
X10479648Y3149442D01*
X10479335Y3148442D01*
X10478648Y3146318D01*
X10477961Y3144006D01*
X10477336Y3141569D01*
Y3141507D01*
X10477273Y3141194D01*
X10477148Y3140757D01*
X10477023Y3140194D01*
X10476898Y3139445D01*
X10476773Y3138570D01*
X10476586Y3137570D01*
X10476398Y3136508D01*
X10476211Y3135258D01*
X10476086Y3134008D01*
X10475899Y3132634D01*
X10475774Y3131259D01*
X10475524Y3128260D01*
X10475461Y3125198D01*
Y3125136D01*
Y3124948D01*
Y3124636D01*
Y3124261D01*
X10475524Y3123761D01*
Y3123136D01*
X10475586Y3122386D01*
X10475649Y3121574D01*
X10475774Y3120699D01*
X10475836Y3119700D01*
X10476023Y3118575D01*
X10476148Y3117450D01*
X10476336Y3116201D01*
X10476586Y3114888D01*
X10476836Y3113514D01*
X10477086Y3112077D01*
X10477773Y3108952D01*
X10478648Y3105703D01*
X10479710Y3102204D01*
X10480960Y3098580D01*
X10482459Y3094831D01*
X10483334Y3092956D01*
X10484209Y3091019D01*
X10485209Y3089082D01*
X10486208Y3087145D01*
X10487333Y3085146D01*
X10488520Y3083209D01*
X10482897D01*
X10482834Y3083334D01*
X10482584Y3083584D01*
X10482272Y3084021D01*
X10481835Y3084646D01*
X10481210Y3085458D01*
X10480585Y3086396D01*
X10479835Y3087458D01*
X10479085Y3088708D01*
X10478210Y3090020D01*
X10477336Y3091519D01*
X10476398Y3093081D01*
X10475461Y3094769D01*
X10474524Y3096581D01*
X10473587Y3098455D01*
X10472712Y3100392D01*
X10471837Y3102392D01*
Y3102454D01*
X10471775Y3102517D01*
X10471650Y3102891D01*
X10471400Y3103516D01*
X10471150Y3104266D01*
X10470837Y3105328D01*
X10470462Y3106516D01*
X10470025Y3107828D01*
X10469650Y3109390D01*
X10469213Y3111014D01*
X10468775Y3112764D01*
X10468400Y3114701D01*
X10468088Y3116638D01*
X10467838Y3118700D01*
X10467588Y3120824D01*
X10467463Y3123011D01*
X10467401Y3125198D01*
Y3125323D01*
Y3125698D01*
Y3126198D01*
X10467463Y3127010D01*
X10467526Y3127885D01*
X10467588Y3129010D01*
X10467651Y3130259D01*
X10467838Y3131634D01*
X10467963Y3133071D01*
X10468213Y3134633D01*
X10468463Y3136320D01*
X10468775Y3138007D01*
X10469150Y3139757D01*
X10469650Y3141569D01*
X10470150Y3143319D01*
X10470712Y3145131D01*
Y3145193D01*
X10470775Y3145256D01*
X10470900Y3145630D01*
X10471150Y3146255D01*
X10471462Y3147005D01*
X10471900Y3148005D01*
X10472399Y3149192D01*
X10473024Y3150567D01*
X10473712Y3152066D01*
X10474524Y3153628D01*
X10475399Y3155378D01*
X10476398Y3157190D01*
X10477523Y3159127D01*
X10478710Y3161064D01*
X10480022Y3163064D01*
X10481397Y3165125D01*
X10482897Y3167187D01*
X10488520D01*
X10488458Y3167063D01*
D02*
G37*
G36*
X6362564Y4618897D02*
X6362814Y4618710D01*
X6363189Y4618335D01*
X6363689Y4617898D01*
X6364376Y4617335D01*
X6365126Y4616710D01*
X6366063Y4615961D01*
X6367126Y4615148D01*
X6368313Y4614273D01*
X6369625Y4613274D01*
X6371062Y4612274D01*
X6372624Y4611212D01*
X6374249Y4610150D01*
X6375998Y4609025D01*
X6377873Y4607900D01*
X6379872Y4606775D01*
X6379997Y4606713D01*
X6380372Y4606525D01*
X6380935Y4606213D01*
X6381747Y4605776D01*
X6382684Y4605276D01*
X6383871Y4604713D01*
X6385184Y4604089D01*
X6386683Y4603401D01*
X6388308Y4602651D01*
X6389995Y4601902D01*
X6391869Y4601089D01*
X6393744Y4600340D01*
X6395743Y4599590D01*
X6397805Y4598840D01*
X6399930Y4598153D01*
X6402054Y4597528D01*
X6402117D01*
X6402429Y4597403D01*
X6402867Y4597278D01*
X6403429Y4597153D01*
X6404179Y4596965D01*
X6405116Y4596715D01*
X6406116Y4596528D01*
X6407240Y4596278D01*
X6408490Y4596028D01*
X6409865Y4595778D01*
X6411302Y4595528D01*
X6412864Y4595278D01*
X6414426Y4595028D01*
X6416113Y4594841D01*
X6419612Y4594529D01*
Y4586468D01*
X6419550D01*
X6419237D01*
X6418862Y4586531D01*
X6418300D01*
X6417550Y4586593D01*
X6416676Y4586656D01*
X6415676Y4586781D01*
X6414551Y4586905D01*
X6413239Y4587030D01*
X6411864Y4587218D01*
X6410365Y4587468D01*
X6408803Y4587780D01*
X6407053Y4588093D01*
X6405303Y4588468D01*
X6403366Y4588905D01*
X6401429Y4589405D01*
X6401367D01*
X6401304Y4589467D01*
X6400930Y4589530D01*
X6400367Y4589717D01*
X6399617Y4589905D01*
X6398618Y4590217D01*
X6397493Y4590592D01*
X6396243Y4590967D01*
X6394806Y4591467D01*
X6393306Y4592029D01*
X6391682Y4592654D01*
X6389932Y4593279D01*
X6388183Y4594029D01*
X6384496Y4595653D01*
X6380747Y4597528D01*
X6380622Y4597590D01*
X6380310Y4597778D01*
X6379810Y4598090D01*
X6379060Y4598465D01*
X6378248Y4598965D01*
X6377248Y4599527D01*
X6376123Y4600215D01*
X6374936Y4600964D01*
X6373624Y4601777D01*
X6372249Y4602651D01*
X6369438Y4604526D01*
X6366626Y4606650D01*
X6365251Y4607713D01*
X6363939Y4608837D01*
Y4577533D01*
X6356378D01*
Y4618960D01*
X6362502D01*
X6362564Y4618897D01*
D02*
G37*
G36*
X6363127Y4550290D02*
X6419612D01*
Y4541792D01*
X6363127D01*
Y4520672D01*
X6355566D01*
Y4571472D01*
X6363127D01*
Y4550290D01*
D02*
G37*
G36*
X8891768Y9897263D02*
X8892455Y9897201D01*
X8893205Y9897076D01*
X8894018Y9896951D01*
X8894955Y9896826D01*
X8896892Y9896264D01*
X8897954Y9895951D01*
X8898954Y9895514D01*
X8900016Y9895076D01*
X8901016Y9894452D01*
X8902015Y9893827D01*
X8902953Y9893077D01*
X8903015Y9893015D01*
X8903140Y9892890D01*
X8903390Y9892640D01*
X8903703Y9892327D01*
X8904077Y9891890D01*
X8904515Y9891327D01*
X8905015Y9890703D01*
X8905515Y9890015D01*
X8906014Y9889265D01*
X8906514Y9888328D01*
X8906952Y9887391D01*
X8907452Y9886329D01*
X8907889Y9885204D01*
X8908201Y9884017D01*
X8908514Y9882767D01*
X8908764Y9881392D01*
X8900953Y9880768D01*
Y9880830D01*
X8900891Y9880955D01*
X8900828Y9881205D01*
X8900766Y9881517D01*
X8900641Y9881892D01*
X8900516Y9882330D01*
X8900203Y9883329D01*
X8899766Y9884454D01*
X8899266Y9885579D01*
X8898641Y9886641D01*
X8897954Y9887516D01*
X8897892Y9887578D01*
X8897829Y9887641D01*
X8897642Y9887828D01*
X8897392Y9888016D01*
X8897079Y9888328D01*
X8896704Y9888578D01*
X8895767Y9889203D01*
X8894642Y9889828D01*
X8893268Y9890390D01*
X8891768Y9890765D01*
X8890956Y9890828D01*
X8890081Y9890890D01*
X8889456D01*
X8888769Y9890765D01*
X8887832Y9890640D01*
X8886832Y9890390D01*
X8885707Y9890015D01*
X8884582Y9889453D01*
X8883458Y9888766D01*
X8883395D01*
X8883270Y9888641D01*
X8883083Y9888516D01*
X8882833Y9888266D01*
X8882208Y9887641D01*
X8881333Y9886766D01*
X8880396Y9885641D01*
X8879396Y9884267D01*
X8878459Y9882705D01*
X8877584Y9880830D01*
Y9880768D01*
X8877522Y9880580D01*
X8877397Y9880268D01*
X8877272Y9879893D01*
X8877084Y9879331D01*
X8876897Y9878706D01*
X8876709Y9877893D01*
X8876522Y9877019D01*
X8876335Y9876019D01*
X8876147Y9874957D01*
X8875960Y9873707D01*
X8875772Y9872395D01*
X8875647Y9870958D01*
X8875522Y9869396D01*
X8875460Y9867771D01*
X8875397Y9866021D01*
X8875460Y9866084D01*
X8875522Y9866209D01*
X8875710Y9866459D01*
X8875897Y9866709D01*
X8876147Y9867084D01*
X8876522Y9867521D01*
X8877334Y9868458D01*
X8878334Y9869521D01*
X8879521Y9870583D01*
X8880833Y9871582D01*
X8882333Y9872457D01*
X8882395D01*
X8882520Y9872520D01*
X8882770Y9872645D01*
X8883020Y9872770D01*
X8883458Y9872957D01*
X8883895Y9873145D01*
X8884395Y9873332D01*
X8884957Y9873519D01*
X8886270Y9873894D01*
X8887707Y9874269D01*
X8889269Y9874519D01*
X8890956Y9874582D01*
X8891331D01*
X8891706Y9874519D01*
X8892268D01*
X8892955Y9874394D01*
X8893768Y9874269D01*
X8894642Y9874082D01*
X8895580Y9873832D01*
X8896579Y9873519D01*
X8897704Y9873145D01*
X8898766Y9872707D01*
X8899891Y9872145D01*
X8901078Y9871458D01*
X8902203Y9870708D01*
X8903265Y9869770D01*
X8904327Y9868771D01*
X8904390Y9868708D01*
X8904577Y9868521D01*
X8904827Y9868146D01*
X8905202Y9867708D01*
X8905640Y9867146D01*
X8906077Y9866459D01*
X8906577Y9865647D01*
X8907139Y9864709D01*
X8907639Y9863710D01*
X8908139Y9862585D01*
X8908576Y9861335D01*
X8909014Y9860023D01*
X8909389Y9858586D01*
X8909639Y9857086D01*
X8909826Y9855524D01*
X8909888Y9853837D01*
Y9853775D01*
Y9853587D01*
Y9853275D01*
X8909826Y9852837D01*
Y9852275D01*
X8909763Y9851650D01*
X8909701Y9850963D01*
X8909576Y9850150D01*
X8909264Y9848401D01*
X8908764Y9846526D01*
X8908139Y9844589D01*
X8907264Y9842590D01*
Y9842527D01*
X8907139Y9842340D01*
X8907014Y9842090D01*
X8906764Y9841778D01*
X8906514Y9841340D01*
X8906202Y9840840D01*
X8905390Y9839716D01*
X8904327Y9838403D01*
X8903140Y9837091D01*
X8901703Y9835842D01*
X8900078Y9834717D01*
X8900016D01*
X8899891Y9834592D01*
X8899641Y9834467D01*
X8899266Y9834280D01*
X8898829Y9834092D01*
X8898329Y9833842D01*
X8897767Y9833592D01*
X8897079Y9833342D01*
X8896392Y9833092D01*
X8895580Y9832842D01*
X8893830Y9832405D01*
X8891893Y9832093D01*
X8890831Y9832030D01*
X8889769Y9831968D01*
X8889331D01*
X8888831Y9832030D01*
X8888144Y9832093D01*
X8887332Y9832218D01*
X8886332Y9832343D01*
X8885270Y9832592D01*
X8884083Y9832842D01*
X8882833Y9833217D01*
X8881583Y9833717D01*
X8880209Y9834280D01*
X8878896Y9835029D01*
X8877522Y9835842D01*
X8876210Y9836779D01*
X8874960Y9837904D01*
X8873773Y9839153D01*
X8873710Y9839216D01*
X8873523Y9839528D01*
X8873210Y9839903D01*
X8872835Y9840528D01*
X8872336Y9841340D01*
X8871836Y9842340D01*
X8871273Y9843465D01*
X8870711Y9844839D01*
X8870086Y9846401D01*
X8869524Y9848151D01*
X8869024Y9850088D01*
X8868587Y9852275D01*
X8868149Y9854587D01*
X8867837Y9857211D01*
X8867649Y9859960D01*
X8867587Y9862960D01*
Y9863022D01*
Y9863147D01*
Y9863397D01*
Y9863772D01*
Y9864209D01*
X8867649Y9864709D01*
Y9865334D01*
X8867712Y9866021D01*
Y9866709D01*
X8867774Y9867521D01*
X8867962Y9869271D01*
X8868149Y9871208D01*
X8868462Y9873270D01*
X8868774Y9875456D01*
X8869274Y9877706D01*
X8869774Y9879955D01*
X8870461Y9882205D01*
X8871211Y9884329D01*
X8872148Y9886391D01*
X8873210Y9888266D01*
X8874398Y9889953D01*
X8874460Y9890015D01*
X8874647Y9890265D01*
X8875022Y9890640D01*
X8875522Y9891078D01*
X8876085Y9891640D01*
X8876834Y9892265D01*
X8877709Y9892952D01*
X8878646Y9893639D01*
X8879771Y9894327D01*
X8880958Y9895014D01*
X8882271Y9895639D01*
X8883708Y9896201D01*
X8885270Y9896639D01*
X8886894Y9897013D01*
X8888644Y9897263D01*
X8890518Y9897326D01*
X8891268D01*
X8891768Y9897263D01*
D02*
G37*
G36*
X9006614Y9898138D02*
X9007176D01*
X9007926Y9898076D01*
X9008738Y9898013D01*
X9009613Y9897888D01*
X9010550Y9897763D01*
X9011550Y9897638D01*
X9013612Y9897201D01*
X9015799Y9896639D01*
X9017923Y9895889D01*
X9017986D01*
X9018173Y9895764D01*
X9018486Y9895639D01*
X9018861Y9895451D01*
X9019298Y9895264D01*
X9019860Y9894952D01*
X9021110Y9894264D01*
X9022547Y9893389D01*
X9023984Y9892327D01*
X9025421Y9891078D01*
X9026734Y9889640D01*
X9026796Y9889578D01*
X9026859Y9889453D01*
X9027046Y9889203D01*
X9027296Y9888891D01*
X9027546Y9888516D01*
X9027858Y9888016D01*
X9028171Y9887453D01*
X9028546Y9886829D01*
X9028983Y9886141D01*
X9029358Y9885329D01*
X9029733Y9884454D01*
X9030170Y9883517D01*
X9030545Y9882517D01*
X9030920Y9881455D01*
X9031295Y9880330D01*
X9031607Y9879143D01*
X9023984Y9877081D01*
Y9877144D01*
X9023922Y9877269D01*
X9023859Y9877581D01*
X9023734Y9877893D01*
X9023609Y9878268D01*
X9023422Y9878768D01*
X9022984Y9879893D01*
X9022485Y9881080D01*
X9021860Y9882392D01*
X9021172Y9883642D01*
X9020360Y9884767D01*
Y9884829D01*
X9020235Y9884892D01*
X9019985Y9885204D01*
X9019485Y9885766D01*
X9018798Y9886391D01*
X9017923Y9887079D01*
X9016861Y9887828D01*
X9015674Y9888578D01*
X9014237Y9889265D01*
X9014174D01*
X9014049Y9889328D01*
X9013862Y9889453D01*
X9013549Y9889515D01*
X9013175Y9889640D01*
X9012737Y9889828D01*
X9012237Y9889953D01*
X9011675Y9890140D01*
X9010363Y9890390D01*
X9008863Y9890703D01*
X9007176Y9890890D01*
X9005426Y9890953D01*
X9004427D01*
X9003927Y9890890D01*
X9003365D01*
X9002740Y9890828D01*
X9001990Y9890703D01*
X9000428Y9890515D01*
X8998741Y9890203D01*
X8996991Y9889765D01*
X8995367Y9889140D01*
X8995304D01*
X8995179Y9889078D01*
X8994992Y9888953D01*
X8994679Y9888828D01*
X8994304Y9888641D01*
X8993929Y9888453D01*
X8992930Y9887891D01*
X8991867Y9887203D01*
X8990743Y9886454D01*
X8989618Y9885516D01*
X8988556Y9884454D01*
X8988431Y9884329D01*
X8988118Y9883954D01*
X8987681Y9883392D01*
X8987119Y9882580D01*
X8986431Y9881642D01*
X8985807Y9880580D01*
X8985119Y9879393D01*
X8984557Y9878143D01*
Y9878081D01*
X8984432Y9877893D01*
X8984307Y9877581D01*
X8984182Y9877081D01*
X8983994Y9876581D01*
X8983807Y9875894D01*
X8983557Y9875144D01*
X8983370Y9874332D01*
X8983120Y9873395D01*
X8982870Y9872395D01*
X8982682Y9871333D01*
X8982495Y9870208D01*
X8982245Y9867833D01*
X8982120Y9865272D01*
Y9865147D01*
Y9864897D01*
Y9864459D01*
X8982182Y9863834D01*
Y9863085D01*
X8982307Y9862272D01*
X8982370Y9861335D01*
X8982495Y9860273D01*
X8982620Y9859148D01*
X8982870Y9858023D01*
X8983370Y9855587D01*
X8984119Y9853212D01*
X8984557Y9852025D01*
X8985057Y9850900D01*
X8985119Y9850838D01*
X8985182Y9850650D01*
X8985369Y9850338D01*
X8985619Y9849963D01*
X8985931Y9849463D01*
X8986306Y9848963D01*
X8986744Y9848338D01*
X8987244Y9847651D01*
X8987806Y9846964D01*
X8988431Y9846276D01*
X8989118Y9845589D01*
X8989930Y9844839D01*
X8990743Y9844152D01*
X8991618Y9843527D01*
X8992617Y9842902D01*
X8993617Y9842340D01*
X8993679D01*
X8993867Y9842215D01*
X8994179Y9842090D01*
X8994617Y9841903D01*
X8995117Y9841715D01*
X8995741Y9841465D01*
X8996429Y9841215D01*
X8997241Y9840965D01*
X8998053Y9840715D01*
X8998991Y9840465D01*
X9001053Y9840028D01*
X9003240Y9839716D01*
X9004364Y9839653D01*
X9005551Y9839591D01*
X9006114D01*
X9006489Y9839653D01*
X9006989D01*
X9007551Y9839716D01*
X9008238Y9839778D01*
X9008988Y9839841D01*
X9010613Y9840091D01*
X9012425Y9840465D01*
X9014362Y9840965D01*
X9016299Y9841653D01*
X9016361D01*
X9016549Y9841778D01*
X9016799Y9841840D01*
X9017173Y9842028D01*
X9017611Y9842215D01*
X9018111Y9842465D01*
X9019298Y9843027D01*
X9020548Y9843715D01*
X9021860Y9844464D01*
X9023172Y9845339D01*
X9024297Y9846214D01*
Y9858148D01*
X9005489D01*
Y9865709D01*
X9032607D01*
Y9841903D01*
X9032545Y9841840D01*
X9032357Y9841715D01*
X9031982Y9841403D01*
X9031545Y9841090D01*
X9030982Y9840653D01*
X9030295Y9840216D01*
X9029483Y9839716D01*
X9028671Y9839153D01*
X9027733Y9838528D01*
X9026734Y9837904D01*
X9024547Y9836716D01*
X9022172Y9835529D01*
X9019673Y9834467D01*
X9019610D01*
X9019360Y9834342D01*
X9019048Y9834217D01*
X9018548Y9834092D01*
X9017923Y9833905D01*
X9017236Y9833655D01*
X9016424Y9833467D01*
X9015486Y9833217D01*
X9014487Y9832967D01*
X9013424Y9832780D01*
X9012300Y9832530D01*
X9011113Y9832343D01*
X9008676Y9832093D01*
X9006051Y9831968D01*
X9005114D01*
X9004489Y9832030D01*
X9003614Y9832093D01*
X9002677Y9832155D01*
X9001552Y9832280D01*
X9000365Y9832468D01*
X8999053Y9832655D01*
X8997741Y9832967D01*
X8996304Y9833280D01*
X8994804Y9833655D01*
X8993305Y9834092D01*
X8991805Y9834654D01*
X8990368Y9835279D01*
X8988868Y9835967D01*
X8988806Y9836029D01*
X8988556Y9836154D01*
X8988118Y9836404D01*
X8987619Y9836716D01*
X8986994Y9837154D01*
X8986244Y9837654D01*
X8985432Y9838279D01*
X8984557Y9838966D01*
X8983620Y9839716D01*
X8982682Y9840590D01*
X8981683Y9841590D01*
X8980745Y9842590D01*
X8979808Y9843715D01*
X8978871Y9844964D01*
X8978058Y9846276D01*
X8977246Y9847651D01*
X8977184Y9847714D01*
X8977059Y9848026D01*
X8976871Y9848401D01*
X8976621Y9849026D01*
X8976371Y9849713D01*
X8975997Y9850588D01*
X8975684Y9851588D01*
X8975309Y9852650D01*
X8974934Y9853900D01*
X8974622Y9855212D01*
X8974247Y9856649D01*
X8973997Y9858148D01*
X8973747Y9859711D01*
X8973560Y9861335D01*
X8973435Y9863022D01*
X8973372Y9864772D01*
Y9864897D01*
Y9865209D01*
Y9865709D01*
X8973435Y9866334D01*
X8973497Y9867209D01*
X8973560Y9868146D01*
X8973685Y9869271D01*
X8973872Y9870458D01*
X8974060Y9871770D01*
X8974309Y9873145D01*
X8974622Y9874582D01*
X8974997Y9876081D01*
X8975434Y9877581D01*
X8975997Y9879143D01*
X8976559Y9880643D01*
X8977246Y9882205D01*
X8977309Y9882330D01*
X8977434Y9882580D01*
X8977684Y9882955D01*
X8977996Y9883517D01*
X8978371Y9884204D01*
X8978871Y9884954D01*
X8979433Y9885829D01*
X8980120Y9886766D01*
X8980870Y9887703D01*
X8981745Y9888703D01*
X8982620Y9889703D01*
X8983682Y9890703D01*
X8984744Y9891702D01*
X8985931Y9892640D01*
X8987181Y9893452D01*
X8988493Y9894264D01*
X8988556Y9894327D01*
X8988806Y9894452D01*
X8989243Y9894639D01*
X8989805Y9894889D01*
X8990493Y9895201D01*
X8991305Y9895514D01*
X8992305Y9895889D01*
X8993367Y9896264D01*
X8994554Y9896576D01*
X8995866Y9896951D01*
X8997241Y9897263D01*
X8998741Y9897576D01*
X9000303Y9897826D01*
X9001927Y9898013D01*
X9003677Y9898138D01*
X9005426Y9898201D01*
X9006114D01*
X9006614Y9898138D01*
D02*
G37*
G36*
X9095528Y9833030D02*
X9086781D01*
X9053164Y9883267D01*
Y9833030D01*
X9045041D01*
Y9897076D01*
X9053727D01*
X9087405Y9846776D01*
Y9897076D01*
X9095528D01*
Y9833030D01*
D02*
G37*
G36*
X9134331Y9897013D02*
X9135143D01*
X9135956Y9896951D01*
X9137830Y9896826D01*
X9139705Y9896701D01*
X9141517Y9896451D01*
X9142391Y9896326D01*
X9143141Y9896139D01*
X9143204D01*
X9143391Y9896076D01*
X9143704Y9896014D01*
X9144078Y9895889D01*
X9144578Y9895764D01*
X9145078Y9895576D01*
X9145703Y9895326D01*
X9146390Y9895076D01*
X9147890Y9894452D01*
X9149452Y9893639D01*
X9151077Y9892702D01*
X9152576Y9891515D01*
X9152639Y9891452D01*
X9152826Y9891327D01*
X9153076Y9891078D01*
X9153389Y9890765D01*
X9153826Y9890328D01*
X9154326Y9889828D01*
X9154826Y9889203D01*
X9155451Y9888578D01*
X9156013Y9887828D01*
X9156638Y9886954D01*
X9157263Y9886079D01*
X9157887Y9885142D01*
X9158512Y9884079D01*
X9159075Y9882955D01*
X9160137Y9880580D01*
Y9880518D01*
X9160262Y9880268D01*
X9160387Y9879893D01*
X9160512Y9879393D01*
X9160762Y9878768D01*
X9160949Y9878018D01*
X9161199Y9877144D01*
X9161449Y9876206D01*
X9161636Y9875144D01*
X9161886Y9873957D01*
X9162136Y9872707D01*
X9162324Y9871395D01*
X9162449Y9869958D01*
X9162574Y9868521D01*
X9162699Y9865397D01*
Y9865334D01*
Y9865084D01*
Y9864709D01*
Y9864147D01*
X9162636Y9863522D01*
Y9862772D01*
X9162574Y9861960D01*
X9162511Y9861023D01*
X9162386Y9860023D01*
X9162261Y9859023D01*
X9161949Y9856836D01*
X9161512Y9854587D01*
X9160949Y9852400D01*
Y9852337D01*
X9160887Y9852150D01*
X9160762Y9851838D01*
X9160637Y9851463D01*
X9160449Y9850963D01*
X9160262Y9850400D01*
X9160012Y9849776D01*
X9159762Y9849151D01*
X9159137Y9847651D01*
X9158387Y9846089D01*
X9157513Y9844527D01*
X9156575Y9843090D01*
Y9843027D01*
X9156450Y9842902D01*
X9156325Y9842715D01*
X9156138Y9842465D01*
X9155576Y9841840D01*
X9154888Y9840965D01*
X9154013Y9840028D01*
X9153014Y9839091D01*
X9151951Y9838154D01*
X9150764Y9837279D01*
X9150702D01*
X9150639Y9837216D01*
X9150452Y9837091D01*
X9150202Y9836904D01*
X9149889Y9836779D01*
X9149515Y9836529D01*
X9148640Y9836092D01*
X9147515Y9835592D01*
X9146203Y9835029D01*
X9144703Y9834529D01*
X9143079Y9834092D01*
X9143016D01*
X9142891Y9834030D01*
X9142641Y9833967D01*
X9142266Y9833905D01*
X9141892Y9833842D01*
X9141392Y9833780D01*
X9140767Y9833655D01*
X9140142Y9833592D01*
X9139392Y9833467D01*
X9138642Y9833342D01*
X9136893Y9833217D01*
X9134956Y9833092D01*
X9132831Y9833030D01*
X9109712D01*
Y9897076D01*
X9133644D01*
X9134331Y9897013D01*
D02*
G37*
G36*
X8862401Y9889515D02*
X8841219D01*
Y9833030D01*
X8832721D01*
Y9889515D01*
X8811601D01*
Y9897076D01*
X8862401D01*
Y9889515D01*
D02*
G37*
G36*
X9178632Y9898076D02*
X9178882Y9897701D01*
X9179319Y9897138D01*
X9179819Y9896326D01*
X9180507Y9895326D01*
X9181319Y9894139D01*
X9182194Y9892827D01*
X9183069Y9891327D01*
X9184068Y9889703D01*
X9185068Y9888016D01*
X9186068Y9886141D01*
X9187067Y9884267D01*
X9188067Y9882267D01*
X9189004Y9880268D01*
X9189817Y9878206D01*
X9190629Y9876144D01*
X9190692Y9876019D01*
X9190754Y9875706D01*
X9190941Y9875207D01*
X9191129Y9874519D01*
X9191441Y9873644D01*
X9191691Y9872582D01*
X9192004Y9871395D01*
X9192316Y9870083D01*
X9192629Y9868646D01*
X9192941Y9867084D01*
X9193253Y9865459D01*
X9193503Y9863710D01*
X9193691Y9861897D01*
X9193878Y9860085D01*
X9193941Y9858148D01*
X9194003Y9856211D01*
Y9856149D01*
Y9856086D01*
Y9855899D01*
Y9855712D01*
Y9855024D01*
X9193941Y9854212D01*
X9193878Y9853150D01*
X9193753Y9851900D01*
X9193628Y9850463D01*
X9193441Y9848963D01*
X9193191Y9847276D01*
X9192878Y9845464D01*
X9192504Y9843590D01*
X9192066Y9841590D01*
X9191566Y9839591D01*
X9190941Y9837529D01*
X9190254Y9835467D01*
X9189442Y9833405D01*
X9189379Y9833280D01*
X9189254Y9832905D01*
X9189004Y9832343D01*
X9188630Y9831593D01*
X9188192Y9830593D01*
X9187692Y9829531D01*
X9187067Y9828281D01*
X9186380Y9826906D01*
X9185630Y9825469D01*
X9184818Y9823907D01*
X9183881Y9822345D01*
X9182944Y9820721D01*
X9180819Y9817409D01*
X9179694Y9815784D01*
X9178507Y9814222D01*
X9172884D01*
X9172946Y9814285D01*
X9173009Y9814472D01*
X9173196Y9814785D01*
X9173446Y9815159D01*
X9173758Y9815659D01*
X9174071Y9816284D01*
X9174508Y9817034D01*
X9174946Y9817846D01*
X9175383Y9818721D01*
X9175945Y9819721D01*
X9176445Y9820783D01*
X9177008Y9821970D01*
X9177570Y9823220D01*
X9178195Y9824532D01*
X9178820Y9825907D01*
X9179444Y9827344D01*
X9180632Y9830406D01*
X9181819Y9833655D01*
X9182944Y9837154D01*
X9183881Y9840778D01*
X9184756Y9844527D01*
X9185380Y9848338D01*
X9185630Y9850338D01*
X9185818Y9852275D01*
X9185880Y9854212D01*
X9185943Y9856211D01*
Y9856336D01*
Y9856586D01*
Y9857024D01*
Y9857649D01*
X9185880Y9858336D01*
X9185818Y9859211D01*
X9185755Y9860210D01*
X9185693Y9861335D01*
X9185630Y9862522D01*
X9185443Y9863772D01*
X9185318Y9865147D01*
X9185130Y9866521D01*
X9184631Y9869458D01*
X9184006Y9872457D01*
Y9872520D01*
X9183943Y9872770D01*
X9183881Y9873082D01*
X9183756Y9873582D01*
X9183568Y9874144D01*
X9183381Y9874832D01*
X9183193Y9875644D01*
X9182944Y9876519D01*
X9182694Y9877456D01*
X9182381Y9878393D01*
X9181631Y9880580D01*
X9180819Y9882830D01*
X9179882Y9885079D01*
Y9885142D01*
X9179819Y9885266D01*
X9179694Y9885516D01*
X9179507Y9885829D01*
X9179319Y9886266D01*
X9179070Y9886829D01*
X9178757Y9887453D01*
X9178382Y9888203D01*
X9177945Y9889078D01*
X9177445Y9890015D01*
X9176883Y9891078D01*
X9176195Y9892265D01*
X9175508Y9893577D01*
X9174696Y9895014D01*
X9173821Y9896514D01*
X9172884Y9898201D01*
X9178507D01*
X9178632Y9898076D01*
D02*
G37*
G36*
X8965312D02*
X8965124Y9897826D01*
X8964874Y9897326D01*
X8964499Y9896701D01*
X8964062Y9895951D01*
X8963625Y9895139D01*
X8963062Y9894139D01*
X8962500Y9893139D01*
X8961313Y9891015D01*
X8960188Y9888891D01*
X8959626Y9887828D01*
X8959188Y9886891D01*
X8958751Y9886016D01*
X8958376Y9885204D01*
Y9885142D01*
X8958251Y9884954D01*
X8958126Y9884579D01*
X8957939Y9884142D01*
X8957689Y9883579D01*
X8957439Y9882955D01*
X8957189Y9882205D01*
X8956876Y9881330D01*
X8956502Y9880455D01*
X8956189Y9879455D01*
X8955502Y9877331D01*
X8954814Y9875019D01*
X8954190Y9872582D01*
Y9872520D01*
X8954127Y9872207D01*
X8954002Y9871770D01*
X8953877Y9871208D01*
X8953752Y9870458D01*
X8953627Y9869583D01*
X8953440Y9868583D01*
X8953252Y9867521D01*
X8953065Y9866271D01*
X8952940Y9865022D01*
X8952752Y9863647D01*
X8952628Y9862272D01*
X8952378Y9859273D01*
X8952315Y9856211D01*
Y9856149D01*
Y9855961D01*
Y9855649D01*
Y9855274D01*
X8952378Y9854774D01*
Y9854149D01*
X8952440Y9853400D01*
X8952503Y9852587D01*
X8952628Y9851713D01*
X8952690Y9850713D01*
X8952877Y9849588D01*
X8953002Y9848463D01*
X8953190Y9847214D01*
X8953440Y9845902D01*
X8953690Y9844527D01*
X8953940Y9843090D01*
X8954627Y9839966D01*
X8955502Y9836716D01*
X8956564Y9833217D01*
X8957814Y9829593D01*
X8959313Y9825844D01*
X8960188Y9823970D01*
X8961063Y9822033D01*
X8962063Y9820096D01*
X8963062Y9818159D01*
X8964187Y9816159D01*
X8965374Y9814222D01*
X8959751D01*
X8959688Y9814347D01*
X8959438Y9814597D01*
X8959126Y9815034D01*
X8958688Y9815659D01*
X8958064Y9816472D01*
X8957439Y9817409D01*
X8956689Y9818471D01*
X8955939Y9819721D01*
X8955064Y9821033D01*
X8954190Y9822533D01*
X8953252Y9824095D01*
X8952315Y9825782D01*
X8951378Y9827594D01*
X8950441Y9829468D01*
X8949566Y9831405D01*
X8948691Y9833405D01*
Y9833467D01*
X8948629Y9833530D01*
X8948504Y9833905D01*
X8948254Y9834529D01*
X8948004Y9835279D01*
X8947691Y9836342D01*
X8947316Y9837529D01*
X8946879Y9838841D01*
X8946504Y9840403D01*
X8946067Y9842028D01*
X8945629Y9843777D01*
X8945254Y9845714D01*
X8944942Y9847651D01*
X8944692Y9849713D01*
X8944442Y9851838D01*
X8944317Y9854024D01*
X8944255Y9856211D01*
Y9856336D01*
Y9856711D01*
Y9857211D01*
X8944317Y9858023D01*
X8944380Y9858898D01*
X8944442Y9860023D01*
X8944505Y9861273D01*
X8944692Y9862647D01*
X8944817Y9864084D01*
X8945067Y9865647D01*
X8945317Y9867334D01*
X8945629Y9869021D01*
X8946004Y9870770D01*
X8946504Y9872582D01*
X8947004Y9874332D01*
X8947566Y9876144D01*
Y9876206D01*
X8947629Y9876269D01*
X8947754Y9876644D01*
X8948004Y9877269D01*
X8948316Y9878018D01*
X8948754Y9879018D01*
X8949253Y9880205D01*
X8949878Y9881580D01*
X8950566Y9883080D01*
X8951378Y9884642D01*
X8952253Y9886391D01*
X8953252Y9888203D01*
X8954377Y9890140D01*
X8955564Y9892077D01*
X8956876Y9894077D01*
X8958251Y9896139D01*
X8959751Y9898201D01*
X8965374D01*
X8965312Y9898076D01*
D02*
G37*
G36*
X7189582Y9416601D02*
X7190082D01*
X7190582Y9416539D01*
X7191207Y9416476D01*
X7191894Y9416414D01*
X7193394Y9416102D01*
X7194956Y9415727D01*
X7196643Y9415164D01*
X7198330Y9414414D01*
X7198393D01*
X7198517Y9414290D01*
X7198767Y9414165D01*
X7199080Y9413977D01*
X7199455Y9413790D01*
X7199830Y9413477D01*
X7200829Y9412790D01*
X7201954Y9411915D01*
X7203079Y9410853D01*
X7204141Y9409603D01*
X7205078Y9408229D01*
Y9408166D01*
X7205203Y9408041D01*
X7205328Y9407854D01*
X7205453Y9407541D01*
X7205641Y9407229D01*
X7205828Y9406791D01*
X7206265Y9405729D01*
X7206703Y9404542D01*
X7207078Y9403105D01*
X7207328Y9401605D01*
X7207453Y9399981D01*
Y9399918D01*
Y9399793D01*
Y9399606D01*
X7207390Y9399293D01*
Y9398918D01*
X7207328Y9398481D01*
X7207203Y9397481D01*
X7206890Y9396294D01*
X7206515Y9395044D01*
X7205953Y9393732D01*
X7205203Y9392420D01*
Y9392358D01*
X7205078Y9392295D01*
X7204953Y9392108D01*
X7204766Y9391858D01*
X7204266Y9391233D01*
X7203516Y9390483D01*
X7202579Y9389608D01*
X7201454Y9388734D01*
X7200142Y9387859D01*
X7198580Y9387047D01*
X7198642D01*
X7198830Y9386984D01*
X7199142Y9386922D01*
X7199517Y9386797D01*
X7200017Y9386609D01*
X7200517Y9386422D01*
X7201829Y9385859D01*
X7203204Y9385172D01*
X7204703Y9384172D01*
X7206141Y9383048D01*
X7206765Y9382360D01*
X7207390Y9381610D01*
X7207453Y9381548D01*
X7207515Y9381423D01*
X7207703Y9381173D01*
X7207890Y9380861D01*
X7208140Y9380486D01*
X7208390Y9379986D01*
X7208702Y9379423D01*
X7209015Y9378799D01*
X7209265Y9378049D01*
X7209577Y9377299D01*
X7209827Y9376424D01*
X7210077Y9375549D01*
X7210452Y9373550D01*
X7210514Y9372425D01*
X7210577Y9371301D01*
Y9371238D01*
Y9370926D01*
X7210514Y9370488D01*
Y9369926D01*
X7210389Y9369176D01*
X7210264Y9368364D01*
X7210077Y9367427D01*
X7209827Y9366364D01*
X7209515Y9365302D01*
X7209077Y9364177D01*
X7208577Y9362990D01*
X7208015Y9361803D01*
X7207265Y9360616D01*
X7206453Y9359366D01*
X7205516Y9358241D01*
X7204453Y9357117D01*
X7204391Y9357054D01*
X7204204Y9356867D01*
X7203829Y9356554D01*
X7203329Y9356242D01*
X7202766Y9355742D01*
X7202017Y9355305D01*
X7201204Y9354742D01*
X7200205Y9354242D01*
X7199142Y9353680D01*
X7197955Y9353118D01*
X7196705Y9352680D01*
X7195331Y9352243D01*
X7193894Y9351868D01*
X7192332Y9351556D01*
X7190707Y9351368D01*
X7188957Y9351306D01*
X7188583D01*
X7188145Y9351368D01*
X7187583D01*
X7186833Y9351431D01*
X7186021Y9351556D01*
X7185083Y9351743D01*
X7184021Y9351930D01*
X7182959Y9352180D01*
X7181834Y9352555D01*
X7180647Y9352930D01*
X7179522Y9353430D01*
X7178335Y9353992D01*
X7177148Y9354680D01*
X7176023Y9355430D01*
X7174961Y9356304D01*
X7174899Y9356367D01*
X7174711Y9356554D01*
X7174461Y9356804D01*
X7174086Y9357242D01*
X7173649Y9357742D01*
X7173149Y9358304D01*
X7172649Y9358991D01*
X7172087Y9359803D01*
X7171524Y9360678D01*
X7170962Y9361678D01*
X7170462Y9362740D01*
X7169962Y9363927D01*
X7169525Y9365177D01*
X7169150Y9366489D01*
X7168838Y9367864D01*
X7168650Y9369364D01*
X7176523Y9370426D01*
Y9370363D01*
X7176586Y9370113D01*
X7176648Y9369801D01*
X7176773Y9369301D01*
X7176898Y9368801D01*
X7177085Y9368114D01*
X7177335Y9367427D01*
X7177585Y9366677D01*
X7178210Y9365115D01*
X7179022Y9363490D01*
X7179960Y9361990D01*
X7180522Y9361366D01*
X7181084Y9360741D01*
X7181147D01*
X7181209Y9360616D01*
X7181397Y9360491D01*
X7181647Y9360303D01*
X7181959Y9360053D01*
X7182334Y9359803D01*
X7183271Y9359304D01*
X7184459Y9358741D01*
X7185833Y9358241D01*
X7187333Y9357929D01*
X7188145Y9357866D01*
X7189020Y9357804D01*
X7189582D01*
X7189957Y9357866D01*
X7190457Y9357929D01*
X7190957Y9357991D01*
X7191582Y9358116D01*
X7192269Y9358304D01*
X7193769Y9358741D01*
X7194519Y9359054D01*
X7195331Y9359429D01*
X7196143Y9359866D01*
X7196893Y9360366D01*
X7197643Y9360928D01*
X7198393Y9361616D01*
X7198455Y9361678D01*
X7198580Y9361803D01*
X7198767Y9361990D01*
X7199017Y9362303D01*
X7199267Y9362678D01*
X7199580Y9363115D01*
X7199955Y9363615D01*
X7200330Y9364240D01*
X7200642Y9364865D01*
X7201017Y9365614D01*
X7201642Y9367239D01*
X7201829Y9368114D01*
X7202017Y9369051D01*
X7202142Y9370051D01*
X7202204Y9371113D01*
Y9371176D01*
Y9371363D01*
Y9371613D01*
X7202142Y9372050D01*
X7202079Y9372488D01*
X7202017Y9373050D01*
X7201892Y9373612D01*
X7201767Y9374300D01*
X7201329Y9375674D01*
X7201079Y9376424D01*
X7200704Y9377174D01*
X7200267Y9377924D01*
X7199830Y9378674D01*
X7199267Y9379361D01*
X7198642Y9380048D01*
X7198580Y9380111D01*
X7198455Y9380173D01*
X7198268Y9380361D01*
X7198018Y9380611D01*
X7197643Y9380861D01*
X7197205Y9381173D01*
X7196768Y9381485D01*
X7196206Y9381798D01*
X7195581Y9382110D01*
X7194893Y9382423D01*
X7193331Y9382985D01*
X7191582Y9383422D01*
X7190644Y9383485D01*
X7189645Y9383547D01*
X7189270D01*
X7188770Y9383485D01*
X7188145Y9383422D01*
X7187333Y9383360D01*
X7186396Y9383235D01*
X7185333Y9382985D01*
X7184146Y9382735D01*
X7185021Y9389608D01*
X7185146D01*
X7185458Y9389546D01*
X7185896Y9389483D01*
X7186770D01*
X7187145Y9389546D01*
X7187583D01*
X7188083Y9389608D01*
X7188645Y9389733D01*
X7189270Y9389796D01*
X7190707Y9390108D01*
X7192207Y9390608D01*
X7193769Y9391233D01*
X7195331Y9392108D01*
X7195393Y9392170D01*
X7195518Y9392233D01*
X7195706Y9392358D01*
X7195956Y9392608D01*
X7196268Y9392858D01*
X7196643Y9393232D01*
X7196955Y9393607D01*
X7197393Y9394107D01*
X7197768Y9394607D01*
X7198080Y9395232D01*
X7198455Y9395919D01*
X7198767Y9396607D01*
X7199017Y9397419D01*
X7199205Y9398294D01*
X7199330Y9399168D01*
X7199392Y9400168D01*
Y9400231D01*
Y9400356D01*
Y9400606D01*
X7199330Y9400918D01*
Y9401293D01*
X7199267Y9401730D01*
X7199017Y9402730D01*
X7198705Y9403855D01*
X7198143Y9405042D01*
X7197455Y9406229D01*
X7196955Y9406791D01*
X7196456Y9407354D01*
X7196393Y9407416D01*
X7196331Y9407479D01*
X7196143Y9407604D01*
X7195956Y9407791D01*
X7195268Y9408291D01*
X7194394Y9408791D01*
X7193331Y9409291D01*
X7192019Y9409791D01*
X7190520Y9410103D01*
X7189770Y9410228D01*
X7188458D01*
X7188145Y9410166D01*
X7187708D01*
X7187270Y9410103D01*
X7186208Y9409853D01*
X7184958Y9409541D01*
X7183709Y9408978D01*
X7182397Y9408291D01*
X7181772Y9407791D01*
X7181209Y9407291D01*
X7181147Y9407229D01*
X7181084Y9407166D01*
X7180897Y9406979D01*
X7180710Y9406729D01*
X7180460Y9406479D01*
X7180210Y9406104D01*
X7179897Y9405667D01*
X7179585Y9405167D01*
X7179272Y9404542D01*
X7178898Y9403917D01*
X7178585Y9403230D01*
X7178273Y9402418D01*
X7178023Y9401605D01*
X7177710Y9400668D01*
X7177523Y9399731D01*
X7177335Y9398669D01*
X7169462Y9400043D01*
Y9400106D01*
X7169525Y9400418D01*
X7169650Y9400793D01*
X7169775Y9401355D01*
X7169962Y9401980D01*
X7170212Y9402792D01*
X7170462Y9403605D01*
X7170837Y9404542D01*
X7171212Y9405479D01*
X7171712Y9406479D01*
X7172212Y9407541D01*
X7172837Y9408541D01*
X7173461Y9409541D01*
X7174211Y9410540D01*
X7175086Y9411415D01*
X7175961Y9412290D01*
X7176023Y9412353D01*
X7176211Y9412477D01*
X7176461Y9412665D01*
X7176898Y9412977D01*
X7177398Y9413290D01*
X7177960Y9413665D01*
X7178710Y9414102D01*
X7179460Y9414477D01*
X7180335Y9414914D01*
X7181334Y9415289D01*
X7182397Y9415664D01*
X7183521Y9415977D01*
X7184709Y9416289D01*
X7185958Y9416476D01*
X7187333Y9416601D01*
X7188707Y9416664D01*
X7189207D01*
X7189582Y9416601D01*
D02*
G37*
G36*
X7427584Y9352368D02*
X7418774D01*
X7394030Y9416414D01*
X7403215D01*
X7419836Y9369863D01*
Y9369801D01*
X7419898Y9369613D01*
X7420023Y9369301D01*
X7420148Y9368926D01*
X7420336Y9368426D01*
X7420523Y9367801D01*
X7420773Y9367177D01*
X7421023Y9366427D01*
X7421523Y9364802D01*
X7422085Y9363053D01*
X7422648Y9361241D01*
X7423210Y9359366D01*
Y9359429D01*
X7423272Y9359616D01*
X7423335Y9359866D01*
X7423460Y9360241D01*
X7423647Y9360741D01*
X7423772Y9361303D01*
X7423960Y9361928D01*
X7424210Y9362678D01*
X7424710Y9364240D01*
X7425272Y9365989D01*
X7425959Y9367926D01*
X7426647Y9369863D01*
X7444017Y9416414D01*
X7452640D01*
X7427584Y9352368D01*
D02*
G37*
G36*
X7387094Y9408104D02*
X7361413D01*
X7357977Y9390796D01*
X7358039Y9390858D01*
X7358227Y9390983D01*
X7358539Y9391170D01*
X7358976Y9391420D01*
X7359476Y9391733D01*
X7360164Y9392108D01*
X7360851Y9392420D01*
X7361663Y9392858D01*
X7362538Y9393232D01*
X7363475Y9393545D01*
X7365537Y9394232D01*
X7366599Y9394482D01*
X7367724Y9394670D01*
X7368911Y9394795D01*
X7370099Y9394857D01*
X7370473D01*
X7370911Y9394795D01*
X7371536D01*
X7372223Y9394670D01*
X7373098Y9394545D01*
X7374035Y9394357D01*
X7375035Y9394107D01*
X7376097Y9393795D01*
X7377284Y9393420D01*
X7378471Y9392982D01*
X7379659Y9392420D01*
X7380846Y9391733D01*
X7382033Y9390983D01*
X7383158Y9390046D01*
X7384282Y9389046D01*
X7384345Y9388984D01*
X7384532Y9388796D01*
X7384845Y9388421D01*
X7385220Y9387984D01*
X7385657Y9387421D01*
X7386094Y9386734D01*
X7386657Y9385922D01*
X7387219Y9384985D01*
X7387719Y9383985D01*
X7388281Y9382860D01*
X7388719Y9381610D01*
X7389219Y9380298D01*
X7389531Y9378861D01*
X7389843Y9377361D01*
X7390031Y9375737D01*
X7390093Y9374050D01*
Y9373925D01*
Y9373675D01*
X7390031Y9373238D01*
Y9372613D01*
X7389968Y9371863D01*
X7389843Y9370988D01*
X7389656Y9369988D01*
X7389469Y9368926D01*
X7389156Y9367801D01*
X7388844Y9366552D01*
X7388406Y9365302D01*
X7387906Y9364052D01*
X7387344Y9362803D01*
X7386657Y9361491D01*
X7385845Y9360241D01*
X7384970Y9359054D01*
X7384907Y9358991D01*
X7384657Y9358741D01*
X7384345Y9358366D01*
X7383845Y9357866D01*
X7383220Y9357242D01*
X7382470Y9356617D01*
X7381596Y9355929D01*
X7380596Y9355180D01*
X7379409Y9354430D01*
X7378159Y9353743D01*
X7376784Y9353118D01*
X7375285Y9352493D01*
X7373660Y9351993D01*
X7371973Y9351618D01*
X7370099Y9351368D01*
X7368162Y9351306D01*
X7367787D01*
X7367349Y9351368D01*
X7366724D01*
X7365975Y9351431D01*
X7365100Y9351556D01*
X7364163Y9351743D01*
X7363100Y9351930D01*
X7361976Y9352180D01*
X7360851Y9352493D01*
X7359664Y9352868D01*
X7358414Y9353368D01*
X7357227Y9353930D01*
X7356040Y9354555D01*
X7354915Y9355305D01*
X7353853Y9356179D01*
X7353790Y9356242D01*
X7353603Y9356429D01*
X7353353Y9356679D01*
X7352978Y9357054D01*
X7352541Y9357554D01*
X7352103Y9358179D01*
X7351541Y9358866D01*
X7351041Y9359616D01*
X7350479Y9360491D01*
X7349916Y9361491D01*
X7349416Y9362553D01*
X7348916Y9363740D01*
X7348479Y9364990D01*
X7348104Y9366302D01*
X7347792Y9367676D01*
X7347604Y9369176D01*
X7355852Y9369863D01*
Y9369801D01*
X7355915Y9369613D01*
X7355977Y9369301D01*
X7356040Y9368864D01*
X7356165Y9368364D01*
X7356290Y9367801D01*
X7356727Y9366427D01*
X7357289Y9364990D01*
X7357977Y9363490D01*
X7358914Y9361990D01*
X7359476Y9361366D01*
X7360039Y9360741D01*
X7360101Y9360678D01*
X7360226Y9360616D01*
X7360414Y9360491D01*
X7360663Y9360303D01*
X7360976Y9360053D01*
X7361351Y9359803D01*
X7362351Y9359241D01*
X7363538Y9358679D01*
X7364912Y9358241D01*
X7366474Y9357866D01*
X7367287Y9357804D01*
X7368162Y9357742D01*
X7368724D01*
X7369099Y9357804D01*
X7369599Y9357866D01*
X7370161Y9357991D01*
X7370786Y9358116D01*
X7371473Y9358304D01*
X7373035Y9358804D01*
X7373785Y9359116D01*
X7374597Y9359554D01*
X7375410Y9360053D01*
X7376222Y9360616D01*
X7377034Y9361241D01*
X7377784Y9361990D01*
X7377847Y9362053D01*
X7377972Y9362178D01*
X7378159Y9362428D01*
X7378409Y9362803D01*
X7378721Y9363178D01*
X7379034Y9363740D01*
X7379409Y9364365D01*
X7379784Y9365052D01*
X7380096Y9365802D01*
X7380471Y9366677D01*
X7380783Y9367614D01*
X7381096Y9368614D01*
X7381346Y9369676D01*
X7381533Y9370863D01*
X7381658Y9372050D01*
X7381721Y9373363D01*
Y9373425D01*
Y9373675D01*
Y9373987D01*
X7381658Y9374487D01*
X7381596Y9375050D01*
X7381533Y9375674D01*
X7381408Y9376424D01*
X7381221Y9377237D01*
X7380783Y9378924D01*
X7380471Y9379798D01*
X7380096Y9380673D01*
X7379659Y9381548D01*
X7379159Y9382423D01*
X7378596Y9383235D01*
X7377909Y9383985D01*
X7377847Y9384047D01*
X7377722Y9384172D01*
X7377534Y9384360D01*
X7377222Y9384610D01*
X7376847Y9384922D01*
X7376409Y9385234D01*
X7375847Y9385609D01*
X7375285Y9385984D01*
X7374597Y9386297D01*
X7373848Y9386672D01*
X7373035Y9386984D01*
X7372161Y9387296D01*
X7371161Y9387546D01*
X7370161Y9387734D01*
X7369099Y9387859D01*
X7367974Y9387921D01*
X7367349D01*
X7366974Y9387859D01*
X7366599D01*
X7365662Y9387734D01*
X7364600Y9387484D01*
X7363475Y9387171D01*
X7362288Y9386734D01*
X7361101Y9386172D01*
X7361038D01*
X7360976Y9386109D01*
X7360601Y9385859D01*
X7360039Y9385484D01*
X7359414Y9384985D01*
X7358601Y9384297D01*
X7357852Y9383547D01*
X7357039Y9382673D01*
X7356352Y9381735D01*
X7348979Y9382673D01*
X7355165Y9415602D01*
X7387094D01*
Y9408104D01*
D02*
G37*
G36*
X7336107Y9352368D02*
X7327172D01*
Y9361303D01*
X7336107D01*
Y9352368D01*
D02*
G37*
G36*
X7302616D02*
X7294743D01*
Y9402418D01*
X7294680D01*
X7294618Y9402293D01*
X7294430Y9402168D01*
X7294243Y9401980D01*
X7293618Y9401418D01*
X7292743Y9400730D01*
X7291681Y9399918D01*
X7290369Y9398981D01*
X7288869Y9397981D01*
X7287245Y9396981D01*
X7287182D01*
X7287057Y9396856D01*
X7286807Y9396732D01*
X7286495Y9396544D01*
X7286058Y9396294D01*
X7285620Y9396044D01*
X7284495Y9395482D01*
X7283246Y9394857D01*
X7281871Y9394170D01*
X7280434Y9393545D01*
X7279059Y9392982D01*
Y9400543D01*
X7279122Y9400606D01*
X7279372Y9400668D01*
X7279684Y9400855D01*
X7280184Y9401105D01*
X7280746Y9401418D01*
X7281371Y9401793D01*
X7282121Y9402168D01*
X7282933Y9402668D01*
X7284745Y9403730D01*
X7286682Y9405042D01*
X7288619Y9406479D01*
X7290556Y9408041D01*
X7290619Y9408104D01*
X7290744Y9408229D01*
X7291056Y9408479D01*
X7291369Y9408791D01*
X7291744Y9409228D01*
X7292243Y9409666D01*
X7292743Y9410228D01*
X7293306Y9410790D01*
X7294430Y9412103D01*
X7295555Y9413540D01*
X7296617Y9415102D01*
X7297117Y9415852D01*
X7297492Y9416664D01*
X7302616D01*
Y9352368D01*
D02*
G37*
G36*
X7163089Y9408853D02*
X7141907D01*
Y9352368D01*
X7133409D01*
Y9408853D01*
X7112290D01*
Y9416414D01*
X7163089D01*
Y9408853D01*
D02*
G37*
G36*
X7464512Y9417414D02*
X7464762Y9417039D01*
X7465199Y9416476D01*
X7465699Y9415664D01*
X7466386Y9414664D01*
X7467199Y9413477D01*
X7468073Y9412165D01*
X7468948Y9410665D01*
X7469948Y9409041D01*
X7470948Y9407354D01*
X7471947Y9405479D01*
X7472947Y9403605D01*
X7473947Y9401605D01*
X7474884Y9399606D01*
X7475697Y9397544D01*
X7476509Y9395482D01*
X7476571Y9395357D01*
X7476634Y9395044D01*
X7476821Y9394545D01*
X7477009Y9393857D01*
X7477321Y9392982D01*
X7477571Y9391920D01*
X7477883Y9390733D01*
X7478196Y9389421D01*
X7478508Y9387984D01*
X7478821Y9386422D01*
X7479133Y9384797D01*
X7479383Y9383048D01*
X7479571Y9381235D01*
X7479758Y9379423D01*
X7479820Y9377486D01*
X7479883Y9375549D01*
Y9375487D01*
Y9375424D01*
Y9375237D01*
Y9375050D01*
Y9374362D01*
X7479820Y9373550D01*
X7479758Y9372488D01*
X7479633Y9371238D01*
X7479508Y9369801D01*
X7479321Y9368301D01*
X7479071Y9366614D01*
X7478758Y9364802D01*
X7478383Y9362928D01*
X7477946Y9360928D01*
X7477446Y9358929D01*
X7476821Y9356867D01*
X7476134Y9354805D01*
X7475322Y9352743D01*
X7475259Y9352618D01*
X7475134Y9352243D01*
X7474884Y9351681D01*
X7474509Y9350931D01*
X7474072Y9349931D01*
X7473572Y9348869D01*
X7472947Y9347619D01*
X7472260Y9346244D01*
X7471510Y9344807D01*
X7470698Y9343245D01*
X7469761Y9341683D01*
X7468823Y9340059D01*
X7466699Y9336747D01*
X7465574Y9335122D01*
X7464387Y9333560D01*
X7458763D01*
X7458826Y9333623D01*
X7458888Y9333810D01*
X7459076Y9334123D01*
X7459326Y9334497D01*
X7459638Y9334997D01*
X7459951Y9335622D01*
X7460388Y9336372D01*
X7460825Y9337184D01*
X7461263Y9338059D01*
X7461825Y9339059D01*
X7462325Y9340121D01*
X7462887Y9341308D01*
X7463450Y9342558D01*
X7464074Y9343870D01*
X7464699Y9345245D01*
X7465324Y9346682D01*
X7466511Y9349744D01*
X7467699Y9352993D01*
X7468823Y9356492D01*
X7469761Y9360116D01*
X7470635Y9363865D01*
X7471260Y9367676D01*
X7471510Y9369676D01*
X7471698Y9371613D01*
X7471760Y9373550D01*
X7471822Y9375549D01*
Y9375674D01*
Y9375924D01*
Y9376362D01*
Y9376987D01*
X7471760Y9377674D01*
X7471698Y9378549D01*
X7471635Y9379548D01*
X7471573Y9380673D01*
X7471510Y9381860D01*
X7471323Y9383110D01*
X7471198Y9384485D01*
X7471010Y9385859D01*
X7470510Y9388796D01*
X7469885Y9391795D01*
Y9391858D01*
X7469823Y9392108D01*
X7469761Y9392420D01*
X7469636Y9392920D01*
X7469448Y9393482D01*
X7469261Y9394170D01*
X7469073Y9394982D01*
X7468823Y9395857D01*
X7468573Y9396794D01*
X7468261Y9397731D01*
X7467511Y9399918D01*
X7466699Y9402168D01*
X7465762Y9404417D01*
Y9404480D01*
X7465699Y9404605D01*
X7465574Y9404854D01*
X7465387Y9405167D01*
X7465199Y9405604D01*
X7464949Y9406167D01*
X7464637Y9406791D01*
X7464262Y9407541D01*
X7463825Y9408416D01*
X7463325Y9409353D01*
X7462762Y9410416D01*
X7462075Y9411603D01*
X7461388Y9412915D01*
X7460575Y9414352D01*
X7459701Y9415852D01*
X7458763Y9417539D01*
X7464387D01*
X7464512Y9417414D01*
D02*
G37*
G36*
X7266000D02*
X7265813Y9417164D01*
X7265563Y9416664D01*
X7265188Y9416039D01*
X7264751Y9415289D01*
X7264313Y9414477D01*
X7263751Y9413477D01*
X7263188Y9412477D01*
X7262001Y9410353D01*
X7260877Y9408229D01*
X7260314Y9407166D01*
X7259877Y9406229D01*
X7259439Y9405354D01*
X7259064Y9404542D01*
Y9404480D01*
X7258940Y9404292D01*
X7258815Y9403917D01*
X7258627Y9403480D01*
X7258377Y9402917D01*
X7258127Y9402293D01*
X7257877Y9401543D01*
X7257565Y9400668D01*
X7257190Y9399793D01*
X7256878Y9398793D01*
X7256190Y9396669D01*
X7255503Y9394357D01*
X7254878Y9391920D01*
Y9391858D01*
X7254816Y9391545D01*
X7254691Y9391108D01*
X7254566Y9390546D01*
X7254441Y9389796D01*
X7254316Y9388921D01*
X7254128Y9387921D01*
X7253941Y9386859D01*
X7253753Y9385609D01*
X7253628Y9384360D01*
X7253441Y9382985D01*
X7253316Y9381610D01*
X7253066Y9378611D01*
X7253004Y9375549D01*
Y9375487D01*
Y9375300D01*
Y9374987D01*
Y9374612D01*
X7253066Y9374112D01*
Y9373487D01*
X7253128Y9372738D01*
X7253191Y9371925D01*
X7253316Y9371051D01*
X7253378Y9370051D01*
X7253566Y9368926D01*
X7253691Y9367801D01*
X7253878Y9366552D01*
X7254128Y9365240D01*
X7254378Y9363865D01*
X7254628Y9362428D01*
X7255315Y9359304D01*
X7256190Y9356054D01*
X7257252Y9352555D01*
X7258502Y9348931D01*
X7260002Y9345182D01*
X7260877Y9343308D01*
X7261751Y9341371D01*
X7262751Y9339434D01*
X7263751Y9337497D01*
X7264875Y9335497D01*
X7266063Y9333560D01*
X7260439D01*
X7260377Y9333685D01*
X7260127Y9333935D01*
X7259814Y9334372D01*
X7259377Y9334997D01*
X7258752Y9335810D01*
X7258127Y9336747D01*
X7257377Y9337809D01*
X7256628Y9339059D01*
X7255753Y9340371D01*
X7254878Y9341871D01*
X7253941Y9343433D01*
X7253004Y9345120D01*
X7252066Y9346932D01*
X7251129Y9348806D01*
X7250254Y9350743D01*
X7249379Y9352743D01*
Y9352805D01*
X7249317Y9352868D01*
X7249192Y9353243D01*
X7248942Y9353867D01*
X7248692Y9354617D01*
X7248380Y9355680D01*
X7248005Y9356867D01*
X7247567Y9358179D01*
X7247193Y9359741D01*
X7246755Y9361366D01*
X7246318Y9363115D01*
X7245943Y9365052D01*
X7245630Y9366989D01*
X7245380Y9369051D01*
X7245131Y9371176D01*
X7245006Y9373363D01*
X7244943Y9375549D01*
Y9375674D01*
Y9376049D01*
Y9376549D01*
X7245006Y9377361D01*
X7245068Y9378236D01*
X7245131Y9379361D01*
X7245193Y9380611D01*
X7245380Y9381985D01*
X7245505Y9383422D01*
X7245755Y9384985D01*
X7246005Y9386672D01*
X7246318Y9388359D01*
X7246693Y9390108D01*
X7247193Y9391920D01*
X7247692Y9393670D01*
X7248255Y9395482D01*
Y9395544D01*
X7248317Y9395607D01*
X7248442Y9395982D01*
X7248692Y9396607D01*
X7249005Y9397356D01*
X7249442Y9398356D01*
X7249942Y9399543D01*
X7250567Y9400918D01*
X7251254Y9402418D01*
X7252066Y9403980D01*
X7252941Y9405729D01*
X7253941Y9407541D01*
X7255065Y9409478D01*
X7256253Y9411415D01*
X7257565Y9413415D01*
X7258940Y9415477D01*
X7260439Y9417539D01*
X7266063D01*
X7266000Y9417414D01*
D02*
G37*
G36*
X9506309Y7551717D02*
X9506809D01*
X9507309Y7551654D01*
X9507934Y7551592D01*
X9508621Y7551529D01*
X9510121Y7551217D01*
X9511683Y7550842D01*
X9513370Y7550280D01*
X9515057Y7549530D01*
X9515120D01*
X9515245Y7549405D01*
X9515495Y7549280D01*
X9515807Y7549092D01*
X9516182Y7548905D01*
X9516557Y7548592D01*
X9517557Y7547905D01*
X9518681Y7547030D01*
X9519806Y7545968D01*
X9520868Y7544718D01*
X9521805Y7543344D01*
Y7543281D01*
X9521930Y7543156D01*
X9522055Y7542969D01*
X9522180Y7542656D01*
X9522368Y7542344D01*
X9522555Y7541907D01*
X9522993Y7540844D01*
X9523430Y7539657D01*
X9523805Y7538220D01*
X9524055Y7536721D01*
X9524180Y7535096D01*
Y7535033D01*
Y7534908D01*
Y7534721D01*
X9524117Y7534409D01*
Y7534034D01*
X9524055Y7533596D01*
X9523930Y7532597D01*
X9523617Y7531409D01*
X9523243Y7530160D01*
X9522680Y7528848D01*
X9521930Y7527535D01*
Y7527473D01*
X9521805Y7527410D01*
X9521680Y7527223D01*
X9521493Y7526973D01*
X9520993Y7526348D01*
X9520243Y7525598D01*
X9519306Y7524724D01*
X9518181Y7523849D01*
X9516869Y7522974D01*
X9515307Y7522162D01*
X9515370D01*
X9515557Y7522099D01*
X9515869Y7522037D01*
X9516244Y7521912D01*
X9516744Y7521724D01*
X9517244Y7521537D01*
X9518556Y7520975D01*
X9519931Y7520287D01*
X9521431Y7519287D01*
X9522868Y7518163D01*
X9523493Y7517475D01*
X9524117Y7516726D01*
X9524180Y7516663D01*
X9524242Y7516538D01*
X9524430Y7516288D01*
X9524617Y7515976D01*
X9524867Y7515601D01*
X9525117Y7515101D01*
X9525430Y7514539D01*
X9525742Y7513914D01*
X9525992Y7513164D01*
X9526304Y7512414D01*
X9526554Y7511539D01*
X9526804Y7510665D01*
X9527179Y7508665D01*
X9527242Y7507540D01*
X9527304Y7506416D01*
Y7506353D01*
Y7506041D01*
X9527242Y7505603D01*
Y7505041D01*
X9527117Y7504291D01*
X9526992Y7503479D01*
X9526804Y7502542D01*
X9526554Y7501480D01*
X9526242Y7500417D01*
X9525804Y7499293D01*
X9525305Y7498105D01*
X9524742Y7496918D01*
X9523992Y7495731D01*
X9523180Y7494481D01*
X9522243Y7493357D01*
X9521181Y7492232D01*
X9521118Y7492169D01*
X9520931Y7491982D01*
X9520556Y7491670D01*
X9520056Y7491357D01*
X9519494Y7490857D01*
X9518744Y7490420D01*
X9517931Y7489858D01*
X9516932Y7489358D01*
X9515869Y7488795D01*
X9514682Y7488233D01*
X9513433Y7487796D01*
X9512058Y7487358D01*
X9510621Y7486983D01*
X9509059Y7486671D01*
X9507434Y7486483D01*
X9505685Y7486421D01*
X9505310D01*
X9504872Y7486483D01*
X9504310D01*
X9503560Y7486546D01*
X9502748Y7486671D01*
X9501811Y7486858D01*
X9500748Y7487046D01*
X9499686Y7487296D01*
X9498561Y7487671D01*
X9497374Y7488045D01*
X9496249Y7488545D01*
X9495062Y7489108D01*
X9493875Y7489795D01*
X9492750Y7490545D01*
X9491688Y7491420D01*
X9491626Y7491482D01*
X9491438Y7491670D01*
X9491188Y7491919D01*
X9490813Y7492357D01*
X9490376Y7492857D01*
X9489876Y7493419D01*
X9489376Y7494106D01*
X9488814Y7494919D01*
X9488252Y7495793D01*
X9487689Y7496793D01*
X9487189Y7497855D01*
X9486689Y7499043D01*
X9486252Y7500292D01*
X9485877Y7501605D01*
X9485565Y7502979D01*
X9485377Y7504479D01*
X9493250Y7505541D01*
Y7505479D01*
X9493313Y7505229D01*
X9493375Y7504916D01*
X9493500Y7504416D01*
X9493625Y7503916D01*
X9493813Y7503229D01*
X9494063Y7502542D01*
X9494312Y7501792D01*
X9494937Y7500230D01*
X9495750Y7498605D01*
X9496687Y7497106D01*
X9497249Y7496481D01*
X9497812Y7495856D01*
X9497874D01*
X9497937Y7495731D01*
X9498124Y7495606D01*
X9498374Y7495419D01*
X9498686Y7495169D01*
X9499061Y7494919D01*
X9499999Y7494419D01*
X9501186Y7493856D01*
X9502560Y7493357D01*
X9504060Y7493044D01*
X9504872Y7492982D01*
X9505747Y7492919D01*
X9506309D01*
X9506684Y7492982D01*
X9507184Y7493044D01*
X9507684Y7493107D01*
X9508309Y7493232D01*
X9508996Y7493419D01*
X9510496Y7493856D01*
X9511246Y7494169D01*
X9512058Y7494544D01*
X9512870Y7494981D01*
X9513620Y7495481D01*
X9514370Y7496043D01*
X9515120Y7496731D01*
X9515182Y7496793D01*
X9515307Y7496918D01*
X9515495Y7497106D01*
X9515744Y7497418D01*
X9515994Y7497793D01*
X9516307Y7498230D01*
X9516682Y7498730D01*
X9517057Y7499355D01*
X9517369Y7499980D01*
X9517744Y7500730D01*
X9518369Y7502354D01*
X9518556Y7503229D01*
X9518744Y7504166D01*
X9518869Y7505166D01*
X9518931Y7506228D01*
Y7506291D01*
Y7506478D01*
Y7506728D01*
X9518869Y7507166D01*
X9518806Y7507603D01*
X9518744Y7508165D01*
X9518619Y7508728D01*
X9518494Y7509415D01*
X9518056Y7510790D01*
X9517806Y7511539D01*
X9517432Y7512289D01*
X9516994Y7513039D01*
X9516557Y7513789D01*
X9515994Y7514476D01*
X9515370Y7515164D01*
X9515307Y7515226D01*
X9515182Y7515288D01*
X9514995Y7515476D01*
X9514745Y7515726D01*
X9514370Y7515976D01*
X9513932Y7516288D01*
X9513495Y7516601D01*
X9512933Y7516913D01*
X9512308Y7517226D01*
X9511621Y7517538D01*
X9510058Y7518100D01*
X9508309Y7518538D01*
X9507372Y7518600D01*
X9506372Y7518663D01*
X9505997D01*
X9505497Y7518600D01*
X9504872Y7518538D01*
X9504060Y7518475D01*
X9503123Y7518350D01*
X9502060Y7518100D01*
X9500873Y7517850D01*
X9501748Y7524724D01*
X9501873D01*
X9502185Y7524661D01*
X9502623Y7524599D01*
X9503498D01*
X9503873Y7524661D01*
X9504310D01*
X9504810Y7524724D01*
X9505372Y7524849D01*
X9505997Y7524911D01*
X9507434Y7525223D01*
X9508934Y7525723D01*
X9510496Y7526348D01*
X9512058Y7527223D01*
X9512120Y7527285D01*
X9512245Y7527348D01*
X9512433Y7527473D01*
X9512683Y7527723D01*
X9512995Y7527973D01*
X9513370Y7528348D01*
X9513683Y7528723D01*
X9514120Y7529222D01*
X9514495Y7529722D01*
X9514807Y7530347D01*
X9515182Y7531034D01*
X9515495Y7531722D01*
X9515744Y7532534D01*
X9515932Y7533409D01*
X9516057Y7534284D01*
X9516119Y7535283D01*
Y7535346D01*
Y7535471D01*
Y7535721D01*
X9516057Y7536033D01*
Y7536408D01*
X9515994Y7536845D01*
X9515744Y7537845D01*
X9515432Y7538970D01*
X9514870Y7540157D01*
X9514182Y7541344D01*
X9513683Y7541907D01*
X9513183Y7542469D01*
X9513120Y7542532D01*
X9513058Y7542594D01*
X9512870Y7542719D01*
X9512683Y7542906D01*
X9511995Y7543406D01*
X9511121Y7543906D01*
X9510058Y7544406D01*
X9508746Y7544906D01*
X9507247Y7545218D01*
X9506497Y7545343D01*
X9505185D01*
X9504872Y7545281D01*
X9504435D01*
X9503998Y7545218D01*
X9502935Y7544968D01*
X9501686Y7544656D01*
X9500436Y7544094D01*
X9499124Y7543406D01*
X9498499Y7542906D01*
X9497937Y7542407D01*
X9497874Y7542344D01*
X9497812Y7542282D01*
X9497624Y7542094D01*
X9497437Y7541844D01*
X9497187Y7541594D01*
X9496937Y7541219D01*
X9496624Y7540782D01*
X9496312Y7540282D01*
X9496000Y7539657D01*
X9495625Y7539032D01*
X9495312Y7538345D01*
X9495000Y7537533D01*
X9494750Y7536721D01*
X9494437Y7535783D01*
X9494250Y7534846D01*
X9494063Y7533784D01*
X9486190Y7535158D01*
Y7535221D01*
X9486252Y7535533D01*
X9486377Y7535908D01*
X9486502Y7536471D01*
X9486689Y7537095D01*
X9486939Y7537908D01*
X9487189Y7538720D01*
X9487564Y7539657D01*
X9487939Y7540595D01*
X9488439Y7541594D01*
X9488939Y7542656D01*
X9489564Y7543656D01*
X9490189Y7544656D01*
X9490938Y7545656D01*
X9491813Y7546530D01*
X9492688Y7547405D01*
X9492750Y7547468D01*
X9492938Y7547593D01*
X9493188Y7547780D01*
X9493625Y7548093D01*
X9494125Y7548405D01*
X9494687Y7548780D01*
X9495437Y7549217D01*
X9496187Y7549592D01*
X9497062Y7550030D01*
X9498062Y7550405D01*
X9499124Y7550779D01*
X9500248Y7551092D01*
X9501436Y7551404D01*
X9502685Y7551592D01*
X9504060Y7551717D01*
X9505435Y7551779D01*
X9505935D01*
X9506309Y7551717D01*
D02*
G37*
G36*
X9431704D02*
X9432203D01*
X9432703Y7551654D01*
X9433328Y7551592D01*
X9434015Y7551529D01*
X9435515Y7551217D01*
X9437077Y7550842D01*
X9438764Y7550280D01*
X9440451Y7549530D01*
X9440514D01*
X9440639Y7549405D01*
X9440889Y7549280D01*
X9441201Y7549092D01*
X9441576Y7548905D01*
X9441951Y7548592D01*
X9442951Y7547905D01*
X9444075Y7547030D01*
X9445200Y7545968D01*
X9446262Y7544718D01*
X9447200Y7543344D01*
Y7543281D01*
X9447325Y7543156D01*
X9447449Y7542969D01*
X9447574Y7542656D01*
X9447762Y7542344D01*
X9447949Y7541907D01*
X9448387Y7540844D01*
X9448824Y7539657D01*
X9449199Y7538220D01*
X9449449Y7536721D01*
X9449574Y7535096D01*
Y7535033D01*
Y7534908D01*
Y7534721D01*
X9449511Y7534409D01*
Y7534034D01*
X9449449Y7533596D01*
X9449324Y7532597D01*
X9449012Y7531409D01*
X9448637Y7530160D01*
X9448074Y7528848D01*
X9447325Y7527535D01*
Y7527473D01*
X9447200Y7527410D01*
X9447075Y7527223D01*
X9446887Y7526973D01*
X9446387Y7526348D01*
X9445637Y7525598D01*
X9444700Y7524724D01*
X9443575Y7523849D01*
X9442263Y7522974D01*
X9440701Y7522162D01*
X9440764D01*
X9440951Y7522099D01*
X9441264Y7522037D01*
X9441638Y7521912D01*
X9442138Y7521724D01*
X9442638Y7521537D01*
X9443950Y7520975D01*
X9445325Y7520287D01*
X9446825Y7519287D01*
X9448262Y7518163D01*
X9448887Y7517475D01*
X9449511Y7516726D01*
X9449574Y7516663D01*
X9449636Y7516538D01*
X9449824Y7516288D01*
X9450011Y7515976D01*
X9450261Y7515601D01*
X9450511Y7515101D01*
X9450824Y7514539D01*
X9451136Y7513914D01*
X9451386Y7513164D01*
X9451698Y7512414D01*
X9451948Y7511539D01*
X9452198Y7510665D01*
X9452573Y7508665D01*
X9452636Y7507540D01*
X9452698Y7506416D01*
Y7506353D01*
Y7506041D01*
X9452636Y7505603D01*
Y7505041D01*
X9452511Y7504291D01*
X9452386Y7503479D01*
X9452198Y7502542D01*
X9451948Y7501480D01*
X9451636Y7500417D01*
X9451199Y7499293D01*
X9450699Y7498105D01*
X9450136Y7496918D01*
X9449386Y7495731D01*
X9448574Y7494481D01*
X9447637Y7493357D01*
X9446575Y7492232D01*
X9446512Y7492169D01*
X9446325Y7491982D01*
X9445950Y7491670D01*
X9445450Y7491357D01*
X9444888Y7490857D01*
X9444138Y7490420D01*
X9443326Y7489858D01*
X9442326Y7489358D01*
X9441264Y7488795D01*
X9440076Y7488233D01*
X9438827Y7487796D01*
X9437452Y7487358D01*
X9436015Y7486983D01*
X9434453Y7486671D01*
X9432828Y7486483D01*
X9431079Y7486421D01*
X9430704D01*
X9430266Y7486483D01*
X9429704D01*
X9428954Y7486546D01*
X9428142Y7486671D01*
X9427205Y7486858D01*
X9426142Y7487046D01*
X9425080Y7487296D01*
X9423955Y7487671D01*
X9422768Y7488045D01*
X9421644Y7488545D01*
X9420456Y7489108D01*
X9419269Y7489795D01*
X9418144Y7490545D01*
X9417082Y7491420D01*
X9417020Y7491482D01*
X9416832Y7491670D01*
X9416582Y7491919D01*
X9416207Y7492357D01*
X9415770Y7492857D01*
X9415270Y7493419D01*
X9414770Y7494106D01*
X9414208Y7494919D01*
X9413646Y7495793D01*
X9413083Y7496793D01*
X9412583Y7497855D01*
X9412084Y7499043D01*
X9411646Y7500292D01*
X9411271Y7501605D01*
X9410959Y7502979D01*
X9410771Y7504479D01*
X9418644Y7505541D01*
Y7505479D01*
X9418707Y7505229D01*
X9418769Y7504916D01*
X9418894Y7504416D01*
X9419019Y7503916D01*
X9419207Y7503229D01*
X9419457Y7502542D01*
X9419707Y7501792D01*
X9420331Y7500230D01*
X9421144Y7498605D01*
X9422081Y7497106D01*
X9422643Y7496481D01*
X9423206Y7495856D01*
X9423268D01*
X9423331Y7495731D01*
X9423518Y7495606D01*
X9423768Y7495419D01*
X9424080Y7495169D01*
X9424455Y7494919D01*
X9425393Y7494419D01*
X9426580Y7493856D01*
X9427954Y7493357D01*
X9429454Y7493044D01*
X9430266Y7492982D01*
X9431141Y7492919D01*
X9431704D01*
X9432078Y7492982D01*
X9432578Y7493044D01*
X9433078Y7493107D01*
X9433703Y7493232D01*
X9434390Y7493419D01*
X9435890Y7493856D01*
X9436640Y7494169D01*
X9437452Y7494544D01*
X9438264Y7494981D01*
X9439014Y7495481D01*
X9439764Y7496043D01*
X9440514Y7496731D01*
X9440576Y7496793D01*
X9440701Y7496918D01*
X9440889Y7497106D01*
X9441139Y7497418D01*
X9441389Y7497793D01*
X9441701Y7498230D01*
X9442076Y7498730D01*
X9442451Y7499355D01*
X9442763Y7499980D01*
X9443138Y7500730D01*
X9443763Y7502354D01*
X9443950Y7503229D01*
X9444138Y7504166D01*
X9444263Y7505166D01*
X9444325Y7506228D01*
Y7506291D01*
Y7506478D01*
Y7506728D01*
X9444263Y7507166D01*
X9444200Y7507603D01*
X9444138Y7508165D01*
X9444013Y7508728D01*
X9443888Y7509415D01*
X9443451Y7510790D01*
X9443201Y7511539D01*
X9442826Y7512289D01*
X9442388Y7513039D01*
X9441951Y7513789D01*
X9441389Y7514476D01*
X9440764Y7515164D01*
X9440701Y7515226D01*
X9440576Y7515288D01*
X9440389Y7515476D01*
X9440139Y7515726D01*
X9439764Y7515976D01*
X9439327Y7516288D01*
X9438889Y7516601D01*
X9438327Y7516913D01*
X9437702Y7517226D01*
X9437015Y7517538D01*
X9435453Y7518100D01*
X9433703Y7518538D01*
X9432766Y7518600D01*
X9431766Y7518663D01*
X9431391D01*
X9430891Y7518600D01*
X9430266Y7518538D01*
X9429454Y7518475D01*
X9428517Y7518350D01*
X9427455Y7518100D01*
X9426267Y7517850D01*
X9427142Y7524724D01*
X9427267D01*
X9427580Y7524661D01*
X9428017Y7524599D01*
X9428892D01*
X9429267Y7524661D01*
X9429704D01*
X9430204Y7524724D01*
X9430766Y7524849D01*
X9431391Y7524911D01*
X9432828Y7525223D01*
X9434328Y7525723D01*
X9435890Y7526348D01*
X9437452Y7527223D01*
X9437515Y7527285D01*
X9437639Y7527348D01*
X9437827Y7527473D01*
X9438077Y7527723D01*
X9438389Y7527973D01*
X9438764Y7528348D01*
X9439077Y7528723D01*
X9439514Y7529222D01*
X9439889Y7529722D01*
X9440201Y7530347D01*
X9440576Y7531034D01*
X9440889Y7531722D01*
X9441139Y7532534D01*
X9441326Y7533409D01*
X9441451Y7534284D01*
X9441514Y7535283D01*
Y7535346D01*
Y7535471D01*
Y7535721D01*
X9441451Y7536033D01*
Y7536408D01*
X9441389Y7536845D01*
X9441139Y7537845D01*
X9440826Y7538970D01*
X9440264Y7540157D01*
X9439576Y7541344D01*
X9439077Y7541907D01*
X9438577Y7542469D01*
X9438514Y7542532D01*
X9438452Y7542594D01*
X9438264Y7542719D01*
X9438077Y7542906D01*
X9437390Y7543406D01*
X9436515Y7543906D01*
X9435453Y7544406D01*
X9434140Y7544906D01*
X9432641Y7545218D01*
X9431891Y7545343D01*
X9430579D01*
X9430266Y7545281D01*
X9429829D01*
X9429392Y7545218D01*
X9428329Y7544968D01*
X9427080Y7544656D01*
X9425830Y7544094D01*
X9424518Y7543406D01*
X9423893Y7542906D01*
X9423331Y7542407D01*
X9423268Y7542344D01*
X9423206Y7542282D01*
X9423018Y7542094D01*
X9422831Y7541844D01*
X9422581Y7541594D01*
X9422331Y7541219D01*
X9422018Y7540782D01*
X9421706Y7540282D01*
X9421394Y7539657D01*
X9421019Y7539032D01*
X9420706Y7538345D01*
X9420394Y7537533D01*
X9420144Y7536721D01*
X9419832Y7535783D01*
X9419644Y7534846D01*
X9419457Y7533784D01*
X9411584Y7535158D01*
Y7535221D01*
X9411646Y7535533D01*
X9411771Y7535908D01*
X9411896Y7536471D01*
X9412084Y7537095D01*
X9412333Y7537908D01*
X9412583Y7538720D01*
X9412958Y7539657D01*
X9413333Y7540595D01*
X9413833Y7541594D01*
X9414333Y7542656D01*
X9414958Y7543656D01*
X9415583Y7544656D01*
X9416332Y7545656D01*
X9417207Y7546530D01*
X9418082Y7547405D01*
X9418144Y7547468D01*
X9418332Y7547593D01*
X9418582Y7547780D01*
X9419019Y7548093D01*
X9419519Y7548405D01*
X9420081Y7548780D01*
X9420831Y7549217D01*
X9421581Y7549592D01*
X9422456Y7550030D01*
X9423456Y7550405D01*
X9424518Y7550779D01*
X9425643Y7551092D01*
X9426830Y7551404D01*
X9428079Y7551592D01*
X9429454Y7551717D01*
X9430829Y7551779D01*
X9431329D01*
X9431704Y7551717D01*
D02*
G37*
G36*
X9565294Y7487483D02*
X9556484D01*
X9531740Y7551529D01*
X9540926D01*
X9557546Y7504979D01*
Y7504916D01*
X9557609Y7504729D01*
X9557734Y7504416D01*
X9557859Y7504041D01*
X9558046Y7503542D01*
X9558234Y7502917D01*
X9558484Y7502292D01*
X9558733Y7501542D01*
X9559233Y7499917D01*
X9559796Y7498168D01*
X9560358Y7496356D01*
X9560920Y7494481D01*
Y7494544D01*
X9560983Y7494731D01*
X9561045Y7494981D01*
X9561170Y7495356D01*
X9561358Y7495856D01*
X9561483Y7496418D01*
X9561670Y7497043D01*
X9561920Y7497793D01*
X9562420Y7499355D01*
X9562982Y7501105D01*
X9563670Y7503042D01*
X9564357Y7504979D01*
X9581728Y7551529D01*
X9590350D01*
X9565294Y7487483D01*
D02*
G37*
G36*
X9473818D02*
X9464883D01*
Y7496418D01*
X9473818D01*
Y7487483D01*
D02*
G37*
G36*
X9335916D02*
X9328043D01*
Y7537533D01*
X9327980D01*
X9327918Y7537408D01*
X9327730Y7537283D01*
X9327543Y7537095D01*
X9326918Y7536533D01*
X9326043Y7535846D01*
X9324981Y7535033D01*
X9323669Y7534096D01*
X9322169Y7533096D01*
X9320544Y7532097D01*
X9320482D01*
X9320357Y7531972D01*
X9320107Y7531847D01*
X9319795Y7531659D01*
X9319357Y7531409D01*
X9318920Y7531159D01*
X9317795Y7530597D01*
X9316546Y7529972D01*
X9315171Y7529285D01*
X9313734Y7528660D01*
X9312359Y7528098D01*
Y7535658D01*
X9312422Y7535721D01*
X9312671Y7535783D01*
X9312984Y7535971D01*
X9313484Y7536221D01*
X9314046Y7536533D01*
X9314671Y7536908D01*
X9315421Y7537283D01*
X9316233Y7537783D01*
X9318045Y7538845D01*
X9319982Y7540157D01*
X9321919Y7541594D01*
X9323856Y7543156D01*
X9323919Y7543219D01*
X9324044Y7543344D01*
X9324356Y7543594D01*
X9324668Y7543906D01*
X9325043Y7544344D01*
X9325543Y7544781D01*
X9326043Y7545343D01*
X9326605Y7545906D01*
X9327730Y7547218D01*
X9328855Y7548655D01*
X9329917Y7550217D01*
X9330417Y7550967D01*
X9330792Y7551779D01*
X9335916D01*
Y7487483D01*
D02*
G37*
G36*
X9300800Y7543969D02*
X9279617D01*
Y7487483D01*
X9271120D01*
Y7543969D01*
X9250000D01*
Y7551529D01*
X9300800D01*
Y7543969D01*
D02*
G37*
G36*
X9602222Y7552529D02*
X9602472Y7552154D01*
X9602910Y7551592D01*
X9603410Y7550779D01*
X9604097Y7549780D01*
X9604909Y7548592D01*
X9605784Y7547280D01*
X9606659Y7545781D01*
X9607658Y7544156D01*
X9608658Y7542469D01*
X9609658Y7540595D01*
X9610658Y7538720D01*
X9611657Y7536721D01*
X9612595Y7534721D01*
X9613407Y7532659D01*
X9614219Y7530597D01*
X9614282Y7530472D01*
X9614344Y7530160D01*
X9614532Y7529660D01*
X9614719Y7528972D01*
X9615032Y7528098D01*
X9615282Y7527035D01*
X9615594Y7525848D01*
X9615906Y7524536D01*
X9616219Y7523099D01*
X9616531Y7521537D01*
X9616844Y7519912D01*
X9617094Y7518163D01*
X9617281Y7516351D01*
X9617468Y7514539D01*
X9617531Y7512602D01*
X9617593Y7510665D01*
Y7510602D01*
Y7510540D01*
Y7510352D01*
Y7510165D01*
Y7509477D01*
X9617531Y7508665D01*
X9617468Y7507603D01*
X9617343Y7506353D01*
X9617219Y7504916D01*
X9617031Y7503417D01*
X9616781Y7501729D01*
X9616469Y7499917D01*
X9616094Y7498043D01*
X9615656Y7496043D01*
X9615157Y7494044D01*
X9614532Y7491982D01*
X9613844Y7489920D01*
X9613032Y7487858D01*
X9612970Y7487733D01*
X9612845Y7487358D01*
X9612595Y7486796D01*
X9612220Y7486046D01*
X9611782Y7485046D01*
X9611283Y7483984D01*
X9610658Y7482734D01*
X9609970Y7481360D01*
X9609221Y7479923D01*
X9608408Y7478360D01*
X9607471Y7476798D01*
X9606534Y7475174D01*
X9604409Y7471862D01*
X9603285Y7470238D01*
X9602097Y7468675D01*
X9596474D01*
X9596536Y7468738D01*
X9596599Y7468925D01*
X9596786Y7469238D01*
X9597036Y7469613D01*
X9597349Y7470113D01*
X9597661Y7470737D01*
X9598098Y7471487D01*
X9598536Y7472300D01*
X9598973Y7473174D01*
X9599536Y7474174D01*
X9600035Y7475236D01*
X9600598Y7476423D01*
X9601160Y7477673D01*
X9601785Y7478985D01*
X9602410Y7480360D01*
X9603035Y7481797D01*
X9604222Y7484859D01*
X9605409Y7488108D01*
X9606534Y7491607D01*
X9607471Y7495231D01*
X9608346Y7498980D01*
X9608971Y7502792D01*
X9609221Y7504791D01*
X9609408Y7506728D01*
X9609470Y7508665D01*
X9609533Y7510665D01*
Y7510790D01*
Y7511040D01*
Y7511477D01*
Y7512102D01*
X9609470Y7512789D01*
X9609408Y7513664D01*
X9609346Y7514664D01*
X9609283Y7515788D01*
X9609221Y7516976D01*
X9609033Y7518225D01*
X9608908Y7519600D01*
X9608721Y7520975D01*
X9608221Y7523911D01*
X9607596Y7526911D01*
Y7526973D01*
X9607533Y7527223D01*
X9607471Y7527535D01*
X9607346Y7528035D01*
X9607159Y7528598D01*
X9606971Y7529285D01*
X9606784Y7530097D01*
X9606534Y7530972D01*
X9606284Y7531909D01*
X9605971Y7532847D01*
X9605222Y7535033D01*
X9604409Y7537283D01*
X9603472Y7539532D01*
Y7539595D01*
X9603410Y7539720D01*
X9603285Y7539970D01*
X9603097Y7540282D01*
X9602910Y7540719D01*
X9602660Y7541282D01*
X9602347Y7541907D01*
X9601972Y7542656D01*
X9601535Y7543531D01*
X9601035Y7544469D01*
X9600473Y7545531D01*
X9599785Y7546718D01*
X9599098Y7548030D01*
X9598286Y7549467D01*
X9597411Y7550967D01*
X9596474Y7552654D01*
X9602097D01*
X9602222Y7552529D01*
D02*
G37*
G36*
X9403711D02*
X9403523Y7552279D01*
X9403273Y7551779D01*
X9402898Y7551154D01*
X9402461Y7550405D01*
X9402024Y7549592D01*
X9401461Y7548592D01*
X9400899Y7547593D01*
X9399712Y7545468D01*
X9398587Y7543344D01*
X9398025Y7542282D01*
X9397587Y7541344D01*
X9397150Y7540470D01*
X9396775Y7539657D01*
Y7539595D01*
X9396650Y7539407D01*
X9396525Y7539032D01*
X9396338Y7538595D01*
X9396088Y7538033D01*
X9395838Y7537408D01*
X9395588Y7536658D01*
X9395275Y7535783D01*
X9394900Y7534908D01*
X9394588Y7533909D01*
X9393901Y7531784D01*
X9393213Y7529472D01*
X9392589Y7527035D01*
Y7526973D01*
X9392526Y7526661D01*
X9392401Y7526223D01*
X9392276Y7525661D01*
X9392151Y7524911D01*
X9392026Y7524036D01*
X9391839Y7523037D01*
X9391651Y7521974D01*
X9391464Y7520725D01*
X9391339Y7519475D01*
X9391151Y7518100D01*
X9391026Y7516726D01*
X9390776Y7513726D01*
X9390714Y7510665D01*
Y7510602D01*
Y7510415D01*
Y7510102D01*
Y7509727D01*
X9390776Y7509228D01*
Y7508603D01*
X9390839Y7507853D01*
X9390901Y7507041D01*
X9391026Y7506166D01*
X9391089Y7505166D01*
X9391276Y7504041D01*
X9391401Y7502917D01*
X9391589Y7501667D01*
X9391839Y7500355D01*
X9392089Y7498980D01*
X9392339Y7497543D01*
X9393026Y7494419D01*
X9393901Y7491170D01*
X9394963Y7487671D01*
X9396213Y7484047D01*
X9397712Y7480297D01*
X9398587Y7478423D01*
X9399462Y7476486D01*
X9400462Y7474549D01*
X9401461Y7472612D01*
X9402586Y7470612D01*
X9403773Y7468675D01*
X9398150D01*
X9398087Y7468800D01*
X9397837Y7469050D01*
X9397525Y7469488D01*
X9397087Y7470113D01*
X9396463Y7470925D01*
X9395838Y7471862D01*
X9395088Y7472924D01*
X9394338Y7474174D01*
X9393463Y7475486D01*
X9392589Y7476986D01*
X9391651Y7478548D01*
X9390714Y7480235D01*
X9389777Y7482047D01*
X9388839Y7483922D01*
X9387965Y7485859D01*
X9387090Y7487858D01*
Y7487921D01*
X9387027Y7487983D01*
X9386902Y7488358D01*
X9386653Y7488983D01*
X9386403Y7489733D01*
X9386090Y7490795D01*
X9385715Y7491982D01*
X9385278Y7493294D01*
X9384903Y7494856D01*
X9384466Y7496481D01*
X9384028Y7498230D01*
X9383653Y7500167D01*
X9383341Y7502104D01*
X9383091Y7504166D01*
X9382841Y7506291D01*
X9382716Y7508478D01*
X9382654Y7510665D01*
Y7510790D01*
Y7511165D01*
Y7511664D01*
X9382716Y7512477D01*
X9382779Y7513351D01*
X9382841Y7514476D01*
X9382904Y7515726D01*
X9383091Y7517101D01*
X9383216Y7518538D01*
X9383466Y7520100D01*
X9383716Y7521787D01*
X9384028Y7523474D01*
X9384403Y7525223D01*
X9384903Y7527035D01*
X9385403Y7528785D01*
X9385965Y7530597D01*
Y7530660D01*
X9386028Y7530722D01*
X9386153Y7531097D01*
X9386403Y7531722D01*
X9386715Y7532472D01*
X9387152Y7533471D01*
X9387652Y7534659D01*
X9388277Y7536033D01*
X9388964Y7537533D01*
X9389777Y7539095D01*
X9390652Y7540844D01*
X9391651Y7542656D01*
X9392776Y7544593D01*
X9393963Y7546530D01*
X9395275Y7548530D01*
X9396650Y7550592D01*
X9398150Y7552654D01*
X9403773D01*
X9403711Y7552529D01*
D02*
G37*
G36*
X7889263Y10230944D02*
X7889763D01*
X7890263Y10230882D01*
X7890888Y10230820D01*
X7891575Y10230757D01*
X7893075Y10230445D01*
X7894637Y10230070D01*
X7896324Y10229507D01*
X7898011Y10228758D01*
X7898073D01*
X7898198Y10228633D01*
X7898448Y10228508D01*
X7898761Y10228320D01*
X7899136Y10228133D01*
X7899510Y10227820D01*
X7900510Y10227133D01*
X7901635Y10226258D01*
X7902760Y10225196D01*
X7903822Y10223946D01*
X7904759Y10222572D01*
Y10222509D01*
X7904884Y10222384D01*
X7905009Y10222197D01*
X7905134Y10221884D01*
X7905322Y10221572D01*
X7905509Y10221134D01*
X7905946Y10220072D01*
X7906384Y10218885D01*
X7906759Y10217448D01*
X7907009Y10215948D01*
X7907134Y10214324D01*
Y10214261D01*
Y10214136D01*
Y10213949D01*
X7907071Y10213636D01*
Y10213262D01*
X7907009Y10212824D01*
X7906884Y10211824D01*
X7906571Y10210637D01*
X7906196Y10209388D01*
X7905634Y10208075D01*
X7904884Y10206763D01*
Y10206701D01*
X7904759Y10206638D01*
X7904634Y10206451D01*
X7904447Y10206201D01*
X7903947Y10205576D01*
X7903197Y10204826D01*
X7902260Y10203951D01*
X7901135Y10203077D01*
X7899823Y10202202D01*
X7898261Y10201390D01*
X7898323D01*
X7898511Y10201327D01*
X7898823Y10201265D01*
X7899198Y10201140D01*
X7899698Y10200952D01*
X7900198Y10200765D01*
X7901510Y10200202D01*
X7902885Y10199515D01*
X7904384Y10198515D01*
X7905821Y10197391D01*
X7906446Y10196703D01*
X7907071Y10195953D01*
X7907134Y10195891D01*
X7907196Y10195766D01*
X7907383Y10195516D01*
X7907571Y10195204D01*
X7907821Y10194829D01*
X7908071Y10194329D01*
X7908383Y10193767D01*
X7908696Y10193142D01*
X7908946Y10192392D01*
X7909258Y10191642D01*
X7909508Y10190767D01*
X7909758Y10189892D01*
X7910133Y10187893D01*
X7910195Y10186768D01*
X7910258Y10185644D01*
Y10185581D01*
Y10185269D01*
X7910195Y10184831D01*
Y10184269D01*
X7910070Y10183519D01*
X7909945Y10182707D01*
X7909758Y10181770D01*
X7909508Y10180707D01*
X7909196Y10179645D01*
X7908758Y10178520D01*
X7908258Y10177333D01*
X7907696Y10176146D01*
X7906946Y10174959D01*
X7906134Y10173709D01*
X7905197Y10172584D01*
X7904134Y10171460D01*
X7904072Y10171397D01*
X7903884Y10171210D01*
X7903509Y10170897D01*
X7903010Y10170585D01*
X7902447Y10170085D01*
X7901697Y10169648D01*
X7900885Y10169085D01*
X7899885Y10168585D01*
X7898823Y10168023D01*
X7897636Y10167461D01*
X7896386Y10167023D01*
X7895012Y10166586D01*
X7893575Y10166211D01*
X7892012Y10165899D01*
X7890388Y10165711D01*
X7888638Y10165649D01*
X7888263D01*
X7887826Y10165711D01*
X7887264D01*
X7886514Y10165774D01*
X7885702Y10165899D01*
X7884764Y10166086D01*
X7883702Y10166274D01*
X7882640Y10166523D01*
X7881515Y10166898D01*
X7880328Y10167273D01*
X7879203Y10167773D01*
X7878016Y10168336D01*
X7876829Y10169023D01*
X7875704Y10169773D01*
X7874642Y10170647D01*
X7874579Y10170710D01*
X7874392Y10170897D01*
X7874142Y10171147D01*
X7873767Y10171585D01*
X7873330Y10172085D01*
X7872830Y10172647D01*
X7872330Y10173334D01*
X7871768Y10174147D01*
X7871205Y10175021D01*
X7870643Y10176021D01*
X7870143Y10177083D01*
X7869643Y10178270D01*
X7869206Y10179520D01*
X7868831Y10180832D01*
X7868518Y10182207D01*
X7868331Y10183707D01*
X7876204Y10184769D01*
Y10184706D01*
X7876266Y10184456D01*
X7876329Y10184144D01*
X7876454Y10183644D01*
X7876579Y10183144D01*
X7876766Y10182457D01*
X7877016Y10181770D01*
X7877266Y10181020D01*
X7877891Y10179458D01*
X7878703Y10177833D01*
X7879641Y10176333D01*
X7880203Y10175709D01*
X7880765Y10175084D01*
X7880828D01*
X7880890Y10174959D01*
X7881078Y10174834D01*
X7881328Y10174646D01*
X7881640Y10174396D01*
X7882015Y10174147D01*
X7882952Y10173647D01*
X7884139Y10173084D01*
X7885514Y10172584D01*
X7887014Y10172272D01*
X7887826Y10172210D01*
X7888701Y10172147D01*
X7889263D01*
X7889638Y10172210D01*
X7890138Y10172272D01*
X7890638Y10172334D01*
X7891263Y10172459D01*
X7891950Y10172647D01*
X7893450Y10173084D01*
X7894199Y10173397D01*
X7895012Y10173772D01*
X7895824Y10174209D01*
X7896574Y10174709D01*
X7897324Y10175271D01*
X7898073Y10175959D01*
X7898136Y10176021D01*
X7898261Y10176146D01*
X7898448Y10176333D01*
X7898698Y10176646D01*
X7898948Y10177021D01*
X7899261Y10177458D01*
X7899635Y10177958D01*
X7900010Y10178583D01*
X7900323Y10179208D01*
X7900698Y10179958D01*
X7901323Y10181582D01*
X7901510Y10182457D01*
X7901697Y10183394D01*
X7901822Y10184394D01*
X7901885Y10185456D01*
Y10185519D01*
Y10185706D01*
Y10185956D01*
X7901822Y10186393D01*
X7901760Y10186831D01*
X7901697Y10187393D01*
X7901572Y10187955D01*
X7901447Y10188643D01*
X7901010Y10190017D01*
X7900760Y10190767D01*
X7900385Y10191517D01*
X7899948Y10192267D01*
X7899510Y10193017D01*
X7898948Y10193704D01*
X7898323Y10194391D01*
X7898261Y10194454D01*
X7898136Y10194516D01*
X7897948Y10194704D01*
X7897698Y10194954D01*
X7897324Y10195204D01*
X7896886Y10195516D01*
X7896449Y10195828D01*
X7895886Y10196141D01*
X7895262Y10196453D01*
X7894574Y10196766D01*
X7893012Y10197328D01*
X7891263Y10197765D01*
X7890325Y10197828D01*
X7889326Y10197890D01*
X7888951D01*
X7888451Y10197828D01*
X7887826Y10197765D01*
X7887014Y10197703D01*
X7886076Y10197578D01*
X7885014Y10197328D01*
X7883827Y10197078D01*
X7884702Y10203951D01*
X7884827D01*
X7885139Y10203889D01*
X7885577Y10203826D01*
X7886451D01*
X7886826Y10203889D01*
X7887264D01*
X7887763Y10203951D01*
X7888326Y10204076D01*
X7888951Y10204139D01*
X7890388Y10204451D01*
X7891887Y10204951D01*
X7893450Y10205576D01*
X7895012Y10206451D01*
X7895074Y10206513D01*
X7895199Y10206576D01*
X7895387Y10206701D01*
X7895636Y10206951D01*
X7895949Y10207201D01*
X7896324Y10207575D01*
X7896636Y10207950D01*
X7897074Y10208450D01*
X7897449Y10208950D01*
X7897761Y10209575D01*
X7898136Y10210262D01*
X7898448Y10210950D01*
X7898698Y10211762D01*
X7898886Y10212637D01*
X7899011Y10213511D01*
X7899073Y10214511D01*
Y10214574D01*
Y10214699D01*
Y10214949D01*
X7899011Y10215261D01*
Y10215636D01*
X7898948Y10216073D01*
X7898698Y10217073D01*
X7898386Y10218198D01*
X7897823Y10219385D01*
X7897136Y10220572D01*
X7896636Y10221134D01*
X7896136Y10221697D01*
X7896074Y10221759D01*
X7896011Y10221822D01*
X7895824Y10221947D01*
X7895636Y10222134D01*
X7894949Y10222634D01*
X7894074Y10223134D01*
X7893012Y10223634D01*
X7891700Y10224134D01*
X7890200Y10224446D01*
X7889451Y10224571D01*
X7888138D01*
X7887826Y10224509D01*
X7887389D01*
X7886951Y10224446D01*
X7885889Y10224196D01*
X7884639Y10223884D01*
X7883390Y10223321D01*
X7882077Y10222634D01*
X7881453Y10222134D01*
X7880890Y10221634D01*
X7880828Y10221572D01*
X7880765Y10221509D01*
X7880578Y10221322D01*
X7880390Y10221072D01*
X7880140Y10220822D01*
X7879891Y10220447D01*
X7879578Y10220010D01*
X7879266Y10219510D01*
X7878953Y10218885D01*
X7878578Y10218260D01*
X7878266Y10217573D01*
X7877954Y10216761D01*
X7877704Y10215948D01*
X7877391Y10215011D01*
X7877204Y10214074D01*
X7877016Y10213012D01*
X7869143Y10214386D01*
Y10214449D01*
X7869206Y10214761D01*
X7869331Y10215136D01*
X7869456Y10215698D01*
X7869643Y10216323D01*
X7869893Y10217136D01*
X7870143Y10217948D01*
X7870518Y10218885D01*
X7870893Y10219822D01*
X7871393Y10220822D01*
X7871893Y10221884D01*
X7872517Y10222884D01*
X7873142Y10223884D01*
X7873892Y10224884D01*
X7874767Y10225758D01*
X7875642Y10226633D01*
X7875704Y10226696D01*
X7875892Y10226821D01*
X7876141Y10227008D01*
X7876579Y10227320D01*
X7877079Y10227633D01*
X7877641Y10228008D01*
X7878391Y10228445D01*
X7879141Y10228820D01*
X7880015Y10229257D01*
X7881015Y10229632D01*
X7882077Y10230007D01*
X7883202Y10230320D01*
X7884389Y10230632D01*
X7885639Y10230820D01*
X7887014Y10230944D01*
X7888388Y10231007D01*
X7888888D01*
X7889263Y10230944D01*
D02*
G37*
G36*
X7829903Y10174271D02*
X7861395D01*
Y10166711D01*
X7821405D01*
Y10230757D01*
X7829903D01*
Y10174271D01*
D02*
G37*
G36*
X8022923Y9912390D02*
X7972873D01*
Y9912328D01*
X7972998Y9912265D01*
X7973123Y9912078D01*
X7973311Y9911891D01*
X7973873Y9911266D01*
X7974560Y9910391D01*
X7975373Y9909329D01*
X7976310Y9908017D01*
X7977310Y9906517D01*
X7978309Y9904892D01*
Y9904830D01*
X7978434Y9904705D01*
X7978559Y9904455D01*
X7978747Y9904142D01*
X7978997Y9903705D01*
X7979247Y9903268D01*
X7979809Y9902143D01*
X7980434Y9900893D01*
X7981121Y9899519D01*
X7981746Y9898082D01*
X7982308Y9896707D01*
X7974748D01*
X7974685Y9896769D01*
X7974623Y9897019D01*
X7974435Y9897332D01*
X7974185Y9897832D01*
X7973873Y9898394D01*
X7973498Y9899019D01*
X7973123Y9899769D01*
X7972623Y9900581D01*
X7971561Y9902393D01*
X7970249Y9904330D01*
X7968812Y9906267D01*
X7967250Y9908204D01*
X7967187Y9908266D01*
X7967062Y9908391D01*
X7966812Y9908704D01*
X7966500Y9909016D01*
X7966063Y9909391D01*
X7965625Y9909891D01*
X7965063Y9910391D01*
X7964500Y9910953D01*
X7963188Y9912078D01*
X7961751Y9913203D01*
X7960189Y9914265D01*
X7959439Y9914765D01*
X7958627Y9915140D01*
Y9920263D01*
X8022923D01*
Y9912390D01*
D02*
G37*
G36*
X7993243Y9882586D02*
X7994180D01*
X7995305Y9882523D01*
X7996492Y9882461D01*
X7997867Y9882336D01*
X7999304Y9882211D01*
X8000741Y9882086D01*
X8003803Y9881648D01*
X8006802Y9881086D01*
X8008177Y9880711D01*
X8009551Y9880274D01*
X8009614D01*
X8009864Y9880149D01*
X8010239Y9880024D01*
X8010676Y9879836D01*
X8011301Y9879586D01*
X8011926Y9879274D01*
X8012676Y9878961D01*
X8013488Y9878524D01*
X8015175Y9877587D01*
X8016987Y9876400D01*
X8018674Y9874962D01*
X8019486Y9874150D01*
X8020236Y9873338D01*
X8020299Y9873275D01*
X8020424Y9873150D01*
X8020611Y9872900D01*
X8020799Y9872526D01*
X8021111Y9872088D01*
X8021423Y9871526D01*
X8021736Y9870901D01*
X8022111Y9870214D01*
X8022486Y9869401D01*
X8022798Y9868527D01*
X8023110Y9867589D01*
X8023423Y9866527D01*
X8023610Y9865465D01*
X8023798Y9864278D01*
X8023923Y9863091D01*
X8023985Y9861778D01*
Y9861341D01*
X8023923Y9860904D01*
X8023860Y9860216D01*
X8023798Y9859466D01*
X8023610Y9858529D01*
X8023423Y9857529D01*
X8023173Y9856467D01*
X8022798Y9855342D01*
X8022361Y9854155D01*
X8021861Y9852906D01*
X8021236Y9851718D01*
X8020486Y9850531D01*
X8019611Y9849344D01*
X8018549Y9848219D01*
X8017424Y9847220D01*
X8017299Y9847157D01*
X8017049Y9846970D01*
X8016550Y9846657D01*
X8015862Y9846220D01*
X8014988Y9845782D01*
X8013925Y9845220D01*
X8012613Y9844658D01*
X8011114Y9844095D01*
X8009426Y9843471D01*
X8007489Y9842908D01*
X8005365Y9842346D01*
X8003053Y9841908D01*
X8000429Y9841471D01*
X7997679Y9841159D01*
X7994618Y9840971D01*
X7991369Y9840909D01*
X7991306D01*
X7991244D01*
X7990869D01*
X7990244D01*
X7989494Y9840971D01*
X7988494D01*
X7987432Y9841034D01*
X7986182Y9841096D01*
X7984808Y9841221D01*
X7983371Y9841346D01*
X7981871Y9841471D01*
X7978872Y9841908D01*
X7975810Y9842471D01*
X7974435Y9842846D01*
X7973061Y9843221D01*
X7972998D01*
X7972748Y9843346D01*
X7972373Y9843471D01*
X7971936Y9843658D01*
X7971311Y9843908D01*
X7970686Y9844220D01*
X7969937Y9844533D01*
X7969124Y9844970D01*
X7967375Y9845907D01*
X7965625Y9847095D01*
X7963938Y9848532D01*
X7963126Y9849344D01*
X7962376Y9850156D01*
X7962314Y9850219D01*
X7962189Y9850344D01*
X7962001Y9850656D01*
X7961814Y9850969D01*
X7961501Y9851468D01*
X7961189Y9851968D01*
X7960876Y9852656D01*
X7960501Y9853343D01*
X7960127Y9854155D01*
X7959814Y9855030D01*
X7959502Y9855967D01*
X7959189Y9857030D01*
X7959002Y9858092D01*
X7958814Y9859279D01*
X7958689Y9860466D01*
X7958627Y9861778D01*
Y9862653D01*
X7958689Y9863091D01*
X7958752Y9863590D01*
X7958814Y9864215D01*
X7958877Y9864840D01*
X7959127Y9866215D01*
X7959502Y9867714D01*
X7960064Y9869276D01*
X7960751Y9870776D01*
Y9870839D01*
X7960876Y9870963D01*
X7960939Y9871151D01*
X7961126Y9871463D01*
X7961626Y9872151D01*
X7962251Y9873088D01*
X7963126Y9874088D01*
X7964126Y9875150D01*
X7965375Y9876212D01*
X7966750Y9877212D01*
X7966812D01*
X7966937Y9877337D01*
X7967125Y9877462D01*
X7967437Y9877649D01*
X7967812Y9877837D01*
X7968249Y9878087D01*
X7968812Y9878337D01*
X7969374Y9878649D01*
X7970062Y9878961D01*
X7970749Y9879274D01*
X7972373Y9879899D01*
X7974248Y9880586D01*
X7976247Y9881148D01*
X7976310D01*
X7976497Y9881211D01*
X7976810Y9881273D01*
X7977247Y9881398D01*
X7977810Y9881523D01*
X7978497Y9881648D01*
X7979309Y9881773D01*
X7980246Y9881898D01*
X7981246Y9882023D01*
X7982433Y9882148D01*
X7983621Y9882273D01*
X7984995Y9882398D01*
X7986432Y9882523D01*
X7987994Y9882586D01*
X7989619Y9882648D01*
X7991369D01*
X7991494D01*
X7991868D01*
X7992431D01*
X7993243Y9882586D01*
D02*
G37*
G36*
X8022923Y9812916D02*
X7972873D01*
Y9812853D01*
X7972998Y9812791D01*
X7973123Y9812603D01*
X7973311Y9812416D01*
X7973873Y9811791D01*
X7974560Y9810916D01*
X7975373Y9809854D01*
X7976310Y9808542D01*
X7977310Y9807042D01*
X7978309Y9805418D01*
Y9805355D01*
X7978434Y9805230D01*
X7978559Y9804980D01*
X7978747Y9804668D01*
X7978997Y9804231D01*
X7979247Y9803793D01*
X7979809Y9802668D01*
X7980434Y9801419D01*
X7981121Y9800044D01*
X7981746Y9798607D01*
X7982308Y9797232D01*
X7974748D01*
X7974685Y9797295D01*
X7974623Y9797545D01*
X7974435Y9797857D01*
X7974185Y9798357D01*
X7973873Y9798919D01*
X7973498Y9799544D01*
X7973123Y9800294D01*
X7972623Y9801106D01*
X7971561Y9802918D01*
X7970249Y9804855D01*
X7968812Y9806792D01*
X7967250Y9808729D01*
X7967187Y9808792D01*
X7967062Y9808917D01*
X7966812Y9809229D01*
X7966500Y9809542D01*
X7966063Y9809917D01*
X7965625Y9810416D01*
X7965063Y9810916D01*
X7964500Y9811479D01*
X7963188Y9812603D01*
X7961751Y9813728D01*
X7960189Y9814790D01*
X7959439Y9815290D01*
X7958627Y9815665D01*
Y9820789D01*
X8022923D01*
Y9812916D01*
D02*
G37*
G36*
X8003053Y9783798D02*
X8003615Y9783611D01*
X8004303Y9783423D01*
X8005178Y9783111D01*
X8006177Y9782736D01*
X8007302Y9782236D01*
X8008489Y9781736D01*
X8009801Y9781112D01*
X8011114Y9780424D01*
X8012426Y9779612D01*
X8013738Y9778737D01*
X8015050Y9777737D01*
X8016300Y9776738D01*
X8017487Y9775550D01*
X8018549Y9774301D01*
X8018612Y9774238D01*
X8018799Y9773988D01*
X8019049Y9773613D01*
X8019424Y9773051D01*
X8019799Y9772364D01*
X8020236Y9771551D01*
X8020736Y9770614D01*
X8021236Y9769614D01*
X8021798Y9768427D01*
X8022236Y9767115D01*
X8022736Y9765740D01*
X8023110Y9764241D01*
X8023485Y9762616D01*
X8023735Y9760992D01*
X8023923Y9759180D01*
X8023985Y9757368D01*
Y9756368D01*
X8023923Y9755618D01*
X8023860Y9754743D01*
X8023735Y9753744D01*
X8023610Y9752619D01*
X8023485Y9751369D01*
X8023235Y9750057D01*
X8022985Y9748682D01*
X8022611Y9747308D01*
X8022236Y9745871D01*
X8021736Y9744496D01*
X8021173Y9743059D01*
X8020549Y9741747D01*
X8019799Y9740497D01*
X8019736Y9740434D01*
X8019611Y9740247D01*
X8019361Y9739872D01*
X8018987Y9739435D01*
X8018612Y9738872D01*
X8018049Y9738310D01*
X8017424Y9737623D01*
X8016675Y9736873D01*
X8015862Y9736061D01*
X8014988Y9735248D01*
X8013988Y9734436D01*
X8012863Y9733624D01*
X8011676Y9732874D01*
X8010426Y9732062D01*
X8009052Y9731374D01*
X8007614Y9730687D01*
X8007489Y9730624D01*
X8007240Y9730562D01*
X8006802Y9730374D01*
X8006240Y9730187D01*
X8005490Y9729937D01*
X8004615Y9729625D01*
X8003615Y9729312D01*
X8002491Y9729000D01*
X8001241Y9728687D01*
X7999929Y9728375D01*
X7998492Y9728125D01*
X7996992Y9727813D01*
X7995430Y9727625D01*
X7993805Y9727438D01*
X7992118Y9727375D01*
X7990431Y9727313D01*
X7990306D01*
X7989994D01*
X7989432D01*
X7988744Y9727375D01*
X7987869Y9727438D01*
X7986870Y9727500D01*
X7985745Y9727625D01*
X7984495Y9727813D01*
X7983183Y9728000D01*
X7981809Y9728250D01*
X7980309Y9728562D01*
X7978872Y9728937D01*
X7977372Y9729375D01*
X7975873Y9729875D01*
X7974435Y9730437D01*
X7972998Y9731124D01*
X7972936Y9731187D01*
X7972686Y9731312D01*
X7972248Y9731499D01*
X7971749Y9731812D01*
X7971124Y9732249D01*
X7970436Y9732686D01*
X7969624Y9733249D01*
X7968749Y9733936D01*
X7967875Y9734623D01*
X7966937Y9735436D01*
X7966000Y9736373D01*
X7965063Y9737310D01*
X7964126Y9738372D01*
X7963251Y9739497D01*
X7962376Y9740684D01*
X7961626Y9741997D01*
X7961564Y9742059D01*
X7961439Y9742309D01*
X7961251Y9742684D01*
X7961001Y9743246D01*
X7960751Y9743871D01*
X7960377Y9744683D01*
X7960064Y9745558D01*
X7959689Y9746620D01*
X7959314Y9747683D01*
X7959002Y9748870D01*
X7958627Y9750182D01*
X7958377Y9751557D01*
X7958127Y9752994D01*
X7957940Y9754431D01*
X7957815Y9755993D01*
X7957752Y9757555D01*
Y9758492D01*
X7957815Y9759180D01*
X7957877Y9759992D01*
X7958002Y9760929D01*
X7958190Y9761991D01*
X7958377Y9763179D01*
X7958627Y9764366D01*
X7958939Y9765678D01*
X7959377Y9767053D01*
X7959814Y9768365D01*
X7960377Y9769739D01*
X7961064Y9771114D01*
X7961814Y9772426D01*
X7962688Y9773676D01*
X7962751Y9773738D01*
X7962938Y9773988D01*
X7963188Y9774301D01*
X7963563Y9774738D01*
X7964063Y9775300D01*
X7964688Y9775863D01*
X7965438Y9776550D01*
X7966250Y9777300D01*
X7967187Y9778050D01*
X7968187Y9778800D01*
X7969312Y9779549D01*
X7970561Y9780299D01*
X7971874Y9781049D01*
X7973311Y9781736D01*
X7974810Y9782299D01*
X7976435Y9782861D01*
X7978372Y9774488D01*
X7978309D01*
X7978059Y9774363D01*
X7977685Y9774238D01*
X7977247Y9774051D01*
X7976685Y9773863D01*
X7975998Y9773551D01*
X7975310Y9773239D01*
X7974498Y9772864D01*
X7972873Y9771926D01*
X7971186Y9770802D01*
X7969624Y9769489D01*
X7968874Y9768740D01*
X7968249Y9767990D01*
X7968187Y9767927D01*
X7968125Y9767802D01*
X7967937Y9767552D01*
X7967750Y9767240D01*
X7967500Y9766803D01*
X7967250Y9766303D01*
X7966937Y9765740D01*
X7966625Y9765053D01*
X7966312Y9764366D01*
X7966000Y9763553D01*
X7965750Y9762679D01*
X7965500Y9761741D01*
X7965125Y9759679D01*
X7965063Y9758555D01*
X7965000Y9757368D01*
Y9756680D01*
X7965063Y9756118D01*
X7965125Y9755493D01*
X7965188Y9754743D01*
X7965313Y9753931D01*
X7965438Y9753056D01*
X7965875Y9751057D01*
X7966125Y9750057D01*
X7966500Y9748995D01*
X7966937Y9747995D01*
X7967375Y9746933D01*
X7967937Y9745933D01*
X7968562Y9744996D01*
X7968624Y9744933D01*
X7968749Y9744808D01*
X7968937Y9744558D01*
X7969187Y9744183D01*
X7969562Y9743809D01*
X7969999Y9743309D01*
X7970499Y9742809D01*
X7971061Y9742309D01*
X7971749Y9741684D01*
X7972436Y9741122D01*
X7973248Y9740559D01*
X7974123Y9739997D01*
X7974998Y9739435D01*
X7975998Y9738935D01*
X7976997Y9738497D01*
X7978122Y9738060D01*
X7978184D01*
X7978372Y9737998D01*
X7978684Y9737873D01*
X7979122Y9737748D01*
X7979684Y9737623D01*
X7980309Y9737435D01*
X7981059Y9737248D01*
X7981871Y9737060D01*
X7982746Y9736873D01*
X7983746Y9736685D01*
X7985807Y9736373D01*
X7988057Y9736123D01*
X7990369Y9736061D01*
X7990431D01*
X7990744D01*
X7991181D01*
X7991743Y9736123D01*
X7992431D01*
X7993306Y9736186D01*
X7994180Y9736248D01*
X7995243Y9736373D01*
X7996305Y9736498D01*
X7997430Y9736623D01*
X7999866Y9737060D01*
X8002303Y9737623D01*
X8004678Y9738435D01*
X8004740D01*
X8004928Y9738560D01*
X8005240Y9738685D01*
X8005677Y9738872D01*
X8006177Y9739122D01*
X8006740Y9739435D01*
X8008052Y9740247D01*
X8009551Y9741309D01*
X8011051Y9742559D01*
X8012488Y9744058D01*
X8013113Y9744933D01*
X8013738Y9745808D01*
X8013800Y9745871D01*
X8013863Y9746058D01*
X8013988Y9746308D01*
X8014175Y9746683D01*
X8014425Y9747120D01*
X8014675Y9747683D01*
X8014925Y9748307D01*
X8015237Y9749057D01*
X8015487Y9749807D01*
X8015800Y9750682D01*
X8016237Y9752494D01*
X8016612Y9754556D01*
X8016675Y9755618D01*
X8016737Y9756680D01*
Y9757368D01*
X8016675Y9757867D01*
X8016612Y9758492D01*
X8016550Y9759180D01*
X8016425Y9759992D01*
X8016237Y9760867D01*
X8015737Y9762741D01*
X8015425Y9763741D01*
X8015050Y9764803D01*
X8014550Y9765803D01*
X8013988Y9766803D01*
X8013363Y9767802D01*
X8012676Y9768740D01*
X8012613Y9768802D01*
X8012488Y9768927D01*
X8012238Y9769240D01*
X8011926Y9769552D01*
X8011488Y9769927D01*
X8010926Y9770427D01*
X8010301Y9770927D01*
X8009614Y9771426D01*
X8008802Y9771989D01*
X8007864Y9772551D01*
X8006865Y9773114D01*
X8005802Y9773676D01*
X8004615Y9774176D01*
X8003303Y9774613D01*
X8001928Y9775051D01*
X8000491Y9775425D01*
X8002616Y9783923D01*
X8002741D01*
X8003053Y9783798D01*
D02*
G37*
G36*
X9042697Y6505471D02*
X9033886D01*
X9009143Y6569517D01*
X9018328D01*
X9034949Y6522966D01*
Y6522904D01*
X9035011Y6522716D01*
X9035136Y6522404D01*
X9035261Y6522029D01*
X9035449Y6521529D01*
X9035636Y6520904D01*
X9035886Y6520279D01*
X9036136Y6519530D01*
X9036636Y6517905D01*
X9037198Y6516155D01*
X9037760Y6514343D01*
X9038323Y6512469D01*
Y6512531D01*
X9038385Y6512719D01*
X9038448Y6512969D01*
X9038573Y6513344D01*
X9038760Y6513843D01*
X9038885Y6514406D01*
X9039073Y6515031D01*
X9039323Y6515780D01*
X9039822Y6517343D01*
X9040385Y6519092D01*
X9041072Y6521029D01*
X9041759Y6522966D01*
X9059130Y6569517D01*
X9067753D01*
X9042697Y6505471D01*
D02*
G37*
G36*
X9002207Y6561206D02*
X8976526D01*
X8973089Y6543898D01*
X8973152Y6543961D01*
X8973339Y6544086D01*
X8973652Y6544273D01*
X8974089Y6544523D01*
X8974589Y6544836D01*
X8975276Y6545210D01*
X8975964Y6545523D01*
X8976776Y6545960D01*
X8977651Y6546335D01*
X8978588Y6546648D01*
X8980650Y6547335D01*
X8981712Y6547585D01*
X8982837Y6547772D01*
X8984024Y6547897D01*
X8985211Y6547960D01*
X8985586D01*
X8986024Y6547897D01*
X8986649D01*
X8987336Y6547772D01*
X8988211Y6547647D01*
X8989148Y6547460D01*
X8990148Y6547210D01*
X8991210Y6546897D01*
X8992397Y6546523D01*
X8993584Y6546085D01*
X8994771Y6545523D01*
X8995959Y6544836D01*
X8997146Y6544086D01*
X8998271Y6543148D01*
X8999395Y6542149D01*
X8999458Y6542086D01*
X8999645Y6541899D01*
X8999958Y6541524D01*
X9000333Y6541086D01*
X9000770Y6540524D01*
X9001207Y6539837D01*
X9001770Y6539025D01*
X9002332Y6538087D01*
X9002832Y6537088D01*
X9003394Y6535963D01*
X9003832Y6534713D01*
X9004331Y6533401D01*
X9004644Y6531964D01*
X9004956Y6530464D01*
X9005144Y6528840D01*
X9005206Y6527153D01*
Y6527028D01*
Y6526778D01*
X9005144Y6526340D01*
Y6525715D01*
X9005081Y6524966D01*
X9004956Y6524091D01*
X9004769Y6523091D01*
X9004581Y6522029D01*
X9004269Y6520904D01*
X9003957Y6519654D01*
X9003519Y6518405D01*
X9003019Y6517155D01*
X9002457Y6515905D01*
X9001770Y6514593D01*
X9000957Y6513344D01*
X9000083Y6512156D01*
X9000020Y6512094D01*
X8999770Y6511844D01*
X8999458Y6511469D01*
X8998958Y6510969D01*
X8998333Y6510344D01*
X8997583Y6509720D01*
X8996708Y6509032D01*
X8995709Y6508282D01*
X8994522Y6507533D01*
X8993272Y6506845D01*
X8991897Y6506220D01*
X8990398Y6505596D01*
X8988773Y6505096D01*
X8987086Y6504721D01*
X8985211Y6504471D01*
X8983274Y6504408D01*
X8982899D01*
X8982462Y6504471D01*
X8981837D01*
X8981087Y6504533D01*
X8980213Y6504658D01*
X8979275Y6504846D01*
X8978213Y6505033D01*
X8977088Y6505283D01*
X8975964Y6505596D01*
X8974777Y6505970D01*
X8973527Y6506470D01*
X8972340Y6507033D01*
X8971152Y6507658D01*
X8970028Y6508407D01*
X8968966Y6509282D01*
X8968903Y6509345D01*
X8968716Y6509532D01*
X8968466Y6509782D01*
X8968091Y6510157D01*
X8967653Y6510657D01*
X8967216Y6511282D01*
X8966654Y6511969D01*
X8966154Y6512719D01*
X8965591Y6513594D01*
X8965029Y6514593D01*
X8964529Y6515655D01*
X8964029Y6516843D01*
X8963592Y6518092D01*
X8963217Y6519405D01*
X8962905Y6520779D01*
X8962717Y6522279D01*
X8970965Y6522966D01*
Y6522904D01*
X8971028Y6522716D01*
X8971090Y6522404D01*
X8971152Y6521966D01*
X8971277Y6521467D01*
X8971402Y6520904D01*
X8971840Y6519530D01*
X8972402Y6518092D01*
X8973089Y6516593D01*
X8974027Y6515093D01*
X8974589Y6514468D01*
X8975151Y6513843D01*
X8975214Y6513781D01*
X8975339Y6513718D01*
X8975526Y6513594D01*
X8975776Y6513406D01*
X8976089Y6513156D01*
X8976464Y6512906D01*
X8977463Y6512344D01*
X8978651Y6511781D01*
X8980025Y6511344D01*
X8981587Y6510969D01*
X8982400Y6510907D01*
X8983274Y6510844D01*
X8983837D01*
X8984212Y6510907D01*
X8984712Y6510969D01*
X8985274Y6511094D01*
X8985899Y6511219D01*
X8986586Y6511407D01*
X8988148Y6511906D01*
X8988898Y6512219D01*
X8989710Y6512656D01*
X8990523Y6513156D01*
X8991335Y6513718D01*
X8992147Y6514343D01*
X8992897Y6515093D01*
X8992959Y6515156D01*
X8993084Y6515281D01*
X8993272Y6515531D01*
X8993522Y6515905D01*
X8993834Y6516280D01*
X8994147Y6516843D01*
X8994522Y6517468D01*
X8994896Y6518155D01*
X8995209Y6518905D01*
X8995584Y6519779D01*
X8995896Y6520717D01*
X8996209Y6521716D01*
X8996459Y6522779D01*
X8996646Y6523966D01*
X8996771Y6525153D01*
X8996833Y6526465D01*
Y6526528D01*
Y6526778D01*
Y6527090D01*
X8996771Y6527590D01*
X8996708Y6528152D01*
X8996646Y6528777D01*
X8996521Y6529527D01*
X8996334Y6530339D01*
X8995896Y6532026D01*
X8995584Y6532901D01*
X8995209Y6533776D01*
X8994771Y6534651D01*
X8994272Y6535525D01*
X8993709Y6536338D01*
X8993022Y6537088D01*
X8992959Y6537150D01*
X8992834Y6537275D01*
X8992647Y6537462D01*
X8992335Y6537712D01*
X8991960Y6538025D01*
X8991522Y6538337D01*
X8990960Y6538712D01*
X8990398Y6539087D01*
X8989710Y6539399D01*
X8988960Y6539774D01*
X8988148Y6540087D01*
X8987273Y6540399D01*
X8986274Y6540649D01*
X8985274Y6540837D01*
X8984212Y6540962D01*
X8983087Y6541024D01*
X8982462D01*
X8982087Y6540962D01*
X8981712D01*
X8980775Y6540837D01*
X8979713Y6540587D01*
X8978588Y6540274D01*
X8977401Y6539837D01*
X8976214Y6539274D01*
X8976151D01*
X8976089Y6539212D01*
X8975714Y6538962D01*
X8975151Y6538587D01*
X8974527Y6538087D01*
X8973714Y6537400D01*
X8972965Y6536650D01*
X8972152Y6535775D01*
X8971465Y6534838D01*
X8964092Y6535775D01*
X8970278Y6568704D01*
X9002207D01*
Y6561206D01*
D02*
G37*
G36*
X8880426Y6569704D02*
X8881113D01*
X8881863Y6569642D01*
X8882738Y6569517D01*
X8883737Y6569329D01*
X8884862Y6569142D01*
X8885987Y6568829D01*
X8887174Y6568517D01*
X8888424Y6568080D01*
X8889611Y6567580D01*
X8890861Y6567017D01*
X8891985Y6566330D01*
X8893110Y6565518D01*
X8894172Y6564643D01*
X8894235Y6564580D01*
X8894422Y6564393D01*
X8894672Y6564143D01*
X8894984Y6563706D01*
X8895422Y6563206D01*
X8895859Y6562643D01*
X8896359Y6561956D01*
X8896859Y6561144D01*
X8897359Y6560269D01*
X8897859Y6559269D01*
X8898296Y6558270D01*
X8898734Y6557145D01*
X8899046Y6555958D01*
X8899296Y6554646D01*
X8899483Y6553333D01*
X8899546Y6551959D01*
Y6551896D01*
Y6551771D01*
Y6551584D01*
Y6551334D01*
X8899483Y6550959D01*
Y6550584D01*
X8899358Y6549584D01*
X8899171Y6548460D01*
X8898859Y6547147D01*
X8898484Y6545773D01*
X8897921Y6544398D01*
Y6544336D01*
X8897859Y6544211D01*
X8897734Y6544023D01*
X8897609Y6543773D01*
X8897421Y6543398D01*
X8897234Y6543023D01*
X8896672Y6542024D01*
X8895984Y6540899D01*
X8895047Y6539524D01*
X8893985Y6538087D01*
X8892673Y6536588D01*
X8892610Y6536525D01*
X8892485Y6536400D01*
X8892298Y6536150D01*
X8891985Y6535838D01*
X8891548Y6535400D01*
X8891110Y6534901D01*
X8890486Y6534338D01*
X8889798Y6533651D01*
X8889049Y6532901D01*
X8888111Y6532026D01*
X8887174Y6531089D01*
X8886049Y6530089D01*
X8884862Y6529027D01*
X8883550Y6527840D01*
X8882113Y6526653D01*
X8880613Y6525341D01*
X8880551Y6525278D01*
X8880301Y6525091D01*
X8879926Y6524778D01*
X8879488Y6524403D01*
X8878926Y6523903D01*
X8878301Y6523341D01*
X8876802Y6522091D01*
X8875302Y6520779D01*
X8873802Y6519467D01*
X8873115Y6518842D01*
X8872490Y6518217D01*
X8871928Y6517717D01*
X8871491Y6517280D01*
X8871428Y6517218D01*
X8871178Y6516905D01*
X8870803Y6516468D01*
X8870303Y6515968D01*
X8869803Y6515281D01*
X8869241Y6514593D01*
X8868679Y6513843D01*
X8868179Y6513031D01*
X8899608D01*
Y6505471D01*
X8857307D01*
Y6505533D01*
Y6505596D01*
Y6505970D01*
Y6506470D01*
X8857369Y6507220D01*
X8857494Y6508032D01*
X8857619Y6508970D01*
X8857869Y6509907D01*
X8858181Y6510907D01*
Y6510969D01*
X8858244Y6511094D01*
X8858369Y6511344D01*
X8858494Y6511657D01*
X8858681Y6512031D01*
X8858869Y6512469D01*
X8859431Y6513594D01*
X8860181Y6514906D01*
X8861056Y6516343D01*
X8862118Y6517842D01*
X8863368Y6519405D01*
X8863430Y6519467D01*
X8863555Y6519592D01*
X8863742Y6519842D01*
X8864055Y6520154D01*
X8864430Y6520529D01*
X8864867Y6521029D01*
X8865367Y6521591D01*
X8865992Y6522216D01*
X8866679Y6522841D01*
X8867429Y6523591D01*
X8868304Y6524403D01*
X8869179Y6525278D01*
X8870178Y6526153D01*
X8871241Y6527090D01*
X8872428Y6528090D01*
X8873615Y6529090D01*
X8873740Y6529215D01*
X8874052Y6529464D01*
X8874615Y6529902D01*
X8875302Y6530527D01*
X8876177Y6531214D01*
X8877114Y6532089D01*
X8878176Y6533026D01*
X8879301Y6534026D01*
X8881675Y6536213D01*
X8883987Y6538462D01*
X8885050Y6539587D01*
X8886049Y6540712D01*
X8886987Y6541711D01*
X8887736Y6542711D01*
X8887799Y6542774D01*
X8887924Y6542961D01*
X8888111Y6543211D01*
X8888299Y6543586D01*
X8888611Y6544023D01*
X8888924Y6544523D01*
X8889236Y6545148D01*
X8889611Y6545773D01*
X8890298Y6547210D01*
X8890923Y6548772D01*
X8891110Y6549647D01*
X8891298Y6550459D01*
X8891423Y6551334D01*
X8891485Y6552146D01*
Y6552209D01*
Y6552334D01*
Y6552584D01*
X8891423Y6552958D01*
X8891360Y6553333D01*
X8891298Y6553771D01*
X8891048Y6554895D01*
X8890673Y6556145D01*
X8890048Y6557457D01*
X8889673Y6558082D01*
X8889236Y6558769D01*
X8888736Y6559394D01*
X8888111Y6560019D01*
X8888049Y6560082D01*
X8887986Y6560144D01*
X8887736Y6560332D01*
X8887486Y6560519D01*
X8887174Y6560769D01*
X8886737Y6561019D01*
X8886299Y6561331D01*
X8885737Y6561644D01*
X8885175Y6561956D01*
X8884487Y6562269D01*
X8882988Y6562768D01*
X8881300Y6563143D01*
X8880363Y6563206D01*
X8879363Y6563268D01*
X8878801D01*
X8878426Y6563206D01*
X8877926Y6563143D01*
X8877364Y6563081D01*
X8876739Y6562956D01*
X8876114Y6562831D01*
X8874615Y6562456D01*
X8873115Y6561831D01*
X8872365Y6561456D01*
X8871615Y6560956D01*
X8870928Y6560457D01*
X8870241Y6559832D01*
X8870178Y6559769D01*
X8870116Y6559707D01*
X8869928Y6559457D01*
X8869741Y6559207D01*
X8869491Y6558894D01*
X8869179Y6558457D01*
X8868866Y6557957D01*
X8868554Y6557395D01*
X8868241Y6556770D01*
X8867929Y6556083D01*
X8867679Y6555270D01*
X8867367Y6554458D01*
X8867179Y6553583D01*
X8866992Y6552584D01*
X8866929Y6551584D01*
X8866867Y6550459D01*
X8858806Y6551271D01*
Y6551396D01*
X8858869Y6551646D01*
X8858931Y6552146D01*
X8858994Y6552771D01*
X8859181Y6553521D01*
X8859369Y6554396D01*
X8859619Y6555333D01*
X8859868Y6556395D01*
X8860243Y6557457D01*
X8860681Y6558582D01*
X8861181Y6559707D01*
X8861743Y6560894D01*
X8862430Y6562019D01*
X8863180Y6563081D01*
X8864055Y6564081D01*
X8864992Y6565018D01*
X8865055Y6565080D01*
X8865242Y6565205D01*
X8865555Y6565455D01*
X8865992Y6565768D01*
X8866554Y6566143D01*
X8867179Y6566517D01*
X8867991Y6566955D01*
X8868866Y6567392D01*
X8869866Y6567830D01*
X8870928Y6568267D01*
X8872115Y6568642D01*
X8873428Y6569017D01*
X8874802Y6569329D01*
X8876302Y6569579D01*
X8877864Y6569704D01*
X8879551Y6569767D01*
X8879988D01*
X8880426Y6569704D01*
D02*
G37*
G36*
X8852808Y6561956D02*
X8831626D01*
Y6505471D01*
X8823128D01*
Y6561956D01*
X8802008D01*
Y6569517D01*
X8852808D01*
Y6561956D01*
D02*
G37*
G36*
X9079625Y6570516D02*
X9079875Y6570142D01*
X9080312Y6569579D01*
X9080812Y6568767D01*
X9081499Y6567767D01*
X9082312Y6566580D01*
X9083186Y6565268D01*
X9084061Y6563768D01*
X9085061Y6562144D01*
X9086061Y6560457D01*
X9087060Y6558582D01*
X9088060Y6556707D01*
X9089060Y6554708D01*
X9089997Y6552709D01*
X9090809Y6550647D01*
X9091622Y6548585D01*
X9091684Y6548460D01*
X9091747Y6548147D01*
X9091934Y6547647D01*
X9092122Y6546960D01*
X9092434Y6546085D01*
X9092684Y6545023D01*
X9092996Y6543836D01*
X9093309Y6542524D01*
X9093621Y6541086D01*
X9093934Y6539524D01*
X9094246Y6537900D01*
X9094496Y6536150D01*
X9094683Y6534338D01*
X9094871Y6532526D01*
X9094933Y6530589D01*
X9094996Y6528652D01*
Y6528590D01*
Y6528527D01*
Y6528340D01*
Y6528152D01*
Y6527465D01*
X9094933Y6526653D01*
X9094871Y6525590D01*
X9094746Y6524341D01*
X9094621Y6522904D01*
X9094433Y6521404D01*
X9094183Y6519717D01*
X9093871Y6517905D01*
X9093496Y6516030D01*
X9093059Y6514031D01*
X9092559Y6512031D01*
X9091934Y6509969D01*
X9091247Y6507907D01*
X9090434Y6505846D01*
X9090372Y6505721D01*
X9090247Y6505346D01*
X9089997Y6504783D01*
X9089622Y6504033D01*
X9089185Y6503034D01*
X9088685Y6501972D01*
X9088060Y6500722D01*
X9087373Y6499347D01*
X9086623Y6497910D01*
X9085811Y6496348D01*
X9084873Y6494786D01*
X9083936Y6493161D01*
X9081812Y6489850D01*
X9080687Y6488225D01*
X9079500Y6486663D01*
X9073876D01*
X9073939Y6486725D01*
X9074001Y6486913D01*
X9074189Y6487225D01*
X9074439Y6487600D01*
X9074751Y6488100D01*
X9075063Y6488725D01*
X9075501Y6489475D01*
X9075938Y6490287D01*
X9076376Y6491162D01*
X9076938Y6492162D01*
X9077438Y6493224D01*
X9078000Y6494411D01*
X9078562Y6495661D01*
X9079187Y6496973D01*
X9079812Y6498347D01*
X9080437Y6499785D01*
X9081624Y6502846D01*
X9082811Y6506095D01*
X9083936Y6509595D01*
X9084873Y6513219D01*
X9085748Y6516968D01*
X9086373Y6520779D01*
X9086623Y6522779D01*
X9086810Y6524716D01*
X9086873Y6526653D01*
X9086935Y6528652D01*
Y6528777D01*
Y6529027D01*
Y6529464D01*
Y6530089D01*
X9086873Y6530777D01*
X9086810Y6531651D01*
X9086748Y6532651D01*
X9086685Y6533776D01*
X9086623Y6534963D01*
X9086435Y6536213D01*
X9086311Y6537587D01*
X9086123Y6538962D01*
X9085623Y6541899D01*
X9084998Y6544898D01*
Y6544960D01*
X9084936Y6545210D01*
X9084873Y6545523D01*
X9084748Y6546023D01*
X9084561Y6546585D01*
X9084373Y6547272D01*
X9084186Y6548085D01*
X9083936Y6548959D01*
X9083686Y6549897D01*
X9083374Y6550834D01*
X9082624Y6553021D01*
X9081812Y6555270D01*
X9080874Y6557520D01*
Y6557582D01*
X9080812Y6557707D01*
X9080687Y6557957D01*
X9080499Y6558270D01*
X9080312Y6558707D01*
X9080062Y6559269D01*
X9079750Y6559894D01*
X9079375Y6560644D01*
X9078937Y6561519D01*
X9078438Y6562456D01*
X9077875Y6563518D01*
X9077188Y6564705D01*
X9076501Y6566018D01*
X9075688Y6567455D01*
X9074813Y6568954D01*
X9073876Y6570641D01*
X9079500D01*
X9079625Y6570516D01*
D02*
G37*
G36*
X8955719D02*
X8955531Y6570267D01*
X8955282Y6569767D01*
X8954907Y6569142D01*
X8954469Y6568392D01*
X8954032Y6567580D01*
X8953470Y6566580D01*
X8952907Y6565580D01*
X8951720Y6563456D01*
X8950595Y6561331D01*
X8950033Y6560269D01*
X8949596Y6559332D01*
X8949158Y6558457D01*
X8948783Y6557645D01*
Y6557582D01*
X8948658Y6557395D01*
X8948533Y6557020D01*
X8948346Y6556583D01*
X8948096Y6556020D01*
X8947846Y6555395D01*
X8947596Y6554646D01*
X8947284Y6553771D01*
X8946909Y6552896D01*
X8946596Y6551896D01*
X8945909Y6549772D01*
X8945222Y6547460D01*
X8944597Y6545023D01*
Y6544960D01*
X8944534Y6544648D01*
X8944409Y6544211D01*
X8944284Y6543648D01*
X8944159Y6542899D01*
X8944034Y6542024D01*
X8943847Y6541024D01*
X8943660Y6539962D01*
X8943472Y6538712D01*
X8943347Y6537462D01*
X8943160Y6536088D01*
X8943035Y6534713D01*
X8942785Y6531714D01*
X8942722Y6528652D01*
Y6528590D01*
Y6528402D01*
Y6528090D01*
Y6527715D01*
X8942785Y6527215D01*
Y6526590D01*
X8942847Y6525840D01*
X8942910Y6525028D01*
X8943035Y6524153D01*
X8943097Y6523154D01*
X8943285Y6522029D01*
X8943410Y6520904D01*
X8943597Y6519654D01*
X8943847Y6518342D01*
X8944097Y6516968D01*
X8944347Y6515531D01*
X8945034Y6512406D01*
X8945909Y6509157D01*
X8946971Y6505658D01*
X8948221Y6502034D01*
X8949720Y6498285D01*
X8950595Y6496410D01*
X8951470Y6494473D01*
X8952470Y6492536D01*
X8953470Y6490599D01*
X8954594Y6488600D01*
X8955781Y6486663D01*
X8950158D01*
X8950095Y6486788D01*
X8949845Y6487038D01*
X8949533Y6487475D01*
X8949096Y6488100D01*
X8948471Y6488912D01*
X8947846Y6489850D01*
X8947096Y6490912D01*
X8946346Y6492162D01*
X8945472Y6493474D01*
X8944597Y6494973D01*
X8943660Y6496535D01*
X8942722Y6498222D01*
X8941785Y6500034D01*
X8940848Y6501909D01*
X8939973Y6503846D01*
X8939098Y6505846D01*
Y6505908D01*
X8939036Y6505970D01*
X8938911Y6506345D01*
X8938661Y6506970D01*
X8938411Y6507720D01*
X8938098Y6508782D01*
X8937724Y6509969D01*
X8937286Y6511282D01*
X8936911Y6512844D01*
X8936474Y6514468D01*
X8936036Y6516218D01*
X8935662Y6518155D01*
X8935349Y6520092D01*
X8935099Y6522154D01*
X8934849Y6524278D01*
X8934724Y6526465D01*
X8934662Y6528652D01*
Y6528777D01*
Y6529152D01*
Y6529652D01*
X8934724Y6530464D01*
X8934787Y6531339D01*
X8934849Y6532464D01*
X8934912Y6533713D01*
X8935099Y6535088D01*
X8935224Y6536525D01*
X8935474Y6538087D01*
X8935724Y6539774D01*
X8936036Y6541461D01*
X8936411Y6543211D01*
X8936911Y6545023D01*
X8937411Y6546773D01*
X8937973Y6548585D01*
Y6548647D01*
X8938036Y6548710D01*
X8938161Y6549084D01*
X8938411Y6549709D01*
X8938723Y6550459D01*
X8939161Y6551459D01*
X8939661Y6552646D01*
X8940285Y6554021D01*
X8940973Y6555520D01*
X8941785Y6557082D01*
X8942660Y6558832D01*
X8943660Y6560644D01*
X8944784Y6562581D01*
X8945971Y6564518D01*
X8947284Y6566517D01*
X8948658Y6568579D01*
X8950158Y6570641D01*
X8955781D01*
X8955719Y6570516D01*
D02*
G37*
G36*
X6962799Y6540540D02*
X6963673Y6540477D01*
X6964673Y6540415D01*
X6965798Y6540290D01*
X6967048Y6540102D01*
X6968360Y6539915D01*
X6969734Y6539665D01*
X6971234Y6539353D01*
X6972671Y6538978D01*
X6974171Y6538540D01*
X6975670Y6538041D01*
X6977107Y6537478D01*
X6978545Y6536791D01*
X6978607Y6536728D01*
X6978857Y6536603D01*
X6979294Y6536416D01*
X6979794Y6536104D01*
X6980419Y6535666D01*
X6981106Y6535229D01*
X6981919Y6534666D01*
X6982794Y6533979D01*
X6983668Y6533292D01*
X6984606Y6532479D01*
X6985543Y6531542D01*
X6986480Y6530605D01*
X6987417Y6529543D01*
X6988292Y6528418D01*
X6989167Y6527231D01*
X6989917Y6525919D01*
X6989979Y6525856D01*
X6990104Y6525606D01*
X6990292Y6525231D01*
X6990542Y6524669D01*
X6990791Y6524044D01*
X6991166Y6523232D01*
X6991479Y6522357D01*
X6991854Y6521295D01*
X6992229Y6520233D01*
X6992541Y6519045D01*
X6992916Y6517733D01*
X6993166Y6516359D01*
X6993416Y6514921D01*
X6993603Y6513484D01*
X6993728Y6511922D01*
X6993791Y6510360D01*
Y6509423D01*
X6993728Y6508736D01*
X6993666Y6507923D01*
X6993541Y6506986D01*
X6993353Y6505924D01*
X6993166Y6504737D01*
X6992916Y6503549D01*
X6992603Y6502237D01*
X6992166Y6500863D01*
X6991729Y6499550D01*
X6991166Y6498176D01*
X6990479Y6496801D01*
X6989729Y6495489D01*
X6988854Y6494239D01*
X6988792Y6494177D01*
X6988605Y6493927D01*
X6988355Y6493614D01*
X6987980Y6493177D01*
X6987480Y6492615D01*
X6986855Y6492052D01*
X6986105Y6491365D01*
X6985293Y6490615D01*
X6984356Y6489865D01*
X6983356Y6489116D01*
X6982231Y6488366D01*
X6980981Y6487616D01*
X6979669Y6486866D01*
X6978232Y6486179D01*
X6976733Y6485616D01*
X6975108Y6485054D01*
X6973171Y6493427D01*
X6973233D01*
X6973483Y6493552D01*
X6973858Y6493677D01*
X6974296Y6493864D01*
X6974858Y6494052D01*
X6975545Y6494364D01*
X6976233Y6494677D01*
X6977045Y6495052D01*
X6978670Y6495989D01*
X6980357Y6497113D01*
X6981919Y6498426D01*
X6982669Y6499175D01*
X6983293Y6499925D01*
X6983356Y6499988D01*
X6983418Y6500113D01*
X6983606Y6500363D01*
X6983793Y6500675D01*
X6984043Y6501112D01*
X6984293Y6501612D01*
X6984606Y6502175D01*
X6984918Y6502862D01*
X6985230Y6503549D01*
X6985543Y6504362D01*
X6985793Y6505236D01*
X6986043Y6506174D01*
X6986418Y6508236D01*
X6986480Y6509360D01*
X6986543Y6510548D01*
Y6511235D01*
X6986480Y6511797D01*
X6986418Y6512422D01*
X6986355Y6513172D01*
X6986230Y6513984D01*
X6986105Y6514859D01*
X6985668Y6516858D01*
X6985418Y6517858D01*
X6985043Y6518920D01*
X6984606Y6519920D01*
X6984168Y6520982D01*
X6983606Y6521982D01*
X6982981Y6522919D01*
X6982918Y6522982D01*
X6982794Y6523107D01*
X6982606Y6523357D01*
X6982356Y6523732D01*
X6981981Y6524107D01*
X6981544Y6524606D01*
X6981044Y6525106D01*
X6980482Y6525606D01*
X6979794Y6526231D01*
X6979107Y6526793D01*
X6978295Y6527356D01*
X6977420Y6527918D01*
X6976545Y6528480D01*
X6975545Y6528980D01*
X6974546Y6529418D01*
X6973421Y6529855D01*
X6973358D01*
X6973171Y6529918D01*
X6972859Y6530043D01*
X6972421Y6530168D01*
X6971859Y6530293D01*
X6971234Y6530480D01*
X6970484Y6530667D01*
X6969672Y6530855D01*
X6968797Y6531042D01*
X6967797Y6531230D01*
X6965735Y6531542D01*
X6963486Y6531792D01*
X6961174Y6531855D01*
X6961112D01*
X6960799D01*
X6960362D01*
X6959799Y6531792D01*
X6959112D01*
X6958237Y6531730D01*
X6957363Y6531667D01*
X6956300Y6531542D01*
X6955238Y6531417D01*
X6954113Y6531292D01*
X6951676Y6530855D01*
X6949240Y6530293D01*
X6946865Y6529480D01*
X6946803D01*
X6946615Y6529355D01*
X6946303Y6529230D01*
X6945865Y6529043D01*
X6945366Y6528793D01*
X6944803Y6528480D01*
X6943491Y6527668D01*
X6941991Y6526606D01*
X6940492Y6525356D01*
X6939055Y6523857D01*
X6938430Y6522982D01*
X6937805Y6522107D01*
X6937743Y6522045D01*
X6937680Y6521857D01*
X6937555Y6521607D01*
X6937368Y6521232D01*
X6937118Y6520795D01*
X6936868Y6520233D01*
X6936618Y6519608D01*
X6936305Y6518858D01*
X6936055Y6518108D01*
X6935743Y6517233D01*
X6935306Y6515421D01*
X6934931Y6513359D01*
X6934868Y6512297D01*
X6934806Y6511235D01*
Y6510548D01*
X6934868Y6510048D01*
X6934931Y6509423D01*
X6934993Y6508736D01*
X6935118Y6507923D01*
X6935306Y6507048D01*
X6935806Y6505174D01*
X6936118Y6504174D01*
X6936493Y6503112D01*
X6936993Y6502112D01*
X6937555Y6501112D01*
X6938180Y6500113D01*
X6938867Y6499175D01*
X6938930Y6499113D01*
X6939055Y6498988D01*
X6939305Y6498676D01*
X6939617Y6498363D01*
X6940054Y6497988D01*
X6940617Y6497488D01*
X6941242Y6496989D01*
X6941929Y6496489D01*
X6942741Y6495926D01*
X6943679Y6495364D01*
X6944678Y6494802D01*
X6945740Y6494239D01*
X6946928Y6493739D01*
X6948240Y6493302D01*
X6949614Y6492865D01*
X6951052Y6492490D01*
X6948927Y6483992D01*
X6948802D01*
X6948490Y6484117D01*
X6947927Y6484304D01*
X6947240Y6484492D01*
X6946365Y6484804D01*
X6945366Y6485179D01*
X6944241Y6485679D01*
X6943054Y6486179D01*
X6941742Y6486804D01*
X6940429Y6487491D01*
X6939117Y6488303D01*
X6937805Y6489178D01*
X6936493Y6490178D01*
X6935243Y6491178D01*
X6934056Y6492365D01*
X6932994Y6493614D01*
X6932931Y6493677D01*
X6932744Y6493927D01*
X6932494Y6494302D01*
X6932119Y6494864D01*
X6931744Y6495551D01*
X6931307Y6496364D01*
X6930807Y6497301D01*
X6930307Y6498301D01*
X6929745Y6499488D01*
X6929307Y6500800D01*
X6928807Y6502175D01*
X6928432Y6503674D01*
X6928058Y6505299D01*
X6927808Y6506923D01*
X6927620Y6508736D01*
X6927558Y6510548D01*
Y6511547D01*
X6927620Y6512297D01*
X6927683Y6513172D01*
X6927808Y6514172D01*
X6927933Y6515296D01*
X6928058Y6516546D01*
X6928307Y6517858D01*
X6928557Y6519233D01*
X6928932Y6520607D01*
X6929307Y6522045D01*
X6929807Y6523419D01*
X6930369Y6524856D01*
X6930994Y6526169D01*
X6931744Y6527418D01*
X6931807Y6527481D01*
X6931932Y6527668D01*
X6932181Y6528043D01*
X6932556Y6528480D01*
X6932931Y6529043D01*
X6933494Y6529605D01*
X6934118Y6530293D01*
X6934868Y6531042D01*
X6935681Y6531855D01*
X6936555Y6532667D01*
X6937555Y6533479D01*
X6938680Y6534291D01*
X6939867Y6535041D01*
X6941117Y6535854D01*
X6942491Y6536541D01*
X6943928Y6537228D01*
X6944053Y6537291D01*
X6944303Y6537353D01*
X6944741Y6537541D01*
X6945303Y6537728D01*
X6946053Y6537978D01*
X6946928Y6538290D01*
X6947927Y6538603D01*
X6949052Y6538915D01*
X6950302Y6539228D01*
X6951614Y6539540D01*
X6953051Y6539790D01*
X6954551Y6540102D01*
X6956113Y6540290D01*
X6957737Y6540477D01*
X6959424Y6540540D01*
X6961112Y6540602D01*
X6961237D01*
X6961549D01*
X6962111D01*
X6962799Y6540540D01*
D02*
G37*
G36*
X6946678Y6468808D02*
X6946615D01*
X6946365Y6468746D01*
X6946053Y6468683D01*
X6945553Y6468558D01*
X6945053Y6468433D01*
X6944366Y6468246D01*
X6943679Y6467996D01*
X6942929Y6467746D01*
X6941367Y6467121D01*
X6939742Y6466309D01*
X6938242Y6465372D01*
X6937618Y6464809D01*
X6936993Y6464247D01*
Y6464184D01*
X6936868Y6464122D01*
X6936743Y6463934D01*
X6936555Y6463685D01*
X6936305Y6463372D01*
X6936055Y6462997D01*
X6935556Y6462060D01*
X6934993Y6460873D01*
X6934493Y6459498D01*
X6934181Y6457999D01*
X6934118Y6457186D01*
X6934056Y6456311D01*
Y6455749D01*
X6934118Y6455374D01*
X6934181Y6454874D01*
X6934243Y6454374D01*
X6934368Y6453750D01*
X6934556Y6453062D01*
X6934993Y6451563D01*
X6935306Y6450813D01*
X6935681Y6450001D01*
X6936118Y6449188D01*
X6936618Y6448438D01*
X6937180Y6447689D01*
X6937868Y6446939D01*
X6937930Y6446876D01*
X6938055Y6446751D01*
X6938242Y6446564D01*
X6938555Y6446314D01*
X6938930Y6446064D01*
X6939367Y6445752D01*
X6939867Y6445377D01*
X6940492Y6445002D01*
X6941117Y6444689D01*
X6941866Y6444315D01*
X6943491Y6443690D01*
X6944366Y6443502D01*
X6945303Y6443315D01*
X6946303Y6443190D01*
X6947365Y6443127D01*
X6947428D01*
X6947615D01*
X6947865D01*
X6948302Y6443190D01*
X6948740Y6443252D01*
X6949302Y6443315D01*
X6949864Y6443440D01*
X6950552Y6443565D01*
X6951926Y6444002D01*
X6952676Y6444252D01*
X6953426Y6444627D01*
X6954176Y6445064D01*
X6954926Y6445502D01*
X6955613Y6446064D01*
X6956300Y6446689D01*
X6956363Y6446751D01*
X6956425Y6446876D01*
X6956613Y6447064D01*
X6956863Y6447314D01*
X6957113Y6447689D01*
X6957425Y6448126D01*
X6957737Y6448563D01*
X6958050Y6449126D01*
X6958362Y6449751D01*
X6958675Y6450438D01*
X6959237Y6452000D01*
X6959674Y6453750D01*
X6959737Y6454687D01*
X6959799Y6455687D01*
Y6456062D01*
X6959737Y6456561D01*
X6959674Y6457186D01*
X6959612Y6457999D01*
X6959487Y6458936D01*
X6959237Y6459998D01*
X6958987Y6461185D01*
X6965860Y6460310D01*
Y6460185D01*
X6965798Y6459873D01*
X6965735Y6459436D01*
Y6458561D01*
X6965798Y6458186D01*
Y6457749D01*
X6965860Y6457249D01*
X6965985Y6456686D01*
X6966048Y6456062D01*
X6966360Y6454624D01*
X6966860Y6453125D01*
X6967485Y6451563D01*
X6968360Y6450001D01*
X6968422Y6449938D01*
X6968485Y6449813D01*
X6968610Y6449626D01*
X6968860Y6449376D01*
X6969110Y6449063D01*
X6969484Y6448688D01*
X6969859Y6448376D01*
X6970359Y6447939D01*
X6970859Y6447564D01*
X6971484Y6447251D01*
X6972171Y6446876D01*
X6972859Y6446564D01*
X6973671Y6446314D01*
X6974546Y6446127D01*
X6975420Y6446002D01*
X6976420Y6445939D01*
X6976483D01*
X6976608D01*
X6976858D01*
X6977170Y6446002D01*
X6977545D01*
X6977982Y6446064D01*
X6978982Y6446314D01*
X6980107Y6446626D01*
X6981294Y6447189D01*
X6982481Y6447876D01*
X6983043Y6448376D01*
X6983606Y6448876D01*
X6983668Y6448938D01*
X6983731Y6449001D01*
X6983856Y6449188D01*
X6984043Y6449376D01*
X6984543Y6450063D01*
X6985043Y6450938D01*
X6985543Y6452000D01*
X6986043Y6453312D01*
X6986355Y6454812D01*
X6986480Y6455562D01*
Y6456874D01*
X6986418Y6457186D01*
Y6457624D01*
X6986355Y6458061D01*
X6986105Y6459123D01*
X6985793Y6460373D01*
X6985230Y6461623D01*
X6984543Y6462935D01*
X6984043Y6463560D01*
X6983543Y6464122D01*
X6983481Y6464184D01*
X6983418Y6464247D01*
X6983231Y6464434D01*
X6982981Y6464622D01*
X6982731Y6464872D01*
X6982356Y6465122D01*
X6981919Y6465434D01*
X6981419Y6465747D01*
X6980794Y6466059D01*
X6980169Y6466434D01*
X6979482Y6466746D01*
X6978670Y6467059D01*
X6977857Y6467309D01*
X6976920Y6467621D01*
X6975983Y6467809D01*
X6974921Y6467996D01*
X6976295Y6475869D01*
X6976358D01*
X6976670Y6475806D01*
X6977045Y6475681D01*
X6977607Y6475557D01*
X6978232Y6475369D01*
X6979044Y6475119D01*
X6979857Y6474869D01*
X6980794Y6474494D01*
X6981731Y6474119D01*
X6982731Y6473620D01*
X6983793Y6473120D01*
X6984793Y6472495D01*
X6985793Y6471870D01*
X6986792Y6471120D01*
X6987667Y6470245D01*
X6988542Y6469371D01*
X6988605Y6469308D01*
X6988729Y6469121D01*
X6988917Y6468871D01*
X6989229Y6468433D01*
X6989542Y6467933D01*
X6989917Y6467371D01*
X6990354Y6466621D01*
X6990729Y6465871D01*
X6991166Y6464997D01*
X6991541Y6463997D01*
X6991916Y6462935D01*
X6992229Y6461810D01*
X6992541Y6460623D01*
X6992728Y6459373D01*
X6992853Y6457999D01*
X6992916Y6456624D01*
Y6456124D01*
X6992853Y6455749D01*
Y6455249D01*
X6992791Y6454749D01*
X6992728Y6454125D01*
X6992666Y6453437D01*
X6992354Y6451938D01*
X6991979Y6450375D01*
X6991416Y6448688D01*
X6990666Y6447001D01*
Y6446939D01*
X6990542Y6446814D01*
X6990417Y6446564D01*
X6990229Y6446252D01*
X6990042Y6445877D01*
X6989729Y6445502D01*
X6989042Y6444502D01*
X6988167Y6443377D01*
X6987105Y6442253D01*
X6985855Y6441190D01*
X6984481Y6440253D01*
X6984418D01*
X6984293Y6440128D01*
X6984106Y6440003D01*
X6983793Y6439878D01*
X6983481Y6439691D01*
X6983043Y6439503D01*
X6981981Y6439066D01*
X6980794Y6438628D01*
X6979357Y6438254D01*
X6977857Y6438004D01*
X6976233Y6437879D01*
X6976170D01*
X6976045D01*
X6975858D01*
X6975545Y6437941D01*
X6975170D01*
X6974733Y6438004D01*
X6973733Y6438129D01*
X6972546Y6438441D01*
X6971296Y6438816D01*
X6969984Y6439378D01*
X6968672Y6440128D01*
X6968610D01*
X6968547Y6440253D01*
X6968360Y6440378D01*
X6968110Y6440565D01*
X6967485Y6441065D01*
X6966735Y6441815D01*
X6965860Y6442752D01*
X6964986Y6443877D01*
X6964111Y6445189D01*
X6963298Y6446751D01*
Y6446689D01*
X6963236Y6446501D01*
X6963174Y6446189D01*
X6963049Y6445814D01*
X6962861Y6445314D01*
X6962674Y6444814D01*
X6962111Y6443502D01*
X6961424Y6442128D01*
X6960424Y6440628D01*
X6959300Y6439191D01*
X6958612Y6438566D01*
X6957862Y6437941D01*
X6957800Y6437879D01*
X6957675Y6437816D01*
X6957425Y6437629D01*
X6957113Y6437441D01*
X6956738Y6437191D01*
X6956238Y6436941D01*
X6955675Y6436629D01*
X6955051Y6436317D01*
X6954301Y6436067D01*
X6953551Y6435754D01*
X6952676Y6435504D01*
X6951801Y6435254D01*
X6949802Y6434879D01*
X6948677Y6434817D01*
X6947553Y6434754D01*
X6947490D01*
X6947178D01*
X6946740Y6434817D01*
X6946178D01*
X6945428Y6434942D01*
X6944616Y6435067D01*
X6943679Y6435254D01*
X6942616Y6435504D01*
X6941554Y6435817D01*
X6940429Y6436254D01*
X6939242Y6436754D01*
X6938055Y6437316D01*
X6936868Y6438066D01*
X6935618Y6438878D01*
X6934493Y6439816D01*
X6933369Y6440878D01*
X6933306Y6440940D01*
X6933119Y6441128D01*
X6932806Y6441503D01*
X6932494Y6442003D01*
X6931994Y6442565D01*
X6931557Y6443315D01*
X6930994Y6444127D01*
X6930494Y6445127D01*
X6929932Y6446189D01*
X6929370Y6447376D01*
X6928932Y6448626D01*
X6928495Y6450001D01*
X6928120Y6451438D01*
X6927808Y6453000D01*
X6927620Y6454624D01*
X6927558Y6456374D01*
Y6456749D01*
X6927620Y6457186D01*
Y6457749D01*
X6927683Y6458498D01*
X6927808Y6459311D01*
X6927995Y6460248D01*
X6928182Y6461310D01*
X6928432Y6462372D01*
X6928807Y6463497D01*
X6929182Y6464684D01*
X6929682Y6465809D01*
X6930244Y6466996D01*
X6930932Y6468183D01*
X6931682Y6469308D01*
X6932556Y6470370D01*
X6932619Y6470433D01*
X6932806Y6470620D01*
X6933056Y6470870D01*
X6933494Y6471245D01*
X6933993Y6471683D01*
X6934556Y6472182D01*
X6935243Y6472682D01*
X6936055Y6473245D01*
X6936930Y6473807D01*
X6937930Y6474369D01*
X6938992Y6474869D01*
X6940179Y6475369D01*
X6941429Y6475806D01*
X6942741Y6476181D01*
X6944116Y6476494D01*
X6945616Y6476681D01*
X6946678Y6468808D01*
D02*
G37*
%LPC*%
G36*
X3296910Y8971954D02*
X3282102D01*
Y8923029D01*
X3296785D01*
X3297285Y8923092D01*
X3297910D01*
X3298597Y8923154D01*
X3299347D01*
X3300972Y8923279D01*
X3302596Y8923529D01*
X3304221Y8923779D01*
X3304971Y8923966D01*
X3305658Y8924154D01*
X3305721D01*
X3305846Y8924216D01*
X3306033Y8924279D01*
X3306283Y8924404D01*
X3306908Y8924654D01*
X3307720Y8925029D01*
X3308657Y8925529D01*
X3309595Y8926091D01*
X3310532Y8926778D01*
X3311407Y8927528D01*
X3311469Y8927590D01*
X3311532Y8927653D01*
X3311719Y8927840D01*
X3311907Y8928090D01*
X3312156Y8928403D01*
X3312469Y8928715D01*
X3313156Y8929652D01*
X3313906Y8930840D01*
X3314718Y8932214D01*
X3315468Y8933776D01*
X3316155Y8935588D01*
Y8935651D01*
X3316218Y8935838D01*
X3316343Y8936088D01*
X3316405Y8936526D01*
X3316530Y8937026D01*
X3316718Y8937588D01*
X3316843Y8938275D01*
X3317030Y8939088D01*
X3317155Y8939900D01*
X3317280Y8940837D01*
X3317468Y8941899D01*
X3317593Y8942962D01*
X3317718Y8944149D01*
X3317780Y8945336D01*
X3317842Y8947960D01*
Y8948085D01*
Y8948398D01*
Y8948898D01*
X3317780Y8949585D01*
X3317718Y8950460D01*
X3317655Y8951397D01*
X3317593Y8952459D01*
X3317405Y8953646D01*
X3317280Y8954833D01*
X3317030Y8956083D01*
X3316468Y8958645D01*
X3316093Y8959895D01*
X3315656Y8961144D01*
X3315093Y8962269D01*
X3314531Y8963331D01*
X3314468Y8963394D01*
X3314406Y8963581D01*
X3314218Y8963831D01*
X3313968Y8964206D01*
X3313594Y8964643D01*
X3313219Y8965143D01*
X3312281Y8966268D01*
X3311094Y8967518D01*
X3309720Y8968705D01*
X3308157Y8969767D01*
X3307345Y8970267D01*
X3306470Y8970642D01*
X3306408D01*
X3306283Y8970704D01*
X3306095Y8970767D01*
X3305846Y8970829D01*
X3305471Y8970954D01*
X3305033Y8971079D01*
X3304471Y8971204D01*
X3303846Y8971329D01*
X3303096Y8971392D01*
X3302346Y8971517D01*
X3301409Y8971642D01*
X3300409Y8971767D01*
X3299347Y8971829D01*
X3298160Y8971892D01*
X3296910Y8971954D01*
D02*
G37*
G36*
X3057034Y8966893D02*
X3036914Y8937963D01*
X3057034D01*
Y8966893D01*
D02*
G37*
G36*
X10656165Y3158502D02*
X10641356D01*
Y3109577D01*
X10656040D01*
X10656540Y3109640D01*
X10657165D01*
X10657852Y3109702D01*
X10658602D01*
X10660226Y3109827D01*
X10661851Y3110077D01*
X10663475Y3110327D01*
X10664225Y3110514D01*
X10664913Y3110702D01*
X10664975D01*
X10665100Y3110764D01*
X10665288Y3110827D01*
X10665537Y3110952D01*
X10666162Y3111202D01*
X10666975Y3111577D01*
X10667912Y3112077D01*
X10668849Y3112639D01*
X10669786Y3113326D01*
X10670661Y3114076D01*
X10670724Y3114139D01*
X10670786Y3114201D01*
X10670974Y3114388D01*
X10671161Y3114638D01*
X10671411Y3114951D01*
X10671723Y3115263D01*
X10672411Y3116201D01*
X10673161Y3117388D01*
X10673973Y3118762D01*
X10674723Y3120324D01*
X10675410Y3122137D01*
Y3122199D01*
X10675472Y3122386D01*
X10675597Y3122636D01*
X10675660Y3123074D01*
X10675785Y3123574D01*
X10675972Y3124136D01*
X10676097Y3124823D01*
X10676285Y3125636D01*
X10676410Y3126448D01*
X10676535Y3127385D01*
X10676722Y3128447D01*
X10676847Y3129510D01*
X10676972Y3130697D01*
X10677035Y3131884D01*
X10677097Y3134508D01*
Y3134633D01*
Y3134946D01*
Y3135446D01*
X10677035Y3136133D01*
X10676972Y3137008D01*
X10676910Y3137945D01*
X10676847Y3139007D01*
X10676660Y3140194D01*
X10676535Y3141382D01*
X10676285Y3142631D01*
X10675722Y3145193D01*
X10675347Y3146443D01*
X10674910Y3147692D01*
X10674348Y3148817D01*
X10673785Y3149879D01*
X10673723Y3149942D01*
X10673660Y3150129D01*
X10673473Y3150379D01*
X10673223Y3150754D01*
X10672848Y3151192D01*
X10672473Y3151691D01*
X10671536Y3152816D01*
X10670349Y3154066D01*
X10668974Y3155253D01*
X10667412Y3156315D01*
X10666600Y3156815D01*
X10665725Y3157190D01*
X10665662D01*
X10665537Y3157253D01*
X10665350Y3157315D01*
X10665100Y3157377D01*
X10664725Y3157502D01*
X10664288Y3157627D01*
X10663725Y3157752D01*
X10663101Y3157877D01*
X10662351Y3157940D01*
X10661601Y3158065D01*
X10660664Y3158190D01*
X10659664Y3158315D01*
X10658602Y3158377D01*
X10657415Y3158440D01*
X10656165Y3158502D01*
D02*
G37*
G36*
X8889331Y9867646D02*
X8888831D01*
X8888456Y9867584D01*
X8888019Y9867521D01*
X8887457Y9867459D01*
X8886894Y9867334D01*
X8886207Y9867146D01*
X8884832Y9866709D01*
X8884083Y9866396D01*
X8883270Y9866021D01*
X8882520Y9865584D01*
X8881771Y9865022D01*
X8881021Y9864459D01*
X8880334Y9863772D01*
X8880271Y9863710D01*
X8880146Y9863585D01*
X8880021Y9863397D01*
X8879771Y9863085D01*
X8879459Y9862710D01*
X8879146Y9862272D01*
X8878834Y9861710D01*
X8878521Y9861085D01*
X8878147Y9860398D01*
X8877834Y9859648D01*
X8877522Y9858836D01*
X8877209Y9857961D01*
X8876959Y9857024D01*
X8876834Y9855961D01*
X8876709Y9854899D01*
X8876647Y9853775D01*
Y9853712D01*
Y9853587D01*
Y9853400D01*
Y9853087D01*
X8876709Y9852712D01*
Y9852275D01*
X8876834Y9851275D01*
X8877084Y9850088D01*
X8877334Y9848776D01*
X8877772Y9847401D01*
X8878334Y9845964D01*
Y9845902D01*
X8878397Y9845777D01*
X8878521Y9845589D01*
X8878646Y9845339D01*
X8879021Y9844714D01*
X8879584Y9843902D01*
X8880271Y9842965D01*
X8881083Y9842028D01*
X8882083Y9841153D01*
X8883145Y9840340D01*
X8883208D01*
X8883270Y9840278D01*
X8883458Y9840153D01*
X8883708Y9840028D01*
X8884270Y9839716D01*
X8885082Y9839403D01*
X8886082Y9839028D01*
X8887207Y9838716D01*
X8888394Y9838466D01*
X8889644Y9838403D01*
X8890144D01*
X8890456Y9838466D01*
X8890893Y9838528D01*
X8891393Y9838591D01*
X8892580Y9838903D01*
X8893955Y9839403D01*
X8894642Y9839716D01*
X8895392Y9840091D01*
X8896079Y9840528D01*
X8896829Y9841090D01*
X8897517Y9841715D01*
X8898204Y9842402D01*
X8898266Y9842465D01*
X8898391Y9842590D01*
X8898516Y9842840D01*
X8898766Y9843152D01*
X8899016Y9843527D01*
X8899329Y9844027D01*
X8899704Y9844589D01*
X8900016Y9845277D01*
X8900328Y9846027D01*
X8900703Y9846839D01*
X8901016Y9847714D01*
X8901266Y9848713D01*
X8901516Y9849776D01*
X8901703Y9850900D01*
X8901766Y9852087D01*
X8901828Y9853337D01*
Y9853400D01*
Y9853650D01*
Y9853962D01*
X8901766Y9854462D01*
X8901703Y9854962D01*
X8901641Y9855649D01*
X8901516Y9856336D01*
X8901391Y9857149D01*
X8900953Y9858773D01*
X8900703Y9859648D01*
X8900328Y9860523D01*
X8899891Y9861398D01*
X8899454Y9862210D01*
X8898891Y9863022D01*
X8898266Y9863772D01*
X8898204Y9863834D01*
X8898079Y9863959D01*
X8897892Y9864147D01*
X8897642Y9864397D01*
X8897267Y9864647D01*
X8896892Y9865022D01*
X8896392Y9865334D01*
X8895830Y9865709D01*
X8895205Y9866084D01*
X8894580Y9866396D01*
X8893018Y9867021D01*
X8892205Y9867271D01*
X8891268Y9867459D01*
X8890331Y9867584D01*
X8889331Y9867646D01*
D02*
G37*
G36*
X9133019Y9889515D02*
X9118210D01*
Y9840590D01*
X9132894D01*
X9133394Y9840653D01*
X9134019D01*
X9134706Y9840715D01*
X9135456D01*
X9137080Y9840840D01*
X9138705Y9841090D01*
X9140329Y9841340D01*
X9141079Y9841528D01*
X9141767Y9841715D01*
X9141829D01*
X9141954Y9841778D01*
X9142141Y9841840D01*
X9142391Y9841965D01*
X9143016Y9842215D01*
X9143829Y9842590D01*
X9144766Y9843090D01*
X9145703Y9843652D01*
X9146640Y9844339D01*
X9147515Y9845089D01*
X9147578Y9845152D01*
X9147640Y9845214D01*
X9147828Y9845402D01*
X9148015Y9845652D01*
X9148265Y9845964D01*
X9148577Y9846276D01*
X9149265Y9847214D01*
X9150014Y9848401D01*
X9150827Y9849776D01*
X9151577Y9851338D01*
X9152264Y9853150D01*
Y9853212D01*
X9152326Y9853400D01*
X9152451Y9853650D01*
X9152514Y9854087D01*
X9152639Y9854587D01*
X9152826Y9855149D01*
X9152951Y9855837D01*
X9153139Y9856649D01*
X9153264Y9857461D01*
X9153389Y9858398D01*
X9153576Y9859461D01*
X9153701Y9860523D01*
X9153826Y9861710D01*
X9153888Y9862897D01*
X9153951Y9865522D01*
Y9865647D01*
Y9865959D01*
Y9866459D01*
X9153888Y9867146D01*
X9153826Y9868021D01*
X9153764Y9868958D01*
X9153701Y9870020D01*
X9153514Y9871208D01*
X9153389Y9872395D01*
X9153139Y9873644D01*
X9152576Y9876206D01*
X9152201Y9877456D01*
X9151764Y9878706D01*
X9151202Y9879830D01*
X9150639Y9880893D01*
X9150577Y9880955D01*
X9150514Y9881143D01*
X9150327Y9881392D01*
X9150077Y9881767D01*
X9149702Y9882205D01*
X9149327Y9882705D01*
X9148390Y9883829D01*
X9147203Y9885079D01*
X9145828Y9886266D01*
X9144266Y9887328D01*
X9143454Y9887828D01*
X9142579Y9888203D01*
X9142516D01*
X9142391Y9888266D01*
X9142204Y9888328D01*
X9141954Y9888391D01*
X9141579Y9888516D01*
X9141142Y9888641D01*
X9140579Y9888766D01*
X9139955Y9888891D01*
X9139205Y9888953D01*
X9138455Y9889078D01*
X9137518Y9889203D01*
X9136518Y9889328D01*
X9135456Y9889390D01*
X9134268Y9889453D01*
X9133019Y9889515D01*
D02*
G37*
G36*
X7991369Y9874588D02*
X7991306D01*
X7991181D01*
X7990994D01*
X7990681D01*
X7990306D01*
X7989869D01*
X7989369Y9874525D01*
X7988807D01*
X7987557Y9874463D01*
X7986120Y9874400D01*
X7984495Y9874275D01*
X7982808Y9874150D01*
X7979309Y9873713D01*
X7977560Y9873400D01*
X7975810Y9873025D01*
X7974248Y9872588D01*
X7972748Y9872151D01*
X7971436Y9871526D01*
X7970374Y9870901D01*
X7970311Y9870839D01*
X7970124Y9870714D01*
X7969874Y9870526D01*
X7969562Y9870214D01*
X7969124Y9869901D01*
X7968687Y9869464D01*
X7968249Y9868964D01*
X7967750Y9868339D01*
X7967250Y9867714D01*
X7966812Y9867027D01*
X7965938Y9865465D01*
X7965625Y9864590D01*
X7965375Y9863653D01*
X7965188Y9862653D01*
X7965125Y9861653D01*
Y9861154D01*
X7965188Y9860779D01*
X7965250Y9860279D01*
X7965375Y9859779D01*
X7965688Y9858529D01*
X7965938Y9857842D01*
X7966250Y9857155D01*
X7966625Y9856405D01*
X7967062Y9855717D01*
X7967625Y9854968D01*
X7968249Y9854280D01*
X7968937Y9853593D01*
X7969749Y9852968D01*
X7969812Y9852906D01*
X7969999Y9852781D01*
X7970374Y9852593D01*
X7970936Y9852343D01*
X7971561Y9852031D01*
X7972436Y9851718D01*
X7973436Y9851344D01*
X7974623Y9850969D01*
X7976060Y9850594D01*
X7977622Y9850219D01*
X7979372Y9849906D01*
X7981371Y9849594D01*
X7983496Y9849344D01*
X7985932Y9849157D01*
X7988557Y9849032D01*
X7991369Y9848969D01*
X7991431D01*
X7991556D01*
X7991743D01*
X7992056D01*
X7992431D01*
X7992868D01*
X7993368Y9849032D01*
X7993930D01*
X7995180Y9849094D01*
X7996617Y9849157D01*
X7998242Y9849282D01*
X7999929Y9849407D01*
X8003428Y9849844D01*
X8005178Y9850156D01*
X8006865Y9850531D01*
X8008489Y9850969D01*
X8009989Y9851468D01*
X8011301Y9852031D01*
X8012363Y9852656D01*
X8012426Y9852718D01*
X8012613Y9852843D01*
X8012863Y9853031D01*
X8013175Y9853343D01*
X8013550Y9853655D01*
X8013988Y9854093D01*
X8014488Y9854593D01*
X8014925Y9855155D01*
X8015425Y9855842D01*
X8015925Y9856530D01*
X8016737Y9858092D01*
X8017049Y9858904D01*
X8017299Y9859841D01*
X8017487Y9860779D01*
X8017549Y9861778D01*
Y9862028D01*
X8017487Y9862278D01*
Y9862653D01*
X8017362Y9863153D01*
X8017299Y9863653D01*
X8017112Y9864278D01*
X8016925Y9864903D01*
X8016612Y9865652D01*
X8016300Y9866340D01*
X8015862Y9867089D01*
X8015362Y9867839D01*
X8014738Y9868652D01*
X8014050Y9869401D01*
X8013300Y9870151D01*
X8012363Y9870839D01*
X8012301Y9870901D01*
X8012113Y9871026D01*
X8011801Y9871213D01*
X8011301Y9871401D01*
X8010676Y9871713D01*
X8009864Y9872026D01*
X8008927Y9872338D01*
X8007739Y9872713D01*
X8006427Y9873088D01*
X8004928Y9873400D01*
X8003241Y9873713D01*
X8001304Y9874025D01*
X7999179Y9874213D01*
X7996805Y9874400D01*
X7994180Y9874525D01*
X7991369Y9874588D01*
D02*
G37*
%LPD*%
D75*
X2793994Y9014488D02*
X3156990D01*
Y8816490D02*
Y9014488D01*
X2793994Y8816490D02*
X3156990D01*
X2793994D02*
Y9014488D01*
X10153249Y3201030D02*
X10516245D01*
Y3003032D02*
Y3201030D01*
X10153249Y3003032D02*
X10516245D01*
X10153249D02*
Y3201030D01*
X6301788Y4339178D02*
X6499786D01*
Y4702174D01*
X6301788D02*
X6499786D01*
X6301788Y4339178D02*
Y4702174D01*
X8630105Y9734050D02*
Y9932048D01*
Y9734050D02*
X8993102D01*
Y9932048D01*
X8630105D02*
X8993102D01*
X6930792Y9253387D02*
Y9451385D01*
Y9253387D02*
X7293788D01*
Y9451385D01*
X6930792D02*
X7293788D01*
X9068501Y7586497D02*
X9431498D01*
Y7388499D02*
Y7586497D01*
X9068501Y7388499D02*
X9431498D01*
X9068501D02*
Y7586497D01*
X7688494Y10085650D02*
Y10245650D01*
Y10085650D02*
X7954320D01*
Y10245650D01*
X7688494D02*
X7954320D01*
X7938986Y9587314D02*
Y9867314D01*
X8108983D01*
Y9587314D02*
Y9867314D01*
X7938986Y9587314D02*
X8108983D01*
X8620513Y6604485D02*
X8983509D01*
Y6406487D02*
Y6604485D01*
X8620513Y6406487D02*
X8983509D01*
X8620513D02*
Y6604485D01*
X6880057Y6628100D02*
X6975053D01*
X6880057Y6453104D02*
Y6628100D01*
Y6453104D02*
X6975053D01*
Y6628100D01*
%TF.MD5,e2805da1436da0059f7f6578ab75fc14*%
M02*
