%TF.GenerationSoftware,Altium Limited,Altium Designer,21.5.1 (32)*%
G04 Layer_Color=8388736*
%FSLAX45Y45*%
%MOMM*%
%TF.SameCoordinates,DA76D118-4440-4CF8-9B87-3A81F077C57B*%
%TF.FilePolarity,Positive*%
%TF.FileFunction,Other,Bottom_Designator*%
%TF.Part,Single*%
G01*
G75*
G36*
X5727638Y2781917D02*
X5728236Y2781879D01*
X5729431Y2781655D01*
X5730439Y2781357D01*
X5730924Y2781207D01*
X5731335Y2781021D01*
X5731708Y2780834D01*
X5732082Y2780685D01*
X5732343Y2780535D01*
X5732604Y2780386D01*
X5732791Y2780274D01*
X5732940Y2780162D01*
X5733015Y2780124D01*
X5733052Y2780087D01*
X5733500Y2779714D01*
X5733948Y2779340D01*
X5734695Y2778482D01*
X5735330Y2777586D01*
X5735853Y2776727D01*
X5736263Y2775943D01*
X5736413Y2775607D01*
X5736525Y2775308D01*
X5736637Y2775084D01*
X5736711Y2774897D01*
X5736749Y2774785D01*
Y2774748D01*
X5737197Y2775756D01*
X5737682Y2776615D01*
X5738168Y2777324D01*
X5738653Y2777922D01*
X5739101Y2778370D01*
X5739437Y2778706D01*
X5739698Y2778892D01*
X5739736Y2778967D01*
X5739773D01*
X5740557Y2779452D01*
X5741341Y2779788D01*
X5742125Y2780050D01*
X5742835Y2780199D01*
X5743470Y2780311D01*
X5743768Y2780349D01*
X5743992D01*
X5744179Y2780386D01*
X5744328D01*
X5744403D01*
X5744440D01*
X5745224Y2780349D01*
X5745934Y2780274D01*
X5746643Y2780087D01*
X5747315Y2779900D01*
X5747950Y2779676D01*
X5748510Y2779415D01*
X5749070Y2779154D01*
X5749556Y2778855D01*
X5750004Y2778556D01*
X5750377Y2778295D01*
X5750750Y2778034D01*
X5751012Y2777810D01*
X5751236Y2777623D01*
X5751385Y2777473D01*
X5751497Y2777361D01*
X5751535Y2777324D01*
X5752057Y2776727D01*
X5752505Y2776092D01*
X5752879Y2775457D01*
X5753215Y2774785D01*
X5753514Y2774113D01*
X5753738Y2773441D01*
X5753924Y2772769D01*
X5754074Y2772134D01*
X5754186Y2771537D01*
X5754298Y2771014D01*
X5754372Y2770529D01*
X5754410Y2770081D01*
X5754447Y2769745D01*
Y2769259D01*
X5754410Y2768363D01*
X5754335Y2767467D01*
X5754186Y2766683D01*
X5753999Y2765899D01*
X5753775Y2765189D01*
X5753551Y2764517D01*
X5753289Y2763920D01*
X5753028Y2763397D01*
X5752729Y2762912D01*
X5752468Y2762464D01*
X5752244Y2762128D01*
X5752020Y2761829D01*
X5751833Y2761568D01*
X5751684Y2761418D01*
X5751609Y2761306D01*
X5751572Y2761269D01*
X5751012Y2760746D01*
X5750452Y2760298D01*
X5749854Y2759887D01*
X5749294Y2759551D01*
X5748697Y2759253D01*
X5748100Y2759029D01*
X5747539Y2758804D01*
X5747017Y2758655D01*
X5746494Y2758543D01*
X5746009Y2758431D01*
X5745598Y2758356D01*
X5745262Y2758319D01*
X5744963D01*
X5744739Y2758282D01*
X5744590D01*
X5744552D01*
X5743544Y2758356D01*
X5742648Y2758506D01*
X5741827Y2758730D01*
X5741155Y2758991D01*
X5740595Y2759215D01*
X5740371Y2759327D01*
X5740147Y2759439D01*
X5739997Y2759551D01*
X5739885Y2759589D01*
X5739848Y2759663D01*
X5739810D01*
X5739101Y2760261D01*
X5738504Y2760933D01*
X5737981Y2761680D01*
X5737533Y2762389D01*
X5737197Y2763024D01*
X5737047Y2763322D01*
X5736935Y2763546D01*
X5736861Y2763733D01*
X5736786Y2763920D01*
X5736749Y2763994D01*
Y2764032D01*
X5736562Y2763397D01*
X5736338Y2762800D01*
X5736114Y2762240D01*
X5735853Y2761717D01*
X5735554Y2761231D01*
X5735255Y2760783D01*
X5734994Y2760373D01*
X5734695Y2759999D01*
X5734434Y2759701D01*
X5734172Y2759402D01*
X5733948Y2759178D01*
X5733724Y2758954D01*
X5733538Y2758804D01*
X5733426Y2758692D01*
X5733351Y2758655D01*
X5733314Y2758618D01*
X5732828Y2758282D01*
X5732343Y2758020D01*
X5731820Y2757759D01*
X5731297Y2757535D01*
X5730252Y2757199D01*
X5729244Y2756975D01*
X5728796Y2756900D01*
X5728385Y2756863D01*
X5728012Y2756826D01*
X5727713Y2756788D01*
X5727452Y2756751D01*
X5727228D01*
X5727116D01*
X5727078D01*
X5726145Y2756788D01*
X5725286Y2756900D01*
X5724465Y2757087D01*
X5723680Y2757274D01*
X5722934Y2757535D01*
X5722224Y2757834D01*
X5721590Y2758132D01*
X5721029Y2758468D01*
X5720507Y2758804D01*
X5720059Y2759103D01*
X5719648Y2759402D01*
X5719312Y2759663D01*
X5719051Y2759887D01*
X5718864Y2760037D01*
X5718752Y2760149D01*
X5718714Y2760186D01*
X5718117Y2760858D01*
X5717632Y2761568D01*
X5717184Y2762314D01*
X5716810Y2763098D01*
X5716474Y2763845D01*
X5716213Y2764592D01*
X5715989Y2765339D01*
X5715802Y2766048D01*
X5715653Y2766720D01*
X5715578Y2767355D01*
X5715503Y2767915D01*
X5715429Y2768400D01*
Y2768774D01*
X5715391Y2769072D01*
Y2769334D01*
X5715429Y2770379D01*
X5715541Y2771350D01*
X5715690Y2772284D01*
X5715914Y2773142D01*
X5716176Y2773964D01*
X5716437Y2774710D01*
X5716736Y2775420D01*
X5717072Y2776055D01*
X5717370Y2776577D01*
X5717669Y2777100D01*
X5717930Y2777511D01*
X5718192Y2777847D01*
X5718416Y2778108D01*
X5718565Y2778332D01*
X5718677Y2778444D01*
X5718714Y2778482D01*
X5719349Y2779079D01*
X5720021Y2779639D01*
X5720693Y2780087D01*
X5721403Y2780498D01*
X5722112Y2780834D01*
X5722784Y2781095D01*
X5723456Y2781319D01*
X5724091Y2781506D01*
X5724689Y2781655D01*
X5725249Y2781767D01*
X5725734Y2781842D01*
X5726145Y2781917D01*
X5726481D01*
X5726742Y2781954D01*
X5726929D01*
X5726966D01*
X5727638Y2781917D01*
D02*
G37*
G36*
X5729991Y2752420D02*
X5730961Y2752308D01*
X5731857Y2752121D01*
X5732716Y2751934D01*
X5733500Y2751636D01*
X5734247Y2751374D01*
X5734919Y2751038D01*
X5735517Y2750739D01*
X5736077Y2750403D01*
X5736562Y2750067D01*
X5736973Y2749806D01*
X5737309Y2749545D01*
X5737570Y2749321D01*
X5737794Y2749134D01*
X5737906Y2749022D01*
X5737944Y2748985D01*
X5738541Y2748313D01*
X5739101Y2747640D01*
X5739549Y2746931D01*
X5739960Y2746222D01*
X5740296Y2745512D01*
X5740557Y2744803D01*
X5740781Y2744093D01*
X5740968Y2743459D01*
X5741117Y2742861D01*
X5741229Y2742301D01*
X5741304Y2741778D01*
X5741379Y2741368D01*
Y2740994D01*
X5741416Y2740733D01*
Y2740509D01*
X5741379Y2739799D01*
X5741304Y2739090D01*
X5741192Y2738418D01*
X5741043Y2737783D01*
X5740632Y2736551D01*
X5740445Y2735991D01*
X5740221Y2735468D01*
X5739960Y2734983D01*
X5739773Y2734572D01*
X5739549Y2734161D01*
X5739362Y2733863D01*
X5739213Y2733601D01*
X5739101Y2733415D01*
X5739026Y2733303D01*
X5738989Y2733265D01*
X5749332Y2735319D01*
Y2750665D01*
X5753812D01*
Y2731585D01*
X5734135Y2727889D01*
X5733575Y2732295D01*
X5734135Y2732705D01*
X5734658Y2733191D01*
X5735106Y2733639D01*
X5735517Y2734124D01*
X5735815Y2734497D01*
X5736039Y2734833D01*
X5736189Y2735058D01*
X5736226Y2735095D01*
Y2735132D01*
X5736562Y2735842D01*
X5736823Y2736551D01*
X5737010Y2737223D01*
X5737159Y2737858D01*
X5737234Y2738418D01*
Y2738642D01*
X5737271Y2738866D01*
Y2739239D01*
X5737234Y2739911D01*
X5737159Y2740546D01*
X5737047Y2741144D01*
X5736898Y2741741D01*
X5736711Y2742264D01*
X5736525Y2742749D01*
X5736301Y2743197D01*
X5736114Y2743608D01*
X5735890Y2743944D01*
X5735666Y2744280D01*
X5735479Y2744541D01*
X5735293Y2744765D01*
X5735143Y2744952D01*
X5735031Y2745064D01*
X5734957Y2745139D01*
X5734919Y2745176D01*
X5734471Y2745587D01*
X5733986Y2745923D01*
X5733463Y2746222D01*
X5732940Y2746483D01*
X5732418Y2746707D01*
X5731895Y2746894D01*
X5730887Y2747155D01*
X5730401Y2747267D01*
X5729953Y2747342D01*
X5729580Y2747379D01*
X5729244Y2747416D01*
X5728945Y2747454D01*
X5728758D01*
X5728609D01*
X5728572D01*
X5727788Y2747416D01*
X5727078Y2747342D01*
X5726369Y2747230D01*
X5725734Y2747080D01*
X5725137Y2746894D01*
X5724577Y2746707D01*
X5724054Y2746483D01*
X5723606Y2746296D01*
X5723195Y2746072D01*
X5722822Y2745848D01*
X5722486Y2745662D01*
X5722262Y2745475D01*
X5722038Y2745325D01*
X5721888Y2745213D01*
X5721814Y2745139D01*
X5721776Y2745101D01*
X5721328Y2744653D01*
X5720955Y2744168D01*
X5720619Y2743683D01*
X5720320Y2743197D01*
X5720059Y2742712D01*
X5719872Y2742264D01*
X5719573Y2741330D01*
X5719461Y2740920D01*
X5719387Y2740546D01*
X5719312Y2740210D01*
X5719275Y2739911D01*
X5719237Y2739687D01*
Y2739351D01*
X5719275Y2738829D01*
X5719312Y2738343D01*
X5719536Y2737410D01*
X5719797Y2736588D01*
X5720133Y2735879D01*
X5720469Y2735282D01*
X5720619Y2735058D01*
X5720768Y2734871D01*
X5720880Y2734721D01*
X5720955Y2734609D01*
X5720992Y2734535D01*
X5721029Y2734497D01*
X5721403Y2734161D01*
X5721776Y2733825D01*
X5722672Y2733265D01*
X5723568Y2732855D01*
X5724427Y2732519D01*
X5725249Y2732257D01*
X5725585Y2732182D01*
X5725883Y2732108D01*
X5726145Y2732070D01*
X5726331Y2732033D01*
X5726443Y2731996D01*
X5726481D01*
X5726070Y2727067D01*
X5725174Y2727179D01*
X5724353Y2727366D01*
X5723568Y2727590D01*
X5722822Y2727851D01*
X5722112Y2728150D01*
X5721478Y2728449D01*
X5720880Y2728785D01*
X5720357Y2729121D01*
X5719909Y2729419D01*
X5719499Y2729756D01*
X5719125Y2730017D01*
X5718827Y2730278D01*
X5718602Y2730502D01*
X5718453Y2730652D01*
X5718341Y2730764D01*
X5718304Y2730801D01*
X5717781Y2731436D01*
X5717333Y2732108D01*
X5716960Y2732817D01*
X5716624Y2733527D01*
X5716325Y2734273D01*
X5716101Y2734983D01*
X5715914Y2735655D01*
X5715765Y2736327D01*
X5715653Y2736962D01*
X5715541Y2737522D01*
X5715466Y2738045D01*
X5715429Y2738493D01*
Y2738866D01*
X5715391Y2739127D01*
Y2739351D01*
X5715429Y2740509D01*
X5715578Y2741629D01*
X5715802Y2742637D01*
X5716101Y2743608D01*
X5716474Y2744504D01*
X5716848Y2745325D01*
X5717258Y2746072D01*
X5717706Y2746782D01*
X5718154Y2747379D01*
X5718565Y2747902D01*
X5718939Y2748350D01*
X5719312Y2748723D01*
X5719611Y2749022D01*
X5719835Y2749209D01*
X5719984Y2749358D01*
X5720021Y2749395D01*
X5720731Y2749918D01*
X5721478Y2750403D01*
X5722262Y2750814D01*
X5723008Y2751150D01*
X5723755Y2751449D01*
X5724502Y2751710D01*
X5725249Y2751897D01*
X5725921Y2752084D01*
X5726555Y2752196D01*
X5727153Y2752308D01*
X5727676Y2752382D01*
X5728124Y2752420D01*
X5728497D01*
X5728758Y2752457D01*
X5728908D01*
X5728982D01*
X5729991Y2752420D01*
D02*
G37*
G36*
X5729431Y2717658D02*
X5728572Y2717434D01*
X5727750Y2717173D01*
X5726966Y2716911D01*
X5726257Y2716613D01*
X5725622Y2716277D01*
X5725025Y2715940D01*
X5724465Y2715604D01*
X5723979Y2715268D01*
X5723568Y2714970D01*
X5723195Y2714671D01*
X5722859Y2714372D01*
X5722598Y2714148D01*
X5722411Y2713962D01*
X5722262Y2713775D01*
X5722187Y2713700D01*
X5722150Y2713663D01*
X5721739Y2713103D01*
X5721365Y2712505D01*
X5721029Y2711908D01*
X5720731Y2711311D01*
X5720507Y2710676D01*
X5720320Y2710078D01*
X5720021Y2708958D01*
X5719909Y2708436D01*
X5719835Y2707950D01*
X5719797Y2707539D01*
X5719760Y2707166D01*
X5719723Y2706867D01*
Y2706457D01*
X5719760Y2705822D01*
X5719797Y2705187D01*
X5720021Y2703955D01*
X5720283Y2702872D01*
X5720469Y2702349D01*
X5720619Y2701901D01*
X5720805Y2701453D01*
X5720955Y2701080D01*
X5721104Y2700744D01*
X5721253Y2700483D01*
X5721365Y2700259D01*
X5721440Y2700109D01*
X5721478Y2699997D01*
X5721515Y2699960D01*
X5721888Y2699437D01*
X5722262Y2698914D01*
X5723120Y2698018D01*
X5724016Y2697271D01*
X5724913Y2696637D01*
X5725697Y2696151D01*
X5726033Y2695965D01*
X5726331Y2695815D01*
X5726593Y2695703D01*
X5726780Y2695629D01*
X5726892Y2695554D01*
X5726929D01*
X5728348Y2695069D01*
X5729804Y2694732D01*
X5731260Y2694471D01*
X5731932Y2694396D01*
X5732567Y2694322D01*
X5733202Y2694247D01*
X5733724Y2694210D01*
X5734247Y2694172D01*
X5734658D01*
X5734994Y2694135D01*
X5735255D01*
X5735442D01*
X5735479D01*
X5736861Y2694172D01*
X5738205Y2694322D01*
X5739437Y2694508D01*
X5740034Y2694620D01*
X5740557Y2694732D01*
X5741043Y2694844D01*
X5741491Y2694957D01*
X5741864Y2695069D01*
X5742200Y2695143D01*
X5742461Y2695218D01*
X5742648Y2695293D01*
X5742760Y2695330D01*
X5742798D01*
X5743470Y2695591D01*
X5744067Y2695853D01*
X5744664Y2696151D01*
X5745187Y2696487D01*
X5745710Y2696823D01*
X5746195Y2697159D01*
X5746606Y2697495D01*
X5747017Y2697869D01*
X5747353Y2698168D01*
X5747651Y2698466D01*
X5747913Y2698765D01*
X5748137Y2698989D01*
X5748286Y2699213D01*
X5748398Y2699362D01*
X5748473Y2699437D01*
X5748510Y2699474D01*
X5748884Y2700034D01*
X5749220Y2700632D01*
X5749481Y2701267D01*
X5749742Y2701864D01*
X5749966Y2702499D01*
X5750116Y2703096D01*
X5750377Y2704291D01*
X5750452Y2704814D01*
X5750526Y2705299D01*
X5750564Y2705747D01*
X5750601Y2706121D01*
X5750638Y2706457D01*
Y2706867D01*
X5750601Y2707577D01*
X5750564Y2708249D01*
X5750340Y2709481D01*
X5750190Y2710041D01*
X5750041Y2710564D01*
X5749854Y2711049D01*
X5749668Y2711460D01*
X5749481Y2711871D01*
X5749294Y2712207D01*
X5749145Y2712505D01*
X5748996Y2712767D01*
X5748884Y2712953D01*
X5748772Y2713103D01*
X5748734Y2713177D01*
X5748697Y2713215D01*
X5748324Y2713663D01*
X5747875Y2714111D01*
X5746942Y2714895D01*
X5745934Y2715567D01*
X5744963Y2716127D01*
X5744478Y2716351D01*
X5744067Y2716538D01*
X5743656Y2716725D01*
X5743320Y2716837D01*
X5743059Y2716949D01*
X5742835Y2717023D01*
X5742685Y2717098D01*
X5742648D01*
X5743806Y2722101D01*
X5744776Y2721765D01*
X5745673Y2721429D01*
X5746531Y2721018D01*
X5747315Y2720570D01*
X5748062Y2720122D01*
X5748734Y2719674D01*
X5749332Y2719226D01*
X5749892Y2718778D01*
X5750377Y2718330D01*
X5750825Y2717919D01*
X5751199Y2717583D01*
X5751497Y2717247D01*
X5751721Y2716986D01*
X5751871Y2716799D01*
X5751983Y2716650D01*
X5752020Y2716613D01*
X5752543Y2715866D01*
X5752991Y2715082D01*
X5753401Y2714260D01*
X5753738Y2713439D01*
X5753999Y2712655D01*
X5754260Y2711833D01*
X5754447Y2711049D01*
X5754596Y2710340D01*
X5754708Y2709630D01*
X5754820Y2708996D01*
X5754895Y2708436D01*
X5754932Y2707950D01*
X5754970Y2707539D01*
Y2706979D01*
X5754932Y2706046D01*
X5754858Y2705112D01*
X5754746Y2704254D01*
X5754596Y2703395D01*
X5754447Y2702573D01*
X5754223Y2701789D01*
X5754036Y2701080D01*
X5753812Y2700445D01*
X5753588Y2699810D01*
X5753401Y2699288D01*
X5753177Y2698802D01*
X5753028Y2698429D01*
X5752879Y2698093D01*
X5752767Y2697869D01*
X5752692Y2697720D01*
X5752655Y2697682D01*
X5752207Y2696898D01*
X5751684Y2696189D01*
X5751161Y2695517D01*
X5750601Y2694882D01*
X5750041Y2694322D01*
X5749481Y2693762D01*
X5748921Y2693276D01*
X5748398Y2692866D01*
X5747875Y2692455D01*
X5747390Y2692119D01*
X5746979Y2691857D01*
X5746606Y2691596D01*
X5746307Y2691409D01*
X5746046Y2691297D01*
X5745897Y2691223D01*
X5745859Y2691185D01*
X5745000Y2690775D01*
X5744142Y2690439D01*
X5743246Y2690140D01*
X5742349Y2689879D01*
X5741491Y2689655D01*
X5740595Y2689468D01*
X5739773Y2689318D01*
X5738989Y2689206D01*
X5738242Y2689094D01*
X5737570Y2689020D01*
X5736973Y2688982D01*
X5736450Y2688945D01*
X5736039Y2688908D01*
X5735703D01*
X5735517D01*
X5735442D01*
X5734434Y2688945D01*
X5733426Y2688982D01*
X5732455Y2689094D01*
X5731521Y2689206D01*
X5730625Y2689393D01*
X5729767Y2689542D01*
X5728982Y2689729D01*
X5728236Y2689916D01*
X5727564Y2690103D01*
X5726966Y2690289D01*
X5726443Y2690476D01*
X5725995Y2690625D01*
X5725659Y2690737D01*
X5725398Y2690849D01*
X5725249Y2690887D01*
X5725174Y2690924D01*
X5724315Y2691335D01*
X5723494Y2691745D01*
X5722747Y2692231D01*
X5722038Y2692679D01*
X5721365Y2693164D01*
X5720768Y2693650D01*
X5720245Y2694135D01*
X5719760Y2694620D01*
X5719312Y2695069D01*
X5718939Y2695479D01*
X5718602Y2695815D01*
X5718378Y2696151D01*
X5718154Y2696413D01*
X5718005Y2696637D01*
X5717930Y2696749D01*
X5717893Y2696786D01*
X5717445Y2697533D01*
X5717072Y2698317D01*
X5716736Y2699176D01*
X5716437Y2699997D01*
X5716213Y2700856D01*
X5715989Y2701677D01*
X5715839Y2702499D01*
X5715690Y2703283D01*
X5715615Y2704030D01*
X5715541Y2704702D01*
X5715466Y2705299D01*
X5715429Y2705822D01*
X5715391Y2706270D01*
Y2706867D01*
X5715429Y2707950D01*
X5715541Y2709033D01*
X5715690Y2710004D01*
X5715914Y2710975D01*
X5716138Y2711871D01*
X5716437Y2712692D01*
X5716698Y2713476D01*
X5717034Y2714186D01*
X5717333Y2714783D01*
X5717632Y2715343D01*
X5717893Y2715828D01*
X5718117Y2716239D01*
X5718341Y2716575D01*
X5718490Y2716799D01*
X5718602Y2716949D01*
X5718640Y2716986D01*
X5719275Y2717733D01*
X5719984Y2718442D01*
X5720731Y2719040D01*
X5721515Y2719637D01*
X5722299Y2720160D01*
X5723083Y2720645D01*
X5723867Y2721056D01*
X5724651Y2721429D01*
X5725361Y2721728D01*
X5726033Y2722027D01*
X5726630Y2722251D01*
X5727153Y2722437D01*
X5727564Y2722549D01*
X5727900Y2722661D01*
X5728086Y2722736D01*
X5728161D01*
X5729431Y2717658D01*
D02*
G37*
%LPC*%
G36*
X5744739Y2775569D02*
X5744590D01*
X5744515D01*
X5744478D01*
X5744030D01*
X5743582Y2775495D01*
X5742760Y2775308D01*
X5742051Y2775009D01*
X5741416Y2774710D01*
X5740931Y2774374D01*
X5740557Y2774076D01*
X5740445Y2773964D01*
X5740333Y2773889D01*
X5740296Y2773852D01*
X5740259Y2773814D01*
X5739960Y2773478D01*
X5739698Y2773142D01*
X5739288Y2772396D01*
X5738989Y2771649D01*
X5738802Y2770939D01*
X5738653Y2770342D01*
X5738616Y2770043D01*
Y2769819D01*
X5738578Y2769633D01*
Y2769371D01*
X5738616Y2768848D01*
X5738653Y2768363D01*
X5738840Y2767467D01*
X5739138Y2766683D01*
X5739437Y2766048D01*
X5739736Y2765525D01*
X5740034Y2765152D01*
X5740147Y2765003D01*
X5740221Y2764891D01*
X5740296Y2764853D01*
Y2764816D01*
X5740632Y2764517D01*
X5740968Y2764256D01*
X5741715Y2763808D01*
X5742461Y2763509D01*
X5743171Y2763322D01*
X5743806Y2763173D01*
X5744067Y2763136D01*
X5744291D01*
X5744478Y2763098D01*
X5744627D01*
X5744702D01*
X5744739D01*
X5745187Y2763136D01*
X5745598Y2763173D01*
X5746382Y2763360D01*
X5747091Y2763658D01*
X5747689Y2763994D01*
X5748174Y2764293D01*
X5748548Y2764592D01*
X5748772Y2764779D01*
X5748809Y2764853D01*
X5748846D01*
X5749145Y2765189D01*
X5749444Y2765563D01*
X5749854Y2766309D01*
X5750190Y2767056D01*
X5750377Y2767766D01*
X5750526Y2768363D01*
X5750564Y2768662D01*
Y2768886D01*
X5750601Y2769072D01*
Y2769334D01*
X5750564Y2769819D01*
X5750526Y2770305D01*
X5750340Y2771163D01*
X5750041Y2771910D01*
X5749705Y2772545D01*
X5749369Y2773068D01*
X5749108Y2773441D01*
X5748958Y2773590D01*
X5748884Y2773702D01*
X5748846Y2773740D01*
X5748809Y2773777D01*
X5748473Y2774076D01*
X5748137Y2774374D01*
X5747390Y2774822D01*
X5746681Y2775121D01*
X5745971Y2775345D01*
X5745374Y2775495D01*
X5745112Y2775532D01*
X5744926D01*
X5744739Y2775569D01*
D02*
G37*
G36*
X5727228Y2777137D02*
X5727041D01*
X5726929D01*
X5726892D01*
X5726294Y2777100D01*
X5725697Y2777025D01*
X5725137Y2776951D01*
X5724614Y2776801D01*
X5723680Y2776428D01*
X5723232Y2776241D01*
X5722859Y2776055D01*
X5722523Y2775831D01*
X5722224Y2775644D01*
X5721963Y2775457D01*
X5721776Y2775271D01*
X5721590Y2775121D01*
X5721478Y2775047D01*
X5721403Y2774972D01*
X5721365Y2774935D01*
X5720992Y2774524D01*
X5720656Y2774076D01*
X5720395Y2773628D01*
X5720133Y2773142D01*
X5719947Y2772694D01*
X5719760Y2772209D01*
X5719499Y2771350D01*
X5719424Y2770939D01*
X5719349Y2770566D01*
X5719312Y2770230D01*
X5719275Y2769931D01*
X5719237Y2769707D01*
Y2769371D01*
X5719275Y2768587D01*
X5719387Y2767840D01*
X5719573Y2767131D01*
X5719760Y2766533D01*
X5719909Y2766011D01*
X5720096Y2765637D01*
X5720171Y2765488D01*
X5720208Y2765376D01*
X5720245Y2765339D01*
Y2765301D01*
X5720656Y2764629D01*
X5721141Y2764069D01*
X5721627Y2763584D01*
X5722112Y2763210D01*
X5722523Y2762912D01*
X5722859Y2762688D01*
X5723083Y2762538D01*
X5723120Y2762501D01*
X5723158D01*
X5723867Y2762202D01*
X5724539Y2761978D01*
X5725211Y2761792D01*
X5725809Y2761680D01*
X5726294Y2761605D01*
X5726705Y2761568D01*
X5726854D01*
X5726966D01*
X5727004D01*
X5727041D01*
X5727638Y2761605D01*
X5728236Y2761680D01*
X5728758Y2761754D01*
X5729281Y2761904D01*
X5730215Y2762240D01*
X5730625Y2762464D01*
X5731036Y2762650D01*
X5731372Y2762837D01*
X5731671Y2763061D01*
X5731932Y2763248D01*
X5732119Y2763397D01*
X5732306Y2763546D01*
X5732418Y2763658D01*
X5732492Y2763696D01*
X5732530Y2763733D01*
X5732903Y2764144D01*
X5733276Y2764592D01*
X5733538Y2765040D01*
X5733799Y2765488D01*
X5734023Y2765973D01*
X5734210Y2766421D01*
X5734471Y2767280D01*
X5734546Y2767691D01*
X5734620Y2768064D01*
X5734658Y2768400D01*
X5734695Y2768662D01*
X5734732Y2768886D01*
Y2769222D01*
X5734695Y2769857D01*
X5734620Y2770454D01*
X5734508Y2771014D01*
X5734396Y2771537D01*
X5734023Y2772508D01*
X5733836Y2772918D01*
X5733612Y2773329D01*
X5733388Y2773665D01*
X5733202Y2773964D01*
X5733015Y2774225D01*
X5732828Y2774449D01*
X5732716Y2774636D01*
X5732604Y2774748D01*
X5732530Y2774822D01*
X5732492Y2774860D01*
X5732082Y2775271D01*
X5731633Y2775607D01*
X5731148Y2775905D01*
X5730700Y2776167D01*
X5730215Y2776391D01*
X5729767Y2776577D01*
X5728870Y2776839D01*
X5728460Y2776951D01*
X5728086Y2777025D01*
X5727750Y2777063D01*
X5727452Y2777100D01*
X5727228Y2777137D01*
D02*
G37*
%LPD*%
%TF.MD5,0d462ddcbde26e05bd659ab759fc4588*%
M02*
