%TF.GenerationSoftware,Altium Limited,Altium Designer,21.6.1 (37)*%
G04 Layer_Color=128*
%FSLAX45Y45*%
%MOMM*%
%TF.SameCoordinates,16E63DA4-43ED-4674-A1E0-7AC0996D3122*%
%TF.FilePolarity,Positive*%
%TF.FileFunction,Paste,Bot*%
%TF.Part,Single*%
G01*
G75*
%TA.AperFunction,SMDPad,CuDef*%
%ADD59R,0.51535X0.47247*%
%ADD61R,0.47247X0.51535*%
%ADD67R,0.95000X0.55000*%
%ADD68R,0.55000X0.60000*%
%ADD69R,1.25000X1.10000*%
%ADD70R,0.82000X0.86000*%
%ADD71R,0.55000X0.95000*%
%ADD72R,0.86000X0.82000*%
G04:AMPARAMS|DCode=73|XSize=1.4mm|YSize=0.86mm|CornerRadius=0.145mm|HoleSize=0mm|Usage=FLASHONLY|Rotation=0.000|XOffset=0mm|YOffset=0mm|HoleType=Round|Shape=RoundedRectangle|*
%AMROUNDEDRECTD73*
21,1,1.40000,0.57000,0,0,0.0*
21,1,1.11000,0.86000,0,0,0.0*
1,1,0.29000,0.55500,-0.28500*
1,1,0.29000,-0.55500,-0.28500*
1,1,0.29000,-0.55500,0.28500*
1,1,0.29000,0.55500,0.28500*
%
%ADD73ROUNDEDRECTD73*%
%ADD74R,0.82000X0.82000*%
D59*
X6190018Y6836826D02*
D03*
X6114306Y6836826D02*
D03*
X5009545Y8021641D02*
D03*
X5085258Y8021641D02*
D03*
X5009545Y8202068D02*
D03*
X5085258Y8202068D02*
D03*
X5009545Y7572426D02*
D03*
X5085258Y7572426D02*
D03*
X5032431Y7391999D02*
D03*
X4956719Y7391999D02*
D03*
X4956719Y7192000D02*
D03*
X5032431Y7192000D02*
D03*
X4959054Y7791999D02*
D03*
X5034766Y7791999D02*
D03*
X5085258Y8382494D02*
D03*
X5009545Y8382494D02*
D03*
X4583618Y7292000D02*
D03*
X4659331Y7292000D02*
D03*
X4583618Y7092000D02*
D03*
X4659331Y7092000D02*
D03*
X4390944Y7192000D02*
D03*
X4466662Y7192000D02*
D03*
X5709544Y8507843D02*
D03*
X5785256Y8507843D02*
D03*
X6385255Y7891998D02*
D03*
X6385255Y7791999D02*
D03*
X6385255Y7247920D02*
D03*
X5785256Y7621214D02*
D03*
X6385255Y7067493D02*
D03*
X5519431Y7498295D02*
D03*
X4609546Y8128549D02*
D03*
X4381036Y7791999D02*
D03*
X4766379Y7691999D02*
D03*
X4573705Y7591999D02*
D03*
X5209545Y7433622D02*
D03*
X5054728Y6591950D02*
D03*
X4684392Y6911579D02*
D03*
X6585255Y8392003D02*
D03*
X6509542Y8492002D02*
D03*
X6361585Y8675622D02*
D03*
X6109543Y7891948D02*
D03*
X5909544Y7621214D02*
D03*
X5909544Y8134742D02*
D03*
X4649417Y7791999D02*
D03*
X6102218Y7092000D02*
D03*
X6102218Y7292000D02*
D03*
X5909544Y7423031D02*
D03*
X6485255Y6492001D02*
D03*
X6409543Y6392001D02*
D03*
X5209545Y7002776D02*
D03*
X5171690Y6592206D02*
D03*
X6437297Y8675622D02*
D03*
X5709544Y7621214D02*
D03*
X4760105Y6911579D02*
D03*
X4685259Y8128549D02*
D03*
X4456748Y7791999D02*
D03*
X4979016Y6591950D02*
D03*
X4573705Y7791999D02*
D03*
X5247403Y6592206D02*
D03*
X4842092Y7691999D02*
D03*
X4649417Y7591999D02*
D03*
X5443719Y7498295D02*
D03*
X5985256Y7423031D02*
D03*
X5985256Y7621214D02*
D03*
X5985256Y8134742D02*
D03*
X6185256Y7891948D02*
D03*
X6309543Y7247920D02*
D03*
X6309543Y7891998D02*
D03*
X6309543Y7791999D02*
D03*
X6485255Y6392001D02*
D03*
X6509542Y8392003D02*
D03*
X6585255Y8492002D02*
D03*
X5285257Y7002776D02*
D03*
X5285257Y7433622D02*
D03*
X6177930Y7092000D02*
D03*
X6177930Y7292000D02*
D03*
X6309543Y7067493D02*
D03*
X6409543Y6492001D02*
D03*
D61*
X4808022Y7279869D02*
D03*
X4808022Y7204156D02*
D03*
X5897347Y8359151D02*
D03*
X5897347Y8283439D02*
D03*
X4953247Y6795253D02*
D03*
X4953247Y6870965D02*
D03*
X5770526Y6633923D02*
D03*
X5770526Y6558211D02*
D03*
X5950953Y6641997D02*
D03*
X5950953Y6566285D02*
D03*
X5797398Y7910339D02*
D03*
X5597398Y7986051D02*
D03*
X5397251Y8172531D02*
D03*
X5697398Y7396815D02*
D03*
X5616971Y7279858D02*
D03*
X5197399Y8531191D02*
D03*
X5324297Y7779857D02*
D03*
X5181123Y7204146D02*
D03*
X4597451Y8579907D02*
D03*
X4810357Y7904145D02*
D03*
X4497400Y8579856D02*
D03*
X4397400Y8404144D02*
D03*
X5697398Y8103013D02*
D03*
X5416972Y7904145D02*
D03*
X5297348Y8289493D02*
D03*
X5797398Y7274339D02*
D03*
X6597401Y6579855D02*
D03*
X5501972Y7079859D02*
D03*
X4605000Y6480358D02*
D03*
X4397400Y6579855D02*
D03*
X4397400Y6504142D02*
D03*
X4397400Y8479856D02*
D03*
X4497400Y8504144D02*
D03*
X4605000Y6404646D02*
D03*
X4597451Y8504194D02*
D03*
X4810357Y7979857D02*
D03*
X5297348Y8365206D02*
D03*
X5197399Y8606903D02*
D03*
X5397251Y8096819D02*
D03*
X5501972Y7004141D02*
D03*
X5697398Y7472528D02*
D03*
X5324297Y7704145D02*
D03*
X5697398Y8178725D02*
D03*
X5797398Y7198627D02*
D03*
X5181123Y7279858D02*
D03*
X5616971Y7204146D02*
D03*
X5597398Y7910339D02*
D03*
X5797398Y7986051D02*
D03*
X5416972Y7979857D02*
D03*
X6597401Y6504142D02*
D03*
D67*
X5163456Y7731214D02*
D03*
X5163456Y7881217D02*
D03*
X5341547Y7143196D02*
D03*
X5341547Y7293198D02*
D03*
D68*
X7658100Y7506299D02*
D03*
X7658100Y7581301D02*
D03*
D69*
X5378676Y6799852D02*
D03*
X5143675Y6799852D02*
D03*
D70*
X5568577Y6599920D02*
D03*
X5568577Y6695917D02*
D03*
D71*
X5872399Y7781644D02*
D03*
X4315013Y7491999D02*
D03*
X4465010Y7491999D02*
D03*
X5722402Y7781644D02*
D03*
D72*
X5699399Y7064938D02*
D03*
X5795401Y7064938D02*
D03*
D73*
X5728725Y2904909D02*
D03*
X5728725Y2725910D02*
D03*
D74*
X5797398Y6884516D02*
D03*
X5697398Y6884516D02*
D03*
%TF.MD5,c4e9b8ad0425500945205cb7d16daaf3*%
M02*
