G04*
G04 #@! TF.GenerationSoftware,Altium Limited,Altium Designer,21.5.1 (32)*
G04*
G04 Layer_Color=8388736*
%FSLAX44Y44*%
%MOMM*%
G71*
G04*
G04 #@! TF.SameCoordinates,CE61D733-3D9C-4286-B01C-F70B086857D8*
G04*
G04*
G04 #@! TF.FilePolarity,Positive*
G04*
G01*
G75*
%ADD13C,0.2000*%
D13*
X283960Y897264D02*
X311138D01*
Y885834D02*
Y897264D01*
X283960Y885834D02*
X311138D01*
X283960D02*
Y897264D01*
X1019886Y315918D02*
X1047064D01*
Y304488D02*
Y315918D01*
X1019886Y304488D02*
X1047064D01*
X1019886D02*
Y315918D01*
X634364Y438479D02*
X645794D01*
Y465657D01*
X634364D02*
X645794D01*
X634364Y438479D02*
Y465657D01*
X867571Y977590D02*
Y989020D01*
Y977590D02*
X894749D01*
Y989020D01*
X867571D02*
X894749D01*
X697640Y929524D02*
Y940954D01*
Y929524D02*
X724818D01*
Y940954D01*
X697640D02*
X724818D01*
X911411Y754465D02*
X938589D01*
Y743035D02*
Y754465D01*
X911411Y743035D02*
X938589D01*
X911411D02*
Y754465D01*
X772141Y1010315D02*
Y1022815D01*
Y1010315D02*
X792141D01*
Y1022815D01*
X772141D02*
X792141D01*
X795148Y961731D02*
Y983732D01*
X809649D01*
Y961731D02*
Y983732D01*
X795148Y961731D02*
X809649D01*
X866612Y656264D02*
X893790D01*
Y644834D02*
Y656264D01*
X866612Y644834D02*
X893790D01*
X866612D02*
Y656264D01*
X690006Y659310D02*
X695505D01*
X690006Y648810D02*
Y659310D01*
Y648810D02*
X695505D01*
Y659310D01*
M02*
