%TF.GenerationSoftware,Altium Limited,Altium Designer,21.6.1 (37)*%
G04 Layer_Color=16711935*
%FSLAX45Y45*%
%MOMM*%
%TF.SameCoordinates,16E63DA4-43ED-4674-A1E0-7AC0996D3122*%
%TF.FilePolarity,Positive*%
%TF.FileFunction,Other,Bottom_3D_Body*%
%TF.Part,Single*%
G01*
G75*
%TA.AperFunction,NonConductor*%
%ADD75C,0.20000*%
D75*
X6572402Y6492001D02*
X6572402Y6592001D01*
X6572402Y6492001D02*
X6622400Y6492001D01*
X6622400Y6592001D01*
X6572402Y6592001D02*
X6622400Y6592001D01*
X5441975Y7891998D02*
X5441975Y7991998D01*
X5391973Y7991998D02*
X5441975Y7991998D01*
X5391973Y7891998D02*
X5391973Y7991998D01*
X5391973Y7891998D02*
X5441975Y7891998D01*
X5822401Y7898192D02*
X5822401Y7998192D01*
X5772399Y7998192D02*
X5822401Y7998192D01*
X5772399Y7898192D02*
X5772399Y7998192D01*
X5772399Y7898192D02*
X5822401Y7898192D01*
X5572399Y7898192D02*
X5572399Y7998192D01*
X5572399Y7898192D02*
X5622402Y7898192D01*
X5622402Y7998192D01*
X5572399Y7998192D02*
X5622402Y7998192D01*
X5591973Y7192000D02*
X5591973Y7292000D01*
X5591973Y7192000D02*
X5641975Y7192000D01*
X5641975Y7292000D01*
X5591973Y7292000D02*
X5641975Y7292000D01*
X5206127Y7192000D02*
X5206127Y7292000D01*
X5156124Y7292000D02*
X5206127Y7292000D01*
X5156124Y7192000D02*
X5156124Y7292000D01*
X5156124Y7192000D02*
X5206127Y7192000D01*
X5772399Y7186485D02*
X5772399Y7286485D01*
X5772399Y7186485D02*
X5822401Y7186485D01*
X5822401Y7286485D01*
X5772399Y7286485D02*
X5822401Y7286485D01*
X6397401Y6517000D02*
X6497401Y6517000D01*
X6397401Y6467003D02*
X6397401Y6517000D01*
X6397401Y6467003D02*
X6497401Y6467003D01*
X6497401Y6517000D01*
X6297402Y7092492D02*
X6397401Y7092492D01*
X6297402Y7042495D02*
X6297402Y7092492D01*
X6297402Y7042495D02*
X6397401Y7042495D01*
X6397401Y7092492D01*
X6090077Y7267001D02*
X6190077Y7267001D01*
X6190077Y7316998D01*
X6090077Y7316998D02*
X6190077Y7316998D01*
X6090077Y7267001D02*
X6090077Y7316998D01*
X6090077Y7067001D02*
X6190077Y7067001D01*
X6190077Y7116999D01*
X6090077Y7116999D02*
X6190077Y7116999D01*
X6090077Y7067001D02*
X6090077Y7116999D01*
X5197399Y7408624D02*
X5297399Y7408624D01*
X5297399Y7458621D01*
X5197399Y7458621D02*
X5297399Y7458621D01*
X5197399Y7408624D02*
X5197399Y7458621D01*
X5197399Y6977778D02*
X5297399Y6977778D01*
X5297399Y7027775D01*
X5197399Y7027775D02*
X5297399Y7027775D01*
X5197399Y6977778D02*
X5197399Y7027775D01*
X6497401Y8466999D02*
X6597401Y8466999D01*
X6597401Y8517001D01*
X6497401Y8517001D02*
X6597401Y8517001D01*
X6497401Y8466999D02*
X6497401Y8517001D01*
X6497401Y8417001D02*
X6597401Y8417001D01*
X6497401Y8366999D02*
X6497401Y8417001D01*
X6497401Y8366999D02*
X6597401Y8366999D01*
X6597401Y8417001D01*
X6397401Y6366998D02*
X6497401Y6366998D01*
X6497401Y6417000D01*
X6397401Y6417000D02*
X6497401Y6417000D01*
X6397401Y6366998D02*
X6397401Y6417000D01*
X6297402Y7817002D02*
X6397401Y7817002D01*
X6297402Y7767000D02*
X6297402Y7817002D01*
X6297402Y7767000D02*
X6397401Y7767000D01*
X6397401Y7817002D01*
X6297402Y7917002D02*
X6397401Y7917002D01*
X6297402Y7867000D02*
X6297402Y7917002D01*
X6297402Y7867000D02*
X6397401Y7867000D01*
X6397401Y7917002D01*
X6297402Y7272918D02*
X6397401Y7272918D01*
X6297402Y7222916D02*
X6297402Y7272918D01*
X6297402Y7222916D02*
X6397401Y7222916D01*
X6397401Y7272918D01*
X6097402Y7866949D02*
X6197402Y7866949D01*
X6197402Y7916951D01*
X6097402Y7916951D02*
X6197402Y7916951D01*
X6097402Y7866949D02*
X6097402Y7916951D01*
X5897402Y8109744D02*
X5997402Y8109744D01*
X5997402Y8159746D01*
X5897402Y8159746D02*
X5997402Y8159746D01*
X5897402Y8109744D02*
X5897402Y8159746D01*
X5897402Y7596215D02*
X5997402Y7596215D01*
X5997402Y7646218D01*
X5897402Y7646218D02*
X5997402Y7646218D01*
X5897402Y7596215D02*
X5897402Y7646218D01*
X5897402Y7398032D02*
X5997402Y7398032D01*
X5997402Y7448029D01*
X5897402Y7448029D02*
X5997402Y7448029D01*
X5897402Y7398032D02*
X5897402Y7448029D01*
X5722402Y8090866D02*
X5722402Y8190866D01*
X5672399Y8190866D02*
X5722402Y8190866D01*
X5672399Y8090866D02*
X5672399Y8190866D01*
X5672399Y8090866D02*
X5722402Y8090866D01*
X5299299Y7691999D02*
X5299299Y7791999D01*
X5299299Y7691999D02*
X5349301Y7691999D01*
X5349301Y7791999D01*
X5299299Y7791999D02*
X5349301Y7791999D01*
X5431573Y7523294D02*
X5531572Y7523294D01*
X5431573Y7473296D02*
X5431573Y7523294D01*
X5431573Y7473296D02*
X5531572Y7473296D01*
X5531572Y7523294D01*
X5722402Y7384669D02*
X5722402Y7484669D01*
X5672399Y7484669D02*
X5722402Y7484669D01*
X5672399Y7384669D02*
X5672399Y7484669D01*
X5672399Y7384669D02*
X5722402Y7384669D01*
X5476973Y6992000D02*
X5476973Y7092000D01*
X5476973Y6992000D02*
X5526976Y6992000D01*
X5526976Y7092000D01*
X5476973Y7092000D02*
X5526976Y7092000D01*
X5372252Y8084673D02*
X5372252Y8184672D01*
X5372252Y8084673D02*
X5422250Y8084673D01*
X5422250Y8184672D01*
X5372252Y8184672D02*
X5422250Y8184672D01*
X5222403Y8519050D02*
X5222403Y8619049D01*
X5172400Y8619049D02*
X5222403Y8619049D01*
X5172400Y8519050D02*
X5172400Y8619049D01*
X5172400Y8519050D02*
X5222403Y8519050D01*
X5322352Y8277347D02*
X5322352Y8377347D01*
X5272349Y8377347D02*
X5322352Y8377347D01*
X5272349Y8277347D02*
X5272349Y8377347D01*
X5272349Y8277347D02*
X5322352Y8277347D01*
X4835361Y7891998D02*
X4835361Y7991998D01*
X4785358Y7991998D02*
X4835361Y7991998D01*
X4785358Y7891998D02*
X4785358Y7991998D01*
X4785358Y7891998D02*
X4835361Y7891998D01*
X4561559Y7567000D02*
X4661559Y7567000D01*
X4661559Y7617003D01*
X4561559Y7617003D02*
X4661559Y7617003D01*
X4561559Y7567000D02*
X4561559Y7617003D01*
X4754233Y7667000D02*
X4854233Y7667000D01*
X4854233Y7717003D01*
X4754233Y7717003D02*
X4854233Y7717003D01*
X4754233Y7667000D02*
X4754233Y7717003D01*
X5159544Y6567202D02*
X5259544Y6567202D01*
X5259544Y6617205D01*
X5159544Y6617205D02*
X5259544Y6617205D01*
X5159544Y6567202D02*
X5159544Y6617205D01*
X4561559Y7817002D02*
X4661559Y7817002D01*
X4561559Y7767000D02*
X4561559Y7817002D01*
X4561559Y7767000D02*
X4661559Y7767000D01*
X4661559Y7817002D01*
X4966870Y6616949D02*
X5066869Y6616949D01*
X4966870Y6566952D02*
X4966870Y6616949D01*
X4966870Y6566952D02*
X5066869Y6566952D01*
X5066869Y6616949D01*
X4572452Y8492053D02*
X4572452Y8592053D01*
X4572452Y8492053D02*
X4622449Y8492053D01*
X4622449Y8592053D01*
X4572452Y8592053D02*
X4622449Y8592053D01*
X4368890Y7767000D02*
X4468889Y7767000D01*
X4468889Y7817002D01*
X4368890Y7817002D02*
X4468889Y7817002D01*
X4368890Y7767000D02*
X4368890Y7817002D01*
X4597400Y8103550D02*
X4697400Y8103550D01*
X4697400Y8153552D01*
X4597400Y8153552D02*
X4697400Y8153552D01*
X4597400Y8103550D02*
X4597400Y8153552D01*
X4672246Y6886580D02*
X4772246Y6886580D01*
X4772246Y6936577D01*
X4672246Y6936577D02*
X4772246Y6936577D01*
X4672246Y6886580D02*
X4672246Y6936577D01*
X4580001Y6392499D02*
X4580001Y6492499D01*
X4580001Y6392499D02*
X4629998Y6392499D01*
X4629998Y6492499D01*
X4580001Y6492499D02*
X4629998Y6492499D01*
X4472402Y8492002D02*
X4472402Y8592002D01*
X4472402Y8492002D02*
X4522399Y8492002D01*
X4522399Y8592002D01*
X4472402Y8592002D02*
X4522399Y8592002D01*
X4422399Y8392003D02*
X4422399Y8492002D01*
X4372402Y8492002D02*
X4422399Y8492002D01*
X4372402Y8392003D02*
X4372402Y8492002D01*
X4372402Y8392003D02*
X4422399Y8392003D01*
X4372402Y6492001D02*
X4372402Y6592001D01*
X4372402Y6492001D02*
X4422399Y6492001D01*
X4422399Y6592001D01*
X4372402Y6592001D02*
X4422399Y6592001D01*
X5697398Y7646213D02*
X5797398Y7646213D01*
X5697398Y7596215D02*
X5697398Y7646213D01*
X5697398Y7596215D02*
X5797398Y7596215D01*
X5797398Y7646213D01*
X6349438Y8650624D02*
X6349438Y8700621D01*
X6449438Y8700621D01*
X6449438Y8650624D02*
X6449438Y8700621D01*
X6349438Y8650624D02*
X6449438Y8650624D01*
X5925949Y6554144D02*
X5975951Y6554144D01*
X5925949Y6554144D02*
X5925949Y6654143D01*
X5975951Y6654143D01*
X5975951Y6554144D02*
X5975951Y6654143D01*
X5745522Y6546070D02*
X5795525Y6546070D01*
X5745522Y6546070D02*
X5745522Y6646070D01*
X5795525Y6646070D01*
X5795525Y6546070D02*
X5795525Y6646070D01*
X4928248Y6883111D02*
X4978251Y6883111D01*
X4978251Y6783112D02*
X4978251Y6883111D01*
X4928248Y6783112D02*
X4978251Y6783112D01*
X4928248Y6783112D02*
X4928248Y6883111D01*
X5872348Y8271293D02*
X5922350Y8271293D01*
X5872348Y8271293D02*
X5872348Y8371293D01*
X5922350Y8371293D01*
X5922350Y8271293D02*
X5922350Y8371293D01*
X5797398Y8482844D02*
X5797398Y8532847D01*
X5697398Y8482844D02*
X5797398Y8482844D01*
X5697398Y8482844D02*
X5697398Y8532847D01*
X5797398Y8532847D01*
X4478803Y7167001D02*
X4478803Y7216999D01*
X4378803Y7167001D02*
X4478803Y7167001D01*
X4378803Y7167001D02*
X4378803Y7216999D01*
X4478803Y7216999D01*
X4671472Y7067001D02*
X4671472Y7116999D01*
X4571472Y7067001D02*
X4671472Y7067001D01*
X4571472Y7067001D02*
X4571472Y7116999D01*
X4671472Y7116999D01*
X4671472Y7267001D02*
X4671472Y7316998D01*
X4571472Y7267001D02*
X4671472Y7267001D01*
X4571472Y7267001D02*
X4571472Y7316998D01*
X4671472Y7316998D01*
X4783024Y7192015D02*
X4833021Y7192015D01*
X4783024Y7192015D02*
X4783024Y7292015D01*
X4833021Y7292015D01*
X4833021Y7192015D02*
X4833021Y7292015D01*
X4997399Y8357495D02*
X4997399Y8407498D01*
X5097399Y8407498D01*
X5097399Y8357495D02*
X5097399Y8407498D01*
X4997399Y8357495D02*
X5097399Y8357495D01*
X5046907Y7767000D02*
X5046907Y7817002D01*
X4946907Y7767000D02*
X5046907Y7767000D01*
X4946907Y7767000D02*
X4946907Y7817002D01*
X5046907Y7817002D01*
X5044573Y7167001D02*
X5044573Y7216999D01*
X4944573Y7167001D02*
X5044573Y7167001D01*
X4944573Y7167001D02*
X4944573Y7216999D01*
X5044573Y7216999D01*
X4944573Y7367001D02*
X4944573Y7416998D01*
X5044573Y7416998D01*
X5044573Y7367001D02*
X5044573Y7416998D01*
X4944573Y7367001D02*
X5044573Y7367001D01*
X5097399Y7547427D02*
X5097399Y7597424D01*
X4997399Y7547427D02*
X5097399Y7547427D01*
X4997399Y7547427D02*
X4997399Y7597424D01*
X5097399Y7597424D01*
X5097399Y8177069D02*
X5097399Y8227071D01*
X4997399Y8177069D02*
X5097399Y8177069D01*
X4997399Y8177069D02*
X4997399Y8227071D01*
X5097399Y8227071D01*
X5097399Y7996643D02*
X5097399Y8046640D01*
X4997399Y7996643D02*
X5097399Y7996643D01*
X4997399Y7996643D02*
X4997399Y8046640D01*
X5097399Y8046640D01*
X6102165Y6811828D02*
X6102165Y6861825D01*
X6202165Y6861825D01*
X6202165Y6811828D02*
X6202165Y6861825D01*
X6102165Y6811828D02*
X6202165Y6811828D01*
%TF.MD5,aa732ed751735d2962bbd7731650a82a*%
M02*
