%TF.GenerationSoftware,Altium Limited,Altium Designer,21.5.1 (32)*%
G04 Layer_Color=8388736*
%FSLAX45Y45*%
%MOMM*%
%TF.SameCoordinates,620DA487-9358-4998-A31C-56A073A1AE4C*%
%TF.FilePolarity,Negative*%
%TF.FileFunction,Soldermask,Top*%
%TF.Part,Single*%
G01*
G75*
%TA.AperFunction,SMDPad,CuDef*%
%ADD12R,3.43000X1.78000*%
%ADD26R,1.78000X3.43000*%
%ADD28R,1.00606X1.30822*%
%ADD29R,1.35000X0.95000*%
%ADD37R,0.50000X0.50000*%
%TA.AperFunction,NonConductor*%
%ADD82C,0.25400*%
%ADD110R,0.72160X1.01602*%
%ADD111R,1.04953X0.90282*%
%ADD112R,1.10408X1.76426*%
%ADD113R,1.50000X1.50000*%
%ADD114R,1.09227X1.12068*%
D12*
X2975492Y8915489D02*
D03*
X10334747Y3102031D02*
D03*
X8811603Y9833049D02*
D03*
X7112290Y9352386D02*
D03*
X9249999Y7487498D02*
D03*
X8802011Y6505486D02*
D03*
D26*
X6400787Y4520676D02*
D03*
D28*
X7894015Y10165650D02*
D03*
X7748799D02*
D03*
D29*
X8023984Y9652313D02*
D03*
Y9802315D02*
D03*
D37*
X6927555Y6590599D02*
D03*
Y6490599D02*
D03*
D82*
X3711452Y6108700D02*
G03*
X3711452Y6108700I-66552J0D01*
G01*
X3457452D02*
G03*
X3457452Y6108700I-66552J0D01*
G01*
X3711452Y6362700D02*
G03*
X3711452Y6362700I-66552J0D01*
G01*
X3457452D02*
G03*
X3457452Y6362700I-66552J0D01*
G01*
X3711452Y6616700D02*
G03*
X3711452Y6616700I-66552J0D01*
G01*
Y6870700D02*
G03*
X3711452Y6870700I-66552J0D01*
G01*
Y7124700D02*
G03*
X3711452Y7124700I-66552J0D01*
G01*
X3457452D02*
G03*
X3457452Y7124700I-66552J0D01*
G01*
X3711452Y7378700D02*
G03*
X3711452Y7378700I-66552J0D01*
G01*
X3457452D02*
G03*
X3457452Y7378700I-66552J0D01*
G01*
X3711452Y7632700D02*
G03*
X3711452Y7632700I-66552J0D01*
G01*
X3457452D02*
G03*
X3457452Y7632700I-66552J0D01*
G01*
X3711452Y7886700D02*
G03*
X3711452Y7886700I-66552J0D01*
G01*
X3457452D02*
G03*
X3457452Y7886700I-66552J0D01*
G01*
X3711452Y8140700D02*
G03*
X3711452Y8140700I-66552J0D01*
G01*
X3457452D02*
G03*
X3457452Y8140700I-66552J0D01*
G01*
X3711452Y8394700D02*
G03*
X3711452Y8394700I-66552J0D01*
G01*
X9526180Y3245665D02*
G03*
X9526180Y3245665I-66552J0D01*
G01*
Y3499665D02*
G03*
X9526180Y3499665I-66552J0D01*
G01*
Y3753665D02*
G03*
X9526180Y3753665I-66552J0D01*
G01*
Y4007665D02*
G03*
X9526180Y4007665I-66552J0D01*
G01*
X10340852Y4013200D02*
G03*
X10340852Y4013200I-66552J0D01*
G01*
X10086852D02*
G03*
X10086852Y4013200I-66552J0D01*
G01*
X10340852Y4267200D02*
G03*
X10340852Y4267200I-66552J0D01*
G01*
X10086852D02*
G03*
X10086852Y4267200I-66552J0D01*
G01*
X10340852Y4521200D02*
G03*
X10340852Y4521200I-66552J0D01*
G01*
X10086852D02*
G03*
X10086852Y4521200I-66552J0D01*
G01*
X10340852Y4775200D02*
G03*
X10340852Y4775200I-66552J0D01*
G01*
X10086852D02*
G03*
X10086852Y4775200I-66552J0D01*
G01*
X10340852Y5029200D02*
G03*
X10340852Y5029200I-66552J0D01*
G01*
X10086852D02*
G03*
X10086852Y5029200I-66552J0D01*
G01*
X10340852Y5283200D02*
G03*
X10340852Y5283200I-66552J0D01*
G01*
X10086852D02*
G03*
X10086852Y5283200I-66552J0D01*
G01*
X10340852Y5537200D02*
G03*
X10340852Y5537200I-66552J0D01*
G01*
X10086852D02*
G03*
X10086852Y5537200I-66552J0D01*
G01*
X10340852Y5791200D02*
G03*
X10340852Y5791200I-66552J0D01*
G01*
X10086852D02*
G03*
X10086852Y5791200I-66552J0D01*
G01*
X10340852Y6045200D02*
G03*
X10340852Y6045200I-66552J0D01*
G01*
X10086852D02*
G03*
X10086852Y6045200I-66552J0D01*
G01*
X10340852Y6299200D02*
G03*
X10340852Y6299200I-66552J0D01*
G01*
X10086852D02*
G03*
X10086852Y6299200I-66552J0D01*
G01*
X10340852Y6553200D02*
G03*
X10340852Y6553200I-66552J0D01*
G01*
X10086852D02*
G03*
X10086852Y6553200I-66552J0D01*
G01*
X10340852Y6807200D02*
G03*
X10340852Y6807200I-66552J0D01*
G01*
X10086852D02*
G03*
X10086852Y6807200I-66552J0D01*
G01*
X10340852Y7061200D02*
G03*
X10340852Y7061200I-66552J0D01*
G01*
X10086852D02*
G03*
X10086852Y7061200I-66552J0D01*
G01*
X10340852Y7315200D02*
G03*
X10340852Y7315200I-66552J0D01*
G01*
X10086852D02*
G03*
X10086852Y7315200I-66552J0D01*
G01*
X10340852Y7569200D02*
G03*
X10340852Y7569200I-66552J0D01*
G01*
X10086852D02*
G03*
X10086852Y7569200I-66552J0D01*
G01*
X10340852Y7823200D02*
G03*
X10340852Y7823200I-66552J0D01*
G01*
X10086852D02*
G03*
X10086852Y7823200I-66552J0D01*
G01*
X10340852Y8077200D02*
G03*
X10340852Y8077200I-66552J0D01*
G01*
X10086852D02*
G03*
X10086852Y8077200I-66552J0D01*
G01*
X10340852Y8331200D02*
G03*
X10340852Y8331200I-66552J0D01*
G01*
X10086852D02*
G03*
X10086852Y8331200I-66552J0D01*
G01*
X10341166Y8839200D02*
G03*
X10341166Y8839200I-66552J0D01*
G01*
X10340613Y8585200D02*
G03*
X10340613Y8585200I-66552J0D01*
G01*
X10086852D02*
G03*
X10086852Y8585200I-66552J0D01*
G01*
D110*
X3947141Y5239549D02*
D03*
X3945145Y5060014D02*
D03*
X3701660Y5227724D02*
D03*
X3699665Y5048190D02*
D03*
X3430028D02*
D03*
X3432023Y5227724D02*
D03*
D111*
X3431790Y4865627D02*
D03*
X3701427Y4874435D02*
D03*
X3946557Y4874236D02*
D03*
Y4724901D02*
D03*
X3701427Y4723699D02*
D03*
X3431790Y4716892D02*
D03*
D112*
X4563493Y4248293D02*
D03*
X4844109D02*
D03*
Y4250736D02*
D03*
X4563493D02*
D03*
X4843524Y3987867D02*
D03*
X4562908D02*
D03*
X4852302Y3727441D02*
D03*
X4571686D02*
D03*
X4097094D02*
D03*
X4377711D02*
D03*
X4088316Y3987867D02*
D03*
X4368932D02*
D03*
X4088901Y4250736D02*
D03*
X4369517D02*
D03*
Y4248293D02*
D03*
X4088901D02*
D03*
D113*
X3390900Y8394700D02*
D03*
X9459628Y4261665D02*
D03*
X10020300Y8839200D02*
D03*
D114*
X3644540Y6109799D02*
D03*
X3390540D02*
D03*
X3644540Y6363799D02*
D03*
X3390540D02*
D03*
X3644540Y6617799D02*
D03*
Y6871799D02*
D03*
Y7125799D02*
D03*
X3390540D02*
D03*
X3644540Y7379799D02*
D03*
X3390540D02*
D03*
X3644540Y7633799D02*
D03*
X3390540D02*
D03*
X3644540Y7887799D02*
D03*
X3390540D02*
D03*
X3644540Y8141799D02*
D03*
X3390540D02*
D03*
X3644540Y8395799D02*
D03*
X9459268Y3246764D02*
D03*
Y3500764D02*
D03*
Y3754764D02*
D03*
Y4008764D02*
D03*
X10273940Y4014299D02*
D03*
X10019940D02*
D03*
X10273940Y4268299D02*
D03*
X10019940D02*
D03*
X10273940Y4522299D02*
D03*
X10019940D02*
D03*
X10273940Y4776299D02*
D03*
X10019940D02*
D03*
X10273940Y5030299D02*
D03*
X10019940D02*
D03*
X10273940Y5284299D02*
D03*
X10019940D02*
D03*
X10273940Y5538299D02*
D03*
X10019940D02*
D03*
X10273940Y5792299D02*
D03*
X10019940D02*
D03*
X10273940Y6046299D02*
D03*
X10019940D02*
D03*
X10273940Y6300299D02*
D03*
X10019940D02*
D03*
X10273940Y6554299D02*
D03*
X10019940D02*
D03*
X10273940Y6808299D02*
D03*
X10019940D02*
D03*
X10273940Y7062299D02*
D03*
X10019940D02*
D03*
X10273940Y7316299D02*
D03*
X10019940D02*
D03*
X10273940Y7570299D02*
D03*
X10019940D02*
D03*
X10273940Y7824299D02*
D03*
X10019940D02*
D03*
X10273940Y8078299D02*
D03*
X10019940D02*
D03*
X10273940Y8332299D02*
D03*
X10019940D02*
D03*
X10274254Y8840299D02*
D03*
X10273701Y8586299D02*
D03*
X10019940D02*
D03*
%TF.MD5,b62ee8b520d54d685c8e6f574394a87d*%
M02*
