G04*
G04 #@! TF.GenerationSoftware,Altium Limited,Altium Designer,21.5.1 (32)*
G04*
G04 Layer_Color=16711935*
%FSLAX44Y44*%
%MOMM*%
G71*
G04*
G04 #@! TF.SameCoordinates,CE61D733-3D9C-4286-B01C-F70B086857D8*
G04*
G04*
G04 #@! TF.FilePolarity,Positive*
G04*
G01*
G75*
%ADD13C,0.2000*%
G36*
X317050Y898058D02*
X317107D01*
X317182Y898051D01*
X317263Y898045D01*
X317350Y898033D01*
X317444Y898020D01*
X317544Y898008D01*
X317750Y897964D01*
X317969Y897908D01*
X318181Y897833D01*
X318188D01*
X318207Y897820D01*
X318238Y897808D01*
X318275Y897789D01*
X318319Y897770D01*
X318375Y897739D01*
X318500Y897670D01*
X318644Y897583D01*
X318788Y897477D01*
X318931Y897352D01*
X319062Y897208D01*
X319069Y897202D01*
X319075Y897189D01*
X319094Y897164D01*
X319119Y897133D01*
X319144Y897095D01*
X319175Y897045D01*
X319206Y896989D01*
X319244Y896927D01*
X319287Y896858D01*
X319325Y896777D01*
X319362Y896689D01*
X319406Y896596D01*
X319444Y896496D01*
X319481Y896389D01*
X319519Y896277D01*
X319550Y896158D01*
X318788Y895952D01*
Y895958D01*
X318781Y895971D01*
X318775Y896002D01*
X318763Y896033D01*
X318750Y896071D01*
X318731Y896121D01*
X318688Y896233D01*
X318638Y896352D01*
X318575Y896483D01*
X318506Y896608D01*
X318425Y896721D01*
Y896727D01*
X318413Y896733D01*
X318388Y896764D01*
X318338Y896821D01*
X318269Y896883D01*
X318181Y896952D01*
X318075Y897027D01*
X317957Y897102D01*
X317813Y897170D01*
X317807D01*
X317794Y897177D01*
X317775Y897189D01*
X317744Y897195D01*
X317707Y897208D01*
X317663Y897227D01*
X317613Y897239D01*
X317557Y897258D01*
X317425Y897283D01*
X317276Y897314D01*
X317107Y897333D01*
X316932Y897339D01*
X316832D01*
X316782Y897333D01*
X316726D01*
X316663Y897327D01*
X316588Y897314D01*
X316432Y897295D01*
X316263Y897264D01*
X316088Y897220D01*
X315926Y897158D01*
X315920D01*
X315907Y897152D01*
X315888Y897139D01*
X315857Y897127D01*
X315820Y897108D01*
X315782Y897089D01*
X315682Y897033D01*
X315576Y896964D01*
X315463Y896889D01*
X315351Y896796D01*
X315245Y896689D01*
X315232Y896677D01*
X315201Y896639D01*
X315157Y896583D01*
X315101Y896502D01*
X315032Y896408D01*
X314970Y896302D01*
X314901Y896183D01*
X314845Y896058D01*
Y896052D01*
X314832Y896033D01*
X314820Y896002D01*
X314807Y895952D01*
X314789Y895902D01*
X314770Y895833D01*
X314745Y895758D01*
X314726Y895677D01*
X314701Y895583D01*
X314676Y895483D01*
X314657Y895377D01*
X314639Y895265D01*
X314614Y895027D01*
X314601Y894771D01*
Y894759D01*
Y894734D01*
Y894690D01*
X314607Y894627D01*
Y894552D01*
X314620Y894471D01*
X314626Y894377D01*
X314639Y894271D01*
X314651Y894159D01*
X314676Y894046D01*
X314726Y893802D01*
X314801Y893565D01*
X314845Y893446D01*
X314895Y893334D01*
X314901Y893328D01*
X314907Y893309D01*
X314926Y893278D01*
X314951Y893240D01*
X314982Y893190D01*
X315020Y893140D01*
X315063Y893078D01*
X315114Y893009D01*
X315170Y892940D01*
X315232Y892871D01*
X315301Y892803D01*
X315382Y892728D01*
X315463Y892659D01*
X315551Y892597D01*
X315651Y892534D01*
X315751Y892478D01*
X315757D01*
X315776Y892465D01*
X315807Y892453D01*
X315851Y892434D01*
X315901Y892415D01*
X315963Y892390D01*
X316032Y892365D01*
X316113Y892340D01*
X316194Y892315D01*
X316288Y892290D01*
X316494Y892247D01*
X316713Y892215D01*
X316826Y892209D01*
X316944Y892203D01*
X317001D01*
X317038Y892209D01*
X317088D01*
X317144Y892215D01*
X317213Y892222D01*
X317288Y892228D01*
X317450Y892253D01*
X317632Y892290D01*
X317825Y892340D01*
X318019Y892409D01*
X318025D01*
X318044Y892422D01*
X318069Y892428D01*
X318106Y892447D01*
X318150Y892465D01*
X318200Y892490D01*
X318319Y892547D01*
X318444Y892615D01*
X318575Y892690D01*
X318706Y892778D01*
X318819Y892865D01*
Y894059D01*
X316938D01*
Y894815D01*
X319650D01*
Y892434D01*
X319644Y892428D01*
X319625Y892415D01*
X319587Y892384D01*
X319544Y892353D01*
X319487Y892309D01*
X319419Y892265D01*
X319337Y892215D01*
X319256Y892159D01*
X319163Y892097D01*
X319062Y892034D01*
X318844Y891916D01*
X318606Y891797D01*
X318356Y891691D01*
X318350D01*
X318325Y891678D01*
X318294Y891666D01*
X318244Y891653D01*
X318181Y891634D01*
X318113Y891609D01*
X318032Y891591D01*
X317938Y891566D01*
X317838Y891541D01*
X317732Y891522D01*
X317619Y891497D01*
X317500Y891478D01*
X317257Y891453D01*
X316994Y891441D01*
X316901D01*
X316838Y891447D01*
X316751Y891453D01*
X316657Y891459D01*
X316544Y891472D01*
X316426Y891491D01*
X316294Y891509D01*
X316163Y891541D01*
X316019Y891572D01*
X315870Y891609D01*
X315720Y891653D01*
X315570Y891709D01*
X315426Y891772D01*
X315276Y891841D01*
X315270Y891847D01*
X315245Y891859D01*
X315201Y891884D01*
X315151Y891916D01*
X315089Y891959D01*
X315014Y892009D01*
X314932Y892072D01*
X314845Y892141D01*
X314751Y892215D01*
X314657Y892303D01*
X314557Y892403D01*
X314464Y892503D01*
X314370Y892615D01*
X314276Y892740D01*
X314195Y892871D01*
X314114Y893009D01*
X314107Y893015D01*
X314095Y893046D01*
X314076Y893084D01*
X314051Y893146D01*
X314026Y893215D01*
X313989Y893303D01*
X313958Y893403D01*
X313920Y893509D01*
X313883Y893634D01*
X313851Y893765D01*
X313814Y893909D01*
X313789Y894059D01*
X313764Y894215D01*
X313745Y894377D01*
X313733Y894546D01*
X313726Y894721D01*
Y894734D01*
Y894765D01*
Y894815D01*
X313733Y894877D01*
X313739Y894965D01*
X313745Y895059D01*
X313758Y895171D01*
X313776Y895290D01*
X313795Y895421D01*
X313820Y895558D01*
X313851Y895702D01*
X313889Y895852D01*
X313933Y896002D01*
X313989Y896158D01*
X314045Y896308D01*
X314114Y896464D01*
X314120Y896477D01*
X314132Y896502D01*
X314158Y896539D01*
X314189Y896596D01*
X314226Y896664D01*
X314276Y896739D01*
X314333Y896827D01*
X314401Y896920D01*
X314476Y897014D01*
X314564Y897114D01*
X314651Y897214D01*
X314757Y897314D01*
X314864Y897414D01*
X314982Y897508D01*
X315107Y897589D01*
X315238Y897670D01*
X315245Y897676D01*
X315270Y897689D01*
X315313Y897708D01*
X315370Y897733D01*
X315438Y897764D01*
X315520Y897795D01*
X315620Y897833D01*
X315726Y897870D01*
X315845Y897902D01*
X315976Y897939D01*
X316113Y897970D01*
X316263Y898001D01*
X316419Y898026D01*
X316582Y898045D01*
X316757Y898058D01*
X316932Y898064D01*
X317001D01*
X317050Y898058D01*
D02*
G37*
G36*
X325942Y891547D02*
X325067D01*
X321706Y896571D01*
Y891547D01*
X320893D01*
Y897952D01*
X321762D01*
X325130Y892922D01*
Y897952D01*
X325942D01*
Y891547D01*
D02*
G37*
G36*
X329822Y897945D02*
X329903D01*
X329985Y897939D01*
X330172Y897926D01*
X330360Y897914D01*
X330541Y897889D01*
X330628Y897877D01*
X330703Y897858D01*
X330709D01*
X330728Y897851D01*
X330760Y897845D01*
X330797Y897833D01*
X330847Y897820D01*
X330897Y897802D01*
X330960Y897776D01*
X331028Y897751D01*
X331178Y897689D01*
X331334Y897608D01*
X331497Y897514D01*
X331647Y897395D01*
X331653Y897389D01*
X331672Y897377D01*
X331697Y897352D01*
X331728Y897320D01*
X331772Y897277D01*
X331822Y897227D01*
X331872Y897164D01*
X331934Y897102D01*
X331990Y897027D01*
X332053Y896939D01*
X332115Y896852D01*
X332178Y896758D01*
X332240Y896652D01*
X332297Y896539D01*
X332403Y896302D01*
Y896296D01*
X332415Y896271D01*
X332428Y896233D01*
X332440Y896183D01*
X332465Y896121D01*
X332484Y896046D01*
X332509Y895958D01*
X332534Y895864D01*
X332553Y895758D01*
X332578Y895640D01*
X332603Y895515D01*
X332621Y895383D01*
X332634Y895240D01*
X332646Y895096D01*
X332659Y894783D01*
Y894777D01*
Y894752D01*
Y894715D01*
Y894659D01*
X332653Y894596D01*
Y894521D01*
X332646Y894440D01*
X332640Y894346D01*
X332628Y894246D01*
X332615Y894146D01*
X332584Y893928D01*
X332540Y893703D01*
X332484Y893484D01*
Y893478D01*
X332478Y893459D01*
X332465Y893428D01*
X332453Y893390D01*
X332434Y893340D01*
X332415Y893284D01*
X332390Y893221D01*
X332365Y893159D01*
X332303Y893009D01*
X332228Y892853D01*
X332140Y892697D01*
X332047Y892553D01*
Y892547D01*
X332034Y892534D01*
X332022Y892515D01*
X332003Y892490D01*
X331947Y892428D01*
X331878Y892340D01*
X331791Y892247D01*
X331690Y892153D01*
X331584Y892059D01*
X331466Y891972D01*
X331459D01*
X331453Y891965D01*
X331434Y891953D01*
X331409Y891934D01*
X331378Y891922D01*
X331341Y891897D01*
X331253Y891853D01*
X331141Y891803D01*
X331009Y891747D01*
X330859Y891697D01*
X330697Y891653D01*
X330691D01*
X330678Y891647D01*
X330653Y891641D01*
X330616Y891634D01*
X330578Y891628D01*
X330528Y891622D01*
X330466Y891609D01*
X330403Y891603D01*
X330328Y891591D01*
X330253Y891578D01*
X330078Y891566D01*
X329885Y891553D01*
X329672Y891547D01*
X327360D01*
Y897952D01*
X329753D01*
X329822Y897945D01*
D02*
G37*
G36*
X306491Y893796D02*
X307353D01*
Y893078D01*
X306491D01*
Y891547D01*
X305703D01*
Y893078D01*
X302923D01*
Y893796D01*
X305847Y897952D01*
X306491D01*
Y893796D01*
D02*
G37*
G36*
X302629Y897195D02*
X300511D01*
Y891547D01*
X299661D01*
Y897195D01*
X297549D01*
Y897952D01*
X302629D01*
Y897195D01*
D02*
G37*
G36*
X334252Y898051D02*
X334277Y898014D01*
X334321Y897958D01*
X334371Y897877D01*
X334440Y897776D01*
X334521Y897658D01*
X334608Y897527D01*
X334696Y897377D01*
X334796Y897214D01*
X334896Y897045D01*
X334996Y896858D01*
X335096Y896671D01*
X335196Y896471D01*
X335290Y896271D01*
X335371Y896065D01*
X335452Y895858D01*
X335458Y895846D01*
X335465Y895815D01*
X335483Y895764D01*
X335502Y895696D01*
X335533Y895608D01*
X335558Y895502D01*
X335589Y895383D01*
X335621Y895252D01*
X335652Y895108D01*
X335683Y894952D01*
X335714Y894790D01*
X335740Y894615D01*
X335758Y894434D01*
X335777Y894252D01*
X335783Y894059D01*
X335789Y893865D01*
Y893859D01*
Y893852D01*
Y893834D01*
Y893815D01*
Y893746D01*
X335783Y893665D01*
X335777Y893559D01*
X335765Y893434D01*
X335752Y893290D01*
X335733Y893140D01*
X335708Y892971D01*
X335677Y892790D01*
X335639Y892603D01*
X335596Y892403D01*
X335546Y892203D01*
X335483Y891997D01*
X335415Y891790D01*
X335333Y891584D01*
X335327Y891572D01*
X335315Y891534D01*
X335290Y891478D01*
X335252Y891403D01*
X335208Y891303D01*
X335158Y891197D01*
X335096Y891072D01*
X335027Y890935D01*
X334952Y890791D01*
X334871Y890635D01*
X334777Y890478D01*
X334683Y890316D01*
X334471Y889985D01*
X334359Y889822D01*
X334240Y889666D01*
X333677D01*
X333684Y889672D01*
X333690Y889691D01*
X333709Y889722D01*
X333734Y889760D01*
X333765Y889810D01*
X333796Y889872D01*
X333840Y889947D01*
X333884Y890029D01*
X333927Y890116D01*
X333984Y890216D01*
X334034Y890322D01*
X334090Y890441D01*
X334146Y890566D01*
X334209Y890697D01*
X334271Y890835D01*
X334334Y890978D01*
X334452Y891284D01*
X334571Y891609D01*
X334683Y891959D01*
X334777Y892322D01*
X334865Y892697D01*
X334927Y893078D01*
X334952Y893278D01*
X334971Y893471D01*
X334977Y893665D01*
X334983Y893865D01*
Y893877D01*
Y893903D01*
Y893946D01*
Y894009D01*
X334977Y894078D01*
X334971Y894165D01*
X334965Y894265D01*
X334958Y894377D01*
X334952Y894496D01*
X334933Y894621D01*
X334921Y894759D01*
X334902Y894896D01*
X334852Y895190D01*
X334790Y895490D01*
Y895496D01*
X334784Y895521D01*
X334777Y895552D01*
X334765Y895602D01*
X334746Y895658D01*
X334727Y895727D01*
X334709Y895808D01*
X334683Y895896D01*
X334659Y895990D01*
X334627Y896083D01*
X334552Y896302D01*
X334471Y896527D01*
X334377Y896752D01*
Y896758D01*
X334371Y896770D01*
X334359Y896796D01*
X334340Y896827D01*
X334321Y896870D01*
X334296Y896927D01*
X334265Y896989D01*
X334227Y897064D01*
X334184Y897152D01*
X334134Y897245D01*
X334077Y897352D01*
X334009Y897470D01*
X333940Y897602D01*
X333859Y897745D01*
X333771Y897895D01*
X333677Y898064D01*
X334240D01*
X334252Y898051D01*
D02*
G37*
G36*
X312920D02*
X312902Y898026D01*
X312877Y897977D01*
X312839Y897914D01*
X312795Y897839D01*
X312752Y897758D01*
X312695Y897658D01*
X312639Y897558D01*
X312520Y897345D01*
X312408Y897133D01*
X312352Y897027D01*
X312308Y896933D01*
X312264Y896845D01*
X312227Y896764D01*
Y896758D01*
X312214Y896739D01*
X312202Y896702D01*
X312183Y896658D01*
X312158Y896602D01*
X312133Y896539D01*
X312108Y896464D01*
X312077Y896377D01*
X312039Y896289D01*
X312008Y896189D01*
X311939Y895977D01*
X311871Y895746D01*
X311808Y895502D01*
Y895496D01*
X311802Y895465D01*
X311789Y895421D01*
X311777Y895365D01*
X311764Y895290D01*
X311752Y895202D01*
X311733Y895102D01*
X311714Y894996D01*
X311696Y894871D01*
X311683Y894746D01*
X311664Y894609D01*
X311652Y894471D01*
X311627Y894171D01*
X311621Y893865D01*
Y893859D01*
Y893840D01*
Y893809D01*
Y893771D01*
X311627Y893721D01*
Y893659D01*
X311633Y893584D01*
X311639Y893503D01*
X311652Y893415D01*
X311658Y893315D01*
X311677Y893203D01*
X311689Y893090D01*
X311708Y892965D01*
X311733Y892834D01*
X311758Y892697D01*
X311783Y892553D01*
X311852Y892240D01*
X311939Y891916D01*
X312046Y891566D01*
X312171Y891203D01*
X312320Y890828D01*
X312408Y890641D01*
X312495Y890447D01*
X312595Y890253D01*
X312695Y890060D01*
X312808Y889860D01*
X312927Y889666D01*
X312364D01*
X312358Y889679D01*
X312333Y889704D01*
X312302Y889747D01*
X312258Y889810D01*
X312195Y889891D01*
X312133Y889985D01*
X312058Y890091D01*
X311983Y890216D01*
X311896Y890347D01*
X311808Y890497D01*
X311714Y890653D01*
X311621Y890822D01*
X311527Y891003D01*
X311433Y891191D01*
X311346Y891384D01*
X311258Y891584D01*
Y891591D01*
X311252Y891597D01*
X311239Y891634D01*
X311215Y891697D01*
X311189Y891772D01*
X311158Y891878D01*
X311121Y891997D01*
X311077Y892128D01*
X311040Y892284D01*
X310996Y892447D01*
X310952Y892622D01*
X310915Y892815D01*
X310883Y893009D01*
X310858Y893215D01*
X310833Y893428D01*
X310821Y893646D01*
X310815Y893865D01*
Y893877D01*
Y893915D01*
Y893965D01*
X310821Y894046D01*
X310827Y894134D01*
X310833Y894246D01*
X310840Y894371D01*
X310858Y894509D01*
X310871Y894652D01*
X310896Y894809D01*
X310921Y894977D01*
X310952Y895146D01*
X310990Y895321D01*
X311040Y895502D01*
X311089Y895677D01*
X311146Y895858D01*
Y895864D01*
X311152Y895871D01*
X311164Y895908D01*
X311189Y895971D01*
X311221Y896046D01*
X311264Y896146D01*
X311315Y896264D01*
X311377Y896402D01*
X311446Y896552D01*
X311527Y896708D01*
X311614Y896883D01*
X311714Y897064D01*
X311827Y897258D01*
X311946Y897452D01*
X312077Y897652D01*
X312214Y897858D01*
X312364Y898064D01*
X312927D01*
X312920Y898051D01*
D02*
G37*
G36*
X1052976Y316712D02*
X1053032D01*
X1053107Y316706D01*
X1053188Y316700D01*
X1053276Y316688D01*
X1053370Y316675D01*
X1053470Y316663D01*
X1053676Y316619D01*
X1053895Y316562D01*
X1054107Y316488D01*
X1054113D01*
X1054132Y316475D01*
X1054163Y316463D01*
X1054201Y316444D01*
X1054244Y316425D01*
X1054301Y316394D01*
X1054426Y316325D01*
X1054569Y316238D01*
X1054713Y316131D01*
X1054857Y316006D01*
X1054988Y315863D01*
X1054994Y315856D01*
X1055001Y315844D01*
X1055019Y315819D01*
X1055044Y315788D01*
X1055069Y315750D01*
X1055100Y315700D01*
X1055132Y315644D01*
X1055169Y315581D01*
X1055213Y315513D01*
X1055250Y315432D01*
X1055288Y315344D01*
X1055332Y315250D01*
X1055369Y315150D01*
X1055407Y315044D01*
X1055444Y314932D01*
X1055475Y314813D01*
X1054713Y314607D01*
Y314613D01*
X1054707Y314625D01*
X1054700Y314657D01*
X1054688Y314688D01*
X1054676Y314725D01*
X1054657Y314776D01*
X1054613Y314888D01*
X1054563Y315007D01*
X1054501Y315138D01*
X1054432Y315263D01*
X1054351Y315375D01*
Y315382D01*
X1054338Y315388D01*
X1054313Y315419D01*
X1054263Y315475D01*
X1054194Y315538D01*
X1054107Y315606D01*
X1054001Y315681D01*
X1053882Y315756D01*
X1053738Y315825D01*
X1053732D01*
X1053719Y315832D01*
X1053701Y315844D01*
X1053670Y315850D01*
X1053632Y315863D01*
X1053588Y315882D01*
X1053538Y315894D01*
X1053482Y315913D01*
X1053351Y315938D01*
X1053201Y315969D01*
X1053032Y315988D01*
X1052857Y315994D01*
X1052757D01*
X1052707Y315988D01*
X1052651D01*
X1052589Y315981D01*
X1052514Y315969D01*
X1052357Y315950D01*
X1052189Y315919D01*
X1052014Y315875D01*
X1051851Y315813D01*
X1051845D01*
X1051833Y315807D01*
X1051814Y315794D01*
X1051783Y315781D01*
X1051745Y315763D01*
X1051708Y315744D01*
X1051608Y315688D01*
X1051501Y315619D01*
X1051389Y315544D01*
X1051276Y315450D01*
X1051170Y315344D01*
X1051158Y315332D01*
X1051126Y315294D01*
X1051083Y315238D01*
X1051027Y315157D01*
X1050958Y315063D01*
X1050895Y314957D01*
X1050826Y314838D01*
X1050770Y314713D01*
Y314707D01*
X1050758Y314688D01*
X1050745Y314657D01*
X1050733Y314607D01*
X1050714Y314557D01*
X1050695Y314488D01*
X1050670Y314413D01*
X1050652Y314332D01*
X1050627Y314238D01*
X1050602Y314138D01*
X1050583Y314032D01*
X1050564Y313920D01*
X1050539Y313682D01*
X1050527Y313426D01*
Y313413D01*
Y313388D01*
Y313345D01*
X1050533Y313282D01*
Y313207D01*
X1050545Y313126D01*
X1050552Y313032D01*
X1050564Y312926D01*
X1050577Y312813D01*
X1050602Y312701D01*
X1050652Y312457D01*
X1050726Y312220D01*
X1050770Y312101D01*
X1050820Y311989D01*
X1050826Y311982D01*
X1050833Y311964D01*
X1050852Y311933D01*
X1050876Y311895D01*
X1050908Y311845D01*
X1050945Y311795D01*
X1050989Y311733D01*
X1051039Y311664D01*
X1051095Y311595D01*
X1051158Y311526D01*
X1051226Y311458D01*
X1051308Y311383D01*
X1051389Y311314D01*
X1051476Y311251D01*
X1051576Y311189D01*
X1051676Y311133D01*
X1051683D01*
X1051701Y311120D01*
X1051732Y311108D01*
X1051776Y311089D01*
X1051826Y311070D01*
X1051889Y311045D01*
X1051957Y311020D01*
X1052039Y310995D01*
X1052120Y310970D01*
X1052214Y310945D01*
X1052420Y310902D01*
X1052639Y310870D01*
X1052751Y310864D01*
X1052870Y310858D01*
X1052926D01*
X1052963Y310864D01*
X1053014D01*
X1053070Y310870D01*
X1053138Y310877D01*
X1053213Y310883D01*
X1053376Y310908D01*
X1053557Y310945D01*
X1053751Y310995D01*
X1053944Y311064D01*
X1053951D01*
X1053969Y311076D01*
X1053995Y311083D01*
X1054032Y311101D01*
X1054076Y311120D01*
X1054126Y311145D01*
X1054244Y311201D01*
X1054369Y311270D01*
X1054501Y311345D01*
X1054632Y311433D01*
X1054744Y311520D01*
Y312714D01*
X1052863D01*
Y313470D01*
X1055575D01*
Y311089D01*
X1055569Y311083D01*
X1055550Y311070D01*
X1055513Y311039D01*
X1055469Y311008D01*
X1055413Y310964D01*
X1055344Y310920D01*
X1055263Y310870D01*
X1055182Y310814D01*
X1055088Y310751D01*
X1054988Y310689D01*
X1054769Y310570D01*
X1054532Y310452D01*
X1054282Y310345D01*
X1054276D01*
X1054251Y310333D01*
X1054219Y310320D01*
X1054169Y310308D01*
X1054107Y310289D01*
X1054038Y310264D01*
X1053957Y310245D01*
X1053863Y310220D01*
X1053763Y310195D01*
X1053657Y310177D01*
X1053545Y310152D01*
X1053426Y310133D01*
X1053182Y310108D01*
X1052920Y310095D01*
X1052826D01*
X1052764Y310102D01*
X1052676Y310108D01*
X1052582Y310114D01*
X1052470Y310127D01*
X1052351Y310145D01*
X1052220Y310164D01*
X1052089Y310195D01*
X1051945Y310227D01*
X1051795Y310264D01*
X1051645Y310308D01*
X1051495Y310364D01*
X1051351Y310427D01*
X1051201Y310495D01*
X1051195Y310502D01*
X1051170Y310514D01*
X1051126Y310539D01*
X1051077Y310570D01*
X1051014Y310614D01*
X1050939Y310664D01*
X1050858Y310727D01*
X1050770Y310795D01*
X1050677Y310870D01*
X1050583Y310958D01*
X1050483Y311058D01*
X1050389Y311158D01*
X1050295Y311270D01*
X1050202Y311395D01*
X1050120Y311526D01*
X1050039Y311664D01*
X1050033Y311670D01*
X1050021Y311701D01*
X1050002Y311739D01*
X1049977Y311801D01*
X1049952Y311870D01*
X1049914Y311957D01*
X1049883Y312057D01*
X1049846Y312164D01*
X1049808Y312289D01*
X1049777Y312420D01*
X1049739Y312564D01*
X1049714Y312714D01*
X1049689Y312870D01*
X1049671Y313032D01*
X1049658Y313201D01*
X1049652Y313376D01*
Y313388D01*
Y313420D01*
Y313470D01*
X1049658Y313532D01*
X1049664Y313619D01*
X1049671Y313713D01*
X1049683Y313826D01*
X1049702Y313944D01*
X1049721Y314076D01*
X1049746Y314213D01*
X1049777Y314357D01*
X1049814Y314507D01*
X1049858Y314657D01*
X1049914Y314813D01*
X1049970Y314963D01*
X1050039Y315119D01*
X1050045Y315132D01*
X1050058Y315157D01*
X1050083Y315194D01*
X1050114Y315250D01*
X1050152Y315319D01*
X1050202Y315394D01*
X1050258Y315482D01*
X1050327Y315575D01*
X1050402Y315669D01*
X1050489Y315769D01*
X1050577Y315869D01*
X1050683Y315969D01*
X1050789Y316069D01*
X1050908Y316163D01*
X1051033Y316244D01*
X1051164Y316325D01*
X1051170Y316331D01*
X1051195Y316344D01*
X1051239Y316363D01*
X1051295Y316388D01*
X1051364Y316419D01*
X1051445Y316450D01*
X1051545Y316488D01*
X1051651Y316525D01*
X1051770Y316556D01*
X1051901Y316594D01*
X1052039Y316625D01*
X1052189Y316656D01*
X1052345Y316681D01*
X1052507Y316700D01*
X1052682Y316712D01*
X1052857Y316719D01*
X1052926D01*
X1052976Y316712D01*
D02*
G37*
G36*
X1061867Y310202D02*
X1060993D01*
X1057631Y315225D01*
Y310202D01*
X1056819D01*
Y316606D01*
X1057687D01*
X1061055Y311576D01*
Y316606D01*
X1061867D01*
Y310202D01*
D02*
G37*
G36*
X1043054Y315775D02*
X1040485D01*
X1040142Y314044D01*
X1040148Y314051D01*
X1040167Y314063D01*
X1040198Y314082D01*
X1040242Y314107D01*
X1040292Y314138D01*
X1040360Y314176D01*
X1040429Y314207D01*
X1040510Y314251D01*
X1040598Y314288D01*
X1040692Y314319D01*
X1040898Y314388D01*
X1041004Y314413D01*
X1041116Y314432D01*
X1041235Y314444D01*
X1041354Y314451D01*
X1041391D01*
X1041435Y314444D01*
X1041498D01*
X1041566Y314432D01*
X1041654Y314419D01*
X1041748Y314401D01*
X1041848Y314376D01*
X1041954Y314344D01*
X1042073Y314307D01*
X1042191Y314263D01*
X1042310Y314207D01*
X1042429Y314138D01*
X1042547Y314063D01*
X1042660Y313969D01*
X1042772Y313869D01*
X1042779Y313863D01*
X1042797Y313845D01*
X1042829Y313807D01*
X1042866Y313763D01*
X1042910Y313707D01*
X1042953Y313638D01*
X1043010Y313557D01*
X1043066Y313463D01*
X1043116Y313363D01*
X1043172Y313251D01*
X1043216Y313126D01*
X1043266Y312995D01*
X1043297Y312851D01*
X1043328Y312701D01*
X1043347Y312539D01*
X1043353Y312370D01*
Y312357D01*
Y312332D01*
X1043347Y312289D01*
Y312226D01*
X1043341Y312151D01*
X1043328Y312064D01*
X1043310Y311964D01*
X1043291Y311857D01*
X1043260Y311745D01*
X1043229Y311620D01*
X1043185Y311495D01*
X1043135Y311370D01*
X1043079Y311245D01*
X1043010Y311114D01*
X1042928Y310989D01*
X1042841Y310870D01*
X1042835Y310864D01*
X1042810Y310839D01*
X1042779Y310802D01*
X1042729Y310751D01*
X1042666Y310689D01*
X1042591Y310627D01*
X1042504Y310558D01*
X1042404Y310483D01*
X1042285Y310408D01*
X1042160Y310339D01*
X1042022Y310277D01*
X1041873Y310214D01*
X1041710Y310164D01*
X1041541Y310127D01*
X1041354Y310102D01*
X1041160Y310095D01*
X1041123D01*
X1041079Y310102D01*
X1041016D01*
X1040942Y310108D01*
X1040854Y310120D01*
X1040760Y310139D01*
X1040654Y310158D01*
X1040542Y310183D01*
X1040429Y310214D01*
X1040311Y310252D01*
X1040185Y310302D01*
X1040067Y310358D01*
X1039948Y310420D01*
X1039836Y310495D01*
X1039729Y310583D01*
X1039723Y310589D01*
X1039704Y310608D01*
X1039679Y310633D01*
X1039642Y310670D01*
X1039598Y310720D01*
X1039554Y310783D01*
X1039498Y310851D01*
X1039448Y310926D01*
X1039392Y311014D01*
X1039336Y311114D01*
X1039286Y311220D01*
X1039236Y311339D01*
X1039192Y311464D01*
X1039155Y311595D01*
X1039123Y311733D01*
X1039105Y311882D01*
X1039929Y311951D01*
Y311945D01*
X1039936Y311926D01*
X1039942Y311895D01*
X1039948Y311851D01*
X1039961Y311801D01*
X1039973Y311745D01*
X1040017Y311608D01*
X1040073Y311464D01*
X1040142Y311314D01*
X1040236Y311164D01*
X1040292Y311101D01*
X1040348Y311039D01*
X1040354Y311033D01*
X1040367Y311026D01*
X1040385Y311014D01*
X1040410Y310995D01*
X1040442Y310970D01*
X1040479Y310945D01*
X1040579Y310889D01*
X1040698Y310833D01*
X1040835Y310789D01*
X1040992Y310751D01*
X1041073Y310745D01*
X1041160Y310739D01*
X1041217D01*
X1041254Y310745D01*
X1041304Y310751D01*
X1041360Y310764D01*
X1041423Y310777D01*
X1041491Y310795D01*
X1041648Y310845D01*
X1041723Y310877D01*
X1041804Y310920D01*
X1041885Y310970D01*
X1041966Y311026D01*
X1042048Y311089D01*
X1042122Y311164D01*
X1042129Y311170D01*
X1042141Y311183D01*
X1042160Y311208D01*
X1042185Y311245D01*
X1042216Y311283D01*
X1042247Y311339D01*
X1042285Y311401D01*
X1042322Y311470D01*
X1042354Y311545D01*
X1042391Y311632D01*
X1042422Y311726D01*
X1042454Y311826D01*
X1042479Y311933D01*
X1042497Y312051D01*
X1042510Y312170D01*
X1042516Y312301D01*
Y312307D01*
Y312332D01*
Y312364D01*
X1042510Y312414D01*
X1042504Y312470D01*
X1042497Y312532D01*
X1042485Y312607D01*
X1042466Y312689D01*
X1042422Y312857D01*
X1042391Y312945D01*
X1042354Y313032D01*
X1042310Y313120D01*
X1042260Y313207D01*
X1042204Y313288D01*
X1042135Y313363D01*
X1042129Y313370D01*
X1042116Y313382D01*
X1042097Y313401D01*
X1042066Y313426D01*
X1042029Y313457D01*
X1041985Y313488D01*
X1041929Y313526D01*
X1041873Y313563D01*
X1041804Y313594D01*
X1041729Y313632D01*
X1041648Y313663D01*
X1041560Y313694D01*
X1041460Y313720D01*
X1041360Y313738D01*
X1041254Y313751D01*
X1041142Y313757D01*
X1041079D01*
X1041041Y313751D01*
X1041004D01*
X1040910Y313738D01*
X1040804Y313713D01*
X1040692Y313682D01*
X1040573Y313638D01*
X1040454Y313582D01*
X1040448D01*
X1040442Y313576D01*
X1040404Y313551D01*
X1040348Y313513D01*
X1040285Y313463D01*
X1040204Y313395D01*
X1040129Y313320D01*
X1040048Y313232D01*
X1039979Y313138D01*
X1039242Y313232D01*
X1039861Y316525D01*
X1043054D01*
Y315775D01*
D02*
G37*
G36*
X1065748Y316600D02*
X1065829D01*
X1065910Y316594D01*
X1066098Y316581D01*
X1066285Y316569D01*
X1066466Y316544D01*
X1066554Y316531D01*
X1066629Y316513D01*
X1066635D01*
X1066654Y316506D01*
X1066685Y316500D01*
X1066722Y316488D01*
X1066772Y316475D01*
X1066822Y316456D01*
X1066885Y316431D01*
X1066954Y316406D01*
X1067104Y316344D01*
X1067260Y316263D01*
X1067422Y316169D01*
X1067572Y316050D01*
X1067579Y316044D01*
X1067597Y316031D01*
X1067622Y316006D01*
X1067654Y315975D01*
X1067697Y315931D01*
X1067747Y315882D01*
X1067797Y315819D01*
X1067860Y315756D01*
X1067916Y315681D01*
X1067978Y315594D01*
X1068041Y315507D01*
X1068103Y315413D01*
X1068166Y315307D01*
X1068222Y315194D01*
X1068328Y314957D01*
Y314950D01*
X1068341Y314925D01*
X1068353Y314888D01*
X1068366Y314838D01*
X1068391Y314776D01*
X1068410Y314701D01*
X1068435Y314613D01*
X1068459Y314519D01*
X1068478Y314413D01*
X1068503Y314294D01*
X1068528Y314169D01*
X1068547Y314038D01*
X1068559Y313895D01*
X1068572Y313751D01*
X1068585Y313438D01*
Y313432D01*
Y313407D01*
Y313370D01*
Y313313D01*
X1068578Y313251D01*
Y313176D01*
X1068572Y313095D01*
X1068566Y313001D01*
X1068553Y312901D01*
X1068541Y312801D01*
X1068510Y312582D01*
X1068466Y312357D01*
X1068410Y312139D01*
Y312132D01*
X1068403Y312114D01*
X1068391Y312082D01*
X1068378Y312045D01*
X1068360Y311995D01*
X1068341Y311939D01*
X1068316Y311876D01*
X1068291Y311814D01*
X1068228Y311664D01*
X1068153Y311508D01*
X1068066Y311351D01*
X1067972Y311208D01*
Y311201D01*
X1067960Y311189D01*
X1067947Y311170D01*
X1067928Y311145D01*
X1067872Y311083D01*
X1067803Y310995D01*
X1067716Y310902D01*
X1067616Y310808D01*
X1067510Y310714D01*
X1067391Y310627D01*
X1067385D01*
X1067378Y310620D01*
X1067360Y310608D01*
X1067335Y310589D01*
X1067304Y310577D01*
X1067266Y310552D01*
X1067179Y310508D01*
X1067066Y310458D01*
X1066935Y310402D01*
X1066785Y310352D01*
X1066622Y310308D01*
X1066616D01*
X1066604Y310302D01*
X1066579Y310295D01*
X1066541Y310289D01*
X1066504Y310283D01*
X1066454Y310277D01*
X1066391Y310264D01*
X1066329Y310258D01*
X1066254Y310245D01*
X1066179Y310233D01*
X1066004Y310220D01*
X1065810Y310208D01*
X1065598Y310202D01*
X1063286D01*
Y316606D01*
X1065679D01*
X1065748Y316600D01*
D02*
G37*
G36*
X1038555Y315850D02*
X1036436D01*
Y310202D01*
X1035587D01*
Y315850D01*
X1033475D01*
Y316606D01*
X1038555D01*
Y315850D01*
D02*
G37*
G36*
X1070178Y316706D02*
X1070203Y316669D01*
X1070247Y316612D01*
X1070296Y316531D01*
X1070365Y316431D01*
X1070446Y316313D01*
X1070534Y316181D01*
X1070621Y316031D01*
X1070721Y315869D01*
X1070821Y315700D01*
X1070921Y315513D01*
X1071021Y315325D01*
X1071121Y315125D01*
X1071215Y314925D01*
X1071296Y314719D01*
X1071377Y314513D01*
X1071384Y314501D01*
X1071390Y314469D01*
X1071409Y314419D01*
X1071428Y314351D01*
X1071459Y314263D01*
X1071484Y314157D01*
X1071515Y314038D01*
X1071546Y313907D01*
X1071578Y313763D01*
X1071609Y313607D01*
X1071640Y313445D01*
X1071665Y313270D01*
X1071684Y313088D01*
X1071702Y312907D01*
X1071709Y312714D01*
X1071715Y312520D01*
Y312514D01*
Y312507D01*
Y312489D01*
Y312470D01*
Y312401D01*
X1071709Y312320D01*
X1071702Y312214D01*
X1071690Y312089D01*
X1071677Y311945D01*
X1071659Y311795D01*
X1071634Y311626D01*
X1071602Y311445D01*
X1071565Y311258D01*
X1071521Y311058D01*
X1071471Y310858D01*
X1071409Y310652D01*
X1071340Y310445D01*
X1071259Y310239D01*
X1071253Y310227D01*
X1071240Y310189D01*
X1071215Y310133D01*
X1071178Y310058D01*
X1071134Y309958D01*
X1071084Y309852D01*
X1071021Y309727D01*
X1070953Y309589D01*
X1070878Y309446D01*
X1070796Y309289D01*
X1070703Y309133D01*
X1070609Y308971D01*
X1070396Y308640D01*
X1070284Y308477D01*
X1070165Y308321D01*
X1069603D01*
X1069609Y308327D01*
X1069615Y308346D01*
X1069634Y308377D01*
X1069659Y308415D01*
X1069690Y308465D01*
X1069722Y308527D01*
X1069765Y308602D01*
X1069809Y308683D01*
X1069853Y308771D01*
X1069909Y308871D01*
X1069959Y308977D01*
X1070015Y309096D01*
X1070072Y309221D01*
X1070134Y309352D01*
X1070197Y309489D01*
X1070259Y309633D01*
X1070378Y309939D01*
X1070497Y310264D01*
X1070609Y310614D01*
X1070703Y310977D01*
X1070790Y311351D01*
X1070853Y311733D01*
X1070878Y311933D01*
X1070896Y312126D01*
X1070903Y312320D01*
X1070909Y312520D01*
Y312532D01*
Y312557D01*
Y312601D01*
Y312663D01*
X1070903Y312732D01*
X1070896Y312820D01*
X1070890Y312920D01*
X1070884Y313032D01*
X1070878Y313151D01*
X1070859Y313276D01*
X1070846Y313413D01*
X1070828Y313551D01*
X1070778Y313845D01*
X1070715Y314144D01*
Y314151D01*
X1070709Y314176D01*
X1070703Y314207D01*
X1070690Y314257D01*
X1070671Y314313D01*
X1070653Y314382D01*
X1070634Y314463D01*
X1070609Y314551D01*
X1070584Y314644D01*
X1070553Y314738D01*
X1070478Y314957D01*
X1070396Y315182D01*
X1070303Y315407D01*
Y315413D01*
X1070296Y315425D01*
X1070284Y315450D01*
X1070265Y315482D01*
X1070247Y315525D01*
X1070222Y315581D01*
X1070190Y315644D01*
X1070153Y315719D01*
X1070109Y315807D01*
X1070059Y315900D01*
X1070003Y316006D01*
X1069934Y316125D01*
X1069865Y316256D01*
X1069784Y316400D01*
X1069697Y316550D01*
X1069603Y316719D01*
X1070165D01*
X1070178Y316706D01*
D02*
G37*
G36*
X1048846D02*
X1048827Y316681D01*
X1048802Y316631D01*
X1048765Y316569D01*
X1048721Y316494D01*
X1048677Y316413D01*
X1048621Y316313D01*
X1048565Y316213D01*
X1048446Y316000D01*
X1048333Y315788D01*
X1048277Y315681D01*
X1048233Y315588D01*
X1048190Y315500D01*
X1048152Y315419D01*
Y315413D01*
X1048140Y315394D01*
X1048127Y315357D01*
X1048109Y315313D01*
X1048083Y315257D01*
X1048058Y315194D01*
X1048034Y315119D01*
X1048002Y315032D01*
X1047965Y314944D01*
X1047934Y314844D01*
X1047865Y314632D01*
X1047796Y314401D01*
X1047734Y314157D01*
Y314151D01*
X1047727Y314119D01*
X1047715Y314076D01*
X1047702Y314019D01*
X1047690Y313944D01*
X1047677Y313857D01*
X1047659Y313757D01*
X1047640Y313651D01*
X1047621Y313526D01*
X1047609Y313401D01*
X1047590Y313263D01*
X1047577Y313126D01*
X1047552Y312826D01*
X1047546Y312520D01*
Y312514D01*
Y312495D01*
Y312464D01*
Y312426D01*
X1047552Y312376D01*
Y312314D01*
X1047559Y312239D01*
X1047565Y312157D01*
X1047577Y312070D01*
X1047584Y311970D01*
X1047602Y311857D01*
X1047615Y311745D01*
X1047634Y311620D01*
X1047659Y311489D01*
X1047684Y311351D01*
X1047709Y311208D01*
X1047777Y310895D01*
X1047865Y310570D01*
X1047971Y310220D01*
X1048096Y309858D01*
X1048246Y309483D01*
X1048333Y309296D01*
X1048421Y309102D01*
X1048521Y308908D01*
X1048621Y308715D01*
X1048733Y308515D01*
X1048852Y308321D01*
X1048290D01*
X1048283Y308333D01*
X1048258Y308358D01*
X1048227Y308402D01*
X1048184Y308465D01*
X1048121Y308546D01*
X1048058Y308640D01*
X1047983Y308746D01*
X1047908Y308871D01*
X1047821Y309002D01*
X1047734Y309152D01*
X1047640Y309308D01*
X1047546Y309477D01*
X1047452Y309658D01*
X1047359Y309846D01*
X1047271Y310039D01*
X1047184Y310239D01*
Y310245D01*
X1047178Y310252D01*
X1047165Y310289D01*
X1047140Y310352D01*
X1047115Y310427D01*
X1047084Y310533D01*
X1047046Y310652D01*
X1047002Y310783D01*
X1046965Y310939D01*
X1046921Y311101D01*
X1046878Y311276D01*
X1046840Y311470D01*
X1046809Y311664D01*
X1046784Y311870D01*
X1046759Y312082D01*
X1046746Y312301D01*
X1046740Y312520D01*
Y312532D01*
Y312570D01*
Y312620D01*
X1046746Y312701D01*
X1046753Y312789D01*
X1046759Y312901D01*
X1046765Y313026D01*
X1046784Y313163D01*
X1046796Y313307D01*
X1046821Y313463D01*
X1046846Y313632D01*
X1046878Y313801D01*
X1046915Y313976D01*
X1046965Y314157D01*
X1047015Y314332D01*
X1047071Y314513D01*
Y314519D01*
X1047077Y314526D01*
X1047090Y314563D01*
X1047115Y314625D01*
X1047146Y314701D01*
X1047190Y314800D01*
X1047240Y314919D01*
X1047302Y315057D01*
X1047371Y315207D01*
X1047452Y315363D01*
X1047540Y315538D01*
X1047640Y315719D01*
X1047752Y315913D01*
X1047871Y316106D01*
X1048002Y316306D01*
X1048140Y316513D01*
X1048290Y316719D01*
X1048852D01*
X1048846Y316706D01*
D02*
G37*
G36*
X636256Y461890D02*
X636281Y461871D01*
X636319Y461833D01*
X636369Y461790D01*
X636438Y461734D01*
X636513Y461671D01*
X636606Y461596D01*
X636713Y461515D01*
X636831Y461427D01*
X636963Y461327D01*
X637106Y461227D01*
X637262Y461121D01*
X637425Y461015D01*
X637600Y460902D01*
X637787Y460790D01*
X637987Y460677D01*
X638000Y460671D01*
X638037Y460653D01*
X638093Y460621D01*
X638175Y460578D01*
X638268Y460528D01*
X638387Y460471D01*
X638518Y460409D01*
X638668Y460340D01*
X638831Y460265D01*
X638999Y460190D01*
X639187Y460109D01*
X639374Y460034D01*
X639574Y459959D01*
X639781Y459884D01*
X639993Y459815D01*
X640205Y459753D01*
X640212D01*
X640243Y459740D01*
X640287Y459728D01*
X640343Y459715D01*
X640418Y459697D01*
X640512Y459672D01*
X640612Y459653D01*
X640724Y459628D01*
X640849Y459603D01*
X640986Y459578D01*
X641130Y459553D01*
X641286Y459528D01*
X641443Y459503D01*
X641611Y459484D01*
X641961Y459453D01*
Y458647D01*
X641955D01*
X641924D01*
X641886Y458653D01*
X641830D01*
X641755Y458659D01*
X641668Y458666D01*
X641568Y458678D01*
X641455Y458690D01*
X641324Y458703D01*
X641186Y458722D01*
X641037Y458747D01*
X640880Y458778D01*
X640705Y458809D01*
X640530Y458847D01*
X640337Y458890D01*
X640143Y458941D01*
X640137D01*
X640130Y458947D01*
X640093Y458953D01*
X640037Y458972D01*
X639962Y458991D01*
X639862Y459022D01*
X639749Y459059D01*
X639624Y459097D01*
X639481Y459147D01*
X639331Y459203D01*
X639168Y459265D01*
X638993Y459328D01*
X638818Y459403D01*
X638450Y459565D01*
X638075Y459753D01*
X638062Y459759D01*
X638031Y459778D01*
X637981Y459809D01*
X637906Y459846D01*
X637825Y459897D01*
X637725Y459953D01*
X637612Y460022D01*
X637494Y460096D01*
X637362Y460178D01*
X637225Y460265D01*
X636944Y460453D01*
X636663Y460665D01*
X636525Y460771D01*
X636394Y460884D01*
Y457753D01*
X635638D01*
Y461896D01*
X636250D01*
X636256Y461890D01*
D02*
G37*
G36*
X636313Y455029D02*
X641961D01*
Y454179D01*
X636313D01*
Y452067D01*
X635557D01*
Y457147D01*
X636313D01*
Y455029D01*
D02*
G37*
G36*
X889177Y989726D02*
X889246Y989720D01*
X889321Y989708D01*
X889402Y989695D01*
X889495Y989683D01*
X889689Y989626D01*
X889795Y989595D01*
X889895Y989551D01*
X890002Y989508D01*
X890102Y989445D01*
X890201Y989383D01*
X890295Y989308D01*
X890302Y989302D01*
X890314Y989289D01*
X890339Y989264D01*
X890370Y989233D01*
X890408Y989189D01*
X890452Y989133D01*
X890501Y989070D01*
X890552Y989001D01*
X890601Y988926D01*
X890651Y988833D01*
X890695Y988739D01*
X890745Y988633D01*
X890789Y988520D01*
X890820Y988402D01*
X890851Y988277D01*
X890876Y988139D01*
X890095Y988077D01*
Y988083D01*
X890089Y988095D01*
X890083Y988120D01*
X890077Y988152D01*
X890064Y988189D01*
X890052Y988233D01*
X890020Y988333D01*
X889977Y988445D01*
X889927Y988558D01*
X889864Y988664D01*
X889795Y988752D01*
X889789Y988758D01*
X889783Y988764D01*
X889764Y988783D01*
X889739Y988802D01*
X889708Y988833D01*
X889670Y988858D01*
X889577Y988920D01*
X889464Y988983D01*
X889327Y989039D01*
X889177Y989077D01*
X889096Y989083D01*
X889008Y989089D01*
X888946D01*
X888877Y989077D01*
X888783Y989064D01*
X888683Y989039D01*
X888571Y989001D01*
X888458Y988945D01*
X888346Y988877D01*
X888339D01*
X888327Y988864D01*
X888308Y988852D01*
X888283Y988827D01*
X888221Y988764D01*
X888133Y988677D01*
X888040Y988564D01*
X887940Y988427D01*
X887846Y988270D01*
X887758Y988083D01*
Y988077D01*
X887752Y988058D01*
X887740Y988027D01*
X887727Y987989D01*
X887708Y987933D01*
X887690Y987871D01*
X887671Y987789D01*
X887652Y987702D01*
X887634Y987602D01*
X887615Y987496D01*
X887596Y987371D01*
X887577Y987240D01*
X887565Y987096D01*
X887552Y986940D01*
X887546Y986777D01*
X887540Y986602D01*
X887546Y986608D01*
X887552Y986621D01*
X887571Y986646D01*
X887590Y986671D01*
X887615Y986708D01*
X887652Y986752D01*
X887733Y986846D01*
X887833Y986952D01*
X887952Y987058D01*
X888083Y987158D01*
X888233Y987246D01*
X888240D01*
X888252Y987252D01*
X888277Y987264D01*
X888302Y987277D01*
X888346Y987296D01*
X888390Y987315D01*
X888439Y987333D01*
X888496Y987352D01*
X888627Y987389D01*
X888771Y987427D01*
X888927Y987452D01*
X889096Y987458D01*
X889133D01*
X889171Y987452D01*
X889227D01*
X889296Y987439D01*
X889377Y987427D01*
X889464Y987408D01*
X889558Y987383D01*
X889658Y987352D01*
X889770Y987315D01*
X889877Y987271D01*
X889989Y987215D01*
X890108Y987146D01*
X890220Y987071D01*
X890327Y986977D01*
X890433Y986877D01*
X890439Y986871D01*
X890458Y986852D01*
X890483Y986815D01*
X890520Y986771D01*
X890564Y986715D01*
X890608Y986646D01*
X890658Y986565D01*
X890714Y986471D01*
X890764Y986371D01*
X890814Y986258D01*
X890858Y986133D01*
X890901Y986002D01*
X890939Y985859D01*
X890964Y985709D01*
X890983Y985552D01*
X890989Y985384D01*
Y985378D01*
Y985359D01*
Y985328D01*
X890983Y985284D01*
Y985228D01*
X890976Y985165D01*
X890970Y985096D01*
X890958Y985015D01*
X890926Y984840D01*
X890876Y984653D01*
X890814Y984459D01*
X890726Y984259D01*
Y984253D01*
X890714Y984234D01*
X890701Y984209D01*
X890676Y984178D01*
X890651Y984134D01*
X890620Y984084D01*
X890539Y983972D01*
X890433Y983840D01*
X890314Y983709D01*
X890170Y983584D01*
X890008Y983472D01*
X890002D01*
X889989Y983459D01*
X889964Y983447D01*
X889927Y983428D01*
X889883Y983409D01*
X889833Y983384D01*
X889777Y983359D01*
X889708Y983334D01*
X889639Y983309D01*
X889558Y983284D01*
X889383Y983241D01*
X889189Y983209D01*
X889083Y983203D01*
X888977Y983197D01*
X888933D01*
X888883Y983203D01*
X888814Y983209D01*
X888733Y983222D01*
X888633Y983234D01*
X888527Y983259D01*
X888408Y983284D01*
X888283Y983322D01*
X888158Y983372D01*
X888021Y983428D01*
X887890Y983503D01*
X887752Y983584D01*
X887621Y983678D01*
X887496Y983790D01*
X887377Y983915D01*
X887371Y983922D01*
X887352Y983953D01*
X887321Y983990D01*
X887283Y984053D01*
X887234Y984134D01*
X887184Y984234D01*
X887127Y984346D01*
X887071Y984484D01*
X887009Y984640D01*
X886952Y984815D01*
X886902Y985009D01*
X886859Y985228D01*
X886815Y985459D01*
X886784Y985721D01*
X886765Y985996D01*
X886759Y986296D01*
Y986302D01*
Y986315D01*
Y986340D01*
Y986377D01*
Y986421D01*
X886765Y986471D01*
Y986533D01*
X886771Y986602D01*
Y986671D01*
X886777Y986752D01*
X886796Y986927D01*
X886815Y987121D01*
X886846Y987327D01*
X886877Y987546D01*
X886927Y987771D01*
X886977Y987996D01*
X887046Y988221D01*
X887121Y988433D01*
X887215Y988639D01*
X887321Y988827D01*
X887440Y988995D01*
X887446Y989001D01*
X887465Y989026D01*
X887502Y989064D01*
X887552Y989108D01*
X887608Y989164D01*
X887683Y989227D01*
X887771Y989295D01*
X887865Y989364D01*
X887977Y989433D01*
X888096Y989501D01*
X888227Y989564D01*
X888371Y989620D01*
X888527Y989664D01*
X888689Y989701D01*
X888864Y989726D01*
X889052Y989733D01*
X889127D01*
X889177Y989726D01*
D02*
G37*
G36*
X900661Y989814D02*
X900718D01*
X900793Y989808D01*
X900874Y989801D01*
X900961Y989789D01*
X901055Y989776D01*
X901155Y989764D01*
X901361Y989720D01*
X901580Y989664D01*
X901792Y989589D01*
X901799D01*
X901817Y989576D01*
X901849Y989564D01*
X901886Y989545D01*
X901930Y989526D01*
X901986Y989495D01*
X902111Y989426D01*
X902255Y989339D01*
X902398Y989233D01*
X902542Y989108D01*
X902673Y988964D01*
X902680Y988958D01*
X902686Y988945D01*
X902705Y988920D01*
X902730Y988889D01*
X902755Y988852D01*
X902786Y988802D01*
X902817Y988745D01*
X902855Y988683D01*
X902898Y988614D01*
X902936Y988533D01*
X902973Y988445D01*
X903017Y988352D01*
X903055Y988252D01*
X903092Y988146D01*
X903130Y988033D01*
X903161Y987914D01*
X902398Y987708D01*
Y987714D01*
X902392Y987727D01*
X902386Y987758D01*
X902373Y987789D01*
X902361Y987827D01*
X902342Y987877D01*
X902298Y987989D01*
X902249Y988108D01*
X902186Y988239D01*
X902117Y988364D01*
X902036Y988477D01*
Y988483D01*
X902023Y988489D01*
X901999Y988520D01*
X901948Y988577D01*
X901880Y988639D01*
X901792Y988708D01*
X901686Y988783D01*
X901567Y988858D01*
X901424Y988926D01*
X901417D01*
X901405Y988933D01*
X901386Y988945D01*
X901355Y988951D01*
X901318Y988964D01*
X901274Y988983D01*
X901224Y988995D01*
X901168Y989014D01*
X901036Y989039D01*
X900886Y989070D01*
X900718Y989089D01*
X900543Y989095D01*
X900443D01*
X900393Y989089D01*
X900337D01*
X900274Y989083D01*
X900199Y989070D01*
X900043Y989052D01*
X899874Y989020D01*
X899699Y988977D01*
X899537Y988914D01*
X899530D01*
X899518Y988908D01*
X899499Y988895D01*
X899468Y988883D01*
X899430Y988864D01*
X899393Y988845D01*
X899293Y988789D01*
X899187Y988720D01*
X899074Y988645D01*
X898962Y988552D01*
X898856Y988445D01*
X898843Y988433D01*
X898812Y988395D01*
X898768Y988339D01*
X898712Y988258D01*
X898643Y988164D01*
X898581Y988058D01*
X898512Y987939D01*
X898456Y987814D01*
Y987808D01*
X898443Y987789D01*
X898431Y987758D01*
X898418Y987708D01*
X898399Y987658D01*
X898381Y987589D01*
X898356Y987514D01*
X898337Y987433D01*
X898312Y987339D01*
X898287Y987240D01*
X898268Y987133D01*
X898250Y987021D01*
X898224Y986783D01*
X898212Y986527D01*
Y986515D01*
Y986490D01*
Y986446D01*
X898218Y986383D01*
Y986309D01*
X898231Y986227D01*
X898237Y986133D01*
X898250Y986027D01*
X898262Y985915D01*
X898287Y985802D01*
X898337Y985559D01*
X898412Y985321D01*
X898456Y985202D01*
X898506Y985090D01*
X898512Y985084D01*
X898518Y985065D01*
X898537Y985034D01*
X898562Y984996D01*
X898593Y984946D01*
X898631Y984896D01*
X898674Y984834D01*
X898724Y984765D01*
X898781Y984696D01*
X898843Y984628D01*
X898912Y984559D01*
X898993Y984484D01*
X899074Y984415D01*
X899162Y984353D01*
X899262Y984290D01*
X899362Y984234D01*
X899368D01*
X899387Y984221D01*
X899418Y984209D01*
X899462Y984190D01*
X899512Y984172D01*
X899574Y984146D01*
X899643Y984121D01*
X899724Y984097D01*
X899805Y984072D01*
X899899Y984046D01*
X900105Y984003D01*
X900324Y983972D01*
X900436Y983965D01*
X900555Y983959D01*
X900611D01*
X900649Y983965D01*
X900699D01*
X900755Y983972D01*
X900824Y983978D01*
X900899Y983984D01*
X901061Y984009D01*
X901243Y984046D01*
X901436Y984097D01*
X901630Y984165D01*
X901636D01*
X901655Y984178D01*
X901680Y984184D01*
X901717Y984203D01*
X901761Y984221D01*
X901811Y984247D01*
X901930Y984303D01*
X902055Y984371D01*
X902186Y984446D01*
X902317Y984534D01*
X902430Y984621D01*
Y985815D01*
X900549D01*
Y986571D01*
X903261D01*
Y984190D01*
X903254Y984184D01*
X903236Y984172D01*
X903198Y984140D01*
X903155Y984109D01*
X903098Y984065D01*
X903029Y984022D01*
X902948Y983972D01*
X902867Y983915D01*
X902773Y983853D01*
X902673Y983790D01*
X902455Y983672D01*
X902217Y983553D01*
X901967Y983447D01*
X901961D01*
X901936Y983434D01*
X901905Y983422D01*
X901855Y983409D01*
X901792Y983391D01*
X901724Y983365D01*
X901642Y983347D01*
X901549Y983322D01*
X901449Y983297D01*
X901342Y983278D01*
X901230Y983253D01*
X901111Y983234D01*
X900868Y983209D01*
X900605Y983197D01*
X900511D01*
X900449Y983203D01*
X900361Y983209D01*
X900268Y983215D01*
X900155Y983228D01*
X900036Y983247D01*
X899905Y983266D01*
X899774Y983297D01*
X899630Y983328D01*
X899480Y983365D01*
X899331Y983409D01*
X899181Y983465D01*
X899037Y983528D01*
X898887Y983597D01*
X898881Y983603D01*
X898856Y983615D01*
X898812Y983640D01*
X898762Y983672D01*
X898699Y983715D01*
X898624Y983765D01*
X898543Y983828D01*
X898456Y983897D01*
X898362Y983972D01*
X898268Y984059D01*
X898168Y984159D01*
X898074Y984259D01*
X897981Y984371D01*
X897887Y984496D01*
X897806Y984628D01*
X897725Y984765D01*
X897718Y984771D01*
X897706Y984803D01*
X897687Y984840D01*
X897662Y984903D01*
X897637Y984971D01*
X897600Y985059D01*
X897568Y985159D01*
X897531Y985265D01*
X897493Y985390D01*
X897462Y985521D01*
X897425Y985665D01*
X897400Y985815D01*
X897375Y985971D01*
X897356Y986133D01*
X897344Y986302D01*
X897337Y986477D01*
Y986490D01*
Y986521D01*
Y986571D01*
X897344Y986633D01*
X897350Y986721D01*
X897356Y986815D01*
X897368Y986927D01*
X897387Y987046D01*
X897406Y987177D01*
X897431Y987315D01*
X897462Y987458D01*
X897500Y987608D01*
X897543Y987758D01*
X897600Y987914D01*
X897656Y988064D01*
X897725Y988221D01*
X897731Y988233D01*
X897743Y988258D01*
X897768Y988296D01*
X897800Y988352D01*
X897837Y988420D01*
X897887Y988495D01*
X897943Y988583D01*
X898012Y988677D01*
X898087Y988770D01*
X898175Y988870D01*
X898262Y988970D01*
X898368Y989070D01*
X898474Y989170D01*
X898593Y989264D01*
X898718Y989345D01*
X898849Y989426D01*
X898856Y989433D01*
X898881Y989445D01*
X898924Y989464D01*
X898980Y989489D01*
X899049Y989520D01*
X899130Y989551D01*
X899230Y989589D01*
X899337Y989626D01*
X899455Y989658D01*
X899587Y989695D01*
X899724Y989726D01*
X899874Y989758D01*
X900030Y989783D01*
X900193Y989801D01*
X900368Y989814D01*
X900543Y989820D01*
X900611D01*
X900661Y989814D01*
D02*
G37*
G36*
X909553Y983303D02*
X908678D01*
X905316Y988327D01*
Y983303D01*
X904504D01*
Y989708D01*
X905373D01*
X908740Y984678D01*
Y989708D01*
X909553D01*
Y983303D01*
D02*
G37*
G36*
X913433Y989701D02*
X913514D01*
X913596Y989695D01*
X913783Y989683D01*
X913970Y989670D01*
X914152Y989645D01*
X914239Y989633D01*
X914314Y989614D01*
X914320D01*
X914339Y989608D01*
X914370Y989601D01*
X914408Y989589D01*
X914458Y989576D01*
X914508Y989558D01*
X914570Y989533D01*
X914639Y989508D01*
X914789Y989445D01*
X914945Y989364D01*
X915108Y989270D01*
X915258Y989152D01*
X915264Y989145D01*
X915283Y989133D01*
X915308Y989108D01*
X915339Y989077D01*
X915383Y989033D01*
X915433Y988983D01*
X915483Y988920D01*
X915545Y988858D01*
X915601Y988783D01*
X915664Y988695D01*
X915726Y988608D01*
X915789Y988514D01*
X915851Y988408D01*
X915908Y988296D01*
X916014Y988058D01*
Y988052D01*
X916026Y988027D01*
X916039Y987989D01*
X916051Y987939D01*
X916076Y987877D01*
X916095Y987802D01*
X916120Y987714D01*
X916145Y987621D01*
X916164Y987514D01*
X916189Y987396D01*
X916214Y987271D01*
X916232Y987140D01*
X916245Y986996D01*
X916257Y986852D01*
X916270Y986540D01*
Y986533D01*
Y986508D01*
Y986471D01*
Y986415D01*
X916264Y986352D01*
Y986277D01*
X916257Y986196D01*
X916251Y986102D01*
X916239Y986002D01*
X916226Y985902D01*
X916195Y985684D01*
X916151Y985459D01*
X916095Y985240D01*
Y985234D01*
X916089Y985215D01*
X916076Y985184D01*
X916064Y985146D01*
X916045Y985096D01*
X916026Y985040D01*
X916001Y984978D01*
X915976Y984915D01*
X915914Y984765D01*
X915839Y984609D01*
X915751Y984453D01*
X915658Y984309D01*
Y984303D01*
X915645Y984290D01*
X915632Y984271D01*
X915614Y984247D01*
X915558Y984184D01*
X915489Y984097D01*
X915401Y984003D01*
X915301Y983909D01*
X915195Y983815D01*
X915076Y983728D01*
X915070D01*
X915064Y983722D01*
X915045Y983709D01*
X915020Y983690D01*
X914989Y983678D01*
X914951Y983653D01*
X914864Y983609D01*
X914752Y983559D01*
X914620Y983503D01*
X914470Y983453D01*
X914308Y983409D01*
X914302D01*
X914289Y983403D01*
X914264Y983397D01*
X914227Y983391D01*
X914189Y983384D01*
X914139Y983378D01*
X914077Y983365D01*
X914014Y983359D01*
X913939Y983347D01*
X913864Y983334D01*
X913689Y983322D01*
X913496Y983309D01*
X913283Y983303D01*
X910971D01*
Y989708D01*
X913364D01*
X913433Y989701D01*
D02*
G37*
G36*
X886240Y988951D02*
X884122D01*
Y983303D01*
X883272D01*
Y988951D01*
X881160D01*
Y989708D01*
X886240D01*
Y988951D01*
D02*
G37*
G36*
X917863Y989808D02*
X917888Y989770D01*
X917932Y989714D01*
X917982Y989633D01*
X918051Y989533D01*
X918132Y989414D01*
X918219Y989283D01*
X918307Y989133D01*
X918407Y988970D01*
X918507Y988802D01*
X918607Y988614D01*
X918707Y988427D01*
X918807Y988227D01*
X918900Y988027D01*
X918982Y987821D01*
X919063Y987614D01*
X919069Y987602D01*
X919075Y987571D01*
X919094Y987521D01*
X919113Y987452D01*
X919144Y987364D01*
X919169Y987258D01*
X919200Y987140D01*
X919232Y987008D01*
X919263Y986865D01*
X919294Y986708D01*
X919325Y986546D01*
X919350Y986371D01*
X919369Y986190D01*
X919388Y986009D01*
X919394Y985815D01*
X919400Y985621D01*
Y985615D01*
Y985609D01*
Y985590D01*
Y985571D01*
Y985502D01*
X919394Y985421D01*
X919388Y985315D01*
X919375Y985190D01*
X919363Y985046D01*
X919344Y984896D01*
X919319Y984728D01*
X919288Y984546D01*
X919250Y984359D01*
X919207Y984159D01*
X919157Y983959D01*
X919094Y983753D01*
X919025Y983547D01*
X918944Y983341D01*
X918938Y983328D01*
X918925Y983290D01*
X918900Y983234D01*
X918863Y983159D01*
X918819Y983059D01*
X918769Y982953D01*
X918707Y982828D01*
X918638Y982691D01*
X918563Y982547D01*
X918482Y982391D01*
X918388Y982234D01*
X918294Y982072D01*
X918082Y981741D01*
X917969Y981578D01*
X917851Y981422D01*
X917288D01*
X917295Y981429D01*
X917301Y981447D01*
X917320Y981479D01*
X917345Y981516D01*
X917376Y981566D01*
X917407Y981628D01*
X917451Y981703D01*
X917495Y981785D01*
X917538Y981872D01*
X917595Y981972D01*
X917645Y982078D01*
X917701Y982197D01*
X917757Y982322D01*
X917820Y982453D01*
X917882Y982591D01*
X917944Y982734D01*
X918063Y983041D01*
X918182Y983365D01*
X918294Y983715D01*
X918388Y984078D01*
X918476Y984453D01*
X918538Y984834D01*
X918563Y985034D01*
X918582Y985228D01*
X918588Y985421D01*
X918594Y985621D01*
Y985634D01*
Y985659D01*
Y985702D01*
Y985765D01*
X918588Y985834D01*
X918582Y985921D01*
X918576Y986021D01*
X918569Y986133D01*
X918563Y986252D01*
X918544Y986377D01*
X918532Y986515D01*
X918513Y986652D01*
X918463Y986946D01*
X918401Y987246D01*
Y987252D01*
X918394Y987277D01*
X918388Y987308D01*
X918376Y987358D01*
X918357Y987414D01*
X918338Y987483D01*
X918319Y987564D01*
X918294Y987652D01*
X918269Y987746D01*
X918238Y987839D01*
X918163Y988058D01*
X918082Y988283D01*
X917988Y988508D01*
Y988514D01*
X917982Y988527D01*
X917969Y988552D01*
X917951Y988583D01*
X917932Y988627D01*
X917907Y988683D01*
X917876Y988745D01*
X917838Y988820D01*
X917794Y988908D01*
X917745Y989001D01*
X917688Y989108D01*
X917619Y989227D01*
X917551Y989358D01*
X917470Y989501D01*
X917382Y989651D01*
X917288Y989820D01*
X917851D01*
X917863Y989808D01*
D02*
G37*
G36*
X896531D02*
X896512Y989783D01*
X896487Y989733D01*
X896450Y989670D01*
X896406Y989595D01*
X896363Y989514D01*
X896306Y989414D01*
X896250Y989314D01*
X896131Y989101D01*
X896019Y988889D01*
X895963Y988783D01*
X895919Y988689D01*
X895875Y988602D01*
X895838Y988520D01*
Y988514D01*
X895825Y988495D01*
X895813Y988458D01*
X895794Y988414D01*
X895769Y988358D01*
X895744Y988296D01*
X895719Y988221D01*
X895688Y988133D01*
X895650Y988046D01*
X895619Y987945D01*
X895550Y987733D01*
X895481Y987502D01*
X895419Y987258D01*
Y987252D01*
X895413Y987221D01*
X895400Y987177D01*
X895388Y987121D01*
X895375Y987046D01*
X895363Y986958D01*
X895344Y986858D01*
X895325Y986752D01*
X895306Y986627D01*
X895294Y986502D01*
X895275Y986365D01*
X895263Y986227D01*
X895238Y985927D01*
X895231Y985621D01*
Y985615D01*
Y985596D01*
Y985565D01*
Y985527D01*
X895238Y985477D01*
Y985415D01*
X895244Y985340D01*
X895250Y985259D01*
X895263Y985171D01*
X895269Y985071D01*
X895288Y984959D01*
X895300Y984846D01*
X895319Y984721D01*
X895344Y984590D01*
X895369Y984453D01*
X895394Y984309D01*
X895463Y983997D01*
X895550Y983672D01*
X895656Y983322D01*
X895781Y982959D01*
X895931Y982584D01*
X896019Y982397D01*
X896106Y982203D01*
X896206Y982010D01*
X896306Y981816D01*
X896419Y981616D01*
X896537Y981422D01*
X895975D01*
X895969Y981435D01*
X895944Y981460D01*
X895913Y981503D01*
X895869Y981566D01*
X895806Y981647D01*
X895744Y981741D01*
X895669Y981847D01*
X895594Y981972D01*
X895506Y982103D01*
X895419Y982253D01*
X895325Y982410D01*
X895231Y982578D01*
X895138Y982759D01*
X895044Y982947D01*
X894957Y983140D01*
X894869Y983341D01*
Y983347D01*
X894863Y983353D01*
X894850Y983391D01*
X894825Y983453D01*
X894800Y983528D01*
X894769Y983634D01*
X894732Y983753D01*
X894688Y983884D01*
X894650Y984040D01*
X894607Y984203D01*
X894563Y984378D01*
X894525Y984571D01*
X894494Y984765D01*
X894469Y984971D01*
X894444Y985184D01*
X894432Y985402D01*
X894426Y985621D01*
Y985634D01*
Y985671D01*
Y985721D01*
X894432Y985802D01*
X894438Y985890D01*
X894444Y986002D01*
X894451Y986127D01*
X894469Y986265D01*
X894482Y986408D01*
X894507Y986565D01*
X894532Y986733D01*
X894563Y986902D01*
X894600Y987077D01*
X894650Y987258D01*
X894700Y987433D01*
X894757Y987614D01*
Y987621D01*
X894763Y987627D01*
X894775Y987664D01*
X894800Y987727D01*
X894832Y987802D01*
X894875Y987902D01*
X894925Y988020D01*
X894988Y988158D01*
X895057Y988308D01*
X895138Y988464D01*
X895225Y988639D01*
X895325Y988820D01*
X895438Y989014D01*
X895556Y989208D01*
X895688Y989408D01*
X895825Y989614D01*
X895975Y989820D01*
X896537D01*
X896531Y989808D01*
D02*
G37*
G36*
X718958Y941660D02*
X719008D01*
X719058Y941654D01*
X719121Y941648D01*
X719189Y941641D01*
X719339Y941610D01*
X719496Y941573D01*
X719664Y941516D01*
X719833Y941441D01*
X719839D01*
X719852Y941429D01*
X719877Y941416D01*
X719908Y941398D01*
X719946Y941379D01*
X719983Y941348D01*
X720083Y941279D01*
X720195Y941191D01*
X720308Y941085D01*
X720414Y940960D01*
X720508Y940823D01*
Y940817D01*
X720520Y940804D01*
X720533Y940785D01*
X720545Y940754D01*
X720564Y940723D01*
X720583Y940679D01*
X720627Y940573D01*
X720670Y940454D01*
X720708Y940311D01*
X720733Y940161D01*
X720745Y939998D01*
Y939992D01*
Y939979D01*
Y939961D01*
X720739Y939929D01*
Y939892D01*
X720733Y939848D01*
X720720Y939748D01*
X720689Y939629D01*
X720651Y939504D01*
X720595Y939373D01*
X720520Y939242D01*
Y939236D01*
X720508Y939230D01*
X720495Y939211D01*
X720477Y939186D01*
X720427Y939123D01*
X720352Y939048D01*
X720258Y938961D01*
X720145Y938873D01*
X720014Y938786D01*
X719858Y938705D01*
X719864D01*
X719883Y938698D01*
X719914Y938692D01*
X719952Y938680D01*
X720002Y938661D01*
X720052Y938642D01*
X720183Y938586D01*
X720320Y938517D01*
X720470Y938417D01*
X720614Y938305D01*
X720676Y938236D01*
X720739Y938161D01*
X720745Y938155D01*
X720751Y938142D01*
X720770Y938117D01*
X720789Y938086D01*
X720814Y938049D01*
X720839Y937999D01*
X720870Y937942D01*
X720901Y937880D01*
X720927Y937805D01*
X720958Y937730D01*
X720983Y937642D01*
X721008Y937555D01*
X721045Y937355D01*
X721051Y937243D01*
X721058Y937130D01*
Y937124D01*
Y937093D01*
X721051Y937049D01*
Y936993D01*
X721039Y936918D01*
X721026Y936836D01*
X721008Y936743D01*
X720983Y936636D01*
X720952Y936530D01*
X720908Y936418D01*
X720858Y936299D01*
X720801Y936180D01*
X720726Y936062D01*
X720645Y935937D01*
X720552Y935824D01*
X720445Y935712D01*
X720439Y935705D01*
X720420Y935687D01*
X720383Y935655D01*
X720333Y935624D01*
X720277Y935574D01*
X720202Y935530D01*
X720120Y935474D01*
X720021Y935424D01*
X719914Y935368D01*
X719796Y935312D01*
X719670Y935268D01*
X719533Y935224D01*
X719389Y935187D01*
X719233Y935156D01*
X719071Y935137D01*
X718896Y935131D01*
X718858D01*
X718814Y935137D01*
X718758D01*
X718683Y935143D01*
X718602Y935156D01*
X718508Y935174D01*
X718402Y935193D01*
X718296Y935218D01*
X718183Y935256D01*
X718065Y935293D01*
X717952Y935343D01*
X717833Y935399D01*
X717715Y935468D01*
X717602Y935543D01*
X717496Y935630D01*
X717490Y935637D01*
X717471Y935655D01*
X717446Y935680D01*
X717409Y935724D01*
X717365Y935774D01*
X717315Y935830D01*
X717265Y935899D01*
X717209Y935980D01*
X717152Y936068D01*
X717096Y936168D01*
X717046Y936274D01*
X716996Y936393D01*
X716953Y936518D01*
X716915Y936649D01*
X716884Y936786D01*
X716865Y936936D01*
X717652Y937043D01*
Y937036D01*
X717659Y937011D01*
X717665Y936980D01*
X717677Y936930D01*
X717690Y936880D01*
X717709Y936811D01*
X717734Y936743D01*
X717758Y936668D01*
X717821Y936512D01*
X717902Y936349D01*
X717996Y936199D01*
X718052Y936137D01*
X718108Y936074D01*
X718115D01*
X718121Y936062D01*
X718140Y936049D01*
X718165Y936030D01*
X718196Y936005D01*
X718233Y935980D01*
X718327Y935930D01*
X718446Y935874D01*
X718583Y935824D01*
X718733Y935793D01*
X718814Y935787D01*
X718902Y935780D01*
X718958D01*
X718996Y935787D01*
X719046Y935793D01*
X719096Y935799D01*
X719158Y935812D01*
X719227Y935830D01*
X719377Y935874D01*
X719452Y935905D01*
X719533Y935943D01*
X719614Y935987D01*
X719689Y936037D01*
X719764Y936093D01*
X719839Y936162D01*
X719846Y936168D01*
X719858Y936180D01*
X719877Y936199D01*
X719902Y936230D01*
X719927Y936268D01*
X719958Y936311D01*
X719995Y936361D01*
X720033Y936424D01*
X720064Y936487D01*
X720102Y936561D01*
X720164Y936724D01*
X720183Y936811D01*
X720202Y936905D01*
X720214Y937005D01*
X720220Y937111D01*
Y937118D01*
Y937136D01*
Y937161D01*
X720214Y937205D01*
X720208Y937249D01*
X720202Y937305D01*
X720189Y937361D01*
X720177Y937430D01*
X720133Y937567D01*
X720108Y937642D01*
X720070Y937717D01*
X720027Y937792D01*
X719983Y937867D01*
X719927Y937936D01*
X719864Y938005D01*
X719858Y938011D01*
X719846Y938017D01*
X719827Y938036D01*
X719802Y938061D01*
X719764Y938086D01*
X719721Y938117D01*
X719677Y938148D01*
X719621Y938180D01*
X719558Y938211D01*
X719489Y938242D01*
X719333Y938298D01*
X719158Y938342D01*
X719064Y938348D01*
X718964Y938355D01*
X718927D01*
X718877Y938348D01*
X718814Y938342D01*
X718733Y938336D01*
X718640Y938324D01*
X718533Y938298D01*
X718415Y938273D01*
X718502Y938961D01*
X718515D01*
X718546Y938955D01*
X718590Y938948D01*
X718677D01*
X718715Y938955D01*
X718758D01*
X718808Y938961D01*
X718865Y938973D01*
X718927Y938980D01*
X719071Y939011D01*
X719221Y939061D01*
X719377Y939123D01*
X719533Y939211D01*
X719539Y939217D01*
X719552Y939223D01*
X719571Y939236D01*
X719596Y939261D01*
X719627Y939286D01*
X719664Y939323D01*
X719696Y939361D01*
X719739Y939411D01*
X719777Y939461D01*
X719808Y939523D01*
X719846Y939592D01*
X719877Y939661D01*
X719902Y939742D01*
X719921Y939829D01*
X719933Y939917D01*
X719939Y940017D01*
Y940023D01*
Y940036D01*
Y940061D01*
X719933Y940092D01*
Y940129D01*
X719927Y940173D01*
X719902Y940273D01*
X719871Y940386D01*
X719814Y940504D01*
X719745Y940623D01*
X719696Y940679D01*
X719646Y940735D01*
X719639Y940742D01*
X719633Y940748D01*
X719614Y940760D01*
X719596Y940779D01*
X719527Y940829D01*
X719439Y940879D01*
X719333Y940929D01*
X719202Y940979D01*
X719052Y941010D01*
X718977Y941023D01*
X718846D01*
X718814Y941017D01*
X718771D01*
X718727Y941010D01*
X718621Y940985D01*
X718496Y940954D01*
X718371Y940898D01*
X718240Y940829D01*
X718177Y940779D01*
X718121Y940729D01*
X718115Y940723D01*
X718108Y940717D01*
X718090Y940698D01*
X718071Y940673D01*
X718046Y940648D01*
X718021Y940610D01*
X717990Y940567D01*
X717959Y940517D01*
X717927Y940454D01*
X717890Y940392D01*
X717859Y940323D01*
X717827Y940242D01*
X717802Y940161D01*
X717771Y940067D01*
X717752Y939973D01*
X717734Y939867D01*
X716946Y940004D01*
Y940011D01*
X716953Y940042D01*
X716965Y940079D01*
X716977Y940135D01*
X716996Y940198D01*
X717021Y940279D01*
X717046Y940360D01*
X717084Y940454D01*
X717121Y940548D01*
X717171Y940648D01*
X717221Y940754D01*
X717284Y940854D01*
X717346Y940954D01*
X717421Y941054D01*
X717509Y941142D01*
X717596Y941229D01*
X717602Y941235D01*
X717621Y941248D01*
X717646Y941266D01*
X717690Y941298D01*
X717740Y941329D01*
X717796Y941367D01*
X717871Y941410D01*
X717946Y941448D01*
X718034Y941491D01*
X718133Y941529D01*
X718240Y941566D01*
X718352Y941598D01*
X718471Y941629D01*
X718596Y941648D01*
X718733Y941660D01*
X718871Y941666D01*
X718921D01*
X718958Y941660D01*
D02*
G37*
G36*
X742758Y935237D02*
X741877D01*
X739403Y941641D01*
X740322D01*
X741984Y936986D01*
Y936980D01*
X741990Y936961D01*
X742002Y936930D01*
X742015Y936893D01*
X742034Y936843D01*
X742052Y936780D01*
X742077Y936718D01*
X742102Y936643D01*
X742152Y936480D01*
X742208Y936305D01*
X742265Y936124D01*
X742321Y935937D01*
Y935943D01*
X742327Y935962D01*
X742334Y935987D01*
X742346Y936024D01*
X742365Y936074D01*
X742377Y936130D01*
X742396Y936193D01*
X742421Y936268D01*
X742471Y936424D01*
X742527Y936599D01*
X742596Y936793D01*
X742665Y936986D01*
X744402Y941641D01*
X745264D01*
X742758Y935237D01*
D02*
G37*
G36*
X738709Y940810D02*
X736141D01*
X735798Y939080D01*
X735804Y939086D01*
X735823Y939098D01*
X735854Y939117D01*
X735898Y939142D01*
X735948Y939173D01*
X736016Y939211D01*
X736085Y939242D01*
X736166Y939286D01*
X736254Y939323D01*
X736348Y939354D01*
X736554Y939423D01*
X736660Y939448D01*
X736772Y939467D01*
X736891Y939480D01*
X737010Y939486D01*
X737047D01*
X737091Y939480D01*
X737154D01*
X737222Y939467D01*
X737310Y939454D01*
X737403Y939436D01*
X737504Y939411D01*
X737610Y939380D01*
X737728Y939342D01*
X737847Y939298D01*
X737966Y939242D01*
X738085Y939173D01*
X738203Y939098D01*
X738316Y939005D01*
X738428Y938905D01*
X738435Y938898D01*
X738453Y938880D01*
X738484Y938842D01*
X738522Y938798D01*
X738566Y938742D01*
X738609Y938673D01*
X738666Y938592D01*
X738722Y938499D01*
X738772Y938399D01*
X738828Y938286D01*
X738872Y938161D01*
X738922Y938030D01*
X738953Y937886D01*
X738984Y937736D01*
X739003Y937574D01*
X739009Y937405D01*
Y937393D01*
Y937367D01*
X739003Y937324D01*
Y937261D01*
X738997Y937186D01*
X738984Y937099D01*
X738966Y936999D01*
X738947Y936893D01*
X738916Y936780D01*
X738884Y936655D01*
X738841Y936530D01*
X738791Y936405D01*
X738734Y936280D01*
X738666Y936149D01*
X738585Y936024D01*
X738497Y935905D01*
X738491Y935899D01*
X738466Y935874D01*
X738435Y935837D01*
X738384Y935787D01*
X738322Y935724D01*
X738247Y935662D01*
X738160Y935593D01*
X738060Y935518D01*
X737941Y935443D01*
X737816Y935374D01*
X737678Y935312D01*
X737529Y935249D01*
X737366Y935199D01*
X737197Y935162D01*
X737010Y935137D01*
X736816Y935131D01*
X736779D01*
X736735Y935137D01*
X736672D01*
X736598Y935143D01*
X736510Y935156D01*
X736416Y935174D01*
X736310Y935193D01*
X736198Y935218D01*
X736085Y935249D01*
X735966Y935287D01*
X735841Y935337D01*
X735723Y935393D01*
X735604Y935455D01*
X735491Y935530D01*
X735385Y935618D01*
X735379Y935624D01*
X735360Y935643D01*
X735335Y935668D01*
X735298Y935705D01*
X735254Y935755D01*
X735210Y935818D01*
X735154Y935887D01*
X735104Y935962D01*
X735048Y936049D01*
X734992Y936149D01*
X734942Y936255D01*
X734892Y936374D01*
X734848Y936499D01*
X734810Y936630D01*
X734779Y936768D01*
X734760Y936918D01*
X735585Y936986D01*
Y936980D01*
X735592Y936961D01*
X735598Y936930D01*
X735604Y936886D01*
X735617Y936836D01*
X735629Y936780D01*
X735673Y936643D01*
X735729Y936499D01*
X735798Y936349D01*
X735891Y936199D01*
X735948Y936137D01*
X736004Y936074D01*
X736010Y936068D01*
X736023Y936062D01*
X736041Y936049D01*
X736066Y936030D01*
X736098Y936005D01*
X736135Y935980D01*
X736235Y935924D01*
X736354Y935868D01*
X736491Y935824D01*
X736647Y935787D01*
X736729Y935780D01*
X736816Y935774D01*
X736872D01*
X736910Y935780D01*
X736960Y935787D01*
X737016Y935799D01*
X737079Y935812D01*
X737147Y935830D01*
X737303Y935880D01*
X737378Y935912D01*
X737460Y935955D01*
X737541Y936005D01*
X737622Y936062D01*
X737703Y936124D01*
X737778Y936199D01*
X737785Y936205D01*
X737797Y936218D01*
X737816Y936243D01*
X737841Y936280D01*
X737872Y936318D01*
X737903Y936374D01*
X737941Y936436D01*
X737978Y936505D01*
X738010Y936580D01*
X738047Y936668D01*
X738078Y936761D01*
X738110Y936861D01*
X738135Y936968D01*
X738153Y937086D01*
X738166Y937205D01*
X738172Y937336D01*
Y937343D01*
Y937367D01*
Y937399D01*
X738166Y937449D01*
X738160Y937505D01*
X738153Y937567D01*
X738141Y937642D01*
X738122Y937724D01*
X738078Y937892D01*
X738047Y937980D01*
X738010Y938067D01*
X737966Y938155D01*
X737916Y938242D01*
X737860Y938324D01*
X737791Y938399D01*
X737785Y938405D01*
X737772Y938417D01*
X737753Y938436D01*
X737722Y938461D01*
X737685Y938492D01*
X737641Y938523D01*
X737585Y938561D01*
X737529Y938598D01*
X737460Y938630D01*
X737385Y938667D01*
X737303Y938698D01*
X737216Y938730D01*
X737116Y938755D01*
X737016Y938773D01*
X736910Y938786D01*
X736797Y938792D01*
X736735D01*
X736697Y938786D01*
X736660D01*
X736566Y938773D01*
X736460Y938748D01*
X736348Y938717D01*
X736229Y938673D01*
X736110Y938617D01*
X736104D01*
X736098Y938611D01*
X736060Y938586D01*
X736004Y938548D01*
X735941Y938499D01*
X735860Y938430D01*
X735785Y938355D01*
X735704Y938267D01*
X735635Y938174D01*
X734898Y938267D01*
X735517Y941560D01*
X738709D01*
Y940810D01*
D02*
G37*
G36*
X733611Y935237D02*
X732717D01*
Y936130D01*
X733611D01*
Y935237D01*
D02*
G37*
G36*
X730262D02*
X729474D01*
Y940242D01*
X729468D01*
X729462Y940229D01*
X729443Y940217D01*
X729424Y940198D01*
X729362Y940142D01*
X729274Y940073D01*
X729168Y939992D01*
X729037Y939898D01*
X728887Y939798D01*
X728725Y939698D01*
X728718D01*
X728706Y939686D01*
X728681Y939673D01*
X728650Y939654D01*
X728606Y939629D01*
X728562Y939604D01*
X728449Y939548D01*
X728325Y939486D01*
X728187Y939417D01*
X728043Y939354D01*
X727906Y939298D01*
Y940054D01*
X727912Y940061D01*
X727937Y940067D01*
X727968Y940086D01*
X728018Y940110D01*
X728075Y940142D01*
X728137Y940179D01*
X728212Y940217D01*
X728293Y940267D01*
X728475Y940373D01*
X728668Y940504D01*
X728862Y940648D01*
X729056Y940804D01*
X729062Y940810D01*
X729074Y940823D01*
X729106Y940848D01*
X729137Y940879D01*
X729174Y940923D01*
X729224Y940967D01*
X729274Y941023D01*
X729331Y941079D01*
X729443Y941210D01*
X729556Y941354D01*
X729662Y941510D01*
X729712Y941585D01*
X729749Y941666D01*
X730262D01*
Y935237D01*
D02*
G37*
G36*
X716309Y940885D02*
X714191D01*
Y935237D01*
X713341D01*
Y940885D01*
X711229D01*
Y941641D01*
X716309D01*
Y940885D01*
D02*
G37*
G36*
X746451Y941741D02*
X746476Y941704D01*
X746520Y941648D01*
X746570Y941566D01*
X746639Y941466D01*
X746720Y941348D01*
X746807Y941217D01*
X746895Y941067D01*
X746995Y940904D01*
X747095Y940735D01*
X747195Y940548D01*
X747295Y940360D01*
X747395Y940161D01*
X747488Y939961D01*
X747570Y939754D01*
X747651Y939548D01*
X747657Y939536D01*
X747663Y939504D01*
X747682Y939454D01*
X747701Y939386D01*
X747732Y939298D01*
X747757Y939192D01*
X747788Y939073D01*
X747820Y938942D01*
X747851Y938798D01*
X747882Y938642D01*
X747913Y938480D01*
X747938Y938305D01*
X747957Y938123D01*
X747976Y937942D01*
X747982Y937749D01*
X747988Y937555D01*
Y937549D01*
Y937542D01*
Y937524D01*
Y937505D01*
Y937436D01*
X747982Y937355D01*
X747976Y937249D01*
X747963Y937124D01*
X747951Y936980D01*
X747932Y936830D01*
X747907Y936661D01*
X747876Y936480D01*
X747838Y936293D01*
X747795Y936093D01*
X747745Y935893D01*
X747682Y935687D01*
X747613Y935480D01*
X747532Y935274D01*
X747526Y935262D01*
X747513Y935224D01*
X747488Y935168D01*
X747451Y935093D01*
X747407Y934993D01*
X747357Y934887D01*
X747295Y934762D01*
X747226Y934624D01*
X747151Y934481D01*
X747070Y934324D01*
X746976Y934168D01*
X746882Y934006D01*
X746670Y933675D01*
X746557Y933512D01*
X746439Y933356D01*
X745876D01*
X745883Y933362D01*
X745889Y933381D01*
X745908Y933412D01*
X745933Y933450D01*
X745964Y933500D01*
X745995Y933562D01*
X746039Y933637D01*
X746083Y933718D01*
X746126Y933806D01*
X746182Y933906D01*
X746233Y934012D01*
X746289Y934131D01*
X746345Y934256D01*
X746407Y934387D01*
X746470Y934525D01*
X746532Y934668D01*
X746651Y934974D01*
X746770Y935299D01*
X746882Y935649D01*
X746976Y936012D01*
X747064Y936386D01*
X747126Y936768D01*
X747151Y936968D01*
X747170Y937161D01*
X747176Y937355D01*
X747182Y937555D01*
Y937567D01*
Y937592D01*
Y937636D01*
Y937699D01*
X747176Y937767D01*
X747170Y937855D01*
X747163Y937955D01*
X747157Y938067D01*
X747151Y938186D01*
X747132Y938311D01*
X747120Y938448D01*
X747101Y938586D01*
X747051Y938880D01*
X746989Y939180D01*
Y939186D01*
X746982Y939211D01*
X746976Y939242D01*
X746964Y939292D01*
X746945Y939348D01*
X746926Y939417D01*
X746907Y939498D01*
X746882Y939586D01*
X746857Y939679D01*
X746826Y939773D01*
X746751Y939992D01*
X746670Y940217D01*
X746576Y940442D01*
Y940448D01*
X746570Y940461D01*
X746557Y940485D01*
X746539Y940517D01*
X746520Y940560D01*
X746495Y940617D01*
X746464Y940679D01*
X746426Y940754D01*
X746383Y940842D01*
X746332Y940935D01*
X746276Y941042D01*
X746208Y941160D01*
X746139Y941292D01*
X746058Y941435D01*
X745970Y941585D01*
X745876Y941754D01*
X746439D01*
X746451Y941741D01*
D02*
G37*
G36*
X726600D02*
X726581Y941716D01*
X726556Y941666D01*
X726519Y941604D01*
X726475Y941529D01*
X726431Y941448D01*
X726375Y941348D01*
X726319Y941248D01*
X726200Y941035D01*
X726088Y940823D01*
X726031Y940717D01*
X725988Y940623D01*
X725944Y940535D01*
X725906Y940454D01*
Y940448D01*
X725894Y940429D01*
X725882Y940392D01*
X725863Y940348D01*
X725838Y940292D01*
X725813Y940229D01*
X725788Y940154D01*
X725757Y940067D01*
X725719Y939979D01*
X725688Y939879D01*
X725619Y939667D01*
X725550Y939436D01*
X725488Y939192D01*
Y939186D01*
X725482Y939155D01*
X725469Y939111D01*
X725457Y939055D01*
X725444Y938980D01*
X725432Y938892D01*
X725413Y938792D01*
X725394Y938686D01*
X725375Y938561D01*
X725363Y938436D01*
X725344Y938298D01*
X725332Y938161D01*
X725307Y937861D01*
X725300Y937555D01*
Y937549D01*
Y937530D01*
Y937499D01*
Y937461D01*
X725307Y937411D01*
Y937349D01*
X725313Y937274D01*
X725319Y937193D01*
X725332Y937105D01*
X725338Y937005D01*
X725357Y936893D01*
X725369Y936780D01*
X725388Y936655D01*
X725413Y936524D01*
X725438Y936386D01*
X725463Y936243D01*
X725531Y935930D01*
X725619Y935605D01*
X725725Y935256D01*
X725850Y934893D01*
X726000Y934518D01*
X726088Y934331D01*
X726175Y934137D01*
X726275Y933943D01*
X726375Y933750D01*
X726488Y933550D01*
X726606Y933356D01*
X726044D01*
X726038Y933369D01*
X726013Y933393D01*
X725981Y933437D01*
X725938Y933500D01*
X725875Y933581D01*
X725813Y933675D01*
X725738Y933781D01*
X725663Y933906D01*
X725575Y934037D01*
X725488Y934187D01*
X725394Y934343D01*
X725300Y934512D01*
X725207Y934693D01*
X725113Y934881D01*
X725025Y935074D01*
X724938Y935274D01*
Y935281D01*
X724932Y935287D01*
X724919Y935324D01*
X724894Y935387D01*
X724869Y935462D01*
X724838Y935568D01*
X724800Y935687D01*
X724757Y935818D01*
X724719Y935974D01*
X724676Y936137D01*
X724632Y936311D01*
X724594Y936505D01*
X724563Y936699D01*
X724538Y936905D01*
X724513Y937118D01*
X724501Y937336D01*
X724494Y937555D01*
Y937567D01*
Y937605D01*
Y937655D01*
X724501Y937736D01*
X724507Y937824D01*
X724513Y937936D01*
X724519Y938061D01*
X724538Y938198D01*
X724550Y938342D01*
X724576Y938499D01*
X724601Y938667D01*
X724632Y938836D01*
X724669Y939011D01*
X724719Y939192D01*
X724769Y939367D01*
X724826Y939548D01*
Y939554D01*
X724832Y939561D01*
X724844Y939598D01*
X724869Y939661D01*
X724901Y939736D01*
X724944Y939836D01*
X724994Y939954D01*
X725057Y940092D01*
X725125Y940242D01*
X725207Y940398D01*
X725294Y940573D01*
X725394Y940754D01*
X725507Y940948D01*
X725625Y941142D01*
X725757Y941341D01*
X725894Y941548D01*
X726044Y941754D01*
X726606D01*
X726600Y941741D01*
D02*
G37*
G36*
X950631Y755172D02*
X950681D01*
X950731Y755165D01*
X950793Y755159D01*
X950862Y755153D01*
X951012Y755122D01*
X951168Y755084D01*
X951337Y755028D01*
X951506Y754953D01*
X951512D01*
X951525Y754940D01*
X951550Y754928D01*
X951581Y754909D01*
X951618Y754891D01*
X951656Y754859D01*
X951756Y754790D01*
X951868Y754703D01*
X951981Y754597D01*
X952087Y754472D01*
X952180Y754334D01*
Y754328D01*
X952193Y754316D01*
X952206Y754297D01*
X952218Y754266D01*
X952237Y754234D01*
X952255Y754191D01*
X952299Y754084D01*
X952343Y753966D01*
X952381Y753822D01*
X952405Y753672D01*
X952418Y753510D01*
Y753503D01*
Y753491D01*
Y753472D01*
X952412Y753441D01*
Y753403D01*
X952405Y753360D01*
X952393Y753260D01*
X952362Y753141D01*
X952324Y753016D01*
X952268Y752885D01*
X952193Y752754D01*
Y752747D01*
X952180Y752741D01*
X952168Y752722D01*
X952149Y752697D01*
X952099Y752635D01*
X952024Y752560D01*
X951931Y752472D01*
X951818Y752385D01*
X951687Y752297D01*
X951531Y752216D01*
X951537D01*
X951556Y752210D01*
X951587Y752204D01*
X951624Y752191D01*
X951674Y752172D01*
X951724Y752154D01*
X951856Y752097D01*
X951993Y752029D01*
X952143Y751929D01*
X952287Y751816D01*
X952349Y751748D01*
X952412Y751673D01*
X952418Y751666D01*
X952424Y751654D01*
X952443Y751629D01*
X952462Y751598D01*
X952487Y751560D01*
X952512Y751510D01*
X952543Y751454D01*
X952574Y751391D01*
X952599Y751316D01*
X952630Y751241D01*
X952655Y751154D01*
X952680Y751067D01*
X952718Y750866D01*
X952724Y750754D01*
X952730Y750642D01*
Y750635D01*
Y750604D01*
X952724Y750560D01*
Y750504D01*
X952712Y750429D01*
X952699Y750348D01*
X952680Y750254D01*
X952655Y750148D01*
X952624Y750042D01*
X952580Y749929D01*
X952531Y749810D01*
X952474Y749692D01*
X952399Y749573D01*
X952318Y749448D01*
X952224Y749336D01*
X952118Y749223D01*
X952112Y749217D01*
X952093Y749198D01*
X952056Y749167D01*
X952006Y749136D01*
X951949Y749086D01*
X951874Y749042D01*
X951793Y748986D01*
X951693Y748936D01*
X951587Y748879D01*
X951468Y748823D01*
X951343Y748780D01*
X951206Y748736D01*
X951062Y748698D01*
X950906Y748667D01*
X950743Y748648D01*
X950568Y748642D01*
X950531D01*
X950487Y748648D01*
X950431D01*
X950356Y748655D01*
X950275Y748667D01*
X950181Y748686D01*
X950075Y748705D01*
X949969Y748730D01*
X949856Y748767D01*
X949737Y748804D01*
X949625Y748855D01*
X949506Y748911D01*
X949388Y748979D01*
X949275Y749054D01*
X949169Y749142D01*
X949163Y749148D01*
X949144Y749167D01*
X949119Y749192D01*
X949081Y749236D01*
X949038Y749286D01*
X948988Y749342D01*
X948938Y749411D01*
X948881Y749492D01*
X948825Y749579D01*
X948769Y749679D01*
X948719Y749786D01*
X948669Y749904D01*
X948625Y750029D01*
X948588Y750161D01*
X948557Y750298D01*
X948538Y750448D01*
X949325Y750554D01*
Y750548D01*
X949331Y750523D01*
X949337Y750492D01*
X949350Y750442D01*
X949362Y750392D01*
X949381Y750323D01*
X949406Y750254D01*
X949431Y750179D01*
X949494Y750023D01*
X949575Y749861D01*
X949669Y749711D01*
X949725Y749648D01*
X949781Y749586D01*
X949787D01*
X949794Y749573D01*
X949812Y749561D01*
X949837Y749542D01*
X949869Y749517D01*
X949906Y749492D01*
X950000Y749442D01*
X950119Y749386D01*
X950256Y749336D01*
X950406Y749304D01*
X950487Y749298D01*
X950575Y749292D01*
X950631D01*
X950668Y749298D01*
X950718Y749304D01*
X950768Y749311D01*
X950831Y749323D01*
X950900Y749342D01*
X951050Y749386D01*
X951125Y749417D01*
X951206Y749454D01*
X951287Y749498D01*
X951362Y749548D01*
X951437Y749604D01*
X951512Y749673D01*
X951518Y749679D01*
X951531Y749692D01*
X951550Y749711D01*
X951574Y749742D01*
X951599Y749779D01*
X951631Y749823D01*
X951668Y749873D01*
X951706Y749936D01*
X951737Y749998D01*
X951774Y750073D01*
X951837Y750235D01*
X951856Y750323D01*
X951874Y750417D01*
X951887Y750517D01*
X951893Y750623D01*
Y750629D01*
Y750648D01*
Y750673D01*
X951887Y750717D01*
X951881Y750760D01*
X951874Y750816D01*
X951862Y750873D01*
X951849Y750941D01*
X951806Y751079D01*
X951781Y751154D01*
X951743Y751229D01*
X951699Y751304D01*
X951656Y751379D01*
X951599Y751448D01*
X951537Y751516D01*
X951531Y751523D01*
X951518Y751529D01*
X951499Y751548D01*
X951475Y751573D01*
X951437Y751598D01*
X951393Y751629D01*
X951349Y751660D01*
X951293Y751691D01*
X951231Y751723D01*
X951162Y751754D01*
X951006Y751810D01*
X950831Y751854D01*
X950737Y751860D01*
X950637Y751866D01*
X950600D01*
X950550Y751860D01*
X950487Y751854D01*
X950406Y751848D01*
X950312Y751835D01*
X950206Y751810D01*
X950087Y751785D01*
X950175Y752472D01*
X950187D01*
X950219Y752466D01*
X950262Y752460D01*
X950350D01*
X950387Y752466D01*
X950431D01*
X950481Y752472D01*
X950537Y752485D01*
X950600Y752491D01*
X950743Y752522D01*
X950893Y752572D01*
X951050Y752635D01*
X951206Y752722D01*
X951212Y752729D01*
X951225Y752735D01*
X951243Y752747D01*
X951268Y752772D01*
X951300Y752797D01*
X951337Y752835D01*
X951368Y752872D01*
X951412Y752922D01*
X951450Y752972D01*
X951481Y753035D01*
X951518Y753103D01*
X951550Y753172D01*
X951574Y753253D01*
X951593Y753341D01*
X951606Y753428D01*
X951612Y753528D01*
Y753535D01*
Y753547D01*
Y753572D01*
X951606Y753603D01*
Y753641D01*
X951599Y753684D01*
X951574Y753784D01*
X951543Y753897D01*
X951487Y754016D01*
X951418Y754134D01*
X951368Y754191D01*
X951318Y754247D01*
X951312Y754253D01*
X951306Y754259D01*
X951287Y754272D01*
X951268Y754291D01*
X951199Y754341D01*
X951112Y754391D01*
X951006Y754441D01*
X950875Y754491D01*
X950725Y754522D01*
X950650Y754534D01*
X950518D01*
X950487Y754528D01*
X950443D01*
X950400Y754522D01*
X950294Y754497D01*
X950169Y754466D01*
X950044Y754409D01*
X949912Y754341D01*
X949850Y754291D01*
X949794Y754241D01*
X949787Y754234D01*
X949781Y754228D01*
X949762Y754209D01*
X949744Y754184D01*
X949719Y754159D01*
X949694Y754122D01*
X949662Y754078D01*
X949631Y754028D01*
X949600Y753966D01*
X949563Y753903D01*
X949531Y753835D01*
X949500Y753753D01*
X949475Y753672D01*
X949444Y753578D01*
X949425Y753485D01*
X949406Y753378D01*
X948619Y753516D01*
Y753522D01*
X948625Y753553D01*
X948638Y753591D01*
X948650Y753647D01*
X948669Y753709D01*
X948694Y753791D01*
X948719Y753872D01*
X948756Y753966D01*
X948794Y754060D01*
X948844Y754159D01*
X948894Y754266D01*
X948956Y754366D01*
X949019Y754466D01*
X949094Y754566D01*
X949181Y754653D01*
X949269Y754741D01*
X949275Y754747D01*
X949294Y754759D01*
X949319Y754778D01*
X949362Y754809D01*
X949413Y754840D01*
X949469Y754878D01*
X949544Y754922D01*
X949619Y754959D01*
X949706Y755003D01*
X949806Y755041D01*
X949912Y755078D01*
X950025Y755109D01*
X950144Y755140D01*
X950268Y755159D01*
X950406Y755172D01*
X950544Y755178D01*
X950593D01*
X950631Y755172D01*
D02*
G37*
G36*
X943170D02*
X943220D01*
X943270Y755165D01*
X943333Y755159D01*
X943401Y755153D01*
X943551Y755122D01*
X943708Y755084D01*
X943876Y755028D01*
X944045Y754953D01*
X944051D01*
X944064Y754940D01*
X944089Y754928D01*
X944120Y754909D01*
X944158Y754891D01*
X944195Y754859D01*
X944295Y754790D01*
X944408Y754703D01*
X944520Y754597D01*
X944626Y754472D01*
X944720Y754334D01*
Y754328D01*
X944733Y754316D01*
X944745Y754297D01*
X944757Y754266D01*
X944776Y754234D01*
X944795Y754191D01*
X944839Y754084D01*
X944882Y753966D01*
X944920Y753822D01*
X944945Y753672D01*
X944957Y753510D01*
Y753503D01*
Y753491D01*
Y753472D01*
X944951Y753441D01*
Y753403D01*
X944945Y753360D01*
X944932Y753260D01*
X944901Y753141D01*
X944864Y753016D01*
X944807Y752885D01*
X944733Y752754D01*
Y752747D01*
X944720Y752741D01*
X944707Y752722D01*
X944689Y752697D01*
X944639Y752635D01*
X944564Y752560D01*
X944470Y752472D01*
X944358Y752385D01*
X944226Y752297D01*
X944070Y752216D01*
X944076D01*
X944095Y752210D01*
X944126Y752204D01*
X944164Y752191D01*
X944214Y752172D01*
X944264Y752154D01*
X944395Y752097D01*
X944532Y752029D01*
X944682Y751929D01*
X944826Y751816D01*
X944889Y751748D01*
X944951Y751673D01*
X944957Y751666D01*
X944964Y751654D01*
X944982Y751629D01*
X945001Y751598D01*
X945026Y751560D01*
X945051Y751510D01*
X945082Y751454D01*
X945114Y751391D01*
X945139Y751316D01*
X945170Y751241D01*
X945195Y751154D01*
X945220Y751067D01*
X945257Y750866D01*
X945264Y750754D01*
X945270Y750642D01*
Y750635D01*
Y750604D01*
X945264Y750560D01*
Y750504D01*
X945251Y750429D01*
X945239Y750348D01*
X945220Y750254D01*
X945195Y750148D01*
X945164Y750042D01*
X945120Y749929D01*
X945070Y749810D01*
X945014Y749692D01*
X944939Y749573D01*
X944857Y749448D01*
X944764Y749336D01*
X944658Y749223D01*
X944651Y749217D01*
X944632Y749198D01*
X944595Y749167D01*
X944545Y749136D01*
X944489Y749086D01*
X944414Y749042D01*
X944333Y748986D01*
X944233Y748936D01*
X944126Y748879D01*
X944008Y748823D01*
X943883Y748780D01*
X943745Y748736D01*
X943602Y748698D01*
X943445Y748667D01*
X943283Y748648D01*
X943108Y748642D01*
X943070D01*
X943027Y748648D01*
X942970D01*
X942895Y748655D01*
X942814Y748667D01*
X942720Y748686D01*
X942614Y748705D01*
X942508Y748730D01*
X942395Y748767D01*
X942277Y748804D01*
X942164Y748855D01*
X942046Y748911D01*
X941927Y748979D01*
X941814Y749054D01*
X941708Y749142D01*
X941702Y749148D01*
X941683Y749167D01*
X941658Y749192D01*
X941621Y749236D01*
X941577Y749286D01*
X941527Y749342D01*
X941477Y749411D01*
X941421Y749492D01*
X941365Y749579D01*
X941308Y749679D01*
X941258Y749786D01*
X941208Y749904D01*
X941165Y750029D01*
X941127Y750161D01*
X941096Y750298D01*
X941077Y750448D01*
X941864Y750554D01*
Y750548D01*
X941871Y750523D01*
X941877Y750492D01*
X941889Y750442D01*
X941902Y750392D01*
X941921Y750323D01*
X941946Y750254D01*
X941971Y750179D01*
X942033Y750023D01*
X942114Y749861D01*
X942208Y749711D01*
X942264Y749648D01*
X942321Y749586D01*
X942327D01*
X942333Y749573D01*
X942352Y749561D01*
X942377Y749542D01*
X942408Y749517D01*
X942446Y749492D01*
X942539Y749442D01*
X942658Y749386D01*
X942795Y749336D01*
X942945Y749304D01*
X943027Y749298D01*
X943114Y749292D01*
X943170D01*
X943208Y749298D01*
X943258Y749304D01*
X943308Y749311D01*
X943370Y749323D01*
X943439Y749342D01*
X943589Y749386D01*
X943664Y749417D01*
X943745Y749454D01*
X943826Y749498D01*
X943901Y749548D01*
X943976Y749604D01*
X944051Y749673D01*
X944058Y749679D01*
X944070Y749692D01*
X944089Y749711D01*
X944114Y749742D01*
X944139Y749779D01*
X944170Y749823D01*
X944208Y749873D01*
X944245Y749936D01*
X944276Y749998D01*
X944314Y750073D01*
X944376Y750235D01*
X944395Y750323D01*
X944414Y750417D01*
X944426Y750517D01*
X944433Y750623D01*
Y750629D01*
Y750648D01*
Y750673D01*
X944426Y750717D01*
X944420Y750760D01*
X944414Y750816D01*
X944401Y750873D01*
X944389Y750941D01*
X944345Y751079D01*
X944320Y751154D01*
X944283Y751229D01*
X944239Y751304D01*
X944195Y751379D01*
X944139Y751448D01*
X944076Y751516D01*
X944070Y751523D01*
X944058Y751529D01*
X944039Y751548D01*
X944014Y751573D01*
X943976Y751598D01*
X943933Y751629D01*
X943889Y751660D01*
X943833Y751691D01*
X943770Y751723D01*
X943701Y751754D01*
X943545Y751810D01*
X943370Y751854D01*
X943277Y751860D01*
X943177Y751866D01*
X943139D01*
X943089Y751860D01*
X943027Y751854D01*
X942945Y751848D01*
X942852Y751835D01*
X942746Y751810D01*
X942627Y751785D01*
X942714Y752472D01*
X942727D01*
X942758Y752466D01*
X942802Y752460D01*
X942889D01*
X942927Y752466D01*
X942970D01*
X943020Y752472D01*
X943077Y752485D01*
X943139Y752491D01*
X943283Y752522D01*
X943433Y752572D01*
X943589Y752635D01*
X943745Y752722D01*
X943752Y752729D01*
X943764Y752735D01*
X943783Y752747D01*
X943808Y752772D01*
X943839Y752797D01*
X943876Y752835D01*
X943908Y752872D01*
X943951Y752922D01*
X943989Y752972D01*
X944020Y753035D01*
X944058Y753103D01*
X944089Y753172D01*
X944114Y753253D01*
X944133Y753341D01*
X944145Y753428D01*
X944151Y753528D01*
Y753535D01*
Y753547D01*
Y753572D01*
X944145Y753603D01*
Y753641D01*
X944139Y753684D01*
X944114Y753784D01*
X944083Y753897D01*
X944026Y754016D01*
X943958Y754134D01*
X943908Y754191D01*
X943858Y754247D01*
X943851Y754253D01*
X943845Y754259D01*
X943826Y754272D01*
X943808Y754291D01*
X943739Y754341D01*
X943652Y754391D01*
X943545Y754441D01*
X943414Y754491D01*
X943264Y754522D01*
X943189Y754534D01*
X943058D01*
X943027Y754528D01*
X942983D01*
X942939Y754522D01*
X942833Y754497D01*
X942708Y754466D01*
X942583Y754409D01*
X942452Y754341D01*
X942389Y754291D01*
X942333Y754241D01*
X942327Y754234D01*
X942321Y754228D01*
X942302Y754209D01*
X942283Y754184D01*
X942258Y754159D01*
X942233Y754122D01*
X942202Y754078D01*
X942171Y754028D01*
X942139Y753966D01*
X942102Y753903D01*
X942071Y753835D01*
X942039Y753753D01*
X942014Y753672D01*
X941983Y753578D01*
X941964Y753485D01*
X941946Y753378D01*
X941158Y753516D01*
Y753522D01*
X941165Y753553D01*
X941177Y753591D01*
X941190Y753647D01*
X941208Y753709D01*
X941233Y753791D01*
X941258Y753872D01*
X941296Y753966D01*
X941333Y754060D01*
X941383Y754159D01*
X941433Y754266D01*
X941496Y754366D01*
X941558Y754466D01*
X941633Y754566D01*
X941721Y754653D01*
X941808Y754741D01*
X941814Y754747D01*
X941833Y754759D01*
X941858Y754778D01*
X941902Y754809D01*
X941952Y754840D01*
X942008Y754878D01*
X942083Y754922D01*
X942158Y754959D01*
X942246Y755003D01*
X942346Y755041D01*
X942452Y755078D01*
X942564Y755109D01*
X942683Y755140D01*
X942808Y755159D01*
X942945Y755172D01*
X943083Y755178D01*
X943133D01*
X943170Y755172D01*
D02*
G37*
G36*
X956529Y748748D02*
X955648D01*
X953174Y755153D01*
X954093D01*
X955755Y750498D01*
Y750492D01*
X955761Y750473D01*
X955773Y750442D01*
X955786Y750404D01*
X955805Y750354D01*
X955823Y750292D01*
X955848Y750229D01*
X955873Y750154D01*
X955923Y749992D01*
X955980Y749817D01*
X956036Y749636D01*
X956092Y749448D01*
Y749454D01*
X956098Y749473D01*
X956105Y749498D01*
X956117Y749536D01*
X956136Y749586D01*
X956148Y749642D01*
X956167Y749704D01*
X956192Y749779D01*
X956242Y749936D01*
X956298Y750110D01*
X956367Y750304D01*
X956436Y750498D01*
X958173Y755153D01*
X959035D01*
X956529Y748748D01*
D02*
G37*
G36*
X947382D02*
X946488D01*
Y749642D01*
X947382D01*
Y748748D01*
D02*
G37*
G36*
X933592D02*
X932804D01*
Y753753D01*
X932798D01*
X932792Y753741D01*
X932773Y753728D01*
X932754Y753709D01*
X932692Y753653D01*
X932604Y753585D01*
X932498Y753503D01*
X932367Y753410D01*
X932217Y753310D01*
X932054Y753210D01*
X932048D01*
X932036Y753197D01*
X932011Y753185D01*
X931980Y753166D01*
X931936Y753141D01*
X931892Y753116D01*
X931779Y753060D01*
X931655Y752997D01*
X931517Y752928D01*
X931373Y752866D01*
X931236Y752810D01*
Y753566D01*
X931242Y753572D01*
X931267Y753578D01*
X931298Y753597D01*
X931348Y753622D01*
X931405Y753653D01*
X931467Y753691D01*
X931542Y753728D01*
X931623Y753778D01*
X931805Y753885D01*
X931998Y754016D01*
X932192Y754159D01*
X932386Y754316D01*
X932392Y754322D01*
X932404Y754334D01*
X932436Y754359D01*
X932467Y754391D01*
X932504Y754434D01*
X932554Y754478D01*
X932604Y754534D01*
X932661Y754591D01*
X932773Y754722D01*
X932886Y754865D01*
X932992Y755022D01*
X933042Y755097D01*
X933079Y755178D01*
X933592D01*
Y748748D01*
D02*
G37*
G36*
X930080Y754397D02*
X927962D01*
Y748748D01*
X927112D01*
Y754397D01*
X925000D01*
Y755153D01*
X930080D01*
Y754397D01*
D02*
G37*
G36*
X960222Y755253D02*
X960247Y755215D01*
X960291Y755159D01*
X960341Y755078D01*
X960410Y754978D01*
X960491Y754859D01*
X960578Y754728D01*
X960666Y754578D01*
X960766Y754416D01*
X960866Y754247D01*
X960966Y754060D01*
X961066Y753872D01*
X961166Y753672D01*
X961260Y753472D01*
X961341Y753266D01*
X961422Y753060D01*
X961428Y753047D01*
X961434Y753016D01*
X961453Y752966D01*
X961472Y752897D01*
X961503Y752810D01*
X961528Y752703D01*
X961559Y752585D01*
X961591Y752454D01*
X961622Y752310D01*
X961653Y752154D01*
X961684Y751991D01*
X961709Y751816D01*
X961728Y751635D01*
X961747Y751454D01*
X961753Y751260D01*
X961759Y751067D01*
Y751060D01*
Y751054D01*
Y751035D01*
Y751016D01*
Y750948D01*
X961753Y750866D01*
X961747Y750760D01*
X961734Y750635D01*
X961722Y750492D01*
X961703Y750342D01*
X961678Y750173D01*
X961647Y749992D01*
X961609Y749804D01*
X961566Y749604D01*
X961516Y749404D01*
X961453Y749198D01*
X961384Y748992D01*
X961303Y748786D01*
X961297Y748773D01*
X961284Y748736D01*
X961260Y748680D01*
X961222Y748605D01*
X961178Y748505D01*
X961128Y748398D01*
X961066Y748273D01*
X960997Y748136D01*
X960922Y747992D01*
X960841Y747836D01*
X960747Y747680D01*
X960653Y747517D01*
X960441Y747186D01*
X960329Y747024D01*
X960210Y746868D01*
X959647D01*
X959654Y746874D01*
X959660Y746892D01*
X959679Y746924D01*
X959704Y746961D01*
X959735Y747011D01*
X959766Y747074D01*
X959810Y747149D01*
X959854Y747230D01*
X959897Y747317D01*
X959954Y747417D01*
X960004Y747524D01*
X960060Y747642D01*
X960116Y747767D01*
X960179Y747898D01*
X960241Y748036D01*
X960303Y748180D01*
X960422Y748486D01*
X960541Y748811D01*
X960653Y749161D01*
X960747Y749523D01*
X960835Y749898D01*
X960897Y750279D01*
X960922Y750479D01*
X960941Y750673D01*
X960947Y750866D01*
X960953Y751067D01*
Y751079D01*
Y751104D01*
Y751148D01*
Y751210D01*
X960947Y751279D01*
X960941Y751366D01*
X960935Y751466D01*
X960928Y751579D01*
X960922Y751698D01*
X960903Y751823D01*
X960891Y751960D01*
X960872Y752097D01*
X960822Y752391D01*
X960760Y752691D01*
Y752697D01*
X960753Y752722D01*
X960747Y752754D01*
X960735Y752803D01*
X960716Y752860D01*
X960697Y752928D01*
X960678Y753010D01*
X960653Y753097D01*
X960628Y753191D01*
X960597Y753285D01*
X960522Y753503D01*
X960441Y753728D01*
X960347Y753953D01*
Y753960D01*
X960341Y753972D01*
X960329Y753997D01*
X960310Y754028D01*
X960291Y754072D01*
X960266Y754128D01*
X960235Y754191D01*
X960197Y754266D01*
X960154Y754353D01*
X960104Y754447D01*
X960047Y754553D01*
X959978Y754672D01*
X959910Y754803D01*
X959829Y754947D01*
X959741Y755097D01*
X959647Y755265D01*
X960210D01*
X960222Y755253D01*
D02*
G37*
G36*
X940371D02*
X940352Y755228D01*
X940327Y755178D01*
X940290Y755115D01*
X940246Y755041D01*
X940202Y754959D01*
X940146Y754859D01*
X940090Y754759D01*
X939971Y754547D01*
X939859Y754334D01*
X939802Y754228D01*
X939759Y754134D01*
X939715Y754047D01*
X939678Y753966D01*
Y753960D01*
X939665Y753941D01*
X939652Y753903D01*
X939634Y753859D01*
X939609Y753803D01*
X939584Y753741D01*
X939559Y753666D01*
X939528Y753578D01*
X939490Y753491D01*
X939459Y753391D01*
X939390Y753178D01*
X939321Y752947D01*
X939259Y752703D01*
Y752697D01*
X939253Y752666D01*
X939240Y752622D01*
X939228Y752566D01*
X939215Y752491D01*
X939203Y752404D01*
X939184Y752304D01*
X939165Y752197D01*
X939146Y752073D01*
X939134Y751947D01*
X939115Y751810D01*
X939103Y751673D01*
X939078Y751373D01*
X939071Y751067D01*
Y751060D01*
Y751041D01*
Y751010D01*
Y750973D01*
X939078Y750923D01*
Y750860D01*
X939084Y750785D01*
X939090Y750704D01*
X939103Y750617D01*
X939109Y750517D01*
X939128Y750404D01*
X939140Y750292D01*
X939159Y750167D01*
X939184Y750035D01*
X939209Y749898D01*
X939234Y749754D01*
X939303Y749442D01*
X939390Y749117D01*
X939496Y748767D01*
X939621Y748405D01*
X939771Y748030D01*
X939859Y747842D01*
X939946Y747649D01*
X940046Y747455D01*
X940146Y747261D01*
X940259Y747061D01*
X940377Y746868D01*
X939815D01*
X939809Y746880D01*
X939784Y746905D01*
X939753Y746949D01*
X939709Y747011D01*
X939646Y747093D01*
X939584Y747186D01*
X939509Y747292D01*
X939434Y747417D01*
X939346Y747549D01*
X939259Y747699D01*
X939165Y747855D01*
X939071Y748024D01*
X938978Y748205D01*
X938884Y748392D01*
X938796Y748586D01*
X938709Y748786D01*
Y748792D01*
X938703Y748798D01*
X938690Y748836D01*
X938665Y748898D01*
X938640Y748973D01*
X938609Y749080D01*
X938571Y749198D01*
X938528Y749329D01*
X938490Y749486D01*
X938447Y749648D01*
X938403Y749823D01*
X938365Y750017D01*
X938334Y750210D01*
X938309Y750417D01*
X938284Y750629D01*
X938272Y750848D01*
X938265Y751067D01*
Y751079D01*
Y751116D01*
Y751166D01*
X938272Y751248D01*
X938278Y751335D01*
X938284Y751448D01*
X938290Y751573D01*
X938309Y751710D01*
X938322Y751854D01*
X938347Y752010D01*
X938372Y752179D01*
X938403Y752347D01*
X938440Y752522D01*
X938490Y752703D01*
X938540Y752878D01*
X938596Y753060D01*
Y753066D01*
X938603Y753072D01*
X938615Y753110D01*
X938640Y753172D01*
X938671Y753247D01*
X938715Y753347D01*
X938765Y753466D01*
X938828Y753603D01*
X938896Y753753D01*
X938978Y753910D01*
X939065Y754084D01*
X939165Y754266D01*
X939278Y754459D01*
X939396Y754653D01*
X939528Y754853D01*
X939665Y755059D01*
X939815Y755265D01*
X940377D01*
X940371Y755253D01*
D02*
G37*
G36*
X788926Y1023094D02*
X788976D01*
X789026Y1023088D01*
X789089Y1023082D01*
X789157Y1023076D01*
X789307Y1023045D01*
X789464Y1023007D01*
X789632Y1022951D01*
X789801Y1022876D01*
X789807D01*
X789820Y1022863D01*
X789845Y1022851D01*
X789876Y1022832D01*
X789914Y1022813D01*
X789951Y1022782D01*
X790051Y1022713D01*
X790163Y1022626D01*
X790276Y1022520D01*
X790382Y1022395D01*
X790476Y1022257D01*
Y1022251D01*
X790488Y1022238D01*
X790501Y1022220D01*
X790513Y1022188D01*
X790532Y1022157D01*
X790551Y1022113D01*
X790595Y1022007D01*
X790638Y1021889D01*
X790676Y1021745D01*
X790701Y1021595D01*
X790713Y1021432D01*
Y1021426D01*
Y1021414D01*
Y1021395D01*
X790707Y1021364D01*
Y1021326D01*
X790701Y1021282D01*
X790688Y1021182D01*
X790657Y1021064D01*
X790620Y1020939D01*
X790563Y1020807D01*
X790488Y1020676D01*
Y1020670D01*
X790476Y1020664D01*
X790463Y1020645D01*
X790445Y1020620D01*
X790395Y1020558D01*
X790320Y1020483D01*
X790226Y1020395D01*
X790114Y1020308D01*
X789982Y1020220D01*
X789826Y1020139D01*
X789832D01*
X789851Y1020133D01*
X789882Y1020126D01*
X789920Y1020114D01*
X789970Y1020095D01*
X790020Y1020077D01*
X790151Y1020020D01*
X790288Y1019951D01*
X790438Y1019852D01*
X790582Y1019739D01*
X790645Y1019670D01*
X790707Y1019595D01*
X790713Y1019589D01*
X790720Y1019577D01*
X790738Y1019552D01*
X790757Y1019520D01*
X790782Y1019483D01*
X790807Y1019433D01*
X790838Y1019377D01*
X790870Y1019314D01*
X790895Y1019239D01*
X790926Y1019164D01*
X790951Y1019077D01*
X790976Y1018989D01*
X791013Y1018789D01*
X791020Y1018677D01*
X791026Y1018564D01*
Y1018558D01*
Y1018527D01*
X791020Y1018483D01*
Y1018427D01*
X791007Y1018352D01*
X790994Y1018271D01*
X790976Y1018177D01*
X790951Y1018071D01*
X790920Y1017964D01*
X790876Y1017852D01*
X790826Y1017733D01*
X790770Y1017615D01*
X790695Y1017496D01*
X790613Y1017371D01*
X790520Y1017258D01*
X790413Y1017146D01*
X790407Y1017140D01*
X790388Y1017121D01*
X790351Y1017090D01*
X790301Y1017058D01*
X790245Y1017009D01*
X790170Y1016965D01*
X790089Y1016908D01*
X789988Y1016859D01*
X789882Y1016802D01*
X789764Y1016746D01*
X789639Y1016702D01*
X789501Y1016659D01*
X789358Y1016621D01*
X789201Y1016590D01*
X789039Y1016571D01*
X788864Y1016565D01*
X788826D01*
X788783Y1016571D01*
X788726D01*
X788651Y1016577D01*
X788570Y1016590D01*
X788476Y1016609D01*
X788370Y1016627D01*
X788264Y1016652D01*
X788151Y1016690D01*
X788033Y1016727D01*
X787920Y1016777D01*
X787802Y1016834D01*
X787683Y1016902D01*
X787570Y1016977D01*
X787464Y1017065D01*
X787458Y1017071D01*
X787439Y1017090D01*
X787414Y1017115D01*
X787377Y1017159D01*
X787333Y1017208D01*
X787283Y1017265D01*
X787233Y1017333D01*
X787177Y1017415D01*
X787121Y1017502D01*
X787064Y1017602D01*
X787014Y1017708D01*
X786964Y1017827D01*
X786921Y1017952D01*
X786883Y1018083D01*
X786852Y1018221D01*
X786833Y1018371D01*
X787620Y1018477D01*
Y1018471D01*
X787627Y1018446D01*
X787633Y1018414D01*
X787645Y1018364D01*
X787658Y1018314D01*
X787677Y1018246D01*
X787702Y1018177D01*
X787727Y1018102D01*
X787789Y1017946D01*
X787870Y1017783D01*
X787964Y1017633D01*
X788020Y1017571D01*
X788076Y1017508D01*
X788083D01*
X788089Y1017496D01*
X788108Y1017483D01*
X788133Y1017465D01*
X788164Y1017440D01*
X788202Y1017415D01*
X788295Y1017365D01*
X788414Y1017308D01*
X788551Y1017258D01*
X788701Y1017227D01*
X788783Y1017221D01*
X788870Y1017215D01*
X788926D01*
X788964Y1017221D01*
X789014Y1017227D01*
X789064Y1017233D01*
X789126Y1017246D01*
X789195Y1017265D01*
X789345Y1017308D01*
X789420Y1017340D01*
X789501Y1017377D01*
X789582Y1017421D01*
X789657Y1017471D01*
X789732Y1017527D01*
X789807Y1017596D01*
X789814Y1017602D01*
X789826Y1017615D01*
X789845Y1017633D01*
X789870Y1017665D01*
X789895Y1017702D01*
X789926Y1017746D01*
X789964Y1017796D01*
X790001Y1017858D01*
X790032Y1017921D01*
X790070Y1017996D01*
X790132Y1018158D01*
X790151Y1018246D01*
X790170Y1018339D01*
X790182Y1018439D01*
X790189Y1018546D01*
Y1018552D01*
Y1018571D01*
Y1018596D01*
X790182Y1018639D01*
X790176Y1018683D01*
X790170Y1018739D01*
X790157Y1018795D01*
X790145Y1018864D01*
X790101Y1019002D01*
X790076Y1019077D01*
X790039Y1019152D01*
X789995Y1019227D01*
X789951Y1019302D01*
X789895Y1019370D01*
X789832Y1019439D01*
X789826Y1019445D01*
X789814Y1019452D01*
X789795Y1019470D01*
X789770Y1019495D01*
X789732Y1019520D01*
X789689Y1019552D01*
X789645Y1019583D01*
X789589Y1019614D01*
X789526Y1019645D01*
X789457Y1019677D01*
X789301Y1019733D01*
X789126Y1019777D01*
X789033Y1019783D01*
X788933Y1019789D01*
X788895D01*
X788845Y1019783D01*
X788783Y1019777D01*
X788701Y1019770D01*
X788608Y1019758D01*
X788501Y1019733D01*
X788383Y1019708D01*
X788470Y1020395D01*
X788483D01*
X788514Y1020389D01*
X788558Y1020383D01*
X788645D01*
X788683Y1020389D01*
X788726D01*
X788776Y1020395D01*
X788833Y1020408D01*
X788895Y1020414D01*
X789039Y1020445D01*
X789189Y1020495D01*
X789345Y1020558D01*
X789501Y1020645D01*
X789507Y1020651D01*
X789520Y1020658D01*
X789539Y1020670D01*
X789564Y1020695D01*
X789595Y1020720D01*
X789632Y1020758D01*
X789664Y1020795D01*
X789707Y1020845D01*
X789745Y1020895D01*
X789776Y1020957D01*
X789814Y1021026D01*
X789845Y1021095D01*
X789870Y1021176D01*
X789889Y1021264D01*
X789901Y1021351D01*
X789907Y1021451D01*
Y1021457D01*
Y1021470D01*
Y1021495D01*
X789901Y1021526D01*
Y1021564D01*
X789895Y1021607D01*
X789870Y1021707D01*
X789839Y1021820D01*
X789782Y1021938D01*
X789714Y1022057D01*
X789664Y1022113D01*
X789614Y1022170D01*
X789607Y1022176D01*
X789601Y1022182D01*
X789582Y1022195D01*
X789564Y1022213D01*
X789495Y1022263D01*
X789407Y1022313D01*
X789301Y1022363D01*
X789170Y1022413D01*
X789020Y1022445D01*
X788945Y1022457D01*
X788814D01*
X788783Y1022451D01*
X788739D01*
X788695Y1022445D01*
X788589Y1022420D01*
X788464Y1022388D01*
X788339Y1022332D01*
X788208Y1022263D01*
X788145Y1022213D01*
X788089Y1022163D01*
X788083Y1022157D01*
X788076Y1022151D01*
X788058Y1022132D01*
X788039Y1022107D01*
X788014Y1022082D01*
X787989Y1022045D01*
X787958Y1022001D01*
X787927Y1021951D01*
X787895Y1021889D01*
X787858Y1021826D01*
X787827Y1021757D01*
X787795Y1021676D01*
X787770Y1021595D01*
X787739Y1021501D01*
X787720Y1021407D01*
X787702Y1021301D01*
X786914Y1021439D01*
Y1021445D01*
X786921Y1021476D01*
X786933Y1021514D01*
X786946Y1021570D01*
X786964Y1021632D01*
X786989Y1021714D01*
X787014Y1021795D01*
X787052Y1021889D01*
X787089Y1021982D01*
X787139Y1022082D01*
X787189Y1022188D01*
X787252Y1022288D01*
X787314Y1022388D01*
X787389Y1022488D01*
X787477Y1022576D01*
X787564Y1022663D01*
X787570Y1022670D01*
X787589Y1022682D01*
X787614Y1022701D01*
X787658Y1022732D01*
X787708Y1022763D01*
X787764Y1022801D01*
X787839Y1022844D01*
X787914Y1022882D01*
X788001Y1022926D01*
X788102Y1022963D01*
X788208Y1023001D01*
X788320Y1023032D01*
X788439Y1023063D01*
X788564Y1023082D01*
X788701Y1023094D01*
X788839Y1023101D01*
X788889D01*
X788926Y1023094D01*
D02*
G37*
G36*
X782990Y1017427D02*
X786140D01*
Y1016671D01*
X782141D01*
Y1023076D01*
X782990D01*
Y1017427D01*
D02*
G37*
G36*
X802292Y991239D02*
X797287D01*
Y991233D01*
X797300Y991227D01*
X797312Y991208D01*
X797331Y991189D01*
X797387Y991127D01*
X797456Y991039D01*
X797537Y990933D01*
X797631Y990802D01*
X797731Y990652D01*
X797831Y990489D01*
Y990483D01*
X797843Y990471D01*
X797856Y990445D01*
X797875Y990414D01*
X797900Y990370D01*
X797925Y990327D01*
X797981Y990214D01*
X798043Y990089D01*
X798112Y989952D01*
X798175Y989808D01*
X798231Y989671D01*
X797475D01*
X797468Y989677D01*
X797462Y989702D01*
X797443Y989733D01*
X797419Y989783D01*
X797387Y989839D01*
X797350Y989902D01*
X797312Y989977D01*
X797262Y990058D01*
X797156Y990239D01*
X797025Y990433D01*
X796881Y990627D01*
X796725Y990820D01*
X796719Y990827D01*
X796706Y990839D01*
X796681Y990870D01*
X796650Y990902D01*
X796606Y990939D01*
X796562Y990989D01*
X796506Y991039D01*
X796450Y991095D01*
X796319Y991208D01*
X796175Y991320D01*
X796019Y991426D01*
X795944Y991477D01*
X795863Y991514D01*
Y992026D01*
X802292D01*
Y991239D01*
D02*
G37*
G36*
X799324Y988259D02*
X799418D01*
X799530Y988252D01*
X799649Y988246D01*
X799787Y988234D01*
X799930Y988221D01*
X800074Y988209D01*
X800380Y988165D01*
X800680Y988109D01*
X800818Y988071D01*
X800955Y988027D01*
X800961D01*
X800986Y988015D01*
X801024Y988002D01*
X801068Y987984D01*
X801130Y987959D01*
X801193Y987927D01*
X801268Y987896D01*
X801349Y987852D01*
X801517Y987759D01*
X801699Y987640D01*
X801867Y987496D01*
X801949Y987415D01*
X802024Y987334D01*
X802030Y987327D01*
X802042Y987315D01*
X802061Y987290D01*
X802080Y987253D01*
X802111Y987209D01*
X802142Y987153D01*
X802174Y987090D01*
X802211Y987021D01*
X802249Y986940D01*
X802280Y986853D01*
X802311Y986759D01*
X802342Y986653D01*
X802361Y986546D01*
X802380Y986428D01*
X802392Y986309D01*
X802399Y986178D01*
Y986134D01*
X802392Y986090D01*
X802386Y986022D01*
X802380Y985947D01*
X802361Y985853D01*
X802342Y985753D01*
X802317Y985647D01*
X802280Y985534D01*
X802236Y985415D01*
X802186Y985291D01*
X802124Y985172D01*
X802049Y985053D01*
X801961Y984934D01*
X801855Y984822D01*
X801742Y984722D01*
X801730Y984716D01*
X801705Y984697D01*
X801655Y984666D01*
X801586Y984622D01*
X801499Y984578D01*
X801393Y984522D01*
X801261Y984466D01*
X801111Y984409D01*
X800943Y984347D01*
X800749Y984291D01*
X800536Y984235D01*
X800305Y984191D01*
X800043Y984147D01*
X799768Y984116D01*
X799462Y984097D01*
X799137Y984091D01*
X799131D01*
X799124D01*
X799087D01*
X799024D01*
X798949Y984097D01*
X798849D01*
X798743Y984103D01*
X798618Y984110D01*
X798481Y984122D01*
X798337Y984135D01*
X798187Y984147D01*
X797887Y984191D01*
X797581Y984247D01*
X797443Y984285D01*
X797306Y984322D01*
X797300D01*
X797275Y984335D01*
X797237Y984347D01*
X797194Y984366D01*
X797131Y984391D01*
X797069Y984422D01*
X796994Y984453D01*
X796912Y984497D01*
X796738Y984591D01*
X796562Y984709D01*
X796394Y984853D01*
X796313Y984934D01*
X796238Y985016D01*
X796231Y985022D01*
X796219Y985034D01*
X796200Y985066D01*
X796181Y985097D01*
X796150Y985147D01*
X796119Y985197D01*
X796088Y985266D01*
X796050Y985334D01*
X796013Y985415D01*
X795981Y985503D01*
X795950Y985597D01*
X795919Y985703D01*
X795900Y985809D01*
X795881Y985928D01*
X795869Y986047D01*
X795863Y986178D01*
Y986265D01*
X795869Y986309D01*
X795875Y986359D01*
X795881Y986422D01*
X795888Y986484D01*
X795913Y986621D01*
X795950Y986771D01*
X796006Y986928D01*
X796075Y987078D01*
Y987084D01*
X796088Y987096D01*
X796094Y987115D01*
X796113Y987146D01*
X796163Y987215D01*
X796225Y987309D01*
X796313Y987409D01*
X796413Y987515D01*
X796537Y987621D01*
X796675Y987721D01*
X796681D01*
X796694Y987734D01*
X796712Y987746D01*
X796744Y987765D01*
X796781Y987784D01*
X796825Y987809D01*
X796881Y987834D01*
X796937Y987865D01*
X797006Y987896D01*
X797075Y987927D01*
X797237Y987990D01*
X797425Y988059D01*
X797625Y988115D01*
X797631D01*
X797650Y988121D01*
X797681Y988127D01*
X797725Y988140D01*
X797781Y988152D01*
X797850Y988165D01*
X797931Y988177D01*
X798025Y988190D01*
X798125Y988202D01*
X798243Y988215D01*
X798362Y988227D01*
X798500Y988240D01*
X798643Y988252D01*
X798799Y988259D01*
X798962Y988265D01*
X799137D01*
X799149D01*
X799187D01*
X799243D01*
X799324Y988259D01*
D02*
G37*
G36*
X802292Y981292D02*
X797287D01*
Y981285D01*
X797300Y981279D01*
X797312Y981260D01*
X797331Y981242D01*
X797387Y981179D01*
X797456Y981092D01*
X797537Y980985D01*
X797631Y980854D01*
X797731Y980704D01*
X797831Y980542D01*
Y980536D01*
X797843Y980523D01*
X797856Y980498D01*
X797875Y980467D01*
X797900Y980423D01*
X797925Y980379D01*
X797981Y980267D01*
X798043Y980142D01*
X798112Y980004D01*
X798175Y979861D01*
X798231Y979723D01*
X797475D01*
X797468Y979730D01*
X797462Y979754D01*
X797443Y979786D01*
X797419Y979836D01*
X797387Y979892D01*
X797350Y979954D01*
X797312Y980029D01*
X797262Y980111D01*
X797156Y980292D01*
X797025Y980486D01*
X796881Y980679D01*
X796725Y980873D01*
X796719Y980879D01*
X796706Y980892D01*
X796681Y980923D01*
X796650Y980954D01*
X796606Y980992D01*
X796562Y981042D01*
X796506Y981092D01*
X796450Y981148D01*
X796319Y981260D01*
X796175Y981373D01*
X796019Y981479D01*
X795944Y981529D01*
X795863Y981566D01*
Y982079D01*
X802292D01*
Y981292D01*
D02*
G37*
G36*
X800305Y978380D02*
X800361Y978361D01*
X800430Y978342D01*
X800518Y978311D01*
X800618Y978274D01*
X800730Y978224D01*
X800849Y978174D01*
X800980Y978111D01*
X801111Y978042D01*
X801243Y977961D01*
X801374Y977874D01*
X801505Y977774D01*
X801630Y977674D01*
X801749Y977555D01*
X801855Y977430D01*
X801861Y977424D01*
X801880Y977399D01*
X801905Y977361D01*
X801942Y977305D01*
X801980Y977236D01*
X802024Y977155D01*
X802074Y977061D01*
X802124Y976961D01*
X802180Y976843D01*
X802224Y976712D01*
X802274Y976574D01*
X802311Y976424D01*
X802348Y976262D01*
X802374Y976099D01*
X802392Y975918D01*
X802399Y975737D01*
Y975637D01*
X802392Y975562D01*
X802386Y975474D01*
X802374Y975374D01*
X802361Y975262D01*
X802348Y975137D01*
X802324Y975006D01*
X802299Y974868D01*
X802261Y974731D01*
X802224Y974587D01*
X802174Y974450D01*
X802117Y974306D01*
X802055Y974175D01*
X801980Y974050D01*
X801974Y974043D01*
X801961Y974025D01*
X801936Y973987D01*
X801899Y973943D01*
X801861Y973887D01*
X801805Y973831D01*
X801742Y973762D01*
X801667Y973687D01*
X801586Y973606D01*
X801499Y973525D01*
X801399Y973444D01*
X801286Y973362D01*
X801168Y973287D01*
X801043Y973206D01*
X800905Y973137D01*
X800761Y973069D01*
X800749Y973062D01*
X800724Y973056D01*
X800680Y973037D01*
X800624Y973019D01*
X800549Y972994D01*
X800462Y972962D01*
X800361Y972931D01*
X800249Y972900D01*
X800124Y972869D01*
X799993Y972838D01*
X799849Y972812D01*
X799699Y972781D01*
X799543Y972763D01*
X799380Y972744D01*
X799212Y972738D01*
X799043Y972731D01*
X799031D01*
X798999D01*
X798943D01*
X798874Y972738D01*
X798787Y972744D01*
X798687Y972750D01*
X798575Y972763D01*
X798449Y972781D01*
X798318Y972800D01*
X798181Y972825D01*
X798031Y972856D01*
X797887Y972894D01*
X797737Y972937D01*
X797587Y972988D01*
X797443Y973044D01*
X797300Y973112D01*
X797294Y973119D01*
X797269Y973131D01*
X797225Y973150D01*
X797175Y973181D01*
X797112Y973225D01*
X797044Y973269D01*
X796962Y973325D01*
X796875Y973394D01*
X796787Y973462D01*
X796694Y973544D01*
X796600Y973637D01*
X796506Y973731D01*
X796413Y973837D01*
X796325Y973950D01*
X796238Y974068D01*
X796163Y974200D01*
X796156Y974206D01*
X796144Y974231D01*
X796125Y974268D01*
X796100Y974325D01*
X796075Y974387D01*
X796038Y974468D01*
X796006Y974556D01*
X795969Y974662D01*
X795931Y974768D01*
X795900Y974887D01*
X795863Y975018D01*
X795838Y975156D01*
X795813Y975299D01*
X795794Y975443D01*
X795781Y975599D01*
X795775Y975755D01*
Y975849D01*
X795781Y975918D01*
X795788Y975999D01*
X795800Y976093D01*
X795819Y976199D01*
X795838Y976318D01*
X795863Y976437D01*
X795894Y976568D01*
X795938Y976705D01*
X795981Y976836D01*
X796038Y976974D01*
X796106Y977111D01*
X796181Y977243D01*
X796269Y977368D01*
X796275Y977374D01*
X796294Y977399D01*
X796319Y977430D01*
X796356Y977474D01*
X796406Y977530D01*
X796469Y977586D01*
X796544Y977655D01*
X796625Y977730D01*
X796719Y977805D01*
X796819Y977880D01*
X796931Y977955D01*
X797056Y978030D01*
X797187Y978105D01*
X797331Y978174D01*
X797481Y978230D01*
X797644Y978286D01*
X797837Y977449D01*
X797831D01*
X797806Y977436D01*
X797768Y977424D01*
X797725Y977405D01*
X797669Y977386D01*
X797600Y977355D01*
X797531Y977324D01*
X797450Y977286D01*
X797287Y977193D01*
X797119Y977080D01*
X796962Y976949D01*
X796887Y976874D01*
X796825Y976799D01*
X796819Y976793D01*
X796813Y976780D01*
X796794Y976755D01*
X796775Y976724D01*
X796750Y976680D01*
X796725Y976630D01*
X796694Y976574D01*
X796663Y976505D01*
X796631Y976437D01*
X796600Y976355D01*
X796575Y976268D01*
X796550Y976174D01*
X796513Y975968D01*
X796506Y975855D01*
X796500Y975737D01*
Y975668D01*
X796506Y975612D01*
X796513Y975549D01*
X796519Y975474D01*
X796531Y975393D01*
X796544Y975306D01*
X796588Y975106D01*
X796612Y975006D01*
X796650Y974900D01*
X796694Y974799D01*
X796738Y974693D01*
X796794Y974593D01*
X796856Y974500D01*
X796862Y974493D01*
X796875Y974481D01*
X796894Y974456D01*
X796919Y974418D01*
X796956Y974381D01*
X797000Y974331D01*
X797050Y974281D01*
X797106Y974231D01*
X797175Y974168D01*
X797244Y974112D01*
X797325Y974056D01*
X797412Y974000D01*
X797500Y973943D01*
X797600Y973894D01*
X797700Y973850D01*
X797812Y973806D01*
X797818D01*
X797837Y973800D01*
X797868Y973787D01*
X797912Y973775D01*
X797968Y973762D01*
X798031Y973744D01*
X798106Y973725D01*
X798187Y973706D01*
X798275Y973687D01*
X798375Y973669D01*
X798581Y973637D01*
X798806Y973612D01*
X799037Y973606D01*
X799043D01*
X799074D01*
X799118D01*
X799174Y973612D01*
X799243D01*
X799331Y973619D01*
X799418Y973625D01*
X799524Y973637D01*
X799631Y973650D01*
X799743Y973662D01*
X799987Y973706D01*
X800230Y973762D01*
X800468Y973844D01*
X800474D01*
X800493Y973856D01*
X800524Y973868D01*
X800568Y973887D01*
X800618Y973912D01*
X800674Y973943D01*
X800805Y974025D01*
X800955Y974131D01*
X801105Y974256D01*
X801249Y974406D01*
X801311Y974493D01*
X801374Y974581D01*
X801380Y974587D01*
X801386Y974606D01*
X801399Y974631D01*
X801417Y974668D01*
X801442Y974712D01*
X801468Y974768D01*
X801492Y974831D01*
X801524Y974906D01*
X801549Y974981D01*
X801580Y975068D01*
X801624Y975249D01*
X801661Y975456D01*
X801667Y975562D01*
X801674Y975668D01*
Y975737D01*
X801667Y975787D01*
X801661Y975849D01*
X801655Y975918D01*
X801643Y975999D01*
X801624Y976087D01*
X801574Y976274D01*
X801543Y976374D01*
X801505Y976480D01*
X801455Y976580D01*
X801399Y976680D01*
X801336Y976780D01*
X801268Y976874D01*
X801261Y976880D01*
X801249Y976893D01*
X801224Y976924D01*
X801193Y976955D01*
X801149Y976993D01*
X801093Y977043D01*
X801030Y977093D01*
X800961Y977143D01*
X800880Y977199D01*
X800786Y977255D01*
X800686Y977311D01*
X800580Y977368D01*
X800462Y977418D01*
X800330Y977461D01*
X800193Y977505D01*
X800049Y977542D01*
X800262Y978392D01*
X800274D01*
X800305Y978380D01*
D02*
G37*
G36*
X904270Y650547D02*
X903389D01*
X900914Y656952D01*
X901833D01*
X903495Y652297D01*
Y652290D01*
X903501Y652272D01*
X903514Y652240D01*
X903526Y652203D01*
X903545Y652153D01*
X903564Y652090D01*
X903589Y652028D01*
X903614Y651953D01*
X903664Y651790D01*
X903720Y651616D01*
X903776Y651434D01*
X903832Y651247D01*
Y651253D01*
X903839Y651272D01*
X903845Y651297D01*
X903857Y651334D01*
X903876Y651384D01*
X903888Y651441D01*
X903907Y651503D01*
X903932Y651578D01*
X903982Y651734D01*
X904038Y651909D01*
X904107Y652103D01*
X904176Y652297D01*
X905913Y656952D01*
X906775D01*
X904270Y650547D01*
D02*
G37*
G36*
X900221Y656121D02*
X897653D01*
X897309Y654390D01*
X897315Y654396D01*
X897334Y654409D01*
X897365Y654427D01*
X897409Y654452D01*
X897459Y654484D01*
X897528Y654521D01*
X897596Y654552D01*
X897678Y654596D01*
X897765Y654633D01*
X897859Y654665D01*
X898065Y654734D01*
X898171Y654759D01*
X898284Y654777D01*
X898402Y654790D01*
X898521Y654796D01*
X898559D01*
X898602Y654790D01*
X898665D01*
X898734Y654777D01*
X898821Y654765D01*
X898915Y654746D01*
X899015Y654721D01*
X899121Y654690D01*
X899240Y654652D01*
X899358Y654609D01*
X899477Y654552D01*
X899596Y654484D01*
X899715Y654409D01*
X899827Y654315D01*
X899939Y654215D01*
X899946Y654209D01*
X899965Y654190D01*
X899996Y654152D01*
X900033Y654109D01*
X900077Y654052D01*
X900121Y653984D01*
X900177Y653903D01*
X900233Y653809D01*
X900283Y653709D01*
X900339Y653596D01*
X900383Y653471D01*
X900433Y653340D01*
X900464Y653196D01*
X900496Y653046D01*
X900514Y652884D01*
X900521Y652715D01*
Y652703D01*
Y652678D01*
X900514Y652634D01*
Y652571D01*
X900508Y652497D01*
X900496Y652409D01*
X900477Y652309D01*
X900458Y652203D01*
X900427Y652090D01*
X900396Y651965D01*
X900352Y651841D01*
X900302Y651715D01*
X900246Y651590D01*
X900177Y651459D01*
X900096Y651334D01*
X900008Y651216D01*
X900002Y651209D01*
X899977Y651184D01*
X899946Y651147D01*
X899896Y651097D01*
X899833Y651034D01*
X899758Y650972D01*
X899671Y650903D01*
X899571Y650828D01*
X899452Y650753D01*
X899327Y650685D01*
X899190Y650622D01*
X899040Y650560D01*
X898877Y650510D01*
X898709Y650472D01*
X898521Y650447D01*
X898327Y650441D01*
X898290D01*
X898246Y650447D01*
X898184D01*
X898109Y650453D01*
X898021Y650466D01*
X897927Y650485D01*
X897821Y650503D01*
X897709Y650528D01*
X897596Y650560D01*
X897478Y650597D01*
X897353Y650647D01*
X897234Y650703D01*
X897115Y650766D01*
X897003Y650841D01*
X896897Y650928D01*
X896890Y650935D01*
X896872Y650953D01*
X896847Y650978D01*
X896809Y651016D01*
X896765Y651066D01*
X896722Y651128D01*
X896665Y651197D01*
X896615Y651272D01*
X896559Y651359D01*
X896503Y651459D01*
X896453Y651565D01*
X896403Y651684D01*
X896359Y651809D01*
X896322Y651941D01*
X896291Y652078D01*
X896272Y652228D01*
X897096Y652297D01*
Y652290D01*
X897103Y652272D01*
X897109Y652240D01*
X897115Y652197D01*
X897128Y652147D01*
X897140Y652090D01*
X897184Y651953D01*
X897240Y651809D01*
X897309Y651659D01*
X897403Y651509D01*
X897459Y651447D01*
X897515Y651384D01*
X897521Y651378D01*
X897534Y651372D01*
X897553Y651359D01*
X897578Y651341D01*
X897609Y651316D01*
X897646Y651291D01*
X897746Y651234D01*
X897865Y651178D01*
X898002Y651134D01*
X898159Y651097D01*
X898240Y651091D01*
X898327Y651084D01*
X898384D01*
X898421Y651091D01*
X898471Y651097D01*
X898527Y651109D01*
X898590Y651122D01*
X898659Y651141D01*
X898815Y651191D01*
X898890Y651222D01*
X898971Y651266D01*
X899052Y651316D01*
X899134Y651372D01*
X899215Y651434D01*
X899290Y651509D01*
X899296Y651516D01*
X899308Y651528D01*
X899327Y651553D01*
X899352Y651590D01*
X899383Y651628D01*
X899415Y651684D01*
X899452Y651747D01*
X899490Y651815D01*
X899521Y651890D01*
X899558Y651978D01*
X899590Y652072D01*
X899621Y652172D01*
X899646Y652278D01*
X899665Y652397D01*
X899677Y652515D01*
X899683Y652646D01*
Y652653D01*
Y652678D01*
Y652709D01*
X899677Y652759D01*
X899671Y652815D01*
X899665Y652878D01*
X899652Y652953D01*
X899633Y653034D01*
X899590Y653203D01*
X899558Y653290D01*
X899521Y653378D01*
X899477Y653465D01*
X899427Y653552D01*
X899371Y653634D01*
X899302Y653709D01*
X899296Y653715D01*
X899283Y653727D01*
X899265Y653746D01*
X899233Y653771D01*
X899196Y653802D01*
X899152Y653834D01*
X899096Y653871D01*
X899040Y653909D01*
X898971Y653940D01*
X898896Y653977D01*
X898815Y654009D01*
X898727Y654040D01*
X898627Y654065D01*
X898527Y654084D01*
X898421Y654096D01*
X898309Y654102D01*
X898246D01*
X898209Y654096D01*
X898171D01*
X898077Y654084D01*
X897971Y654059D01*
X897859Y654027D01*
X897740Y653984D01*
X897621Y653927D01*
X897615D01*
X897609Y653921D01*
X897571Y653896D01*
X897515Y653859D01*
X897453Y653809D01*
X897371Y653740D01*
X897297Y653665D01*
X897215Y653577D01*
X897147Y653484D01*
X896409Y653577D01*
X897028Y656870D01*
X900221D01*
Y656121D01*
D02*
G37*
G36*
X888043Y656970D02*
X888111D01*
X888186Y656964D01*
X888274Y656952D01*
X888374Y656933D01*
X888486Y656914D01*
X888599Y656883D01*
X888717Y656852D01*
X888842Y656808D01*
X888961Y656758D01*
X889086Y656702D01*
X889199Y656633D01*
X889311Y656552D01*
X889417Y656464D01*
X889424Y656458D01*
X889442Y656439D01*
X889467Y656414D01*
X889498Y656371D01*
X889542Y656321D01*
X889586Y656264D01*
X889636Y656196D01*
X889686Y656114D01*
X889736Y656027D01*
X889786Y655927D01*
X889830Y655827D01*
X889873Y655714D01*
X889905Y655596D01*
X889930Y655465D01*
X889948Y655333D01*
X889955Y655196D01*
Y655190D01*
Y655177D01*
Y655158D01*
Y655133D01*
X889948Y655096D01*
Y655058D01*
X889936Y654958D01*
X889917Y654846D01*
X889886Y654715D01*
X889848Y654577D01*
X889792Y654440D01*
Y654434D01*
X889786Y654421D01*
X889773Y654402D01*
X889761Y654377D01*
X889742Y654340D01*
X889723Y654302D01*
X889667Y654202D01*
X889598Y654090D01*
X889505Y653952D01*
X889398Y653809D01*
X889267Y653659D01*
X889261Y653652D01*
X889249Y653640D01*
X889230Y653615D01*
X889199Y653584D01*
X889155Y653540D01*
X889111Y653490D01*
X889049Y653434D01*
X888980Y653365D01*
X888905Y653290D01*
X888811Y653203D01*
X888717Y653109D01*
X888605Y653009D01*
X888486Y652903D01*
X888355Y652784D01*
X888211Y652665D01*
X888061Y652534D01*
X888055Y652528D01*
X888030Y652509D01*
X887993Y652478D01*
X887949Y652440D01*
X887893Y652390D01*
X887830Y652334D01*
X887680Y652209D01*
X887530Y652078D01*
X887380Y651947D01*
X887311Y651884D01*
X887249Y651822D01*
X887193Y651772D01*
X887149Y651728D01*
X887143Y651722D01*
X887118Y651691D01*
X887080Y651647D01*
X887030Y651597D01*
X886980Y651528D01*
X886924Y651459D01*
X886868Y651384D01*
X886818Y651303D01*
X889961D01*
Y650547D01*
X885731D01*
Y650553D01*
Y650560D01*
Y650597D01*
Y650647D01*
X885737Y650722D01*
X885749Y650803D01*
X885762Y650897D01*
X885787Y650991D01*
X885818Y651091D01*
Y651097D01*
X885824Y651109D01*
X885837Y651134D01*
X885849Y651166D01*
X885868Y651203D01*
X885887Y651247D01*
X885943Y651359D01*
X886018Y651491D01*
X886106Y651634D01*
X886212Y651784D01*
X886337Y651941D01*
X886343Y651947D01*
X886356Y651959D01*
X886374Y651984D01*
X886405Y652015D01*
X886443Y652053D01*
X886487Y652103D01*
X886537Y652159D01*
X886599Y652222D01*
X886668Y652284D01*
X886743Y652359D01*
X886830Y652440D01*
X886918Y652528D01*
X887018Y652615D01*
X887124Y652709D01*
X887243Y652809D01*
X887362Y652909D01*
X887374Y652922D01*
X887405Y652946D01*
X887461Y652990D01*
X887530Y653053D01*
X887618Y653121D01*
X887711Y653209D01*
X887818Y653303D01*
X887930Y653403D01*
X888167Y653621D01*
X888399Y653846D01*
X888505Y653959D01*
X888605Y654071D01*
X888699Y654171D01*
X888774Y654271D01*
X888780Y654277D01*
X888792Y654296D01*
X888811Y654321D01*
X888830Y654359D01*
X888861Y654402D01*
X888892Y654452D01*
X888924Y654515D01*
X888961Y654577D01*
X889030Y654721D01*
X889092Y654877D01*
X889111Y654965D01*
X889130Y655046D01*
X889142Y655133D01*
X889148Y655215D01*
Y655221D01*
Y655233D01*
Y655258D01*
X889142Y655296D01*
X889136Y655333D01*
X889130Y655377D01*
X889105Y655490D01*
X889067Y655614D01*
X889005Y655746D01*
X888967Y655808D01*
X888924Y655877D01*
X888874Y655939D01*
X888811Y656002D01*
X888805Y656008D01*
X888799Y656014D01*
X888774Y656033D01*
X888749Y656052D01*
X888717Y656077D01*
X888674Y656102D01*
X888630Y656133D01*
X888574Y656164D01*
X888518Y656196D01*
X888449Y656227D01*
X888299Y656277D01*
X888130Y656314D01*
X888036Y656321D01*
X887936Y656327D01*
X887880D01*
X887843Y656321D01*
X887793Y656314D01*
X887736Y656308D01*
X887674Y656296D01*
X887611Y656283D01*
X887461Y656246D01*
X887311Y656183D01*
X887236Y656146D01*
X887161Y656096D01*
X887093Y656046D01*
X887024Y655983D01*
X887018Y655977D01*
X887012Y655971D01*
X886993Y655946D01*
X886974Y655921D01*
X886949Y655889D01*
X886918Y655846D01*
X886887Y655796D01*
X886855Y655740D01*
X886824Y655677D01*
X886793Y655608D01*
X886768Y655527D01*
X886737Y655446D01*
X886718Y655358D01*
X886699Y655258D01*
X886693Y655158D01*
X886687Y655046D01*
X885881Y655127D01*
Y655140D01*
X885887Y655165D01*
X885893Y655215D01*
X885899Y655277D01*
X885918Y655352D01*
X885937Y655440D01*
X885962Y655533D01*
X885987Y655639D01*
X886024Y655746D01*
X886068Y655858D01*
X886118Y655971D01*
X886174Y656089D01*
X886243Y656202D01*
X886318Y656308D01*
X886405Y656408D01*
X886499Y656502D01*
X886506Y656508D01*
X886524Y656520D01*
X886555Y656545D01*
X886599Y656577D01*
X886655Y656614D01*
X886718Y656652D01*
X886799Y656695D01*
X886887Y656739D01*
X886987Y656783D01*
X887093Y656827D01*
X887212Y656864D01*
X887343Y656902D01*
X887480Y656933D01*
X887630Y656958D01*
X887786Y656970D01*
X887955Y656977D01*
X887999D01*
X888043Y656970D01*
D02*
G37*
G36*
X885281Y656196D02*
X883163D01*
Y650547D01*
X882313D01*
Y656196D01*
X880201D01*
Y656952D01*
X885281D01*
Y656196D01*
D02*
G37*
G36*
X907962Y657052D02*
X907988Y657014D01*
X908031Y656958D01*
X908081Y656877D01*
X908150Y656777D01*
X908231Y656658D01*
X908319Y656527D01*
X908406Y656377D01*
X908506Y656214D01*
X908606Y656046D01*
X908706Y655858D01*
X908806Y655671D01*
X908906Y655471D01*
X909000Y655271D01*
X909081Y655065D01*
X909162Y654858D01*
X909168Y654846D01*
X909175Y654815D01*
X909193Y654765D01*
X909212Y654696D01*
X909243Y654609D01*
X909268Y654502D01*
X909300Y654384D01*
X909331Y654252D01*
X909362Y654109D01*
X909393Y653952D01*
X909425Y653790D01*
X909450Y653615D01*
X909468Y653434D01*
X909487Y653253D01*
X909493Y653059D01*
X909500Y652865D01*
Y652859D01*
Y652853D01*
Y652834D01*
Y652815D01*
Y652747D01*
X909493Y652665D01*
X909487Y652559D01*
X909475Y652434D01*
X909462Y652290D01*
X909443Y652140D01*
X909418Y651972D01*
X909387Y651790D01*
X909350Y651603D01*
X909306Y651403D01*
X909256Y651203D01*
X909193Y650997D01*
X909125Y650791D01*
X909043Y650585D01*
X909037Y650572D01*
X909025Y650535D01*
X909000Y650478D01*
X908962Y650403D01*
X908919Y650303D01*
X908868Y650197D01*
X908806Y650072D01*
X908737Y649935D01*
X908662Y649791D01*
X908581Y649635D01*
X908487Y649479D01*
X908394Y649316D01*
X908181Y648985D01*
X908069Y648822D01*
X907950Y648666D01*
X907388D01*
X907394Y648672D01*
X907400Y648691D01*
X907419Y648723D01*
X907444Y648760D01*
X907475Y648810D01*
X907506Y648873D01*
X907550Y648948D01*
X907594Y649029D01*
X907638Y649116D01*
X907694Y649216D01*
X907744Y649322D01*
X907800Y649441D01*
X907856Y649566D01*
X907919Y649697D01*
X907981Y649835D01*
X908044Y649978D01*
X908162Y650285D01*
X908281Y650610D01*
X908394Y650959D01*
X908487Y651322D01*
X908575Y651697D01*
X908637Y652078D01*
X908662Y652278D01*
X908681Y652472D01*
X908687Y652665D01*
X908693Y652865D01*
Y652878D01*
Y652903D01*
Y652946D01*
Y653009D01*
X908687Y653078D01*
X908681Y653165D01*
X908675Y653265D01*
X908669Y653378D01*
X908662Y653496D01*
X908643Y653621D01*
X908631Y653759D01*
X908612Y653896D01*
X908562Y654190D01*
X908500Y654490D01*
Y654496D01*
X908494Y654521D01*
X908487Y654552D01*
X908475Y654602D01*
X908456Y654659D01*
X908437Y654727D01*
X908419Y654809D01*
X908394Y654896D01*
X908369Y654990D01*
X908337Y655083D01*
X908262Y655302D01*
X908181Y655527D01*
X908087Y655752D01*
Y655758D01*
X908081Y655771D01*
X908069Y655796D01*
X908050Y655827D01*
X908031Y655871D01*
X908006Y655927D01*
X907975Y655989D01*
X907937Y656064D01*
X907894Y656152D01*
X907844Y656246D01*
X907787Y656352D01*
X907719Y656470D01*
X907650Y656602D01*
X907569Y656746D01*
X907481Y656895D01*
X907388Y657064D01*
X907950D01*
X907962Y657052D01*
D02*
G37*
G36*
X895572D02*
X895553Y657027D01*
X895528Y656977D01*
X895491Y656914D01*
X895447Y656839D01*
X895403Y656758D01*
X895347Y656658D01*
X895291Y656558D01*
X895172Y656346D01*
X895060Y656133D01*
X895003Y656027D01*
X894960Y655933D01*
X894916Y655846D01*
X894878Y655764D01*
Y655758D01*
X894866Y655740D01*
X894853Y655702D01*
X894835Y655658D01*
X894810Y655602D01*
X894785Y655539D01*
X894760Y655465D01*
X894728Y655377D01*
X894691Y655290D01*
X894660Y655190D01*
X894591Y654977D01*
X894522Y654746D01*
X894460Y654502D01*
Y654496D01*
X894453Y654465D01*
X894441Y654421D01*
X894428Y654365D01*
X894416Y654290D01*
X894403Y654202D01*
X894385Y654102D01*
X894366Y653996D01*
X894347Y653871D01*
X894335Y653746D01*
X894316Y653609D01*
X894304Y653471D01*
X894278Y653171D01*
X894272Y652865D01*
Y652859D01*
Y652840D01*
Y652809D01*
Y652772D01*
X894278Y652721D01*
Y652659D01*
X894285Y652584D01*
X894291Y652503D01*
X894304Y652415D01*
X894310Y652315D01*
X894329Y652203D01*
X894341Y652090D01*
X894360Y651965D01*
X894385Y651834D01*
X894410Y651697D01*
X894435Y651553D01*
X894503Y651241D01*
X894591Y650916D01*
X894697Y650566D01*
X894822Y650203D01*
X894972Y649828D01*
X895060Y649641D01*
X895147Y649447D01*
X895247Y649254D01*
X895347Y649060D01*
X895459Y648860D01*
X895578Y648666D01*
X895016D01*
X895010Y648679D01*
X894985Y648704D01*
X894953Y648747D01*
X894910Y648810D01*
X894847Y648891D01*
X894785Y648985D01*
X894710Y649091D01*
X894635Y649216D01*
X894547Y649347D01*
X894460Y649497D01*
X894366Y649653D01*
X894272Y649822D01*
X894178Y650003D01*
X894085Y650191D01*
X893997Y650385D01*
X893910Y650585D01*
Y650591D01*
X893904Y650597D01*
X893891Y650635D01*
X893866Y650697D01*
X893841Y650772D01*
X893810Y650878D01*
X893772Y650997D01*
X893729Y651128D01*
X893691Y651284D01*
X893647Y651447D01*
X893604Y651622D01*
X893566Y651815D01*
X893535Y652009D01*
X893510Y652215D01*
X893485Y652428D01*
X893472Y652646D01*
X893466Y652865D01*
Y652878D01*
Y652915D01*
Y652965D01*
X893472Y653046D01*
X893479Y653134D01*
X893485Y653246D01*
X893491Y653371D01*
X893510Y653509D01*
X893522Y653652D01*
X893547Y653809D01*
X893572Y653977D01*
X893604Y654146D01*
X893641Y654321D01*
X893691Y654502D01*
X893741Y654677D01*
X893797Y654858D01*
Y654865D01*
X893804Y654871D01*
X893816Y654908D01*
X893841Y654971D01*
X893872Y655046D01*
X893916Y655146D01*
X893966Y655265D01*
X894028Y655402D01*
X894097Y655552D01*
X894178Y655708D01*
X894266Y655883D01*
X894366Y656064D01*
X894478Y656258D01*
X894597Y656452D01*
X894728Y656652D01*
X894866Y656858D01*
X895016Y657064D01*
X895578D01*
X895572Y657052D01*
D02*
G37*
G36*
X696280Y654054D02*
X696367Y654048D01*
X696467Y654042D01*
X696580Y654029D01*
X696705Y654010D01*
X696836Y653991D01*
X696973Y653967D01*
X697123Y653935D01*
X697267Y653898D01*
X697417Y653854D01*
X697567Y653804D01*
X697711Y653748D01*
X697855Y653679D01*
X697861Y653673D01*
X697886Y653660D01*
X697929Y653642D01*
X697979Y653610D01*
X698042Y653567D01*
X698111Y653523D01*
X698192Y653467D01*
X698279Y653398D01*
X698367Y653329D01*
X698461Y653248D01*
X698554Y653154D01*
X698648Y653061D01*
X698742Y652954D01*
X698829Y652842D01*
X698917Y652723D01*
X698992Y652592D01*
X698998Y652586D01*
X699010Y652561D01*
X699029Y652523D01*
X699054Y652467D01*
X699079Y652404D01*
X699117Y652323D01*
X699148Y652236D01*
X699185Y652130D01*
X699223Y652023D01*
X699254Y651905D01*
X699292Y651773D01*
X699317Y651636D01*
X699342Y651492D01*
X699360Y651348D01*
X699373Y651192D01*
X699379Y651036D01*
Y650942D01*
X699373Y650874D01*
X699367Y650792D01*
X699354Y650699D01*
X699335Y650592D01*
X699317Y650474D01*
X699292Y650355D01*
X699260Y650224D01*
X699217Y650086D01*
X699173Y649955D01*
X699117Y649818D01*
X699048Y649680D01*
X698973Y649549D01*
X698885Y649424D01*
X698879Y649418D01*
X698860Y649393D01*
X698836Y649361D01*
X698798Y649318D01*
X698748Y649261D01*
X698686Y649205D01*
X698611Y649137D01*
X698529Y649062D01*
X698436Y648987D01*
X698336Y648912D01*
X698223Y648837D01*
X698098Y648762D01*
X697967Y648687D01*
X697823Y648618D01*
X697673Y648562D01*
X697511Y648505D01*
X697317Y649343D01*
X697323D01*
X697348Y649355D01*
X697386Y649368D01*
X697430Y649386D01*
X697486Y649405D01*
X697554Y649436D01*
X697623Y649468D01*
X697704Y649505D01*
X697867Y649599D01*
X698036Y649711D01*
X698192Y649843D01*
X698267Y649918D01*
X698329Y649993D01*
X698336Y649999D01*
X698342Y650011D01*
X698361Y650036D01*
X698379Y650068D01*
X698404Y650111D01*
X698429Y650161D01*
X698461Y650218D01*
X698492Y650286D01*
X698523Y650355D01*
X698554Y650436D01*
X698579Y650524D01*
X698604Y650617D01*
X698642Y650824D01*
X698648Y650936D01*
X698654Y651055D01*
Y651124D01*
X698648Y651180D01*
X698642Y651242D01*
X698635Y651317D01*
X698623Y651398D01*
X698611Y651486D01*
X698567Y651686D01*
X698542Y651786D01*
X698504Y651892D01*
X698461Y651992D01*
X698417Y652098D01*
X698361Y652198D01*
X698298Y652292D01*
X698292Y652298D01*
X698279Y652311D01*
X698261Y652336D01*
X698236Y652373D01*
X698198Y652411D01*
X698154Y652461D01*
X698104Y652511D01*
X698048Y652561D01*
X697979Y652623D01*
X697911Y652679D01*
X697830Y652736D01*
X697742Y652792D01*
X697654Y652848D01*
X697554Y652898D01*
X697455Y652942D01*
X697342Y652986D01*
X697336D01*
X697317Y652992D01*
X697286Y653004D01*
X697242Y653017D01*
X697186Y653029D01*
X697123Y653048D01*
X697048Y653067D01*
X696967Y653085D01*
X696880Y653104D01*
X696780Y653123D01*
X696573Y653154D01*
X696349Y653179D01*
X696117Y653186D01*
X696111D01*
X696080D01*
X696036D01*
X695980Y653179D01*
X695911D01*
X695824Y653173D01*
X695736Y653167D01*
X695630Y653154D01*
X695524Y653142D01*
X695411Y653129D01*
X695168Y653085D01*
X694924Y653029D01*
X694687Y652948D01*
X694680D01*
X694661Y652935D01*
X694630Y652923D01*
X694586Y652904D01*
X694537Y652879D01*
X694480Y652848D01*
X694349Y652767D01*
X694199Y652661D01*
X694049Y652536D01*
X693905Y652386D01*
X693843Y652298D01*
X693781Y652211D01*
X693774Y652205D01*
X693768Y652186D01*
X693755Y652161D01*
X693737Y652123D01*
X693712Y652079D01*
X693687Y652023D01*
X693662Y651961D01*
X693631Y651886D01*
X693605Y651811D01*
X693574Y651723D01*
X693531Y651542D01*
X693493Y651336D01*
X693487Y651230D01*
X693481Y651124D01*
Y651055D01*
X693487Y651005D01*
X693493Y650942D01*
X693499Y650874D01*
X693512Y650792D01*
X693531Y650705D01*
X693581Y650517D01*
X693612Y650417D01*
X693649Y650311D01*
X693699Y650211D01*
X693755Y650111D01*
X693818Y650011D01*
X693887Y649918D01*
X693893Y649911D01*
X693905Y649899D01*
X693931Y649868D01*
X693962Y649836D01*
X694005Y649799D01*
X694062Y649749D01*
X694124Y649699D01*
X694193Y649649D01*
X694274Y649593D01*
X694368Y649536D01*
X694468Y649480D01*
X694574Y649424D01*
X694693Y649374D01*
X694824Y649330D01*
X694961Y649286D01*
X695105Y649249D01*
X694893Y648399D01*
X694880D01*
X694849Y648412D01*
X694793Y648430D01*
X694724Y648449D01*
X694637Y648480D01*
X694537Y648518D01*
X694424Y648568D01*
X694305Y648618D01*
X694174Y648680D01*
X694043Y648749D01*
X693912Y648830D01*
X693781Y648918D01*
X693649Y649018D01*
X693524Y649118D01*
X693406Y649237D01*
X693299Y649361D01*
X693293Y649368D01*
X693274Y649393D01*
X693249Y649430D01*
X693212Y649486D01*
X693174Y649555D01*
X693131Y649636D01*
X693081Y649730D01*
X693031Y649830D01*
X692974Y649949D01*
X692931Y650080D01*
X692881Y650218D01*
X692843Y650367D01*
X692806Y650530D01*
X692781Y650692D01*
X692762Y650874D01*
X692756Y651055D01*
Y651155D01*
X692762Y651230D01*
X692768Y651317D01*
X692781Y651417D01*
X692793Y651530D01*
X692806Y651655D01*
X692831Y651786D01*
X692856Y651923D01*
X692893Y652061D01*
X692931Y652205D01*
X692981Y652342D01*
X693037Y652486D01*
X693099Y652617D01*
X693174Y652742D01*
X693181Y652748D01*
X693193Y652767D01*
X693218Y652804D01*
X693256Y652848D01*
X693293Y652904D01*
X693349Y652961D01*
X693412Y653029D01*
X693487Y653104D01*
X693568Y653186D01*
X693655Y653267D01*
X693755Y653348D01*
X693868Y653429D01*
X693987Y653504D01*
X694112Y653585D01*
X694249Y653654D01*
X694393Y653723D01*
X694405Y653729D01*
X694430Y653735D01*
X694474Y653754D01*
X694530Y653773D01*
X694605Y653798D01*
X694693Y653829D01*
X694793Y653860D01*
X694905Y653892D01*
X695030Y653923D01*
X695161Y653954D01*
X695305Y653979D01*
X695455Y654010D01*
X695611Y654029D01*
X695774Y654048D01*
X695942Y654054D01*
X696111Y654060D01*
X696124D01*
X696155D01*
X696211D01*
X696280Y654054D01*
D02*
G37*
G36*
X694668Y646881D02*
X694661D01*
X694637Y646875D01*
X694605Y646868D01*
X694555Y646856D01*
X694505Y646843D01*
X694437Y646825D01*
X694368Y646800D01*
X694293Y646775D01*
X694137Y646712D01*
X693974Y646631D01*
X693824Y646537D01*
X693762Y646481D01*
X693699Y646425D01*
Y646418D01*
X693687Y646412D01*
X693674Y646393D01*
X693655Y646368D01*
X693631Y646337D01*
X693605Y646300D01*
X693556Y646206D01*
X693499Y646087D01*
X693449Y645950D01*
X693418Y645800D01*
X693412Y645719D01*
X693406Y645631D01*
Y645575D01*
X693412Y645537D01*
X693418Y645487D01*
X693424Y645437D01*
X693437Y645375D01*
X693456Y645306D01*
X693499Y645156D01*
X693531Y645081D01*
X693568Y645000D01*
X693612Y644919D01*
X693662Y644844D01*
X693718Y644769D01*
X693787Y644694D01*
X693793Y644688D01*
X693805Y644675D01*
X693824Y644656D01*
X693856Y644631D01*
X693893Y644606D01*
X693937Y644575D01*
X693987Y644538D01*
X694049Y644500D01*
X694112Y644469D01*
X694187Y644432D01*
X694349Y644369D01*
X694437Y644350D01*
X694530Y644332D01*
X694630Y644319D01*
X694736Y644313D01*
X694743D01*
X694762D01*
X694787D01*
X694830Y644319D01*
X694874Y644325D01*
X694930Y644332D01*
X694986Y644344D01*
X695055Y644357D01*
X695193Y644400D01*
X695268Y644425D01*
X695343Y644463D01*
X695418Y644506D01*
X695493Y644550D01*
X695561Y644606D01*
X695630Y644669D01*
X695636Y644675D01*
X695642Y644688D01*
X695661Y644706D01*
X695686Y644731D01*
X695711Y644769D01*
X695742Y644813D01*
X695774Y644856D01*
X695805Y644913D01*
X695836Y644975D01*
X695867Y645044D01*
X695924Y645200D01*
X695967Y645375D01*
X695974Y645469D01*
X695980Y645569D01*
Y645606D01*
X695974Y645656D01*
X695967Y645719D01*
X695961Y645800D01*
X695949Y645894D01*
X695924Y646000D01*
X695899Y646118D01*
X696586Y646031D01*
Y646019D01*
X696580Y645987D01*
X696573Y645944D01*
Y645856D01*
X696580Y645819D01*
Y645775D01*
X696586Y645725D01*
X696599Y645669D01*
X696605Y645606D01*
X696636Y645462D01*
X696686Y645312D01*
X696749Y645156D01*
X696836Y645000D01*
X696842Y644994D01*
X696849Y644981D01*
X696861Y644963D01*
X696886Y644938D01*
X696911Y644906D01*
X696948Y644869D01*
X696986Y644838D01*
X697036Y644794D01*
X697086Y644756D01*
X697148Y644725D01*
X697217Y644688D01*
X697286Y644656D01*
X697367Y644631D01*
X697455Y644613D01*
X697542Y644600D01*
X697642Y644594D01*
X697648D01*
X697661D01*
X697686D01*
X697717Y644600D01*
X697755D01*
X697798Y644606D01*
X697898Y644631D01*
X698011Y644663D01*
X698129Y644719D01*
X698248Y644788D01*
X698304Y644838D01*
X698361Y644888D01*
X698367Y644894D01*
X698373Y644900D01*
X698386Y644919D01*
X698404Y644938D01*
X698454Y645006D01*
X698504Y645094D01*
X698554Y645200D01*
X698604Y645331D01*
X698635Y645481D01*
X698648Y645556D01*
Y645687D01*
X698642Y645719D01*
Y645762D01*
X698635Y645806D01*
X698611Y645912D01*
X698579Y646037D01*
X698523Y646162D01*
X698454Y646293D01*
X698404Y646356D01*
X698354Y646412D01*
X698348Y646418D01*
X698342Y646425D01*
X698323Y646443D01*
X698298Y646462D01*
X698273Y646487D01*
X698236Y646512D01*
X698192Y646543D01*
X698142Y646575D01*
X698079Y646606D01*
X698017Y646643D01*
X697948Y646675D01*
X697867Y646706D01*
X697786Y646731D01*
X697692Y646762D01*
X697598Y646781D01*
X697492Y646800D01*
X697629Y647587D01*
X697636D01*
X697667Y647581D01*
X697704Y647568D01*
X697761Y647556D01*
X697823Y647537D01*
X697904Y647512D01*
X697986Y647487D01*
X698079Y647449D01*
X698173Y647412D01*
X698273Y647362D01*
X698379Y647312D01*
X698479Y647250D01*
X698579Y647187D01*
X698679Y647112D01*
X698767Y647025D01*
X698854Y646937D01*
X698860Y646931D01*
X698873Y646912D01*
X698892Y646887D01*
X698923Y646843D01*
X698954Y646793D01*
X698992Y646737D01*
X699035Y646662D01*
X699073Y646587D01*
X699117Y646500D01*
X699154Y646400D01*
X699192Y646293D01*
X699223Y646181D01*
X699254Y646062D01*
X699273Y645937D01*
X699285Y645800D01*
X699292Y645662D01*
Y645612D01*
X699285Y645575D01*
Y645525D01*
X699279Y645475D01*
X699273Y645413D01*
X699267Y645344D01*
X699235Y645194D01*
X699198Y645038D01*
X699142Y644869D01*
X699067Y644700D01*
Y644694D01*
X699054Y644681D01*
X699042Y644656D01*
X699023Y644625D01*
X699004Y644588D01*
X698973Y644550D01*
X698904Y644450D01*
X698817Y644338D01*
X698710Y644225D01*
X698586Y644119D01*
X698448Y644025D01*
X698442D01*
X698429Y644013D01*
X698411Y644000D01*
X698379Y643988D01*
X698348Y643969D01*
X698304Y643950D01*
X698198Y643907D01*
X698079Y643863D01*
X697936Y643825D01*
X697786Y643800D01*
X697623Y643788D01*
X697617D01*
X697605D01*
X697586D01*
X697554Y643794D01*
X697517D01*
X697473Y643800D01*
X697373Y643813D01*
X697255Y643844D01*
X697130Y643882D01*
X696998Y643938D01*
X696867Y644013D01*
X696861D01*
X696855Y644025D01*
X696836Y644038D01*
X696811Y644056D01*
X696749Y644107D01*
X696674Y644182D01*
X696586Y644275D01*
X696499Y644388D01*
X696411Y644519D01*
X696330Y644675D01*
Y644669D01*
X696324Y644650D01*
X696317Y644619D01*
X696305Y644581D01*
X696286Y644531D01*
X696267Y644481D01*
X696211Y644350D01*
X696142Y644213D01*
X696042Y644063D01*
X695930Y643919D01*
X695861Y643857D01*
X695786Y643794D01*
X695780Y643788D01*
X695768Y643782D01*
X695742Y643763D01*
X695711Y643744D01*
X695674Y643719D01*
X695624Y643694D01*
X695567Y643663D01*
X695505Y643632D01*
X695430Y643607D01*
X695355Y643575D01*
X695268Y643550D01*
X695180Y643525D01*
X694980Y643488D01*
X694868Y643482D01*
X694755Y643475D01*
X694749D01*
X694718D01*
X694674Y643482D01*
X694618D01*
X694543Y643494D01*
X694462Y643507D01*
X694368Y643525D01*
X694262Y643550D01*
X694155Y643582D01*
X694043Y643625D01*
X693924Y643675D01*
X693805Y643732D01*
X693687Y643807D01*
X693562Y643888D01*
X693449Y643982D01*
X693337Y644088D01*
X693331Y644094D01*
X693312Y644113D01*
X693281Y644150D01*
X693249Y644200D01*
X693199Y644257D01*
X693156Y644332D01*
X693099Y644413D01*
X693049Y644513D01*
X692993Y644619D01*
X692937Y644738D01*
X692893Y644863D01*
X692850Y645000D01*
X692812Y645144D01*
X692781Y645300D01*
X692762Y645462D01*
X692756Y645637D01*
Y645675D01*
X692762Y645719D01*
Y645775D01*
X692768Y645850D01*
X692781Y645931D01*
X692800Y646025D01*
X692818Y646131D01*
X692843Y646237D01*
X692881Y646350D01*
X692918Y646468D01*
X692968Y646581D01*
X693024Y646700D01*
X693093Y646818D01*
X693168Y646931D01*
X693256Y647037D01*
X693262Y647043D01*
X693281Y647062D01*
X693306Y647087D01*
X693349Y647124D01*
X693399Y647168D01*
X693456Y647218D01*
X693524Y647268D01*
X693605Y647325D01*
X693693Y647381D01*
X693793Y647437D01*
X693899Y647487D01*
X694018Y647537D01*
X694143Y647581D01*
X694274Y647618D01*
X694412Y647649D01*
X694562Y647668D01*
X694668Y646881D01*
D02*
G37*
%LPC*%
G36*
X329691Y897195D02*
X328210D01*
Y892303D01*
X329678D01*
X329729Y892309D01*
X329791D01*
X329860Y892315D01*
X329935D01*
X330097Y892328D01*
X330260Y892353D01*
X330422Y892378D01*
X330497Y892397D01*
X330566Y892415D01*
X330572D01*
X330585Y892422D01*
X330603Y892428D01*
X330628Y892440D01*
X330691Y892465D01*
X330772Y892503D01*
X330866Y892553D01*
X330960Y892609D01*
X331053Y892678D01*
X331141Y892753D01*
X331147Y892759D01*
X331153Y892765D01*
X331172Y892784D01*
X331191Y892809D01*
X331216Y892840D01*
X331247Y892871D01*
X331316Y892965D01*
X331391Y893084D01*
X331472Y893221D01*
X331547Y893378D01*
X331615Y893559D01*
Y893565D01*
X331622Y893584D01*
X331634Y893609D01*
X331641Y893653D01*
X331653Y893703D01*
X331672Y893759D01*
X331684Y893828D01*
X331703Y893909D01*
X331716Y893990D01*
X331728Y894084D01*
X331747Y894190D01*
X331759Y894296D01*
X331772Y894415D01*
X331778Y894534D01*
X331784Y894796D01*
Y894809D01*
Y894840D01*
Y894890D01*
X331778Y894958D01*
X331772Y895046D01*
X331766Y895140D01*
X331759Y895246D01*
X331740Y895365D01*
X331728Y895483D01*
X331703Y895608D01*
X331647Y895864D01*
X331609Y895990D01*
X331566Y896114D01*
X331509Y896227D01*
X331453Y896333D01*
X331447Y896339D01*
X331441Y896358D01*
X331422Y896383D01*
X331397Y896421D01*
X331359Y896464D01*
X331322Y896514D01*
X331228Y896627D01*
X331109Y896752D01*
X330972Y896870D01*
X330816Y896977D01*
X330734Y897027D01*
X330647Y897064D01*
X330641D01*
X330628Y897070D01*
X330610Y897077D01*
X330585Y897083D01*
X330547Y897095D01*
X330503Y897108D01*
X330447Y897120D01*
X330385Y897133D01*
X330310Y897139D01*
X330235Y897152D01*
X330141Y897164D01*
X330041Y897177D01*
X329935Y897183D01*
X329816Y897189D01*
X329691Y897195D01*
D02*
G37*
G36*
X305703Y896689D02*
X303691Y893796D01*
X305703D01*
Y896689D01*
D02*
G37*
G36*
X1065617Y315850D02*
X1064136D01*
Y310958D01*
X1065604D01*
X1065654Y310964D01*
X1065716D01*
X1065785Y310970D01*
X1065860D01*
X1066023Y310983D01*
X1066185Y311008D01*
X1066348Y311033D01*
X1066423Y311051D01*
X1066491Y311070D01*
X1066497D01*
X1066510Y311076D01*
X1066529Y311083D01*
X1066554Y311095D01*
X1066616Y311120D01*
X1066697Y311158D01*
X1066791Y311208D01*
X1066885Y311264D01*
X1066979Y311333D01*
X1067066Y311408D01*
X1067072Y311414D01*
X1067079Y311420D01*
X1067097Y311439D01*
X1067116Y311464D01*
X1067141Y311495D01*
X1067172Y311526D01*
X1067241Y311620D01*
X1067316Y311739D01*
X1067397Y311876D01*
X1067472Y312032D01*
X1067541Y312214D01*
Y312220D01*
X1067547Y312239D01*
X1067560Y312264D01*
X1067566Y312307D01*
X1067579Y312357D01*
X1067597Y312414D01*
X1067610Y312482D01*
X1067628Y312564D01*
X1067641Y312645D01*
X1067654Y312738D01*
X1067672Y312845D01*
X1067685Y312951D01*
X1067697Y313070D01*
X1067703Y313188D01*
X1067710Y313451D01*
Y313463D01*
Y313495D01*
Y313545D01*
X1067703Y313613D01*
X1067697Y313701D01*
X1067691Y313794D01*
X1067685Y313901D01*
X1067666Y314019D01*
X1067654Y314138D01*
X1067628Y314263D01*
X1067572Y314519D01*
X1067535Y314644D01*
X1067491Y314769D01*
X1067435Y314882D01*
X1067378Y314988D01*
X1067372Y314994D01*
X1067366Y315013D01*
X1067347Y315038D01*
X1067322Y315075D01*
X1067285Y315119D01*
X1067247Y315169D01*
X1067154Y315282D01*
X1067035Y315407D01*
X1066897Y315525D01*
X1066741Y315632D01*
X1066660Y315681D01*
X1066572Y315719D01*
X1066566D01*
X1066554Y315725D01*
X1066535Y315732D01*
X1066510Y315738D01*
X1066472Y315750D01*
X1066429Y315763D01*
X1066373Y315775D01*
X1066310Y315788D01*
X1066235Y315794D01*
X1066160Y315807D01*
X1066066Y315819D01*
X1065966Y315832D01*
X1065860Y315838D01*
X1065742Y315844D01*
X1065617Y315850D01*
D02*
G37*
G36*
X888933Y986765D02*
X888883D01*
X888846Y986758D01*
X888802Y986752D01*
X888746Y986746D01*
X888689Y986733D01*
X888621Y986715D01*
X888483Y986671D01*
X888408Y986640D01*
X888327Y986602D01*
X888252Y986558D01*
X888177Y986502D01*
X888102Y986446D01*
X888033Y986377D01*
X888027Y986371D01*
X888015Y986358D01*
X888002Y986340D01*
X887977Y986309D01*
X887946Y986271D01*
X887915Y986227D01*
X887883Y986171D01*
X887852Y986108D01*
X887815Y986040D01*
X887783Y985965D01*
X887752Y985884D01*
X887721Y985796D01*
X887696Y985702D01*
X887683Y985596D01*
X887671Y985490D01*
X887665Y985378D01*
Y985371D01*
Y985359D01*
Y985340D01*
Y985309D01*
X887671Y985271D01*
Y985228D01*
X887683Y985127D01*
X887708Y985009D01*
X887733Y984878D01*
X887777Y984740D01*
X887833Y984596D01*
Y984590D01*
X887840Y984578D01*
X887852Y984559D01*
X887865Y984534D01*
X887902Y984471D01*
X887958Y984390D01*
X888027Y984296D01*
X888108Y984203D01*
X888208Y984115D01*
X888315Y984034D01*
X888321D01*
X888327Y984028D01*
X888346Y984015D01*
X888371Y984003D01*
X888427Y983972D01*
X888508Y983940D01*
X888608Y983903D01*
X888721Y983872D01*
X888839Y983847D01*
X888964Y983840D01*
X889014D01*
X889046Y983847D01*
X889089Y983853D01*
X889139Y983859D01*
X889258Y983890D01*
X889396Y983940D01*
X889464Y983972D01*
X889539Y984009D01*
X889608Y984053D01*
X889683Y984109D01*
X889752Y984172D01*
X889820Y984240D01*
X889827Y984247D01*
X889839Y984259D01*
X889852Y984284D01*
X889877Y984315D01*
X889902Y984353D01*
X889933Y984403D01*
X889970Y984459D01*
X890002Y984528D01*
X890033Y984603D01*
X890070Y984684D01*
X890102Y984771D01*
X890127Y984871D01*
X890152Y984978D01*
X890170Y985090D01*
X890177Y985209D01*
X890183Y985334D01*
Y985340D01*
Y985365D01*
Y985396D01*
X890177Y985446D01*
X890170Y985496D01*
X890164Y985565D01*
X890152Y985634D01*
X890139Y985715D01*
X890095Y985877D01*
X890070Y985965D01*
X890033Y986052D01*
X889989Y986140D01*
X889945Y986221D01*
X889889Y986302D01*
X889827Y986377D01*
X889820Y986383D01*
X889808Y986396D01*
X889789Y986415D01*
X889764Y986440D01*
X889727Y986465D01*
X889689Y986502D01*
X889639Y986533D01*
X889583Y986571D01*
X889520Y986608D01*
X889458Y986640D01*
X889302Y986702D01*
X889221Y986727D01*
X889127Y986746D01*
X889033Y986758D01*
X888933Y986765D01*
D02*
G37*
G36*
X913302Y988951D02*
X911821D01*
Y984059D01*
X913289D01*
X913339Y984065D01*
X913402D01*
X913471Y984072D01*
X913546D01*
X913708Y984084D01*
X913870Y984109D01*
X914033Y984134D01*
X914108Y984153D01*
X914177Y984172D01*
X914183D01*
X914195Y984178D01*
X914214Y984184D01*
X914239Y984196D01*
X914302Y984221D01*
X914383Y984259D01*
X914477Y984309D01*
X914570Y984365D01*
X914664Y984434D01*
X914752Y984509D01*
X914758Y984515D01*
X914764Y984521D01*
X914783Y984540D01*
X914801Y984565D01*
X914827Y984596D01*
X914858Y984628D01*
X914927Y984721D01*
X915001Y984840D01*
X915083Y984978D01*
X915158Y985134D01*
X915226Y985315D01*
Y985321D01*
X915233Y985340D01*
X915245Y985365D01*
X915251Y985409D01*
X915264Y985459D01*
X915283Y985515D01*
X915295Y985584D01*
X915314Y985665D01*
X915326Y985746D01*
X915339Y985840D01*
X915358Y985946D01*
X915370Y986052D01*
X915383Y986171D01*
X915389Y986290D01*
X915395Y986552D01*
Y986565D01*
Y986596D01*
Y986646D01*
X915389Y986715D01*
X915383Y986802D01*
X915376Y986896D01*
X915370Y987002D01*
X915351Y987121D01*
X915339Y987240D01*
X915314Y987364D01*
X915258Y987621D01*
X915220Y987746D01*
X915176Y987871D01*
X915120Y987983D01*
X915064Y988089D01*
X915058Y988095D01*
X915051Y988114D01*
X915033Y988139D01*
X915008Y988177D01*
X914970Y988221D01*
X914933Y988270D01*
X914839Y988383D01*
X914720Y988508D01*
X914583Y988627D01*
X914427Y988733D01*
X914345Y988783D01*
X914258Y988820D01*
X914252D01*
X914239Y988827D01*
X914220Y988833D01*
X914195Y988839D01*
X914158Y988852D01*
X914114Y988864D01*
X914058Y988877D01*
X913996Y988889D01*
X913921Y988895D01*
X913846Y988908D01*
X913752Y988920D01*
X913652Y988933D01*
X913546Y988939D01*
X913427Y988945D01*
X913302Y988951D01*
D02*
G37*
G36*
X799137Y987459D02*
X799131D01*
X799118D01*
X799099D01*
X799068D01*
X799031D01*
X798987D01*
X798937Y987452D01*
X798881D01*
X798756Y987446D01*
X798612Y987440D01*
X798449Y987428D01*
X798281Y987415D01*
X797931Y987371D01*
X797756Y987340D01*
X797581Y987302D01*
X797425Y987259D01*
X797275Y987215D01*
X797144Y987153D01*
X797037Y987090D01*
X797031Y987084D01*
X797012Y987071D01*
X796987Y987053D01*
X796956Y987021D01*
X796912Y986990D01*
X796869Y986946D01*
X796825Y986896D01*
X796775Y986834D01*
X796725Y986771D01*
X796681Y986703D01*
X796594Y986546D01*
X796562Y986459D01*
X796537Y986365D01*
X796519Y986265D01*
X796513Y986165D01*
Y986115D01*
X796519Y986078D01*
X796525Y986028D01*
X796537Y985978D01*
X796569Y985853D01*
X796594Y985784D01*
X796625Y985715D01*
X796663Y985640D01*
X796706Y985572D01*
X796762Y985497D01*
X796825Y985428D01*
X796894Y985359D01*
X796975Y985297D01*
X796981Y985291D01*
X797000Y985278D01*
X797037Y985259D01*
X797094Y985234D01*
X797156Y985203D01*
X797244Y985172D01*
X797344Y985134D01*
X797462Y985097D01*
X797606Y985059D01*
X797762Y985022D01*
X797937Y984991D01*
X798137Y984959D01*
X798350Y984934D01*
X798593Y984916D01*
X798856Y984903D01*
X799137Y984897D01*
X799143D01*
X799156D01*
X799174D01*
X799206D01*
X799243D01*
X799287D01*
X799337Y984903D01*
X799393D01*
X799518Y984909D01*
X799662Y984916D01*
X799824Y984928D01*
X799993Y984941D01*
X800343Y984984D01*
X800518Y985016D01*
X800686Y985053D01*
X800849Y985097D01*
X800999Y985147D01*
X801130Y985203D01*
X801236Y985266D01*
X801243Y985272D01*
X801261Y985284D01*
X801286Y985303D01*
X801318Y985334D01*
X801355Y985366D01*
X801399Y985409D01*
X801449Y985459D01*
X801492Y985516D01*
X801543Y985584D01*
X801592Y985653D01*
X801674Y985809D01*
X801705Y985890D01*
X801730Y985984D01*
X801749Y986078D01*
X801755Y986178D01*
Y986203D01*
X801749Y986228D01*
Y986265D01*
X801736Y986315D01*
X801730Y986365D01*
X801711Y986428D01*
X801693Y986490D01*
X801661Y986565D01*
X801630Y986634D01*
X801586Y986709D01*
X801536Y986784D01*
X801474Y986865D01*
X801405Y986940D01*
X801330Y987015D01*
X801236Y987084D01*
X801230Y987090D01*
X801211Y987103D01*
X801180Y987121D01*
X801130Y987140D01*
X801068Y987171D01*
X800986Y987203D01*
X800893Y987234D01*
X800774Y987271D01*
X800643Y987309D01*
X800493Y987340D01*
X800324Y987371D01*
X800130Y987402D01*
X799918Y987421D01*
X799680Y987440D01*
X799418Y987452D01*
X799137Y987459D01*
D02*
G37*
%LPD*%
D13*
X279399Y901449D02*
X315699D01*
Y881649D02*
Y901449D01*
X279399Y881649D02*
X315699D01*
X279399D02*
Y901449D01*
X1015325Y320103D02*
X1051625D01*
Y300303D02*
Y320103D01*
X1015325Y300303D02*
X1051625D01*
X1015325D02*
Y320103D01*
X630179Y433918D02*
X649979D01*
Y470217D01*
X630179D02*
X649979D01*
X630179Y433918D02*
Y470217D01*
X863010Y973405D02*
Y993205D01*
Y973405D02*
X899310D01*
Y993205D01*
X863010D02*
X899310D01*
X693079Y925339D02*
Y945138D01*
Y925339D02*
X729379D01*
Y945138D01*
X693079D02*
X729379D01*
X906850Y758650D02*
X943150D01*
Y738850D02*
Y758650D01*
X906850Y738850D02*
X943150D01*
X906850D02*
Y758650D01*
X768849Y1008565D02*
Y1024565D01*
Y1008565D02*
X795432D01*
Y1024565D01*
X768849D02*
X795432D01*
X793899Y958731D02*
Y986731D01*
X810898D01*
Y958731D02*
Y986731D01*
X793899Y958731D02*
X810898D01*
X862051Y660449D02*
X898351D01*
Y640649D02*
Y660449D01*
X862051Y640649D02*
X898351D01*
X862051D02*
Y660449D01*
X688006Y662810D02*
X697505D01*
X688006Y645310D02*
Y662810D01*
Y645310D02*
X697505D01*
Y662810D01*
M02*
