%TF.GenerationSoftware,Altium Limited,Altium Designer,21.5.1 (32)*%
G04 Layer_Color=32896*
%FSLAX45Y45*%
%MOMM*%
%TF.SameCoordinates,BAA3C551-5021-4B2B-824C-9EA50FFAFE59*%
%TF.FilePolarity,Positive*%
%TF.FileFunction,Legend,Bot*%
%TF.Part,Single*%
G01*
G75*
%TA.AperFunction,NonConductor*%
%ADD75C,0.20000*%
%ADD76C,0.15000*%
D75*
X6088540Y6904324D02*
X6215784Y6904324D01*
X6088540Y6769328D02*
X6215784Y6769328D01*
X4983775Y7954143D02*
X5111024Y7954143D01*
X4983775Y8089144D02*
X5111024Y8089144D01*
X4983775Y8134570D02*
X5111024Y8134570D01*
X4983775Y8269571D02*
X5111024Y8269571D01*
X5195958Y7791214D02*
X5195958Y7821217D01*
X5130959Y7791214D02*
X5130959Y7821217D01*
X4983775Y7504928D02*
X5111024Y7504928D01*
X4983775Y7639924D02*
X5111024Y7639924D01*
X4930948Y7459502D02*
X5058197Y7459502D01*
X4930948Y7324501D02*
X5058197Y7324501D01*
X4930948Y7124502D02*
X5058197Y7124502D01*
X4930948Y7259498D02*
X5058197Y7259498D01*
X4933283Y7724501D02*
X5060532Y7724501D01*
X4933283Y7859502D02*
X5060532Y7859502D01*
X4983775Y8449997D02*
X5111024Y8449997D01*
X4983775Y8314996D02*
X5111024Y8314996D01*
X4740524Y7178391D02*
X4740524Y7305639D01*
X4875525Y7178391D02*
X4875525Y7305639D01*
X4557848Y7224502D02*
X4685097Y7224502D01*
X4557848Y7359498D02*
X4685097Y7359498D01*
X4557848Y7024502D02*
X4685097Y7024502D01*
X4557848Y7159498D02*
X4685097Y7159498D01*
X4365178Y7124502D02*
X4492427Y7124502D01*
X4365178Y7259498D02*
X4492427Y7259498D01*
X5683778Y8440345D02*
X5811022Y8440345D01*
X5683778Y8575346D02*
X5811022Y8575346D01*
X5829849Y8257673D02*
X5829849Y8384917D01*
X5964850Y8257673D02*
X5964850Y8384917D01*
X5020750Y6769487D02*
X5020750Y6896736D01*
X4885749Y6769487D02*
X4885749Y6896736D01*
X5703023Y6532445D02*
X5703023Y6659694D01*
X5838024Y6532445D02*
X5838024Y6659694D01*
X5883449Y6540519D02*
X5883449Y6667768D01*
X6018450Y6540519D02*
X6018450Y6667768D01*
X6335814Y8743126D02*
X6463063Y8743126D01*
X6335814Y8608125D02*
X6463063Y8608125D01*
X5683778Y7688717D02*
X5811022Y7688717D01*
X5683778Y7553716D02*
X5811022Y7553716D01*
X5374049Y7203196D02*
X5374049Y7233198D01*
X5309051Y7203196D02*
X5309051Y7233198D01*
X4375013Y7459502D02*
X4405010Y7459502D01*
X4375013Y7524501D02*
X4405010Y7524501D01*
X5782401Y7814145D02*
X5812399Y7814145D01*
X5782401Y7749147D02*
X5812399Y7749147D01*
X4329902Y6478377D02*
X4329902Y6605626D01*
X4464898Y6478377D02*
X4464898Y6605626D01*
X4464898Y8378378D02*
X4464898Y8505622D01*
X4329902Y8378378D02*
X4329902Y8505622D01*
X4429902Y8478378D02*
X4429902Y8605622D01*
X4564898Y8478378D02*
X4564898Y8605622D01*
X4537502Y6378875D02*
X4537502Y6506124D01*
X4672498Y6378875D02*
X4672498Y6506124D01*
X4658621Y6844081D02*
X4785870Y6844081D01*
X4658621Y6979077D02*
X4785870Y6979077D01*
X4583775Y8061051D02*
X4711024Y8061051D01*
X4583775Y8196052D02*
X4711024Y8196052D01*
X4355265Y7724501D02*
X4482514Y7724501D01*
X4355265Y7859502D02*
X4482514Y7859502D01*
X4529953Y8478429D02*
X4529953Y8605672D01*
X4664949Y8478429D02*
X4664949Y8605672D01*
X4953245Y6659448D02*
X5080494Y6659448D01*
X4953245Y6524447D02*
X5080494Y6524447D01*
X4547934Y7859502D02*
X4675183Y7859502D01*
X4547934Y7724501D02*
X4675183Y7724501D01*
X5145919Y6524703D02*
X5273168Y6524703D01*
X5145919Y6659704D02*
X5273168Y6659704D01*
X4740609Y7624501D02*
X4867857Y7624501D01*
X4740609Y7759502D02*
X4867857Y7759502D01*
X4547934Y7524501D02*
X4675183Y7524501D01*
X4547934Y7659502D02*
X4675183Y7659502D01*
X4877860Y7878379D02*
X4877860Y8005623D01*
X4742859Y7878379D02*
X4742859Y8005623D01*
X5364851Y8263727D02*
X5364851Y8390971D01*
X5229850Y8263727D02*
X5229850Y8390971D01*
X5264902Y8505425D02*
X5264902Y8632669D01*
X5129901Y8505425D02*
X5129901Y8632669D01*
X5329753Y8071048D02*
X5329753Y8198297D01*
X5464754Y8071048D02*
X5464754Y8198297D01*
X5434474Y6978376D02*
X5434474Y7105625D01*
X5569475Y6978376D02*
X5569475Y7105625D01*
X5764901Y7371044D02*
X5764901Y7498293D01*
X5629900Y7371044D02*
X5629900Y7498293D01*
X5417953Y7565798D02*
X5545197Y7565798D01*
X5417953Y7430797D02*
X5545197Y7430797D01*
X5256799Y7678374D02*
X5256799Y7805623D01*
X5391800Y7678374D02*
X5391800Y7805623D01*
X5764901Y8077247D02*
X5764901Y8204491D01*
X5629900Y8077247D02*
X5629900Y8204491D01*
X5883778Y7355533D02*
X6011022Y7355533D01*
X5883778Y7490529D02*
X6011022Y7490529D01*
X5883778Y7553716D02*
X6011022Y7553716D01*
X5883778Y7688717D02*
X6011022Y7688717D01*
X5883778Y8067244D02*
X6011022Y8067244D01*
X5883778Y8202245D02*
X6011022Y8202245D01*
X6083778Y7824450D02*
X6211021Y7824450D01*
X6083778Y7959451D02*
X6211021Y7959451D01*
X6283777Y7315418D02*
X6411026Y7315418D01*
X6283777Y7180417D02*
X6411026Y7180417D01*
X6283777Y7959501D02*
X6411026Y7959501D01*
X6283777Y7824500D02*
X6411026Y7824500D01*
X6283777Y7859502D02*
X6411026Y7859502D01*
X6283777Y7724501D02*
X6411026Y7724501D01*
X6383777Y6324498D02*
X6511026Y6324498D01*
X6383777Y6459499D02*
X6511026Y6459499D01*
X6483777Y8459500D02*
X6611026Y8459500D01*
X6483777Y8324499D02*
X6611026Y8324499D01*
X6483777Y8424499D02*
X6611026Y8424499D01*
X6483777Y8559500D02*
X6611026Y8559500D01*
X5183774Y6935278D02*
X5311023Y6935278D01*
X5183774Y7070274D02*
X5311023Y7070274D01*
X5183774Y7366124D02*
X5311023Y7366124D01*
X5183774Y7501120D02*
X5311023Y7501120D01*
X6076452Y7024502D02*
X6203696Y7024502D01*
X6076452Y7159498D02*
X6203696Y7159498D01*
X6076452Y7224502D02*
X6203696Y7224502D01*
X6076452Y7359498D02*
X6203696Y7359498D01*
X6283777Y7134991D02*
X6411026Y7134991D01*
X6283777Y6999995D02*
X6411026Y6999995D01*
X6383777Y6559499D02*
X6511026Y6559499D01*
X6383777Y6424498D02*
X6511026Y6424498D01*
X5729900Y7172861D02*
X5729900Y7300110D01*
X5864901Y7172861D02*
X5864901Y7300110D01*
X5248626Y7178375D02*
X5248626Y7305624D01*
X5113625Y7178375D02*
X5113625Y7305624D01*
X5549473Y7178375D02*
X5549473Y7305624D01*
X5684474Y7178375D02*
X5684474Y7305624D01*
X5529900Y7884568D02*
X5529900Y8011817D01*
X5664901Y7884568D02*
X5664901Y8011817D01*
X5864901Y7884573D02*
X5864901Y8011817D01*
X5729900Y7884573D02*
X5729900Y8011817D01*
X5484475Y7878379D02*
X5484475Y8005623D01*
X5349474Y7878379D02*
X5349474Y8005623D01*
X6529898Y6478377D02*
X6529898Y6605626D01*
X6664899Y6478377D02*
X6664899Y6605626D01*
D76*
X5783727Y2785910D02*
X5783727Y2845910D01*
X5673724Y2785910D02*
X5673724Y2845910D01*
%TF.MD5,e366a7b3523a7bf6bfe0e393c0bf6ae6*%
M02*
