G04*
G04 #@! TF.GenerationSoftware,Altium Limited,Altium Designer,21.5.1 (32)*
G04*
G04 Layer_Color=16711935*
%FSLAX44Y44*%
%MOMM*%
G71*
G04*
G04 #@! TF.SameCoordinates,CE61D733-3D9C-4286-B01C-F70B086857D8*
G04*
G04*
G04 #@! TF.FilePolarity,Positive*
G04*
G01*
G75*
%ADD13C,0.2000*%
%ADD99C,0.0500*%
D13*
X607706Y678967D02*
X622431D01*
Y686467D01*
X607706D02*
X622431D01*
X607706Y678967D02*
Y686467D01*
X497378Y804492D02*
X512103D01*
X497378Y796992D02*
Y804492D01*
Y796992D02*
X512103D01*
Y804492D01*
X497378Y822535D02*
X512103D01*
X497378Y815035D02*
Y822535D01*
Y815035D02*
X512103D01*
Y822535D01*
X497378Y760993D02*
X512103D01*
X497378Y753493D02*
Y760993D01*
Y753493D02*
X512103D01*
Y760993D01*
X492095Y735450D02*
X506820D01*
Y742950D01*
X492095D02*
X506820D01*
X492095Y735450D02*
Y742950D01*
Y722950D02*
X506820D01*
X492095Y715450D02*
Y722950D01*
Y715450D02*
X506820D01*
Y722950D01*
X492370Y782950D02*
X507095D01*
X492370Y775450D02*
Y782950D01*
Y775450D02*
X507095D01*
Y782950D01*
X497378Y833078D02*
X512103D01*
Y840578D01*
X497378D02*
X512103D01*
X497378Y833078D02*
Y840578D01*
X484552Y716839D02*
Y731564D01*
X477052D02*
X484552D01*
X477052Y716839D02*
Y731564D01*
Y716839D02*
X484552D01*
X454785Y732950D02*
X469510D01*
X454785Y725450D02*
Y732950D01*
Y725450D02*
X469510D01*
Y732950D01*
X454785Y712950D02*
X469510D01*
X454785Y705450D02*
Y712950D01*
Y705450D02*
X469510D01*
Y712950D01*
X435518Y722950D02*
X450243D01*
X435518Y715450D02*
Y722950D01*
Y715450D02*
X450243D01*
Y722950D01*
X567378Y854534D02*
X582103D01*
X567378Y847035D02*
Y854534D01*
Y847035D02*
X582103D01*
Y854534D01*
X593485Y824767D02*
Y839492D01*
X585985D02*
X593485D01*
X585985Y824767D02*
Y839492D01*
Y824767D02*
X593485D01*
X490712Y676077D02*
Y690801D01*
Y676077D02*
X498212D01*
Y690801D01*
X490712D02*
X498212D01*
X579889Y652245D02*
Y666969D01*
X572390D02*
X579889D01*
X572390Y652245D02*
Y666969D01*
Y652245D02*
X579889D01*
X597932Y653052D02*
Y667776D01*
X590433D02*
X597932D01*
X590433Y653052D02*
Y667776D01*
Y653052D02*
X597932D01*
X632582Y863812D02*
X647307D01*
Y871312D01*
X632582D02*
X647307D01*
X632582Y863812D02*
Y871312D01*
X582103Y758371D02*
Y765872D01*
X567378Y758371D02*
X582103D01*
X567378D02*
Y765872D01*
X582103D01*
X435990Y661562D02*
X443490D01*
Y646837D02*
Y661562D01*
X435990Y646837D02*
X443490D01*
X435990D02*
Y661562D01*
Y836837D02*
X443490D01*
X435990D02*
Y851562D01*
X443490D01*
Y836837D02*
Y851562D01*
X445990Y861562D02*
X453490D01*
Y846837D02*
Y861562D01*
X445990Y846837D02*
X453490D01*
X445990D02*
Y861562D01*
X456750Y651613D02*
X464250D01*
Y636888D02*
Y651613D01*
X456750Y636888D02*
X464250D01*
X456750D02*
Y651613D01*
X464862Y687408D02*
Y694908D01*
X479587D01*
Y687408D02*
Y694908D01*
X464862Y687408D02*
X479587D01*
X457378Y809105D02*
Y816605D01*
X472102D01*
Y809105D02*
Y816605D01*
X457378Y809105D02*
X472102D01*
X434568Y775450D02*
Y782950D01*
X449293D01*
Y775450D02*
Y782950D01*
X434568Y775450D02*
X449293D01*
X455995Y861568D02*
X463495D01*
Y846843D02*
Y861568D01*
X455995Y846843D02*
X463495D01*
X455995D02*
Y861568D01*
X509050Y655445D02*
Y662945D01*
X494325Y655445D02*
X509050D01*
X494325D02*
Y662945D01*
X509050D01*
X468560Y775450D02*
Y782950D01*
X453835Y775450D02*
X468560D01*
X453835D02*
Y782950D01*
X468560D01*
X513592Y655471D02*
Y662971D01*
X528317D01*
Y655471D02*
Y662971D01*
X513592Y655471D02*
X528317D01*
X473103Y765450D02*
Y772950D01*
X487828D01*
Y765450D02*
Y772950D01*
X473103Y765450D02*
X487828D01*
X453835Y755450D02*
Y762950D01*
X468560D01*
Y755450D02*
Y762950D01*
X453835Y755450D02*
X468560D01*
X477327Y786838D02*
X484827D01*
X477327D02*
Y801562D01*
X484827D01*
Y786838D02*
Y801562D01*
X525985Y825372D02*
X533485D01*
X525985D02*
Y840097D01*
X533485D01*
Y825372D02*
Y840097D01*
X515990Y848121D02*
X523490D01*
X515990D02*
Y862845D01*
X523490D01*
Y848121D02*
Y862845D01*
X535975Y820830D02*
X543475D01*
Y806105D02*
Y820830D01*
X535975Y806105D02*
X543475D01*
X535975D02*
Y820830D01*
X546448Y711562D02*
X553947D01*
Y696838D02*
Y711562D01*
X546448Y696838D02*
X553947D01*
X546448D02*
Y711562D01*
X565990Y736105D02*
X573490D01*
X565990D02*
Y750829D01*
X573490D01*
Y736105D02*
Y750829D01*
X558447Y755450D02*
Y762950D01*
X543723Y755450D02*
X558447D01*
X543723D02*
Y762950D01*
X558447D01*
X528680Y781563D02*
X536180D01*
Y766838D02*
Y781563D01*
X528680Y766838D02*
X536180D01*
X528680D02*
Y781563D01*
X565990Y806724D02*
X573490D01*
X565990D02*
Y821449D01*
X573490D01*
Y806724D02*
Y821449D01*
X587378Y738553D02*
Y746053D01*
X602102D01*
Y738553D02*
Y746053D01*
X587378Y738553D02*
X602102D01*
X587378Y758371D02*
Y765872D01*
X602102D01*
Y758371D02*
Y765872D01*
X587378Y758371D02*
X602102D01*
X587378Y809724D02*
Y817224D01*
X602102D01*
Y809724D02*
Y817224D01*
X587378Y809724D02*
X602102D01*
X607378Y785445D02*
Y792945D01*
X622102D01*
Y785445D02*
Y792945D01*
X607378Y785445D02*
X622102D01*
X642102Y715456D02*
Y722957D01*
X627378Y715456D02*
X642102D01*
X627378D02*
Y722957D01*
X642102D01*
Y785450D02*
Y792950D01*
X627378Y785450D02*
X642102D01*
X627378D02*
Y792950D01*
X642102D01*
Y775450D02*
Y782950D01*
X627378Y775450D02*
X642102D01*
X627378D02*
Y782950D01*
X642102D01*
X637377Y635450D02*
Y642950D01*
X652102D01*
Y635450D02*
Y642950D01*
X637377Y635450D02*
X652102D01*
X662102Y835450D02*
Y842950D01*
X647377Y835450D02*
X662102D01*
X647377D02*
Y842950D01*
X662102D01*
X647377Y845450D02*
Y852950D01*
X662102D01*
Y845450D02*
Y852950D01*
X647377Y845450D02*
X662102D01*
X517378Y696528D02*
Y704028D01*
X532103D01*
Y696528D02*
Y704028D01*
X517378Y696528D02*
X532103D01*
X517378Y739612D02*
Y747112D01*
X532103D01*
Y739612D02*
Y747112D01*
X517378Y739612D02*
X532103D01*
X606645Y705450D02*
Y712950D01*
X621370D01*
Y705450D02*
Y712950D01*
X606645Y705450D02*
X621370D01*
X606645Y725450D02*
Y732950D01*
X621370D01*
Y725450D02*
Y732950D01*
X606645Y725450D02*
X621370D01*
X642102Y705450D02*
Y712950D01*
X627378Y705450D02*
X642102D01*
X627378D02*
Y712950D01*
X642102D01*
X652102Y645450D02*
Y652950D01*
X637377Y645450D02*
X652102D01*
X637377D02*
Y652950D01*
X652102D01*
X575990Y731011D02*
X583490D01*
Y716286D02*
Y731011D01*
X575990Y716286D02*
X583490D01*
X575990D02*
Y731011D01*
X514363Y716838D02*
X521862D01*
X514363D02*
Y731562D01*
X521862D01*
Y716838D02*
Y731562D01*
X557948D02*
X565447D01*
Y716838D02*
Y731562D01*
X557948Y716838D02*
X565447D01*
X557948D02*
Y731562D01*
X555990Y802182D02*
X563490D01*
Y787457D02*
Y802182D01*
X555990Y787457D02*
X563490D01*
X555990D02*
Y802182D01*
X575990Y787457D02*
X583490D01*
X575990D02*
Y802182D01*
X583490D01*
Y787457D02*
Y802182D01*
X537948Y786838D02*
X545447D01*
X537948D02*
Y801562D01*
X545447D01*
Y786838D02*
Y801562D01*
X655990Y661562D02*
X663490D01*
Y646837D02*
Y661562D01*
X655990Y646837D02*
X663490D01*
X655990D02*
Y661562D01*
D99*
X564373Y266591D02*
X581372D01*
X564373Y296591D02*
X581372D01*
Y266591D02*
Y296591D01*
X564373Y266591D02*
Y296591D01*
X572873Y276591D02*
Y286591D01*
X567873Y281591D02*
X577873D01*
M02*
