%TF.GenerationSoftware,Altium Limited,Altium Designer,21.6.1 (37)*%
G04 Layer_Color=32768*
%FSLAX45Y45*%
%MOMM*%
%TF.SameCoordinates,16E63DA4-43ED-4674-A1E0-7AC0996D3122*%
%TF.FilePolarity,Positive*%
%TF.FileFunction,Other,Mechanical_3*%
%TF.Part,Single*%
G01*
G75*
%TA.AperFunction,NonConductor*%
%ADD91C,0.10000*%
%ADD149C,0.05000*%
D91*
X8440857Y5318399D02*
X8440857Y5373395D01*
X8413359Y5345897D02*
X8468355Y5345897D01*
X7562611Y4638345D02*
X7562611Y4738345D01*
X7512614Y4688347D02*
X7612614Y4688347D01*
X4029400Y8446572D02*
X4084401Y8446572D01*
X4056903Y8419074D02*
X4056903Y8474070D01*
X4029400Y8296143D02*
X4084396Y8296143D01*
X4056898Y8268645D02*
X4056898Y8323641D01*
X4029410Y8596996D02*
X4084406Y8596996D01*
X4056908Y8569498D02*
X4056908Y8624494D01*
X4029395Y8747420D02*
X4084396Y8747420D01*
X4056898Y8719922D02*
X4056898Y8774918D01*
X10685709Y7137400D02*
X10740705Y7137400D01*
X10713207Y7109902D02*
X10713207Y7164898D01*
X10685709Y7313900D02*
X10740705Y7313900D01*
X10713207Y7286401D02*
X10713207Y7341398D01*
X7093443Y6511275D02*
X7093443Y6566271D01*
X7065945Y6538773D02*
X7120941Y6538773D01*
X5456997Y7490602D02*
X5556997Y7490602D01*
X5506999Y7440600D02*
X5506999Y7540600D01*
X5752399Y7781644D02*
X5842401Y7781644D01*
X5797398Y7736645D02*
X5797398Y7826642D01*
X5719902Y7064938D02*
X5774898Y7064938D01*
X5747400Y7037440D02*
X5747400Y7092436D01*
X4345011Y7491999D02*
X4435013Y7491999D01*
X4390009Y7447001D02*
X4390009Y7536998D01*
X5341547Y7173198D02*
X5341547Y7263196D01*
X5296549Y7218197D02*
X5386551Y7218197D01*
X3879388Y6108700D02*
X3934384Y6108700D01*
X3906886Y6081202D02*
X3906886Y6136198D01*
X6559733Y9968062D02*
X6609730Y9968062D01*
X6584732Y9943064D02*
X6584732Y9993061D01*
X6795724Y9968062D02*
X6845722Y9968062D01*
X6820723Y9943064D02*
X6820723Y9993061D01*
X6014873Y2948102D02*
X6014873Y3043098D01*
X5967375Y2995600D02*
X6062371Y2995600D01*
X7400900Y6059907D02*
X7455896Y6059907D01*
X7428398Y6032409D02*
X7428398Y6087405D01*
X7590591Y9684091D02*
X7590591Y9784091D01*
X7540589Y9734089D02*
X7640588Y9734089D01*
X7728091Y9150889D02*
X7728091Y9245885D01*
X7680593Y9198387D02*
X7775589Y9198387D01*
X7861533Y9198382D02*
X7956529Y9198382D01*
X7909031Y9150884D02*
X7909031Y9245880D01*
X8672763Y9239870D02*
X8672763Y9339870D01*
X8622766Y9289867D02*
X8722765Y9289867D01*
X8646282Y5345897D02*
X8701278Y5345897D01*
X8673780Y5318399D02*
X8673780Y5373395D01*
X8658784Y5208351D02*
X8713780Y5208351D01*
X8686282Y5180853D02*
X8686282Y5235849D01*
X7826192Y5913770D02*
X7826192Y5968766D01*
X7798694Y5941268D02*
X7853690Y5941268D01*
X7428398Y5913770D02*
X7428398Y5968766D01*
X7400900Y5941268D02*
X7455896Y5941268D01*
X7858902Y5616113D02*
X7858902Y5716113D01*
X7808900Y5666110D02*
X7908900Y5666110D01*
X6014870Y3238531D02*
X6014870Y3333527D01*
X5967372Y3286029D02*
X6062368Y3286029D01*
X5728752Y4118346D02*
X5783753Y4118346D01*
X5756250Y4090843D02*
X5756250Y4145844D01*
X5717499Y5767497D02*
X5717499Y5867502D01*
X5667497Y5817499D02*
X5767497Y5817499D01*
X3137692Y6081202D02*
X3137692Y6136198D01*
X3110194Y6108700D02*
X3165191Y6108700D01*
X5541079Y6647916D02*
X5596080Y6647916D01*
X5568577Y6620418D02*
X5568577Y6675419D01*
X5261175Y6749854D02*
X5261175Y6849854D01*
X5211173Y6799852D02*
X5311173Y6799852D01*
X5061176Y6704856D02*
X5461175Y6704856D01*
X5061176Y6894853D02*
X5461175Y6894853D01*
X5061176Y6704856D02*
X5061176Y6894853D01*
X5461175Y6704856D02*
X5461175Y6894853D01*
X7630602Y7543800D02*
X7685598Y7543800D01*
X7658100Y7516302D02*
X7658100Y7571298D01*
X5118457Y7806216D02*
X5208459Y7806216D01*
X5163456Y7761217D02*
X5163456Y7851219D01*
X8681469Y8234958D02*
X8977469Y8234958D01*
X8977469Y8554958D01*
X8681469Y8554958D02*
X8977469Y8554958D01*
X8681469Y8234958D02*
X8681469Y8554958D01*
D149*
X7617374Y3395889D02*
X7717373Y3395889D01*
X7667371Y3345886D02*
X7667371Y3445886D01*
X6362370Y3241391D02*
X6362370Y3550387D01*
X6362370Y3241391D02*
X8972372Y3241391D01*
X8972372Y3550387D01*
X6362370Y3550387D02*
X8972372Y3550387D01*
X8335858Y5400899D02*
X8545855Y5400899D01*
X8335858Y5290896D02*
X8545855Y5290896D01*
X8335858Y5290896D02*
X8335858Y5400899D01*
X8545855Y5290896D02*
X8545855Y5400899D01*
X6647612Y5248346D02*
X8477611Y5248346D01*
X6647612Y4128348D02*
X8477611Y4128348D01*
X8477611Y5248346D01*
X6647612Y4128348D02*
X6647612Y5248346D01*
X4166900Y8386572D02*
X4166900Y8506572D01*
X3946901Y8386572D02*
X3946901Y8506572D01*
X3946901Y8386572D02*
X4166900Y8386572D01*
X3946901Y8506572D02*
X4166900Y8506572D01*
X4166895Y8236143D02*
X4166895Y8356143D01*
X3946896Y8236143D02*
X3946896Y8356143D01*
X3946896Y8236143D02*
X4166895Y8236143D01*
X3946896Y8356143D02*
X4166895Y8356143D01*
X4166906Y8536996D02*
X4166906Y8656996D01*
X3946906Y8536996D02*
X3946906Y8656996D01*
X3946906Y8536996D02*
X4166906Y8536996D01*
X3946906Y8656996D02*
X4166906Y8656996D01*
X4166895Y8687420D02*
X4166895Y8807420D01*
X3946896Y8687420D02*
X3946896Y8807420D01*
X3946896Y8687420D02*
X4166895Y8687420D01*
X3946896Y8807420D02*
X4166895Y8807420D01*
X10603210Y7077400D02*
X10603210Y7197400D01*
X10823209Y7077400D02*
X10823209Y7197400D01*
X10603210Y7197400D02*
X10823209Y7197400D01*
X10603210Y7077400D02*
X10823209Y7077400D01*
X10603210Y7253900D02*
X10603210Y7373899D01*
X10823209Y7253900D02*
X10823209Y7373899D01*
X10603210Y7373899D02*
X10823209Y7373899D01*
X10603210Y7253900D02*
X10823209Y7253900D01*
X7033443Y6428776D02*
X7153443Y6428776D01*
X7033443Y6648775D02*
X7153443Y6648775D01*
X7033443Y6428776D02*
X7033443Y6648775D01*
X7153443Y6428776D02*
X7153443Y6648775D01*
X6756999Y6240602D02*
X6756999Y8740602D01*
X4256999Y6240602D02*
X4256999Y8740602D01*
X6756999Y8740602D01*
X4256999Y6240602D02*
X6756999Y6240602D01*
X5687400Y7726642D02*
X5687400Y7836645D01*
X5907400Y7726642D02*
X5907400Y7836645D01*
X5687400Y7726642D02*
X5907400Y7726642D01*
X5687400Y7836645D02*
X5907400Y7836645D01*
X5857397Y7004938D02*
X5857397Y7124938D01*
X5637398Y7004938D02*
X5637398Y7124938D01*
X5857397Y7124938D01*
X5637398Y7004938D02*
X5857397Y7004938D01*
X4500012Y7436998D02*
X4500012Y7547000D01*
X4280012Y7436998D02*
X4280012Y7547000D01*
X4500012Y7547000D01*
X4280012Y7436998D02*
X4500012Y7436998D01*
X5747400Y6854513D02*
X5747400Y6914513D01*
X5717398Y6884516D02*
X5777398Y6884516D01*
X5607401Y6794513D02*
X5887400Y6794513D01*
X5607401Y6974513D02*
X5887400Y6974513D01*
X5607401Y6794513D02*
X5607401Y6974513D01*
X5887400Y6794513D02*
X5887400Y6974513D01*
X5286551Y7328199D02*
X5396549Y7328199D01*
X5286551Y7108200D02*
X5396549Y7108200D01*
X5286551Y7108200D02*
X5286551Y7328199D01*
X5396549Y7108200D02*
X5396549Y7328199D01*
X3831885Y6068700D02*
X3831885Y6148700D01*
X3981887Y6068700D02*
X3981887Y6148700D01*
X3831885Y6148700D02*
X3981887Y6148700D01*
X3831885Y6068700D02*
X3981887Y6068700D01*
X6484732Y9918065D02*
X6484732Y10018065D01*
X6684731Y10018065D01*
X6684731Y9918065D02*
X6684731Y10018065D01*
X6484732Y9918065D02*
X6684731Y9918065D01*
X6720723Y9918065D02*
X6720723Y10018065D01*
X6920723Y10018065D01*
X6920723Y9918065D02*
X6920723Y10018065D01*
X6720723Y9918065D02*
X6920723Y9918065D01*
X7100103Y8087502D02*
X7910098Y8087502D01*
X7910098Y7077502D02*
X7910098Y8087502D01*
X7100103Y7077502D02*
X7910098Y7077502D01*
X7100103Y7077502D02*
X7100103Y8087502D01*
X5017303Y9840102D02*
X5827298Y9840102D01*
X5827298Y8830102D02*
X5827298Y9840102D01*
X5017303Y8830102D02*
X5827298Y8830102D01*
X5017303Y8830102D02*
X5017303Y9840102D01*
X3506281Y4649185D02*
X3506281Y4934183D01*
X3356279Y4649185D02*
X3506281Y4649185D01*
X3356279Y4649185D02*
X3356279Y4934183D01*
X3506281Y4934183D01*
X3630912Y4973338D02*
X3770917Y4973338D01*
X3770917Y5303335D01*
X3630912Y5303335D02*
X3770917Y5303335D01*
X3630912Y4973338D02*
X3630912Y5303335D01*
X3876042Y4986190D02*
X4016047Y4986190D01*
X4016047Y5316187D01*
X3876042Y5316187D02*
X4016047Y5316187D01*
X3876042Y4986190D02*
X3876042Y5316187D01*
X3361276Y4973368D02*
X3501281Y4973368D01*
X3501281Y5303365D01*
X3361276Y5303365D02*
X3501281Y5303365D01*
X3361276Y4973368D02*
X3361276Y5303365D01*
X4021047Y4657310D02*
X4021047Y4942308D01*
X3871045Y4657310D02*
X4021047Y4657310D01*
X3871045Y4657310D02*
X3871045Y4942308D01*
X4021047Y4942308D01*
X3775918Y4657914D02*
X3775918Y4942913D01*
X3625915Y4657914D02*
X3775918Y4657914D01*
X3625915Y4657914D02*
X3625915Y4942913D01*
X3775918Y4942913D01*
X5939872Y2865597D02*
X6089875Y2865597D01*
X5939872Y3125602D02*
X6089875Y3125602D01*
X5939872Y2865597D02*
X5939872Y3125602D01*
X6089875Y2865597D02*
X6089875Y3125602D01*
X4009095Y3873312D02*
X4009095Y4103314D01*
X4009095Y3873312D02*
X4449094Y3873312D01*
X4449094Y4103314D01*
X4009095Y4103314D02*
X4449094Y4103314D01*
X7353397Y6019907D02*
X7353397Y6099907D01*
X7503399Y6019907D02*
X7503399Y6099907D01*
X7353397Y6099907D02*
X7503399Y6099907D01*
X7353397Y6019907D02*
X7503399Y6019907D01*
X8997498Y7315596D02*
X9257502Y7315596D01*
X8997498Y6830598D02*
X8997498Y7315596D01*
X8997498Y6830598D02*
X9257502Y6830598D01*
X9257502Y7315596D01*
X8982496Y5848583D02*
X9242500Y5848583D01*
X9242500Y6333581D01*
X8982496Y6333581D02*
X9242500Y6333581D01*
X8982496Y5848583D02*
X8982496Y6333581D01*
X9507499Y6939996D02*
X9507499Y7284999D01*
X9307500Y6939996D02*
X9507499Y6939996D01*
X9307500Y6939996D02*
X9307500Y7284999D01*
X9507499Y7284999D01*
X9299994Y5848891D02*
X9299994Y6298887D01*
X9529996Y6298887D01*
X9529996Y5848891D02*
X9529996Y6298887D01*
X9299994Y5848891D02*
X9529996Y5848891D01*
X7380589Y9554089D02*
X7800593Y9554089D01*
X7380589Y9914088D02*
X7800593Y9914088D01*
X7800593Y9554089D02*
X7800593Y9914088D01*
X7380589Y9554089D02*
X7380589Y9914088D01*
X7653090Y9068385D02*
X7803093Y9068385D01*
X7653090Y9328389D02*
X7803093Y9328389D01*
X7653090Y9068385D02*
X7653090Y9328389D01*
X7803093Y9068385D02*
X7803093Y9328389D01*
X7834030Y9068380D02*
X7834030Y9328384D01*
X7984032Y9068380D02*
X7984032Y9328384D01*
X7834030Y9068380D02*
X7984032Y9068380D01*
X7834030Y9328384D02*
X7984032Y9328384D01*
X8392764Y9099865D02*
X8952762Y9099865D01*
X8392764Y9479869D02*
X8952762Y9479869D01*
X8952762Y9099865D02*
X8952762Y9479869D01*
X8392764Y9099865D02*
X8392764Y9479869D01*
X8598779Y5305897D02*
X8598779Y5385897D01*
X8748781Y5305897D02*
X8748781Y5385897D01*
X8598779Y5385897D02*
X8748781Y5385897D01*
X8598779Y5305897D02*
X8748781Y5305897D01*
X8796279Y5148351D02*
X8796279Y5268351D01*
X8576280Y5148351D02*
X8576280Y5268351D01*
X8576280Y5148351D02*
X8796279Y5148351D01*
X8576280Y5268351D02*
X8796279Y5268351D01*
X7751191Y5901268D02*
X7901193Y5901268D01*
X7751191Y5981268D02*
X7901193Y5981268D01*
X7901193Y5901268D02*
X7901193Y5981268D01*
X7751191Y5901268D02*
X7751191Y5981268D01*
X7353397Y5981268D02*
X7503399Y5981268D01*
X7353397Y5901268D02*
X7503399Y5901268D01*
X7353397Y5901268D02*
X7353397Y5981268D01*
X7503399Y5901268D02*
X7503399Y5981268D01*
X7213900Y5536108D02*
X8503900Y5536108D01*
X7213900Y5536108D02*
X7213900Y5796112D01*
X8503900Y5796112D01*
X8503900Y5536108D02*
X8503900Y5796112D01*
X5939869Y3156027D02*
X6089871Y3156027D01*
X5939869Y3416032D02*
X6089871Y3416032D01*
X5939869Y3156027D02*
X5939869Y3416032D01*
X6089871Y3156027D02*
X6089871Y3416032D01*
X5816249Y4008344D02*
X5816249Y4228343D01*
X5696250Y4008344D02*
X5696250Y4228343D01*
X5816249Y4228343D01*
X5696250Y4008344D02*
X5816249Y4008344D01*
X5502499Y5947501D02*
X5932500Y5947501D01*
X5502499Y5687497D02*
X5932500Y5687497D01*
X5502499Y5687497D02*
X5502499Y5947501D01*
X5932500Y5687497D02*
X5932500Y5947501D01*
X4481358Y4133738D02*
X4921357Y4133738D01*
X4481358Y4133738D02*
X4481358Y4363740D01*
X4921357Y4363740D01*
X4921357Y4133738D02*
X4921357Y4363740D01*
X4481358Y3873312D02*
X4921357Y3873312D01*
X4481358Y3873312D02*
X4481358Y4103314D01*
X4921357Y4103314D01*
X4921357Y3873312D02*
X4921357Y4103314D01*
X4489140Y3612891D02*
X4929139Y3612891D01*
X4489140Y3612891D02*
X4489140Y3842888D01*
X4929139Y3842888D01*
X4929139Y3612891D02*
X4929139Y3842888D01*
X5087798Y5969300D02*
X5427802Y5969300D01*
X5427802Y5689300D02*
X5427802Y5969300D01*
X5087798Y5689300D02*
X5427802Y5689300D01*
X5087798Y5689300D02*
X5087798Y5969300D01*
X4016878Y3842888D02*
X4456877Y3842888D01*
X4456877Y3612891D02*
X4456877Y3842888D01*
X4016878Y3612891D02*
X4456877Y3612891D01*
X4016878Y3612891D02*
X4016878Y3842888D01*
X4009095Y4363740D02*
X4449094Y4363740D01*
X4449094Y4133738D02*
X4449094Y4363740D01*
X4009095Y4133738D02*
X4449094Y4133738D01*
X4009095Y4133738D02*
X4009095Y4363740D01*
X3062691Y6148700D02*
X3212694Y6148700D01*
X3062691Y6068700D02*
X3212694Y6068700D01*
X3062691Y6068700D02*
X3062691Y6148700D01*
X3212694Y6068700D02*
X3212694Y6148700D01*
X5508577Y6537918D02*
X5508577Y6757918D01*
X5628577Y6537918D02*
X5628577Y6757918D01*
X5508577Y6757918D02*
X5628577Y6757918D01*
X5508577Y6537918D02*
X5628577Y6537918D01*
X7618100Y7468799D02*
X7618100Y7618801D01*
X7698100Y7468799D02*
X7698100Y7618801D01*
X7618100Y7618801D02*
X7698100Y7618801D01*
X7618100Y7468799D02*
X7698100Y7468799D01*
X5108460Y7696218D02*
X5108460Y7916218D01*
X5218457Y7696218D02*
X5218457Y7916218D01*
X5108460Y7916218D02*
X5218457Y7916218D01*
X5108460Y7696218D02*
X5218457Y7696218D01*
X5890753Y4316562D02*
X5890753Y5241564D01*
X5240752Y4316562D02*
X5890753Y4316562D01*
X5240752Y4316562D02*
X5240752Y5241564D01*
X5890753Y5241564D01*
X8548564Y8609245D02*
X8548564Y8809246D01*
X8548564Y8609245D02*
X8893564Y8609245D01*
X8893564Y8809246D01*
X8548564Y8809246D02*
X8893564Y8809246D01*
X8505105Y8002033D02*
X8505105Y8202033D01*
X8505105Y8002033D02*
X8850105Y8002033D01*
X8850105Y8202033D01*
X8505105Y8202033D02*
X8850105Y8202033D01*
X10982198Y3660399D02*
X10982198Y10360401D01*
X10982198Y3660399D02*
X11522202Y3660399D01*
X11522202Y10360401D01*
X10982198Y10360401D02*
X11522202Y10360401D01*
X11490198Y10360401D02*
X12030202Y10360401D01*
X12030202Y3660399D02*
X12030202Y10360401D01*
X11490198Y3660399D02*
X12030202Y3660399D01*
X11490198Y3660399D02*
X11490198Y10360401D01*
%TF.MD5,3dfa3c6f40212e01636d1a344520b3fb*%
M02*
