%TF.GenerationSoftware,Altium Limited,Altium Designer,21.5.1 (32)*%
G04 Layer_Color=255*
%FSLAX45Y45*%
%MOMM*%
%TF.SameCoordinates,620DA487-9358-4998-A31C-56A073A1AE4C*%
%TF.FilePolarity,Positive*%
%TF.FileFunction,Pads,Top*%
%TF.Part,Single*%
G01*
G75*
%TA.AperFunction,SMDPad,SMDef*%
%ADD10C,0.23000*%
%ADD11R,0.95000X1.45000*%
%TA.AperFunction,SMDPad,CuDef*%
%ADD12R,3.43000X1.78000*%
%TA.AperFunction,SMDPad,SMDef*%
%ADD13R,4.40000X3.50000*%
%ADD14R,0.45000X0.95000*%
%ADD15O,1.60000X0.45000*%
%ADD16R,0.50000X0.45000*%
%ADD17O,0.60000X2.00000*%
%ADD18R,1.10000X1.75000*%
%ADD19R,1.10000X0.90000*%
%ADD20R,0.95000X1.55000*%
%ADD21R,0.72000X0.76000*%
%ADD22R,0.95000X0.80000*%
%ADD23R,0.76000X0.72000*%
%ADD24R,1.60000X2.80000*%
%ADD25R,0.70000X0.65000*%
%TA.AperFunction,SMDPad,CuDef*%
%ADD26R,1.78000X3.43000*%
%TA.AperFunction,SMDPad,SMDef*%
G04:AMPARAMS|DCode=27|XSize=0.6mm|YSize=1mm|CornerRadius=0.051mm|HoleSize=0mm|Usage=FLASHONLY|Rotation=90.000|XOffset=0mm|YOffset=0mm|HoleType=Round|Shape=RoundedRectangle|*
%AMROUNDEDRECTD27*
21,1,0.60000,0.89800,0,0,90.0*
21,1,0.49800,1.00000,0,0,90.0*
1,1,0.10200,0.44900,0.24900*
1,1,0.10200,0.44900,-0.24900*
1,1,0.10200,-0.44900,-0.24900*
1,1,0.10200,-0.44900,0.24900*
%
%ADD27ROUNDEDRECTD27*%
%TA.AperFunction,SMDPad,CuDef*%
%ADD28R,1.00606X1.30822*%
%ADD29R,1.35000X0.95000*%
%TA.AperFunction,BGAPad,SMDef*%
%ADD30C,0.50000*%
%TA.AperFunction,SMDPad,SMDef*%
%ADD31R,1.75000X1.00000*%
%ADD32R,1.45000X0.95000*%
%ADD33R,1.70000X1.35000*%
%ADD34R,0.48000X0.40000*%
%TA.AperFunction,BGAPad,SMDef*%
%ADD35C,0.33000*%
%ADD36C,0.29000*%
%TA.AperFunction,SMDPad,CuDef*%
%ADD37R,0.50000X0.50000*%
%TA.AperFunction,SMDPad,SMDef*%
%ADD38R,1.00000X0.85000*%
%ADD39R,0.70000X1.00000*%
%TA.AperFunction,ComponentPad*%
%ADD42C,1.50000*%
%ADD43R,1.50000X1.50000*%
%ADD44C,1.55000*%
%ADD45R,1.55000X1.55000*%
%ADD46C,1.60000*%
%ADD47R,1.60000X1.60000*%
%ADD48R,1.55000X1.55000*%
%ADD49C,5.00000*%
D10*
X8809469Y8394958D02*
D03*
Y8434958D02*
D03*
X8849469Y8394958D02*
D03*
Y8434958D02*
D03*
D11*
X8577605Y8102033D02*
D03*
X8777606D02*
D03*
X8621064Y8709245D02*
D03*
X8821064D02*
D03*
D12*
X2975492Y8915489D02*
D03*
X10334747Y3102031D02*
D03*
X8811603Y9833049D02*
D03*
X7112290Y9352386D02*
D03*
X9249999Y7487498D02*
D03*
X8802011Y6505486D02*
D03*
D13*
X5565750Y4779061D02*
D03*
D14*
X5629250Y4389064D02*
D03*
X5502250D02*
D03*
X5375250D02*
D03*
Y5169063D02*
D03*
X5502250D02*
D03*
X5629250D02*
D03*
X5756250D02*
D03*
Y4389064D02*
D03*
D15*
X5656067Y3127980D02*
D03*
Y3192978D02*
D03*
Y3257982D02*
D03*
Y3322980D02*
D03*
X5226066Y3127980D02*
D03*
Y3192978D02*
D03*
Y3322980D02*
D03*
Y3257982D02*
D03*
D16*
X3175193Y6108700D02*
D03*
X3100192D02*
D03*
X7465898Y5941268D02*
D03*
X7390897D02*
D03*
X7788692D02*
D03*
X7863693D02*
D03*
X8711281Y5345897D02*
D03*
X8636279D02*
D03*
X7390897Y6059907D02*
D03*
X7465898D02*
D03*
X3944386Y6108700D02*
D03*
X3869385D02*
D03*
D17*
X8388111Y5138349D02*
D03*
X8261111D02*
D03*
X8134111D02*
D03*
X8007111D02*
D03*
X7880111D02*
D03*
X7753111D02*
D03*
X7626111D02*
D03*
X7499111D02*
D03*
X7372111D02*
D03*
X7245111D02*
D03*
X7118111D02*
D03*
X6991111D02*
D03*
X6864111D02*
D03*
X6737111D02*
D03*
X8388111Y4238346D02*
D03*
X8261111D02*
D03*
X8134111D02*
D03*
X8007111D02*
D03*
X7880111D02*
D03*
X7753111D02*
D03*
X7626111D02*
D03*
X7499111D02*
D03*
X7245111D02*
D03*
X7118111D02*
D03*
X6991111D02*
D03*
X6864111D02*
D03*
X6737111D02*
D03*
X7372111D02*
D03*
D18*
X4089095Y4248739D02*
D03*
X4369095D02*
D03*
X4096878Y3727887D02*
D03*
X4376877D02*
D03*
X4849139D02*
D03*
X4569140D02*
D03*
X4841357Y3988313D02*
D03*
X4561357D02*
D03*
X4841357Y4248739D02*
D03*
X4561357D02*
D03*
X4369095Y3988313D02*
D03*
X4089095D02*
D03*
D19*
X5347802Y5899302D02*
D03*
Y5759298D02*
D03*
X5167798D02*
D03*
Y5899302D02*
D03*
D20*
X5835000Y5817499D02*
D03*
X5599999D02*
D03*
D21*
X5756250Y4070345D02*
D03*
Y4166342D02*
D03*
X7093443Y6586774D02*
D03*
Y6490772D02*
D03*
D22*
X6014870Y3351028D02*
D03*
Y3221031D02*
D03*
X7909031Y9263381D02*
D03*
Y9133383D02*
D03*
X7728091Y9133388D02*
D03*
Y9263386D02*
D03*
X6014873Y3060598D02*
D03*
Y2930601D02*
D03*
D23*
X8638281Y5208351D02*
D03*
X8734283D02*
D03*
X4008907Y8596996D02*
D03*
X4008897Y8747420D02*
D03*
X4008902Y8446572D02*
D03*
X4008897Y8296143D02*
D03*
X10761208Y7313900D02*
D03*
Y7137400D02*
D03*
X10665206Y7313900D02*
D03*
Y7137400D02*
D03*
X4104899Y8747420D02*
D03*
X4104909Y8596996D02*
D03*
X4104899Y8296143D02*
D03*
X4104904Y8446572D02*
D03*
D24*
X8820261Y9289867D02*
D03*
X8525265D02*
D03*
D25*
X8393359Y5345897D02*
D03*
X8488355D02*
D03*
D26*
X6400787Y4520676D02*
D03*
D27*
X7728091Y9639088D02*
D03*
X7453091Y9829090D02*
D03*
Y9734089D02*
D03*
Y9639088D02*
D03*
X7728091Y9829090D02*
D03*
D28*
X7894015Y10165650D02*
D03*
X7748799D02*
D03*
D29*
X8023984Y9652313D02*
D03*
Y9802315D02*
D03*
D30*
X5856996Y8340598D02*
D03*
X6356995Y7740599D02*
D03*
Y7840599D02*
D03*
X5656997Y7740599D02*
D03*
X5556997D02*
D03*
X5456997D02*
D03*
X6356995Y7240600D02*
D03*
X5756996Y7440600D02*
D03*
X6356995Y7140600D02*
D03*
X5856996Y6640601D02*
D03*
X5756996Y7640599D02*
D03*
Y7540600D02*
D03*
Y7340600D02*
D03*
X5656997Y7240600D02*
D03*
X5556997D02*
D03*
X5456997D02*
D03*
X5156998Y8340598D02*
D03*
X5356997Y7740599D02*
D03*
X5256997Y7640599D02*
D03*
Y7540600D02*
D03*
X4656999Y7840599D02*
D03*
Y7740599D02*
D03*
X5256997Y7440600D02*
D03*
X5356997Y7240600D02*
D03*
X5256997Y7340600D02*
D03*
X5156998Y6640601D02*
D03*
X4656999Y7240600D02*
D03*
Y7140600D02*
D03*
X6556995Y8340598D02*
D03*
X6456995Y8440598D02*
D03*
X6356995Y8540603D02*
D03*
X5956996Y8040599D02*
D03*
X6056996D02*
D03*
X5856996Y7840599D02*
D03*
X6056996D02*
D03*
X5856996Y7740599D02*
D03*
Y7640599D02*
D03*
X4656999Y8540603D02*
D03*
X4556999Y8440598D02*
D03*
X4956998Y8040599D02*
D03*
X4456999Y8340598D02*
D03*
X5656997Y7840599D02*
D03*
X5756996D02*
D03*
X5256997D02*
D03*
X5356997D02*
D03*
X5156998D02*
D03*
Y7740599D02*
D03*
Y7640599D02*
D03*
X6056996Y6940601D02*
D03*
X5856996Y7340600D02*
D03*
Y7240600D02*
D03*
Y7140600D02*
D03*
X5756996D02*
D03*
X6556995Y6640601D02*
D03*
X6456995Y6540602D02*
D03*
X6356995Y6440602D02*
D03*
X5256997Y7140600D02*
D03*
X5356997D02*
D03*
X5156998Y7240600D02*
D03*
Y7140600D02*
D03*
X5656997D02*
D03*
X5156998Y7340600D02*
D03*
X4956998Y6940601D02*
D03*
X4556999Y6540602D02*
D03*
X4656999Y6440602D02*
D03*
X4456999Y6640601D02*
D03*
Y6440602D02*
D03*
Y6540602D02*
D03*
Y6740601D02*
D03*
Y6840601D02*
D03*
Y6940601D02*
D03*
Y7040601D02*
D03*
Y7140600D02*
D03*
Y7240600D02*
D03*
Y7340600D02*
D03*
Y7440600D02*
D03*
Y7540600D02*
D03*
Y7640599D02*
D03*
Y7740599D02*
D03*
Y7840599D02*
D03*
Y7940599D02*
D03*
Y8040599D02*
D03*
Y8140598D02*
D03*
Y8240598D02*
D03*
Y8440598D02*
D03*
Y8540603D02*
D03*
X4556999Y6440602D02*
D03*
Y6640601D02*
D03*
Y6740601D02*
D03*
Y6840601D02*
D03*
Y6940601D02*
D03*
Y7040601D02*
D03*
Y7140600D02*
D03*
Y7240600D02*
D03*
Y7340600D02*
D03*
Y7440600D02*
D03*
Y7540600D02*
D03*
Y7640599D02*
D03*
Y7740599D02*
D03*
Y7840599D02*
D03*
Y7940599D02*
D03*
Y8040599D02*
D03*
Y8140598D02*
D03*
Y8240598D02*
D03*
Y8340598D02*
D03*
Y8540603D02*
D03*
X4656999Y6540602D02*
D03*
Y6640601D02*
D03*
Y6740601D02*
D03*
Y6840601D02*
D03*
Y6940601D02*
D03*
Y7040601D02*
D03*
Y7340600D02*
D03*
Y7440600D02*
D03*
Y7540600D02*
D03*
Y7640599D02*
D03*
Y7940599D02*
D03*
Y8040599D02*
D03*
Y8140598D02*
D03*
Y8240598D02*
D03*
Y8340598D02*
D03*
Y8440598D02*
D03*
X4756998Y6440602D02*
D03*
Y6540602D02*
D03*
Y6640601D02*
D03*
Y6740601D02*
D03*
Y6840601D02*
D03*
Y6940601D02*
D03*
Y7040601D02*
D03*
Y7140600D02*
D03*
Y7240600D02*
D03*
Y7340600D02*
D03*
Y7440600D02*
D03*
Y7540600D02*
D03*
Y7640599D02*
D03*
Y7740599D02*
D03*
Y7840599D02*
D03*
Y7940599D02*
D03*
Y8040599D02*
D03*
Y8140598D02*
D03*
Y8240598D02*
D03*
Y8340598D02*
D03*
Y8440598D02*
D03*
Y8540603D02*
D03*
X4856998Y6440602D02*
D03*
Y6540602D02*
D03*
Y6640601D02*
D03*
Y6740601D02*
D03*
Y6840601D02*
D03*
Y6940601D02*
D03*
Y7040601D02*
D03*
Y7140600D02*
D03*
Y7240600D02*
D03*
Y7340600D02*
D03*
Y7440600D02*
D03*
Y7540600D02*
D03*
Y7640599D02*
D03*
Y7740599D02*
D03*
Y7840599D02*
D03*
Y7940599D02*
D03*
Y8040599D02*
D03*
Y8140598D02*
D03*
Y8240598D02*
D03*
Y8340598D02*
D03*
Y8440598D02*
D03*
Y8540603D02*
D03*
X4956998Y6440602D02*
D03*
Y6540602D02*
D03*
Y6640601D02*
D03*
Y6740601D02*
D03*
Y6840601D02*
D03*
Y7040601D02*
D03*
Y7140600D02*
D03*
Y7240600D02*
D03*
Y7340600D02*
D03*
Y7440600D02*
D03*
Y7540600D02*
D03*
Y7640599D02*
D03*
Y7740599D02*
D03*
Y7840599D02*
D03*
Y7940599D02*
D03*
Y8140598D02*
D03*
Y8240598D02*
D03*
Y8340598D02*
D03*
Y8440598D02*
D03*
Y8540603D02*
D03*
X5056998Y6440602D02*
D03*
Y6540602D02*
D03*
Y6640601D02*
D03*
Y6740601D02*
D03*
Y6840601D02*
D03*
Y6940601D02*
D03*
Y7040601D02*
D03*
Y7140600D02*
D03*
Y7240600D02*
D03*
Y7340600D02*
D03*
Y7440600D02*
D03*
Y7540600D02*
D03*
Y7640599D02*
D03*
Y7740599D02*
D03*
Y7840599D02*
D03*
Y7940599D02*
D03*
Y8040599D02*
D03*
Y8140598D02*
D03*
Y8240598D02*
D03*
Y8340598D02*
D03*
Y8440598D02*
D03*
Y8540603D02*
D03*
X5156998Y6440602D02*
D03*
Y6540602D02*
D03*
Y6740601D02*
D03*
Y6840601D02*
D03*
Y6940601D02*
D03*
Y7040601D02*
D03*
Y7440600D02*
D03*
Y7540600D02*
D03*
Y7940599D02*
D03*
Y8040599D02*
D03*
Y8140598D02*
D03*
Y8240598D02*
D03*
Y8440598D02*
D03*
Y8540603D02*
D03*
X5256997Y6440602D02*
D03*
Y6540602D02*
D03*
Y6640601D02*
D03*
Y6740601D02*
D03*
Y6840601D02*
D03*
Y6940601D02*
D03*
Y7040601D02*
D03*
Y7240600D02*
D03*
Y7740599D02*
D03*
Y7940599D02*
D03*
Y8040599D02*
D03*
Y8140598D02*
D03*
Y8240598D02*
D03*
Y8340598D02*
D03*
Y8440598D02*
D03*
Y8540603D02*
D03*
X5356997Y6440602D02*
D03*
Y6540602D02*
D03*
Y6640601D02*
D03*
Y6740601D02*
D03*
Y6840601D02*
D03*
Y6940601D02*
D03*
Y7040601D02*
D03*
Y7340600D02*
D03*
Y7440600D02*
D03*
Y7540600D02*
D03*
Y7640599D02*
D03*
Y7940599D02*
D03*
Y8040599D02*
D03*
Y8140598D02*
D03*
Y8240598D02*
D03*
Y8340598D02*
D03*
Y8440598D02*
D03*
Y8540603D02*
D03*
X5456997Y6440602D02*
D03*
Y6540602D02*
D03*
Y6640601D02*
D03*
Y6740601D02*
D03*
Y6840601D02*
D03*
Y6940601D02*
D03*
Y7040601D02*
D03*
Y7140600D02*
D03*
Y7340600D02*
D03*
Y7440600D02*
D03*
Y7540600D02*
D03*
Y7640599D02*
D03*
Y7840599D02*
D03*
Y7940599D02*
D03*
Y8040599D02*
D03*
Y8140598D02*
D03*
Y8240598D02*
D03*
Y8340598D02*
D03*
Y8440598D02*
D03*
Y8540603D02*
D03*
X5556997Y6440602D02*
D03*
Y6540602D02*
D03*
Y6640601D02*
D03*
Y6740601D02*
D03*
Y6840601D02*
D03*
Y6940601D02*
D03*
Y7040601D02*
D03*
Y7140600D02*
D03*
Y7340600D02*
D03*
Y7440600D02*
D03*
Y7540600D02*
D03*
Y7640599D02*
D03*
Y7840599D02*
D03*
Y7940599D02*
D03*
Y8040599D02*
D03*
Y8140598D02*
D03*
Y8240598D02*
D03*
Y8340598D02*
D03*
Y8440598D02*
D03*
Y8540603D02*
D03*
X5656997Y6440602D02*
D03*
Y6540602D02*
D03*
Y6640601D02*
D03*
Y6740601D02*
D03*
Y6840601D02*
D03*
Y6940601D02*
D03*
Y7040601D02*
D03*
Y7340600D02*
D03*
Y7440600D02*
D03*
Y7540600D02*
D03*
Y7640599D02*
D03*
Y7940599D02*
D03*
Y8040599D02*
D03*
Y8140598D02*
D03*
Y8240598D02*
D03*
Y8340598D02*
D03*
Y8440598D02*
D03*
Y8540603D02*
D03*
X5756996Y6440602D02*
D03*
Y6540602D02*
D03*
Y6640601D02*
D03*
Y6740601D02*
D03*
Y6840601D02*
D03*
Y6940601D02*
D03*
Y7040601D02*
D03*
Y7240600D02*
D03*
Y7740599D02*
D03*
Y7940599D02*
D03*
Y8040599D02*
D03*
Y8140598D02*
D03*
Y8240598D02*
D03*
Y8340598D02*
D03*
Y8440598D02*
D03*
Y8540603D02*
D03*
X5856996Y6440602D02*
D03*
Y6540602D02*
D03*
Y6740601D02*
D03*
Y6840601D02*
D03*
Y6940601D02*
D03*
Y7040601D02*
D03*
Y7440600D02*
D03*
Y7540600D02*
D03*
Y7940599D02*
D03*
Y8040599D02*
D03*
Y8140598D02*
D03*
Y8240598D02*
D03*
Y8440598D02*
D03*
Y8540603D02*
D03*
X5956996Y6440602D02*
D03*
Y6540602D02*
D03*
Y6640601D02*
D03*
Y6740601D02*
D03*
Y6840601D02*
D03*
Y6940601D02*
D03*
Y7040601D02*
D03*
Y7140600D02*
D03*
Y7240600D02*
D03*
Y7340600D02*
D03*
Y7440600D02*
D03*
Y7540600D02*
D03*
Y7640599D02*
D03*
Y7740599D02*
D03*
Y7840599D02*
D03*
Y7940599D02*
D03*
Y8140598D02*
D03*
Y8240598D02*
D03*
Y8340598D02*
D03*
Y8440598D02*
D03*
Y8540603D02*
D03*
X6056996Y6440602D02*
D03*
Y6540602D02*
D03*
Y6640601D02*
D03*
Y6740601D02*
D03*
Y6840601D02*
D03*
Y7040601D02*
D03*
Y7140600D02*
D03*
Y7240600D02*
D03*
Y7340600D02*
D03*
Y7440600D02*
D03*
Y7540600D02*
D03*
Y7640599D02*
D03*
Y7740599D02*
D03*
Y7940599D02*
D03*
Y8140598D02*
D03*
Y8240598D02*
D03*
Y8340598D02*
D03*
Y8440598D02*
D03*
Y8540603D02*
D03*
X6156996Y6440602D02*
D03*
Y6540602D02*
D03*
Y6640601D02*
D03*
Y6740601D02*
D03*
Y6840601D02*
D03*
Y6940601D02*
D03*
Y7040601D02*
D03*
Y7140600D02*
D03*
Y7240600D02*
D03*
Y7340600D02*
D03*
Y7440600D02*
D03*
Y7540600D02*
D03*
Y7640599D02*
D03*
Y7740599D02*
D03*
Y7840599D02*
D03*
Y7940599D02*
D03*
Y8040599D02*
D03*
Y8140598D02*
D03*
Y8240598D02*
D03*
Y8340598D02*
D03*
Y8440598D02*
D03*
Y8540603D02*
D03*
X6256995Y6440602D02*
D03*
Y6540602D02*
D03*
Y6640601D02*
D03*
Y6740601D02*
D03*
Y6840601D02*
D03*
Y6940601D02*
D03*
Y7040601D02*
D03*
Y7140600D02*
D03*
Y7240600D02*
D03*
Y7340600D02*
D03*
Y7440600D02*
D03*
Y7540600D02*
D03*
Y7640599D02*
D03*
Y7740599D02*
D03*
Y7840599D02*
D03*
Y7940599D02*
D03*
Y8040599D02*
D03*
Y8140598D02*
D03*
Y8240598D02*
D03*
Y8340598D02*
D03*
Y8440598D02*
D03*
Y8540603D02*
D03*
X6356995Y6540602D02*
D03*
Y6640601D02*
D03*
Y6740601D02*
D03*
Y6840601D02*
D03*
Y6940601D02*
D03*
Y7040601D02*
D03*
Y7340600D02*
D03*
Y7440600D02*
D03*
Y7540600D02*
D03*
Y7640599D02*
D03*
Y7940599D02*
D03*
Y8040599D02*
D03*
Y8140598D02*
D03*
Y8240598D02*
D03*
Y8340598D02*
D03*
Y8440598D02*
D03*
X6456995Y6440602D02*
D03*
Y6640601D02*
D03*
Y6740601D02*
D03*
Y6840601D02*
D03*
Y6940601D02*
D03*
Y7040601D02*
D03*
Y7140600D02*
D03*
Y7240600D02*
D03*
Y7340600D02*
D03*
Y7440600D02*
D03*
Y7540600D02*
D03*
Y7640599D02*
D03*
Y7740599D02*
D03*
Y7840599D02*
D03*
Y7940599D02*
D03*
Y8040599D02*
D03*
Y8140598D02*
D03*
Y8240598D02*
D03*
Y8340598D02*
D03*
Y8540603D02*
D03*
X6556995Y6440602D02*
D03*
Y6540602D02*
D03*
Y6740601D02*
D03*
Y6840601D02*
D03*
Y6940601D02*
D03*
Y7040601D02*
D03*
Y7140600D02*
D03*
Y7240600D02*
D03*
Y7340600D02*
D03*
Y7440600D02*
D03*
Y7540600D02*
D03*
Y7640599D02*
D03*
Y7740599D02*
D03*
Y7840599D02*
D03*
Y7940599D02*
D03*
Y8040599D02*
D03*
Y8140598D02*
D03*
Y8240598D02*
D03*
Y8440598D02*
D03*
Y8540603D02*
D03*
D31*
X9414995Y6223891D02*
D03*
Y5923887D02*
D03*
D32*
X9407500Y7012498D02*
D03*
Y7212498D02*
D03*
D33*
X9112498Y5961080D02*
D03*
Y6221084D02*
D03*
X9127500Y7203100D02*
D03*
Y6943095D02*
D03*
D34*
X6518732Y9968062D02*
D03*
X6754724D02*
D03*
X6886722D02*
D03*
X6650731D02*
D03*
D35*
X7692598Y7620000D02*
D03*
X7317598Y7544999D02*
D03*
X7692598Y7320001D02*
D03*
X7617602D02*
D03*
X7542601D02*
D03*
X7467600D02*
D03*
X7392599D02*
D03*
X7317598D02*
D03*
X7692598Y7395002D02*
D03*
X7617602D02*
D03*
X7542601D02*
D03*
X7467600D02*
D03*
X7392599D02*
D03*
X7317598D02*
D03*
X7692598Y7469998D02*
D03*
X7617602D02*
D03*
X7542601D02*
D03*
X7467600D02*
D03*
X7392599D02*
D03*
X7317598D02*
D03*
X7692598Y7544999D02*
D03*
X7617602D02*
D03*
X7542601D02*
D03*
X7467600D02*
D03*
X7392599D02*
D03*
X7617602Y7620000D02*
D03*
X7542601D02*
D03*
X7467600D02*
D03*
X7392599D02*
D03*
X7317598D02*
D03*
X7692598Y7695001D02*
D03*
X7617602D02*
D03*
X7542601D02*
D03*
X7467600D02*
D03*
X7392599D02*
D03*
X7317598D02*
D03*
X7692598Y7770002D02*
D03*
X7617602D02*
D03*
X7542601D02*
D03*
X7467600D02*
D03*
X7392599D02*
D03*
X7317598D02*
D03*
X7692598Y7844998D02*
D03*
X7617602D02*
D03*
X7542601D02*
D03*
X7467600D02*
D03*
X7392599D02*
D03*
X7317598D02*
D03*
D36*
X5609798Y9372600D02*
D03*
X5234798Y9297599D02*
D03*
X5609798Y9072601D02*
D03*
X5534802D02*
D03*
X5459801D02*
D03*
X5384800D02*
D03*
X5309799D02*
D03*
X5234798D02*
D03*
X5609798Y9147602D02*
D03*
X5534802D02*
D03*
X5459801D02*
D03*
X5384800D02*
D03*
X5309799D02*
D03*
X5234798D02*
D03*
X5609798Y9222598D02*
D03*
X5534802D02*
D03*
X5459801D02*
D03*
X5384800D02*
D03*
X5309799D02*
D03*
X5234798D02*
D03*
X5609798Y9297599D02*
D03*
X5534802D02*
D03*
X5459801D02*
D03*
X5384800D02*
D03*
X5309799D02*
D03*
X5534802Y9372600D02*
D03*
X5459801D02*
D03*
X5384800D02*
D03*
X5309799D02*
D03*
X5234798D02*
D03*
X5609798Y9447601D02*
D03*
X5534802D02*
D03*
X5459801D02*
D03*
X5384800D02*
D03*
X5309799D02*
D03*
X5234798D02*
D03*
X5609798Y9522602D02*
D03*
X5534802D02*
D03*
X5459801D02*
D03*
X5384800D02*
D03*
X5309799D02*
D03*
X5234798D02*
D03*
X5609798Y9597598D02*
D03*
X5534802D02*
D03*
X5459801D02*
D03*
X5384800D02*
D03*
X5309799D02*
D03*
X5234798D02*
D03*
D37*
X6927555Y6590599D02*
D03*
Y6490599D02*
D03*
D38*
X3700916Y4725412D02*
D03*
Y4875415D02*
D03*
X3946046Y4724808D02*
D03*
Y4874810D02*
D03*
X3431280Y4716683D02*
D03*
Y4866685D02*
D03*
D39*
X3431279Y5048364D02*
D03*
Y5228369D02*
D03*
X3946045Y5061186D02*
D03*
Y5241191D02*
D03*
X3700914Y5048334D02*
D03*
Y5228339D02*
D03*
D42*
X9459628Y4007665D02*
D03*
Y3245665D02*
D03*
Y3499665D02*
D03*
Y3753665D02*
D03*
X10274300Y4013200D02*
D03*
X10020300D02*
D03*
X10274300Y4267200D02*
D03*
X10020300D02*
D03*
X10274300Y4521200D02*
D03*
X10020300D02*
D03*
X10274300Y4775200D02*
D03*
X10020300D02*
D03*
X10274300Y5029200D02*
D03*
X10020300D02*
D03*
X10274300Y5283200D02*
D03*
X10020300D02*
D03*
X10274300Y5537200D02*
D03*
X10020300D02*
D03*
X10274300Y5791200D02*
D03*
X10020300D02*
D03*
X10274300Y6045200D02*
D03*
X10020300D02*
D03*
X10274300Y6299200D02*
D03*
X10020300D02*
D03*
X10274300Y6553200D02*
D03*
X10020300D02*
D03*
X10274300Y6807200D02*
D03*
X10020300D02*
D03*
X10274300Y7061200D02*
D03*
X10020300D02*
D03*
X10274300Y7315200D02*
D03*
X10020300D02*
D03*
X10274300Y7569200D02*
D03*
X10020300D02*
D03*
X10274300Y7823200D02*
D03*
X10020300D02*
D03*
X10274300Y8077200D02*
D03*
X10020300D02*
D03*
X10274300Y8331200D02*
D03*
X10020300D02*
D03*
X10274300Y8585200D02*
D03*
X10020300D02*
D03*
X10274300Y8839200D02*
D03*
X3644900Y8394700D02*
D03*
X3390900Y8140700D02*
D03*
X3644900D02*
D03*
X3390900Y7886700D02*
D03*
X3644900D02*
D03*
X3390900Y7632700D02*
D03*
X3644900D02*
D03*
X3390900Y7378700D02*
D03*
X3644900D02*
D03*
X3390900Y7124700D02*
D03*
X3644900D02*
D03*
X3390900Y6870700D02*
D03*
X3644900D02*
D03*
X3390900Y6616700D02*
D03*
X3644900D02*
D03*
X3390900Y6362700D02*
D03*
X3644900D02*
D03*
X3390900Y6108700D02*
D03*
X3644900D02*
D03*
D43*
X9459628Y4261665D02*
D03*
X10020300Y8839200D02*
D03*
X3390900Y8394700D02*
D03*
D44*
X11887200Y10185400D02*
D03*
Y9931400D02*
D03*
Y9677400D02*
D03*
Y9423400D02*
D03*
Y9169400D02*
D03*
Y8915400D02*
D03*
Y8661400D02*
D03*
Y8407400D02*
D03*
Y8153400D02*
D03*
Y7899400D02*
D03*
Y7645400D02*
D03*
Y7391400D02*
D03*
Y7137400D02*
D03*
Y6883400D02*
D03*
Y6629400D02*
D03*
Y6375400D02*
D03*
Y6121400D02*
D03*
Y5867400D02*
D03*
Y5613400D02*
D03*
Y5359400D02*
D03*
Y5105400D02*
D03*
Y4851400D02*
D03*
Y4597400D02*
D03*
Y4343400D02*
D03*
Y4089400D02*
D03*
Y3835400D02*
D03*
X11633200Y10185400D02*
D03*
Y9931400D02*
D03*
Y9677400D02*
D03*
Y9423400D02*
D03*
Y9169400D02*
D03*
Y8915400D02*
D03*
Y8661400D02*
D03*
Y8407400D02*
D03*
Y8153400D02*
D03*
Y7899400D02*
D03*
Y7645400D02*
D03*
Y7391400D02*
D03*
Y7137400D02*
D03*
Y6883400D02*
D03*
Y6629400D02*
D03*
Y6375400D02*
D03*
Y6121400D02*
D03*
Y5867400D02*
D03*
Y5613400D02*
D03*
Y5359400D02*
D03*
Y5105400D02*
D03*
Y4851400D02*
D03*
Y4597400D02*
D03*
Y4343400D02*
D03*
Y4089400D02*
D03*
X11125200Y7137400D02*
D03*
X11379200D02*
D03*
X11125200Y4089400D02*
D03*
Y4343400D02*
D03*
Y4597400D02*
D03*
Y4851400D02*
D03*
Y5105400D02*
D03*
Y5359400D02*
D03*
Y5613400D02*
D03*
Y5867400D02*
D03*
Y6121400D02*
D03*
Y6375400D02*
D03*
Y6629400D02*
D03*
Y6883400D02*
D03*
Y7391400D02*
D03*
Y7645400D02*
D03*
Y7899400D02*
D03*
Y8153400D02*
D03*
Y8407400D02*
D03*
Y8661400D02*
D03*
Y8915400D02*
D03*
Y9169400D02*
D03*
Y9423400D02*
D03*
Y9677400D02*
D03*
Y9931400D02*
D03*
Y10185400D02*
D03*
X11379200Y3835400D02*
D03*
Y4089400D02*
D03*
Y4343400D02*
D03*
Y4597400D02*
D03*
Y4851400D02*
D03*
Y5105400D02*
D03*
Y5359400D02*
D03*
Y5613400D02*
D03*
Y5867400D02*
D03*
Y6121400D02*
D03*
Y6375400D02*
D03*
Y6629400D02*
D03*
Y6883400D02*
D03*
Y7391400D02*
D03*
Y7645400D02*
D03*
Y7899400D02*
D03*
Y8153400D02*
D03*
Y8407400D02*
D03*
Y8661400D02*
D03*
Y8915400D02*
D03*
Y9169400D02*
D03*
Y9423400D02*
D03*
Y9677400D02*
D03*
Y9931400D02*
D03*
Y10185400D02*
D03*
X7350902Y5666110D02*
D03*
X7604902D02*
D03*
X7858902D02*
D03*
X8112902D02*
D03*
D45*
X11633200Y3835400D02*
D03*
X11125200D02*
D03*
D46*
X8810371Y3395889D02*
D03*
X8556371D02*
D03*
X7794371D02*
D03*
X7286371D02*
D03*
X6778371D02*
D03*
X7032371D02*
D03*
X7540371D02*
D03*
X8048371D02*
D03*
X8302371D02*
D03*
D47*
X6524371D02*
D03*
D48*
X8366902Y5666110D02*
D03*
D49*
X3365500Y10807700D02*
D03*
X11468100Y10909300D02*
D03*
X11252200Y3327400D02*
D03*
X3352800Y3416300D02*
D03*
%TF.MD5,55289b021c7143fda88234d2976f3fd2*%
M02*
