%TF.GenerationSoftware,Altium Limited,Altium Designer,21.5.1 (32)*%
G04 Layer_Color=32896*
%FSLAX45Y45*%
%MOMM*%
%TF.SameCoordinates,BAA3C551-5021-4B2B-824C-9EA50FFAFE59*%
%TF.FilePolarity,Positive*%
%TF.FileFunction,Other,Top_Component_Center*%
%TF.Part,Single*%
G01*
G75*
%TA.AperFunction,NonConductor*%
%ADD91C,0.10000*%
D91*
X2925495Y8915489D02*
X3025494Y8915489D01*
X2975492Y8865492D02*
X2975492Y8965492D01*
X10284750Y3102031D02*
X10384749Y3102031D01*
X10334747Y3052034D02*
X10334747Y3152033D01*
X6350784Y4520676D02*
X6450784Y4520676D01*
X6400787Y4470679D02*
X6400787Y4570679D01*
X8811603Y9783052D02*
X8811603Y9883052D01*
X8761606Y9833049D02*
X8861606Y9833049D01*
X7112290Y9302388D02*
X7112290Y9402388D01*
X7062293Y9352386D02*
X7162293Y9352386D01*
X9200002Y7487498D02*
X9300002Y7487498D01*
X9249999Y7437501D02*
X9249999Y7537501D01*
X7821407Y10115653D02*
X7821407Y10215652D01*
X7771405Y10165650D02*
X7871404Y10165650D01*
X8023984Y9677317D02*
X8023984Y9777316D01*
X7973987Y9727314D02*
X8073987Y9727314D01*
X8752013Y6505486D02*
X8852013Y6505486D01*
X8802011Y6455489D02*
X8802011Y6555489D01*
X6877558Y6540602D02*
X6977558Y6540602D01*
X6927555Y6490599D02*
X6927555Y6590599D01*
%TF.MD5,9546307b3a97f8e843b32a1093e37c8a*%
M02*
