G04*
G04 #@! TF.GenerationSoftware,Altium Limited,Altium Designer,21.5.1 (32)*
G04*
G04 Layer_Color=32768*
%FSLAX44Y44*%
%MOMM*%
G71*
G04*
G04 #@! TF.SameCoordinates,CE61D733-3D9C-4286-B01C-F70B086857D8*
G04*
G04*
G04 #@! TF.FilePolarity,Positive*
G04*
G01*
G75*
%ADD13C,0.2000*%
D13*
X610069Y680217D02*
X620069D01*
Y685217D01*
X610069D02*
X620069D01*
X610069Y680217D02*
Y685217D01*
X499740Y803242D02*
X509740D01*
X499740Y798243D02*
Y803242D01*
Y798243D02*
X509740D01*
Y803242D01*
X499740Y821285D02*
X509740D01*
X499740Y816285D02*
Y821285D01*
Y816285D02*
X509740D01*
Y821285D01*
X499740Y759742D02*
X509740D01*
X499740Y754743D02*
Y759742D01*
Y754743D02*
X509740D01*
Y759742D01*
X494457Y736700D02*
X504457D01*
Y741700D01*
X494457D02*
X504457D01*
X494457Y736700D02*
Y741700D01*
Y721700D02*
X504457D01*
X494457Y716700D02*
Y721700D01*
Y716700D02*
X504457D01*
Y721700D01*
X494732Y781700D02*
X504732D01*
X494732Y776700D02*
Y781700D01*
Y776700D02*
X504732D01*
Y781700D01*
X499740Y834328D02*
X509740D01*
Y839328D01*
X499740D02*
X509740D01*
X499740Y834328D02*
Y839328D01*
X483302Y719202D02*
Y729202D01*
X478302D02*
X483302D01*
X478302Y719202D02*
Y729202D01*
Y719202D02*
X483302D01*
X457147Y731700D02*
X467147D01*
X457147Y726700D02*
Y731700D01*
Y726700D02*
X467147D01*
Y731700D01*
X457147Y711700D02*
X467147D01*
X457147Y706700D02*
Y711700D01*
Y706700D02*
X467147D01*
Y711700D01*
X437880Y721700D02*
X447880D01*
X437880Y716700D02*
Y721700D01*
Y716700D02*
X447880D01*
Y721700D01*
X569740Y853285D02*
X579740D01*
X569740Y848284D02*
Y853285D01*
Y848284D02*
X579740D01*
Y853285D01*
X592235Y827129D02*
Y837129D01*
X587235D02*
X592235D01*
X587235Y827129D02*
Y837129D01*
Y827129D02*
X592235D01*
X491962Y678439D02*
Y688439D01*
Y678439D02*
X496962D01*
Y688439D01*
X491962D02*
X496962D01*
X578640Y654607D02*
Y664607D01*
X573640D02*
X578640D01*
X573640Y654607D02*
Y664607D01*
Y654607D02*
X578640D01*
X596683Y655414D02*
Y665414D01*
X591683D02*
X596683D01*
X591683Y655414D02*
Y665414D01*
Y655414D02*
X596683D01*
X634944Y865062D02*
X644944D01*
Y870062D01*
X634944D02*
X644944D01*
X634944Y865062D02*
Y870062D01*
X579740Y759622D02*
Y764621D01*
X569740Y759622D02*
X579740D01*
X569740D02*
Y764621D01*
X579740D01*
X437240Y659200D02*
X442240D01*
Y649200D02*
Y659200D01*
X437240Y649200D02*
X442240D01*
X437240D02*
Y659200D01*
Y839200D02*
X442240D01*
X437240D02*
Y849200D01*
X442240D01*
Y839200D02*
Y849200D01*
X447240Y859200D02*
X452240D01*
Y849200D02*
Y859200D01*
X447240Y849200D02*
X452240D01*
X447240D02*
Y859200D01*
X458000Y649250D02*
X463000D01*
Y639250D02*
Y649250D01*
X458000Y639250D02*
X463000D01*
X458000D02*
Y649250D01*
X467225Y688658D02*
Y693658D01*
X477225D01*
Y688658D02*
Y693658D01*
X467225Y688658D02*
X477225D01*
X459740Y810355D02*
Y815355D01*
X469740D01*
Y810355D02*
Y815355D01*
X459740Y810355D02*
X469740D01*
X436931Y776700D02*
Y781700D01*
X446931D01*
Y776700D02*
Y781700D01*
X436931Y776700D02*
X446931D01*
X457245Y859205D02*
X462245D01*
Y849205D02*
Y859205D01*
X457245Y849205D02*
X462245D01*
X457245D02*
Y859205D01*
X506687Y656695D02*
Y661695D01*
X496687Y656695D02*
X506687D01*
X496687D02*
Y661695D01*
X506687D01*
X466198Y776700D02*
Y781700D01*
X456198Y776700D02*
X466198D01*
X456198D02*
Y781700D01*
X466198D01*
X515954Y656720D02*
Y661721D01*
X525954D01*
Y656720D02*
Y661721D01*
X515954Y656720D02*
X525954D01*
X475465Y766700D02*
Y771700D01*
X485465D01*
Y766700D02*
Y771700D01*
X475465Y766700D02*
X485465D01*
X456198Y756700D02*
Y761700D01*
X466198D01*
Y756700D02*
Y761700D01*
X456198Y756700D02*
X466198D01*
X478577Y789200D02*
X483578D01*
X478577D02*
Y799200D01*
X483578D01*
Y789200D02*
Y799200D01*
X527235Y827735D02*
X532235D01*
X527235D02*
Y837735D01*
X532235D01*
Y827735D02*
Y837735D01*
X517240Y850483D02*
X522240D01*
X517240D02*
Y860483D01*
X522240D01*
Y850483D02*
Y860483D01*
X537225Y818467D02*
X542225D01*
Y808467D02*
Y818467D01*
X537225Y808467D02*
X542225D01*
X537225D02*
Y818467D01*
X547697Y709200D02*
X552698D01*
Y699200D02*
Y709200D01*
X547697Y699200D02*
X552698D01*
X547697D02*
Y709200D01*
X567240Y738467D02*
X572240D01*
X567240D02*
Y748467D01*
X572240D01*
Y738467D02*
Y748467D01*
X556085Y756700D02*
Y761700D01*
X546085Y756700D02*
X556085D01*
X546085D02*
Y761700D01*
X556085D01*
X529930Y779200D02*
X534930D01*
Y769200D02*
Y779200D01*
X529930Y769200D02*
X534930D01*
X529930D02*
Y779200D01*
X567240Y809087D02*
X572240D01*
X567240D02*
Y819087D01*
X572240D01*
Y809087D02*
Y819087D01*
X589740Y739803D02*
Y744803D01*
X599740D01*
Y739803D02*
Y744803D01*
X589740Y739803D02*
X599740D01*
X589740Y759622D02*
Y764622D01*
X599740D01*
Y759622D02*
Y764622D01*
X589740Y759622D02*
X599740D01*
X589740Y810974D02*
Y815975D01*
X599740D01*
Y810974D02*
Y815975D01*
X589740Y810974D02*
X599740D01*
X609740Y786695D02*
Y791695D01*
X619740D01*
Y786695D02*
Y791695D01*
X609740Y786695D02*
X619740D01*
X639740Y716706D02*
Y721706D01*
X629740Y716706D02*
X639740D01*
X629740D02*
Y721706D01*
X639740D01*
Y786700D02*
Y791700D01*
X629740Y786700D02*
X639740D01*
X629740D02*
Y791700D01*
X639740D01*
Y776700D02*
Y781700D01*
X629740Y776700D02*
X639740D01*
X629740D02*
Y781700D01*
X639740D01*
Y636700D02*
Y641700D01*
X649740D01*
Y636700D02*
Y641700D01*
X639740Y636700D02*
X649740D01*
X659740Y836700D02*
Y841700D01*
X649740Y836700D02*
X659740D01*
X649740D02*
Y841700D01*
X659740D01*
X649740Y846700D02*
Y851700D01*
X659740D01*
Y846700D02*
Y851700D01*
X649740Y846700D02*
X659740D01*
X519740Y697778D02*
Y702777D01*
X529740D01*
Y697778D02*
Y702777D01*
X519740Y697778D02*
X529740D01*
X519740Y740862D02*
Y745862D01*
X529740D01*
Y740862D02*
Y745862D01*
X519740Y740862D02*
X529740D01*
X609008Y706700D02*
Y711700D01*
X619008D01*
Y706700D02*
Y711700D01*
X609008Y706700D02*
X619008D01*
X609008Y726700D02*
Y731700D01*
X619008D01*
Y726700D02*
Y731700D01*
X609008Y726700D02*
X619008D01*
X639740Y706700D02*
Y711700D01*
X629740Y706700D02*
X639740D01*
X629740D02*
Y711700D01*
X639740D01*
X649740Y646700D02*
Y651700D01*
X639740Y646700D02*
X649740D01*
X639740D02*
Y651700D01*
X649740D01*
X577240Y728649D02*
X582240D01*
Y718649D02*
Y728649D01*
X577240Y718649D02*
X582240D01*
X577240D02*
Y728649D01*
X515612Y719200D02*
X520613D01*
X515612D02*
Y729200D01*
X520613D01*
Y719200D02*
Y729200D01*
X559197D02*
X564198D01*
Y719200D02*
Y729200D01*
X559197Y719200D02*
X564198D01*
X559197D02*
Y729200D01*
X557240Y799819D02*
X562240D01*
Y789819D02*
Y799819D01*
X557240Y789819D02*
X562240D01*
X557240D02*
Y799819D01*
X577240Y789819D02*
X582240D01*
X577240D02*
Y799819D01*
X582240D01*
Y789819D02*
Y799819D01*
X539197Y789200D02*
X544198D01*
X539197D02*
Y799200D01*
X544198D01*
Y789200D02*
Y799200D01*
X657240Y659200D02*
X662240D01*
Y649200D02*
Y659200D01*
X657240Y649200D02*
X662240D01*
X657240D02*
Y659200D01*
M02*
