G04*
G04 #@! TF.GenerationSoftware,Altium Limited,Altium Designer,21.5.1 (32)*
G04*
G04 Layer_Color=32768*
%FSLAX44Y44*%
%MOMM*%
G71*
G04*
G04 #@! TF.SameCoordinates,CE61D733-3D9C-4286-B01C-F70B086857D8*
G04*
G04*
G04 #@! TF.FilePolarity,Positive*
G04*
G01*
G75*
G36*
X323904Y1113288D02*
X323936D01*
X323974Y1113285D01*
X324015Y1113282D01*
X324059Y1113276D01*
X324107Y1113269D01*
X324158Y1113263D01*
X324266Y1113241D01*
X324374Y1113212D01*
X324482Y1113174D01*
X324485D01*
X324495Y1113168D01*
X324507Y1113161D01*
X324526Y1113152D01*
X324552Y1113139D01*
X324577Y1113126D01*
X324637Y1113088D01*
X324707Y1113037D01*
X324777Y1112980D01*
X324847Y1112911D01*
X324907Y1112831D01*
X324910Y1112828D01*
X324914Y1112822D01*
X324920Y1112809D01*
X324930Y1112793D01*
X324942Y1112771D01*
X324955Y1112745D01*
X324968Y1112717D01*
X324983Y1112682D01*
X324999Y1112647D01*
X325012Y1112609D01*
X325037Y1112520D01*
X325060Y1112425D01*
X325066Y1112374D01*
X325069Y1112320D01*
X324656Y1112288D01*
Y1112291D01*
X324653Y1112301D01*
Y1112317D01*
X324647Y1112339D01*
X324644Y1112364D01*
X324634Y1112393D01*
X324625Y1112425D01*
X324615Y1112460D01*
X324587Y1112536D01*
X324545Y1112612D01*
X324520Y1112650D01*
X324495Y1112685D01*
X324463Y1112720D01*
X324428Y1112752D01*
X324425Y1112755D01*
X324418Y1112758D01*
X324409Y1112768D01*
X324393Y1112777D01*
X324374Y1112790D01*
X324348Y1112803D01*
X324320Y1112815D01*
X324285Y1112831D01*
X324247Y1112847D01*
X324206Y1112860D01*
X324161Y1112872D01*
X324110Y1112885D01*
X324053Y1112895D01*
X323996Y1112904D01*
X323929Y1112907D01*
X323863Y1112911D01*
X323825D01*
X323799Y1112907D01*
X323767D01*
X323729Y1112904D01*
X323688Y1112898D01*
X323647Y1112891D01*
X323551Y1112876D01*
X323460Y1112850D01*
X323412Y1112831D01*
X323371Y1112812D01*
X323329Y1112790D01*
X323294Y1112765D01*
X323291D01*
X323288Y1112758D01*
X323266Y1112739D01*
X323237Y1112707D01*
X323205Y1112669D01*
X323174Y1112618D01*
X323145Y1112558D01*
X323123Y1112495D01*
X323120Y1112460D01*
X323117Y1112422D01*
Y1112418D01*
Y1112415D01*
Y1112406D01*
X323120Y1112393D01*
X323123Y1112358D01*
X323133Y1112320D01*
X323148Y1112272D01*
X323167Y1112225D01*
X323199Y1112177D01*
X323240Y1112133D01*
X323244D01*
X323247Y1112126D01*
X323256Y1112120D01*
X323269Y1112114D01*
X323285Y1112104D01*
X323307Y1112091D01*
X323336Y1112076D01*
X323367Y1112060D01*
X323409Y1112044D01*
X323453Y1112025D01*
X323507Y1112006D01*
X323567Y1111987D01*
X323634Y1111964D01*
X323710Y1111942D01*
X323796Y1111920D01*
X323888Y1111898D01*
X323895D01*
X323910Y1111891D01*
X323939Y1111885D01*
X323974Y1111879D01*
X324015Y1111869D01*
X324066Y1111856D01*
X324120Y1111844D01*
X324177Y1111828D01*
X324298Y1111796D01*
X324415Y1111761D01*
X324472Y1111742D01*
X324523Y1111726D01*
X324571Y1111707D01*
X324612Y1111691D01*
X324615D01*
X324625Y1111685D01*
X324641Y1111679D01*
X324660Y1111669D01*
X324682Y1111656D01*
X324707Y1111640D01*
X324771Y1111602D01*
X324837Y1111555D01*
X324907Y1111498D01*
X324974Y1111434D01*
X325003Y1111399D01*
X325031Y1111361D01*
X325034Y1111358D01*
X325037Y1111352D01*
X325044Y1111342D01*
X325053Y1111326D01*
X325063Y1111307D01*
X325075Y1111285D01*
X325088Y1111256D01*
X325101Y1111228D01*
X325123Y1111161D01*
X325145Y1111082D01*
X325161Y1110993D01*
X325168Y1110945D01*
Y1110898D01*
Y1110894D01*
Y1110885D01*
Y1110872D01*
X325164Y1110853D01*
Y1110831D01*
X325161Y1110802D01*
X325155Y1110774D01*
X325149Y1110739D01*
X325133Y1110663D01*
X325104Y1110580D01*
X325069Y1110494D01*
X325044Y1110453D01*
X325018Y1110409D01*
X325015Y1110405D01*
X325012Y1110399D01*
X325003Y1110386D01*
X324990Y1110370D01*
X324974Y1110351D01*
X324958Y1110329D01*
X324936Y1110304D01*
X324910Y1110278D01*
X324879Y1110250D01*
X324847Y1110221D01*
X324812Y1110193D01*
X324774Y1110161D01*
X324688Y1110104D01*
X324590Y1110053D01*
X324587D01*
X324577Y1110047D01*
X324561Y1110040D01*
X324542Y1110034D01*
X324514Y1110024D01*
X324485Y1110012D01*
X324447Y1110002D01*
X324409Y1109989D01*
X324364Y1109977D01*
X324317Y1109967D01*
X324263Y1109955D01*
X324209Y1109945D01*
X324091Y1109932D01*
X323964Y1109926D01*
X323923D01*
X323891Y1109929D01*
X323853D01*
X323809Y1109932D01*
X323761Y1109936D01*
X323707Y1109942D01*
X323650Y1109948D01*
X323590Y1109958D01*
X323466Y1109980D01*
X323342Y1110012D01*
X323282Y1110031D01*
X323224Y1110053D01*
X323221Y1110056D01*
X323212Y1110059D01*
X323196Y1110066D01*
X323177Y1110078D01*
X323152Y1110091D01*
X323120Y1110107D01*
X323088Y1110126D01*
X323053Y1110151D01*
X322980Y1110205D01*
X322901Y1110272D01*
X322825Y1110351D01*
X322755Y1110440D01*
X322752Y1110444D01*
X322748Y1110453D01*
X322739Y1110466D01*
X322729Y1110485D01*
X322716Y1110510D01*
X322701Y1110539D01*
X322685Y1110574D01*
X322669Y1110612D01*
X322653Y1110653D01*
X322637Y1110698D01*
X322624Y1110745D01*
X322609Y1110799D01*
X322589Y1110910D01*
X322583Y1110967D01*
X322580Y1111028D01*
X322986Y1111063D01*
Y1111059D01*
Y1111053D01*
X322990Y1111040D01*
X322993Y1111021D01*
X322996Y1110999D01*
X323002Y1110977D01*
X323015Y1110920D01*
X323031Y1110856D01*
X323056Y1110790D01*
X323085Y1110723D01*
X323120Y1110659D01*
Y1110656D01*
X323126Y1110653D01*
X323139Y1110634D01*
X323164Y1110605D01*
X323199Y1110571D01*
X323244Y1110529D01*
X323301Y1110488D01*
X323367Y1110444D01*
X323444Y1110405D01*
X323447D01*
X323453Y1110402D01*
X323466Y1110396D01*
X323482Y1110390D01*
X323504Y1110383D01*
X323529Y1110377D01*
X323558Y1110367D01*
X323590Y1110358D01*
X323625Y1110348D01*
X323663Y1110342D01*
X323748Y1110326D01*
X323844Y1110313D01*
X323945Y1110310D01*
X323987D01*
X324009Y1110313D01*
X324034D01*
X324091Y1110320D01*
X324158Y1110329D01*
X324231Y1110342D01*
X324304Y1110358D01*
X324377Y1110383D01*
X324380D01*
X324387Y1110386D01*
X324396Y1110390D01*
X324409Y1110396D01*
X324444Y1110412D01*
X324485Y1110437D01*
X324529Y1110466D01*
X324577Y1110498D01*
X324622Y1110539D01*
X324660Y1110583D01*
X324663Y1110590D01*
X324675Y1110605D01*
X324688Y1110631D01*
X324707Y1110666D01*
X324723Y1110707D01*
X324739Y1110755D01*
X324748Y1110806D01*
X324752Y1110863D01*
Y1110866D01*
Y1110869D01*
Y1110888D01*
X324748Y1110917D01*
X324742Y1110955D01*
X324729Y1110996D01*
X324714Y1111040D01*
X324691Y1111085D01*
X324663Y1111129D01*
X324660Y1111136D01*
X324647Y1111148D01*
X324625Y1111171D01*
X324593Y1111196D01*
X324552Y1111228D01*
X324501Y1111260D01*
X324440Y1111291D01*
X324367Y1111320D01*
X324361Y1111323D01*
X324352Y1111326D01*
X324339Y1111329D01*
X324323Y1111336D01*
X324304Y1111342D01*
X324279Y1111352D01*
X324247Y1111361D01*
X324212Y1111371D01*
X324171Y1111383D01*
X324123Y1111396D01*
X324069Y1111409D01*
X324009Y1111425D01*
X323942Y1111441D01*
X323869Y1111460D01*
X323790Y1111479D01*
X323783D01*
X323771Y1111485D01*
X323748Y1111488D01*
X323717Y1111498D01*
X323682Y1111507D01*
X323637Y1111517D01*
X323593Y1111529D01*
X323542Y1111545D01*
X323440Y1111577D01*
X323336Y1111609D01*
X323285Y1111628D01*
X323240Y1111647D01*
X323199Y1111663D01*
X323161Y1111682D01*
X323158D01*
X323152Y1111688D01*
X323139Y1111694D01*
X323123Y1111704D01*
X323104Y1111717D01*
X323082Y1111729D01*
X323031Y1111768D01*
X322974Y1111812D01*
X322916Y1111863D01*
X322863Y1111923D01*
X322815Y1111987D01*
Y1111990D01*
X322809Y1111996D01*
X322805Y1112006D01*
X322796Y1112018D01*
X322789Y1112034D01*
X322780Y1112056D01*
X322758Y1112104D01*
X322736Y1112164D01*
X322720Y1112234D01*
X322707Y1112310D01*
X322701Y1112393D01*
Y1112396D01*
Y1112402D01*
Y1112418D01*
X322704Y1112434D01*
Y1112457D01*
X322707Y1112482D01*
X322713Y1112511D01*
X322720Y1112542D01*
X322736Y1112612D01*
X322761Y1112691D01*
X322796Y1112771D01*
X322815Y1112812D01*
X322840Y1112853D01*
X322844Y1112857D01*
X322847Y1112863D01*
X322856Y1112876D01*
X322866Y1112888D01*
X322882Y1112907D01*
X322897Y1112926D01*
X322945Y1112974D01*
X323002Y1113028D01*
X323072Y1113082D01*
X323152Y1113136D01*
X323247Y1113180D01*
X323250D01*
X323260Y1113187D01*
X323275Y1113190D01*
X323294Y1113199D01*
X323320Y1113206D01*
X323348Y1113215D01*
X323383Y1113225D01*
X323421Y1113238D01*
X323466Y1113247D01*
X323510Y1113257D01*
X323561Y1113266D01*
X323612Y1113276D01*
X323723Y1113288D01*
X323844Y1113291D01*
X323879D01*
X323904Y1113288D01*
D02*
G37*
G36*
X330054Y1111123D02*
X330492D01*
Y1110758D01*
X330054D01*
Y1109980D01*
X329654D01*
Y1110758D01*
X328241D01*
Y1111123D01*
X329727Y1113234D01*
X330054D01*
Y1111123D01*
D02*
G37*
G36*
X328092Y1112850D02*
X327015D01*
Y1109980D01*
X326584D01*
Y1112850D01*
X325510D01*
Y1113234D01*
X328092D01*
Y1112850D01*
D02*
G37*
G36*
X1134164Y1123448D02*
X1134196D01*
X1134234Y1123445D01*
X1134275Y1123442D01*
X1134320Y1123436D01*
X1134367Y1123429D01*
X1134418Y1123423D01*
X1134526Y1123401D01*
X1134634Y1123372D01*
X1134742Y1123334D01*
X1134745D01*
X1134754Y1123328D01*
X1134767Y1123321D01*
X1134786Y1123312D01*
X1134812Y1123299D01*
X1134837Y1123286D01*
X1134897Y1123248D01*
X1134967Y1123197D01*
X1135037Y1123140D01*
X1135107Y1123071D01*
X1135167Y1122991D01*
X1135170Y1122988D01*
X1135174Y1122982D01*
X1135180Y1122969D01*
X1135190Y1122953D01*
X1135202Y1122931D01*
X1135215Y1122905D01*
X1135228Y1122877D01*
X1135244Y1122842D01*
X1135259Y1122807D01*
X1135272Y1122769D01*
X1135297Y1122680D01*
X1135320Y1122585D01*
X1135326Y1122534D01*
X1135329Y1122480D01*
X1134916Y1122448D01*
Y1122451D01*
X1134913Y1122461D01*
Y1122477D01*
X1134907Y1122499D01*
X1134904Y1122524D01*
X1134894Y1122553D01*
X1134885Y1122585D01*
X1134875Y1122620D01*
X1134847Y1122696D01*
X1134805Y1122772D01*
X1134780Y1122810D01*
X1134754Y1122845D01*
X1134723Y1122880D01*
X1134688Y1122912D01*
X1134685Y1122915D01*
X1134678Y1122918D01*
X1134669Y1122928D01*
X1134653Y1122937D01*
X1134634Y1122950D01*
X1134609Y1122963D01*
X1134580Y1122975D01*
X1134545Y1122991D01*
X1134507Y1123007D01*
X1134466Y1123020D01*
X1134421Y1123032D01*
X1134370Y1123045D01*
X1134313Y1123055D01*
X1134256Y1123064D01*
X1134189Y1123067D01*
X1134123Y1123071D01*
X1134085D01*
X1134059Y1123067D01*
X1134027D01*
X1133989Y1123064D01*
X1133948Y1123058D01*
X1133907Y1123052D01*
X1133812Y1123036D01*
X1133719Y1123010D01*
X1133672Y1122991D01*
X1133631Y1122972D01*
X1133589Y1122950D01*
X1133554Y1122924D01*
X1133551D01*
X1133548Y1122918D01*
X1133526Y1122899D01*
X1133497Y1122867D01*
X1133465Y1122829D01*
X1133434Y1122778D01*
X1133405Y1122718D01*
X1133383Y1122655D01*
X1133380Y1122620D01*
X1133377Y1122582D01*
Y1122578D01*
Y1122575D01*
Y1122566D01*
X1133380Y1122553D01*
X1133383Y1122518D01*
X1133392Y1122480D01*
X1133408Y1122432D01*
X1133427Y1122385D01*
X1133459Y1122337D01*
X1133500Y1122293D01*
X1133504D01*
X1133507Y1122286D01*
X1133516Y1122280D01*
X1133529Y1122274D01*
X1133545Y1122264D01*
X1133567Y1122251D01*
X1133596Y1122235D01*
X1133627Y1122220D01*
X1133669Y1122204D01*
X1133713Y1122185D01*
X1133767Y1122166D01*
X1133827Y1122147D01*
X1133894Y1122124D01*
X1133970Y1122102D01*
X1134056Y1122080D01*
X1134148Y1122058D01*
X1134154D01*
X1134170Y1122051D01*
X1134199Y1122045D01*
X1134234Y1122039D01*
X1134275Y1122029D01*
X1134326Y1122016D01*
X1134380Y1122004D01*
X1134437Y1121988D01*
X1134558Y1121956D01*
X1134675Y1121921D01*
X1134732Y1121902D01*
X1134783Y1121886D01*
X1134831Y1121867D01*
X1134872Y1121851D01*
X1134875D01*
X1134885Y1121845D01*
X1134901Y1121839D01*
X1134920Y1121829D01*
X1134942Y1121816D01*
X1134967Y1121801D01*
X1135031Y1121762D01*
X1135097Y1121715D01*
X1135167Y1121658D01*
X1135234Y1121594D01*
X1135263Y1121559D01*
X1135291Y1121521D01*
X1135294Y1121518D01*
X1135297Y1121512D01*
X1135304Y1121502D01*
X1135313Y1121486D01*
X1135323Y1121467D01*
X1135336Y1121445D01*
X1135348Y1121416D01*
X1135361Y1121388D01*
X1135383Y1121321D01*
X1135405Y1121242D01*
X1135421Y1121153D01*
X1135428Y1121105D01*
Y1121058D01*
Y1121054D01*
Y1121045D01*
Y1121032D01*
X1135424Y1121013D01*
Y1120991D01*
X1135421Y1120962D01*
X1135415Y1120934D01*
X1135409Y1120899D01*
X1135393Y1120823D01*
X1135364Y1120740D01*
X1135329Y1120654D01*
X1135304Y1120613D01*
X1135278Y1120569D01*
X1135275Y1120565D01*
X1135272Y1120559D01*
X1135263Y1120546D01*
X1135250Y1120530D01*
X1135234Y1120511D01*
X1135218Y1120489D01*
X1135196Y1120464D01*
X1135170Y1120438D01*
X1135139Y1120410D01*
X1135107Y1120381D01*
X1135072Y1120353D01*
X1135034Y1120321D01*
X1134948Y1120264D01*
X1134850Y1120213D01*
X1134847D01*
X1134837Y1120207D01*
X1134821Y1120200D01*
X1134802Y1120194D01*
X1134774Y1120184D01*
X1134745Y1120172D01*
X1134707Y1120162D01*
X1134669Y1120150D01*
X1134624Y1120137D01*
X1134577Y1120127D01*
X1134523Y1120115D01*
X1134469Y1120105D01*
X1134351Y1120092D01*
X1134224Y1120086D01*
X1134183D01*
X1134151Y1120089D01*
X1134113D01*
X1134069Y1120092D01*
X1134021Y1120096D01*
X1133967Y1120102D01*
X1133910Y1120108D01*
X1133850Y1120118D01*
X1133726Y1120140D01*
X1133602Y1120172D01*
X1133542Y1120191D01*
X1133484Y1120213D01*
X1133481Y1120216D01*
X1133472Y1120219D01*
X1133456Y1120226D01*
X1133437Y1120238D01*
X1133411Y1120251D01*
X1133380Y1120267D01*
X1133348Y1120286D01*
X1133313Y1120311D01*
X1133240Y1120365D01*
X1133161Y1120432D01*
X1133084Y1120511D01*
X1133015Y1120600D01*
X1133011Y1120604D01*
X1133008Y1120613D01*
X1132999Y1120626D01*
X1132989Y1120645D01*
X1132977Y1120670D01*
X1132961Y1120699D01*
X1132945Y1120734D01*
X1132929Y1120772D01*
X1132913Y1120813D01*
X1132897Y1120858D01*
X1132884Y1120905D01*
X1132869Y1120959D01*
X1132850Y1121070D01*
X1132843Y1121127D01*
X1132840Y1121188D01*
X1133246Y1121223D01*
Y1121219D01*
Y1121213D01*
X1133250Y1121200D01*
X1133253Y1121181D01*
X1133256Y1121159D01*
X1133262Y1121137D01*
X1133275Y1121080D01*
X1133291Y1121016D01*
X1133316Y1120950D01*
X1133345Y1120883D01*
X1133380Y1120819D01*
Y1120816D01*
X1133386Y1120813D01*
X1133399Y1120794D01*
X1133424Y1120766D01*
X1133459Y1120731D01*
X1133504Y1120689D01*
X1133561Y1120648D01*
X1133627Y1120604D01*
X1133704Y1120565D01*
X1133707D01*
X1133713Y1120562D01*
X1133726Y1120556D01*
X1133742Y1120550D01*
X1133764Y1120543D01*
X1133789Y1120537D01*
X1133818Y1120527D01*
X1133850Y1120518D01*
X1133885Y1120508D01*
X1133923Y1120502D01*
X1134008Y1120486D01*
X1134104Y1120473D01*
X1134205Y1120470D01*
X1134247D01*
X1134269Y1120473D01*
X1134294D01*
X1134351Y1120480D01*
X1134418Y1120489D01*
X1134491Y1120502D01*
X1134564Y1120518D01*
X1134637Y1120543D01*
X1134640D01*
X1134647Y1120546D01*
X1134656Y1120550D01*
X1134669Y1120556D01*
X1134704Y1120572D01*
X1134745Y1120597D01*
X1134789Y1120626D01*
X1134837Y1120658D01*
X1134882Y1120699D01*
X1134920Y1120743D01*
X1134923Y1120750D01*
X1134936Y1120766D01*
X1134948Y1120791D01*
X1134967Y1120826D01*
X1134983Y1120867D01*
X1134999Y1120915D01*
X1135008Y1120965D01*
X1135012Y1121023D01*
Y1121026D01*
Y1121029D01*
Y1121048D01*
X1135008Y1121077D01*
X1135002Y1121115D01*
X1134989Y1121156D01*
X1134974Y1121200D01*
X1134951Y1121245D01*
X1134923Y1121289D01*
X1134920Y1121296D01*
X1134907Y1121308D01*
X1134885Y1121331D01*
X1134853Y1121356D01*
X1134812Y1121388D01*
X1134761Y1121420D01*
X1134701Y1121451D01*
X1134628Y1121480D01*
X1134621Y1121483D01*
X1134612Y1121486D01*
X1134599Y1121489D01*
X1134583Y1121496D01*
X1134564Y1121502D01*
X1134539Y1121512D01*
X1134507Y1121521D01*
X1134472Y1121531D01*
X1134431Y1121543D01*
X1134383Y1121556D01*
X1134329Y1121569D01*
X1134269Y1121585D01*
X1134202Y1121600D01*
X1134129Y1121620D01*
X1134050Y1121639D01*
X1134043D01*
X1134031Y1121645D01*
X1134008Y1121648D01*
X1133977Y1121658D01*
X1133942Y1121667D01*
X1133897Y1121677D01*
X1133853Y1121689D01*
X1133802Y1121705D01*
X1133700Y1121737D01*
X1133596Y1121769D01*
X1133545Y1121788D01*
X1133500Y1121807D01*
X1133459Y1121823D01*
X1133421Y1121842D01*
X1133418D01*
X1133411Y1121848D01*
X1133399Y1121854D01*
X1133383Y1121864D01*
X1133364Y1121877D01*
X1133342Y1121889D01*
X1133291Y1121927D01*
X1133234Y1121972D01*
X1133177Y1122023D01*
X1133123Y1122083D01*
X1133075Y1122147D01*
Y1122150D01*
X1133069Y1122156D01*
X1133065Y1122166D01*
X1133056Y1122178D01*
X1133050Y1122194D01*
X1133040Y1122216D01*
X1133018Y1122264D01*
X1132996Y1122324D01*
X1132980Y1122394D01*
X1132967Y1122470D01*
X1132961Y1122553D01*
Y1122556D01*
Y1122562D01*
Y1122578D01*
X1132964Y1122594D01*
Y1122617D01*
X1132967Y1122642D01*
X1132973Y1122671D01*
X1132980Y1122702D01*
X1132996Y1122772D01*
X1133021Y1122851D01*
X1133056Y1122931D01*
X1133075Y1122972D01*
X1133100Y1123013D01*
X1133103Y1123017D01*
X1133107Y1123023D01*
X1133116Y1123036D01*
X1133126Y1123048D01*
X1133142Y1123067D01*
X1133158Y1123086D01*
X1133205Y1123134D01*
X1133262Y1123188D01*
X1133332Y1123242D01*
X1133411Y1123296D01*
X1133507Y1123340D01*
X1133510D01*
X1133520Y1123347D01*
X1133535Y1123350D01*
X1133554Y1123359D01*
X1133580Y1123366D01*
X1133608Y1123375D01*
X1133643Y1123385D01*
X1133681Y1123398D01*
X1133726Y1123407D01*
X1133770Y1123417D01*
X1133821Y1123426D01*
X1133872Y1123436D01*
X1133983Y1123448D01*
X1134104Y1123452D01*
X1134139D01*
X1134164Y1123448D01*
D02*
G37*
G36*
X1139698Y1123404D02*
X1139723D01*
X1139749Y1123401D01*
X1139781Y1123398D01*
X1139816Y1123394D01*
X1139892Y1123379D01*
X1139971Y1123359D01*
X1140057Y1123331D01*
X1140143Y1123293D01*
X1140146D01*
X1140152Y1123286D01*
X1140165Y1123280D01*
X1140181Y1123271D01*
X1140200Y1123261D01*
X1140219Y1123245D01*
X1140269Y1123210D01*
X1140327Y1123166D01*
X1140384Y1123112D01*
X1140438Y1123048D01*
X1140485Y1122978D01*
Y1122975D01*
X1140492Y1122969D01*
X1140498Y1122959D01*
X1140504Y1122943D01*
X1140514Y1122928D01*
X1140524Y1122905D01*
X1140546Y1122851D01*
X1140568Y1122791D01*
X1140587Y1122718D01*
X1140600Y1122642D01*
X1140606Y1122559D01*
Y1122556D01*
Y1122550D01*
Y1122540D01*
X1140603Y1122524D01*
Y1122505D01*
X1140600Y1122483D01*
X1140593Y1122432D01*
X1140577Y1122372D01*
X1140558Y1122309D01*
X1140530Y1122242D01*
X1140492Y1122175D01*
Y1122172D01*
X1140485Y1122169D01*
X1140479Y1122159D01*
X1140470Y1122147D01*
X1140444Y1122115D01*
X1140406Y1122077D01*
X1140358Y1122032D01*
X1140301Y1121988D01*
X1140235Y1121943D01*
X1140155Y1121902D01*
X1140158D01*
X1140168Y1121899D01*
X1140184Y1121896D01*
X1140203Y1121889D01*
X1140228Y1121880D01*
X1140254Y1121870D01*
X1140320Y1121842D01*
X1140390Y1121807D01*
X1140466Y1121756D01*
X1140539Y1121699D01*
X1140571Y1121664D01*
X1140603Y1121626D01*
X1140606Y1121623D01*
X1140609Y1121616D01*
X1140619Y1121604D01*
X1140628Y1121588D01*
X1140641Y1121569D01*
X1140654Y1121543D01*
X1140670Y1121515D01*
X1140685Y1121483D01*
X1140698Y1121445D01*
X1140714Y1121407D01*
X1140727Y1121362D01*
X1140739Y1121318D01*
X1140759Y1121216D01*
X1140762Y1121159D01*
X1140765Y1121102D01*
Y1121099D01*
Y1121083D01*
X1140762Y1121061D01*
Y1121032D01*
X1140755Y1120994D01*
X1140749Y1120953D01*
X1140739Y1120905D01*
X1140727Y1120851D01*
X1140711Y1120797D01*
X1140689Y1120740D01*
X1140663Y1120680D01*
X1140635Y1120619D01*
X1140596Y1120559D01*
X1140555Y1120496D01*
X1140508Y1120438D01*
X1140454Y1120381D01*
X1140451Y1120378D01*
X1140441Y1120369D01*
X1140422Y1120353D01*
X1140396Y1120337D01*
X1140368Y1120311D01*
X1140330Y1120289D01*
X1140289Y1120261D01*
X1140238Y1120235D01*
X1140184Y1120207D01*
X1140123Y1120178D01*
X1140060Y1120156D01*
X1139990Y1120134D01*
X1139917Y1120115D01*
X1139838Y1120099D01*
X1139755Y1120089D01*
X1139666Y1120086D01*
X1139647D01*
X1139625Y1120089D01*
X1139596D01*
X1139558Y1120092D01*
X1139517Y1120099D01*
X1139469Y1120108D01*
X1139415Y1120118D01*
X1139361Y1120130D01*
X1139304Y1120150D01*
X1139244Y1120169D01*
X1139187Y1120194D01*
X1139127Y1120223D01*
X1139066Y1120257D01*
X1139009Y1120296D01*
X1138955Y1120340D01*
X1138952Y1120343D01*
X1138942Y1120353D01*
X1138930Y1120365D01*
X1138911Y1120388D01*
X1138888Y1120413D01*
X1138863Y1120442D01*
X1138838Y1120477D01*
X1138809Y1120518D01*
X1138780Y1120562D01*
X1138752Y1120613D01*
X1138726Y1120667D01*
X1138701Y1120727D01*
X1138679Y1120791D01*
X1138660Y1120858D01*
X1138644Y1120927D01*
X1138634Y1121004D01*
X1139034Y1121058D01*
Y1121054D01*
X1139038Y1121042D01*
X1139041Y1121026D01*
X1139047Y1121000D01*
X1139053Y1120975D01*
X1139063Y1120940D01*
X1139076Y1120905D01*
X1139088Y1120867D01*
X1139120Y1120788D01*
X1139161Y1120705D01*
X1139209Y1120629D01*
X1139238Y1120597D01*
X1139266Y1120565D01*
X1139269D01*
X1139273Y1120559D01*
X1139282Y1120553D01*
X1139295Y1120543D01*
X1139311Y1120530D01*
X1139330Y1120518D01*
X1139377Y1120492D01*
X1139438Y1120464D01*
X1139508Y1120438D01*
X1139584Y1120423D01*
X1139625Y1120419D01*
X1139669Y1120416D01*
X1139698D01*
X1139717Y1120419D01*
X1139742Y1120423D01*
X1139768Y1120426D01*
X1139800Y1120432D01*
X1139835Y1120442D01*
X1139911Y1120464D01*
X1139949Y1120480D01*
X1139990Y1120499D01*
X1140031Y1120521D01*
X1140070Y1120546D01*
X1140108Y1120575D01*
X1140146Y1120610D01*
X1140149Y1120613D01*
X1140155Y1120619D01*
X1140165Y1120629D01*
X1140177Y1120645D01*
X1140190Y1120664D01*
X1140206Y1120686D01*
X1140225Y1120712D01*
X1140244Y1120743D01*
X1140260Y1120775D01*
X1140279Y1120813D01*
X1140311Y1120896D01*
X1140320Y1120940D01*
X1140330Y1120988D01*
X1140336Y1121039D01*
X1140339Y1121093D01*
Y1121096D01*
Y1121105D01*
Y1121118D01*
X1140336Y1121140D01*
X1140333Y1121162D01*
X1140330Y1121191D01*
X1140323Y1121219D01*
X1140317Y1121254D01*
X1140295Y1121324D01*
X1140282Y1121362D01*
X1140263Y1121401D01*
X1140241Y1121439D01*
X1140219Y1121477D01*
X1140190Y1121512D01*
X1140158Y1121546D01*
X1140155Y1121550D01*
X1140149Y1121553D01*
X1140139Y1121562D01*
X1140127Y1121575D01*
X1140108Y1121588D01*
X1140085Y1121604D01*
X1140063Y1121620D01*
X1140035Y1121635D01*
X1140003Y1121651D01*
X1139968Y1121667D01*
X1139889Y1121696D01*
X1139800Y1121718D01*
X1139752Y1121721D01*
X1139701Y1121724D01*
X1139682D01*
X1139657Y1121721D01*
X1139625Y1121718D01*
X1139584Y1121715D01*
X1139536Y1121708D01*
X1139482Y1121696D01*
X1139422Y1121683D01*
X1139466Y1122032D01*
X1139473D01*
X1139488Y1122029D01*
X1139511Y1122026D01*
X1139555D01*
X1139574Y1122029D01*
X1139596D01*
X1139622Y1122032D01*
X1139650Y1122039D01*
X1139682Y1122042D01*
X1139755Y1122058D01*
X1139831Y1122083D01*
X1139911Y1122115D01*
X1139990Y1122159D01*
X1139993Y1122162D01*
X1140000Y1122166D01*
X1140009Y1122172D01*
X1140022Y1122185D01*
X1140038Y1122197D01*
X1140057Y1122216D01*
X1140073Y1122235D01*
X1140095Y1122261D01*
X1140114Y1122286D01*
X1140130Y1122318D01*
X1140149Y1122353D01*
X1140165Y1122388D01*
X1140177Y1122429D01*
X1140187Y1122474D01*
X1140193Y1122518D01*
X1140197Y1122569D01*
Y1122572D01*
Y1122578D01*
Y1122591D01*
X1140193Y1122607D01*
Y1122626D01*
X1140190Y1122648D01*
X1140177Y1122699D01*
X1140162Y1122756D01*
X1140133Y1122816D01*
X1140098Y1122877D01*
X1140073Y1122905D01*
X1140047Y1122934D01*
X1140044Y1122937D01*
X1140041Y1122940D01*
X1140031Y1122947D01*
X1140022Y1122956D01*
X1139987Y1122982D01*
X1139942Y1123007D01*
X1139889Y1123032D01*
X1139822Y1123058D01*
X1139746Y1123074D01*
X1139707Y1123080D01*
X1139641D01*
X1139625Y1123077D01*
X1139603D01*
X1139581Y1123074D01*
X1139527Y1123061D01*
X1139463Y1123045D01*
X1139399Y1123017D01*
X1139333Y1122982D01*
X1139301Y1122956D01*
X1139273Y1122931D01*
X1139269Y1122928D01*
X1139266Y1122924D01*
X1139257Y1122915D01*
X1139247Y1122902D01*
X1139234Y1122890D01*
X1139222Y1122870D01*
X1139206Y1122848D01*
X1139190Y1122823D01*
X1139174Y1122791D01*
X1139155Y1122759D01*
X1139139Y1122724D01*
X1139123Y1122683D01*
X1139111Y1122642D01*
X1139095Y1122594D01*
X1139085Y1122547D01*
X1139076Y1122493D01*
X1138676Y1122562D01*
Y1122566D01*
X1138679Y1122582D01*
X1138685Y1122601D01*
X1138691Y1122629D01*
X1138701Y1122661D01*
X1138714Y1122702D01*
X1138726Y1122744D01*
X1138745Y1122791D01*
X1138765Y1122839D01*
X1138790Y1122890D01*
X1138815Y1122943D01*
X1138847Y1122994D01*
X1138879Y1123045D01*
X1138917Y1123096D01*
X1138961Y1123140D01*
X1139006Y1123185D01*
X1139009Y1123188D01*
X1139018Y1123194D01*
X1139031Y1123204D01*
X1139053Y1123220D01*
X1139079Y1123236D01*
X1139107Y1123255D01*
X1139146Y1123277D01*
X1139184Y1123296D01*
X1139228Y1123318D01*
X1139279Y1123337D01*
X1139333Y1123356D01*
X1139390Y1123372D01*
X1139450Y1123388D01*
X1139514Y1123398D01*
X1139584Y1123404D01*
X1139654Y1123407D01*
X1139679D01*
X1139698Y1123404D01*
D02*
G37*
G36*
X1138352Y1123010D02*
X1137275D01*
Y1120140D01*
X1136844D01*
Y1123010D01*
X1135770D01*
Y1123394D01*
X1138352D01*
Y1123010D01*
D02*
G37*
G36*
X1112574Y365258D02*
X1112606D01*
X1112644Y365255D01*
X1112685Y365252D01*
X1112730Y365246D01*
X1112777Y365239D01*
X1112828Y365233D01*
X1112936Y365211D01*
X1113044Y365182D01*
X1113152Y365144D01*
X1113155D01*
X1113165Y365138D01*
X1113177Y365131D01*
X1113196Y365122D01*
X1113222Y365109D01*
X1113247Y365096D01*
X1113307Y365058D01*
X1113377Y365008D01*
X1113447Y364950D01*
X1113517Y364880D01*
X1113577Y364801D01*
X1113580Y364798D01*
X1113584Y364792D01*
X1113590Y364779D01*
X1113599Y364763D01*
X1113612Y364741D01*
X1113625Y364715D01*
X1113638Y364687D01*
X1113653Y364652D01*
X1113669Y364617D01*
X1113682Y364579D01*
X1113707Y364490D01*
X1113730Y364395D01*
X1113736Y364344D01*
X1113739Y364290D01*
X1113326Y364258D01*
Y364261D01*
X1113323Y364271D01*
Y364287D01*
X1113317Y364309D01*
X1113314Y364334D01*
X1113304Y364363D01*
X1113295Y364395D01*
X1113285Y364430D01*
X1113257Y364506D01*
X1113215Y364582D01*
X1113190Y364620D01*
X1113165Y364655D01*
X1113133Y364690D01*
X1113098Y364722D01*
X1113095Y364725D01*
X1113088Y364728D01*
X1113079Y364738D01*
X1113063Y364747D01*
X1113044Y364760D01*
X1113018Y364773D01*
X1112990Y364785D01*
X1112955Y364801D01*
X1112917Y364817D01*
X1112876Y364830D01*
X1112831Y364842D01*
X1112780Y364855D01*
X1112723Y364865D01*
X1112666Y364874D01*
X1112599Y364877D01*
X1112533Y364880D01*
X1112495D01*
X1112469Y364877D01*
X1112437D01*
X1112399Y364874D01*
X1112358Y364868D01*
X1112317Y364861D01*
X1112222Y364846D01*
X1112130Y364820D01*
X1112082Y364801D01*
X1112041Y364782D01*
X1111999Y364760D01*
X1111964Y364734D01*
X1111961D01*
X1111958Y364728D01*
X1111936Y364709D01*
X1111907Y364677D01*
X1111876Y364639D01*
X1111844Y364588D01*
X1111815Y364528D01*
X1111793Y364465D01*
X1111790Y364430D01*
X1111787Y364392D01*
Y364388D01*
Y364385D01*
Y364376D01*
X1111790Y364363D01*
X1111793Y364328D01*
X1111802Y364290D01*
X1111818Y364242D01*
X1111837Y364195D01*
X1111869Y364147D01*
X1111910Y364103D01*
X1111914D01*
X1111917Y364096D01*
X1111926Y364090D01*
X1111939Y364084D01*
X1111955Y364074D01*
X1111977Y364061D01*
X1112006Y364045D01*
X1112037Y364030D01*
X1112079Y364014D01*
X1112123Y363995D01*
X1112177Y363976D01*
X1112237Y363957D01*
X1112304Y363934D01*
X1112380Y363912D01*
X1112466Y363890D01*
X1112558Y363868D01*
X1112564D01*
X1112580Y363861D01*
X1112609Y363855D01*
X1112644Y363849D01*
X1112685Y363839D01*
X1112736Y363826D01*
X1112790Y363814D01*
X1112847Y363798D01*
X1112968Y363766D01*
X1113085Y363731D01*
X1113142Y363712D01*
X1113193Y363696D01*
X1113241Y363677D01*
X1113282Y363661D01*
X1113285D01*
X1113295Y363655D01*
X1113311Y363649D01*
X1113330Y363639D01*
X1113352Y363626D01*
X1113377Y363610D01*
X1113441Y363572D01*
X1113507Y363525D01*
X1113577Y363468D01*
X1113644Y363404D01*
X1113672Y363369D01*
X1113701Y363331D01*
X1113704Y363328D01*
X1113707Y363322D01*
X1113714Y363312D01*
X1113723Y363296D01*
X1113733Y363277D01*
X1113746Y363255D01*
X1113758Y363226D01*
X1113771Y363198D01*
X1113793Y363131D01*
X1113815Y363052D01*
X1113831Y362963D01*
X1113838Y362915D01*
Y362868D01*
Y362864D01*
Y362855D01*
Y362842D01*
X1113834Y362823D01*
Y362801D01*
X1113831Y362772D01*
X1113825Y362744D01*
X1113819Y362709D01*
X1113803Y362633D01*
X1113774Y362550D01*
X1113739Y362464D01*
X1113714Y362423D01*
X1113688Y362379D01*
X1113685Y362375D01*
X1113682Y362369D01*
X1113672Y362356D01*
X1113660Y362341D01*
X1113644Y362322D01*
X1113628Y362299D01*
X1113606Y362274D01*
X1113580Y362248D01*
X1113549Y362220D01*
X1113517Y362191D01*
X1113482Y362163D01*
X1113444Y362131D01*
X1113358Y362074D01*
X1113260Y362023D01*
X1113257D01*
X1113247Y362017D01*
X1113231Y362010D01*
X1113212Y362004D01*
X1113184Y361995D01*
X1113155Y361982D01*
X1113117Y361972D01*
X1113079Y361959D01*
X1113034Y361947D01*
X1112987Y361937D01*
X1112933Y361925D01*
X1112879Y361915D01*
X1112761Y361902D01*
X1112634Y361896D01*
X1112593D01*
X1112561Y361899D01*
X1112523D01*
X1112479Y361902D01*
X1112431Y361906D01*
X1112377Y361912D01*
X1112320Y361918D01*
X1112260Y361928D01*
X1112136Y361950D01*
X1112012Y361982D01*
X1111952Y362001D01*
X1111895Y362023D01*
X1111891Y362026D01*
X1111882Y362029D01*
X1111866Y362036D01*
X1111847Y362048D01*
X1111822Y362061D01*
X1111790Y362077D01*
X1111758Y362096D01*
X1111723Y362121D01*
X1111650Y362175D01*
X1111571Y362242D01*
X1111495Y362322D01*
X1111425Y362410D01*
X1111421Y362413D01*
X1111418Y362423D01*
X1111409Y362436D01*
X1111399Y362455D01*
X1111386Y362480D01*
X1111371Y362509D01*
X1111355Y362544D01*
X1111339Y362582D01*
X1111323Y362623D01*
X1111307Y362668D01*
X1111294Y362715D01*
X1111279Y362769D01*
X1111260Y362880D01*
X1111253Y362937D01*
X1111250Y362998D01*
X1111656Y363033D01*
Y363030D01*
Y363023D01*
X1111660Y363010D01*
X1111663Y362991D01*
X1111666Y362969D01*
X1111672Y362947D01*
X1111685Y362890D01*
X1111701Y362826D01*
X1111726Y362760D01*
X1111755Y362693D01*
X1111790Y362630D01*
Y362626D01*
X1111796Y362623D01*
X1111809Y362604D01*
X1111834Y362575D01*
X1111869Y362541D01*
X1111914Y362499D01*
X1111971Y362458D01*
X1112037Y362413D01*
X1112114Y362375D01*
X1112117D01*
X1112123Y362372D01*
X1112136Y362366D01*
X1112152Y362360D01*
X1112174Y362353D01*
X1112199Y362347D01*
X1112228Y362337D01*
X1112260Y362328D01*
X1112295Y362318D01*
X1112333Y362312D01*
X1112418Y362296D01*
X1112514Y362283D01*
X1112615Y362280D01*
X1112656D01*
X1112679Y362283D01*
X1112704D01*
X1112761Y362290D01*
X1112828Y362299D01*
X1112901Y362312D01*
X1112974Y362328D01*
X1113047Y362353D01*
X1113050D01*
X1113057Y362356D01*
X1113066Y362360D01*
X1113079Y362366D01*
X1113114Y362382D01*
X1113155Y362407D01*
X1113199Y362436D01*
X1113247Y362467D01*
X1113291Y362509D01*
X1113330Y362553D01*
X1113333Y362560D01*
X1113345Y362575D01*
X1113358Y362601D01*
X1113377Y362636D01*
X1113393Y362677D01*
X1113409Y362725D01*
X1113419Y362775D01*
X1113422Y362833D01*
Y362836D01*
Y362839D01*
Y362858D01*
X1113419Y362887D01*
X1113412Y362925D01*
X1113400Y362966D01*
X1113384Y363010D01*
X1113361Y363055D01*
X1113333Y363099D01*
X1113330Y363106D01*
X1113317Y363118D01*
X1113295Y363141D01*
X1113263Y363166D01*
X1113222Y363198D01*
X1113171Y363229D01*
X1113111Y363261D01*
X1113037Y363290D01*
X1113031Y363293D01*
X1113022Y363296D01*
X1113009Y363299D01*
X1112993Y363306D01*
X1112974Y363312D01*
X1112949Y363322D01*
X1112917Y363331D01*
X1112882Y363341D01*
X1112841Y363353D01*
X1112793Y363366D01*
X1112739Y363379D01*
X1112679Y363395D01*
X1112612Y363410D01*
X1112539Y363429D01*
X1112460Y363449D01*
X1112453D01*
X1112441Y363455D01*
X1112418Y363458D01*
X1112387Y363468D01*
X1112352Y363477D01*
X1112307Y363487D01*
X1112263Y363499D01*
X1112212Y363515D01*
X1112110Y363547D01*
X1112006Y363579D01*
X1111955Y363598D01*
X1111910Y363617D01*
X1111869Y363633D01*
X1111831Y363652D01*
X1111828D01*
X1111822Y363658D01*
X1111809Y363665D01*
X1111793Y363674D01*
X1111774Y363687D01*
X1111752Y363699D01*
X1111701Y363737D01*
X1111644Y363782D01*
X1111587Y363833D01*
X1111533Y363893D01*
X1111485Y363957D01*
Y363960D01*
X1111479Y363966D01*
X1111475Y363976D01*
X1111466Y363988D01*
X1111460Y364004D01*
X1111450Y364026D01*
X1111428Y364074D01*
X1111406Y364134D01*
X1111390Y364204D01*
X1111377Y364281D01*
X1111371Y364363D01*
Y364366D01*
Y364372D01*
Y364388D01*
X1111374Y364404D01*
Y364426D01*
X1111377Y364452D01*
X1111383Y364481D01*
X1111390Y364512D01*
X1111406Y364582D01*
X1111431Y364661D01*
X1111466Y364741D01*
X1111485Y364782D01*
X1111510Y364823D01*
X1111514Y364827D01*
X1111517Y364833D01*
X1111526Y364846D01*
X1111536Y364858D01*
X1111552Y364877D01*
X1111568Y364896D01*
X1111615Y364944D01*
X1111672Y364998D01*
X1111742Y365052D01*
X1111822Y365106D01*
X1111917Y365150D01*
X1111920D01*
X1111929Y365157D01*
X1111945Y365160D01*
X1111964Y365169D01*
X1111990Y365176D01*
X1112018Y365185D01*
X1112053Y365195D01*
X1112091Y365208D01*
X1112136Y365217D01*
X1112180Y365227D01*
X1112231Y365236D01*
X1112282Y365246D01*
X1112393Y365258D01*
X1112514Y365261D01*
X1112549D01*
X1112574Y365258D01*
D02*
G37*
G36*
X1118165Y365214D02*
X1118200D01*
X1118238Y365211D01*
X1118283Y365204D01*
X1118333Y365195D01*
X1118391Y365185D01*
X1118448Y365169D01*
X1118508Y365154D01*
X1118572Y365131D01*
X1118632Y365106D01*
X1118695Y365077D01*
X1118753Y365042D01*
X1118810Y365001D01*
X1118864Y364957D01*
X1118867Y364953D01*
X1118876Y364944D01*
X1118889Y364931D01*
X1118905Y364909D01*
X1118927Y364884D01*
X1118949Y364855D01*
X1118975Y364820D01*
X1119000Y364779D01*
X1119026Y364734D01*
X1119051Y364684D01*
X1119073Y364633D01*
X1119095Y364576D01*
X1119111Y364515D01*
X1119124Y364449D01*
X1119134Y364382D01*
X1119137Y364312D01*
Y364309D01*
Y364303D01*
Y364293D01*
Y364281D01*
X1119134Y364261D01*
Y364242D01*
X1119127Y364192D01*
X1119118Y364134D01*
X1119102Y364068D01*
X1119083Y363998D01*
X1119054Y363928D01*
Y363925D01*
X1119051Y363918D01*
X1119045Y363909D01*
X1119038Y363896D01*
X1119029Y363877D01*
X1119019Y363858D01*
X1118991Y363807D01*
X1118956Y363750D01*
X1118908Y363680D01*
X1118854Y363607D01*
X1118787Y363531D01*
X1118784Y363528D01*
X1118778Y363522D01*
X1118768Y363509D01*
X1118753Y363493D01*
X1118730Y363471D01*
X1118708Y363445D01*
X1118676Y363417D01*
X1118641Y363382D01*
X1118603Y363344D01*
X1118556Y363299D01*
X1118508Y363252D01*
X1118451Y363201D01*
X1118391Y363147D01*
X1118324Y363087D01*
X1118251Y363026D01*
X1118175Y362960D01*
X1118171Y362957D01*
X1118159Y362947D01*
X1118140Y362931D01*
X1118118Y362912D01*
X1118089Y362887D01*
X1118057Y362858D01*
X1117981Y362794D01*
X1117905Y362728D01*
X1117829Y362661D01*
X1117794Y362630D01*
X1117762Y362598D01*
X1117733Y362572D01*
X1117711Y362550D01*
X1117708Y362547D01*
X1117695Y362531D01*
X1117676Y362509D01*
X1117651Y362483D01*
X1117625Y362449D01*
X1117597Y362413D01*
X1117568Y362375D01*
X1117543Y362334D01*
X1119140D01*
Y361950D01*
X1116990D01*
Y361953D01*
Y361956D01*
Y361975D01*
Y362001D01*
X1116994Y362039D01*
X1117000Y362080D01*
X1117006Y362128D01*
X1117019Y362175D01*
X1117035Y362226D01*
Y362229D01*
X1117038Y362236D01*
X1117044Y362248D01*
X1117051Y362264D01*
X1117060Y362283D01*
X1117070Y362306D01*
X1117098Y362363D01*
X1117136Y362429D01*
X1117181Y362502D01*
X1117235Y362579D01*
X1117298Y362658D01*
X1117302Y362661D01*
X1117308Y362668D01*
X1117317Y362680D01*
X1117333Y362696D01*
X1117352Y362715D01*
X1117375Y362741D01*
X1117400Y362769D01*
X1117432Y362801D01*
X1117467Y362833D01*
X1117505Y362871D01*
X1117549Y362912D01*
X1117594Y362957D01*
X1117644Y363001D01*
X1117698Y363049D01*
X1117759Y363099D01*
X1117819Y363150D01*
X1117825Y363157D01*
X1117841Y363169D01*
X1117870Y363191D01*
X1117905Y363223D01*
X1117949Y363258D01*
X1117997Y363303D01*
X1118051Y363350D01*
X1118108Y363401D01*
X1118229Y363512D01*
X1118346Y363626D01*
X1118400Y363684D01*
X1118451Y363741D01*
X1118499Y363792D01*
X1118537Y363842D01*
X1118540Y363845D01*
X1118546Y363855D01*
X1118556Y363868D01*
X1118565Y363887D01*
X1118581Y363909D01*
X1118597Y363934D01*
X1118613Y363966D01*
X1118632Y363998D01*
X1118667Y364071D01*
X1118699Y364150D01*
X1118708Y364195D01*
X1118718Y364236D01*
X1118724Y364281D01*
X1118727Y364322D01*
Y364325D01*
Y364331D01*
Y364344D01*
X1118724Y364363D01*
X1118721Y364382D01*
X1118718Y364404D01*
X1118705Y364461D01*
X1118686Y364525D01*
X1118654Y364592D01*
X1118635Y364623D01*
X1118613Y364658D01*
X1118587Y364690D01*
X1118556Y364722D01*
X1118552Y364725D01*
X1118549Y364728D01*
X1118537Y364738D01*
X1118524Y364747D01*
X1118508Y364760D01*
X1118486Y364773D01*
X1118464Y364788D01*
X1118435Y364804D01*
X1118406Y364820D01*
X1118372Y364836D01*
X1118295Y364861D01*
X1118210Y364880D01*
X1118162Y364884D01*
X1118111Y364887D01*
X1118083D01*
X1118064Y364884D01*
X1118038Y364880D01*
X1118010Y364877D01*
X1117978Y364871D01*
X1117946Y364865D01*
X1117870Y364846D01*
X1117794Y364814D01*
X1117756Y364795D01*
X1117718Y364769D01*
X1117683Y364744D01*
X1117648Y364712D01*
X1117644Y364709D01*
X1117641Y364706D01*
X1117632Y364693D01*
X1117622Y364680D01*
X1117609Y364665D01*
X1117594Y364642D01*
X1117578Y364617D01*
X1117562Y364588D01*
X1117546Y364557D01*
X1117530Y364522D01*
X1117517Y364481D01*
X1117502Y364439D01*
X1117492Y364395D01*
X1117483Y364344D01*
X1117479Y364293D01*
X1117476Y364236D01*
X1117067Y364277D01*
Y364284D01*
X1117070Y364296D01*
X1117073Y364322D01*
X1117076Y364353D01*
X1117086Y364392D01*
X1117095Y364436D01*
X1117108Y364484D01*
X1117121Y364538D01*
X1117140Y364592D01*
X1117162Y364649D01*
X1117187Y364706D01*
X1117216Y364766D01*
X1117251Y364823D01*
X1117289Y364877D01*
X1117333Y364928D01*
X1117381Y364976D01*
X1117384Y364979D01*
X1117394Y364985D01*
X1117410Y364998D01*
X1117432Y365014D01*
X1117460Y365033D01*
X1117492Y365052D01*
X1117533Y365074D01*
X1117578Y365096D01*
X1117629Y365119D01*
X1117683Y365141D01*
X1117743Y365160D01*
X1117810Y365179D01*
X1117879Y365195D01*
X1117956Y365208D01*
X1118035Y365214D01*
X1118121Y365217D01*
X1118143D01*
X1118165Y365214D01*
D02*
G37*
G36*
X1116762Y364820D02*
X1115686D01*
Y361950D01*
X1115254D01*
Y364820D01*
X1114181D01*
Y365204D01*
X1116762D01*
Y364820D01*
D02*
G37*
G36*
X322634Y374148D02*
X322666D01*
X322704Y374145D01*
X322745Y374142D01*
X322789Y374136D01*
X322837Y374129D01*
X322888Y374123D01*
X322996Y374101D01*
X323104Y374072D01*
X323212Y374034D01*
X323215D01*
X323224Y374028D01*
X323237Y374021D01*
X323256Y374012D01*
X323282Y373999D01*
X323307Y373986D01*
X323367Y373948D01*
X323437Y373898D01*
X323507Y373840D01*
X323577Y373770D01*
X323637Y373691D01*
X323641Y373688D01*
X323644Y373682D01*
X323650Y373669D01*
X323660Y373653D01*
X323672Y373631D01*
X323685Y373605D01*
X323698Y373577D01*
X323713Y373542D01*
X323729Y373507D01*
X323742Y373469D01*
X323767Y373380D01*
X323790Y373285D01*
X323796Y373234D01*
X323799Y373180D01*
X323386Y373148D01*
Y373151D01*
X323383Y373161D01*
Y373177D01*
X323377Y373199D01*
X323374Y373224D01*
X323364Y373253D01*
X323355Y373285D01*
X323345Y373320D01*
X323317Y373396D01*
X323275Y373472D01*
X323250Y373510D01*
X323224Y373545D01*
X323193Y373580D01*
X323158Y373612D01*
X323155Y373615D01*
X323148Y373618D01*
X323139Y373628D01*
X323123Y373637D01*
X323104Y373650D01*
X323078Y373663D01*
X323050Y373675D01*
X323015Y373691D01*
X322977Y373707D01*
X322936Y373720D01*
X322891Y373732D01*
X322840Y373745D01*
X322783Y373755D01*
X322726Y373764D01*
X322659Y373767D01*
X322593Y373770D01*
X322555D01*
X322529Y373767D01*
X322497D01*
X322459Y373764D01*
X322418Y373758D01*
X322377Y373751D01*
X322282Y373736D01*
X322189Y373710D01*
X322142Y373691D01*
X322101Y373672D01*
X322059Y373650D01*
X322024Y373624D01*
X322021D01*
X322018Y373618D01*
X321996Y373599D01*
X321967Y373567D01*
X321936Y373529D01*
X321904Y373478D01*
X321875Y373418D01*
X321853Y373355D01*
X321850Y373320D01*
X321847Y373282D01*
Y373278D01*
Y373275D01*
Y373266D01*
X321850Y373253D01*
X321853Y373218D01*
X321862Y373180D01*
X321878Y373132D01*
X321897Y373085D01*
X321929Y373037D01*
X321970Y372993D01*
X321974D01*
X321977Y372986D01*
X321986Y372980D01*
X321999Y372974D01*
X322015Y372964D01*
X322037Y372951D01*
X322066Y372935D01*
X322097Y372920D01*
X322139Y372904D01*
X322183Y372885D01*
X322237Y372866D01*
X322297Y372847D01*
X322364Y372824D01*
X322440Y372802D01*
X322526Y372780D01*
X322618Y372758D01*
X322624D01*
X322640Y372751D01*
X322669Y372745D01*
X322704Y372739D01*
X322745Y372729D01*
X322796Y372716D01*
X322850Y372704D01*
X322907Y372688D01*
X323028Y372656D01*
X323145Y372621D01*
X323202Y372602D01*
X323253Y372586D01*
X323301Y372567D01*
X323342Y372551D01*
X323345D01*
X323355Y372545D01*
X323371Y372539D01*
X323390Y372529D01*
X323412Y372516D01*
X323437Y372500D01*
X323501Y372462D01*
X323567Y372415D01*
X323637Y372358D01*
X323704Y372294D01*
X323732Y372259D01*
X323761Y372221D01*
X323764Y372218D01*
X323767Y372212D01*
X323774Y372202D01*
X323783Y372186D01*
X323793Y372167D01*
X323806Y372145D01*
X323818Y372116D01*
X323831Y372088D01*
X323853Y372021D01*
X323875Y371942D01*
X323891Y371853D01*
X323898Y371805D01*
Y371758D01*
Y371754D01*
Y371745D01*
Y371732D01*
X323895Y371713D01*
Y371691D01*
X323891Y371662D01*
X323885Y371634D01*
X323879Y371599D01*
X323863Y371523D01*
X323834Y371440D01*
X323799Y371354D01*
X323774Y371313D01*
X323748Y371269D01*
X323745Y371265D01*
X323742Y371259D01*
X323732Y371246D01*
X323720Y371231D01*
X323704Y371212D01*
X323688Y371189D01*
X323666Y371164D01*
X323641Y371138D01*
X323609Y371110D01*
X323577Y371081D01*
X323542Y371053D01*
X323504Y371021D01*
X323418Y370964D01*
X323320Y370913D01*
X323317D01*
X323307Y370907D01*
X323291Y370900D01*
X323272Y370894D01*
X323244Y370885D01*
X323215Y370872D01*
X323177Y370862D01*
X323139Y370849D01*
X323094Y370837D01*
X323047Y370827D01*
X322993Y370815D01*
X322939Y370805D01*
X322821Y370792D01*
X322694Y370786D01*
X322653D01*
X322621Y370789D01*
X322583D01*
X322539Y370792D01*
X322491Y370796D01*
X322437Y370802D01*
X322380Y370808D01*
X322320Y370818D01*
X322196Y370840D01*
X322072Y370872D01*
X322012Y370891D01*
X321954Y370913D01*
X321951Y370916D01*
X321942Y370919D01*
X321926Y370926D01*
X321907Y370938D01*
X321881Y370951D01*
X321850Y370967D01*
X321818Y370986D01*
X321783Y371012D01*
X321710Y371065D01*
X321631Y371132D01*
X321554Y371212D01*
X321485Y371300D01*
X321481Y371304D01*
X321478Y371313D01*
X321469Y371326D01*
X321459Y371345D01*
X321446Y371370D01*
X321431Y371399D01*
X321415Y371434D01*
X321399Y371472D01*
X321383Y371513D01*
X321367Y371558D01*
X321354Y371605D01*
X321339Y371659D01*
X321320Y371770D01*
X321313Y371827D01*
X321310Y371888D01*
X321716Y371923D01*
Y371920D01*
Y371913D01*
X321720Y371900D01*
X321723Y371881D01*
X321726Y371859D01*
X321732Y371837D01*
X321745Y371780D01*
X321761Y371716D01*
X321786Y371650D01*
X321815Y371583D01*
X321850Y371519D01*
Y371516D01*
X321856Y371513D01*
X321869Y371494D01*
X321894Y371465D01*
X321929Y371431D01*
X321974Y371389D01*
X322031Y371348D01*
X322097Y371304D01*
X322174Y371265D01*
X322177D01*
X322183Y371262D01*
X322196Y371256D01*
X322212Y371250D01*
X322234Y371243D01*
X322259Y371237D01*
X322288Y371227D01*
X322320Y371218D01*
X322355Y371208D01*
X322393Y371202D01*
X322478Y371186D01*
X322574Y371173D01*
X322675Y371170D01*
X322716D01*
X322739Y371173D01*
X322764D01*
X322821Y371180D01*
X322888Y371189D01*
X322961Y371202D01*
X323034Y371218D01*
X323107Y371243D01*
X323110D01*
X323117Y371246D01*
X323126Y371250D01*
X323139Y371256D01*
X323174Y371272D01*
X323215Y371297D01*
X323260Y371326D01*
X323307Y371357D01*
X323352Y371399D01*
X323390Y371443D01*
X323393Y371450D01*
X323405Y371465D01*
X323418Y371491D01*
X323437Y371526D01*
X323453Y371567D01*
X323469Y371615D01*
X323479Y371665D01*
X323482Y371723D01*
Y371726D01*
Y371729D01*
Y371748D01*
X323479Y371777D01*
X323472Y371815D01*
X323460Y371856D01*
X323444Y371900D01*
X323421Y371945D01*
X323393Y371989D01*
X323390Y371996D01*
X323377Y372008D01*
X323355Y372031D01*
X323323Y372056D01*
X323282Y372088D01*
X323231Y372119D01*
X323171Y372151D01*
X323097Y372180D01*
X323091Y372183D01*
X323082Y372186D01*
X323069Y372189D01*
X323053Y372196D01*
X323034Y372202D01*
X323009Y372212D01*
X322977Y372221D01*
X322942Y372231D01*
X322901Y372243D01*
X322853Y372256D01*
X322799Y372269D01*
X322739Y372285D01*
X322672Y372300D01*
X322599Y372319D01*
X322520Y372339D01*
X322513D01*
X322501Y372345D01*
X322478Y372348D01*
X322447Y372358D01*
X322412Y372367D01*
X322367Y372377D01*
X322323Y372389D01*
X322272Y372405D01*
X322170Y372437D01*
X322066Y372469D01*
X322015Y372488D01*
X321970Y372507D01*
X321929Y372523D01*
X321891Y372542D01*
X321888D01*
X321881Y372548D01*
X321869Y372555D01*
X321853Y372564D01*
X321834Y372577D01*
X321812Y372589D01*
X321761Y372627D01*
X321704Y372672D01*
X321646Y372723D01*
X321593Y372783D01*
X321545Y372847D01*
Y372850D01*
X321539Y372856D01*
X321535Y372866D01*
X321526Y372878D01*
X321520Y372894D01*
X321510Y372916D01*
X321488Y372964D01*
X321466Y373024D01*
X321450Y373094D01*
X321437Y373171D01*
X321431Y373253D01*
Y373256D01*
Y373262D01*
Y373278D01*
X321434Y373294D01*
Y373316D01*
X321437Y373342D01*
X321443Y373371D01*
X321450Y373402D01*
X321466Y373472D01*
X321491Y373551D01*
X321526Y373631D01*
X321545Y373672D01*
X321570Y373713D01*
X321573Y373717D01*
X321577Y373723D01*
X321586Y373736D01*
X321596Y373748D01*
X321612Y373767D01*
X321628Y373786D01*
X321675Y373834D01*
X321732Y373888D01*
X321802Y373942D01*
X321881Y373996D01*
X321977Y374040D01*
X321980D01*
X321990Y374047D01*
X322005Y374050D01*
X322024Y374059D01*
X322050Y374066D01*
X322078Y374075D01*
X322113Y374085D01*
X322151Y374098D01*
X322196Y374107D01*
X322240Y374117D01*
X322291Y374126D01*
X322342Y374136D01*
X322453Y374148D01*
X322574Y374151D01*
X322609D01*
X322634Y374148D01*
D02*
G37*
G36*
X328606Y370840D02*
X328206D01*
Y373383D01*
X328203D01*
X328200Y373377D01*
X328190Y373371D01*
X328181Y373361D01*
X328149Y373332D01*
X328105Y373298D01*
X328050Y373256D01*
X327984Y373209D01*
X327908Y373158D01*
X327825Y373107D01*
X327822D01*
X327816Y373101D01*
X327803Y373094D01*
X327787Y373085D01*
X327765Y373072D01*
X327743Y373059D01*
X327685Y373031D01*
X327622Y372999D01*
X327552Y372964D01*
X327479Y372932D01*
X327409Y372904D01*
Y373288D01*
X327412Y373291D01*
X327425Y373294D01*
X327441Y373304D01*
X327466Y373316D01*
X327495Y373332D01*
X327527Y373351D01*
X327565Y373371D01*
X327606Y373396D01*
X327698Y373450D01*
X327797Y373517D01*
X327895Y373590D01*
X327993Y373669D01*
X327997Y373672D01*
X328003Y373679D01*
X328019Y373691D01*
X328035Y373707D01*
X328054Y373729D01*
X328079Y373751D01*
X328105Y373780D01*
X328133Y373809D01*
X328190Y373875D01*
X328247Y373948D01*
X328301Y374028D01*
X328327Y374066D01*
X328346Y374107D01*
X328606D01*
Y370840D01*
D02*
G37*
G36*
X326822Y373710D02*
X325746D01*
Y370840D01*
X325314D01*
Y373710D01*
X324240D01*
Y374094D01*
X326822D01*
Y373710D01*
D02*
G37*
%LPC*%
G36*
X329654Y1112593D02*
X328632Y1111123D01*
X329654D01*
Y1112593D01*
D02*
G37*
%LPD*%
M02*
