G04*
G04 #@! TF.GenerationSoftware,Altium Limited,Altium Designer,21.0.8 (223)*
G04*
G04 Layer_Color=32768*
%FSLAX25Y25*%
%MOIN*%
G70*
G04*
G04 #@! TF.SameCoordinates,1E681D1C-CCFD-48AA-A558-CB9795AED949*
G04*
G04*
G04 #@! TF.FilePolarity,Positive*
G04*
G01*
G75*
%ADD10C,0.00394*%
%ADD63C,0.00197*%
D10*
X416728Y133500D02*
X420272D01*
X418500Y131728D02*
Y135272D01*
X218228Y280000D02*
X221772D01*
X220000Y278228D02*
Y281772D01*
X241181Y280000D02*
X244724D01*
X242953Y278228D02*
Y281772D01*
X231500Y290228D02*
Y293772D01*
X229728Y292000D02*
X233272D01*
X231500Y266728D02*
Y270272D01*
X229728Y268500D02*
X233272D01*
X169677Y226661D02*
X171646D01*
X170661Y225677D02*
Y227646D01*
X294677Y226661D02*
X296646D01*
X295661Y225677D02*
Y227646D01*
X344000Y305894D02*
Y308059D01*
X342917Y306976D02*
X345083D01*
X370000Y306417D02*
Y308583D01*
X368917Y307500D02*
X371083D01*
X323417Y277500D02*
X325583D01*
X324500Y276417D02*
Y278583D01*
X328917Y304110D02*
X331083D01*
X330000Y303028D02*
Y305193D01*
X324417Y269500D02*
X326583D01*
X325500Y268417D02*
Y270583D01*
X323000Y254260D02*
Y261740D01*
X338748Y254260D02*
Y261740D01*
X323000D02*
X338748D01*
X323000Y254260D02*
X338748D01*
X328906Y258000D02*
X332842D01*
X330874Y256031D02*
Y259968D01*
X358417Y269500D02*
X360583D01*
X359500Y268417D02*
Y270583D01*
X346917Y247390D02*
X349083D01*
X348000Y246307D02*
Y248472D01*
X340500Y281941D02*
Y284106D01*
X339417Y283024D02*
X341583D01*
X340917Y265000D02*
X343083D01*
X342000Y263917D02*
Y266083D01*
X307890Y262917D02*
Y265083D01*
X306807Y264000D02*
X308972D01*
X361953Y248417D02*
Y250583D01*
X360870Y249500D02*
X363035D01*
X215032Y359500D02*
X218969D01*
X217000Y357531D02*
Y361469D01*
X229500Y279906D02*
X233437D01*
X231469Y277937D02*
Y281874D01*
X259417Y132110D02*
X261583D01*
X260500Y131028D02*
Y133193D01*
X368000Y156027D02*
Y158193D01*
X366917Y157110D02*
X369083D01*
X262917Y187500D02*
X265083D01*
X264000Y186417D02*
Y188583D01*
X184417Y208500D02*
X186583D01*
X185500Y207417D02*
Y209583D01*
X257917Y143000D02*
X260083D01*
X259000Y141917D02*
Y144083D01*
X285917Y176110D02*
X288083D01*
X287000Y175028D02*
Y177193D01*
X308917Y187500D02*
X311083D01*
X310000Y186417D02*
Y188583D01*
X185917Y137110D02*
X188083D01*
X187000Y136028D02*
Y138193D01*
X215000Y205532D02*
Y209469D01*
X213032Y207500D02*
X216968D01*
X375917Y176110D02*
X378083D01*
X377000Y175028D02*
Y177193D01*
X372917Y142110D02*
X375083D01*
X374000Y141028D02*
Y143193D01*
X285417Y257110D02*
X287583D01*
X286500Y256028D02*
Y258193D01*
X226917Y155110D02*
X229083D01*
X228000Y154028D02*
Y156193D01*
X342917Y208500D02*
X345083D01*
X344000Y207417D02*
Y209583D01*
X143000Y187031D02*
Y190969D01*
X141032Y189000D02*
X144968D01*
X334417Y224890D02*
X336583D01*
X335500Y223807D02*
Y225972D01*
X239917Y176110D02*
X242083D01*
X241000Y175028D02*
Y177193D01*
X285500Y404417D02*
Y406583D01*
X284417Y405500D02*
X286583D01*
X365500Y373031D02*
Y376969D01*
X363531Y375000D02*
X367469D01*
X308000Y405417D02*
Y407583D01*
X306917Y406500D02*
X309083D01*
X224417Y162610D02*
X226583D01*
X225500Y161528D02*
Y163693D01*
X316917Y170610D02*
X319083D01*
X318000Y169528D02*
Y171693D01*
X378917Y234000D02*
X381083D01*
X380000Y232917D02*
Y235083D01*
X398917Y155110D02*
X401083D01*
X400000Y154028D02*
Y156193D01*
X170917Y176110D02*
X173083D01*
X172000Y175028D02*
Y177193D01*
X252917Y208500D02*
X255083D01*
X254000Y207417D02*
Y209583D01*
X161500Y259417D02*
Y261583D01*
X160417Y260500D02*
X162583D01*
X254921Y358016D02*
Y361953D01*
X252953Y359984D02*
X256890D01*
X303417Y132110D02*
X305583D01*
X304500Y131028D02*
Y133193D01*
X272917Y155110D02*
X275083D01*
X274000Y154028D02*
Y156193D01*
X180917Y155110D02*
X183083D01*
X182000Y154028D02*
Y156193D01*
X354917Y187500D02*
X357083D01*
X356000Y186417D02*
Y188583D01*
X395417Y132110D02*
X397583D01*
X396500Y131028D02*
Y133193D01*
X305917Y142110D02*
X308083D01*
X307000Y141028D02*
Y143193D01*
X170917Y187500D02*
X173083D01*
X172000Y186417D02*
Y188583D01*
X349417Y132110D02*
X351583D01*
X350500Y131028D02*
Y133193D01*
D63*
X411807Y129366D02*
Y137634D01*
X425193Y129366D02*
Y137634D01*
X411807D02*
X425193D01*
X411807Y129366D02*
X425193D01*
X221969Y274319D02*
Y276681D01*
X220787Y275500D02*
X223150D01*
X216457Y271957D02*
X227480D01*
X216457Y279043D02*
X227480D01*
X216457Y271957D02*
Y279043D01*
X227480Y271957D02*
Y279043D01*
X224331Y277835D02*
Y282165D01*
X215669Y277835D02*
Y282165D01*
X224331D01*
X215669Y277835D02*
X224331D01*
X238622Y277835D02*
Y282165D01*
X247284Y277835D02*
Y282165D01*
X238622Y277835D02*
X247284D01*
X238622Y282165D02*
X247284D01*
X229335Y287669D02*
X233665D01*
X229335Y296331D02*
X233665D01*
Y287669D02*
Y296331D01*
X229335Y287669D02*
Y296331D01*
Y264169D02*
X233665D01*
X229335Y272831D02*
X233665D01*
Y264169D02*
Y272831D01*
X229335Y264169D02*
Y272831D01*
X166724Y224693D02*
Y228630D01*
X174598D01*
Y224693D02*
Y228630D01*
X166724Y224693D02*
X174598D01*
X291724D02*
Y228630D01*
X299598D01*
Y224693D02*
Y228630D01*
X291724Y224693D02*
X299598D01*
X342425Y304024D02*
X345575D01*
X342425Y309929D02*
X345575D01*
X342425Y304024D02*
Y309929D01*
X345575Y304024D02*
Y309929D01*
X368425Y304547D02*
X371575D01*
X368425Y310453D02*
X371575D01*
X368425Y304547D02*
Y310453D01*
X371575Y304547D02*
Y310453D01*
X326862Y273169D02*
Y281831D01*
X322138Y273169D02*
Y281831D01*
X326862D01*
X322138Y273169D02*
X326862D01*
X332362Y299780D02*
Y308441D01*
X327638Y299780D02*
Y308441D01*
X332362D01*
X327638Y299780D02*
X332362D01*
X322547Y267925D02*
Y271075D01*
X328453Y267925D02*
Y271075D01*
X322547D02*
X328453D01*
X322547Y267925D02*
X328453D01*
X356547D02*
Y271075D01*
X362453Y267925D02*
Y271075D01*
X356547D02*
X362453D01*
X356547Y267925D02*
X362453D01*
X350362Y243059D02*
Y251720D01*
X345638Y243059D02*
Y251720D01*
X350362D01*
X345638Y243059D02*
X350362D01*
X338925Y280071D02*
X342075D01*
X338925Y285976D02*
X342075D01*
X338925Y280071D02*
Y285976D01*
X342075Y280071D02*
Y285976D01*
X339047Y263425D02*
Y266575D01*
X344953Y263425D02*
Y266575D01*
X339047D02*
X344953D01*
X339047Y263425D02*
X344953D01*
X303559Y261638D02*
X312221D01*
X303559Y266362D02*
X312221D01*
Y261638D02*
Y266362D01*
X303559Y261638D02*
Y266362D01*
X357622Y247138D02*
X366283D01*
X357622Y251862D02*
X366283D01*
Y247138D02*
Y251862D01*
X357622Y247138D02*
Y251862D01*
X206764Y349264D02*
Y369736D01*
X227236Y349264D02*
Y369736D01*
X206764D02*
X227236D01*
X206764Y349264D02*
X227236D01*
X280681Y230693D02*
Y329118D01*
X182256Y230693D02*
Y329118D01*
X280681D01*
X182256Y230693D02*
X280681D01*
X452370Y144110D02*
Y407890D01*
Y144110D02*
X473630D01*
Y407890D01*
X452370D02*
X473630D01*
X432370Y144110D02*
Y407890D01*
Y144110D02*
X453630D01*
Y407890D01*
X432370D02*
X453630D01*
X262862Y127779D02*
Y136441D01*
X258138Y127779D02*
Y136441D01*
X262862D01*
X258138Y127779D02*
X262862D01*
X305457Y169098D02*
X312543D01*
X305457Y180122D02*
X312543D01*
X305457Y169098D02*
Y180122D01*
X312543Y169098D02*
Y180122D01*
X309000Y173429D02*
Y175791D01*
X307819Y174610D02*
X310181D01*
X363669Y154748D02*
X372331D01*
X363669Y159472D02*
X372331D01*
Y154748D02*
Y159472D01*
X363669Y154748D02*
Y159472D01*
X215457Y169098D02*
X222543D01*
X215457Y180122D02*
X222543D01*
X215457Y169098D02*
Y180122D01*
X222543Y169098D02*
Y180122D01*
X219000Y173429D02*
Y175791D01*
X217819Y174610D02*
X220181D01*
X318457Y201488D02*
X325543D01*
X318457Y212512D02*
X325543D01*
X318457Y201488D02*
Y212512D01*
X325543Y201488D02*
Y212512D01*
X322000Y205819D02*
Y208181D01*
X320819Y207000D02*
X323181D01*
X397457Y169098D02*
X404543D01*
X397457Y180122D02*
X404543D01*
X397457Y169098D02*
Y180122D01*
X404543Y169098D02*
Y180122D01*
X401000Y173429D02*
Y175791D01*
X399819Y174610D02*
X402181D01*
X266362Y183169D02*
Y191831D01*
X261638Y183169D02*
Y191831D01*
X266362D01*
X261638Y183169D02*
X266362D01*
X248457Y148098D02*
X255543D01*
X248457Y159122D02*
X255543D01*
X248457Y148098D02*
Y159122D01*
X255543Y148098D02*
Y159122D01*
X252000Y152429D02*
Y154791D01*
X250819Y153610D02*
X253181D01*
X261457Y169098D02*
X268543D01*
X261457Y180122D02*
X268543D01*
X261457Y169098D02*
Y180122D01*
X268543Y169098D02*
Y180122D01*
X265000Y173429D02*
Y175791D01*
X263819Y174610D02*
X266181D01*
X187862Y204169D02*
Y212831D01*
X183138Y204169D02*
Y212831D01*
X187862D01*
X183138Y204169D02*
X187862D01*
X261362Y138669D02*
Y147331D01*
X256638Y138669D02*
Y147331D01*
X261362D01*
X256638Y138669D02*
X261362D01*
X234957Y125098D02*
X242043D01*
X234957Y136122D02*
X242043D01*
X234957Y125098D02*
Y136122D01*
X242043Y125098D02*
Y136122D01*
X238500Y129429D02*
Y131791D01*
X237319Y130610D02*
X239681D01*
X289362Y171780D02*
Y180441D01*
X284638Y171780D02*
Y180441D01*
X289362D01*
X284638Y171780D02*
X289362D01*
X364457Y201488D02*
X371543D01*
X364457Y212512D02*
X371543D01*
X364457Y201488D02*
Y212512D01*
X371543Y201488D02*
Y212512D01*
X368000Y205819D02*
Y208181D01*
X366819Y207000D02*
X369181D01*
X312362Y183169D02*
Y191831D01*
X307638Y183169D02*
Y191831D01*
X312362D01*
X307638Y183169D02*
X312362D01*
X189362Y132780D02*
Y141441D01*
X184638Y132780D02*
Y141441D01*
X189362D01*
X184638Y132780D02*
X189362D01*
X206535Y202382D02*
X223465D01*
X206535Y212618D02*
X223465D01*
Y202382D02*
Y212618D01*
X206535Y202382D02*
Y212618D01*
X379362Y171780D02*
Y180441D01*
X374638Y171780D02*
Y180441D01*
X379362D01*
X374638Y171780D02*
X379362D01*
X376362Y137779D02*
Y146441D01*
X371638Y137779D02*
Y146441D01*
X376362D01*
X371638Y137779D02*
X376362D01*
X238457Y180488D02*
X245543D01*
X238457Y191512D02*
X245543D01*
X238457Y180488D02*
Y191512D01*
X245543Y180488D02*
Y191512D01*
X242000Y184819D02*
Y187181D01*
X240819Y186000D02*
X243181D01*
X288862Y252780D02*
Y261441D01*
X284138Y252780D02*
Y261441D01*
X288862D01*
X284138Y252780D02*
X288862D01*
X230362Y150779D02*
Y159441D01*
X225638Y150779D02*
Y159441D01*
X230362D01*
X225638Y150779D02*
X230362D01*
X346362Y204169D02*
Y212831D01*
X341638Y204169D02*
Y212831D01*
X346362D01*
X341638Y204169D02*
X346362D01*
X200988Y159567D02*
Y166654D01*
X212012Y159567D02*
Y166654D01*
X200988D02*
X212012D01*
X200988Y159567D02*
X212012D01*
X205319Y163110D02*
X207681D01*
X206500Y161929D02*
Y164291D01*
X228457Y201488D02*
X235543D01*
X228457Y212512D02*
X235543D01*
X228457Y201488D02*
Y212512D01*
X235543Y201488D02*
Y212512D01*
X232000Y205819D02*
Y208181D01*
X230819Y207000D02*
X233181D01*
X137882Y163606D02*
X148118D01*
Y214394D01*
X137882D02*
X148118D01*
X137882Y163606D02*
Y214394D01*
X337862Y220559D02*
Y229221D01*
X333138Y220559D02*
Y229221D01*
X337862D01*
X333138Y220559D02*
X337862D01*
X243362Y171780D02*
Y180441D01*
X238638Y171780D02*
Y180441D01*
X243362D01*
X238638Y171780D02*
X243362D01*
X283335Y401366D02*
X287665D01*
X283335Y409634D02*
X287665D01*
X283335Y401366D02*
Y409634D01*
X287665Y401366D02*
Y409634D01*
X413957Y206098D02*
X421043D01*
X413957Y217122D02*
X421043D01*
X413957Y206098D02*
Y217122D01*
X421043Y206098D02*
Y217122D01*
X417500Y210429D02*
Y212791D01*
X416319Y211610D02*
X418681D01*
X343453Y338976D02*
X387547D01*
X343453Y411024D02*
X387547D01*
Y338976D02*
Y411024D01*
X343453Y338976D02*
Y411024D01*
X306425Y403547D02*
X309575D01*
X306425Y409453D02*
X309575D01*
X306425Y403547D02*
Y409453D01*
X309575Y403547D02*
Y409453D01*
X353988Y223457D02*
Y230543D01*
X365012Y223457D02*
Y230543D01*
X353988D02*
X365012D01*
X353988Y223457D02*
X365012D01*
X358319Y227000D02*
X360681D01*
X359500Y225819D02*
Y228181D01*
X380488Y152067D02*
Y159153D01*
X391512Y152067D02*
Y159153D01*
X380488D02*
X391512D01*
X380488Y152067D02*
X391512D01*
X384819Y155610D02*
X387181D01*
X386000Y154429D02*
Y156791D01*
X351457Y169098D02*
X358543D01*
X351457Y180122D02*
X358543D01*
X351457Y169098D02*
Y180122D01*
X358543Y169098D02*
Y180122D01*
X355000Y173429D02*
Y175791D01*
X353819Y174610D02*
X356181D01*
X274488Y205457D02*
Y212543D01*
X285512Y205457D02*
Y212543D01*
X274488D02*
X285512D01*
X274488Y205457D02*
X285512D01*
X278819Y209000D02*
X281181D01*
X280000Y207819D02*
Y210181D01*
X227862Y158280D02*
Y166941D01*
X223138Y158280D02*
Y166941D01*
X227862D01*
X223138Y158280D02*
X227862D01*
X320362Y166279D02*
Y174941D01*
X315638Y166279D02*
Y174941D01*
X320362D01*
X315638Y166279D02*
X320362D01*
X301988Y210067D02*
Y217154D01*
X313012Y210067D02*
Y217154D01*
X301988D02*
X313012D01*
X301988Y210067D02*
X313012D01*
X306319Y213610D02*
X308681D01*
X307500Y212429D02*
Y214791D01*
X382362Y229669D02*
Y238331D01*
X377638Y229669D02*
Y238331D01*
X382362D01*
X377638Y229669D02*
X382362D01*
X402362Y150779D02*
Y159441D01*
X397638Y150779D02*
Y159441D01*
X402362D01*
X397638Y150779D02*
X402362D01*
X390957Y206098D02*
X398043D01*
X390957Y217122D02*
X398043D01*
X390957Y206098D02*
Y217122D01*
X398043Y206098D02*
Y217122D01*
X394500Y210429D02*
Y212791D01*
X393319Y211610D02*
X395681D01*
X160457Y201488D02*
X167543D01*
X160457Y212512D02*
X167543D01*
X160457Y201488D02*
Y212512D01*
X167543Y201488D02*
Y212512D01*
X164000Y205819D02*
Y208181D01*
X162819Y207000D02*
X165181D01*
X174362Y171780D02*
Y180441D01*
X169638Y171780D02*
Y180441D01*
X174362D01*
X169638Y171780D02*
X174362D01*
X256362Y204169D02*
Y212831D01*
X251638Y204169D02*
Y212831D01*
X256362D01*
X251638Y204169D02*
X256362D01*
X157169Y262862D02*
X165831D01*
X157169Y258138D02*
X165831D01*
X157169D02*
Y262862D01*
X165831Y258138D02*
Y262862D01*
X244094Y349158D02*
X265748D01*
X244094Y370811D02*
X265748D01*
Y349158D02*
Y370811D01*
X244094Y349158D02*
Y370811D01*
X322457Y139598D02*
X329543D01*
X322457Y150622D02*
X329543D01*
X322457Y139598D02*
Y150622D01*
X329543Y139598D02*
Y150622D01*
X326000Y143929D02*
Y146291D01*
X324819Y145110D02*
X327181D01*
X306862Y127779D02*
Y136441D01*
X302138Y127779D02*
Y136441D01*
X306862D01*
X302138Y127779D02*
X306862D01*
X284457Y180488D02*
X291543D01*
X284457Y191512D02*
X291543D01*
X284457Y180488D02*
Y191512D01*
X291543Y180488D02*
Y191512D01*
X288000Y184819D02*
Y187181D01*
X286819Y186000D02*
X289181D01*
X276362Y150779D02*
Y159441D01*
X271638Y150779D02*
Y159441D01*
X276362D01*
X271638Y150779D02*
X276362D01*
X184362D02*
Y159441D01*
X179638Y150779D02*
Y159441D01*
X184362D01*
X179638Y150779D02*
X184362D01*
X317457Y148098D02*
X324543D01*
X317457Y159122D02*
X324543D01*
X317457Y148098D02*
Y159122D01*
X324543Y148098D02*
Y159122D01*
X321000Y152429D02*
Y154791D01*
X319819Y153610D02*
X322181D01*
X370957Y125098D02*
X378043D01*
X370957Y136122D02*
X378043D01*
X370957Y125098D02*
Y136122D01*
X378043Y125098D02*
Y136122D01*
X374500Y129429D02*
Y131791D01*
X373319Y130610D02*
X375681D01*
X330457Y180488D02*
X337543D01*
X330457Y191512D02*
X337543D01*
X330457Y180488D02*
Y191512D01*
X337543Y180488D02*
Y191512D01*
X334000Y184819D02*
Y187181D01*
X332819Y186000D02*
X335181D01*
X201457Y143957D02*
X208543D01*
X201457Y154980D02*
X208543D01*
X201457Y143957D02*
Y154980D01*
X208543Y143957D02*
Y154980D01*
X205000Y148287D02*
Y150650D01*
X203819Y149469D02*
X206181D01*
X358362Y183169D02*
Y191831D01*
X353638Y183169D02*
Y191831D01*
X358362D01*
X353638Y183169D02*
X358362D01*
X280457Y136457D02*
X287543D01*
X280457Y147480D02*
X287543D01*
X280457Y136457D02*
Y147480D01*
X287543Y136457D02*
Y147480D01*
X284000Y140787D02*
Y143150D01*
X282819Y141969D02*
X285181D01*
X324957Y125098D02*
X332043D01*
X324957Y136122D02*
X332043D01*
X324957Y125098D02*
Y136122D01*
X332043Y125098D02*
Y136122D01*
X328500Y129429D02*
Y131791D01*
X327319Y130610D02*
X329681D01*
X398862Y127779D02*
Y136441D01*
X394138Y127779D02*
Y136441D01*
X398862D01*
X394138Y127779D02*
X398862D01*
X309362Y137779D02*
Y146441D01*
X304638Y137779D02*
Y146441D01*
X309362D01*
X304638Y137779D02*
X309362D01*
X294457Y148098D02*
X301543D01*
X294457Y159122D02*
X301543D01*
X294457Y148098D02*
Y159122D01*
X301543Y148098D02*
Y159122D01*
X298000Y152429D02*
Y154791D01*
X296819Y153610D02*
X299181D01*
X376488Y184457D02*
Y191543D01*
X387512Y184457D02*
Y191543D01*
X376488D02*
X387512D01*
X376488Y184457D02*
X387512D01*
X380819Y188000D02*
X383181D01*
X382000Y186819D02*
Y189181D01*
X394457Y135098D02*
X401543D01*
X394457Y146122D02*
X401543D01*
X394457Y135098D02*
Y146122D01*
X401543Y135098D02*
Y146122D01*
X398000Y139429D02*
Y141791D01*
X396819Y140610D02*
X399181D01*
X182457Y185988D02*
X189543D01*
X182457Y197012D02*
X189543D01*
X182457Y185988D02*
Y197012D01*
X189543Y185988D02*
Y197012D01*
X186000Y190319D02*
Y192681D01*
X184819Y191500D02*
X187181D01*
X348457Y135098D02*
X355543D01*
X348457Y146122D02*
X355543D01*
X348457Y135098D02*
Y146122D01*
X355543Y135098D02*
Y146122D01*
X352000Y139429D02*
Y141791D01*
X350819Y140610D02*
X353181D01*
X235457Y135098D02*
X242543D01*
X235457Y146122D02*
X242543D01*
X235457Y135098D02*
Y146122D01*
X242543Y135098D02*
Y146122D01*
X239000Y139429D02*
Y141791D01*
X237819Y140610D02*
X240181D01*
X269520Y127457D02*
Y134543D01*
X280543Y127457D02*
Y134543D01*
X269520D02*
X280543D01*
X269520Y127457D02*
X280543D01*
X273850Y131000D02*
X276213D01*
X275031Y129819D02*
Y132181D01*
X174362Y183169D02*
Y191831D01*
X169638Y183169D02*
Y191831D01*
X174362D01*
X169638Y183169D02*
X174362D01*
X352862Y127779D02*
Y136441D01*
X348138Y127779D02*
Y136441D01*
X352862D01*
X348138Y127779D02*
X352862D01*
M02*
