G04*
G04 #@! TF.GenerationSoftware,Altium Limited,Altium Designer,21.5.1 (32)*
G04*
G04 Layer_Color=128*
%FSLAX44Y44*%
%MOMM*%
G71*
G04*
G04 #@! TF.SameCoordinates,CE61D733-3D9C-4286-B01C-F70B086857D8*
G04*
G04*
G04 #@! TF.FilePolarity,Positive*
G04*
G01*
G75*
%ADD30R,0.8200X0.8600*%
%ADD32R,0.8600X0.8200*%
%ADD84R,0.5153X0.4725*%
%ADD86R,0.4725X0.5153*%
%ADD92R,0.9500X0.5500*%
%ADD93R,0.5500X0.6000*%
%ADD94R,1.2500X1.1000*%
%ADD95R,0.5500X0.9500*%
G04:AMPARAMS|DCode=96|XSize=1.4mm|YSize=0.86mm|CornerRadius=0.145mm|HoleSize=0mm|Usage=FLASHONLY|Rotation=0.000|XOffset=0mm|YOffset=0mm|HoleType=Round|Shape=RoundedRectangle|*
%AMROUNDEDRECTD96*
21,1,1.4000,0.5700,0,0,0.0*
21,1,1.1100,0.8600,0,0,0.0*
1,1,0.2900,0.5550,-0.2850*
1,1,0.2900,-0.5550,-0.2850*
1,1,0.2900,-0.5550,0.2850*
1,1,0.2900,0.5550,0.2850*
%
%ADD96ROUNDEDRECTD96*%
%ADD97R,0.8200X0.8200*%
D30*
X554870Y660064D02*
D03*
Y669663D02*
D03*
D32*
X569940Y706494D02*
D03*
X579540D02*
D03*
D84*
X618854Y682717D02*
D03*
X611283D02*
D03*
X500955Y800742D02*
D03*
X508526D02*
D03*
X500955Y818785D02*
D03*
X508526D02*
D03*
X500955Y757243D02*
D03*
X508526D02*
D03*
X503243Y739200D02*
D03*
X495672D02*
D03*
Y719200D02*
D03*
X503243D02*
D03*
X495947Y779200D02*
D03*
X503518D02*
D03*
X508526Y836828D02*
D03*
X500955D02*
D03*
X458362Y729200D02*
D03*
X465933D02*
D03*
X458362Y709200D02*
D03*
X465933D02*
D03*
X439094Y719200D02*
D03*
X446666D02*
D03*
X570954Y850784D02*
D03*
X578526D02*
D03*
X638526Y789200D02*
D03*
Y779200D02*
D03*
Y719207D02*
D03*
X578526Y762121D02*
D03*
X638526Y709200D02*
D03*
X554871Y759200D02*
D03*
X460955Y812855D02*
D03*
X438145Y779200D02*
D03*
X476680Y769200D02*
D03*
X457412Y759200D02*
D03*
X520955Y743362D02*
D03*
X505473Y659195D02*
D03*
X468439Y691158D02*
D03*
X658525Y839200D02*
D03*
X650954Y849200D02*
D03*
X636158Y867562D02*
D03*
X610954Y789195D02*
D03*
X590954Y762121D02*
D03*
Y813474D02*
D03*
X464983Y779200D02*
D03*
X610222Y709200D02*
D03*
Y729200D02*
D03*
X590954Y742303D02*
D03*
X648525Y649200D02*
D03*
X640954Y639200D02*
D03*
X520955Y700278D02*
D03*
X517169Y659221D02*
D03*
X643730Y867562D02*
D03*
X570954Y762121D02*
D03*
X476011Y691158D02*
D03*
X468526Y812855D02*
D03*
X445717Y779200D02*
D03*
X497902Y659195D02*
D03*
X457412Y779200D02*
D03*
X524740Y659221D02*
D03*
X484251Y769200D02*
D03*
X464983Y759200D02*
D03*
X547299D02*
D03*
X598526Y742303D02*
D03*
Y762121D02*
D03*
Y813474D02*
D03*
X618526Y789195D02*
D03*
X630954Y719207D02*
D03*
Y789200D02*
D03*
Y779200D02*
D03*
X648525Y639200D02*
D03*
X650954Y839200D02*
D03*
X658525Y849200D02*
D03*
X528526Y700278D02*
D03*
Y743362D02*
D03*
X617793Y709200D02*
D03*
Y729200D02*
D03*
X630954Y709200D02*
D03*
X640954Y649200D02*
D03*
D86*
X480802Y727987D02*
D03*
Y720416D02*
D03*
X589735Y835915D02*
D03*
Y828344D02*
D03*
X494462Y679653D02*
D03*
Y687225D02*
D03*
X576140Y663392D02*
D03*
Y655821D02*
D03*
X594183Y664200D02*
D03*
Y656628D02*
D03*
X579740Y791034D02*
D03*
X559740Y798605D02*
D03*
X539725Y817253D02*
D03*
X569740Y739681D02*
D03*
X561697Y727986D02*
D03*
X519740Y851697D02*
D03*
X532430Y777986D02*
D03*
X518112Y720415D02*
D03*
X459745Y857991D02*
D03*
X481077Y790415D02*
D03*
X449740Y857986D02*
D03*
X439740Y840414D02*
D03*
X569740Y810301D02*
D03*
X541697Y790415D02*
D03*
X529735Y828949D02*
D03*
X579740Y727434D02*
D03*
X659740Y657986D02*
D03*
X550197Y707986D02*
D03*
X460500Y648036D02*
D03*
X439740Y657986D02*
D03*
Y650414D02*
D03*
Y847986D02*
D03*
X449740Y850414D02*
D03*
X460500Y640465D02*
D03*
X459745Y850419D02*
D03*
X481077Y797986D02*
D03*
X529735Y836521D02*
D03*
X519740Y859269D02*
D03*
X539725Y809682D02*
D03*
X550197Y700414D02*
D03*
X569740Y747253D02*
D03*
X532430Y770415D02*
D03*
X569740Y817872D02*
D03*
X579740Y719863D02*
D03*
X518112Y727986D02*
D03*
X561697Y720415D02*
D03*
X559740Y791034D02*
D03*
X579740Y798605D02*
D03*
X541697Y797986D02*
D03*
X659740Y650414D02*
D03*
D92*
X516387Y771700D02*
D03*
Y786700D02*
D03*
X534155Y714320D02*
D03*
Y729320D02*
D03*
D93*
X765810Y750630D02*
D03*
Y758130D02*
D03*
D94*
X537005Y679985D02*
D03*
X513504D02*
D03*
D95*
X587240Y778164D02*
D03*
X431543Y749200D02*
D03*
X446543D02*
D03*
X572240Y778164D02*
D03*
D96*
X572873Y290491D02*
D03*
Y272591D02*
D03*
D97*
X579740Y688452D02*
D03*
X569740D02*
D03*
M02*
