%TF.GenerationSoftware,Altium Limited,Altium Designer,21.5.1 (32)*%
G04 Layer_Color=8388736*
%FSLAX45Y45*%
%MOMM*%
%TF.SameCoordinates,BAA3C551-5021-4B2B-824C-9EA50FFAFE59*%
%TF.FilePolarity,Positive*%
%TF.FileFunction,Other,Mechanical_2*%
%TF.Part,Single*%
G01*
G75*
%TA.AperFunction,NonConductor*%
%ADD75C,0.20000*%
%ADD91C,0.10000*%
%ADD97C,0.12700*%
D75*
X5070100Y5759300D02*
G03*
X5070100Y5759300I-10000J0D01*
G01*
X8781469Y8376958D02*
X8877469Y8376958D01*
X8877469Y8452958D01*
X8781469Y8452958D02*
X8877469Y8452958D01*
X8781469Y8376958D02*
X8781469Y8452958D01*
D91*
X8427613Y4978347D02*
G03*
X8427613Y4978347I-50000J0D01*
G01*
X5426065Y3290480D02*
G03*
X5426065Y3290480I-50000J0D01*
G01*
X8937371Y3268889D02*
X8937371Y3522889D01*
X6397371Y3268889D02*
X6397371Y3522889D01*
X6397371Y3268889D02*
X8937371Y3268889D01*
X6397371Y3522889D02*
X8937371Y3522889D01*
X8388355Y5373395D02*
X8493359Y5373395D01*
X8388355Y5318399D02*
X8493359Y5318399D01*
X8388355Y5318399D02*
X8388355Y5373395D01*
X8493359Y5318399D02*
X8493359Y5373395D01*
X6657609Y5068346D02*
X8467613Y5068346D01*
X6657609Y4308348D02*
X8467613Y4308348D01*
X8467613Y5068346D01*
X6657609Y4308348D02*
X6657609Y5068346D01*
X4109400Y8419074D02*
X4109400Y8474070D01*
X4004401Y8419074D02*
X4004401Y8474070D01*
X4004401Y8419074D02*
X4109400Y8419074D01*
X4004401Y8474070D02*
X4109400Y8474070D01*
X4109400Y8268645D02*
X4109400Y8323641D01*
X4004396Y8268645D02*
X4004396Y8323641D01*
X4004396Y8268645D02*
X4109400Y8268645D01*
X4004396Y8323641D02*
X4109400Y8323641D01*
X4109410Y8569498D02*
X4109410Y8624494D01*
X4004407Y8569498D02*
X4004407Y8624494D01*
X4004407Y8569498D02*
X4109410Y8569498D01*
X4004407Y8624494D02*
X4109410Y8624494D01*
X4109395Y8719922D02*
X4109395Y8774918D01*
X4004396Y8719922D02*
X4004396Y8774918D01*
X4004396Y8719922D02*
X4109395Y8719922D01*
X4004396Y8774918D02*
X4109395Y8774918D01*
X10660705Y7109902D02*
X10660705Y7164898D01*
X10765709Y7109902D02*
X10765709Y7164898D01*
X10660705Y7164898D02*
X10765709Y7164898D01*
X10660705Y7109902D02*
X10765709Y7109902D01*
X10660705Y7286401D02*
X10660705Y7341398D01*
X10765709Y7286401D02*
X10765709Y7341398D01*
X10660705Y7341398D02*
X10765709Y7341398D01*
X10660705Y7286401D02*
X10765709Y7286401D01*
X7065945Y6486271D02*
X7120941Y6486271D01*
X7065945Y6591275D02*
X7120941Y6591275D01*
X7065945Y6486271D02*
X7065945Y6591275D01*
X7120941Y6486271D02*
X7120941Y6591275D01*
X6656995Y6340602D02*
X6656995Y8640602D01*
X4356999Y6340602D02*
X4356999Y8640602D01*
X6656995Y8640602D01*
X4356999Y6340602D02*
X6656995Y6340602D01*
X5712399Y7736645D02*
X5712399Y7826642D01*
X5882401Y7736645D02*
X5882401Y7826642D01*
X5712399Y7736645D02*
X5882401Y7736645D01*
X5712399Y7826642D02*
X5882401Y7826642D01*
X5799902Y7037440D02*
X5799902Y7092436D01*
X5694898Y7037440D02*
X5694898Y7092436D01*
X5799902Y7092436D01*
X5694898Y7037440D02*
X5799902Y7037440D01*
X4475013Y7447001D02*
X4475013Y7536998D01*
X4305011Y7447001D02*
X4305011Y7536998D01*
X4475013Y7536998D01*
X4305011Y7447001D02*
X4475013Y7447001D01*
X5692399Y6854513D02*
X5802401Y6854513D01*
X5692399Y6914513D02*
X5802401Y6914513D01*
X5692399Y6854513D02*
X5692399Y6914513D01*
X5802401Y6854513D02*
X5802401Y6914513D01*
X5296549Y7303195D02*
X5386551Y7303195D01*
X5296549Y7133198D02*
X5386551Y7133198D01*
X5296549Y7133198D02*
X5296549Y7303195D01*
X5386551Y7133198D02*
X5386551Y7303195D01*
X3854384Y6081202D02*
X3854384Y6136198D01*
X3959388Y6081202D02*
X3959388Y6136198D01*
X3854384Y6136198D02*
X3959388Y6136198D01*
X3854384Y6081202D02*
X3959388Y6081202D01*
X6524732Y10008062D02*
X6644731Y10008062D01*
X6644731Y9928062D02*
X6644731Y10008062D01*
X6524732Y9928062D02*
X6644731Y9928062D01*
X6524732Y9928062D02*
X6524732Y10008062D01*
X6760723Y10008062D02*
X6880723Y10008062D01*
X6880723Y9928062D02*
X6880723Y10008062D01*
X6760723Y9928062D02*
X6880723Y9928062D01*
X6760723Y9928062D02*
X6760723Y10008062D01*
X7205101Y7982499D02*
X7805100Y7982499D01*
X7805100Y7182500D02*
X7805100Y7982499D01*
X7205101Y7182500D02*
X7805100Y7182500D01*
X7205101Y7182500D02*
X7205101Y7982499D01*
X7205101Y7780000D02*
X7407600Y7982499D01*
X5122301Y9735099D02*
X5722300Y9735099D01*
X5722300Y8935100D02*
X5722300Y9735099D01*
X5122301Y8935100D02*
X5722300Y8935100D01*
X5122301Y8935100D02*
X5122301Y9735099D01*
X5122301Y9532600D02*
X5324800Y9735099D01*
X3473779Y4712883D02*
X3473779Y4870485D01*
X3388781Y4712883D02*
X3473779Y4712883D01*
X3388781Y4712883D02*
X3388781Y4870485D01*
X3473779Y4870485D01*
X3660914Y5093338D02*
X3695916Y5058336D01*
X3660914Y5058336D02*
X3740914Y5058336D01*
X3740914Y5218336D01*
X3660914Y5218336D02*
X3740914Y5218336D01*
X3660914Y5058336D02*
X3660914Y5218336D01*
X3906045Y5106190D02*
X3941046Y5071189D01*
X3906045Y5071189D02*
X3986045Y5071189D01*
X3986045Y5231189D01*
X3906045Y5231189D02*
X3986045Y5231189D01*
X3906045Y5071189D02*
X3906045Y5231189D01*
X3391279Y5093368D02*
X3426280Y5058366D01*
X3391279Y5058366D02*
X3471279Y5058366D01*
X3471279Y5218366D01*
X3391279Y5218366D02*
X3471279Y5218366D01*
X3391279Y5058366D02*
X3391279Y5218366D01*
X3988545Y4721008D02*
X3988545Y4878610D01*
X3903547Y4721008D02*
X3988545Y4721008D01*
X3903547Y4721008D02*
X3903547Y4878610D01*
X3988545Y4878610D01*
X3743416Y4721613D02*
X3743416Y4879215D01*
X3658417Y4721613D02*
X3743416Y4721613D01*
X3658417Y4721613D02*
X3658417Y4879215D01*
X3743416Y4879215D01*
X5967375Y2913100D02*
X6062371Y2913100D01*
X5967375Y3078099D02*
X6062371Y3078099D01*
X5967375Y2913100D02*
X5967375Y3078099D01*
X6062371Y2913100D02*
X6062371Y3078099D01*
X4074094Y3908313D02*
X4074094Y4068313D01*
X4074094Y3908313D02*
X4384096Y3908313D01*
X4384096Y4068313D01*
X4074094Y4068313D02*
X4384096Y4068313D01*
X7375896Y6032409D02*
X7375896Y6087405D01*
X7480899Y6032409D02*
X7480899Y6087405D01*
X7375896Y6087405D02*
X7480899Y6087405D01*
X7375896Y6032409D02*
X7480899Y6032409D01*
X9152499Y7223100D02*
X9202501Y7173097D01*
X9052499Y7223100D02*
X9202501Y7223100D01*
X9052499Y6923095D02*
X9052499Y7223100D01*
X9052499Y6923095D02*
X9202501Y6923095D01*
X9202501Y7223100D01*
X9037497Y5991082D02*
X9087499Y5941080D01*
X9037497Y5941080D02*
X9187499Y5941080D01*
X9187499Y6241084D01*
X9037497Y6241084D02*
X9187499Y6241084D01*
X9037497Y5941080D02*
X9037497Y6241084D01*
X9469999Y7012498D02*
X9469999Y7212498D01*
X9345000Y7012498D02*
X9469999Y7012498D01*
X9345000Y7012498D02*
X9345000Y7212498D01*
X9469999Y7212498D01*
X9334996Y5918888D02*
X9334996Y6228890D01*
X9494995Y6228890D01*
X9494995Y5918888D02*
X9494995Y6228890D01*
X9334996Y5918888D02*
X9494995Y5918888D01*
X7503093Y9581587D02*
X7678089Y9581587D01*
X7503093Y9886590D02*
X7678089Y9886590D01*
X7678089Y9581587D02*
X7678089Y9886590D01*
X7503093Y9581587D02*
X7503093Y9886590D01*
X7680593Y9115888D02*
X7775589Y9115888D01*
X7680593Y9280886D02*
X7775589Y9280886D01*
X7680593Y9115888D02*
X7680593Y9280886D01*
X7775589Y9115888D02*
X7775589Y9280886D01*
X7861533Y9115883D02*
X7861533Y9280881D01*
X7956529Y9115883D02*
X7956529Y9280881D01*
X7861533Y9115883D02*
X7956529Y9115883D01*
X7861533Y9280881D02*
X7956529Y9280881D01*
X8502761Y9154866D02*
X8842765Y9154866D01*
X8502761Y9424868D02*
X8842765Y9424868D01*
X8842765Y9154866D02*
X8842765Y9424868D01*
X8502761Y9154866D02*
X8502761Y9424868D01*
X8621278Y5318399D02*
X8621278Y5373395D01*
X8726282Y5318399D02*
X8726282Y5373395D01*
X8621278Y5373395D02*
X8726282Y5373395D01*
X8621278Y5318399D02*
X8726282Y5318399D01*
X8738784Y5180853D02*
X8738784Y5235849D01*
X8633780Y5180853D02*
X8633780Y5235849D01*
X8633780Y5180853D02*
X8738784Y5180853D01*
X8633780Y5235849D02*
X8738784Y5235849D01*
X7773690Y5913770D02*
X7878694Y5913770D01*
X7773690Y5968766D02*
X7878694Y5968766D01*
X7878694Y5913770D02*
X7878694Y5968766D01*
X7773690Y5913770D02*
X7773690Y5968766D01*
X7375896Y5968766D02*
X7480899Y5968766D01*
X7375896Y5913770D02*
X7480899Y5913770D01*
X7375896Y5913770D02*
X7375896Y5968766D01*
X7480899Y5913770D02*
X7480899Y5968766D01*
X7223902Y5546110D02*
X8493902Y5546110D01*
X7223902Y5546110D02*
X7223902Y5786110D01*
X8493902Y5546110D02*
X8493902Y5786110D01*
X7223902Y5786110D02*
X8493902Y5786110D01*
X5967372Y3203530D02*
X6062368Y3203530D01*
X5967372Y3368529D02*
X6062368Y3368529D01*
X5967372Y3203530D02*
X5967372Y3368529D01*
X6062368Y3203530D02*
X6062368Y3368529D01*
X5783753Y4065844D02*
X5783753Y4170843D01*
X5728752Y4065844D02*
X5728752Y4170843D01*
X5783753Y4170843D01*
X5728752Y4065844D02*
X5783753Y4065844D01*
X5607497Y5890001D02*
X5827497Y5890001D01*
X5607497Y5744997D02*
X5827497Y5744997D01*
X5607497Y5744997D02*
X5607497Y5890001D01*
X5827497Y5744997D02*
X5827497Y5890001D01*
X4546356Y4168739D02*
X4856353Y4168739D01*
X4546356Y4168739D02*
X4546356Y4328739D01*
X4856353Y4328739D01*
X4856353Y4168739D02*
X4856353Y4328739D01*
X4546356Y3908313D02*
X4856353Y3908313D01*
X4546356Y3908313D02*
X4546356Y4068313D01*
X4856353Y4068313D01*
X4856353Y3908313D02*
X4856353Y4068313D01*
X4554139Y3647887D02*
X4864141Y3647887D01*
X4554139Y3647887D02*
X4554139Y3807887D01*
X4864141Y3807887D01*
X4864141Y3647887D02*
X4864141Y3807887D01*
X4081877Y3807887D02*
X4391878Y3807887D01*
X4391878Y3647887D02*
X4391878Y3807887D01*
X4081877Y3647887D02*
X4391878Y3647887D01*
X4081877Y3647887D02*
X4081877Y3807887D01*
X4074094Y4328739D02*
X4384096Y4328739D01*
X4384096Y4168739D02*
X4384096Y4328739D01*
X4074094Y4168739D02*
X4384096Y4168739D01*
X4074094Y4168739D02*
X4074094Y4328739D01*
X3085191Y6136198D02*
X3190194Y6136198D01*
X3085191Y6081202D02*
X3190194Y6081202D01*
X3085191Y6081202D02*
X3085191Y6136198D01*
X3190194Y6081202D02*
X3190194Y6136198D01*
X5541079Y6595419D02*
X5541079Y6700417D01*
X5596080Y6595419D02*
X5596080Y6700417D01*
X5541079Y6700417D02*
X5596080Y6700417D01*
X5541079Y6595419D02*
X5596080Y6595419D01*
X5151173Y6729854D02*
X5371172Y6729854D01*
X5151173Y6869854D02*
X5371172Y6869854D01*
X5151173Y6729854D02*
X5151173Y6869854D01*
X5371172Y6729854D02*
X5371172Y6869854D01*
X7630602Y7491298D02*
X7630602Y7596302D01*
X7685598Y7491298D02*
X7685598Y7596302D01*
X7630602Y7596302D02*
X7685598Y7596302D01*
X7630602Y7491298D02*
X7685598Y7491298D01*
X5286066Y3070479D02*
X5286066Y3380481D01*
X5596068Y3070479D02*
X5596068Y3380481D01*
X5286066Y3380481D02*
X5596068Y3380481D01*
X5286066Y3070479D02*
X5596068Y3070479D01*
X5118457Y7721217D02*
X5118457Y7891219D01*
X5208459Y7721217D02*
X5208459Y7891219D01*
X5118457Y7891219D02*
X5208459Y7891219D01*
X5118457Y7721217D02*
X5208459Y7721217D01*
X5865749Y4379062D02*
X5865749Y5179060D01*
X5265750Y4379062D02*
X5865749Y4379062D01*
X5265750Y4379062D02*
X5265750Y5179060D01*
X5865749Y5179060D01*
X5665749Y5179060D02*
X5865749Y4979060D01*
X8619464Y8645745D02*
X8619464Y8772745D01*
X8619464Y8645745D02*
X8822664Y8645745D01*
X8822664Y8772745D01*
X8619464Y8772745D02*
X8822664Y8772745D01*
X8576005Y8038533D02*
X8576005Y8165533D01*
X8576005Y8038533D02*
X8779205Y8038533D01*
X8779205Y8165533D01*
X8576005Y8165533D02*
X8779205Y8165533D01*
X11499698Y3682898D02*
X11499698Y10337902D01*
X11004702Y3682898D02*
X11004702Y10337902D01*
X11004702Y3682898D02*
X11499698Y3682898D01*
X11004702Y10337902D02*
X11499698Y10337902D01*
X11512702Y10337902D02*
X12007698Y10337902D01*
X11512702Y3682898D02*
X12007698Y3682898D01*
X11512702Y3682898D02*
X11512702Y10337902D01*
X12007698Y3682898D02*
X12007698Y10337902D01*
D97*
X5132802Y5929300D02*
X5382798Y5929300D01*
X5382798Y5729300D02*
X5382798Y5929300D01*
X5132802Y5729300D02*
X5382798Y5729300D01*
X5132802Y5729300D02*
X5132802Y5929300D01*
%TF.MD5,4e2707c6f4c2a292844cfc6e427301c2*%
M02*
