<?xml version="1.0" encoding="utf-8"?>
<!-- Generator: Adobe Illustrator 24.0.0, SVG Export Plug-In . SVG Version: 6.00 Build 0)  -->
<svg version="1.1" id="Layer_1" xmlns="http://www.w3.org/2000/svg" xmlns:xlink="http://www.w3.org/1999/xlink" x="0px" y="0px"
	 viewBox="0 0 227 126" style="enable-background:new 0 0 227 126;" xml:space="preserve">
<style type="text/css">
	.st0{fill:#193447;}
	.st1{fill-rule:evenodd;clip-rule:evenodd;fill:url(#path-2_2_);}
</style>
<g id="Spacecraftteam_light_BG">
	<g id="Group-Copy-3" transform="translate(38.000000, 38.000000)">
		<path id="EPFLSPACECRAFTTEAM" class="st0" d="M67.6,14.5c0.2,0,0.3-0.1,0.3-0.3v-1.6c0-0.1-0.1-0.3-0.3-0.3h-4.2v-2h3.4
			c0.2,0,0.3-0.1,0.3-0.3V8.4c0-0.2-0.1-0.3-0.3-0.3h-3.4V6.2h4.2c0.2,0,0.3-0.1,0.3-0.3V4.3c0-0.1-0.1-0.3-0.3-0.3h-6.2
			c-0.2,0-0.3,0.1-0.3,0.3v9.9c0,0.1,0.1,0.3,0.3,0.3H67.6z M71.9,14.5c0.1,0,0.3-0.1,0.3-0.3v-3.5h1.6c1.8,0,3.3-1.5,3.3-3.4
			c0-1.8-1.5-3.3-3.4-3.3h-3.6c-0.2,0-0.3,0.1-0.3,0.3v9.9c0,0.1,0.1,0.3,0.3,0.3H71.9z M73.6,8.5h-1.4V6.2h1.4
			c0.6,0,1.2,0.5,1.2,1.1C74.8,8,74.3,8.5,73.6,8.5z M80.7,14.5c0.2,0,0.3-0.1,0.3-0.3v-3.6h3.4c0.2,0,0.3-0.1,0.3-0.3V8.6
			c0-0.1-0.1-0.3-0.3-0.3H81V6.2h4.2c0.2,0,0.3-0.1,0.3-0.3V4.3c0-0.1-0.1-0.3-0.3-0.3h-6.2c-0.2,0-0.3,0.1-0.3,0.3v9.9
			c0,0.1,0.1,0.3,0.3,0.3H80.7z M93,14.5c0.2,0,0.3-0.1,0.3-0.3v-1.6c0-0.1-0.1-0.3-0.3-0.3h-3.6v-8c0-0.1-0.1-0.3-0.3-0.3h-1.8
			c-0.2,0-0.3,0.1-0.3,0.3v9.9c0,0.1,0.1,0.3,0.3,0.3H93z M63.9,30.6c2.2,0,3.5-1.6,3.5-3.1c0-2-1.9-3-3-3.4
			c-1.2-0.5-1.6-0.9-1.6-1.5c0-0.4,0.4-0.8,0.9-0.8c0.9,0,2,0.8,2.1,0.9c0.1,0.1,0.4,0,0.5-0.2l0.8-1.2c0.1-0.1,0.1-0.4-0.1-0.5
			c-0.5-0.3-1.7-1.1-3.2-1.1c-2.3,0-3.5,1.5-3.5,3c0,1.8,1.6,2.8,2.9,3.3c1,0.4,1.5,0.9,1.5,1.5c0,0.5-0.4,0.9-1,0.9
			c-1,0-2.1-0.8-2.1-0.8c-0.1-0.1-0.4-0.1-0.5,0.1l-0.7,1.2c-0.1,0.2-0.1,0.3,0.1,0.4C60.9,29.8,62,30.6,63.9,30.6z M71.4,30.5
			c0.1,0,0.3-0.1,0.3-0.3v-3.5h1.6c1.8,0,3.3-1.5,3.3-3.4c0-1.8-1.5-3.3-3.4-3.3h-3.6c-0.2,0-0.3,0.1-0.3,0.3v9.9
			c0,0.1,0.1,0.3,0.3,0.3H71.4z M73.1,24.5h-1.4v-2.3h1.4c0.6,0,1.2,0.5,1.2,1.1C74.3,24,73.7,24.5,73.1,24.5z M78.1,30.5
			c0.3,0,0.5-0.2,0.5-0.4l0.5-1.2h4.1l0.5,1.2c0.1,0.3,0.3,0.4,0.5,0.4H86c0.2,0,0.3-0.2,0.3-0.4L81.5,20c0-0.1-0.2-0.2-0.3-0.2
			h-0.2c-0.1,0-0.2,0.1-0.3,0.2l-4.7,10.1c-0.1,0.2,0,0.4,0.3,0.4H78.1z M82.3,26.9h-2.3l1.1-2.5h0L82.3,26.9z M92,30.6
			c1.3,0,2.6-0.5,3.6-1.5c0.1-0.1,0.1-0.3,0-0.4l-1.2-1.2c-0.1-0.1-0.3-0.1-0.4,0c-0.5,0.5-1.3,0.7-2,0.7c-1.7,0-3-1.4-3-3
			c0-1.7,1.2-3.1,2.9-3.1c0.7,0,1.5,0.3,2,0.8c0.1,0.1,0.3,0.1,0.4,0l1.2-1.2c0.1-0.1,0.1-0.3,0-0.4c-1-0.9-2.1-1.4-3.6-1.4
			c-3,0-5.4,2.4-5.4,5.4S89,30.6,92,30.6z M104,30.5c0.2,0,0.3-0.1,0.3-0.3v-1.6c0-0.1-0.1-0.3-0.3-0.3h-4.2v-2h3.4
			c0.1,0,0.3-0.1,0.3-0.3v-1.6c0-0.1-0.1-0.3-0.3-0.3h-3.4v-1.9h4.2c0.2,0,0.3-0.1,0.3-0.3v-1.6c0-0.1-0.1-0.3-0.3-0.3h-6.2
			c-0.2,0-0.3,0.1-0.3,0.3v9.9c0,0.1,0.1,0.3,0.3,0.3H104z M110.9,30.6c1.3,0,2.6-0.5,3.6-1.5c0.1-0.1,0.1-0.3,0-0.4l-1.2-1.2
			c-0.1-0.1-0.3-0.1-0.4,0c-0.5,0.5-1.3,0.7-2,0.7c-1.7,0-3-1.4-3-3c0-1.7,1.2-3.1,2.9-3.1c0.7,0,1.5,0.3,2,0.8
			c0.1,0.1,0.3,0.1,0.4,0l1.2-1.2c0.1-0.1,0.1-0.3,0-0.4c-1-0.9-2.1-1.4-3.6-1.4c-3,0-5.4,2.4-5.4,5.4S107.9,30.6,110.9,30.6z
			 M118.4,30.5c0.1,0,0.3-0.1,0.3-0.3v-3.8h1l2,4c0,0.1,0.1,0.1,0.2,0.1h2c0.3,0,0.4-0.2,0.3-0.4l-2.1-3.8c1.3-0.5,2.2-1.6,2.2-3
			c0-1.8-1.5-3.2-3.3-3.2h-4.5c-0.2,0-0.3,0.1-0.3,0.3v9.9c0,0.1,0.1,0.3,0.3,0.3H118.4z M120.9,24.5h-2.2v-2.3h2.2
			c0.6,0,1.1,0.5,1.1,1.1C122.1,23.9,121.5,24.5,120.9,24.5z M127,30.5c0.3,0,0.5-0.2,0.5-0.4l0.5-1.2h4.1l0.5,1.2
			c0.1,0.3,0.3,0.4,0.5,0.4h1.7c0.2,0,0.3-0.2,0.3-0.4L130.4,20c0-0.1-0.2-0.2-0.3-0.2H130c-0.1,0-0.2,0.1-0.3,0.2l-4.7,10.1
			c-0.1,0.2,0,0.4,0.3,0.4H127z M131.2,26.9h-2.3l1.1-2.5h0L131.2,26.9z M138.4,30.5c0.1,0,0.3-0.1,0.3-0.3v-3.6h3.4
			c0.1,0,0.3-0.1,0.3-0.3v-1.6c0-0.1-0.1-0.3-0.3-0.3h-3.4v-2.2h4.2c0.2,0,0.3-0.1,0.3-0.3v-1.6c0-0.1-0.1-0.3-0.3-0.3h-6.2
			c-0.2,0-0.3,0.1-0.3,0.3v9.9c0,0.1,0.1,0.3,0.3,0.3H138.4z M148.2,30.5c0.2,0,0.3-0.1,0.3-0.3v-8h2.1c0.2,0,0.3-0.1,0.3-0.3v-1.6
			c0-0.1-0.1-0.3-0.3-0.3H144c-0.2,0-0.3,0.1-0.3,0.3v1.6c0,0.1,0.1,0.3,0.3,0.3h2.1v8c0,0.1,0.1,0.3,0.3,0.3H148.2z M64.5,46.5
			c0.2,0,0.3-0.1,0.3-0.3v-8h2.1c0.2,0,0.3-0.1,0.3-0.3v-1.6c0-0.2-0.1-0.3-0.3-0.3h-6.7c-0.2,0-0.3,0.1-0.3,0.3v1.6
			c0,0.2,0.1,0.3,0.3,0.3h2.1v8c0,0.2,0.1,0.3,0.3,0.3H64.5z M75.2,46.5c0.2,0,0.3-0.1,0.3-0.3v-1.6c0-0.2-0.1-0.3-0.3-0.3h-4.2v-2
			h3.4c0.2,0,0.3-0.1,0.3-0.3v-1.6c0-0.1-0.1-0.3-0.3-0.3h-3.4v-1.9h4.2c0.2,0,0.3-0.1,0.3-0.3v-1.6c0-0.2-0.1-0.3-0.3-0.3H69
			c-0.2,0-0.3,0.1-0.3,0.3v9.9c0,0.2,0.1,0.3,0.3,0.3H75.2z M78.1,46.5c0.3,0,0.5-0.2,0.5-0.4l0.5-1.2h4.1l0.5,1.2
			c0.1,0.3,0.3,0.4,0.5,0.4H86c0.2,0,0.3-0.2,0.3-0.4L81.5,36c0-0.1-0.2-0.2-0.3-0.2h-0.1c-0.1,0-0.2,0.1-0.3,0.2l-4.7,10.1
			c-0.1,0.2,0,0.4,0.3,0.4H78.1z M82.3,42.9h-2.3l1.1-2.5h0L82.3,42.9z M92.9,46.7c0.1,0,0.2-0.1,0.3-0.2l2.5-4.9h0l0.7,4.6
			c0,0.1,0.2,0.2,0.3,0.2h1.8c0.2,0,0.3-0.1,0.3-0.3L97,36.1c0-0.1-0.1-0.2-0.3-0.2h-0.2c-0.1,0-0.2,0.1-0.3,0.2l-3.5,6.5h0L89.3,36
			c0-0.1-0.2-0.2-0.3-0.2h-0.2c-0.1,0-0.3,0.1-0.3,0.2l-1.7,10.1c0,0.2,0.1,0.3,0.3,0.3h1.8c0.2,0,0.3-0.1,0.3-0.2l0.7-4.6h0
			l2.5,4.9c0,0.1,0.2,0.2,0.3,0.2H92.9z"/>
		<g id="Satellite">
			
				<linearGradient id="path-2_2_" gradientUnits="userSpaceOnUse" x1="-225.2025" y1="415.0199" x2="-225.9601" y2="414.5504" gradientTransform="matrix(49.324 0 0 -49.324 11152.5205 20483.1074)">
				<stop  offset="0" style="stop-color:#FFA500"/>
				<stop  offset="1" style="stop-color:#F60606"/>
			</linearGradient>
			<path id="path-2_1_" class="st1" d="M24.7,0.4c13.6,0,24.7,11,24.7,24.7s-11,24.7-24.7,24.7c-9.5,0-17.7-5.3-21.8-13.2
				c0.7,0.3,1.5,0.5,2.2,0.6c4.8,1,10.9,0.3,17.1-2c0.4-0.1,1.1-0.5,1.6-0.8l0,0l0,0c0.8,1,1.9,1.7,3.1,2l0,0l2.3,5
				c1,2.2,3.6,3.1,5.7,2.1s3.1-3.6,2.1-5.7l0,0l-2.3-5c0.7-1.6,0.7-3.6-0.1-5.3c-0.8-1.8-2.3-3-4-3.5l0,0l-2.3-5
				c-1-2.2-3.6-3.1-5.7-2.1s-3.1,3.6-2.1,5.7l0,0l2.3,5c-0.6,1.3-0.7,2.7-0.4,4.1l0,0l-0.1,0l-0.2,0.1c-0.2,0.1-0.4,0.2-0.6,0.3l0,0
				l-0.3,0.2l-0.2,0.1c-5.7,2.1-11.2,2.7-15.4,1.8c-0.9-0.2-1.7-0.4-2.5-0.8c-0.8-0.4-1.6-0.8-2.2-1.3c-0.7-2.3-1-4.6-1-7.1
				C0,11.4,11,0.4,24.7,0.4z M32.7,35.6l1.6,3.5c0.3,0.6,0,1.4-0.6,1.7c-0.6,0.3-1.4,0-1.7-0.6l0,0l-1.6-3.5l1.2-0.5l0,0l0,0l0,0
				L32.7,35.6z M27.3,27.1c1.7-0.8,3.8-0.1,4.6,1.7c0.8,1.7,0.1,3.7-1.5,4.5l0,0l-0.2,0.1l0,0c-1.7,0.8-3.8,0.1-4.6-1.7
				C24.8,30,25.6,27.9,27.3,27.1z M23.9,19.6c0.6-0.3,1.4,0,1.7,0.6l0,0l1.6,3.5l-2.4,1.1l-1.6-3.5C22.9,20.7,23.2,19.9,23.9,19.6z"
				/>
		</g>
	</g>
</g>
</svg>
